<svg id="svg" version="1.1" xmlns="http://www.w3.org/2000/svg" xmlns:xlink="http://www.w3.org/1999/xlink" width="400" height="373.33333333333337" viewBox="0, 0, 400,373.33333333333337"><g id="svgg"><path id="path0" d="M0.000 186.741 L 0.000 373.483 200.000 373.483 L 400.000 373.483 400.000 186.741 L 400.000 0.000 200.000 0.000 L 0.000 0.000 0.000 186.741 M205.308 21.447 C 214.939 21.634,220.482 22.050,233.427 23.558 C 246.783 25.114,249.377 25.489,252.661 26.341 C 254.510 26.820,259.312 28.057,263.332 29.091 C 273.860 31.796,281.131 34.381,284.967 36.783 C 286.079 37.479,290.071 39.531,294.535 41.702 C 296.069 42.448,306.292 50.118,310.551 53.718 C 347.754 85.169,372.305 130.864,378.710 180.579 C 381.442 201.784,380.375 232.076,376.276 249.673 C 375.988 250.906,375.139 254.603,374.389 257.890 C 367.039 290.071,348.065 324.874,324.960 348.553 L 321.771 351.821 198.263 351.821 L 74.755 351.821 70.465 347.246 C 52.364 327.944,38.862 306.172,29.390 281.010 C 24.851 268.951,22.469 259.976,17.802 237.348 C 17.505 235.910,16.998 232.633,16.675 230.065 C 16.351 227.498,15.878 223.884,15.622 222.035 C 13.896 209.552,15.565 184.183,18.867 172.736 C 19.341 171.092,20.184 167.395,20.740 164.519 C 28.584 123.982,52.779 82.253,83.910 55.571 C 91.817 48.795,102.305 41.084,103.620 41.082 C 104.042 41.081,105.313 40.491,106.443 39.771 C 109.722 37.681,114.905 35.329,119.141 34.009 C 124.706 32.274,128.501 30.921,132.611 29.209 C 137.025 27.369,142.685 25.752,149.767 24.306 C 164.258 21.346,174.075 20.841,205.308 21.447 M136.695 72.455 L 136.695 85.528 198.511 85.528 L 260.327 85.528 260.229 72.549 L 260.131 59.570 198.413 59.476 L 136.695 59.382 136.695 72.455 M158.730 69.841 L 158.730 75.070 160.037 75.070 C 161.313 75.070,161.345 75.106,161.345 76.564 C 161.345 78.022,161.313 78.058,160.037 78.058 L 158.730 78.058 158.730 80.486 L 158.730 82.913 157.236 82.913 L 155.742 82.913 155.742 80.486 L 155.742 78.058 151.447 78.058 L 147.152 78.058 147.152 75.257 C 147.152 73.016,147.264 72.456,147.712 72.456 C 148.024 72.456,148.273 72.124,148.273 71.709 C 148.273 71.294,148.522 70.962,148.833 70.962 C 149.141 70.962,149.393 70.710,149.393 70.401 C 149.393 70.090,149.725 69.841,150.140 69.841 C 150.555 69.841,150.887 69.592,150.887 69.281 C 150.887 68.973,151.120 68.721,151.404 68.721 C 151.688 68.721,152.008 68.385,152.116 67.974 C 152.223 67.563,152.579 67.227,152.906 67.227 C 153.234 67.227,153.501 66.970,153.501 66.655 C 153.501 66.340,153.754 65.986,154.062 65.868 C 154.370 65.750,154.622 65.419,154.622 65.133 C 154.622 64.751,155.169 64.613,156.676 64.613 L 158.730 64.613 158.730 69.841 M174.637 65.453 C 175.125 65.915,175.527 66.503,175.530 66.760 C 175.534 67.017,175.789 67.227,176.097 67.227 C 176.561 67.227,176.657 67.932,176.657 71.335 C 176.657 74.738,176.561 75.444,176.097 75.444 C 175.737 75.444,175.535 75.809,175.530 76.471 C 175.524 77.489,174.156 79.178,173.337 79.178 C 173.109 79.178,172.923 79.514,172.923 79.925 C 172.923 80.340,172.674 80.672,172.362 80.672 C 172.054 80.672,171.802 80.924,171.802 81.232 C 171.802 81.541,171.568 81.793,171.282 81.793 C 170.996 81.793,170.665 82.045,170.547 82.353 C 170.382 82.782,169.674 82.913,167.519 82.913 L 164.706 82.913 164.706 81.646 C 164.706 80.210,165.144 79.925,167.351 79.925 C 168.403 79.925,168.814 79.768,168.814 79.365 C 168.814 79.057,169.066 78.805,169.374 78.805 C 169.683 78.805,169.935 78.553,169.935 78.245 C 169.935 77.937,170.202 77.684,170.530 77.684 C 170.857 77.684,171.213 77.348,171.320 76.937 C 171.428 76.527,171.748 76.190,172.032 76.190 C 172.317 76.190,172.549 76.022,172.549 75.817 C 172.549 75.593,171.043 75.444,168.779 75.444 C 165.324 75.444,164.993 75.381,164.814 74.697 C 164.707 74.286,164.386 73.950,164.102 73.950 C 163.818 73.950,163.585 73.697,163.585 73.389 C 163.585 73.081,163.333 72.829,163.025 72.829 C 162.577 72.829,162.465 72.269,162.465 70.028 C 162.465 67.787,162.577 67.227,163.025 67.227 C 163.333 67.227,163.585 67.073,163.585 66.885 C 163.585 64.578,172.496 63.423,174.637 65.453 M189.950 65.453 C 190.438 65.915,190.840 66.503,190.843 66.760 C 190.847 67.017,191.102 67.227,191.410 67.227 C 191.874 67.227,191.970 67.932,191.970 71.335 C 191.970 74.738,191.874 75.444,191.410 75.444 C 191.035 75.444,190.850 75.818,190.850 76.576 C 190.850 77.238,190.617 77.797,190.289 77.923 C 189.981 78.041,189.729 78.372,189.729 78.658 C 189.729 78.944,189.461 79.178,189.134 79.178 C 188.807 79.178,188.451 79.514,188.344 79.925 C 188.236 80.336,187.916 80.672,187.632 80.672 C 187.347 80.672,187.115 80.924,187.115 81.232 C 187.115 81.541,186.863 81.793,186.555 81.793 C 186.246 81.793,185.994 82.045,185.994 82.353 C 185.994 82.804,185.413 82.913,183.007 82.913 L 180.019 82.913 180.019 81.646 C 180.019 80.210,180.456 79.925,182.664 79.925 C 183.715 79.925,184.127 79.768,184.127 79.365 C 184.127 79.057,184.379 78.805,184.687 78.805 C 184.995 78.805,185.247 78.553,185.247 78.245 C 185.247 77.937,185.515 77.684,185.843 77.684 C 186.170 77.684,186.526 77.348,186.633 76.937 C 186.741 76.527,187.061 76.190,187.345 76.190 C 187.629 76.190,187.862 76.022,187.862 75.817 C 187.862 75.593,186.356 75.444,184.092 75.444 C 180.636 75.444,180.306 75.381,180.127 74.697 C 180.019 74.286,179.699 73.950,179.415 73.950 C 179.131 73.950,178.898 73.697,178.898 73.389 C 178.898 73.081,178.646 72.829,178.338 72.829 C 177.890 72.829,177.778 72.269,177.778 70.028 C 177.778 67.787,177.890 67.227,178.338 67.227 C 178.646 67.227,178.898 67.073,178.898 66.885 C 178.898 64.578,187.809 63.423,189.950 65.453 M216.534 72.362 L 216.635 79.925 217.487 79.925 C 218.627 79.925,219.234 80.600,219.234 81.867 L 219.234 82.913 215.104 82.913 L 210.973 82.913 211.089 81.513 C 211.189 80.297,211.340 80.096,212.232 79.994 L 213.259 79.876 213.259 73.738 C 213.259 68.531,213.174 67.600,212.698 67.600 C 212.312 67.600,212.138 67.213,212.138 66.355 C 212.138 64.702,212.345 64.560,214.551 64.689 L 216.433 64.799 216.534 72.362 M226.704 68.534 C 226.704 72.140,227.081 73.539,227.559 71.709 C 227.736 71.034,228.069 70.962,230.999 70.962 C 233.929 70.962,234.263 71.034,234.439 71.709 C 234.546 72.120,234.867 72.456,235.151 72.456 C 235.435 72.456,235.668 72.708,235.668 73.016 C 235.668 73.324,235.920 73.576,236.228 73.576 C 236.686 73.576,236.788 74.219,236.788 77.124 C 236.788 80.029,236.686 80.672,236.228 80.672 C 235.920 80.672,235.668 80.924,235.668 81.232 C 235.668 81.541,235.415 81.793,235.107 81.793 C 234.799 81.793,234.547 82.045,234.547 82.353 C 234.547 82.825,233.696 82.913,229.132 82.913 L 223.716 82.913 223.716 73.763 L 223.716 64.613 225.210 64.613 L 226.704 64.613 226.704 68.534 M166.573 68.161 C 166.573 68.469,166.321 68.721,166.013 68.721 C 165.640 68.721,165.453 69.094,165.453 69.841 C 165.453 70.588,165.640 70.962,166.013 70.962 C 166.324 70.962,166.573 71.294,166.573 71.709 C 166.573 72.393,166.822 72.456,169.561 72.456 C 171.995 72.456,172.549 72.350,172.549 71.884 C 172.549 71.569,172.801 71.215,173.109 71.097 C 173.429 70.974,173.669 70.417,173.669 69.801 C 173.669 69.090,173.478 68.721,173.109 68.721 C 172.801 68.721,172.549 68.469,172.549 68.161 C 172.549 67.709,171.968 67.600,169.561 67.600 C 167.154 67.600,166.573 67.709,166.573 68.161 M181.886 68.161 C 181.886 68.469,181.634 68.721,181.326 68.721 C 180.952 68.721,180.766 69.094,180.766 69.841 C 180.766 70.588,180.952 70.962,181.326 70.962 C 181.637 70.962,181.886 71.294,181.886 71.709 C 181.886 72.393,182.135 72.456,184.874 72.456 C 187.308 72.456,187.862 72.350,187.862 71.884 C 187.862 71.569,188.114 71.215,188.422 71.097 C 188.741 70.974,188.982 70.417,188.982 69.801 C 188.982 69.090,188.791 68.721,188.422 68.721 C 188.114 68.721,187.862 68.469,187.862 68.161 C 187.862 67.709,187.281 67.600,184.874 67.600 C 182.467 67.600,181.886 67.709,181.886 68.161 M155.104 69.468 C 154.996 69.879,154.660 70.215,154.357 70.215 C 154.053 70.215,153.717 70.551,153.610 70.962 C 153.502 71.373,153.182 71.709,152.898 71.709 C 152.613 71.709,152.381 71.961,152.381 72.269 C 152.381 72.577,152.129 72.829,151.821 72.829 C 151.513 72.829,151.261 73.081,151.261 73.389 C 151.261 73.697,151.008 73.950,150.700 73.950 C 150.392 73.950,150.140 74.202,150.140 74.510 C 150.140 74.958,150.700 75.070,152.941 75.070 L 155.742 75.070 155.742 71.895 C 155.742 68.821,155.507 67.926,155.104 69.468 M248.553 71.709 C 248.683 72.120,249.031 72.456,249.325 72.456 C 249.619 72.456,249.860 72.792,249.860 73.203 C 249.860 73.902,249.611 73.950,245.938 73.950 C 242.702 73.950,242.017 74.047,242.017 74.510 C 242.017 74.962,242.602 75.070,245.045 75.070 C 249.102 75.070,249.844 75.692,249.853 79.097 C 249.858 80.842,249.716 81.498,249.300 81.658 C 248.992 81.776,248.739 82.107,248.739 82.393 C 248.739 82.807,247.867 82.913,244.444 82.913 C 240.876 82.913,240.149 82.818,240.149 82.353 C 240.149 82.045,239.886 81.793,239.563 81.793 C 239.169 81.793,239.016 81.518,239.096 80.952 C 239.210 80.152,239.396 80.107,243.044 80.006 C 246.835 79.900,246.872 79.890,246.872 78.979 C 246.872 78.075,246.814 78.058,243.834 78.058 C 241.056 78.058,240.719 77.976,239.912 77.105 C 238.876 75.986,238.597 72.456,239.546 72.456 C 239.830 72.456,240.150 72.120,240.258 71.709 C 240.437 71.021,240.767 70.962,244.384 70.962 C 247.988 70.962,248.335 71.024,248.553 71.709 M227.933 74.697 C 227.825 75.107,227.505 75.444,227.221 75.444 C 226.838 75.444,226.704 76.025,226.704 77.684 L 226.704 79.925 229.692 79.925 C 232.099 79.925,232.680 79.816,232.680 79.365 C 232.680 79.057,232.932 78.805,233.240 78.805 C 233.653 78.805,233.800 78.374,233.800 77.164 C 233.800 76.050,233.620 75.454,233.240 75.308 C 232.932 75.190,232.680 74.836,232.680 74.522 C 232.680 73.546,228.190 73.711,227.933 74.697 M177.031 169.598 C 155.811 171.750,141.330 181.710,143.417 192.717 C 144.527 198.569,149.182 201.992,159.104 204.253 C 167.339 206.130,168.254 206.205,186.741 206.541 C 207.757 206.923,209.763 207.204,213.012 210.220 C 217.151 214.063,214.883 221.158,208.468 224.430 C 200.162 228.668,182.707 228.248,169.406 223.491 C 163.614 221.420,156.638 217.093,152.959 213.291 L 151.482 211.765 148.010 211.765 L 144.538 211.765 144.538 224.463 L 144.538 237.162 147.993 237.160 C 153.067 237.158,153.945 236.368,156.803 229.237 L 157.210 228.221 159.611 229.125 C 193.693 241.954,237.409 228.151,231.732 206.355 C 228.435 193.698,217.245 189.072,187.942 188.253 C 175.339 187.901,174.111 187.728,170.902 185.847 C 166.065 183.013,169.443 177.310,176.759 175.958 C 188.684 173.753,205.720 177.390,217.789 184.718 L 219.892 185.994 224.979 185.994 L 230.065 185.994 230.065 177.778 L 230.065 169.561 222.360 169.561 L 214.655 169.561 212.914 170.812 L 211.174 172.062 207.838 171.387 C 198.960 169.589,185.068 168.783,177.031 169.598 M237.784 211.640 C 237.647 211.777,237.533 212.323,237.531 212.854 C 237.526 213.790,236.776 216.879,236.230 218.207 C 235.986 218.799,236.255 218.860,239.082 218.856 C 243.877 218.848,244.032 218.768,243.697 216.471 C 243.545 215.423,243.398 214.014,243.372 213.339 C 243.346 212.664,243.072 211.953,242.764 211.757 C 242.127 211.354,238.163 211.261,237.784 211.640 M245.651 211.617 C 245.288 211.980,245.761 217.862,246.195 218.384 C 246.486 218.736,248.230 218.861,252.847 218.861 C 263.852 218.861,267.958 222.214,268.839 231.920 L 269.094 234.734 271.989 234.843 L 274.883 234.952 274.883 223.172 L 274.883 211.391 260.380 211.391 C 252.403 211.391,245.775 211.493,245.651 211.617 M177.386 211.951 C 177.375 212.054,177.358 213.441,177.347 215.033 L 177.327 217.927 182.128 218.114 C 187.710 218.331,188.614 218.739,190.161 221.739 L 191.085 223.529 196.103 223.529 C 200.384 223.529,201.520 223.398,203.844 222.637 C 211.649 220.080,213.590 214.233,207.258 212.352 C 205.345 211.784,177.440 211.410,177.386 211.951 M241.508 228.751 C 238.777 237.413,229.026 240.659,212.271 238.483 C 207.299 237.838,206.771 237.833,203.307 238.406 C 201.283 238.740,197.736 239.127,195.425 239.264 L 191.223 239.515 191.223 248.864 C 191.223 259.692,191.037 260.471,187.907 262.766 C 185.025 264.878,178.360 266.966,172.456 267.608 L 170.308 267.841 170.308 270.055 L 170.308 272.269 198.039 272.269 L 225.770 272.269 225.770 270.037 L 225.770 267.805 224.090 267.574 C 217.071 266.608,211.219 263.426,209.678 259.736 C 209.292 258.812,209.150 256.721,209.150 251.926 L 209.150 245.378 219.594 245.378 C 233.261 245.378,235.661 246.298,239.622 253.057 L 240.639 254.793 241.335 252.980 C 243.548 247.213,245.870 234.224,245.407 230.200 C 245.031 226.934,244.897 226.704,243.370 226.704 C 242.223 226.704,242.116 226.821,241.508 228.751 M246.209 245.625 C 245.741 248.000,244.789 251.700,244.092 253.847 C 242.675 258.218,242.666 258.193,245.612 258.006 L 247.432 257.890 247.533 249.886 C 247.651 240.562,247.378 239.685,246.209 245.625 " stroke="none" fill="#fbfbfb" fill-rule="evenodd"></path><path id="path1" d="M180.133 21.568 C 182.558 21.633,186.424 21.633,188.723 21.567 C 191.023 21.502,189.038 21.448,184.314 21.449 C 179.589 21.449,177.708 21.502,180.133 21.568 M171.148 21.934 C 171.919 22.015,173.179 22.015,173.950 21.934 C 174.720 21.853,174.090 21.788,172.549 21.788 C 171.008 21.788,170.378 21.853,171.148 21.934 M204.780 21.940 C 206.588 22.009,209.445 22.009,211.129 21.940 C 212.814 21.871,211.335 21.814,207.843 21.815 C 204.351 21.815,202.973 21.872,204.780 21.940 M165.359 22.306 C 166.027 22.389,167.120 22.389,167.787 22.306 C 168.455 22.223,167.908 22.155,166.573 22.155 C 165.238 22.155,164.692 22.223,165.359 22.306 M216.713 22.293 C 217.073 22.387,217.661 22.387,218.021 22.293 C 218.380 22.199,218.086 22.122,217.367 22.122 C 216.648 22.122,216.354 22.199,216.713 22.293 M161.251 22.673 C 161.713 22.762,162.470 22.762,162.932 22.673 C 163.394 22.584,163.016 22.511,162.092 22.511 C 161.167 22.511,160.789 22.584,161.251 22.673 M220.261 22.673 C 220.724 22.762,221.480 22.762,221.942 22.673 C 222.404 22.584,222.026 22.511,221.102 22.511 C 220.177 22.511,219.799 22.584,220.261 22.673 M224.188 23.050 C 224.756 23.136,225.596 23.134,226.056 23.045 C 226.515 22.957,226.050 22.886,225.023 22.889 C 223.996 22.892,223.620 22.965,224.188 23.050 M228.665 23.413 C 229.024 23.507,229.613 23.507,229.972 23.413 C 230.331 23.319,230.037 23.243,229.318 23.243 C 228.599 23.243,228.305 23.319,228.665 23.413 M235.014 24.160 C 235.373 24.254,235.962 24.254,236.321 24.160 C 236.681 24.066,236.387 23.990,235.668 23.990 C 234.949 23.990,234.655 24.066,235.014 24.160 M238.375 24.534 C 238.735 24.628,239.323 24.628,239.683 24.534 C 240.042 24.440,239.748 24.363,239.029 24.363 C 238.310 24.363,238.016 24.440,238.375 24.534 M244.351 25.281 C 244.711 25.375,245.299 25.375,245.658 25.281 C 246.018 25.187,245.724 25.110,245.005 25.110 C 244.286 25.110,243.992 25.187,244.351 25.281 M176.097 26.373 C 175.275 26.443,171.746 26.685,168.254 26.911 C 155.119 27.761,142.482 30.569,131.466 35.085 C 129.104 36.054,126.415 37.064,125.490 37.329 C 117.785 39.545,113.273 41.425,108.814 44.277 C 107.707 44.985,106.449 45.565,106.017 45.565 C 104.466 45.565,93.155 54.022,85.154 61.165 C 54.390 88.628,34.409 123.909,25.035 167.320 C 24.214 171.120,23.116 175.994,22.594 178.151 C 20.804 185.552,19.612 200.353,19.965 210.796 C 20.234 218.773,22.102 234.988,23.153 238.469 C 23.339 239.085,23.930 241.942,24.467 244.818 C 31.532 282.672,49.024 317.059,75.144 344.444 L 78.261 347.712 198.005 347.712 L 317.749 347.712 320.991 344.306 C 400.749 260.493,390.452 120.181,299.530 51.875 C 294.286 47.935,290.807 45.565,290.269 45.565 C 290.070 45.565,287.998 44.531,285.664 43.268 C 276.511 38.316,272.486 36.802,260.504 33.803 C 256.807 32.878,252.185 31.702,250.233 31.191 C 246.456 30.202,233.080 28.510,219.421 27.294 C 211.819 26.617,180.949 25.961,176.097 26.373 M253.035 26.891 C 253.445 27.067,254.034 27.212,254.342 27.212 C 254.695 27.212,254.626 27.093,254.155 26.891 C 253.744 26.714,253.156 26.570,252.848 26.570 C 252.495 26.570,252.564 26.688,253.035 26.891 M257.143 28.011 C 257.554 28.188,258.142 28.332,258.450 28.332 C 258.803 28.332,258.734 28.214,258.263 28.011 C 257.852 27.835,257.264 27.690,256.956 27.690 C 256.603 27.690,256.672 27.809,257.143 28.011 M280.517 34.857 C 280.602 34.924,281.849 35.601,283.287 36.361 C 284.725 37.120,285.565 37.472,285.154 37.142 C 284.336 36.485,281.041 34.734,280.622 34.734 C 280.479 34.734,280.431 34.789,280.517 34.857 M114.659 35.668 C 114.146 35.961,113.894 36.201,114.099 36.201 C 114.304 36.201,114.893 35.961,115.406 35.668 C 115.920 35.374,116.172 35.134,115.966 35.134 C 115.761 35.134,115.173 35.374,114.659 35.668 M110.831 37.372 C 109.650 37.982,108.683 38.564,108.683 38.667 C 108.683 38.834,113.128 36.718,113.508 36.370 C 113.997 35.923,112.697 36.409,110.831 37.372 M286.088 37.906 C 286.088 38.158,289.868 40.041,290.036 39.874 C 290.113 39.797,289.256 39.283,288.131 38.732 C 287.007 38.181,286.088 37.809,286.088 37.906 M291.317 40.676 C 291.830 41.096,292.418 41.441,292.624 41.443 C 293.023 41.445,292.348 40.928,291.130 40.299 C 290.634 40.042,290.696 40.169,291.317 40.676 M82.520 57.049 L 81.232 58.450 82.633 57.163 C 83.937 55.965,84.205 55.649,83.920 55.649 C 83.858 55.649,83.227 56.279,82.520 57.049 M313.725 56.956 C 314.422 57.675,315.077 58.263,315.179 58.263 C 315.282 58.263,314.796 57.675,314.099 56.956 C 313.402 56.237,312.748 55.649,312.645 55.649 C 312.543 55.649,313.029 56.237,313.725 56.956 M74.319 64.893 L 68.161 71.148 74.416 64.990 C 80.228 59.269,80.841 58.637,80.575 58.637 C 80.521 58.637,77.706 61.452,74.319 64.893 M322.316 65.173 C 325.700 68.562,328.554 71.335,328.656 71.335 C 328.759 71.335,326.074 68.562,322.689 65.173 C 319.304 61.783,316.451 59.010,316.348 59.010 C 316.246 59.010,318.931 61.783,322.316 65.173 M260.309 74.136 L 260.288 88.889 198.545 88.889 L 136.803 88.889 136.565 86.368 C 136.434 84.981,136.325 78.343,136.324 71.615 L 136.321 59.384 198.325 59.384 L 260.329 59.384 260.309 74.136 M154.735 65.339 C 154.631 65.739,154.268 66.140,153.930 66.230 C 153.418 66.366,153.430 66.401,154.003 66.437 C 154.395 66.461,154.774 66.166,154.882 65.752 C 155.029 65.190,155.469 64.992,156.808 64.885 L 158.543 64.747 156.734 64.680 C 155.224 64.624,154.894 64.733,154.735 65.339 M165.323 64.893 C 165.227 65.047,166.519 65.127,168.195 65.072 C 173.685 64.891,174.306 64.744,169.863 64.678 C 167.462 64.642,165.418 64.739,165.323 64.893 M180.635 64.893 C 180.539 65.047,181.832 65.127,183.508 65.072 C 188.998 64.891,189.619 64.744,185.176 64.678 C 182.775 64.642,180.731 64.739,180.635 64.893 M213.357 64.881 C 213.925 64.966,214.765 64.964,215.225 64.875 C 215.684 64.787,215.219 64.717,214.192 64.719 C 213.165 64.722,212.789 64.795,213.357 64.881 M223.893 65.063 C 223.788 65.337,223.750 69.508,223.810 74.331 L 223.917 83.100 224.003 74.043 L 224.090 64.986 225.197 64.986 L 226.304 64.986 226.411 68.784 C 226.495 71.780,226.636 72.614,227.077 72.734 C 227.477 72.842,227.508 72.794,227.185 72.564 C 226.897 72.359,226.694 70.896,226.625 68.521 L 226.517 64.799 225.301 64.682 C 224.541 64.609,224.013 64.752,223.893 65.063 M164.239 65.990 C 163.880 66.084,163.585 66.399,163.585 66.690 C 163.585 67.110,163.740 67.087,164.332 66.580 C 164.973 66.031,165.299 65.631,164.986 65.776 C 164.935 65.800,164.599 65.896,164.239 65.990 M174.043 65.872 C 174.043 65.909,174.379 66.228,174.790 66.580 C 175.362 67.070,175.537 67.099,175.537 66.707 C 175.537 66.424,175.201 66.106,174.790 65.998 C 174.379 65.891,174.043 65.834,174.043 65.872 M179.552 66.136 C 179.192 66.346,178.911 66.803,178.928 67.152 C 178.952 67.670,178.997 67.684,179.175 67.227 C 179.295 66.919,179.660 66.462,179.986 66.212 C 180.707 65.658,180.449 65.614,179.552 66.136 M189.356 65.872 C 189.356 65.909,189.692 66.228,190.103 66.580 C 190.675 67.070,190.850 67.099,190.850 66.707 C 190.850 66.424,190.514 66.106,190.103 65.998 C 189.692 65.891,189.356 65.834,189.356 65.872 M150.887 69.191 C 150.887 69.519,150.593 69.863,150.233 69.957 C 149.621 70.117,149.622 70.131,150.245 70.171 C 150.920 70.215,151.546 69.255,151.120 68.829 C 150.992 68.701,150.887 68.864,150.887 69.191 M154.622 69.191 C 154.622 69.519,154.328 69.863,153.968 69.957 C 153.356 70.117,153.356 70.131,153.980 70.171 C 154.655 70.215,155.281 69.255,154.855 68.829 C 154.727 68.701,154.622 68.864,154.622 69.191 M156.246 72.082 C 156.246 73.828,156.311 74.542,156.389 73.669 C 156.468 72.796,156.468 71.368,156.389 70.495 C 156.311 69.622,156.246 70.336,156.246 72.082 M166.208 72.097 C 166.780 73.167,172.690 73.063,172.787 71.981 C 172.829 71.518,172.794 71.490,172.670 71.888 C 172.414 72.716,166.573 72.723,166.573 71.895 C 166.573 71.587,166.399 71.335,166.187 71.335 C 165.927 71.335,165.934 71.585,166.208 72.097 M187.969 71.878 C 187.753 72.263,186.799 72.458,184.682 72.550 L 181.699 72.679 184.767 72.754 C 187.496 72.821,187.880 72.747,188.235 72.082 C 188.689 71.235,188.436 71.042,187.969 71.878 M66.276 73.296 L 64.799 74.883 66.387 73.407 C 67.260 72.595,67.974 71.881,67.974 71.820 C 67.974 71.537,67.649 71.820,66.276 73.296 M151.501 72.479 C 151.120 72.850,150.897 73.374,151.005 73.645 C 151.161 74.034,151.208 74.028,151.231 73.617 C 151.247 73.332,151.554 72.883,151.914 72.621 C 152.273 72.358,152.483 72.067,152.380 71.974 C 152.278 71.881,151.882 72.108,151.501 72.479 M329.785 73.016 C 330.482 73.735,331.136 74.323,331.239 74.323 C 331.342 74.323,330.856 73.735,330.159 73.016 C 329.462 72.297,328.808 71.709,328.705 71.709 C 328.602 71.709,329.088 72.297,329.785 73.016 M178.184 72.528 C 178.510 72.797,178.875 73.268,178.995 73.576 C 179.171 74.030,179.218 74.015,179.242 73.496 C 179.258 73.144,178.894 72.672,178.431 72.448 C 177.719 72.103,177.681 72.115,178.184 72.528 M239.278 72.705 C 238.936 73.047,238.962 76.105,239.309 76.320 C 239.463 76.415,239.529 75.732,239.455 74.802 C 239.364 73.661,239.485 73.006,239.828 72.789 C 240.107 72.612,240.154 72.465,239.932 72.461 C 239.709 72.458,239.415 72.568,239.278 72.705 M241.762 74.510 C 241.830 75.177,242.154 75.269,244.793 75.367 C 247.052 75.451,247.861 75.627,248.225 76.114 C 248.652 76.684,248.680 76.662,248.491 75.910 C 248.292 75.123,248.082 75.070,245.175 75.070 C 242.542 75.070,242.042 74.971,241.879 74.416 C 241.729 73.908,241.703 73.928,241.762 74.510 M151.550 75.344 C 152.429 75.423,153.773 75.422,154.538 75.342 C 155.303 75.261,154.585 75.197,152.941 75.198 C 151.298 75.199,150.672 75.265,151.550 75.344 M159.570 75.327 C 159.930 75.421,160.518 75.421,160.878 75.327 C 161.237 75.234,160.943 75.157,160.224 75.157 C 159.505 75.157,159.211 75.234,159.570 75.327 M169.035 75.343 C 171.992 75.449,172.582 75.567,172.409 76.018 C 172.293 76.318,172.374 76.564,172.588 76.564 C 172.802 76.564,172.921 76.270,172.852 75.910 C 172.744 75.343,172.247 75.254,169.089 75.235 L 165.451 75.214 169.035 75.343 M175.309 75.603 C 175.196 75.896,175.179 76.527,175.270 77.004 C 175.399 77.682,175.446 77.613,175.486 76.688 C 175.514 76.038,175.747 75.421,176.004 75.317 C 176.369 75.170,176.367 75.123,175.992 75.100 C 175.729 75.083,175.421 75.310,175.309 75.603 M184.196 75.348 C 187.234 75.450,187.839 75.572,187.980 76.110 C 188.103 76.576,188.160 76.522,188.192 75.910 C 188.234 75.086,188.163 75.072,184.407 75.148 L 180.579 75.226 184.196 75.348 M190.622 75.603 C 190.509 75.896,190.492 76.527,190.583 77.004 C 190.712 77.682,190.759 77.613,190.799 76.688 C 190.827 76.038,191.060 75.421,191.317 75.317 C 191.682 75.170,191.680 75.123,191.305 75.100 C 191.042 75.083,190.734 75.310,190.622 75.603 M226.402 77.778 L 226.474 80.486 226.609 78.068 C 226.683 76.738,226.945 75.522,227.191 75.366 C 227.493 75.173,227.426 75.080,226.984 75.076 C 226.415 75.071,226.340 75.419,226.402 77.778 M156.112 80.409 L 156.294 83.100 156.411 80.710 C 156.475 79.396,156.393 78.185,156.228 78.019 C 156.064 77.854,156.011 78.929,156.112 80.409 M172.678 79.381 C 172.556 79.698,172.562 80.062,172.690 80.190 C 172.818 80.318,172.923 80.155,172.923 79.828 C 172.923 79.501,173.217 79.156,173.576 79.062 C 174.189 78.902,174.188 78.889,173.564 78.848 C 173.198 78.824,172.800 79.064,172.678 79.381 M187.991 79.381 C 187.869 79.698,187.874 80.062,188.002 80.190 C 188.130 80.318,188.235 80.155,188.235 79.828 C 188.235 79.501,188.529 79.156,188.889 79.062 C 189.501 78.902,189.501 78.889,188.877 78.848 C 188.511 78.824,188.112 79.064,187.991 79.381 M232.809 79.381 C 232.687 79.698,232.692 80.062,232.820 80.190 C 232.948 80.318,233.053 80.155,233.053 79.828 C 233.053 79.501,233.347 79.156,233.707 79.062 C 234.319 78.902,234.319 78.889,233.695 78.848 C 233.329 78.824,232.930 79.064,232.809 79.381 M171.429 80.815 C 171.429 81.100,171.092 81.420,170.682 81.527 C 170.250 81.640,169.953 82.014,169.978 82.411 C 170.014 82.984,170.049 82.997,170.185 82.485 C 170.275 82.146,170.675 81.784,171.075 81.679 C 171.691 81.518,172.168 80.299,171.615 80.299 C 171.513 80.299,171.429 80.531,171.429 80.815 M186.741 80.769 C 186.741 81.097,186.447 81.441,186.088 81.535 C 185.475 81.695,185.476 81.709,186.099 81.749 C 186.775 81.793,187.400 80.833,186.974 80.407 C 186.846 80.279,186.741 80.442,186.741 80.769 M211.112 81.606 C 211.116 82.428,211.193 82.720,211.282 82.255 C 211.371 81.791,211.368 81.118,211.274 80.761 C 211.181 80.404,211.108 80.784,211.112 81.606 M218.582 81.606 C 218.586 82.428,218.662 82.720,218.752 82.255 C 218.841 81.791,218.837 81.118,218.744 80.761 C 218.651 80.404,218.577 80.784,218.582 81.606 M248.121 81.996 C 248.000 82.313,248.005 82.677,248.133 82.805 C 248.261 82.933,248.366 82.770,248.366 82.443 C 248.366 82.115,248.660 81.771,249.020 81.677 C 249.632 81.517,249.631 81.503,249.008 81.463 C 248.642 81.439,248.243 81.679,248.121 81.996 M342.484 88.889 C 342.922 89.505,343.366 90.009,343.468 90.009 C 343.571 90.009,343.296 89.505,342.857 88.889 C 342.418 88.273,341.975 87.768,341.873 87.768 C 341.770 87.768,342.045 88.273,342.484 88.889 M42.017 107.563 C 41.698 108.179,41.521 108.683,41.624 108.683 C 41.727 108.683,42.072 108.179,42.390 107.563 C 42.709 106.947,42.886 106.443,42.783 106.443 C 42.680 106.443,42.335 106.947,42.017 107.563 M357.049 112.792 C 357.672 114.024,358.265 115.033,358.367 115.033 C 358.470 115.033,358.045 114.024,357.423 112.792 C 356.801 111.559,356.208 110.551,356.105 110.551 C 356.002 110.551,356.427 111.559,357.049 112.792 M129.599 119.455 C 129.599 119.628,128.884 119.979,128.011 120.235 C 125.695 120.913,123.577 122.240,120.949 124.659 C 118.528 126.887,118.401 126.743,120.492 124.138 C 122.012 122.242,124.905 120.345,127.264 119.696 C 129.491 119.083,129.599 119.072,129.599 119.455 M265.733 119.514 C 265.322 119.691,264.338 119.847,263.546 119.862 C 257.475 119.972,250.555 123.898,245.397 130.159 L 244.166 131.653 245.052 130.006 C 248.094 124.353,253.985 120.692,261.625 119.707 C 266.169 119.120,266.709 119.095,265.733 119.514 M140.056 122.518 C 148.875 124.971,154.158 130.569,156.961 140.430 C 159.793 150.392,160.579 158.356,158.917 160.248 L 158.170 161.098 158.917 160.810 C 174.160 154.940,210.500 154.693,234.360 160.297 C 237.031 160.924,239.693 161.681,240.277 161.979 C 240.861 162.277,241.420 162.439,241.519 162.340 C 241.619 162.241,241.351 162.049,240.925 161.914 C 240.498 161.778,240.139 161.385,240.126 161.039 C 239.495 143.924,245.246 128.989,254.298 124.232 C 265.452 118.371,279.937 122.725,280.848 132.213 L 281.046 134.267 282.540 134.190 C 283.361 134.148,286.068 134.000,288.555 133.862 L 293.077 133.610 295.709 135.173 C 299.513 137.434,301.324 140.357,301.739 144.911 L 301.961 147.339 305.135 147.534 C 306.881 147.641,308.562 147.877,308.870 148.058 C 315.961 152.221,318.944 157.759,318.141 165.266 L 318.021 166.387 320.672 166.624 C 328.643 167.336,332.845 172.580,332.904 181.886 C 332.930 186.127,332.413 187.851,330.732 189.134 C 328.720 190.668,329.254 191.772,332.151 192.071 C 337.988 192.674,339.447 194.685,339.601 202.342 C 339.660 205.266,335.836 208.511,331.444 209.264 C 329.232 209.642,328.827 209.839,328.317 210.783 C 327.995 211.379,327.166 212.726,326.476 213.777 C 316.586 228.828,315.685 231.003,314.873 241.774 C 314.451 247.372,314.090 250.557,312.964 258.637 C 312.563 261.513,311.976 265.714,311.661 267.974 C 310.954 273.036,309.755 280.427,308.994 284.407 C 308.680 286.050,308.187 288.655,307.898 290.196 C 306.079 299.891,302.781 305.729,296.172 310.954 C 295.453 311.522,293.856 312.951,292.624 314.128 C 285.275 321.147,280.074 324.094,270.502 326.663 C 263.402 328.569,254.745 328.763,251.354 327.093 C 244.394 323.666,234.550 312.972,234.546 308.834 C 234.545 308.135,234.267 306.050,233.928 304.202 C 232.926 298.739,233.093 288.492,234.268 283.360 C 235.072 279.849,235.114 279.355,234.589 279.556 C 230.170 281.256,216.286 283.261,204.809 283.856 C 192.427 284.498,171.271 282.858,165.978 280.846 C 165.457 280.648,164.985 280.486,164.929 280.486 C 164.873 280.486,165.135 281.704,165.510 283.193 C 167.723 291.981,166.816 307.594,163.806 312.550 C 159.415 319.777,150.969 326.653,144.878 327.960 C 137.216 329.603,119.587 325.219,113.967 320.273 C 113.013 319.432,111.307 318.003,110.177 317.096 C 109.048 316.189,106.932 314.345,105.475 312.999 C 104.018 311.652,102.170 309.962,101.367 309.241 C 94.416 303.007,93.319 300.423,90.342 283.287 C 89.315 277.373,87.382 264.860,87.029 261.845 C 86.803 259.912,86.540 258.204,86.445 258.050 C 86.247 257.729,85.025 246.734,84.414 239.776 C 83.799 232.757,83.391 230.833,82.145 229.071 C 81.540 228.215,81.046 227.430,81.046 227.326 C 81.046 227.125,76.421 219.784,73.361 215.129 C 72.350 213.589,71.268 211.825,70.958 211.207 C 69.691 208.684,69.408 208.425,68.537 208.996 C 66.011 210.651,57.700 204.552,59.055 202.039 C 59.217 201.739,59.450 200.396,59.574 199.054 C 59.982 194.629,62.506 191.970,66.298 191.970 C 68.904 191.970,69.475 190.592,67.609 188.804 C 66.790 188.019,66.553 187.514,66.710 186.887 C 66.828 186.419,66.746 185.203,66.528 184.187 C 64.681 175.576,70.571 166.573,78.051 166.573 C 80.268 166.573,80.672 166.123,80.672 163.658 C 80.672 155.515,86.958 147.555,93.406 147.534 C 96.194 147.525,96.840 147.089,97.296 144.911 C 99.195 135.842,104.846 132.171,113.914 134.116 C 116.906 134.757,117.432 134.467,118.556 131.560 C 122.004 122.642,129.369 119.545,140.056 122.518 M361.558 121.942 C 361.558 122.148,361.798 122.736,362.092 123.249 C 362.385 123.763,362.625 124.015,362.625 123.810 C 362.625 123.604,362.385 123.016,362.092 122.502 C 361.798 121.989,361.558 121.737,361.558 121.942 M103.867 132.866 C 102.563 133.637,100.676 135.163,99.674 136.258 C 97.661 138.459,97.263 138.367,98.917 136.084 C 100.781 133.511,103.632 131.518,105.500 131.481 C 105.930 131.472,105.246 132.052,103.867 132.866 M290.196 131.839 C 289.888 132.039,289.216 132.201,288.702 132.201 C 287.963 132.201,287.885 132.126,288.329 131.839 C 288.637 131.640,289.309 131.477,289.823 131.477 C 290.562 131.477,290.640 131.553,290.196 131.839 M285.528 132.213 C 283.783 132.657,282.413 132.657,283.100 132.213 C 283.408 132.014,284.332 131.868,285.154 131.889 C 286.593 131.926,286.607 131.938,285.528 132.213 M92.250 145.442 C 92.250 145.528,91.406 145.878,90.375 146.221 C 88.022 147.003,85.321 149.117,83.489 151.612 C 82.712 152.671,81.993 153.452,81.890 153.349 C 81.565 153.025,85.119 148.337,86.472 147.305 C 88.262 145.940,92.250 144.654,92.250 145.442 M157.268 162.032 C 157.047 162.446,156.977 163.076,157.114 163.433 C 157.283 163.871,157.223 163.995,156.930 163.814 C 156.648 163.639,156.575 163.748,156.720 164.126 C 157.049 164.984,157.166 164.860,157.620 163.174 C 158.077 161.476,157.890 160.870,157.268 162.032 M74.407 165.429 C 72.336 166.135,71.890 166.442,68.957 169.174 C 66.909 171.082,67.155 170.096,69.327 167.692 C 70.908 165.942,73.323 164.698,75.070 164.732 C 76.336 164.757,76.315 164.779,74.407 165.429 M155.402 168.275 C 154.288 172.899,154.606 173.220,155.855 168.731 C 156.385 166.825,156.693 165.140,156.541 164.985 C 156.388 164.830,155.876 166.311,155.402 168.275 M183.100 169.092 C 184.897 169.161,187.838 169.161,189.636 169.092 C 191.433 169.024,189.963 168.968,186.368 168.968 C 182.773 168.968,181.303 169.024,183.100 169.092 M133.333 170.121 C 132.409 170.616,131.785 171.029,131.948 171.038 C 132.344 171.061,135.201 169.593,135.201 169.367 C 135.201 169.119,135.216 169.113,133.333 170.121 M176.377 169.445 C 176.737 169.539,177.325 169.539,177.684 169.445 C 178.044 169.351,177.750 169.274,177.031 169.274 C 176.312 169.274,176.018 169.351,176.377 169.445 M195.242 169.452 C 195.707 169.541,196.379 169.538,196.736 169.444 C 197.093 169.351,196.713 169.278,195.892 169.282 C 195.070 169.286,194.778 169.362,195.242 169.452 M218.187 169.466 C 220.383 169.532,224.081 169.532,226.403 169.467 C 228.726 169.401,226.928 169.347,222.409 169.347 C 217.890 169.347,215.990 169.400,218.187 169.466 M259.570 169.372 C 259.570 169.625,262.604 171.134,262.773 170.965 C 262.851 170.887,262.163 170.457,261.243 170.010 C 260.323 169.563,259.570 169.276,259.570 169.372 M124.650 175.004 C 123.880 175.509,123.249 175.997,123.249 176.090 C 123.249 176.337,125.829 174.774,126.074 174.379 C 126.364 173.909,126.236 173.966,124.650 175.004 M268.534 174.156 C 268.534 174.241,269.500 174.931,270.682 175.689 C 271.863 176.447,272.370 176.677,271.808 176.199 C 270.699 175.257,268.534 173.905,268.534 174.156 M179.925 175.800 C 180.387 175.889,181.144 175.889,181.606 175.800 C 182.068 175.711,181.690 175.639,180.766 175.639 C 179.841 175.639,179.463 175.711,179.925 175.800 M187.213 175.805 C 187.781 175.891,188.621 175.888,189.081 175.800 C 189.540 175.711,189.076 175.641,188.049 175.644 C 187.021 175.647,186.646 175.719,187.213 175.805 M16.527 184.687 C 16.532 185.509,16.608 185.801,16.697 185.336 C 16.787 184.872,16.783 184.200,16.690 183.843 C 16.596 183.485,16.523 183.866,16.527 184.687 M222.129 186.272 C 223.618 186.343,226.055 186.343,227.544 186.272 C 229.034 186.201,227.815 186.143,224.837 186.143 C 221.858 186.143,220.640 186.201,222.129 186.272 M16.167 188.796 C 16.169 189.823,16.242 190.198,16.328 189.631 C 16.414 189.063,16.411 188.223,16.323 187.763 C 16.234 187.304,16.164 187.768,16.167 188.796 M177.498 187.746 C 177.857 187.840,178.445 187.840,178.805 187.746 C 179.164 187.652,178.870 187.575,178.151 187.575 C 177.432 187.575,177.138 187.652,177.498 187.746 M184.967 188.140 C 186.970 188.207,190.247 188.207,192.250 188.140 C 194.253 188.073,192.614 188.018,188.609 188.018 C 184.603 188.018,182.965 188.073,184.967 188.140 M199.346 188.499 C 199.809 188.588,200.565 188.588,201.027 188.499 C 201.489 188.410,201.111 188.337,200.187 188.337 C 199.262 188.337,198.884 188.410,199.346 188.499 M64.986 190.452 C 63.140 190.825,61.290 191.866,59.863 193.336 C 58.443 194.797,58.276 194.596,59.466 192.860 C 60.649 191.134,62.592 190.113,64.613 190.154 C 66.278 190.188,66.281 190.191,64.986 190.452 M379.545 191.970 C 379.545 192.689,379.622 192.983,379.716 192.624 C 379.810 192.264,379.810 191.676,379.716 191.317 C 379.622 190.957,379.545 191.251,379.545 191.970 M15.443 197.199 C 15.443 198.945,15.508 199.659,15.586 198.786 C 15.665 197.913,15.665 196.485,15.586 195.612 C 15.508 194.739,15.443 195.453,15.443 197.199 M291.911 196.172 C 292.669 197.353,293.359 198.319,293.445 198.319 C 293.695 198.319,292.344 196.155,291.401 195.046 C 290.923 194.484,291.153 194.991,291.911 196.172 M102.103 196.919 C 100.818 199.100,100.734 199.286,101.389 198.506 C 102.147 197.602,102.801 196.452,102.556 196.452 C 102.458 196.452,102.255 196.662,102.103 196.919 M146.390 198.786 C 147.937 200.435,148.273 200.732,148.273 200.451 C 148.273 200.391,147.474 199.593,146.499 198.677 L 144.725 197.012 146.390 198.786 M379.934 198.693 C 379.934 199.617,380.006 199.995,380.096 199.533 C 380.185 199.071,380.185 198.315,380.096 197.852 C 380.006 197.390,379.934 197.768,379.934 198.693 M153.335 203.157 C 153.542 203.365,154.294 203.623,155.007 203.731 C 156.322 203.932,156.074 203.774,154.070 203.135 C 153.323 202.897,153.082 202.904,153.335 203.157 M180.859 206.815 C 183.889 206.878,188.847 206.878,191.877 206.815 C 194.907 206.752,192.428 206.701,186.368 206.701 C 180.308 206.701,177.829 206.752,180.859 206.815 M202.148 207.167 C 202.507 207.261,203.095 207.261,203.455 207.167 C 203.814 207.073,203.520 206.996,202.801 206.996 C 202.082 206.996,201.788 207.073,202.148 207.167 M232.413 210.458 C 232.416 211.485,232.488 211.860,232.574 211.293 C 232.660 210.725,232.658 209.885,232.569 209.425 C 232.481 208.966,232.410 209.430,232.413 210.458 M96.218 211.064 C 95.907 212.621,96.209 212.923,96.545 211.391 C 96.687 210.746,96.725 210.140,96.630 210.044 C 96.535 209.949,96.350 210.408,96.218 211.064 M252.941 211.297 C 256.998 211.358,263.637 211.358,267.694 211.297 C 271.751 211.237,268.431 211.188,260.317 211.188 C 252.204 211.188,248.884 211.237,252.941 211.297 M144.164 224.463 L 144.164 237.535 147.993 237.457 L 151.821 237.379 148.179 237.257 L 144.538 237.134 144.538 224.463 L 144.538 211.792 148.179 211.670 L 151.821 211.548 147.993 211.469 L 144.164 211.391 144.164 224.463 M184.034 211.671 C 187.988 211.731,194.458 211.731,198.413 211.671 C 202.367 211.610,199.132 211.561,191.223 211.561 C 183.315 211.561,180.079 211.610,184.034 211.671 M237.248 212.512 C 237.248 213.231,237.325 213.525,237.419 213.165 C 237.513 212.806,237.513 212.218,237.419 211.858 C 237.325 211.499,237.248 211.793,237.248 212.512 M152.787 212.743 C 153.282 213.383,153.763 213.840,153.855 213.758 C 153.947 213.676,153.541 213.152,152.953 212.594 L 151.885 211.578 152.787 212.743 M214.859 214.939 C 214.862 215.966,214.935 216.342,215.021 215.775 C 215.106 215.207,215.104 214.366,215.015 213.907 C 214.927 213.448,214.857 213.912,214.859 214.939 M15.407 214.939 C 15.411 215.761,15.488 216.053,15.577 215.589 C 15.666 215.124,15.663 214.452,15.569 214.095 C 15.476 213.738,15.403 214.118,15.407 214.939 M379.934 217.367 C 379.934 218.291,380.006 218.669,380.096 218.207 C 380.185 217.745,380.185 216.989,380.096 216.527 C 380.006 216.064,379.934 216.443,379.934 217.367 M179.193 218.391 C 180.485 218.464,182.502 218.463,183.675 218.389 C 184.848 218.316,183.791 218.256,181.326 218.256 C 178.861 218.257,177.901 218.318,179.193 218.391 M209.314 219.701 L 208.217 220.915 209.430 219.818 C 210.098 219.215,210.644 218.669,210.644 218.604 C 210.644 218.316,210.336 218.570,209.314 219.701 M240.149 218.874 C 237.383 218.992,240.122 219.079,246.872 219.085 C 258.209 219.097,259.469 218.966,249.860 218.775 C 247.087 218.719,242.717 218.764,240.149 218.874 M15.780 221.289 C 15.785 222.110,15.861 222.402,15.950 221.938 C 16.040 221.473,16.036 220.801,15.943 220.444 C 15.849 220.087,15.776 220.467,15.780 221.289 M379.545 223.716 C 379.545 224.435,379.622 224.729,379.716 224.370 C 379.810 224.010,379.810 223.422,379.716 223.063 C 379.622 222.703,379.545 222.997,379.545 223.716 M190.805 223.820 C 190.985 224.001,191.615 224.088,192.205 224.014 C 193.192 223.891,193.166 223.865,191.877 223.687 C 191.074 223.575,190.617 223.633,190.805 223.820 M195.242 224.354 C 195.707 224.443,196.379 224.440,196.736 224.346 C 197.093 224.253,196.713 224.180,195.892 224.184 C 195.070 224.188,194.778 224.264,195.242 224.354 M16.520 227.077 C 16.520 227.796,16.597 228.091,16.691 227.731 C 16.785 227.372,16.785 226.783,16.691 226.424 C 16.597 226.064,16.520 226.359,16.520 227.077 M241.815 226.729 C 241.679 226.948,241.669 227.228,241.793 227.351 C 241.916 227.475,242.017 227.376,242.017 227.133 C 242.017 226.829,242.839 226.708,244.646 226.745 C 246.092 226.775,247.380 226.694,247.509 226.565 C 247.638 226.436,246.465 226.331,244.902 226.331 C 243.293 226.331,241.954 226.503,241.815 226.729 M185.714 226.961 C 186.074 227.055,186.662 227.055,187.021 226.961 C 187.381 226.868,187.087 226.791,186.368 226.791 C 185.649 226.791,185.355 226.868,185.714 226.961 M192.063 227.335 C 192.423 227.429,193.011 227.429,193.371 227.335 C 193.730 227.241,193.436 227.164,192.717 227.164 C 191.998 227.164,191.704 227.241,192.063 227.335 M96.422 228.758 C 96.416 229.169,96.555 229.841,96.732 230.252 C 97.141 231.204,97.141 230.222,96.732 228.945 C 96.492 228.194,96.431 228.158,96.422 228.758 M297.728 230.314 C 297.475 231.260,297.334 232.100,297.415 232.180 C 297.496 232.261,297.777 231.562,298.039 230.626 C 298.301 229.689,298.442 228.850,298.352 228.759 C 298.262 228.669,297.981 229.369,297.728 230.314 M268.684 233.517 L 268.721 235.107 271.989 235.215 C 273.786 235.275,275.257 235.191,275.258 235.029 C 275.258 234.866,273.840 234.788,272.106 234.854 L 268.953 234.974 268.800 233.451 L 268.648 231.927 268.684 233.517 M181.985 234.068 C 182.552 234.154,183.393 234.152,183.852 234.063 C 184.311 233.974,183.847 233.904,182.820 233.907 C 181.793 233.910,181.417 233.982,181.985 234.068 M194.491 234.064 C 194.953 234.153,195.710 234.153,196.172 234.064 C 196.634 233.975,196.256 233.902,195.331 233.902 C 194.407 233.902,194.029 233.975,194.491 234.064 M246.374 234.049 C 246.237 234.186,246.125 234.655,246.125 235.092 C 246.125 237.484,243.606 248.615,242.120 252.792 L 241.143 255.537 240.452 254.659 C 240.032 254.125,240.163 254.587,240.787 255.836 C 242.094 258.455,242.087 258.451,245.191 258.372 L 247.806 258.306 245.378 258.182 C 241.813 258.001,241.892 258.097,242.932 255.195 C 243.750 252.913,244.780 248.917,245.751 244.258 C 245.944 243.333,246.289 241.148,246.519 239.402 C 246.748 237.656,247.090 235.936,247.278 235.579 C 247.965 234.275,247.290 233.133,246.374 234.049 M17.981 237.535 C 17.983 238.049,18.211 239.057,18.487 239.776 C 19.146 241.485,19.150 240.823,18.496 238.469 C 18.196 237.388,17.979 236.995,17.981 237.535 M197.483 238.920 C 197.948 239.009,198.620 239.006,198.977 238.912 C 199.334 238.819,198.954 238.746,198.133 238.750 C 197.311 238.754,197.019 238.830,197.483 238.920 M217.092 238.923 C 217.660 239.009,218.500 239.007,218.959 238.918 C 219.419 238.830,218.954 238.759,217.927 238.762 C 216.900 238.765,216.524 238.838,217.092 238.923 M224.748 238.920 C 225.212 239.009,225.884 239.006,226.242 238.912 C 226.599 238.819,226.218 238.746,225.397 238.750 C 224.575 238.754,224.283 238.830,224.748 238.920 M190.936 248.459 L 191.023 257.890 191.129 248.668 L 191.236 239.447 192.630 239.301 L 194.024 239.155 192.437 239.092 L 190.850 239.029 190.936 248.459 M247.778 249.673 C 247.778 254.192,247.832 255.990,247.898 253.667 C 247.964 251.345,247.963 247.648,247.898 245.451 C 247.832 243.254,247.778 245.154,247.778 249.673 M209.316 245.859 C 209.214 246.124,209.178 249.107,209.235 252.489 L 209.340 258.637 209.525 252.007 C 209.707 245.498,209.687 244.893,209.316 245.859 M287.765 249.020 C 286.761 250.201,286.327 250.831,286.801 250.420 C 287.702 249.640,289.994 246.872,289.738 246.872 C 289.658 246.872,288.770 247.838,287.765 249.020 M106.740 249.020 C 107.558 249.995,108.616 251.130,109.092 251.541 C 109.568 251.951,108.968 251.153,107.760 249.767 C 105.260 246.898,104.486 246.331,106.740 249.020 M281.979 255.169 C 279.576 257.484,279.070 258.068,280.672 256.676 C 283.233 254.453,286.405 251.336,286.070 251.373 C 285.977 251.383,284.136 253.091,281.979 255.169 M110.924 253.782 C 111.621 254.500,112.275 255.089,112.378 255.089 C 112.481 255.089,111.995 254.500,111.298 253.782 C 110.601 253.063,109.947 252.474,109.844 252.474 C 109.741 252.474,110.228 253.063,110.924 253.782 M114.270 256.676 C 115.818 258.325,116.153 258.622,116.153 258.341 C 116.153 258.281,115.355 257.483,114.379 256.567 L 112.605 254.902 114.270 256.676 M188.589 261.718 L 187.302 263.119 188.702 261.831 C 190.006 260.634,190.274 260.317,189.989 260.317 C 189.927 260.317,189.297 260.948,188.589 261.718 M211.765 262.372 C 212.462 263.091,213.116 263.679,213.218 263.679 C 213.321 263.679,212.835 263.091,212.138 262.372 C 211.441 261.653,210.787 261.064,210.684 261.064 C 210.582 261.064,211.068 261.653,211.765 262.372 M127.358 266.311 C 128.653 267.191,129.391 267.447,128.478 266.700 C 127.965 266.280,127.376 265.935,127.171 265.934 C 126.965 265.932,127.049 266.102,127.358 266.311 M266.293 266.700 C 265.673 267.207,265.610 267.334,266.106 267.078 C 267.325 266.448,268.000 265.931,267.600 265.934 C 267.395 265.935,266.807 266.280,266.293 266.700 M172.269 267.298 C 172.628 267.392,173.217 267.392,173.576 267.298 C 173.936 267.204,173.641 267.127,172.923 267.127 C 172.204 267.127,171.909 267.204,172.269 267.298 M170.088 267.925 C 169.981 268.206,169.947 269.341,170.013 270.446 L 170.134 272.456 170.314 269.934 C 170.496 267.396,170.450 266.984,170.088 267.925 M136.726 271.296 C 137.043 271.596,139.683 272.598,139.683 272.418 C 139.683 272.315,139.100 271.987,138.387 271.690 C 137.133 271.165,136.407 270.993,136.726 271.296 M255.929 271.907 C 254.678 272.410,254.912 272.665,256.209 272.213 C 256.825 271.998,257.330 271.755,257.330 271.672 C 257.330 271.451,256.875 271.527,255.929 271.907 M32.146 287.768 C 32.146 287.974,32.386 288.562,32.680 289.076 C 32.973 289.589,33.213 289.841,33.213 289.636 C 33.213 289.430,32.973 288.842,32.680 288.329 C 32.386 287.815,32.146 287.563,32.146 287.768 M40.523 305.509 C 40.842 306.125,41.186 306.629,41.289 306.629 C 41.392 306.629,41.215 306.125,40.896 305.509 C 40.578 304.893,40.233 304.388,40.130 304.388 C 40.028 304.388,40.204 304.893,40.523 305.509 M46.264 315.406 C 46.466 315.817,46.904 316.489,47.239 316.900 L 47.847 317.647 47.480 316.900 C 47.279 316.489,46.840 315.817,46.505 315.406 L 45.897 314.659 46.264 315.406 M344.351 324.183 C 343.912 324.799,343.637 325.303,343.740 325.303 C 343.843 325.303,344.286 324.799,344.725 324.183 C 345.163 323.567,345.438 323.063,345.336 323.063 C 345.233 323.063,344.790 323.567,344.351 324.183 M332.936 339.216 L 331.839 340.430 333.053 339.333 C 333.721 338.729,334.267 338.183,334.267 338.119 C 334.267 337.830,333.959 338.084,332.936 339.216 M65.733 341.923 C 66.430 342.642,67.084 343.231,67.187 343.231 C 67.289 343.231,66.803 342.642,66.106 341.923 C 65.410 341.204,64.755 340.616,64.653 340.616 C 64.550 340.616,65.036 341.204,65.733 341.923 M330.322 342.204 L 329.225 343.417 330.439 342.320 C 331.106 341.717,331.653 341.171,331.653 341.107 C 331.653 340.818,331.344 341.072,330.322 342.204 M327.171 345.658 C 326.264 346.583,325.605 347.339,325.708 347.339 C 325.811 347.339,326.637 346.583,327.544 345.658 C 328.452 344.734,329.110 343.978,329.007 343.978 C 328.904 343.978,328.078 344.734,327.171 345.658 M69.655 346.218 C 70.666 347.246,71.578 348.086,71.681 348.086 C 71.783 348.086,71.040 347.246,70.028 346.218 C 69.016 345.191,68.105 344.351,68.002 344.351 C 67.899 344.351,68.643 345.191,69.655 346.218 M136.601 351.727 C 170.546 351.780,226.092 351.780,260.037 351.727 C 293.982 351.675,266.209 351.632,198.319 351.632 C 130.430 351.632,102.656 351.675,136.601 351.727 " stroke="none" fill="#c3a364" fill-rule="evenodd"></path><path id="path2" d="M185.808 156.351 C 173.120 157.630,164.926 158.963,159.437 160.643 C 158.291 160.994,158.029 161.286,157.683 162.601 C 156.621 166.639,154.832 172.245,154.717 171.899 C 154.556 171.418,156.352 164.264,157.056 162.579 L 157.574 161.339 156.565 161.571 C 152.965 162.397,148.297 163.906,144.988 165.312 C 142.873 166.211,140.941 166.950,140.693 166.954 C 138.600 166.989,121.930 176.669,118.021 180.120 C 117.712 180.392,116.958 180.931,116.344 181.318 C 115.124 182.086,107.937 188.944,107.937 189.340 C 107.937 189.475,107.180 190.397,106.256 191.390 C 105.331 192.382,104.575 193.316,104.575 193.464 C 104.575 193.613,103.758 194.976,102.758 196.494 C 99.432 201.545,98.106 204.794,96.144 212.698 C 93.934 221.605,97.155 235.219,103.685 244.569 C 108.817 251.916,119.927 262.220,126.151 265.403 C 126.908 265.790,128.430 266.668,129.533 267.355 C 130.635 268.041,132.992 269.281,134.770 270.109 C 136.547 270.938,139.178 272.172,140.616 272.853 C 144.507 274.695,155.839 278.378,162.838 280.075 C 192.409 287.247,229.301 284.381,253.890 273.000 C 260.528 269.928,264.218 268.085,265.654 267.125 C 266.519 266.547,267.647 265.890,268.161 265.666 C 274.029 263.102,286.482 251.573,291.530 244.029 C 298.017 234.336,301.027 220.868,298.659 212.138 C 296.499 204.181,295.286 201.242,292.383 196.936 C 291.386 195.456,290.570 194.130,290.570 193.989 C 290.570 192.882,278.385 180.392,277.305 180.392 C 277.202 180.392,276.657 179.983,276.094 179.483 C 272.323 176.135,258.105 168.244,251.914 166.064 C 250.476 165.558,248.459 164.799,247.432 164.378 C 233.079 158.496,203.178 154.601,185.808 156.351 M198.238 167.523 C 200.966 167.817,204.885 168.402,206.946 168.822 L 210.693 169.585 212.123 168.453 L 213.553 167.320 223.116 167.320 L 232.680 167.320 232.680 168.441 C 232.680 169.437,232.804 169.561,233.800 169.561 L 234.921 169.561 234.921 180.019 L 234.921 190.476 228.042 190.476 L 221.163 190.476 218.238 188.741 C 204.093 180.349,181.048 177.179,174.615 182.740 C 171.831 185.146,173.805 185.577,189.542 186.002 C 213.305 186.643,221.715 189.044,229.725 197.475 C 233.617 201.572,236.371 206.091,236.406 208.438 C 236.417 209.225,243.738 209.524,262.991 209.524 L 277.124 209.524 277.124 210.644 C 277.124 211.641,277.248 211.765,278.249 211.765 L 279.374 211.765 279.276 225.490 L 279.178 239.216 274.254 239.320 L 269.330 239.424 269.212 238.199 C 269.110 237.143,268.940 236.960,267.971 236.864 L 266.847 236.754 266.805 233.855 C 266.760 230.878,265.934 227.298,264.876 225.501 C 263.676 223.464,262.768 223.352,247.504 223.362 L 233.560 223.371 231.533 225.444 C 227.559 229.507,222.574 232.450,215.844 234.708 C 211.360 236.212,211.583 236.334,219.423 236.662 C 231.907 237.185,238.500 233.717,239.972 225.853 L 240.237 224.441 244.765 224.545 L 249.294 224.650 249.485 225.770 C 249.637 226.656,249.892 226.916,250.702 227.009 L 251.727 227.127 251.727 244.843 L 251.727 262.558 247.226 262.558 L 242.725 262.558 242.334 261.438 C 241.737 259.723,240.694 259.977,239.643 262.092 C 239.158 263.067,238.486 264.370,238.150 264.986 C 237.814 265.602,237.539 266.364,237.537 266.680 C 237.534 267.450,235.981 271.928,234.757 274.697 C 233.413 277.734,233.841 275.357,235.303 271.659 C 235.883 270.194,236.723 267.757,237.171 266.244 C 237.619 264.730,238.397 262.617,238.900 261.548 C 240.012 259.184,239.794 257.985,237.585 254.328 C 235.104 250.218,234.528 250.047,223.167 250.047 L 213.819 250.047 213.711 254.528 C 213.574 260.186,213.629 260.376,215.904 262.174 C 218.070 263.886,220.252 264.625,224.904 265.222 C 228.024 265.622,228.198 265.692,228.198 266.548 C 228.198 267.217,228.490 267.554,229.318 267.843 L 230.439 268.234 230.439 272.681 L 230.439 277.129 200.467 277.033 L 170.495 276.937 170.379 275.933 C 170.289 275.157,170.035 274.902,169.258 274.813 L 168.254 274.697 168.149 270.152 L 168.045 265.608 170.577 265.373 C 177.271 264.751,183.065 263.136,186.224 261.011 C 188.861 259.237,188.982 258.671,188.982 248.110 L 188.982 238.816 184.034 238.380 C 178.125 237.860,170.274 236.449,165.640 235.074 C 160.439 233.532,160.810 233.513,160.093 235.356 C 158.086 240.511,156.048 241.705,149.500 241.561 L 144.725 241.457 144.841 240.455 C 144.945 239.565,144.820 239.440,143.721 239.334 L 142.484 239.216 142.386 224.556 L 142.288 209.897 147.360 209.897 L 152.431 209.897 154.553 211.762 C 160.003 216.550,165.038 219.490,171.444 221.625 C 177.653 223.694,187.862 225.504,187.862 224.536 C 187.862 223.401,186.197 222.969,181.827 222.969 L 177.452 222.969 177.335 221.755 C 177.232 220.688,177.071 220.527,176.004 220.425 L 174.790 220.307 174.790 215.689 L 174.790 211.071 172.642 210.840 C 153.257 208.748,142.197 202.131,141.286 192.078 C 139.756 175.209,165.712 164.018,198.238 167.523 M244.424 174.136 C 244.058 175.335,241.659 179.592,241.185 179.884 C 240.495 180.311,241.234 178.121,242.621 175.630 C 243.903 173.328,244.933 172.475,244.424 174.136 M153.907 208.443 C 153.578 209.265,153.547 209.274,153.525 208.559 C 153.512 208.131,153.613 207.669,153.750 207.532 C 154.196 207.086,154.272 207.528,153.907 208.443 " stroke="none" fill="#da4267" fill-rule="evenodd"></path><path id="path3" d="M173.856 21.876 C 173.035 21.957,169.740 22.204,166.535 22.423 C 153.062 23.344,140.241 26.288,129.225 30.991 C 127.684 31.648,124.184 32.846,121.446 33.652 C 116.232 35.188,110.344 37.757,106.708 40.083 C 105.527 40.838,104.254 41.457,103.879 41.457 C 101.124 41.457,85.540 54.053,74.125 65.507 C 46.402 93.324,29.659 125.135,20.329 167.720 C 19.590 171.095,18.506 176.041,17.922 178.711 C 15.278 190.786,14.636 210.657,16.443 224.463 C 16.859 227.647,17.360 231.513,17.555 233.053 C 17.749 234.594,18.165 237.031,18.478 238.469 C 18.790 239.907,19.640 244.068,20.365 247.716 C 26.781 279.986,39.696 308.569,59.137 333.520 C 63.283 338.841,63.565 339.172,69.748 345.938 L 74.782 351.447 198.346 351.447 L 321.909 351.447 326.755 346.125 C 407.046 257.937,395.250 117.396,301.664 47.188 C 298.610 44.897,295.327 42.644,294.368 42.181 C 291.177 40.640,287.855 38.915,282.726 36.134 C 279.092 34.163,271.501 31.549,264.538 29.870 C 261.909 29.237,257.638 28.138,255.047 27.429 C 248.727 25.701,241.894 24.752,220.303 22.608 C 214.767 22.058,177.877 21.477,173.856 21.876 M219.421 27.294 C 233.080 28.510,246.456 30.202,250.233 31.191 C 252.185 31.702,256.807 32.878,260.504 33.803 C 272.486 36.802,276.511 38.316,285.664 43.268 C 287.998 44.531,290.070 45.565,290.269 45.565 C 290.807 45.565,294.286 47.935,299.530 51.875 C 390.452 120.181,400.749 260.493,320.991 344.306 L 317.749 347.712 198.005 347.712 L 78.261 347.712 75.144 344.444 C 49.024 317.059,31.532 282.672,24.467 244.818 C 23.930 241.942,23.339 239.085,23.153 238.469 C 19.352 225.873,19.046 192.822,22.594 178.151 C 23.116 175.994,24.214 171.120,25.035 167.320 C 34.409 123.909,54.390 88.628,85.154 61.165 C 93.155 54.022,104.466 45.565,106.017 45.565 C 106.449 45.565,107.707 44.985,108.814 44.277 C 113.273 41.425,117.785 39.545,125.490 37.329 C 126.415 37.064,129.104 36.054,131.466 35.085 C 142.482 30.569,155.119 27.761,168.254 26.911 C 171.746 26.685,175.275 26.443,176.097 26.373 C 180.949 25.961,211.819 26.617,219.421 27.294 M154.995 65.581 C 154.995 65.909,154.659 66.264,154.248 66.372 C 153.838 66.479,153.501 66.800,153.501 67.084 C 153.501 67.368,153.249 67.600,152.941 67.600 C 152.633 67.600,152.381 67.852,152.381 68.161 C 152.381 68.469,152.148 68.721,151.864 68.721 C 151.580 68.721,151.260 69.057,151.152 69.468 C 151.045 69.879,150.689 70.215,150.362 70.215 C 150.034 70.215,149.767 70.467,149.767 70.775 C 149.767 71.083,149.526 71.335,149.232 71.335 C 148.937 71.335,148.590 71.671,148.459 72.082 C 148.329 72.493,147.982 72.829,147.687 72.829 C 147.278 72.829,147.152 73.397,147.152 75.245 L 147.152 77.661 151.727 77.766 L 156.303 77.871 156.413 80.392 C 156.523 82.911,156.524 82.913,157.627 82.913 L 158.730 82.913 158.730 80.322 L 158.730 77.732 159.944 77.615 C 161.792 77.437,161.968 75.550,160.153 75.375 L 158.917 75.257 158.813 70.121 L 158.709 64.986 156.852 64.986 C 155.402 64.986,154.995 65.116,154.995 65.581 M164.545 66.293 C 163.946 67.012,163.233 67.600,162.960 67.600 C 162.600 67.600,162.465 68.261,162.465 70.028 C 162.465 72.000,162.577 72.456,163.060 72.456 C 163.388 72.456,163.743 72.792,163.851 73.203 C 163.958 73.613,164.279 73.950,164.563 73.950 C 164.847 73.950,165.079 74.196,165.079 74.497 C 165.079 74.935,165.842 75.065,168.903 75.150 C 172.198 75.242,172.744 75.347,172.852 75.910 C 172.928 76.309,172.748 76.564,172.390 76.564 C 172.066 76.564,171.802 76.816,171.802 77.124 C 171.802 77.435,171.470 77.684,171.055 77.684 C 170.557 77.684,170.308 77.933,170.308 78.431 C 170.308 78.929,170.059 79.178,169.561 79.178 C 169.150 79.178,168.814 79.421,168.814 79.718 C 168.814 80.097,168.286 80.292,167.040 80.372 C 163.879 80.575,164.358 82.683,167.600 82.838 C 169.561 82.931,169.935 82.851,169.935 82.336 C 169.935 81.999,170.271 81.635,170.682 81.527 C 171.092 81.420,171.429 81.100,171.429 80.815 C 171.429 80.531,171.661 80.299,171.945 80.299 C 172.229 80.299,172.550 79.963,172.657 79.552 C 172.765 79.141,173.120 78.805,173.448 78.805 C 173.775 78.805,174.043 78.553,174.043 78.245 C 174.043 77.937,174.295 77.684,174.603 77.684 C 174.980 77.684,175.163 77.307,175.163 76.529 C 175.163 75.688,175.366 75.320,175.910 75.178 C 176.776 74.952,177.098 67.600,176.243 67.600 C 175.669 67.600,174.057 66.022,174.049 65.453 C 174.045 65.107,172.950 64.986,169.839 64.986 L 165.635 64.986 164.545 66.293 M180.112 65.958 C 179.650 66.485,179.272 67.071,179.272 67.259 C 179.272 67.447,178.936 67.600,178.525 67.600 C 177.861 67.600,177.778 67.849,177.778 69.828 C 177.778 71.674,177.906 72.124,178.525 72.456 C 178.936 72.676,179.272 73.102,179.272 73.402 C 179.272 73.703,179.524 73.950,179.832 73.950 C 180.140 73.950,180.392 74.202,180.392 74.510 C 180.392 74.972,181.077 75.070,184.314 75.070 C 187.986 75.070,188.235 75.117,188.235 75.817 C 188.235 76.232,187.986 76.564,187.675 76.564 C 187.367 76.564,187.115 76.816,187.115 77.124 C 187.115 77.432,186.847 77.684,186.520 77.684 C 186.192 77.684,185.837 78.021,185.729 78.431 C 185.622 78.842,185.319 79.178,185.057 79.178 C 184.795 79.178,184.487 79.421,184.374 79.717 C 184.243 80.058,183.508 80.298,182.373 80.371 C 180.654 80.481,180.579 80.532,180.579 81.606 C 180.579 83.090,185.131 83.625,185.508 82.185 C 185.618 81.764,185.941 81.419,186.225 81.419 C 186.509 81.419,186.741 81.167,186.741 80.859 C 186.741 80.551,186.974 80.299,187.258 80.299 C 187.542 80.299,187.863 79.963,187.970 79.552 C 188.077 79.141,188.433 78.805,188.761 78.805 C 189.088 78.805,189.356 78.553,189.356 78.245 C 189.356 77.937,189.608 77.684,189.916 77.684 C 190.293 77.684,190.476 77.307,190.476 76.529 C 190.476 75.688,190.679 75.320,191.223 75.178 C 192.088 74.952,192.411 67.600,191.556 67.600 C 190.982 67.600,189.370 66.022,189.362 65.453 C 189.348 64.405,181.077 64.857,180.112 65.958 M212.512 66.293 C 212.512 67.206,212.681 67.600,213.072 67.600 C 213.548 67.600,213.632 68.555,213.632 73.950 L 213.632 80.299 212.512 80.299 C 211.480 80.299,211.391 80.403,211.391 81.606 L 211.391 82.913 214.939 82.913 L 218.487 82.913 218.487 81.606 C 218.487 80.403,218.398 80.299,217.367 80.299 L 216.246 80.299 216.246 72.642 L 216.246 64.986 214.379 64.986 L 212.512 64.986 212.512 66.293 M224.090 73.950 L 224.090 82.913 228.980 82.913 C 233.556 82.913,233.883 82.865,234.065 82.166 C 234.173 81.755,234.475 81.419,234.737 81.419 C 235.000 81.419,235.311 81.167,235.429 80.859 C 235.547 80.551,235.902 80.299,236.216 80.299 C 236.685 80.299,236.788 79.726,236.788 77.124 C 236.788 74.199,236.729 73.950,236.041 73.950 C 235.630 73.950,235.294 73.790,235.294 73.595 C 235.294 71.474,229.000 70.264,227.751 72.146 C 226.750 73.652,226.331 72.633,226.331 68.699 L 226.331 64.986 225.210 64.986 L 224.090 64.986 224.090 73.950 M172.923 68.161 C 172.923 68.469,173.175 68.721,173.483 68.721 C 173.874 68.721,174.043 69.115,174.043 70.028 C 174.043 70.892,173.868 71.335,173.526 71.335 C 173.242 71.335,172.922 71.671,172.814 72.082 C 172.485 73.343,167.174 73.183,165.963 71.876 C 164.951 70.785,164.740 68.721,165.640 68.721 C 165.948 68.721,166.200 68.469,166.200 68.161 C 166.200 67.704,166.822 67.600,169.561 67.600 C 172.300 67.600,172.923 67.704,172.923 68.161 M188.235 68.161 C 188.235 68.469,188.487 68.721,188.796 68.721 C 189.695 68.721,189.484 70.785,188.473 71.876 C 187.263 73.181,182.098 73.338,181.699 72.082 C 181.569 71.671,181.221 71.335,180.927 71.335 C 180.565 71.335,180.392 70.914,180.392 70.028 C 180.392 69.115,180.561 68.721,180.952 68.721 C 181.261 68.721,181.513 68.469,181.513 68.161 C 181.513 67.704,182.135 67.600,184.874 67.600 C 187.613 67.600,188.235 67.704,188.235 68.161 M156.413 71.863 C 156.491 73.975,156.385 74.906,156.039 75.125 C 155.394 75.534,150.464 75.519,149.812 75.106 C 149.210 74.724,149.569 73.950,150.349 73.950 C 150.645 73.950,150.890 73.739,150.893 73.483 C 150.901 72.913,152.513 71.335,153.087 71.335 C 153.315 71.335,153.501 70.999,153.501 70.588 C 153.501 70.173,153.750 69.841,154.062 69.841 C 154.370 69.841,154.622 69.577,154.622 69.255 C 154.622 68.861,154.897 68.708,155.462 68.788 C 156.242 68.899,156.310 69.121,156.413 71.863 M240.243 72.307 C 239.241 73.451,239.062 76.083,239.963 76.429 C 240.271 76.547,240.523 76.878,240.523 77.164 C 240.523 77.568,241.233 77.684,243.697 77.684 L 246.872 77.684 246.872 78.978 L 246.872 80.272 243.261 80.379 C 240.783 80.452,239.601 80.632,239.495 80.952 C 239.410 81.209,239.606 81.419,239.932 81.419 C 240.274 81.419,240.523 81.734,240.523 82.166 C 240.523 82.863,240.772 82.913,244.258 82.913 C 247.426 82.913,247.993 82.823,247.993 82.318 C 247.993 81.991,248.329 81.635,248.739 81.527 C 249.373 81.362,249.486 81.018,249.486 79.271 C 249.486 76.261,248.573 75.511,244.726 75.366 C 242.324 75.275,241.817 75.147,241.713 74.603 C 241.601 74.016,241.968 73.950,245.329 73.950 C 249.470 73.950,249.951 73.702,248.543 72.293 C 247.094 70.844,241.517 70.854,240.243 72.307 M233.053 74.510 C 233.053 74.818,233.305 75.070,233.613 75.070 C 234.044 75.070,234.174 75.547,234.174 77.124 C 234.174 78.701,234.044 79.178,233.613 79.178 C 233.305 79.178,233.053 79.430,233.053 79.739 C 233.053 80.195,232.431 80.299,229.692 80.299 L 226.331 80.299 226.331 77.684 C 226.331 75.319,226.402 75.070,227.077 75.070 C 227.492 75.070,227.824 74.821,227.824 74.510 C 227.824 74.065,228.364 73.950,230.439 73.950 C 232.514 73.950,233.053 74.065,233.053 74.510 M136.695 87.394 L 136.695 88.889 198.529 88.889 L 260.363 88.889 260.247 87.488 L 260.131 86.088 198.413 85.993 L 136.695 85.899 136.695 87.394 M127.264 119.696 C 124.905 120.345,122.012 122.242,120.492 124.138 C 118.401 126.743,118.528 126.887,120.949 124.659 C 123.577 122.240,125.695 120.913,128.011 120.235 C 128.884 119.979,129.599 119.628,129.599 119.455 C 129.599 119.072,129.491 119.083,127.264 119.696 M261.625 119.707 C 253.985 120.692,248.094 124.353,245.052 130.006 L 244.166 131.653 245.397 130.159 C 250.555 123.898,257.475 119.972,263.546 119.862 C 264.338 119.847,265.322 119.691,265.733 119.514 C 266.709 119.095,266.169 119.120,261.625 119.707 M103.641 131.985 C 102.116 132.651,100.199 134.314,98.917 136.084 C 97.263 138.367,97.661 138.459,99.674 136.258 C 100.676 135.163,102.563 133.637,103.867 132.866 C 106.163 131.510,106.019 130.946,103.641 131.985 M288.329 131.839 C 287.885 132.126,287.963 132.201,288.702 132.201 C 289.216 132.201,289.888 132.039,290.196 131.839 C 290.640 131.553,290.562 131.477,289.823 131.477 C 289.309 131.477,288.637 131.640,288.329 131.839 M283.100 132.213 C 282.413 132.657,283.783 132.657,285.528 132.213 C 286.607 131.938,286.593 131.926,285.154 131.889 C 284.332 131.868,283.408 132.014,283.100 132.213 M89.168 145.818 C 86.697 146.700,81.066 152.526,81.890 153.349 C 81.993 153.452,82.712 152.671,83.489 151.612 C 85.321 149.117,88.022 147.003,90.375 146.221 C 91.406 145.878,92.250 145.528,92.250 145.442 C 92.250 145.123,90.527 145.333,89.168 145.818 M72.190 165.485 C 70.584 166.280,68.392 168.428,67.587 169.995 C 67.284 170.584,67.730 170.318,68.957 169.174 C 71.890 166.442,72.336 166.135,74.407 165.429 C 76.315 164.779,76.336 164.757,75.070 164.732 C 74.351 164.718,73.055 165.057,72.190 165.485 M180.766 166.980 C 149.226 168.647,131.271 187.006,146.732 201.777 C 152.071 206.878,159.274 209.398,172.642 210.840 L 174.790 211.071 174.790 215.689 L 174.790 220.307 176.004 220.425 C 177.071 220.527,177.232 220.688,177.335 221.755 L 177.452 222.969 181.868 222.969 C 186.225 222.969,188.744 223.701,187.766 224.682 C 186.939 225.512,174.589 222.946,169.001 220.782 C 163.889 218.803,155.059 213.092,153.200 210.561 C 152.773 209.980,152.063 209.897,147.500 209.897 L 142.288 209.897 142.386 224.556 L 142.484 239.216 143.721 239.334 C 144.820 239.440,144.945 239.565,144.841 240.455 L 144.725 241.457 149.500 241.561 C 156.048 241.705,158.086 240.511,160.093 235.356 C 160.810 233.513,160.439 233.532,165.640 235.074 C 170.274 236.449,178.125 237.860,184.034 238.380 L 188.982 238.816 188.982 248.110 C 188.982 258.671,188.861 259.237,186.224 261.011 C 183.065 263.136,177.271 264.751,170.577 265.373 L 168.045 265.608 168.149 270.152 L 168.254 274.697 169.258 274.813 C 170.035 274.902,170.289 275.157,170.379 275.933 L 170.495 276.937 200.467 277.033 L 230.439 277.129 230.439 272.681 L 230.439 268.234 229.318 267.843 C 228.490 267.554,228.198 267.217,228.198 266.548 C 228.198 265.692,228.024 265.622,224.904 265.222 C 220.252 264.625,218.070 263.886,215.904 262.174 C 213.629 260.376,213.574 260.186,213.711 254.528 L 213.819 250.047 223.167 250.047 C 234.528 250.047,235.104 250.218,237.585 254.328 C 239.794 257.985,240.012 259.184,238.900 261.548 C 238.397 262.617,237.619 264.730,237.171 266.244 C 236.723 267.757,235.883 270.194,235.303 271.659 C 233.841 275.357,233.413 277.734,234.757 274.697 C 235.981 271.928,237.534 267.450,237.537 266.680 C 237.539 266.364,237.814 265.602,238.150 264.986 C 238.486 264.370,239.158 263.067,239.643 262.092 C 240.694 259.977,241.737 259.723,242.334 261.438 L 242.725 262.558 247.226 262.558 L 251.727 262.558 251.727 244.843 L 251.727 227.127 250.702 227.009 C 249.892 226.916,249.637 226.656,249.485 225.770 L 249.294 224.650 244.765 224.545 L 240.237 224.441 239.972 225.853 C 238.500 233.717,231.907 237.185,219.423 236.662 C 211.583 236.334,211.360 236.212,215.844 234.708 C 222.574 232.450,227.559 229.507,231.533 225.444 L 233.560 223.371 247.504 223.362 C 262.768 223.352,263.676 223.464,264.876 225.501 C 265.934 227.298,266.760 230.878,266.805 233.855 L 266.847 236.754 267.971 236.864 C 268.940 236.960,269.110 237.143,269.212 238.199 L 269.330 239.424 274.254 239.320 L 279.178 239.216 279.276 225.490 L 279.374 211.765 278.249 211.765 C 277.248 211.765,277.124 211.641,277.124 210.644 L 277.124 209.524 262.991 209.524 C 243.738 209.524,236.417 209.225,236.406 208.438 C 236.371 206.091,233.617 201.572,229.725 197.475 C 221.715 189.044,213.305 186.643,189.542 186.002 C 173.805 185.577,171.831 185.146,174.615 182.740 C 181.048 177.179,204.093 180.349,218.238 188.741 L 221.163 190.476 228.042 190.476 L 234.921 190.476 234.921 180.019 L 234.921 169.561 233.800 169.561 C 232.804 169.561,232.680 169.437,232.680 168.441 L 232.680 167.320 223.116 167.320 L 213.553 167.320 212.123 168.453 L 210.693 169.585 206.946 168.822 C 199.211 167.245,189.143 166.537,180.766 166.980 M200.000 169.714 C 202.054 170.023,205.400 170.620,207.436 171.042 L 211.136 171.810 212.819 170.499 L 214.502 169.188 222.477 169.188 L 230.453 169.188 230.352 177.684 L 230.252 186.181 225.075 186.285 L 219.897 186.390 217.041 184.715 C 199.844 174.633,174.488 172.399,169.531 180.529 C 166.547 185.423,172.208 187.805,186.928 187.849 C 214.171 187.931,227.472 192.974,231.527 204.761 C 239.023 226.548,202.504 240.893,164.770 230.985 C 162.032 230.266,159.226 229.441,158.534 229.152 L 157.276 228.626 156.838 229.999 C 154.971 235.846,152.949 237.535,147.812 237.535 L 144.164 237.535 144.164 224.463 L 144.164 211.391 147.931 211.391 L 151.698 211.391 153.866 213.593 C 168.909 228.871,207.596 232.160,213.866 218.695 C 215.901 214.325,214.566 210.721,210.197 208.788 C 207.075 207.407,205.088 207.241,187.675 206.907 C 169.953 206.567,165.845 206.246,159.303 204.693 C 157.518 204.269,155.794 203.922,155.473 203.922 C 151.184 203.922,143.944 197.415,143.125 192.825 C 140.295 176.970,169.445 165.126,200.000 169.714 M242.621 175.630 C 241.234 178.121,240.495 180.311,241.185 179.884 C 241.659 179.592,244.058 175.335,244.424 174.136 C 244.933 172.475,243.903 173.328,242.621 175.630 M61.614 190.884 C 60.433 191.570,58.637 193.651,58.637 194.334 C 58.637 194.479,59.188 194.030,59.863 193.336 C 61.290 191.866,63.140 190.825,64.986 190.452 C 66.281 190.191,66.278 190.188,64.613 190.154 C 63.545 190.132,62.451 190.399,61.614 190.884 M275.169 223.264 L 275.267 235.323 271.994 235.215 L 268.721 235.107 268.484 232.457 C 267.867 225.557,265.082 221.154,260.454 219.761 C 259.096 219.352,256.037 219.228,247.179 219.223 C 240.848 219.219,235.673 219.094,235.680 218.945 C 235.686 218.796,236.017 217.750,236.415 216.620 C 236.812 215.490,237.143 213.857,237.149 212.990 L 237.162 211.415 241.550 211.295 C 243.964 211.228,252.493 211.181,260.504 211.189 L 275.070 211.204 275.169 223.264 M208.317 212.275 C 212.077 213.919,212.424 217.356,209.110 220.144 C 204.129 224.336,191.591 225.985,190.210 222.631 C 188.810 219.229,187.257 218.487,181.531 218.487 L 177.031 218.487 177.031 214.920 L 177.031 211.352 191.877 211.465 C 205.399 211.568,206.865 211.640,208.317 212.275 M247.805 241.584 C 247.956 249.974,247.965 257.201,247.825 257.644 C 247.292 259.323,241.270 258.571,241.270 256.825 C 241.270 255.889,236.846 249.622,235.346 248.434 C 231.813 245.636,231.430 245.565,219.981 245.565 L 209.711 245.565 209.600 251.541 C 209.462 259.038,209.547 259.474,211.605 261.763 C 214.210 264.659,217.660 266.114,224.556 267.222 L 225.957 267.447 225.957 270.047 L 225.957 272.647 198.039 272.551 L 170.121 272.456 170.121 270.028 L 170.121 267.600 171.989 267.290 C 181.820 265.655,185.297 264.529,188.086 262.074 C 190.794 259.690,190.850 259.420,190.850 248.565 L 190.850 239.029 193.105 239.029 C 195.824 239.029,201.776 238.391,204.847 237.769 C 206.743 237.386,207.756 237.423,211.569 238.016 C 220.865 239.461,229.799 238.837,234.554 236.411 C 237.745 234.783,241.643 229.858,241.643 227.454 C 241.643 226.452,241.989 226.331,244.835 226.331 L 247.529 226.331 247.805 241.584 " stroke="none" fill="#0d0d0c" fill-rule="evenodd"></path><path id="path4" d="M173.576 21.552 C 174.038 21.641,174.795 21.641,175.257 21.552 C 175.719 21.463,175.341 21.390,174.416 21.390 C 173.492 21.390,173.114 21.463,173.576 21.552 M199.533 21.563 C 200.509 21.640,202.106 21.640,203.081 21.563 C 204.057 21.486,203.259 21.423,201.307 21.423 C 199.356 21.423,198.557 21.486,199.533 21.563 M167.978 21.926 C 168.443 22.015,169.115 22.012,169.472 21.919 C 169.829 21.825,169.449 21.752,168.627 21.756 C 167.806 21.760,167.514 21.837,167.978 21.926 M214.659 21.926 C 215.121 22.015,215.878 22.015,216.340 21.926 C 216.802 21.837,216.424 21.764,215.500 21.764 C 214.575 21.764,214.197 21.837,214.659 21.926 M162.558 22.293 C 162.918 22.387,163.506 22.387,163.866 22.293 C 164.225 22.199,163.931 22.122,163.212 22.122 C 162.493 22.122,162.199 22.199,162.558 22.293 M218.954 22.293 C 219.314 22.387,219.902 22.387,220.261 22.293 C 220.621 22.199,220.327 22.122,219.608 22.122 C 218.889 22.122,218.595 22.199,218.954 22.293 M227.171 23.040 C 227.530 23.134,228.119 23.134,228.478 23.040 C 228.838 22.946,228.543 22.869,227.824 22.869 C 227.106 22.869,226.811 22.946,227.171 23.040 M314.846 57.703 C 315.543 58.422,316.197 59.010,316.300 59.010 C 316.402 59.010,315.916 58.422,315.219 57.703 C 314.523 56.984,313.868 56.396,313.766 56.396 C 313.663 56.396,314.149 56.984,314.846 57.703 M136.501 72.456 L 136.508 85.714 198.413 85.716 L 260.317 85.718 198.511 85.621 L 136.704 85.525 136.599 72.361 L 136.493 59.197 136.501 72.456 M74.316 64.519 L 70.401 68.534 74.416 64.619 C 76.625 62.466,78.431 60.659,78.431 60.604 C 78.431 60.335,77.953 60.790,74.316 64.519 M321.755 64.239 C 323.802 66.293,325.560 67.974,325.663 67.974 C 325.766 67.974,324.175 66.293,322.129 64.239 C 320.082 62.185,318.324 60.504,318.221 60.504 C 318.119 60.504,319.709 62.185,321.755 64.239 M216.246 72.397 L 216.433 80.112 217.367 80.148 C 218.179 80.179,218.191 80.164,217.460 80.030 C 216.622 79.876,216.620 79.856,216.620 72.453 C 216.620 68.370,216.494 64.952,216.340 64.856 C 216.186 64.761,216.144 68.154,216.246 72.397 M212.232 66.293 C 212.237 67.115,212.313 67.407,212.402 66.942 C 212.492 66.478,212.488 65.806,212.395 65.448 C 212.301 65.091,212.228 65.472,212.232 66.293 M213.342 73.645 L 213.259 79.876 212.232 80.031 L 211.204 80.187 212.243 80.243 C 213.644 80.318,213.668 80.192,213.538 73.374 L 213.425 67.414 213.342 73.645 M155.875 71.895 C 155.874 73.744,155.937 74.548,156.015 73.681 C 156.094 72.814,156.094 71.301,156.017 70.319 C 155.940 69.337,155.876 70.047,155.875 71.895 M165.173 69.932 C 165.238 70.778,165.465 71.160,165.927 71.201 C 166.348 71.238,166.390 71.197,166.042 71.087 C 165.742 70.993,165.403 70.422,165.288 69.818 C 165.089 68.771,165.084 68.776,165.173 69.932 M173.720 69.717 C 173.692 70.367,173.459 70.984,173.203 71.088 C 172.837 71.235,172.839 71.283,173.214 71.306 C 173.829 71.344,174.147 70.506,173.937 69.402 C 173.807 68.724,173.760 68.793,173.720 69.717 M188.982 69.707 C 188.982 70.249,188.688 70.931,188.329 71.221 C 187.739 71.698,187.757 71.710,188.515 71.343 C 189.256 70.984,189.820 68.721,189.169 68.721 C 189.066 68.721,188.982 69.164,188.982 69.707 M180.543 70.212 C 180.566 70.815,180.811 71.163,181.240 71.201 C 181.659 71.238,181.701 71.196,181.356 71.087 C 181.056 70.993,180.742 70.548,180.659 70.098 C 180.534 69.425,180.513 69.445,180.543 70.212 M149.393 70.312 C 149.393 70.639,149.099 70.984,148.739 71.078 C 148.127 71.238,148.128 71.251,148.751 71.292 C 149.426 71.336,150.052 70.376,149.626 69.950 C 149.498 69.822,149.393 69.985,149.393 70.312 M67.017 72.176 L 65.920 73.389 67.134 72.292 C 68.265 71.270,68.519 70.962,68.230 70.962 C 68.166 70.962,67.620 71.508,67.017 72.176 M227.585 71.523 C 227.461 71.848,227.463 72.219,227.592 72.347 C 227.720 72.475,227.824 72.300,227.824 71.958 C 227.824 71.001,234.029 71.031,234.312 71.989 C 234.462 72.497,234.487 72.477,234.428 71.895 C 234.324 70.874,227.967 70.529,227.585 71.523 M240.278 71.538 C 240.157 71.855,240.162 72.219,240.290 72.347 C 240.418 72.475,240.523 72.306,240.523 71.970 C 240.523 71.451,241.122 71.343,244.538 71.240 L 248.553 71.120 244.526 71.041 C 241.192 70.975,240.461 71.061,240.278 71.538 M233.907 77.124 C 233.910 78.151,233.982 78.527,234.068 77.959 C 234.154 77.392,234.152 76.551,234.063 76.092 C 233.974 75.633,233.904 76.097,233.907 77.124 M248.366 75.814 C 248.366 76.034,248.618 76.311,248.926 76.429 C 249.335 76.586,249.506 77.313,249.558 79.125 L 249.630 81.606 249.764 79.224 C 249.878 77.199,249.783 76.735,249.132 76.128 C 248.711 75.736,248.366 75.594,248.366 75.814 M240.142 77.218 C 240.523 78.003,240.761 78.053,243.804 77.982 L 247.059 77.906 243.914 77.779 C 241.507 77.682,240.647 77.502,240.252 77.015 C 239.793 76.449,239.780 76.471,240.142 77.218 M151.430 77.958 L 155.709 78.081 155.849 80.591 L 155.989 83.100 155.959 80.486 L 155.929 77.871 151.540 77.853 L 147.151 77.834 151.430 77.958 M159.570 77.942 C 159.930 78.036,160.518 78.036,160.878 77.942 C 161.237 77.848,160.943 77.771,160.224 77.771 C 159.505 77.771,159.211 77.848,159.570 77.942 M166.298 80.193 C 166.866 80.279,167.706 80.277,168.166 80.188 C 168.625 80.100,168.161 80.029,167.134 80.032 C 166.106 80.035,165.731 80.107,166.298 80.193 M181.611 80.193 C 182.179 80.279,183.019 80.277,183.479 80.188 C 183.938 80.100,183.473 80.029,182.446 80.032 C 181.419 80.035,181.043 80.107,181.611 80.193 M228.105 80.199 C 228.978 80.277,230.406 80.277,231.279 80.199 C 232.152 80.120,231.438 80.056,229.692 80.056 C 227.946 80.056,227.232 80.120,228.105 80.199 M239.272 80.205 C 239.176 80.359,240.301 80.440,241.771 80.383 C 246.575 80.200,247.130 80.052,243.253 79.988 C 241.159 79.954,239.368 80.051,239.272 80.205 M164.800 81.606 C 164.804 82.428,164.881 82.720,164.970 82.255 C 165.059 81.791,165.056 81.118,164.962 80.761 C 164.869 80.404,164.796 80.784,164.800 81.606 M180.113 81.606 C 180.117 82.428,180.193 82.720,180.283 82.255 C 180.372 81.791,180.369 81.118,180.275 80.761 C 180.182 80.404,180.109 80.784,180.113 81.606 M218.948 81.793 C 218.948 82.512,219.024 82.806,219.118 82.446 C 219.212 82.087,219.212 81.499,219.118 81.139 C 219.024 80.780,218.948 81.074,218.948 81.793 M127.477 122.048 C 123.696 123.407,120.313 127.015,118.556 131.560 C 117.432 134.467,116.906 134.757,113.914 134.116 C 104.846 132.171,99.195 135.842,97.296 144.911 C 96.840 147.089,96.194 147.525,93.406 147.534 C 86.958 147.555,80.672 155.515,80.672 163.658 C 80.672 166.123,80.268 166.573,78.051 166.573 C 70.571 166.573,64.681 175.576,66.528 184.187 C 66.746 185.203,66.828 186.419,66.710 186.887 C 66.553 187.514,66.790 188.019,67.609 188.804 C 69.475 190.592,68.904 191.970,66.298 191.970 C 62.506 191.970,59.982 194.629,59.574 199.054 C 59.450 200.396,59.217 201.739,59.055 202.039 C 58.776 202.556,59.466 204.298,60.317 205.230 C 63.198 208.380,66.893 210.073,68.537 208.996 C 69.408 208.425,69.691 208.684,70.958 211.207 C 71.268 211.825,72.350 213.589,73.361 215.129 C 76.421 219.784,81.046 227.125,81.046 227.326 C 81.046 227.430,81.540 228.215,82.145 229.071 C 83.391 230.833,83.799 232.757,84.414 239.776 C 85.025 246.734,86.247 257.729,86.445 258.050 C 86.540 258.204,86.803 259.912,87.029 261.845 C 87.382 264.860,89.315 277.373,90.342 283.287 C 93.319 300.423,94.416 303.007,101.367 309.241 C 102.170 309.962,104.018 311.652,105.475 312.999 C 106.932 314.345,109.048 316.189,110.177 317.096 C 111.307 318.003,113.013 319.432,113.967 320.273 C 119.587 325.219,137.216 329.603,144.878 327.960 C 150.969 326.653,159.415 319.777,163.806 312.550 C 166.762 307.684,167.689 292.925,165.622 283.637 C 164.892 280.352,165.206 280.572,159.290 279.206 C 116.420 269.304,88.306 237.553,96.922 208.768 C 103.072 188.218,128.360 167.838,155.051 161.920 C 159.308 160.976,159.669 160.467,159.646 155.432 C 159.615 148.303,156.420 136.177,153.412 131.766 C 148.353 124.351,134.994 119.345,127.477 122.048 M261.642 121.776 C 248.482 123.816,240.372 137.160,240.119 157.188 C 240.056 162.178,239.450 161.512,246.125 163.781 C 288.214 178.088,308.621 208.657,295.355 237.527 C 286.801 256.143,267.943 269.487,236.607 279.096 L 235.119 279.552 234.259 283.287 C 233.133 288.175,232.962 298.954,233.927 304.202 C 234.267 306.050,234.545 308.135,234.546 308.834 C 234.550 312.972,244.394 323.666,251.354 327.093 C 254.745 328.763,263.402 328.569,270.502 326.663 C 280.074 324.094,285.275 321.147,292.624 314.128 C 293.856 312.951,295.453 311.522,296.172 310.954 C 302.781 305.729,306.079 299.891,307.898 290.196 C 308.187 288.655,308.680 286.050,308.994 284.407 C 309.755 280.427,310.954 273.036,311.661 267.974 C 311.976 265.714,312.563 261.513,312.964 258.637 C 314.090 250.557,314.451 247.372,314.873 241.774 C 315.685 231.003,316.586 228.828,326.476 213.777 C 327.166 212.726,327.995 211.379,328.317 210.783 C 328.827 209.839,329.232 209.642,331.444 209.264 C 335.836 208.511,339.660 205.266,339.601 202.342 C 339.447 194.685,337.988 192.674,332.151 192.071 C 329.254 191.772,328.720 190.668,330.732 189.134 C 332.413 187.851,332.930 186.127,332.904 181.886 C 332.845 172.580,328.643 167.336,320.672 166.624 L 318.021 166.387 318.141 165.266 C 318.944 157.759,315.961 152.221,308.870 148.058 C 308.562 147.877,306.881 147.641,305.135 147.534 L 301.961 147.339 301.739 144.911 C 301.324 140.357,299.513 137.434,295.709 135.173 L 293.077 133.610 288.555 133.862 C 286.068 134.000,283.361 134.148,282.540 134.190 L 281.046 134.267 280.848 132.213 C 280.167 125.118,271.270 120.284,261.642 121.776 M178.618 169.445 C 178.978 169.539,179.566 169.539,179.925 169.445 C 180.285 169.351,179.991 169.274,179.272 169.274 C 178.553 169.274,178.259 169.351,178.618 169.445 M192.810 169.445 C 193.170 169.539,193.758 169.539,194.118 169.445 C 194.477 169.351,194.183 169.274,193.464 169.274 C 192.745 169.274,192.451 169.351,192.810 169.445 M230.225 177.778 C 230.225 182.400,230.279 184.290,230.344 181.979 C 230.410 179.669,230.410 175.887,230.344 173.576 C 230.279 171.265,230.225 173.156,230.225 177.778 M182.913 175.437 C 183.786 175.515,185.215 175.515,186.088 175.437 C 186.961 175.358,186.246 175.294,184.500 175.294 C 182.754 175.294,182.040 175.358,182.913 175.437 M179.556 188.126 C 180.021 188.215,180.693 188.212,181.050 188.118 C 181.407 188.025,181.027 187.952,180.205 187.956 C 179.384 187.960,179.092 188.037,179.556 188.126 M195.618 188.506 C 196.290 188.589,197.298 188.587,197.859 188.502 C 198.420 188.417,197.871 188.349,196.639 188.351 C 195.406 188.353,194.947 188.423,195.618 188.506 M15.773 190.476 C 15.773 191.195,15.850 191.489,15.944 191.130 C 16.038 190.770,16.038 190.182,15.944 189.823 C 15.850 189.463,15.773 189.757,15.773 190.476 M15.096 206.723 C 15.096 210.831,15.150 212.563,15.218 210.571 C 15.285 208.579,15.285 205.218,15.218 203.101 C 15.151 200.985,15.097 202.614,15.096 206.723 M197.857 206.800 C 198.321 206.889,198.994 206.886,199.351 206.793 C 199.708 206.699,199.328 206.626,198.506 206.630 C 197.684 206.634,197.392 206.711,197.857 206.800 M242.764 211.757 C 243.072 211.953,243.346 212.664,243.372 213.339 C 243.398 214.014,243.546 215.432,243.700 216.490 C 243.947 218.193,243.899 218.434,243.278 218.585 C 242.893 218.678,243.456 218.750,244.531 218.744 C 246.009 218.736,246.394 218.624,246.112 218.285 C 245.907 218.038,245.700 216.387,245.652 214.615 L 245.565 211.393 243.884 211.398 C 242.677 211.401,242.362 211.503,242.764 211.757 M275.050 222.969 C 275.050 229.440,275.101 232.087,275.163 228.852 C 275.225 225.616,275.225 220.322,275.163 217.087 C 275.101 213.852,275.050 216.499,275.050 222.969 M177.153 214.939 C 177.155 216.377,177.223 216.920,177.303 216.145 C 177.384 215.370,177.383 214.193,177.300 213.530 C 177.218 212.867,177.152 213.501,177.153 214.939 M15.399 219.608 C 15.399 220.327,15.476 220.621,15.570 220.261 C 15.664 219.902,15.664 219.314,15.570 218.954 C 15.476 218.595,15.399 218.889,15.399 219.608 M194.501 223.990 C 195.379 224.069,196.724 224.068,197.489 223.988 C 198.254 223.907,197.535 223.843,195.892 223.844 C 194.248 223.846,193.623 223.911,194.501 223.990 M16.146 225.957 C 16.146 226.676,16.223 226.970,16.317 226.611 C 16.411 226.251,16.411 225.663,16.317 225.303 C 16.223 224.944,16.146 225.238,16.146 225.957 M244.871 227.163 C 245.531 228.232,245.686 233.037,245.162 236.228 C 244.113 242.611,242.703 248.937,241.644 252.003 C 241.059 253.696,240.715 255.163,240.878 255.264 C 241.747 255.801,246.125 238.890,246.125 234.995 C 246.125 234.418,246.388 234.035,246.872 233.908 C 247.552 233.731,247.619 233.399,247.619 230.232 L 247.619 226.751 246.130 226.771 C 245.243 226.784,244.734 226.942,244.871 227.163 M188.702 227.345 C 189.267 227.431,190.191 227.431,190.756 227.345 C 191.321 227.259,190.859 227.189,189.729 227.189 C 188.599 227.189,188.137 227.259,188.702 227.345 M194.678 227.345 C 195.243 227.431,196.167 227.431,196.732 227.345 C 197.297 227.259,196.835 227.189,195.705 227.189 C 194.575 227.189,194.113 227.259,194.678 227.345 M17.274 234.360 C 17.279 235.182,17.355 235.474,17.444 235.010 C 17.534 234.545,17.530 233.873,17.437 233.516 C 17.343 233.159,17.270 233.539,17.274 234.360 M180.112 233.684 C 180.472 233.778,181.060 233.778,181.419 233.684 C 181.779 233.590,181.485 233.513,180.766 233.513 C 180.047 233.513,179.753 233.590,180.112 233.684 M196.545 233.684 C 196.905 233.778,197.493 233.778,197.852 233.684 C 198.212 233.590,197.918 233.513,197.199 233.513 C 196.480 233.513,196.186 233.590,196.545 233.684 M186.850 234.077 C 188.245 234.150,190.430 234.149,191.706 234.076 C 192.981 234.004,191.839 233.945,189.169 233.945 C 186.499 233.946,185.455 234.005,186.850 234.077 M247.087 235.761 C 247.012 236.018,246.760 237.656,246.526 239.402 C 245.829 244.611,244.276 251.448,242.951 255.142 C 242.462 256.507,242.164 257.725,242.288 257.850 C 242.661 258.223,243.012 258.108,243.022 257.610 C 243.027 257.353,243.566 255.462,244.220 253.408 C 244.874 251.354,245.788 247.777,246.252 245.459 C 246.716 243.141,247.214 241.362,247.357 241.506 C 247.501 241.650,247.619 240.311,247.619 238.531 C 247.619 235.560,247.430 234.577,247.087 235.761 M206.629 237.792 C 206.989 237.886,207.577 237.886,207.937 237.792 C 208.296 237.699,208.002 237.622,207.283 237.622 C 206.564 237.622,206.270 237.699,206.629 237.792 M194.495 239.293 C 194.960 239.382,195.632 239.379,195.989 239.286 C 196.346 239.192,195.966 239.119,195.145 239.123 C 194.323 239.127,194.031 239.204,194.495 239.293 M220.822 239.296 C 221.387 239.382,222.311 239.382,222.876 239.296 C 223.441 239.211,222.979 239.141,221.849 239.141 C 220.719 239.141,220.257 239.211,220.822 239.296 M236.041 248.926 C 236.738 249.645,237.392 250.233,237.495 250.233 C 237.598 250.233,237.111 249.645,236.415 248.926 C 235.718 248.207,235.064 247.619,234.961 247.619 C 234.858 247.619,235.344 248.207,236.041 248.926 M225.695 270.028 C 225.695 271.158,225.766 271.620,225.851 271.055 C 225.937 270.490,225.937 269.566,225.851 269.001 C 225.766 268.436,225.695 268.898,225.695 270.028 M184.034 272.549 C 191.685 272.605,204.206 272.605,211.858 272.549 C 219.510 272.492,213.249 272.446,197.946 272.446 C 182.642 272.446,176.382 272.492,184.034 272.549 M65.733 342.227 C 65.733 342.291,66.279 342.838,66.947 343.441 L 68.161 344.538 67.064 343.324 C 66.041 342.193,65.733 341.939,65.733 342.227 M325.666 347.619 L 323.249 350.140 325.770 347.723 C 327.157 346.394,328.291 345.259,328.291 345.202 C 328.291 344.927,327.911 345.277,325.666 347.619 M69.468 346.321 C 69.468 346.378,70.770 347.680,72.362 349.216 L 75.257 352.007 72.465 349.113 C 69.872 346.425,69.468 346.048,69.468 346.321 " stroke="none" fill="#e2cb9c" fill-rule="evenodd"></path></g></svg>