<svg id="svg" version="1.1" xmlns="http://www.w3.org/2000/svg" xmlns:xlink="http://www.w3.org/1999/xlink" width="400" height="407.4766355140187" viewBox="0, 0, 400,407.4766355140187"><g id="svgg"><path id="path0" d="M0.000 203.600 L 0.000 407.200 200.000 407.200 L 400.000 407.200 400.000 203.600 L 400.000 0.000 200.000 0.000 L 0.000 0.000 0.000 203.600 M279.955 63.114 C 281.590 63.874,284.098 67.572,285.071 70.659 C 285.829 73.063,285.675 73.001,288.974 72.243 C 301.060 69.468,305.200 70.085,305.200 74.660 L 305.200 76.780 306.500 76.505 C 311.086 75.535,325.202 76.594,331.073 78.348 C 336.460 79.958,345.811 87.308,348.046 91.691 C 353.743 102.857,353.588 113.289,347.549 125.302 L 345.930 128.521 347.339 131.560 C 348.113 133.232,350.032 137.660,351.603 141.400 C 354.899 149.248,356.187 152.281,357.294 154.800 C 357.729 155.790,358.322 157.140,358.611 157.800 C 359.162 159.054,361.540 165.161,362.817 168.600 C 364.215 172.367,367.174 181.799,368.025 185.200 C 368.492 187.070,369.210 189.950,369.621 191.600 C 370.032 193.250,370.855 197.390,371.451 200.800 L 372.535 207.000 372.568 228.600 C 372.603 251.943,372.166 259.580,370.210 269.800 C 369.916 271.340,369.287 274.670,368.813 277.200 C 368.340 279.730,367.785 282.520,367.582 283.400 C 367.378 284.280,366.575 288.060,365.796 291.800 C 365.018 295.540,364.100 299.680,363.755 301.000 C 363.410 302.320,362.983 304.030,362.805 304.800 C 360.454 314.970,356.113 325.945,351.887 332.400 C 347.087 339.730,320.198 359.203,308.800 363.602 C 307.442 364.126,306.114 364.801,296.400 369.905 C 293.870 371.235,290.000 372.977,287.800 373.778 C 285.600 374.578,283.395 375.406,282.900 375.617 C 282.405 375.828,281.595 376.170,281.100 376.378 C 275.798 378.607,264.883 381.545,257.200 382.811 C 254.450 383.264,250.850 383.966,249.200 384.370 C 245.275 385.332,239.014 386.249,232.800 386.773 C 230.050 387.005,225.550 387.393,222.800 387.636 C 215.445 388.285,201.213 388.171,194.600 387.412 C 191.520 387.058,187.470 386.605,185.600 386.406 C 176.527 385.439,167.237 383.911,158.800 381.996 C 158.030 381.822,156.590 381.498,155.600 381.277 C 145.652 379.058,114.746 368.419,105.378 363.989 C 103.516 363.109,100.599 361.839,98.896 361.167 C 95.861 359.970,90.065 357.009,88.029 355.615 C 87.463 355.227,85.154 353.705,82.897 352.232 C 78.428 349.314,74.916 346.599,71.801 343.655 C 70.701 342.615,68.045 340.373,65.900 338.674 C 62.448 335.940,53.516 327.205,49.906 323.034 C 48.367 321.256,44.075 314.685,39.694 307.400 C 30.633 292.334,27.277 282.245,26.387 267.400 C 26.163 263.660,25.804 259.050,25.590 257.155 C 24.738 249.629,25.258 221.937,26.456 211.000 C 27.114 204.988,30.772 185.416,31.439 184.337 C 31.535 184.181,31.777 183.276,31.977 182.327 C 33.214 176.431,36.402 165.225,37.588 162.600 C 37.787 162.160,38.528 160.000,39.236 157.800 C 40.612 153.520,43.640 147.068,46.303 142.743 C 47.203 141.281,48.587 138.907,49.378 137.467 L 50.817 134.849 47.885 130.524 C 43.677 124.318,42.579 121.725,42.044 116.730 C 40.445 101.809,50.441 86.065,64.991 80.589 C 72.778 77.658,78.759 77.791,92.200 81.197 C 97.586 82.562,97.200 82.556,97.200 81.267 C 97.200 78.023,98.390 76.841,102.863 75.645 C 104.478 75.213,107.960 74.130,110.600 73.239 C 113.240 72.348,116.390 71.443,117.600 71.228 C 137.965 67.606,153.476 68.020,164.749 72.484 C 168.181 73.843,169.309 74.113,171.272 74.042 C 174.028 73.943,177.164 74.767,180.565 76.483 C 182.639 77.530,183.140 77.640,184.186 77.275 C 187.815 76.009,190.643 76.334,196.050 78.640 C 198.681 79.763,199.704 79.839,200.429 78.965 C 201.171 78.071,207.761 73.556,210.441 72.105 C 216.342 68.911,224.461 66.509,232.400 65.610 C 233.830 65.448,236.530 64.999,238.400 64.612 C 241.291 64.015,242.787 63.957,248.400 64.231 C 257.934 64.695,262.201 64.561,267.292 63.639 C 277.006 61.879,277.273 61.868,279.955 63.114 " stroke="none" fill="#fbfbfb" fill-rule="evenodd"></path><path id="path1" d="M271.200 68.455 C 263.493 71.326,257.498 72.210,248.426 71.813 C 239.490 71.422,236.019 71.502,230.800 72.222 C 228.490 72.540,225.793 72.908,224.807 73.039 C 220.815 73.569,214.009 76.735,210.287 79.793 C 207.451 82.125,201.196 86.000,200.270 86.000 C 199.929 86.000,197.794 85.088,195.525 83.972 C 190.280 81.394,187.200 81.717,187.200 84.844 C 187.200 85.260,186.929 85.600,186.598 85.600 C 185.900 85.600,171.538 81.200,167.400 79.718 C 161.450 77.588,156.228 75.985,153.668 75.503 C 148.779 74.582,132.396 74.980,126.000 76.176 C 125.450 76.279,123.740 76.569,122.200 76.820 C 117.648 77.563,111.690 79.370,107.720 81.213 C 102.920 83.441,102.982 86.782,107.849 88.197 C 111.410 89.232,110.142 90.503,105.680 90.370 C 102.274 90.269,100.530 89.847,96.800 88.221 C 77.036 79.610,61.542 82.787,56.211 96.544 C 53.248 104.191,54.631 107.379,59.349 103.777 C 66.343 98.436,75.179 98.586,83.400 104.184 C 91.135 109.450,103.925 110.026,114.600 105.587 C 115.040 105.404,117.200 104.499,119.400 103.576 C 124.955 101.246,132.025 99.217,139.800 97.722 C 148.455 96.057,171.387 96.629,176.736 98.642 C 178.201 99.194,180.836 100.180,182.590 100.833 C 184.345 101.486,185.934 102.174,186.122 102.362 C 186.612 102.852,184.703 106.388,183.186 107.800 C 182.477 108.460,180.629 110.710,179.080 112.800 C 177.531 114.890,175.035 118.096,173.533 119.925 C 172.032 121.753,170.728 123.643,170.636 124.125 C 169.392 130.666,169.415 130.633,166.750 129.872 C 163.910 129.062,157.173 128.107,152.200 127.809 C 147.850 127.549,147.640 127.440,146.824 125.000 C 145.199 120.136,141.280 117.500,133.127 115.785 C 124.905 114.055,114.049 120.905,114.480 127.551 L 114.600 129.400 115.545 127.881 C 116.450 126.424,120.085 123.600,121.055 123.600 C 121.311 123.600,122.150 124.230,122.920 125.000 C 125.121 127.201,126.377 126.639,127.632 122.889 C 128.833 119.301,138.112 121.148,141.090 125.569 C 142.521 127.692,142.335 128.000,139.620 128.000 C 138.311 128.000,136.376 128.164,135.320 128.365 C 134.264 128.566,131.330 128.940,128.800 129.196 C 123.942 129.688,118.746 130.620,117.653 131.195 C 117.294 131.384,115.830 131.843,114.400 132.215 C 109.008 133.619,97.401 138.800,99.650 138.800 C 100.210 138.800,101.733 138.454,103.034 138.031 C 112.919 134.819,132.242 132.329,142.469 132.949 C 157.656 133.870,159.541 134.054,165.000 135.147 C 168.745 135.898,170.162 136.532,170.477 137.600 C 170.639 138.150,171.072 139.633,171.439 140.895 C 172.015 142.875,173.194 144.783,173.203 143.749 C 173.281 134.786,180.929 128.647,186.615 132.985 C 189.637 135.289,190.442 139.569,189.419 147.894 C 189.047 150.922,188.710 154.558,188.671 155.974 L 188.600 158.547 190.400 159.744 C 191.390 160.402,193.606 161.989,195.325 163.270 C 199.204 166.163,199.661 166.179,204.811 163.594 L 208.808 161.589 208.604 160.094 C 207.778 154.033,207.600 151.690,207.602 146.871 C 207.609 130.170,217.965 124.600,222.979 138.600 C 223.233 139.311,223.349 139.238,224.023 137.936 C 225.676 134.747,239.188 125.841,245.408 123.842 C 258.916 119.500,276.445 118.956,290.200 122.451 C 293.505 123.291,294.721 123.249,292.200 122.381 C 289.649 121.504,288.071 121.123,283.073 120.179 C 279.828 119.566,266.281 119.228,259.400 119.588 C 254.993 119.819,254.515 119.174,257.087 116.471 C 259.328 114.115,260.485 113.953,262.233 115.753 C 264.083 117.657,264.980 117.591,267.020 115.400 C 268.937 113.342,269.057 113.319,272.200 114.400 C 276.711 115.952,277.537 115.216,274.716 112.155 C 267.124 103.919,252.173 108.158,248.779 119.509 C 248.385 120.828,248.032 121.269,247.234 121.443 C 241.064 122.785,233.675 125.330,228.857 127.771 C 227.726 128.344,226.773 128.675,226.739 128.507 C 226.705 128.338,226.658 127.382,226.633 126.382 C 226.573 123.900,224.918 121.735,218.379 115.581 C 210.038 107.730,210.637 106.919,221.123 111.866 C 227.466 114.858,227.974 114.763,232.862 109.668 C 237.486 104.847,250.078 99.167,260.576 97.166 C 271.494 95.086,278.612 96.541,287.548 102.679 C 292.549 106.114,295.057 107.471,304.748 111.985 C 308.413 113.692,311.194 114.696,313.586 115.176 C 315.506 115.561,317.282 116.004,317.533 116.159 C 318.493 116.752,319.296 120.721,318.860 122.722 C 318.227 125.627,317.928 131.746,317.930 141.726 C 317.932 152.055,317.761 152.614,315.433 149.900 C 314.755 149.110,313.570 148.207,312.800 147.893 C 312.030 147.579,310.168 146.389,308.663 145.249 C 303.802 141.567,299.225 139.852,294.869 140.081 L 292.600 140.200 295.100 141.958 C 296.475 142.925,297.600 143.891,297.600 144.105 C 297.600 144.318,298.698 145.578,300.040 146.904 C 307.120 153.896,311.428 161.117,312.030 167.000 C 312.188 168.540,312.449 170.563,312.610 171.496 C 312.787 172.515,312.741 173.393,312.494 173.696 C 312.209 174.047,312.308 175.052,312.819 177.000 C 313.701 180.360,313.802 186.836,313.040 191.094 C 312.431 194.493,312.526 194.701,314.086 193.389 C 318.196 189.931,320.876 194.618,320.046 203.809 C 318.622 219.563,308.146 253.096,301.428 263.400 C 299.482 266.384,298.547 267.403,292.832 272.766 C 291.640 273.885,290.930 274.800,291.254 274.800 C 292.494 274.800,296.868 273.074,301.281 270.843 C 305.542 268.690,306.026 268.536,308.041 268.703 C 309.736 268.844,310.761 268.660,312.726 267.862 C 316.152 266.469,316.139 266.355,314.151 279.905 C 312.957 288.049,306.614 301.682,301.236 307.664 C 298.304 310.925,298.573 311.448,301.848 308.853 C 304.203 306.988,308.175 304.708,308.501 305.035 C 308.631 305.164,307.221 307.504,305.368 310.235 C 303.516 312.966,302.000 315.571,302.000 316.024 C 302.000 317.266,293.453 333.716,288.800 341.430 C 282.861 351.276,275.195 360.020,268.839 364.198 C 264.360 367.143,264.649 367.307,270.637 365.221 C 273.211 364.324,277.046 363.137,279.159 362.584 C 281.271 362.030,283.900 361.237,285.000 360.820 C 302.422 354.226,307.554 351.933,315.003 347.411 C 316.545 346.475,318.885 345.164,320.203 344.498 C 322.408 343.384,323.544 342.522,327.564 338.909 C 328.594 337.984,329.396 337.615,330.400 337.607 C 331.525 337.598,332.428 337.080,335.000 334.967 C 336.760 333.521,339.994 331.055,342.187 329.489 C 349.268 324.430,350.775 322.529,351.558 317.667 C 351.773 316.334,352.125 314.913,352.342 314.509 C 353.901 311.596,359.606 290.557,363.618 272.923 C 363.828 272.000,364.000 269.760,364.000 267.944 C 364.000 265.106,364.136 264.444,364.971 263.222 C 367.037 260.198,366.687 234.066,364.352 217.000 C 363.853 213.350,361.107 201.984,360.143 199.575 C 359.415 197.755,359.569 197.341,360.739 197.968 C 365.825 200.689,365.800 196.494,360.638 181.000 C 359.245 176.820,357.244 170.790,356.190 167.600 C 355.137 164.410,353.966 161.080,353.589 160.200 C 353.211 159.320,352.325 157.160,351.620 155.400 C 350.915 153.640,349.299 150.580,348.029 148.600 C 346.759 146.620,345.108 144.010,344.360 142.800 C 343.612 141.590,342.280 139.700,341.400 138.600 C 340.520 137.500,339.280 135.834,338.643 134.897 C 338.007 133.960,336.783 132.520,335.924 131.697 C 335.064 130.874,332.986 127.915,331.306 125.122 C 329.626 122.329,326.830 118.135,325.092 115.803 L 321.932 111.562 323.085 109.297 C 325.464 104.624,335.405 101.853,340.280 104.504 C 345.337 107.254,346.452 103.774,342.570 97.351 C 337.282 88.600,332.783 85.673,318.600 81.758 C 313.083 80.235,300.222 80.621,295.715 82.444 C 294.037 83.123,293.703 82.712,294.528 80.981 C 296.573 76.693,294.210 75.716,286.200 77.538 C 284.220 77.988,280.845 78.482,278.700 78.636 C 274.205 78.957,274.402 79.188,275.600 75.000 C 277.333 68.941,275.843 66.725,271.200 68.455 M258.229 150.629 C 257.235 151.622,257.472 152.347,259.400 154.221 C 261.980 156.728,261.736 158.179,258.488 159.641 C 251.174 162.934,246.513 164.927,243.400 166.092 C 239.714 167.471,232.362 169.954,230.600 170.416 C 229.940 170.589,227.690 171.186,225.600 171.743 C 203.913 177.520,169.213 178.543,156.730 173.773 C 153.567 172.565,153.284 172.169,154.009 169.972 C 154.470 168.575,154.448 168.316,153.801 167.602 C 150.606 164.071,143.312 171.686,144.800 177.000 C 145.406 179.166,145.960 179.252,147.373 177.400 C 148.801 175.528,151.470 175.413,154.307 177.100 C 155.324 177.705,157.327 178.655,158.758 179.211 C 161.212 180.164,161.485 180.405,163.519 183.411 C 165.929 186.972,166.162 187.185,167.651 187.194 C 168.953 187.201,169.628 186.429,170.400 184.049 L 171.000 182.200 176.000 182.284 C 199.417 182.676,222.004 179.525,238.200 173.607 C 242.065 172.195,241.861 172.187,242.616 173.777 C 243.455 175.544,245.856 177.600,247.082 177.600 C 248.622 177.600,249.463 175.702,250.347 170.233 C 250.564 168.889,250.857 168.527,252.400 167.692 C 253.390 167.156,255.910 165.764,258.000 164.598 C 264.367 161.046,267.741 161.634,268.779 166.477 C 269.724 170.881,271.972 170.909,274.313 166.546 C 276.664 162.161,274.039 157.112,267.617 153.671 C 260.108 149.647,259.429 149.428,258.229 150.629 M229.800 201.219 C 220.161 207.613,219.283 207.800,216.159 204.128 C 215.684 203.569,212.560 205.501,209.510 208.241 C 207.486 210.060,206.199 210.331,204.421 209.313 C 203.639 208.866,202.437 208.378,201.750 208.229 C 200.605 207.981,198.368 206.082,197.081 204.266 C 196.421 203.335,190.591 207.133,189.286 209.344 C 188.031 211.470,186.999 211.480,182.250 209.413 C 178.339 207.709,178.042 207.641,176.952 208.184 C 176.088 208.615,175.395 208.667,174.199 208.390 C 173.319 208.186,172.007 208.015,171.283 208.010 C 170.426 208.003,168.261 207.068,165.083 205.330 C 158.477 201.719,158.259 201.608,158.083 201.784 C 157.691 202.176,162.835 210.020,167.307 215.849 C 168.678 217.636,170.566 220.156,171.502 221.449 C 172.438 222.742,173.846 224.520,174.631 225.400 C 175.416 226.280,176.885 228.170,177.896 229.600 C 181.126 234.168,185.209 239.600,185.413 239.600 C 185.522 239.600,185.957 239.384,186.381 239.119 C 187.385 238.492,188.796 239.208,189.755 240.831 C 190.312 241.775,190.720 242.000,191.870 242.000 C 193.426 242.000,193.881 242.392,198.788 247.954 L 201.376 250.888 201.834 249.093 C 202.964 244.664,204.573 245.396,206.529 251.227 C 207.072 252.847,207.722 254.241,207.972 254.324 C 208.756 254.585,209.638 253.548,209.364 252.686 C 209.224 252.246,209.325 251.146,209.588 250.243 C 209.851 249.339,210.344 247.610,210.684 246.400 C 212.125 241.267,212.786 240.299,221.062 231.200 C 223.475 228.546,223.991 227.680,224.430 225.543 C 225.349 221.069,230.950 210.856,234.808 206.617 C 238.502 202.560,240.565 198.204,239.626 196.448 C 238.944 195.174,238.835 195.227,229.800 201.219 " stroke="none" fill="#d8620c" fill-rule="evenodd"></path><path id="path2" d="M271.800 63.624 C 270.700 63.803,268.720 64.185,267.400 64.474 C 265.691 64.849,261.256 65.000,252.000 65.000 C 243.256 65.000,238.542 65.151,237.600 65.461 C 236.830 65.715,234.490 66.132,232.400 66.387 C 220.225 67.875,211.474 71.426,202.060 78.700 C 199.440 80.725,199.298 80.736,195.464 79.200 C 193.815 78.540,192.218 78.000,191.913 78.000 C 191.609 78.000,191.161 77.801,190.919 77.559 C 190.391 77.031,187.339 77.246,184.784 77.991 C 183.048 78.498,182.854 78.467,180.384 77.291 C 176.199 75.298,174.394 74.812,171.150 74.806 C 168.827 74.801,167.587 74.575,165.950 73.856 C 157.349 70.077,142.086 68.358,131.433 69.968 C 130.095 70.170,127.470 70.539,125.600 70.788 C 117.656 71.846,115.306 72.381,108.200 74.749 C 105.560 75.629,102.590 76.580,101.600 76.862 C 98.838 77.650,97.750 79.262,98.236 81.849 C 98.520 83.367,97.615 83.637,95.028 82.805 C 87.705 80.450,75.874 78.825,71.639 79.593 C 48.263 83.832,35.107 110.539,47.478 128.643 C 48.095 129.546,49.297 131.295,50.148 132.530 L 51.697 134.775 50.595 136.882 C 49.989 138.041,48.672 140.342,47.668 141.995 C 44.896 146.558,41.285 153.895,40.586 156.381 C 40.243 157.602,39.443 159.950,38.808 161.600 C 36.274 168.185,32.660 181.489,30.820 191.000 C 30.650 191.880,29.963 195.300,29.294 198.600 C 26.203 213.841,24.878 239.770,26.331 256.600 C 26.616 259.900,27.001 265.030,27.186 268.000 C 28.101 282.631,32.214 294.178,42.004 309.600 C 43.471 311.910,45.497 315.155,46.508 316.811 C 49.850 322.286,59.289 332.311,67.000 338.575 C 69.420 340.541,71.490 342.259,71.600 342.394 C 73.068 344.187,86.082 354.000,86.992 354.000 C 87.137 354.000,88.008 354.511,88.928 355.135 C 91.258 356.717,95.355 358.862,98.200 359.989 C 99.520 360.513,102.310 361.728,104.400 362.690 C 109.877 365.212,111.183 365.737,119.530 368.774 C 150.534 380.056,161.009 382.713,186.000 385.631 C 202.117 387.512,208.976 387.754,221.000 386.866 C 224.740 386.590,229.960 386.203,232.600 386.006 C 238.566 385.561,242.970 384.985,246.600 384.175 C 248.140 383.832,250.030 383.460,250.800 383.350 C 251.570 383.240,252.560 382.999,253.000 382.815 C 253.440 382.630,255.150 382.270,256.800 382.015 C 262.696 381.101,264.647 380.703,268.000 379.726 C 276.755 377.177,290.691 372.071,294.600 369.979 C 295.700 369.391,298.400 367.938,300.600 366.752 C 302.800 365.565,306.927 363.545,309.770 362.263 C 315.564 359.650,337.754 345.446,340.800 342.400 C 340.910 342.290,342.748 340.614,344.885 338.675 C 350.390 333.680,354.022 328.286,356.855 320.900 C 357.045 320.405,357.363 319.595,357.563 319.100 C 358.689 316.307,359.343 314.238,360.787 308.910 C 361.668 305.659,362.564 302.370,362.779 301.600 C 363.310 299.701,364.265 295.477,364.768 292.800 C 364.996 291.590,365.460 289.340,365.800 287.800 C 366.356 285.281,367.672 278.732,368.815 272.800 C 369.048 271.590,369.397 269.790,369.592 268.800 C 371.327 259.967,371.801 251.259,371.782 228.600 C 371.764 207.992,371.722 206.770,370.863 202.000 C 369.725 195.674,369.262 193.356,368.785 191.600 C 368.576 190.830,368.042 188.670,367.599 186.800 C 365.728 178.916,360.557 164.054,356.813 155.800 C 356.215 154.480,355.223 152.140,354.609 150.600 C 353.995 149.060,353.157 147.037,352.746 146.104 C 352.336 145.172,352.000 144.318,352.000 144.206 C 352.000 144.095,351.353 142.608,350.563 140.902 C 349.773 139.196,348.705 136.688,348.191 135.328 C 347.677 133.968,346.794 132.027,346.228 131.014 C 345.007 128.826,344.978 128.429,345.919 126.712 C 351.925 115.743,352.927 106.269,349.145 96.200 C 347.022 90.548,344.443 87.376,338.857 83.543 C 337.176 82.389,335.710 81.345,335.600 81.222 C 335.393 80.990,334.264 80.454,332.200 79.607 C 330.572 78.939,326.939 78.000,325.980 78.000 C 325.551 78.000,325.200 77.854,325.200 77.676 C 325.200 77.498,323.715 77.309,321.900 77.256 C 320.085 77.203,318.537 76.982,318.461 76.763 C 318.373 76.511,318.131 76.525,317.797 76.803 C 317.417 77.118,317.196 77.117,317.000 76.800 C 316.805 76.485,316.569 76.493,316.164 76.830 C 315.854 77.087,315.600 77.126,315.600 76.916 C 315.600 76.705,315.060 76.533,314.400 76.533 C 313.740 76.533,313.200 76.705,313.200 76.916 C 313.200 77.126,312.946 77.087,312.636 76.830 C 312.231 76.493,311.995 76.485,311.800 76.800 C 311.614 77.102,311.374 77.111,311.035 76.829 C 310.759 76.600,310.377 76.570,310.170 76.761 C 309.631 77.259,304.434 77.578,304.157 77.130 C 304.028 76.922,304.142 76.223,304.410 75.576 C 304.788 74.663,304.791 74.143,304.422 73.253 C 303.490 71.002,302.364 70.859,294.600 72.000 C 293.060 72.226,291.080 72.510,290.200 72.630 C 289.320 72.751,288.222 73.034,287.760 73.260 C 286.146 74.050,285.160 73.542,284.537 71.600 C 282.120 64.071,279.430 62.387,271.800 63.624 M275.990 67.990 C 277.423 69.423,277.421 71.164,275.976 76.314 C 275.352 78.538,275.278 78.504,279.649 77.994 C 283.377 77.559,284.105 77.423,289.328 76.192 C 294.327 75.013,297.193 77.476,295.186 81.226 C 294.687 82.159,295.074 82.201,296.699 81.390 C 299.530 79.978,312.825 79.597,317.400 80.797 C 334.327 85.236,339.045 88.681,345.505 101.319 C 347.103 104.445,343.329 107.381,340.389 105.300 C 339.582 104.729,338.533 104.600,334.699 104.600 C 328.521 104.600,325.473 105.980,323.786 109.541 L 322.771 111.683 324.108 113.341 C 326.998 116.928,334.400 128.274,334.400 129.117 C 334.400 129.235,335.435 130.436,336.700 131.786 C 339.922 135.224,346.308 143.992,346.372 145.067 C 346.387 145.323,346.536 145.593,346.702 145.667 C 347.353 145.954,350.900 151.923,351.951 154.500 C 352.198 155.105,352.575 156.005,352.789 156.500 C 354.314 160.030,356.956 167.560,358.788 173.600 C 359.970 177.499,361.611 182.316,362.399 184.200 C 362.583 184.640,362.850 185.450,362.994 186.000 C 363.137 186.550,363.410 187.540,363.601 188.200 C 366.065 196.722,365.613 199.783,361.995 199.059 C 360.685 198.797,360.590 198.997,361.230 200.674 C 361.466 201.293,361.835 202.610,362.049 203.600 C 362.551 205.917,362.980 207.670,363.714 210.400 C 366.465 220.638,367.942 260.310,365.690 263.473 C 365.006 264.434,364.793 265.311,364.771 267.262 C 364.729 270.937,364.212 273.668,361.604 284.000 C 361.132 285.870,360.126 289.920,359.369 293.000 C 357.040 302.473,354.988 309.490,353.110 314.400 C 352.564 315.830,351.986 317.900,351.827 319.000 C 351.259 322.924,349.263 325.368,343.200 329.565 C 341.770 330.555,338.980 332.644,337.000 334.209 C 332.210 337.993,331.412 338.485,330.302 338.340 C 329.648 338.254,328.693 338.788,327.180 340.087 C 325.981 341.116,324.480 342.399,323.844 342.939 C 322.865 343.771,315.875 347.872,314.610 348.357 C 314.384 348.443,313.750 348.821,313.200 349.197 C 310.511 351.032,304.031 354.044,295.600 357.377 C 292.410 358.639,289.530 359.800,289.200 359.958 C 288.506 360.290,280.259 362.902,277.600 363.631 C 276.610 363.902,273.190 364.985,270.000 366.036 C 263.606 368.144,261.200 368.706,261.200 368.091 C 261.200 367.872,261.515 367.590,261.900 367.464 C 262.812 367.166,265.519 365.564,268.937 363.302 C 276.940 358.003,284.661 348.170,292.885 332.800 C 293.650 331.370,294.634 329.570,295.071 328.800 C 296.796 325.761,301.105 316.911,301.595 315.400 C 301.880 314.520,303.272 312.135,304.687 310.100 C 306.102 308.065,307.101 306.400,306.908 306.400 C 306.524 306.400,302.723 308.735,302.400 309.169 C 301.934 309.797,299.627 311.200,299.062 311.200 C 297.756 311.200,298.015 310.296,299.916 308.215 C 305.433 302.179,312.143 288.528,313.391 280.800 C 314.161 276.036,314.948 268.415,314.697 268.163 C 314.581 268.048,313.792 268.259,312.943 268.634 C 311.931 269.080,310.384 269.309,308.445 269.300 C 305.900 269.287,305.222 269.443,303.555 270.426 C 299.461 272.840,289.926 276.461,289.305 275.837 C 289.137 275.668,291.362 273.251,294.249 270.465 C 297.137 267.679,300.038 264.590,300.697 263.600 C 304.996 257.143,310.866 240.862,316.271 220.400 C 321.431 200.869,320.051 187.971,313.534 194.821 C 311.728 196.719,311.158 196.233,311.906 193.435 C 313.430 187.738,313.383 182.865,311.727 174.656 C 311.578 173.915,311.687 173.394,312.036 173.178 C 312.476 172.906,312.486 172.593,312.088 171.493 C 311.820 170.751,311.597 169.166,311.594 167.972 C 311.588 165.815,310.954 163.452,309.735 161.052 C 308.983 159.570,306.300 155.087,305.994 154.800 C 305.876 154.690,305.007 153.610,304.062 152.400 C 301.530 149.159,293.774 141.309,292.798 140.999 C 290.562 140.290,292.147 139.398,295.486 139.487 C 300.667 139.625,303.813 140.878,309.400 145.031 C 310.940 146.175,312.845 147.380,313.633 147.708 C 314.421 148.035,315.437 148.775,315.890 149.352 C 316.927 150.670,317.780 150.757,317.336 149.500 C 316.956 148.424,316.966 147.322,317.395 142.685 C 317.630 140.151,317.572 138.553,317.191 136.961 C 316.768 135.198,316.758 134.373,317.143 132.871 C 317.409 131.835,317.692 129.461,317.773 127.594 C 317.854 125.727,318.054 123.336,318.217 122.279 C 318.770 118.707,317.365 116.037,314.920 116.013 C 312.715 115.991,309.355 114.918,304.899 112.812 C 302.534 111.695,298.990 110.020,297.021 109.091 C 295.053 108.161,290.966 105.747,287.939 103.727 C 281.841 99.658,281.197 99.323,276.599 97.836 C 269.495 95.538,257.809 97.258,246.800 102.221 C 237.814 106.273,236.352 107.147,232.810 110.587 C 228.082 115.178,227.310 115.488,224.226 114.032 C 211.901 108.212,211.555 108.305,219.132 115.400 C 224.431 120.362,226.950 123.578,227.488 126.070 L 227.800 127.512 230.800 126.118 C 235.334 124.012,245.251 120.800,247.220 120.800 C 247.747 120.800,248.000 120.526,248.000 119.956 C 248.000 118.527,250.864 113.227,252.333 111.937 C 259.320 105.802,269.777 105.892,275.427 112.135 C 278.653 115.700,278.229 116.604,273.890 115.405 C 270.682 114.519,268.400 114.218,268.400 114.682 C 268.400 117.288,263.801 118.357,261.833 116.208 L 260.558 114.816 259.179 115.549 C 257.969 116.192,255.775 118.708,256.122 119.055 C 256.192 119.125,259.118 119.012,262.625 118.803 C 280.004 117.770,296.832 121.087,303.383 126.838 C 306.042 129.174,304.935 129.176,300.300 126.846 C 284.123 118.713,254.198 118.922,239.300 127.271 C 234.262 130.095,234.154 130.165,229.068 133.963 C 226.415 135.943,225.293 137.073,224.561 138.500 C 223.385 140.792,223.114 140.843,222.441 138.900 C 219.346 129.967,212.386 129.173,209.301 137.400 C 207.881 141.188,207.717 147.726,208.820 156.600 C 209.500 162.074,209.507 161.978,208.400 162.593 C 201.375 166.500,198.790 166.915,195.931 164.596 C 194.979 163.824,192.805 162.256,191.100 161.113 L 188.000 159.034 188.000 156.400 C 188.000 154.952,188.287 151.614,188.639 148.983 C 190.158 137.605,188.227 132.406,182.480 132.401 C 178.044 132.398,174.811 136.023,174.223 141.661 C 173.702 146.649,171.648 145.594,170.382 139.689 C 169.832 137.125,169.662 136.996,165.573 136.009 C 159.319 134.501,152.144 133.891,140.200 133.852 C 129.595 133.817,127.295 133.964,118.600 135.238 C 113.884 135.929,105.735 137.751,102.800 138.771 C 92.254 142.434,96.514 138.205,107.800 133.808 C 111.668 132.301,113.650 131.653,119.600 129.950 C 120.370 129.730,122.440 129.375,124.200 129.161 C 125.960 128.947,128.840 128.598,130.600 128.386 C 132.360 128.174,135.465 127.889,137.500 127.752 C 139.535 127.616,141.200 127.340,141.200 127.138 C 141.200 125.781,138.500 123.540,135.914 122.752 C 129.749 120.872,129.032 120.838,128.449 122.400 C 128.202 123.060,127.802 124.131,127.560 124.781 C 127.136 125.914,125.678 127.200,124.815 127.200 C 124.588 127.200,123.683 126.550,122.804 125.756 C 121.902 124.941,120.957 124.408,120.633 124.532 C 118.842 125.219,116.718 126.993,116.000 128.400 C 114.780 130.792,113.600 130.634,113.600 128.079 C 113.600 120.435,125.258 113.004,133.754 115.232 C 134.659 115.469,136.120 115.850,137.000 116.078 C 142.545 117.515,146.422 120.876,147.619 125.284 C 148.083 126.993,148.154 127.014,154.597 127.394 C 158.583 127.629,163.921 128.425,166.907 129.229 C 167.772 129.462,168.514 129.596,168.554 129.526 C 168.953 128.837,169.600 126.314,169.600 125.445 C 169.600 124.047,170.118 123.084,172.204 120.600 C 173.128 119.500,174.895 117.250,176.131 115.600 C 177.367 113.950,178.523 112.420,178.700 112.200 C 178.877 111.980,179.454 111.170,179.982 110.400 C 180.510 109.630,181.675 108.266,182.571 107.369 C 185.941 103.995,186.059 102.746,183.100 101.777 C 181.945 101.398,180.190 100.736,179.200 100.304 C 175.134 98.533,173.871 98.214,168.400 97.575 C 153.237 95.803,134.109 98.506,118.800 104.584 C 103.110 110.814,92.114 110.875,83.145 104.784 C 74.948 99.217,66.501 98.990,60.000 104.160 C 56.297 107.106,52.304 104.826,53.973 100.719 C 54.179 100.213,55.008 98.042,55.817 95.894 C 57.408 91.668,59.376 89.399,64.194 86.236 C 66.049 85.019,67.213 84.525,71.333 83.213 C 73.204 82.617,81.398 82.591,82.938 83.176 C 83.551 83.409,84.513 83.600,85.075 83.600 C 86.529 83.600,93.747 86.078,97.459 87.851 C 100.549 89.326,105.839 90.223,108.149 89.663 C 109.024 89.450,107.573 88.441,106.355 88.414 C 105.203 88.389,103.600 86.401,103.600 84.999 C 103.600 80.525,113.643 76.980,133.068 74.597 C 144.899 73.146,154.618 74.240,165.000 78.193 C 168.123 79.382,170.222 80.089,172.600 80.753 C 173.480 80.998,176.705 82.009,179.768 82.999 C 186.134 85.058,186.695 85.132,186.872 83.940 C 187.311 80.985,190.587 80.827,196.016 83.499 L 200.200 85.559 202.529 84.179 C 203.809 83.421,205.024 82.800,205.229 82.800 C 205.433 82.800,205.600 82.620,205.600 82.400 C 205.600 82.180,205.833 82.000,206.119 82.000 C 206.404 82.000,207.793 81.022,209.205 79.827 C 213.554 76.145,220.336 72.989,225.200 72.383 C 226.630 72.205,229.330 71.821,231.200 71.530 C 235.091 70.924,242.844 70.858,249.713 71.371 C 253.040 71.620,255.275 71.582,257.313 71.242 C 262.091 70.446,267.527 69.100,269.727 68.168 C 272.449 67.014,274.944 66.944,275.990 67.990 M264.108 151.052 C 274.547 156.289,277.831 161.098,274.863 166.800 C 272.199 171.916,268.000 171.329,268.000 165.840 C 268.000 162.987,263.264 162.149,259.615 164.357 C 258.414 165.084,256.254 166.316,254.815 167.094 C 253.377 167.872,252.033 168.660,251.830 168.845 C 251.423 169.214,250.060 174.140,250.023 175.374 C 249.904 179.363,243.358 178.148,241.853 173.858 C 241.675 173.351,241.373 173.202,240.897 173.387 C 232.740 176.549,219.964 179.720,210.400 180.955 C 199.666 182.341,197.165 182.502,184.600 182.616 L 171.400 182.736 170.980 184.410 C 170.239 187.365,168.101 188.725,165.982 187.590 C 165.205 187.174,162.000 182.743,162.000 182.084 C 162.000 181.454,160.652 180.517,159.000 180.000 C 158.120 179.725,156.410 178.960,155.200 178.300 C 150.988 176.004,148.930 175.991,147.467 178.252 C 145.722 180.946,144.200 179.631,144.200 175.431 C 144.200 170.890,147.510 166.658,151.477 166.126 C 154.299 165.747,155.370 167.418,154.603 171.000 C 154.331 172.269,154.235 172.192,157.800 173.578 C 164.275 176.096,178.420 176.833,196.200 175.581 C 214.163 174.315,224.920 172.055,241.800 166.001 C 244.634 164.984,252.146 161.824,257.459 159.413 C 260.471 158.046,261.254 156.812,259.894 155.575 C 257.552 153.445,257.200 152.957,257.200 151.840 C 257.200 148.768,259.118 148.549,264.108 151.052 M239.669 195.462 C 240.616 196.320,240.594 197.851,239.596 200.519 C 238.775 202.713,238.342 203.350,234.273 208.360 C 230.500 213.005,225.200 222.746,225.200 225.035 C 225.200 226.516,223.912 229.075,222.298 230.800 C 214.530 239.102,212.000 242.432,212.000 244.351 C 212.000 244.781,211.640 245.974,211.200 247.000 C 210.760 248.026,210.400 249.214,210.400 249.639 C 210.400 250.063,210.175 250.792,209.900 251.258 C 209.500 251.935,209.500 252.141,209.900 252.286 C 210.702 252.576,210.477 253.901,209.511 254.577 C 207.851 255.740,207.328 255.393,206.383 252.500 C 205.310 249.218,203.993 246.737,203.422 246.923 C 203.044 247.046,202.776 247.930,202.124 251.200 C 201.934 252.153,194.800 245.442,194.800 244.311 C 194.800 243.665,192.227 242.428,191.344 242.650 C 190.647 242.825,190.257 242.571,189.541 241.479 C 188.141 239.343,187.223 238.909,186.402 239.998 L 185.734 240.883 184.291 239.197 C 183.497 238.270,182.342 236.766,181.725 235.856 C 181.107 234.945,180.501 234.110,180.378 234.000 C 180.255 233.890,179.225 232.450,178.090 230.800 C 176.954 229.150,175.613 227.350,175.110 226.800 C 173.136 224.644,170.466 221.305,169.190 219.400 C 168.453 218.300,167.073 216.410,166.122 215.200 C 162.642 210.771,161.135 208.612,159.028 205.036 C 156.060 199.999,156.514 199.820,163.035 203.457 C 169.950 207.313,170.323 207.467,173.418 207.741 C 175.614 207.935,176.430 207.854,177.116 207.374 C 178.006 206.750,180.087 207.444,184.462 209.823 C 186.393 210.873,187.921 210.580,188.865 208.980 C 189.326 208.199,190.804 206.823,192.151 205.923 C 193.498 205.022,194.991 203.933,195.470 203.502 L 196.339 202.718 198.728 205.159 C 200.042 206.501,201.453 207.600,201.864 207.600 C 202.275 207.600,203.284 207.960,204.104 208.400 C 206.209 209.528,207.064 209.409,209.137 207.700 C 210.137 206.875,212.028 205.440,213.339 204.512 L 215.722 202.824 217.161 204.026 C 217.952 204.687,218.817 205.402,219.083 205.614 C 220.243 206.541,221.802 205.788,229.842 200.420 C 238.948 194.340,238.615 194.508,239.669 195.462 " stroke="none" fill="#041c2c" fill-rule="evenodd"></path><path id="path3" d="M274.000 62.455 C 272.790 62.657,269.772 63.190,267.292 63.639 C 262.201 64.561,257.934 64.695,248.400 64.231 C 242.787 63.957,241.291 64.015,238.400 64.612 C 236.530 64.999,233.830 65.448,232.400 65.610 C 224.461 66.509,216.342 68.911,210.441 72.105 C 207.761 73.556,201.171 78.071,200.429 78.965 C 199.704 79.839,198.681 79.763,196.050 78.640 C 190.643 76.334,187.815 76.009,184.186 77.275 C 183.140 77.640,182.639 77.530,180.565 76.483 C 177.164 74.767,174.028 73.943,171.272 74.042 C 169.309 74.113,168.181 73.843,164.749 72.484 C 154.521 68.433,138.830 67.679,122.200 70.438 C 116.424 71.397,115.140 71.707,110.600 73.239 C 107.960 74.130,104.478 75.213,102.863 75.645 C 98.390 76.841,97.200 78.023,97.200 81.267 C 97.200 82.556,97.586 82.562,92.200 81.197 C 78.759 77.791,72.778 77.658,64.991 80.589 C 50.441 86.065,40.445 101.809,42.044 116.730 C 42.579 121.725,43.677 124.318,47.885 130.524 L 50.817 134.849 49.378 137.467 C 48.587 138.907,47.203 141.281,46.303 142.743 C 43.640 147.068,40.612 153.520,39.236 157.800 C 38.528 160.000,37.787 162.160,37.588 162.600 C 36.402 165.225,33.214 176.431,31.977 182.327 C 31.777 183.276,31.535 184.181,31.439 184.337 C 30.772 185.416,27.114 204.988,26.456 211.000 C 25.258 221.937,24.738 249.629,25.590 257.155 C 25.804 259.050,26.163 263.660,26.387 267.400 C 27.277 282.245,30.633 292.334,39.694 307.400 C 44.075 314.685,48.367 321.256,49.906 323.034 C 53.516 327.205,62.448 335.940,65.900 338.674 C 68.045 340.373,70.701 342.615,71.801 343.655 C 74.916 346.599,78.428 349.314,82.897 352.232 C 85.154 353.705,87.463 355.227,88.029 355.615 C 90.065 357.009,95.861 359.970,98.896 361.167 C 100.599 361.839,103.516 363.109,105.378 363.989 C 114.746 368.419,145.652 379.058,155.600 381.277 C 156.590 381.498,158.030 381.822,158.800 381.996 C 167.237 383.911,176.527 385.439,185.600 386.406 C 187.470 386.605,191.520 387.058,194.600 387.412 C 201.213 388.171,215.445 388.285,222.800 387.636 C 225.550 387.393,230.050 387.005,232.800 386.773 C 239.014 386.249,245.275 385.332,249.200 384.370 C 250.850 383.966,254.450 383.264,257.200 382.811 C 264.883 381.545,275.798 378.607,281.100 376.378 C 281.595 376.170,282.405 375.828,282.900 375.617 C 283.395 375.406,285.600 374.578,287.800 373.778 C 290.000 372.977,293.870 371.235,296.400 369.905 C 306.114 364.801,307.442 364.126,308.800 363.602 C 320.198 359.203,347.087 339.730,351.887 332.400 C 356.113 325.945,360.454 314.970,362.805 304.800 C 362.983 304.030,363.410 302.320,363.755 301.000 C 364.100 299.680,365.018 295.540,365.796 291.800 C 366.575 288.060,367.378 284.280,367.582 283.400 C 367.785 282.520,368.340 279.730,368.813 277.200 C 369.287 274.670,369.916 271.340,370.210 269.800 C 372.166 259.580,372.603 251.943,372.568 228.600 L 372.535 207.000 371.451 200.800 C 370.855 197.390,370.032 193.250,369.621 191.600 C 369.210 189.950,368.492 187.070,368.025 185.200 C 367.174 181.799,364.215 172.367,362.817 168.600 C 361.540 165.161,359.162 159.054,358.611 157.800 C 358.322 157.140,357.729 155.790,357.294 154.800 C 356.187 152.281,354.899 149.248,351.603 141.400 C 350.032 137.660,348.113 133.232,347.339 131.560 L 345.930 128.521 347.549 125.302 C 353.588 113.289,353.743 102.857,348.046 91.691 C 345.811 87.308,336.460 79.958,331.073 78.348 C 325.202 76.594,311.086 75.535,306.500 76.505 L 305.200 76.780 305.200 74.660 C 305.200 70.085,301.060 69.468,288.974 72.243 C 285.675 73.001,285.829 73.063,285.071 70.659 C 283.045 64.232,279.425 61.549,274.000 62.455 M279.561 63.633 C 281.764 64.976,284.145 68.686,284.786 71.774 C 285.102 73.296,285.694 73.318,292.845 72.076 C 302.765 70.353,305.194 71.006,304.632 75.243 L 304.357 77.320 307.078 77.002 C 311.006 76.543,318.130 76.431,318.612 76.820 C 318.839 77.003,320.315 77.190,321.893 77.236 C 331.880 77.528,344.140 84.905,347.960 92.921 C 353.020 103.539,352.834 112.703,347.324 124.340 C 345.276 128.664,345.259 128.325,347.795 134.000 C 348.827 136.310,351.077 141.620,352.794 145.800 C 354.511 149.980,356.460 154.570,357.125 156.000 C 360.869 164.054,366.753 181.283,368.435 189.116 C 368.657 190.152,369.011 191.720,369.221 192.600 C 369.609 194.229,369.869 195.562,370.979 201.600 C 372.972 212.447,372.373 253.965,370.029 267.400 C 369.122 272.600,367.366 281.586,365.963 288.200 C 358.533 323.254,354.538 331.560,339.200 343.856 C 334.791 347.390,315.604 359.855,312.057 361.489 C 307.128 363.760,300.527 367.020,295.800 369.517 C 287.834 373.726,265.026 381.582,260.731 381.596 C 260.142 381.598,258.702 381.790,257.531 382.023 C 253.321 382.860,247.781 384.099,246.800 384.425 C 246.250 384.607,243.640 385.029,241.000 385.363 C 236.473 385.936,234.194 386.129,218.697 387.252 C 212.290 387.717,201.712 387.533,195.000 386.841 C 181.994 385.500,171.037 384.006,165.400 382.806 C 164.520 382.618,162.720 382.245,161.400 381.977 C 152.779 380.222,130.739 373.526,124.600 370.796 C 124.160 370.600,122.943 370.163,121.895 369.823 C 119.170 368.940,113.524 366.824,112.705 366.378 C 112.323 366.170,111.819 366.000,111.585 366.000 C 111.351 366.000,108.202 364.650,104.587 363.000 C 100.972 361.350,97.847 360.000,97.641 360.000 C 95.461 360.000,80.296 350.221,73.982 344.744 C 71.682 342.749,68.180 339.813,66.200 338.220 C 59.787 333.061,49.378 322.040,46.779 317.657 C 46.042 316.416,44.067 313.240,42.388 310.600 C 38.240 304.075,34.784 297.722,33.032 293.400 C 32.229 291.420,31.415 289.440,31.222 289.000 C 30.729 287.872,30.358 286.790,29.989 285.400 C 29.813 284.740,29.407 283.210,29.086 282.000 C 28.030 278.016,27.245 272.301,26.805 265.400 C 26.566 261.660,26.175 256.783,25.935 254.563 C 25.658 252.001,25.586 246.157,25.738 238.563 C 26.169 216.971,26.843 209.103,29.261 197.400 C 29.943 194.100,30.657 190.590,30.848 189.600 C 34.189 172.268,40.779 153.246,47.201 142.400 C 48.699 139.870,50.250 137.113,50.649 136.273 C 51.477 134.529,51.683 135.046,47.944 129.493 C 43.313 122.613,42.631 120.512,42.653 113.194 C 42.708 95.525,58.250 79.200,75.016 79.200 C 80.464 79.200,83.792 79.750,94.510 82.424 C 96.221 82.851,97.706 83.200,97.810 83.200 C 97.915 83.200,98.000 82.286,98.000 81.169 C 98.000 78.844,99.366 77.035,101.449 76.601 C 103.644 76.143,105.816 75.488,109.000 74.323 C 114.945 72.150,117.705 71.571,129.600 70.006 C 135.661 69.209,150.460 69.291,154.400 70.145 C 156.270 70.550,158.574 71.039,159.521 71.232 C 160.468 71.426,162.718 72.238,164.521 73.038 C 167.285 74.265,168.303 74.507,171.000 74.582 C 174.530 74.681,176.002 75.070,180.295 77.040 C 183.104 78.329,183.239 78.351,184.845 77.784 C 187.976 76.679,190.171 77.024,197.550 79.778 C 198.996 80.317,199.423 80.341,200.004 79.915 C 212.439 70.801,218.979 67.984,231.800 66.220 C 234.220 65.887,237.730 65.331,239.600 64.984 C 242.546 64.437,243.961 64.416,250.200 64.825 C 257.827 65.325,262.157 65.211,266.400 64.399 C 267.830 64.126,270.170 63.678,271.600 63.405 C 275.718 62.618,278.004 62.683,279.561 63.633 " stroke="none" fill="#757f8d" fill-rule="evenodd"></path><path id="path4" d="M275.107 63.090 C 275.826 63.179,276.906 63.177,277.507 63.086 C 278.108 62.995,277.520 62.922,276.200 62.924 C 274.880 62.926,274.388 63.001,275.107 63.090 M242.691 64.689 C 243.401 64.777,244.661 64.779,245.491 64.692 C 246.321 64.605,245.740 64.533,244.200 64.531 C 242.660 64.529,241.981 64.600,242.691 64.689 M264.000 64.800 C 263.196 65.057,263.157 65.123,263.800 65.132 C 264.240 65.138,264.960 64.989,265.400 64.800 C 266.419 64.362,265.368 64.362,264.000 64.800 M250.105 65.087 C 250.714 65.179,251.614 65.177,252.105 65.082 C 252.597 64.987,252.100 64.911,251.000 64.914 C 249.900 64.917,249.497 64.995,250.105 65.087 M236.200 65.600 C 235.696 65.817,235.622 65.944,236.000 65.944 C 236.330 65.944,236.960 65.789,237.400 65.600 C 237.904 65.383,237.978 65.256,237.600 65.256 C 237.270 65.256,236.640 65.411,236.200 65.600 M269.727 68.168 C 267.527 69.100,262.091 70.446,257.313 71.242 C 255.275 71.582,253.040 71.620,249.713 71.371 C 242.844 70.858,235.091 70.924,231.200 71.530 C 229.330 71.821,226.630 72.205,225.200 72.383 C 220.336 72.989,213.554 76.145,209.205 79.827 C 207.793 81.022,206.404 82.000,206.119 82.000 C 205.833 82.000,205.600 82.180,205.600 82.400 C 205.600 82.620,205.433 82.800,205.229 82.800 C 205.024 82.800,203.809 83.421,202.529 84.179 L 200.200 85.559 196.016 83.499 C 190.587 80.827,187.311 80.985,186.872 83.940 C 186.695 85.132,186.134 85.058,179.768 82.999 C 176.705 82.009,173.480 80.998,172.600 80.753 C 170.222 80.089,168.123 79.382,165.000 78.193 C 154.618 74.240,144.899 73.146,133.068 74.597 C 113.643 76.980,103.600 80.525,103.600 84.999 C 103.600 86.401,105.203 88.389,106.355 88.414 C 107.573 88.441,109.024 89.450,108.149 89.663 C 105.839 90.223,100.549 89.326,97.459 87.851 C 93.747 86.078,86.529 83.600,85.075 83.600 C 84.513 83.600,83.551 83.409,82.938 83.176 C 81.398 82.591,73.204 82.617,71.333 83.213 C 67.213 84.525,66.049 85.019,64.194 86.236 C 59.376 89.399,57.408 91.668,55.817 95.894 C 55.008 98.042,54.179 100.213,53.973 100.719 C 52.304 104.826,56.297 107.106,60.000 104.160 C 66.501 98.990,74.948 99.217,83.145 104.784 C 92.114 110.875,103.110 110.814,118.800 104.584 C 132.157 99.281,137.327 98.218,153.000 97.557 C 161.779 97.186,165.108 97.190,168.400 97.575 C 173.871 98.214,175.134 98.533,179.200 100.304 C 180.190 100.736,181.945 101.398,183.100 101.777 C 186.059 102.746,185.941 103.995,182.571 107.369 C 181.675 108.266,180.510 109.630,179.982 110.400 C 179.454 111.170,178.877 111.980,178.700 112.200 C 178.523 112.420,177.367 113.950,176.131 115.600 C 174.895 117.250,173.128 119.500,172.204 120.600 C 170.118 123.084,169.600 124.047,169.600 125.445 C 169.600 126.314,168.953 128.837,168.554 129.526 C 168.514 129.596,167.772 129.462,166.907 129.229 C 163.921 128.425,158.583 127.629,154.597 127.394 C 148.154 127.014,148.083 126.993,147.619 125.284 C 146.422 120.876,142.545 117.515,137.000 116.078 C 136.120 115.850,134.659 115.469,133.754 115.232 C 125.258 113.004,113.600 120.435,113.600 128.079 C 113.600 130.634,114.780 130.792,116.000 128.400 C 116.718 126.993,118.842 125.219,120.633 124.532 C 120.957 124.408,121.902 124.941,122.804 125.756 C 123.683 126.550,124.588 127.200,124.815 127.200 C 125.678 127.200,127.136 125.914,127.560 124.781 C 127.802 124.131,128.202 123.060,128.449 122.400 C 129.032 120.838,129.749 120.872,135.914 122.752 C 138.500 123.540,141.200 125.781,141.200 127.138 C 141.200 127.340,139.535 127.616,137.500 127.752 C 135.465 127.889,132.360 128.174,130.600 128.386 C 128.840 128.598,125.960 128.947,124.200 129.161 C 122.440 129.375,120.370 129.730,119.600 129.950 C 113.650 131.653,111.668 132.301,107.800 133.808 C 96.514 138.205,92.254 142.434,102.800 138.771 C 105.735 137.751,113.884 135.929,118.600 135.238 C 127.295 133.964,129.595 133.817,140.200 133.852 C 152.144 133.891,159.319 134.501,165.573 136.009 C 169.662 136.996,169.832 137.125,170.382 139.689 C 171.648 145.594,173.702 146.649,174.223 141.661 C 174.811 136.023,178.044 132.398,182.480 132.401 C 188.227 132.406,190.158 137.605,188.639 148.983 C 188.287 151.614,188.000 154.952,188.000 156.400 L 188.000 159.034 191.100 161.113 C 192.805 162.256,194.979 163.824,195.931 164.596 C 198.790 166.915,201.375 166.500,208.400 162.593 C 209.507 161.978,209.500 162.074,208.820 156.600 C 207.717 147.726,207.881 141.188,209.301 137.400 C 212.386 129.173,219.346 129.967,222.441 138.900 C 223.114 140.843,223.385 140.792,224.561 138.500 C 225.293 137.073,226.415 135.943,229.068 133.963 C 234.154 130.165,234.262 130.095,239.300 127.271 C 254.198 118.922,284.123 118.713,300.300 126.846 C 304.935 129.176,306.042 129.174,303.383 126.838 C 296.832 121.087,280.004 117.770,262.625 118.803 C 259.118 119.012,256.192 119.125,256.122 119.055 C 255.775 118.708,257.969 116.192,259.179 115.549 L 260.558 114.816 261.833 116.208 C 263.801 118.357,268.400 117.288,268.400 114.682 C 268.400 114.218,270.682 114.519,273.890 115.405 C 278.229 116.604,278.653 115.700,275.427 112.135 C 269.777 105.892,259.320 105.802,252.333 111.937 C 250.864 113.227,248.000 118.527,248.000 119.956 C 248.000 120.526,247.747 120.800,247.220 120.800 C 245.251 120.800,235.334 124.012,230.800 126.118 L 227.800 127.512 227.488 126.070 C 226.950 123.578,224.431 120.362,219.132 115.400 C 211.555 108.305,211.901 108.212,224.226 114.032 C 227.310 115.488,228.082 115.178,232.810 110.587 C 236.352 107.147,237.814 106.273,246.800 102.221 C 257.809 97.258,269.495 95.538,276.599 97.836 C 281.197 99.323,281.841 99.658,287.939 103.727 C 290.966 105.747,295.053 108.161,297.021 109.091 C 298.990 110.020,302.534 111.695,304.899 112.812 C 309.355 114.918,312.715 115.991,314.920 116.013 C 317.365 116.037,318.770 118.707,318.217 122.279 C 318.054 123.336,317.854 125.727,317.773 127.594 C 317.692 129.461,317.409 131.835,317.143 132.871 C 316.758 134.373,316.768 135.198,317.191 136.961 C 317.572 138.553,317.630 140.151,317.395 142.685 C 316.966 147.322,316.956 148.424,317.336 149.500 C 317.780 150.757,316.927 150.670,315.890 149.352 C 315.437 148.775,314.421 148.035,313.633 147.708 C 312.845 147.380,310.940 146.175,309.400 145.031 C 303.813 140.878,300.667 139.625,295.486 139.487 C 292.147 139.398,290.562 140.290,292.798 140.999 C 293.774 141.309,301.530 149.159,304.062 152.400 C 305.007 153.610,305.876 154.690,305.994 154.800 C 306.300 155.087,308.983 159.570,309.735 161.052 C 310.954 163.452,311.588 165.815,311.594 167.972 C 311.597 169.166,311.820 170.751,312.088 171.493 C 312.486 172.593,312.476 172.906,312.036 173.178 C 311.687 173.394,311.578 173.915,311.727 174.656 C 313.383 182.865,313.430 187.738,311.906 193.435 C 311.158 196.233,311.728 196.719,313.534 194.821 C 320.051 187.971,321.431 200.869,316.271 220.400 C 310.866 240.862,304.996 257.143,300.697 263.600 C 300.038 264.590,297.137 267.679,294.249 270.465 C 291.362 273.251,289.137 275.668,289.305 275.837 C 289.926 276.461,299.461 272.840,303.555 270.426 C 305.222 269.443,305.900 269.287,308.445 269.300 C 310.384 269.309,311.931 269.080,312.943 268.634 C 313.792 268.259,314.581 268.048,314.697 268.163 C 314.948 268.415,314.161 276.036,313.391 280.800 C 312.143 288.528,305.433 302.179,299.916 308.215 C 298.015 310.296,297.756 311.200,299.062 311.200 C 299.627 311.200,301.934 309.797,302.400 309.169 C 302.723 308.735,306.524 306.400,306.908 306.400 C 307.101 306.400,306.102 308.065,304.687 310.100 C 303.272 312.135,301.880 314.520,301.595 315.400 C 301.105 316.911,296.796 325.761,295.071 328.800 C 294.634 329.570,293.650 331.370,292.885 332.800 C 284.661 348.170,276.940 358.003,268.937 363.302 C 265.519 365.564,262.812 367.166,261.900 367.464 C 261.515 367.590,261.200 367.872,261.200 368.091 C 261.200 368.706,263.606 368.144,270.000 366.036 C 273.190 364.985,276.610 363.902,277.600 363.631 C 280.259 362.902,288.506 360.290,289.200 359.958 C 289.530 359.800,292.410 358.639,295.600 357.377 C 304.031 354.044,310.511 351.032,313.200 349.197 C 313.750 348.821,314.384 348.443,314.610 348.357 C 315.875 347.872,322.865 343.771,323.844 342.939 C 324.480 342.399,325.981 341.116,327.180 340.087 C 328.693 338.788,329.648 338.254,330.302 338.340 C 331.412 338.485,332.210 337.993,337.000 334.209 C 338.980 332.644,341.770 330.555,343.200 329.565 C 349.263 325.368,351.259 322.924,351.827 319.000 C 351.986 317.900,352.564 315.830,353.110 314.400 C 354.988 309.490,357.040 302.473,359.369 293.000 C 360.126 289.920,361.132 285.870,361.604 284.000 C 364.212 273.668,364.729 270.937,364.771 267.262 C 364.793 265.311,365.006 264.434,365.690 263.473 C 367.942 260.310,366.465 220.638,363.714 210.400 C 362.980 207.670,362.551 205.917,362.049 203.600 C 361.835 202.610,361.466 201.293,361.230 200.674 C 360.590 198.997,360.685 198.797,361.995 199.059 C 365.613 199.783,366.065 196.722,363.601 188.200 C 363.410 187.540,363.137 186.550,362.994 186.000 C 362.850 185.450,362.583 184.640,362.399 184.200 C 361.611 182.316,359.970 177.499,358.788 173.600 C 356.956 167.560,354.314 160.030,352.789 156.500 C 352.575 156.005,352.198 155.105,351.951 154.500 C 350.900 151.923,347.353 145.954,346.702 145.667 C 346.536 145.593,346.387 145.323,346.372 145.067 C 346.308 143.992,339.922 135.224,336.700 131.786 C 335.435 130.436,334.400 129.235,334.400 129.117 C 334.400 128.274,326.998 116.928,324.108 113.341 L 322.771 111.683 323.786 109.541 C 325.473 105.980,328.521 104.600,334.699 104.600 C 338.533 104.600,339.582 104.729,340.389 105.300 C 343.329 107.381,347.103 104.445,345.505 101.319 C 339.045 88.681,334.327 85.236,317.400 80.797 C 312.825 79.597,299.530 79.978,296.699 81.390 C 295.074 82.201,294.687 82.159,295.186 81.226 C 297.193 77.476,294.327 75.013,289.328 76.192 C 284.105 77.423,283.377 77.559,279.649 77.994 C 275.278 78.504,275.352 78.538,275.976 76.314 C 278.300 68.028,276.279 65.392,269.727 68.168 M275.700 68.879 C 276.611 69.932,276.584 71.559,275.600 75.000 C 274.402 79.188,274.205 78.957,278.700 78.636 C 280.845 78.482,284.220 77.988,286.200 77.538 C 294.210 75.716,296.573 76.693,294.528 80.981 C 293.703 82.712,294.037 83.123,295.715 82.444 C 300.222 80.621,313.083 80.235,318.600 81.758 C 332.783 85.673,337.282 88.600,342.570 97.351 C 346.452 103.774,345.337 107.254,340.280 104.504 C 335.405 101.853,325.464 104.624,323.085 109.297 L 321.932 111.562 325.092 115.803 C 326.830 118.135,329.626 122.329,331.306 125.122 C 332.986 127.915,335.064 130.874,335.924 131.697 C 336.783 132.520,338.007 133.960,338.643 134.897 C 339.280 135.834,340.520 137.500,341.400 138.600 C 342.280 139.700,343.612 141.590,344.360 142.800 C 345.108 144.010,346.759 146.620,348.029 148.600 C 349.299 150.580,350.915 153.640,351.620 155.400 C 352.325 157.160,353.211 159.320,353.589 160.200 C 353.966 161.080,355.137 164.410,356.190 167.600 C 357.244 170.790,359.245 176.820,360.638 181.000 C 365.800 196.494,365.825 200.689,360.739 197.968 C 359.569 197.341,359.415 197.755,360.143 199.575 C 361.107 201.984,363.853 213.350,364.352 217.000 C 366.687 234.066,367.037 260.198,364.971 263.222 C 364.136 264.444,364.000 265.106,364.000 267.944 C 364.000 269.760,363.828 272.000,363.618 272.923 C 359.606 290.557,353.901 311.596,352.342 314.509 C 352.125 314.913,351.773 316.334,351.558 317.667 C 350.775 322.529,349.268 324.430,342.187 329.489 C 339.994 331.055,336.760 333.521,335.000 334.967 C 332.428 337.080,331.525 337.598,330.400 337.607 C 329.396 337.615,328.594 337.984,327.564 338.909 C 323.544 342.522,322.408 343.384,320.203 344.498 C 318.885 345.164,316.545 346.475,315.003 347.411 C 307.554 351.933,302.422 354.226,285.000 360.820 C 283.900 361.237,281.271 362.030,279.159 362.584 C 277.046 363.137,273.211 364.324,270.637 365.221 C 264.649 367.307,264.360 367.143,268.839 364.198 C 275.195 360.020,282.861 351.276,288.800 341.430 C 293.453 333.716,302.000 317.266,302.000 316.024 C 302.000 315.571,303.516 312.966,305.368 310.235 C 307.221 307.504,308.631 305.164,308.501 305.035 C 308.175 304.708,304.203 306.988,301.848 308.853 C 298.573 311.448,298.304 310.925,301.236 307.664 C 306.614 301.682,312.957 288.049,314.151 279.905 C 316.139 266.355,316.152 266.469,312.726 267.862 C 310.761 268.660,309.736 268.844,308.041 268.703 C 306.026 268.536,305.542 268.690,301.281 270.843 C 296.868 273.074,292.494 274.800,291.254 274.800 C 290.930 274.800,291.640 273.885,292.832 272.766 C 298.547 267.403,299.482 266.384,301.428 263.400 C 308.146 253.096,318.622 219.563,320.046 203.809 C 320.876 194.618,318.196 189.931,314.086 193.389 C 312.526 194.701,312.431 194.493,313.040 191.094 C 313.802 186.836,313.701 180.360,312.819 177.000 C 312.308 175.052,312.209 174.047,312.494 173.696 C 312.741 173.393,312.787 172.515,312.610 171.496 C 312.449 170.563,312.188 168.540,312.030 167.000 C 311.428 161.117,307.120 153.896,300.040 146.904 C 298.698 145.578,297.600 144.318,297.600 144.105 C 297.600 143.891,296.475 142.925,295.100 141.958 L 292.600 140.200 294.869 140.081 C 299.225 139.852,303.802 141.567,308.663 145.249 C 310.168 146.389,312.030 147.579,312.800 147.893 C 313.570 148.207,314.755 149.110,315.433 149.900 C 317.761 152.614,317.932 152.055,317.930 141.726 C 317.928 131.746,318.227 125.627,318.860 122.722 C 319.296 120.721,318.493 116.752,317.533 116.159 C 317.282 116.004,315.506 115.561,313.586 115.176 C 311.194 114.696,308.413 113.692,304.748 111.985 C 295.057 107.471,292.549 106.114,287.548 102.679 C 278.612 96.541,271.494 95.086,260.576 97.166 C 250.078 99.167,237.486 104.847,232.862 109.668 C 227.974 114.763,227.466 114.858,221.123 111.866 C 210.637 106.919,210.038 107.730,218.379 115.581 C 224.918 121.735,226.573 123.900,226.633 126.382 C 226.658 127.382,226.705 128.338,226.739 128.507 C 226.773 128.675,227.726 128.344,228.857 127.771 C 233.675 125.330,241.064 122.785,247.234 121.443 C 248.032 121.269,248.385 120.828,248.779 119.509 C 250.556 113.566,254.701 109.995,262.145 107.994 C 266.011 106.954,271.639 108.817,274.716 112.155 C 277.537 115.216,276.711 115.952,272.200 114.400 C 269.057 113.319,268.937 113.342,267.020 115.400 C 264.980 117.591,264.083 117.657,262.233 115.753 C 260.485 113.953,259.328 114.115,257.087 116.471 C 254.515 119.174,254.993 119.819,259.400 119.588 C 273.162 118.868,284.890 119.867,292.200 122.381 C 294.721 123.249,293.505 123.291,290.200 122.451 C 276.445 118.956,258.916 119.500,245.408 123.842 C 239.188 125.841,225.676 134.747,224.023 137.936 C 223.349 139.238,223.233 139.311,222.979 138.600 C 219.116 127.814,210.992 128.465,208.024 139.800 C 207.793 140.680,207.603 143.862,207.602 146.871 C 207.600 151.690,207.778 154.033,208.604 160.094 L 208.808 161.589 204.811 163.594 C 199.661 166.179,199.204 166.163,195.325 163.270 C 193.606 161.989,191.390 160.402,190.400 159.744 L 188.600 158.547 188.671 155.974 C 188.710 154.558,189.047 150.922,189.419 147.894 C 190.442 139.569,189.637 135.289,186.615 132.985 C 180.929 128.647,173.281 134.786,173.203 143.749 C 173.194 144.783,172.015 142.875,171.439 140.895 C 171.072 139.633,170.639 138.150,170.477 137.600 C 170.162 136.532,168.745 135.898,165.000 135.147 C 159.541 134.054,157.656 133.870,142.469 132.949 C 132.242 132.329,112.919 134.819,103.034 138.031 C 101.733 138.454,100.210 138.800,99.650 138.800 C 97.401 138.800,109.008 133.619,114.400 132.215 C 115.830 131.843,117.294 131.384,117.653 131.195 C 118.746 130.620,123.942 129.688,128.800 129.196 C 131.330 128.940,134.264 128.566,135.320 128.365 C 136.376 128.164,138.311 128.000,139.620 128.000 C 142.335 128.000,142.521 127.692,141.090 125.569 C 139.782 123.627,138.059 122.612,134.396 121.623 C 129.568 120.320,128.420 120.535,127.632 122.889 C 126.377 126.639,125.121 127.201,122.920 125.000 C 122.150 124.230,121.311 123.600,121.055 123.600 C 120.085 123.600,116.450 126.424,115.545 127.881 L 114.600 129.400 114.480 127.551 C 114.049 120.905,124.905 114.055,133.127 115.785 C 141.280 117.500,145.199 120.136,146.824 125.000 C 147.640 127.440,147.850 127.549,152.200 127.809 C 157.173 128.107,163.910 129.062,166.750 129.872 C 169.415 130.633,169.392 130.666,170.636 124.125 C 170.728 123.643,172.032 121.753,173.533 119.925 C 175.035 118.096,177.531 114.890,179.080 112.800 C 180.629 110.710,182.477 108.460,183.186 107.800 C 184.703 106.388,186.612 102.852,186.122 102.362 C 185.934 102.174,184.345 101.486,182.590 100.833 C 180.836 100.180,178.201 99.194,176.736 98.642 C 171.387 96.629,148.455 96.057,139.800 97.722 C 132.025 99.217,124.955 101.246,119.400 103.576 C 117.200 104.499,115.040 105.404,114.600 105.587 C 110.451 107.312,103.831 108.420,97.428 108.461 C 91.443 108.499,88.355 107.558,83.400 104.184 C 75.179 98.586,66.343 98.436,59.349 103.777 C 54.631 107.379,53.248 104.191,56.211 96.544 C 61.542 82.787,77.036 79.610,96.800 88.221 C 100.530 89.847,102.274 90.269,105.680 90.370 C 110.142 90.503,111.410 89.232,107.849 88.197 C 102.982 86.782,102.920 83.441,107.720 81.213 C 111.690 79.370,117.648 77.563,122.200 76.820 C 123.740 76.569,125.450 76.279,126.000 76.176 C 132.396 74.980,148.779 74.582,153.668 75.503 C 156.228 75.985,161.450 77.588,167.400 79.718 C 171.538 81.200,185.900 85.600,186.598 85.600 C 186.929 85.600,187.200 85.260,187.200 84.844 C 187.200 81.717,190.280 81.394,195.525 83.972 C 197.794 85.088,199.929 86.000,200.270 86.000 C 201.196 86.000,207.451 82.125,210.287 79.793 C 214.009 76.735,220.815 73.569,224.807 73.039 C 225.793 72.908,228.490 72.540,230.800 72.222 C 236.019 71.502,239.490 71.422,248.426 71.813 C 257.498 72.210,263.493 71.326,271.200 68.455 C 273.614 67.555,274.639 67.652,275.700 68.879 M142.700 69.495 C 143.855 69.576,145.745 69.576,146.900 69.495 C 148.055 69.414,147.110 69.348,144.800 69.348 C 142.490 69.348,141.545 69.414,142.700 69.495 M114.600 72.400 C 114.096 72.617,114.022 72.744,114.400 72.744 C 114.730 72.744,115.360 72.589,115.800 72.400 C 116.304 72.183,116.378 72.056,116.000 72.056 C 115.670 72.056,115.040 72.211,114.600 72.400 M285.062 73.300 C 285.164 73.465,285.766 73.600,286.400 73.600 C 287.034 73.600,287.636 73.465,287.738 73.300 C 287.840 73.135,287.238 73.000,286.400 73.000 C 285.562 73.000,284.960 73.135,285.062 73.300 M170.900 74.676 C 171.285 74.776,171.915 74.776,172.300 74.676 C 172.685 74.575,172.370 74.493,171.600 74.493 C 170.830 74.493,170.515 74.575,170.900 74.676 M304.128 76.595 C 304.175 77.062,304.538 77.425,305.005 77.472 C 305.581 77.532,305.614 77.499,305.125 77.352 C 304.753 77.242,304.358 76.847,304.248 76.475 C 304.101 75.986,304.068 76.019,304.128 76.595 M309.000 76.800 L 307.800 77.105 308.876 77.153 C 309.468 77.179,310.064 77.020,310.200 76.800 C 310.336 76.580,310.392 76.421,310.324 76.447 C 310.256 76.473,309.660 76.632,309.000 76.800 M77.100 79.482 C 77.595 79.578,78.405 79.578,78.900 79.482 C 79.395 79.387,78.990 79.309,78.000 79.309 C 77.010 79.309,76.605 79.387,77.100 79.482 M91.800 82.000 C 92.240 82.189,92.870 82.344,93.200 82.344 C 93.578 82.344,93.504 82.217,93.000 82.000 C 92.560 81.811,91.930 81.656,91.600 81.656 C 91.222 81.656,91.296 81.783,91.800 82.000 M54.181 88.100 L 52.600 89.800 54.300 88.219 C 55.881 86.748,56.184 86.400,55.881 86.400 C 55.816 86.400,55.051 87.165,54.181 88.100 M50.801 91.398 C 50.286 91.948,49.939 92.464,50.032 92.546 C 50.124 92.628,50.619 92.178,51.130 91.547 C 52.276 90.135,52.074 90.044,50.801 91.398 M351.301 105.000 C 351.305 105.880,351.387 106.193,351.483 105.695 C 351.579 105.198,351.575 104.478,351.475 104.095 C 351.375 103.713,351.296 104.120,351.301 105.000 M43.029 106.629 C 42.881 107.215,42.838 107.772,42.932 107.866 C 43.027 107.960,43.224 107.558,43.371 106.971 C 43.519 106.385,43.562 105.828,43.468 105.734 C 43.373 105.640,43.176 106.042,43.029 106.629 M351.309 110.400 C 351.309 111.390,351.387 111.795,351.482 111.300 C 351.578 110.805,351.578 109.995,351.482 109.500 C 351.387 109.005,351.309 109.410,351.309 110.400 M42.531 113.800 C 42.533 115.340,42.605 115.921,42.692 115.091 C 42.779 114.261,42.777 113.001,42.689 112.291 C 42.600 111.581,42.529 112.260,42.531 113.800 M345.467 127.467 C 345.104 127.830,345.128 129.508,345.500 129.738 C 345.665 129.840,345.800 129.311,345.800 128.562 C 345.800 127.813,345.785 127.200,345.767 127.200 C 345.748 127.200,345.613 127.320,345.467 127.467 M348.828 137.000 C 348.828 137.220,349.086 137.850,349.400 138.400 C 349.714 138.950,349.972 139.220,349.972 139.000 C 349.972 138.780,349.714 138.150,349.400 137.600 C 349.086 137.050,348.828 136.780,348.828 137.000 M257.862 149.931 C 257.498 150.334,257.200 151.193,257.200 151.840 C 257.200 152.957,257.552 153.445,259.894 155.575 C 261.254 156.812,260.471 158.046,257.459 159.413 C 252.146 161.824,244.634 164.984,241.800 166.001 C 224.920 172.055,214.163 174.315,196.200 175.581 C 178.420 176.833,164.275 176.096,157.800 173.578 C 154.235 172.192,154.331 172.269,154.603 171.000 C 155.370 167.418,154.299 165.747,151.477 166.126 C 147.510 166.658,144.200 170.890,144.200 175.431 C 144.200 179.631,145.722 180.946,147.467 178.252 C 148.930 175.991,150.988 176.004,155.200 178.300 C 156.410 178.960,158.120 179.725,159.000 180.000 C 160.652 180.517,162.000 181.454,162.000 182.084 C 162.000 182.743,165.205 187.174,165.982 187.590 C 168.101 188.725,170.239 187.365,170.980 184.410 L 171.400 182.736 184.600 182.616 C 197.165 182.502,199.666 182.341,210.400 180.955 C 219.964 179.720,232.740 176.549,240.897 173.387 C 241.373 173.202,241.675 173.351,241.853 173.858 C 243.358 178.148,249.904 179.363,250.023 175.374 C 250.060 174.140,251.423 169.214,251.830 168.845 C 252.033 168.660,253.377 167.872,254.815 167.094 C 256.254 166.316,258.414 165.084,259.615 164.357 C 263.264 162.149,268.000 162.987,268.000 165.840 C 268.000 167.050,269.056 169.661,269.716 170.080 C 273.376 172.406,277.389 164.151,274.906 159.400 C 272.363 154.534,259.942 147.634,257.862 149.931 M262.880 151.171 C 268.858 154.273,270.245 155.144,272.164 157.000 C 275.248 159.984,276.012 163.378,274.313 166.546 C 271.972 170.909,269.724 170.881,268.779 166.477 C 267.741 161.634,264.367 161.046,258.000 164.598 C 255.910 165.764,253.390 167.156,252.400 167.692 C 250.857 168.527,250.564 168.889,250.347 170.233 C 249.463 175.702,248.622 177.600,247.082 177.600 C 245.856 177.600,243.455 175.544,242.616 173.777 C 241.861 172.187,242.065 172.195,238.200 173.607 C 222.004 179.525,199.417 182.676,176.000 182.284 L 171.000 182.200 170.400 184.049 C 169.628 186.429,168.953 187.201,167.651 187.194 C 166.162 187.185,165.929 186.972,163.519 183.411 C 161.485 180.405,161.212 180.164,158.758 179.211 C 157.327 178.655,155.324 177.705,154.307 177.100 C 151.470 175.413,148.801 175.528,147.373 177.400 C 145.960 179.252,145.406 179.166,144.800 177.000 C 143.312 171.686,150.606 164.071,153.801 167.602 C 154.448 168.316,154.470 168.575,154.009 169.972 C 153.284 172.169,153.567 172.565,156.730 173.773 C 169.213 178.543,203.913 177.520,225.600 171.743 C 227.690 171.186,229.940 170.589,230.600 170.416 C 232.362 169.954,239.714 167.471,243.400 166.092 C 246.513 164.927,251.174 162.934,258.488 159.641 C 261.736 158.179,261.980 156.728,259.400 154.221 C 255.829 150.750,258.149 148.717,262.880 151.171 M31.029 188.229 C 30.881 188.815,30.838 189.372,30.932 189.466 C 31.027 189.560,31.224 189.158,31.371 188.571 C 31.519 187.985,31.562 187.428,31.468 187.334 C 31.373 187.240,31.176 187.642,31.029 188.229 M30.229 192.229 C 30.081 192.815,30.038 193.372,30.132 193.466 C 30.227 193.560,30.424 193.158,30.571 192.571 C 30.719 191.985,30.762 191.428,30.668 191.334 C 30.573 191.240,30.376 191.642,30.229 192.229 M229.842 200.420 C 221.802 205.788,220.243 206.541,219.083 205.614 C 218.817 205.402,217.952 204.687,217.161 204.026 L 215.722 202.824 213.339 204.512 C 212.028 205.440,210.137 206.875,209.137 207.700 C 207.064 209.409,206.209 209.528,204.104 208.400 C 203.284 207.960,202.275 207.600,201.864 207.600 C 201.453 207.600,200.042 206.501,198.728 205.159 L 196.339 202.718 195.470 203.502 C 194.991 203.933,193.498 205.022,192.151 205.923 C 190.804 206.823,189.326 208.199,188.865 208.980 C 187.921 210.580,186.393 210.873,184.462 209.823 C 180.087 207.444,178.006 206.750,177.116 207.374 C 176.430 207.854,175.614 207.935,173.418 207.741 C 170.323 207.467,169.950 207.313,163.035 203.457 C 156.514 199.820,156.060 199.999,159.028 205.036 C 161.135 208.612,162.642 210.771,166.122 215.200 C 167.073 216.410,168.453 218.300,169.190 219.400 C 170.466 221.305,173.136 224.644,175.110 226.800 C 175.613 227.350,176.954 229.150,178.090 230.800 C 179.225 232.450,180.255 233.890,180.378 234.000 C 180.501 234.110,181.107 234.945,181.725 235.856 C 182.342 236.766,183.497 238.270,184.291 239.197 L 185.734 240.883 186.402 239.998 C 187.223 238.909,188.141 239.343,189.541 241.479 C 190.257 242.571,190.647 242.825,191.344 242.650 C 192.227 242.428,194.800 243.665,194.800 244.311 C 194.800 245.442,201.934 252.153,202.124 251.200 C 202.776 247.930,203.044 247.046,203.422 246.923 C 203.993 246.737,205.310 249.218,206.383 252.500 C 207.328 255.393,207.851 255.740,209.511 254.577 C 210.477 253.901,210.702 252.576,209.900 252.286 C 209.500 252.141,209.500 251.935,209.900 251.258 C 210.175 250.792,210.400 250.063,210.400 249.639 C 210.400 249.214,210.760 248.026,211.200 247.000 C 211.640 245.974,212.000 244.781,212.000 244.351 C 212.000 242.432,214.530 239.102,222.298 230.800 C 223.912 229.075,225.200 226.516,225.200 225.035 C 225.200 222.746,230.500 213.005,234.273 208.360 C 238.342 203.350,238.775 202.713,239.596 200.519 C 240.594 197.851,240.616 196.320,239.669 195.462 C 238.615 194.508,238.948 194.340,229.842 200.420 M239.626 196.448 C 240.565 198.204,238.502 202.560,234.808 206.617 C 230.950 210.856,225.349 221.069,224.430 225.543 C 223.991 227.680,223.475 228.546,221.062 231.200 C 212.786 240.299,212.125 241.267,210.684 246.400 C 210.344 247.610,209.851 249.339,209.588 250.243 C 209.325 251.146,209.224 252.246,209.364 252.686 C 209.638 253.548,208.756 254.585,207.972 254.324 C 207.722 254.241,207.072 252.847,206.529 251.227 C 204.573 245.396,202.964 244.664,201.834 249.093 L 201.376 250.888 198.788 247.954 C 193.881 242.392,193.426 242.000,191.870 242.000 C 190.720 242.000,190.312 241.775,189.755 240.831 C 188.796 239.208,187.385 238.492,186.381 239.119 C 185.957 239.384,185.522 239.600,185.413 239.600 C 185.209 239.600,181.126 234.168,177.896 229.600 C 176.885 228.170,175.416 226.280,174.631 225.400 C 173.846 224.520,172.438 222.742,171.502 221.449 C 170.566 220.156,168.678 217.636,167.307 215.849 C 162.835 210.020,157.691 202.176,158.083 201.784 C 158.259 201.608,158.477 201.719,165.083 205.330 C 168.261 207.068,170.426 208.003,171.283 208.010 C 172.007 208.015,173.319 208.186,174.199 208.390 C 175.395 208.667,176.088 208.615,176.952 208.184 C 178.042 207.641,178.339 207.709,182.250 209.413 C 186.999 211.480,188.031 211.470,189.286 209.344 C 190.591 207.133,196.421 203.335,197.081 204.266 C 198.368 206.082,200.605 207.981,201.750 208.229 C 202.437 208.378,203.639 208.866,204.421 209.313 C 206.199 210.331,207.486 210.060,209.510 208.241 C 212.560 205.501,215.684 203.569,216.159 204.128 C 219.283 207.800,220.161 207.613,229.800 201.219 C 238.835 195.227,238.944 195.174,239.626 196.448 M371.728 210.800 C 371.728 212.230,371.801 212.815,371.889 212.100 C 371.978 211.385,371.978 210.215,371.889 209.500 C 371.801 208.785,371.728 209.370,371.728 210.800 M26.893 212.800 C 26.893 213.570,26.975 213.885,27.076 213.500 C 27.176 213.115,27.176 212.485,27.076 212.100 C 26.975 211.715,26.893 212.030,26.893 212.800 M26.493 216.000 C 26.493 216.770,26.575 217.085,26.676 216.700 C 26.776 216.315,26.776 215.685,26.676 215.300 C 26.575 214.915,26.493 215.230,26.493 216.000 M372.158 225.400 C 372.158 228.480,372.221 229.687,372.297 228.082 C 372.373 226.478,372.373 223.958,372.296 222.482 C 372.219 221.007,372.157 222.320,372.158 225.400 M26.128 227.200 C 26.128 228.630,26.201 229.215,26.289 228.500 C 26.378 227.785,26.378 226.615,26.289 225.900 C 26.201 225.185,26.128 225.770,26.128 227.200 M25.742 233.800 C 25.741 235.780,25.808 236.640,25.892 235.712 C 25.976 234.784,25.977 233.164,25.895 232.112 C 25.812 231.060,25.743 231.820,25.742 233.800 M371.709 248.000 C 371.709 248.990,371.787 249.395,371.882 248.900 C 371.978 248.405,371.978 247.595,371.882 247.100 C 371.787 246.605,371.709 247.010,371.709 248.000 M25.701 251.800 C 25.705 252.680,25.787 252.993,25.883 252.495 C 25.979 251.998,25.975 251.278,25.875 250.895 C 25.775 250.513,25.696 250.920,25.701 251.800 M26.101 255.000 C 26.105 255.880,26.187 256.193,26.283 255.695 C 26.379 255.198,26.375 254.478,26.275 254.095 C 26.175 253.713,26.096 254.120,26.101 255.000 M371.293 254.800 C 371.293 255.570,371.375 255.885,371.476 255.500 C 371.576 255.115,371.576 254.485,371.476 254.100 C 371.375 253.715,371.293 254.030,371.293 254.800 M370.901 258.600 C 370.905 259.480,370.987 259.793,371.083 259.295 C 371.179 258.798,371.175 258.078,371.075 257.695 C 370.975 257.313,370.896 257.720,370.901 258.600 M26.914 265.400 C 26.917 266.500,26.995 266.903,27.087 266.295 C 27.179 265.686,27.177 264.786,27.082 264.295 C 26.987 263.803,26.911 264.300,26.914 265.400 M369.429 269.029 C 369.281 269.615,369.238 270.172,369.332 270.266 C 369.427 270.360,369.624 269.958,369.771 269.371 C 369.919 268.785,369.962 268.228,369.868 268.134 C 369.773 268.040,369.576 268.442,369.429 269.029 M55.400 328.000 C 57.592 330.200,59.475 332.000,59.585 332.000 C 59.695 332.000,57.992 330.200,55.800 328.000 C 53.608 325.800,51.725 324.000,51.615 324.000 C 51.505 324.000,53.208 325.800,55.400 328.000 M347.200 336.600 C 346.228 337.590,345.523 338.400,345.633 338.400 C 345.743 338.400,346.628 337.590,347.600 336.600 C 348.572 335.610,349.277 334.800,349.167 334.800 C 349.057 334.800,348.172 335.610,347.200 336.600 M343.178 340.300 L 341.800 341.800 343.300 340.422 C 344.696 339.138,344.984 338.800,344.678 338.800 C 344.612 338.800,343.937 339.475,343.178 340.300 M311.200 361.600 C 310.430 362.022,309.980 362.366,310.200 362.366 C 310.420 362.366,311.230 362.022,312.000 361.600 C 312.770 361.178,313.220 360.834,313.000 360.834 C 312.780 360.834,311.970 361.178,311.200 361.600 M299.100 367.429 C 297.605 368.240,297.696 368.578,299.200 367.800 C 299.860 367.459,300.400 367.094,300.400 366.990 C 300.400 366.732,300.357 366.747,299.100 367.429 M239.300 385.476 C 239.685 385.576,240.315 385.576,240.700 385.476 C 241.085 385.375,240.770 385.293,240.000 385.293 C 239.230 385.293,238.915 385.375,239.300 385.476 M229.705 386.287 C 230.314 386.379,231.214 386.377,231.705 386.282 C 232.197 386.187,231.700 386.111,230.600 386.114 C 229.500 386.117,229.097 386.195,229.705 386.287 M198.305 387.083 C 198.802 387.179,199.522 387.175,199.905 387.075 C 200.287 386.975,199.880 386.896,199.000 386.901 C 198.120 386.905,197.807 386.987,198.305 387.083 M218.905 387.087 C 219.514 387.179,220.414 387.177,220.905 387.082 C 221.397 386.987,220.900 386.911,219.800 386.914 C 218.700 386.917,218.297 386.995,218.905 387.087 M201.900 387.482 C 202.395 387.578,203.205 387.578,203.700 387.482 C 204.195 387.387,203.790 387.309,202.800 387.309 C 201.810 387.309,201.405 387.387,201.900 387.482 M213.900 387.482 C 214.395 387.578,215.205 387.578,215.700 387.482 C 216.195 387.387,215.790 387.309,214.800 387.309 C 213.810 387.309,213.405 387.387,213.900 387.482 " stroke="none" fill="#4d3022" fill-rule="evenodd"></path></g></svg>