<svg id="svg" version="1.1" xmlns="http://www.w3.org/2000/svg" xmlns:xlink="http://www.w3.org/1999/xlink" width="400" height="266.6666666666667" viewBox="0, 0, 400,266.6666666666667"><g id="svgg"><path id="path0" d="M338.933 37.520 C 334.812 39.370,327.662 43.157,327.200 43.735 C 327.127 43.827,326.506 44.284,325.820 44.750 C 325.134 45.216,324.412 45.759,324.215 45.956 C 324.018 46.153,323.723 46.364,323.560 46.424 C 323.060 46.608,320.857 48.544,318.276 51.067 L 315.820 53.467 314.682 56.933 C 313.219 61.393,312.800 63.574,312.556 68.000 C 312.447 69.980,312.232 71.840,312.080 72.133 C 311.927 72.427,311.719 73.234,311.619 73.927 C 311.518 74.620,311.323 75.257,311.185 75.343 C 311.046 75.428,310.933 75.688,310.933 75.920 C 310.933 76.478,309.833 78.667,309.553 78.667 C 309.432 78.667,309.333 78.796,309.333 78.955 C 309.333 79.389,307.559 81.545,305.827 83.216 C 304.495 84.500,303.602 85.038,300.933 86.161 C 298.043 87.377,289.558 87.789,285.060 86.930 C 284.257 86.777,282.580 86.532,281.333 86.386 C 278.307 86.032,274.467 85.350,270.095 84.389 C 269.121 84.175,268.035 84.000,267.682 84.000 C 267.329 84.000,266.922 83.882,266.777 83.737 C 266.516 83.476,264.970 83.187,260.933 82.645 C 258.675 82.342,252.196 82.526,250.800 82.933 C 250.046 83.153,248.855 83.430,246.178 84.009 C 244.905 84.284,241.867 85.807,241.867 86.170 C 241.867 86.297,241.741 86.400,241.587 86.400 C 240.888 86.400,239.072 88.923,238.318 90.942 C 237.745 92.478,237.712 96.535,238.254 98.933 C 238.859 101.609,239.424 105.487,239.594 108.133 C 239.773 110.912,240.180 113.237,240.621 114.000 C 240.814 114.335,240.963 116.440,241.022 119.668 C 241.119 124.989,241.120 124.983,239.839 129.048 C 239.634 129.697,239.467 130.407,239.467 130.626 C 239.467 131.319,237.824 134.480,236.744 135.867 C 236.173 136.600,235.082 138.055,234.320 139.101 C 232.200 142.008,230.813 143.437,228.245 145.364 C 225.812 147.188,224.823 147.657,220.533 149.016 C 218.156 149.770,217.046 150.000,212.400 150.708 C 209.903 151.089,202.923 150.848,201.200 150.322 C 200.467 150.099,199.147 149.705,198.267 149.448 C 194.351 148.305,190.776 145.678,189.247 142.820 C 188.928 142.223,188.598 141.674,188.514 141.601 C 188.351 141.458,186.464 137.560,186.125 136.667 C 184.723 132.966,184.531 130.683,184.870 121.733 C 185.267 111.278,184.936 110.602,178.933 109.620 C 177.833 109.440,176.393 109.155,175.733 108.987 C 174.313 108.625,174.141 108.653,172.375 109.515 C 169.256 111.039,167.202 114.470,166.406 119.485 C 165.828 123.128,165.625 123.950,164.976 125.297 C 164.606 126.062,164.227 127.042,164.132 127.475 C 164.037 127.907,163.848 128.329,163.713 128.413 C 163.577 128.496,163.466 128.828,163.465 129.149 C 163.464 129.470,163.303 130.041,163.106 130.418 C 162.910 130.794,162.668 131.423,162.570 131.816 C 161.975 134.186,156.787 140.758,154.478 142.068 C 148.460 145.479,144.987 145.419,138.978 141.797 C 135.163 139.497,129.725 138.841,125.785 140.206 C 123.887 140.863,121.294 143.884,118.924 148.200 C 118.582 148.823,118.204 149.333,118.084 149.333 C 117.965 149.333,117.867 149.485,117.867 149.671 C 117.867 150.225,115.568 152.683,114.207 153.584 C 110.168 156.259,105.783 156.006,102.823 152.928 C 100.947 150.975,100.211 150.621,98.464 150.826 C 94.270 151.318,91.083 152.517,86.133 155.467 C 81.286 158.355,80.551 158.620,76.111 159.081 C 73.923 159.307,71.653 159.684,71.067 159.916 C 68.827 160.804,68.104 161.165,67.200 161.846 C 65.275 163.297,63.835 163.695,59.333 164.019 C 57.573 164.146,55.473 164.377,54.667 164.533 C 50.848 165.270,46.142 165.272,44.267 164.537 C 43.900 164.393,42.299 164.208,40.709 164.125 C 39.119 164.042,37.619 163.866,37.376 163.733 C 35.223 162.561,33.602 162.448,29.084 163.153 C 27.651 163.376,24.216 164.791,23.733 165.356 C 23.660 165.442,23.401 165.622,23.157 165.756 C 22.331 166.210,19.733 168.830,19.733 169.208 C 19.733 169.283,19.446 169.799,19.094 170.356 C 16.559 174.373,16.561 180.150,19.101 185.319 C 22.392 192.019,23.761 194.022,26.164 195.660 C 27.602 196.640,27.876 197.205,27.442 198.298 C 25.223 203.885,25.977 213.612,28.864 216.653 C 33.688 221.737,36.580 223.740,41.255 225.238 C 43.185 225.857,49.570 225.942,51.467 225.374 C 56.611 223.835,56.201 223.982,58.990 222.673 C 60.252 222.080,61.341 221.268,62.685 219.916 C 66.058 216.526,66.871 215.218,67.354 212.400 C 67.454 211.813,67.611 211.213,67.702 211.067 C 67.792 210.920,68.004 209.780,68.172 208.533 C 68.760 204.178,68.894 203.943,71.467 202.761 C 74.392 201.417,74.782 201.185,75.584 200.309 C 76.359 199.463,76.548 199.118,77.303 197.175 C 77.887 195.672,78.839 195.238,86.933 192.792 C 91.319 191.467,93.405 190.588,95.416 189.219 C 96.104 188.750,97.747 187.722,99.067 186.934 C 100.387 186.146,101.527 185.421,101.600 185.322 C 101.673 185.223,102.723 184.628,103.932 183.999 C 106.194 182.823,106.263 182.806,113.467 181.718 C 117.378 181.127,123.172 181.314,126.400 182.137 C 128.493 182.670,129.117 182.703,134.533 182.571 C 140.260 182.430,141.521 182.288,149.067 180.924 C 150.313 180.699,152.113 180.395,153.067 180.250 C 154.020 180.105,155.220 179.870,155.733 179.728 C 156.247 179.586,157.267 179.466,158.000 179.462 C 158.733 179.457,159.813 179.333,160.400 179.185 C 160.987 179.037,163.454 178.873,165.884 178.820 C 168.688 178.760,171.028 178.563,172.294 178.282 L 174.287 177.838 176.143 178.677 C 179.551 180.217,187.585 180.132,191.129 178.520 C 192.632 177.836,193.588 177.413,194.933 176.837 C 196.385 176.216,198.813 175.467,199.375 175.467 C 199.701 175.467,200.036 175.357,200.119 175.223 C 200.202 175.089,200.779 174.896,201.401 174.793 C 202.024 174.690,202.653 174.511,202.800 174.393 C 202.947 174.276,203.667 174.057,204.400 173.906 C 207.349 173.298,208.419 173.035,208.810 172.822 C 209.036 172.700,209.725 172.514,210.342 172.410 C 210.959 172.306,211.532 172.111,211.614 171.977 C 211.697 171.843,211.968 171.733,212.216 171.732 C 212.464 171.731,212.984 171.565,213.371 171.362 C 214.325 170.865,217.239 169.867,217.738 169.867 C 217.959 169.867,218.349 169.758,218.604 169.625 C 218.858 169.492,219.847 169.178,220.800 168.928 C 221.753 168.678,223.065 168.306,223.714 168.103 C 224.364 167.900,225.340 167.733,225.884 167.733 C 226.427 167.733,227.516 167.544,228.303 167.312 C 230.188 166.758,234.589 165.386,235.600 165.038 C 236.040 164.886,237.180 164.525,238.133 164.234 C 239.087 163.944,241.307 163.241,243.067 162.672 C 244.827 162.103,246.747 161.551,247.333 161.445 C 247.920 161.339,248.640 161.110,248.933 160.936 C 249.227 160.762,250.187 160.409,251.067 160.153 C 253.052 159.575,254.215 159.185,256.933 158.185 C 258.107 157.753,259.547 157.251,260.133 157.069 C 260.720 156.887,261.560 156.589,262.000 156.407 C 262.440 156.224,263.151 155.931,263.581 155.755 C 264.010 155.579,264.970 155.320,265.714 155.180 C 266.458 155.040,267.667 154.635,268.400 154.281 C 269.133 153.926,270.513 153.436,271.467 153.191 C 272.420 152.946,274.160 152.411,275.333 152.001 C 277.445 151.263,279.291 150.863,282.133 150.528 C 282.940 150.433,284.192 150.186,284.915 149.978 C 285.638 149.770,287.018 149.598,287.982 149.595 C 288.945 149.592,290.693 149.416,291.867 149.204 C 293.040 148.992,294.906 148.814,296.013 148.809 C 297.121 148.804,298.141 148.686,298.280 148.547 C 298.419 148.408,299.193 148.173,300.000 148.025 C 300.807 147.877,302.721 147.502,304.253 147.192 C 310.563 145.913,313.240 148.499,313.639 156.260 C 313.749 158.390,314.025 161.033,314.252 162.133 C 314.480 163.233,314.666 165.193,314.666 166.489 C 314.667 169.226,314.819 169.295,316.226 167.194 C 316.762 166.393,317.515 165.588,317.901 165.404 C 318.286 165.219,318.940 164.618,319.354 164.068 C 319.767 163.517,320.171 163.007,320.253 162.933 C 321.148 162.124,322.989 159.548,323.540 158.335 C 324.518 156.181,326.400 155.537,326.400 157.357 C 326.400 157.627,326.629 157.971,326.910 158.121 C 327.444 158.407,327.357 158.520,329.758 154.419 C 330.064 153.895,330.814 152.937,331.424 152.289 C 332.330 151.328,332.533 150.923,332.533 150.084 C 332.533 149.447,332.787 148.654,333.200 148.000 C 333.567 147.419,333.867 146.865,333.867 146.768 C 333.867 146.381,336.912 140.144,337.400 139.533 C 337.546 139.350,337.918 139.200,338.226 139.200 C 338.534 139.200,339.570 138.907,340.527 138.550 C 341.484 138.192,343.167 137.572,344.267 137.173 C 348.028 135.805,350.372 133.714,350.596 131.527 C 350.668 130.834,351.013 129.394,351.363 128.328 C 351.713 127.261,352.000 126.099,352.000 125.745 C 352.000 125.391,352.115 124.800,352.255 124.432 C 352.395 124.063,352.653 122.705,352.829 121.414 C 353.004 120.123,353.366 118.587,353.631 118.000 C 353.897 117.413,354.243 116.347,354.400 115.631 C 354.557 114.914,354.993 113.654,355.369 112.831 C 356.578 110.181,356.747 109.754,357.064 108.533 C 357.265 107.763,357.783 106.904,358.513 106.133 C 359.896 104.675,361.299 102.390,361.515 101.245 C 361.603 100.780,361.767 100.280,361.878 100.133 C 361.990 99.987,362.340 98.967,362.657 97.867 C 362.973 96.767,363.326 95.687,363.441 95.467 C 364.941 92.603,364.849 58.701,363.327 53.327 C 362.349 49.874,361.988 48.804,361.800 48.802 C 361.690 48.801,361.600 48.668,361.600 48.507 C 361.600 47.378,359.916 44.911,357.231 42.106 C 354.851 39.618,355.471 39.946,349.714 38.126 C 349.264 37.983,348.424 37.861,347.848 37.855 C 347.271 37.849,346.320 37.670,345.733 37.459 C 344.272 36.932,340.160 36.969,338.933 37.520 M340.438 98.269 C 340.530 98.509,340.212 99.090,339.649 99.715 C 337.632 101.947,338.323 105.238,341.194 107.075 C 343.538 108.574,343.673 109.212,341.842 110.146 C 339.054 111.568,335.146 111.445,333.482 109.881 C 331.787 108.289,330.307 102.839,331.110 101.146 C 332.050 99.166,339.858 96.758,340.438 98.269 " stroke="none" fill="#0d448c" fill-rule="evenodd"></path><path id="path1" d="M272.933 12.688 C 272.493 12.749,271.233 12.922,270.133 13.074 C 264.737 13.816,257.898 15.938,257.185 17.092 C 257.102 17.225,256.854 17.333,256.632 17.333 C 256.411 17.333,255.728 17.674,255.115 18.091 C 251.797 20.344,246.997 21.600,241.701 21.600 C 239.404 21.600,238.226 22.069,237.971 23.086 C 237.788 23.817,238.686 25.067,239.394 25.067 C 239.596 25.067,240.196 25.362,240.727 25.722 L 241.692 26.378 241.046 26.623 C 240.691 26.758,239.831 27.061,239.137 27.297 C 238.442 27.532,237.662 27.838,237.403 27.976 C 236.755 28.322,233.614 29.511,231.348 30.267 C 227.243 31.637,220.709 34.598,217.424 36.576 C 216.521 37.120,215.261 37.817,214.624 38.125 C 211.388 39.691,206.394 42.496,204.326 43.909 C 200.220 46.716,194.516 50.869,193.122 52.068 C 191.217 53.706,186.414 57.907,186.024 58.275 C 185.864 58.426,184.533 59.558,183.067 60.789 C 174.720 67.798,170.725 71.899,169.709 74.504 C 169.255 75.666,169.040 75.879,167.733 76.460 C 165.538 77.436,164.533 77.969,164.533 78.155 C 164.533 78.248,163.087 78.961,161.319 79.740 C 157.944 81.227,157.210 81.857,157.968 82.616 C 158.351 82.998,158.571 82.972,160.421 82.320 C 161.866 81.810,162.580 81.677,162.893 81.860 C 163.271 82.081,163.275 82.118,162.920 82.125 C 162.572 82.132,159.857 83.830,156.667 86.036 C 156.227 86.340,154.727 87.345,153.333 88.269 C 150.601 90.082,150.227 90.349,148.000 92.082 C 147.193 92.709,144.502 94.762,142.020 96.644 C 139.537 98.525,136.068 101.340,134.311 102.899 C 132.555 104.458,130.626 106.147,130.025 106.652 C 129.425 107.158,127.433 109.066,125.600 110.893 C 123.767 112.720,121.367 114.965,120.267 115.883 C 119.167 116.801,117.348 118.493,116.225 119.643 C 115.103 120.792,113.213 122.684,112.025 123.845 C 109.638 126.181,109.482 126.627,110.667 127.733 C 111.688 128.687,111.680 128.752,110.377 130.013 C 109.381 130.976,108.764 132.017,106.670 136.267 C 105.368 138.911,105.423 141.067,106.793 141.067 C 107.164 141.067,107.467 140.947,107.467 140.800 C 107.467 140.653,107.931 140.533,108.498 140.533 C 109.699 140.533,109.858 140.987,109.864 144.422 C 109.865 145.461,109.950 146.394,110.052 146.496 C 110.383 146.828,112.131 144.359,114.303 140.493 C 115.986 137.496,120.245 133.904,123.375 132.842 C 126.743 131.699,136.578 131.223,137.360 132.166 C 137.528 132.368,137.822 132.533,138.014 132.533 C 138.206 132.533,138.761 132.782,139.248 133.087 C 146.790 137.801,148.722 137.903,152.823 133.803 C 154.573 132.052,155.037 131.155,156.852 126.000 C 158.225 122.102,158.418 121.432,158.929 118.800 C 160.787 109.235,165.971 103.301,173.845 101.728 C 176.166 101.265,176.513 101.288,180.533 102.175 C 181.193 102.320,182.273 102.527,182.933 102.635 C 183.593 102.743,184.373 102.955,184.667 103.106 C 184.960 103.257,185.895 103.717,186.745 104.129 C 191.429 106.399,193.909 113.354,192.515 120.314 C 189.146 137.133,193.623 144.403,207.333 144.377 C 216.458 144.359,222.950 141.882,227.175 136.805 C 232.816 130.026,234.836 122.327,232.937 114.843 C 232.573 113.406,232.204 111.069,232.118 109.649 C 232.031 108.229,231.790 106.184,231.580 105.105 C 231.371 104.026,231.200 102.668,231.200 102.087 C 231.200 101.507,231.077 100.802,230.927 100.522 C 230.564 99.842,230.561 91.248,230.925 90.811 C 231.076 90.628,231.278 89.730,231.374 88.815 C 231.480 87.800,231.688 87.098,231.907 87.014 C 232.105 86.938,232.267 86.670,232.267 86.417 C 232.267 85.311,238.735 79.200,239.906 79.200 C 240.008 79.200,240.281 79.030,240.512 78.823 C 241.692 77.766,248.462 76.240,254.274 75.720 C 258.794 75.316,260.769 75.513,268.933 77.180 C 273.966 78.208,276.369 78.664,281.067 79.484 C 298.862 82.587,304.629 79.512,305.604 66.400 C 305.849 63.107,306.373 59.934,307.057 57.600 C 307.251 56.940,307.611 55.440,307.858 54.267 C 308.841 49.596,310.767 46.674,315.542 42.611 C 316.454 41.835,317.260 41.140,317.333 41.067 C 317.809 40.591,320.611 38.353,321.665 37.608 C 324.109 35.878,324.099 35.135,321.578 30.844 C 316.662 22.481,308.734 17.486,296.933 15.316 C 295.349 15.025,293.455 14.454,292.267 13.911 C 288.699 12.278,287.291 12.477,286.622 14.710 C 286.255 15.936,286.099 15.952,284.094 14.965 C 280.216 13.055,276.203 12.236,272.933 12.688 " stroke="none" fill="#c4051d" fill-rule="evenodd"></path><path id="path2" d="M0.000 133.333 L 0.000 266.667 200.000 266.667 L 400.000 266.667 400.000 133.333 L 400.000 0.000 200.000 0.000 L 0.000 0.000 0.000 133.333 M280.498 12.925 C 281.139 13.160,282.399 13.696,283.298 14.116 C 285.471 15.132,285.980 15.206,286.078 14.524 C 286.334 12.731,288.817 11.798,290.771 12.760 C 291.363 13.052,293.364 13.911,294.267 14.262 C 294.765 14.455,297.035 14.914,300.133 15.447 C 300.867 15.573,301.767 15.795,302.133 15.941 C 302.500 16.086,303.700 16.476,304.800 16.807 C 305.900 17.139,306.914 17.512,307.053 17.638 C 307.193 17.764,307.459 17.867,307.645 17.867 C 310.410 17.867,319.597 26.258,322.333 31.282 C 324.772 35.760,324.744 35.881,320.533 39.067 C 317.919 41.045,314.655 43.773,313.885 44.622 C 313.508 45.037,312.680 45.937,312.045 46.622 C 310.086 48.732,309.082 50.751,308.374 54.000 C 308.183 54.880,307.832 56.320,307.595 57.200 C 306.749 60.338,306.391 62.586,306.132 66.377 C 305.988 68.491,305.762 70.591,305.630 71.044 C 304.808 73.867,304.377 74.918,303.654 75.867 C 302.319 77.617,301.260 78.686,300.173 79.383 C 299.191 80.012,298.587 80.170,294.667 80.822 C 292.815 81.130,287.632 80.968,285.600 80.538 C 284.940 80.399,283.380 80.164,282.133 80.015 C 279.844 79.743,277.370 79.322,273.467 78.542 C 272.293 78.308,270.733 78.008,270.000 77.876 C 269.267 77.744,267.527 77.378,266.133 77.062 C 259.368 75.529,254.059 75.686,244.800 77.694 C 240.522 78.622,232.800 84.277,232.800 86.482 C 232.800 86.694,232.616 87.021,232.391 87.207 C 232.166 87.394,232.028 87.679,232.085 87.840 C 232.141 88.001,231.945 88.973,231.650 90.000 C 230.977 92.338,230.943 97.820,231.577 101.600 C 231.811 102.993,232.126 105.333,232.277 106.800 C 232.807 111.941,233.116 114.010,233.529 115.178 C 233.828 116.025,233.948 117.411,233.954 120.111 C 233.964 123.897,233.944 124.021,232.617 128.509 C 230.804 134.641,224.513 141.252,218.740 143.095 C 206.022 147.154,195.956 145.007,192.254 137.447 L 191.200 135.294 191.200 129.939 C 191.200 125.314,191.291 124.119,191.867 121.174 C 192.640 117.216,192.680 116.041,192.131 113.409 C 191.724 111.457,191.645 111.204,190.764 109.067 C 189.916 107.009,187.837 104.902,185.943 104.181 C 185.241 103.914,184.471 103.592,184.233 103.466 C 183.994 103.340,183.334 103.156,182.766 103.059 C 182.198 102.961,181.026 102.705,180.161 102.490 C 174.698 101.131,169.137 102.855,164.775 107.260 C 162.999 109.053,161.067 111.991,161.067 112.897 C 161.067 113.020,160.899 113.498,160.694 113.960 C 160.206 115.059,159.750 116.816,159.441 118.794 C 159.196 120.352,158.938 121.316,158.261 123.200 C 158.077 123.713,157.490 125.446,156.958 127.050 C 155.779 130.602,154.501 132.953,153.094 134.159 C 148.475 138.118,146.824 138.306,142.229 135.394 C 140.379 134.221,138.546 133.204,137.867 132.973 C 134.431 131.805,127.064 131.965,123.333 133.288 C 121.180 134.051,120.534 134.463,118.267 136.514 C 117.062 137.604,113.867 141.580,113.867 141.988 C 113.867 142.422,111.528 145.992,110.895 146.525 C 109.635 147.585,109.304 147.432,109.318 145.800 C 109.331 144.458,109.183 142.948,108.915 141.667 C 108.770 140.973,107.968 140.862,107.467 141.467 C 106.701 142.389,105.066 141.180,105.067 139.692 C 105.067 138.181,108.266 131.637,109.745 130.122 C 110.716 129.127,110.906 128.435,110.306 128.080 C 108.871 127.233,109.278 125.777,111.546 123.646 C 115.866 119.588,120.615 115.042,123.572 112.133 C 125.362 110.373,127.775 108.093,128.936 107.067 C 130.097 106.040,131.233 105.020,131.462 104.800 C 131.690 104.580,132.649 103.740,133.593 102.933 C 134.538 102.127,135.555 101.218,135.855 100.913 C 136.421 100.338,140.115 97.460,141.873 96.224 C 142.428 95.834,143.531 94.986,144.325 94.340 C 147.188 92.007,152.978 87.806,155.041 86.564 C 159.106 84.117,160.011 83.200,158.365 83.200 C 156.646 83.200,156.871 81.393,158.702 80.492 C 160.875 79.423,163.124 78.400,163.303 78.400 C 163.410 78.400,163.941 78.058,164.482 77.640 C 165.024 77.222,166.067 76.665,166.800 76.403 C 168.568 75.769,168.689 75.653,169.101 74.189 C 169.608 72.382,175.590 66.413,183.182 60.136 C 183.539 59.841,184.508 59.000,185.335 58.267 C 186.163 57.533,187.601 56.273,188.530 55.467 C 189.460 54.660,190.651 53.608,191.177 53.128 C 193.258 51.231,205.749 42.133,206.273 42.133 C 206.349 42.133,206.918 41.812,207.539 41.420 C 208.159 41.027,209.747 40.143,211.067 39.455 C 214.975 37.417,217.331 36.158,219.699 34.841 C 220.927 34.159,222.007 33.600,222.099 33.600 C 222.191 33.600,222.987 33.252,223.867 32.826 C 224.747 32.401,226.007 31.842,226.667 31.585 C 227.327 31.327,228.467 30.852,229.200 30.528 C 229.933 30.204,230.953 29.862,231.467 29.768 C 232.289 29.618,233.030 29.329,234.730 28.494 C 234.984 28.369,235.344 28.266,235.530 28.265 C 235.715 28.264,236.167 28.108,236.533 27.919 C 236.900 27.730,237.948 27.297,238.863 26.956 C 240.740 26.258,240.753 26.154,239.061 25.359 C 235.342 23.611,237.322 21.304,242.786 21.018 C 246.236 20.837,249.037 20.387,250.484 19.781 C 250.897 19.608,251.349 19.467,251.489 19.467 C 251.629 19.467,252.431 19.089,253.272 18.628 C 256.089 17.082,260.676 14.762,261.341 14.547 C 262.962 14.024,269.050 12.686,270.933 12.440 C 272.974 12.173,279.326 12.495,280.498 12.925 M344.933 36.421 C 345.227 36.489,346.487 36.724,347.733 36.945 C 350.361 37.409,353.341 38.247,354.639 38.887 C 356.261 39.687,360.713 44.440,361.595 46.313 C 363.579 50.530,364.027 51.821,364.631 55.067 C 365.141 57.808,365.666 71.403,365.471 76.800 C 365.388 79.073,365.271 83.583,365.210 86.822 C 365.097 92.827,365.027 93.562,364.410 95.200 C 364.217 95.713,363.840 96.853,363.573 97.733 C 363.306 98.613,363.007 99.453,362.908 99.600 C 362.809 99.747,362.645 100.258,362.542 100.736 C 362.360 101.590,361.657 103.205,361.354 103.467 C 361.269 103.540,360.980 104.033,360.712 104.562 C 360.444 105.091,359.932 105.811,359.576 106.162 C 359.219 106.513,358.689 107.033,358.397 107.317 C 358.105 107.601,357.867 108.164,357.867 108.568 C 357.867 108.972,357.378 110.341,356.780 111.611 C 356.182 112.880,355.456 114.827,355.165 115.936 C 354.875 117.045,354.464 118.200,354.252 118.502 C 354.040 118.805,353.867 119.405,353.867 119.836 C 353.867 121.549,352.463 128.353,351.988 128.940 C 351.867 129.090,351.689 129.870,351.593 130.673 C 351.285 133.247,350.695 134.134,347.867 136.280 C 346.369 137.416,341.358 139.432,338.360 140.105 C 337.921 140.203,337.542 140.542,337.360 140.998 C 337.198 141.403,336.842 142.100,336.568 142.548 C 336.293 142.996,335.978 143.656,335.867 144.015 C 335.755 144.373,335.200 145.640,334.632 146.830 C 334.064 148.019,333.600 149.281,333.600 149.634 C 333.600 150.484,332.670 152.224,331.736 153.123 C 331.053 153.780,329.781 155.720,328.831 157.555 C 327.985 159.189,326.626 159.800,326.278 158.702 C 325.792 157.170,324.000 157.499,324.000 159.120 C 324.000 159.481,322.897 161.156,322.278 161.733 C 322.121 161.880,321.354 162.810,320.573 163.800 C 319.793 164.790,319.059 165.600,318.942 165.600 C 318.540 165.600,317.027 167.337,316.095 168.867 C 315.371 170.056,315.016 170.400,314.514 170.400 C 313.739 170.400,313.815 170.766,313.714 166.533 C 313.668 164.627,313.444 162.189,313.215 161.116 C 312.987 160.043,312.798 158.063,312.796 156.716 C 312.783 149.033,309.815 146.455,303.067 148.266 C 299.617 149.192,298.290 149.386,286.589 150.671 C 285.446 150.797,284.126 151.017,283.655 151.160 C 283.185 151.304,282.026 151.500,281.079 151.597 C 279.245 151.784,276.308 152.458,275.867 152.793 C 275.499 153.073,273.150 153.786,271.915 153.993 C 271.355 154.087,270.215 154.447,269.382 154.792 C 268.549 155.138,266.547 155.861,264.933 156.398 C 258.838 158.430,257.948 158.737,256.000 159.474 C 254.900 159.891,253.280 160.429,252.400 160.670 C 251.520 160.910,250.560 161.220,250.267 161.358 C 249.552 161.693,248.180 162.108,246.400 162.527 C 245.593 162.717,244.213 163.120,243.333 163.423 C 239.872 164.616,235.033 166.182,234.400 166.314 C 234.033 166.391,233.013 166.733,232.133 167.073 C 231.253 167.414,229.093 167.953,227.333 168.272 C 225.573 168.590,223.053 169.188,221.733 169.599 C 220.413 170.011,218.493 170.549,217.467 170.796 C 216.440 171.042,214.760 171.580,213.733 171.991 C 212.707 172.402,211.207 172.932,210.400 173.169 C 209.593 173.406,208.359 173.779,207.657 174.000 C 206.956 174.220,206.198 174.400,205.974 174.400 C 205.750 174.400,204.944 174.587,204.183 174.816 C 203.423 175.045,202.140 175.426,201.333 175.662 C 198.106 176.609,194.968 177.726,193.123 178.584 C 187.810 181.055,180.012 181.372,175.405 179.304 C 174.513 178.903,174.142 178.893,171.805 179.203 C 170.372 179.394,167.040 179.635,164.400 179.740 C 161.760 179.845,158.580 180.117,157.333 180.346 C 136.530 184.156,131.003 184.523,124.424 182.530 C 122.659 181.995,115.608 181.987,113.283 182.517 C 112.357 182.728,110.700 182.982,109.600 183.081 C 107.085 183.307,104.779 184.203,101.808 186.109 C 100.529 186.929,98.620 188.140,97.567 188.800 C 96.514 189.460,95.515 190.133,95.349 190.296 C 94.912 190.723,91.256 192.400,90.000 192.749 C 88.075 193.285,80.950 195.493,80.165 195.797 C 79.036 196.233,77.867 197.304,77.867 197.901 C 77.867 198.749,76.901 200.390,75.866 201.298 C 74.945 202.106,74.247 202.482,71.423 203.686 C 69.898 204.336,69.557 204.908,69.167 207.467 C 68.479 211.972,68.046 213.793,67.307 215.288 C 67.101 215.703,66.933 216.216,66.933 216.426 C 66.933 217.778,60.496 223.086,57.333 224.341 C 49.707 227.368,43.955 227.627,38.776 225.177 C 38.027 224.823,37.326 224.533,37.216 224.533 C 36.585 224.533,31.607 220.852,30.171 219.324 C 26.661 215.589,25.913 213.696,25.162 206.667 C 24.989 205.049,25.644 200.598,26.278 199.080 C 26.894 197.606,26.763 197.285,24.934 195.787 C 23.117 194.300,22.170 193.084,20.943 190.667 C 20.534 189.860,19.984 188.780,19.720 188.267 C 16.608 182.195,16.448 181.761,16.328 179.067 C 16.269 177.747,16.358 176.127,16.526 175.467 C 16.693 174.807,16.945 173.813,17.085 173.258 C 17.225 172.703,17.444 172.043,17.571 171.791 C 17.698 171.539,18.007 170.857,18.257 170.276 C 20.815 164.339,31.172 160.146,36.958 162.705 C 37.888 163.116,38.739 163.268,39.992 163.246 C 40.950 163.229,43.200 163.512,44.992 163.874 C 48.775 164.639,49.428 164.666,51.901 164.154 C 54.001 163.720,57.718 163.280,61.200 163.053 C 63.940 162.875,65.150 162.451,67.138 160.973 C 69.290 159.374,72.479 158.410,76.250 158.220 C 79.603 158.050,82.112 157.118,85.867 154.648 C 89.686 152.134,93.605 150.688,98.554 149.966 C 100.056 149.747,102.292 150.821,103.562 152.371 C 106.971 156.532,114.713 154.350,117.876 148.337 C 120.331 143.670,123.571 140.070,126.002 139.308 C 129.243 138.291,134.531 138.707,137.496 140.211 C 138.066 140.500,139.598 141.283,140.899 141.950 C 146.782 144.966,151.405 144.160,156.474 139.235 C 159.805 135.999,161.788 132.758,162.939 128.667 C 163.221 127.662,163.925 125.741,164.234 125.130 C 164.745 124.122,165.336 121.951,165.341 121.067 C 165.344 120.553,165.471 119.653,165.624 119.067 C 165.777 118.480,166.000 117.540,166.119 116.979 C 166.239 116.417,166.471 115.823,166.635 115.659 C 166.799 115.494,166.933 115.197,166.933 114.998 C 166.933 113.430,169.461 110.157,171.451 109.148 C 171.973 108.883,172.467 108.578,172.548 108.469 C 172.891 108.010,175.096 107.950,176.107 108.372 C 176.671 108.607,177.751 108.800,178.508 108.800 C 180.450 108.800,183.570 109.938,184.692 111.056 C 186.008 112.365,186.374 116.415,185.611 121.203 C 184.947 125.371,185.477 132.625,186.694 136.000 C 189.146 142.806,192.566 146.594,198.000 148.527 C 201.984 149.944,208.224 150.631,211.486 150.012 C 212.681 149.785,214.071 149.600,214.575 149.600 C 215.555 149.600,218.799 148.904,219.475 148.549 C 219.700 148.431,220.296 148.244,220.800 148.133 C 221.304 148.023,221.900 147.838,222.125 147.723 C 222.349 147.608,223.086 147.320,223.761 147.083 C 226.730 146.041,229.877 143.429,233.100 139.333 C 237.551 133.675,238.257 132.433,239.161 128.667 C 239.302 128.080,239.668 126.651,239.975 125.491 C 240.904 121.981,240.697 117.144,239.447 113.158 C 239.302 112.695,239.074 111.015,238.941 109.424 C 238.808 107.834,238.516 105.333,238.292 103.867 C 237.632 99.550,237.102 96.201,236.917 95.177 C 236.658 93.741,237.522 90.243,238.527 88.665 C 240.449 85.647,244.768 82.933,247.652 82.933 C 248.009 82.933,248.549 82.801,248.852 82.639 C 250.725 81.637,263.481 81.554,265.067 82.533 C 265.377 82.725,271.926 84.088,274.533 84.503 C 275.267 84.620,276.587 84.850,277.467 85.015 C 285.949 86.607,292.453 87.170,295.067 86.539 C 295.947 86.326,297.060 86.148,297.542 86.143 C 298.586 86.131,301.176 85.289,303.183 84.308 C 305.731 83.063,309.903 77.685,310.558 74.800 C 310.658 74.360,310.827 73.880,310.934 73.733 C 311.041 73.587,311.202 72.807,311.293 72.000 C 311.384 71.193,311.576 69.693,311.720 68.667 C 311.865 67.640,311.986 66.118,311.991 65.284 C 311.999 63.870,312.633 60.671,313.311 58.620 C 313.472 58.133,313.851 56.962,314.154 56.019 C 315.183 52.813,315.458 52.452,320.000 48.347 C 328.463 40.697,339.850 35.251,344.933 36.421 M335.867 99.160 C 331.575 100.555,331.224 101.273,332.455 106.133 C 333.419 109.940,336.248 111.306,340.249 109.897 C 342.295 109.176,342.419 108.755,340.867 107.800 C 337.941 105.999,336.868 102.440,338.456 99.800 L 338.977 98.933 337.688 98.960 C 336.980 98.975,336.160 99.065,335.867 99.160 " stroke="none" fill="#fbfbfb" fill-rule="evenodd"></path><path id="path3" d="M270.933 12.440 C 269.050 12.686,262.962 14.024,261.341 14.547 C 260.676 14.762,256.089 17.082,253.272 18.628 C 252.431 19.089,251.629 19.467,251.489 19.467 C 251.349 19.467,250.897 19.608,250.484 19.781 C 249.037 20.387,246.236 20.837,242.786 21.018 C 237.322 21.304,235.342 23.611,239.061 25.359 C 240.753 26.154,240.740 26.258,238.863 26.956 C 237.948 27.297,236.900 27.730,236.533 27.919 C 236.167 28.108,235.715 28.264,235.530 28.265 C 235.344 28.266,234.984 28.369,234.730 28.494 C 233.030 29.329,232.289 29.618,231.467 29.768 C 230.953 29.862,229.933 30.204,229.200 30.528 C 228.467 30.852,227.327 31.327,226.667 31.585 C 226.007 31.842,224.747 32.401,223.867 32.826 C 222.987 33.252,222.191 33.600,222.099 33.600 C 222.007 33.600,220.927 34.159,219.699 34.841 C 217.331 36.158,214.975 37.417,211.067 39.455 C 209.747 40.143,208.159 41.027,207.539 41.420 C 206.918 41.812,206.349 42.133,206.273 42.133 C 205.749 42.133,193.258 51.231,191.177 53.128 C 190.651 53.608,189.460 54.660,188.530 55.467 C 187.601 56.273,186.163 57.533,185.335 58.267 C 184.508 59.000,183.539 59.841,183.182 60.136 C 175.590 66.413,169.608 72.382,169.101 74.189 C 168.689 75.653,168.568 75.769,166.800 76.403 C 166.067 76.665,165.024 77.222,164.482 77.640 C 163.941 78.058,163.410 78.400,163.303 78.400 C 163.124 78.400,160.875 79.423,158.702 80.492 C 156.871 81.393,156.646 83.200,158.365 83.200 C 160.011 83.200,159.106 84.117,155.041 86.564 C 152.978 87.806,147.188 92.007,144.325 94.340 C 143.531 94.986,142.428 95.834,141.873 96.224 C 140.115 97.460,136.421 100.338,135.855 100.913 C 135.555 101.218,134.538 102.127,133.593 102.933 C 132.649 103.740,131.690 104.580,131.462 104.800 C 131.233 105.020,130.097 106.040,128.936 107.067 C 127.775 108.093,125.362 110.373,123.572 112.133 C 120.615 115.042,115.866 119.588,111.546 123.646 C 109.278 125.777,108.871 127.233,110.306 128.080 C 110.906 128.435,110.716 129.127,109.745 130.122 C 108.266 131.637,105.067 138.181,105.067 139.692 C 105.066 141.180,106.701 142.389,107.467 141.467 C 107.968 140.862,108.770 140.973,108.915 141.667 C 109.183 142.948,109.331 144.458,109.318 145.800 C 109.304 147.432,109.635 147.585,110.895 146.525 C 111.528 145.992,113.867 142.422,113.867 141.988 C 113.867 141.580,117.062 137.604,118.267 136.514 C 120.534 134.463,121.180 134.051,123.333 133.288 C 127.064 131.965,134.431 131.805,137.867 132.973 C 138.546 133.204,140.379 134.221,142.229 135.394 C 146.824 138.306,148.475 138.118,153.094 134.159 C 154.501 132.953,155.779 130.602,156.958 127.050 C 157.490 125.446,158.077 123.713,158.261 123.200 C 158.938 121.316,159.196 120.352,159.441 118.794 C 159.750 116.816,160.206 115.059,160.694 113.960 C 160.899 113.498,161.067 113.020,161.067 112.897 C 161.067 111.991,162.999 109.053,164.775 107.260 C 169.137 102.855,174.698 101.131,180.161 102.490 C 181.026 102.705,182.198 102.961,182.766 103.059 C 183.334 103.156,183.994 103.340,184.233 103.466 C 184.471 103.592,185.241 103.914,185.943 104.181 C 187.837 104.902,189.916 107.009,190.764 109.067 C 191.645 111.204,191.724 111.457,192.131 113.409 C 192.680 116.041,192.640 117.216,191.867 121.174 C 191.291 124.119,191.200 125.314,191.200 129.939 L 191.200 135.294 192.254 137.447 C 195.956 145.007,206.022 147.154,218.740 143.095 C 224.513 141.252,230.804 134.641,232.617 128.509 C 233.944 124.021,233.964 123.897,233.954 120.111 C 233.948 117.411,233.828 116.025,233.529 115.178 C 233.116 114.010,232.807 111.941,232.277 106.800 C 232.126 105.333,231.811 102.993,231.577 101.600 C 230.943 97.820,230.977 92.338,231.650 90.000 C 231.945 88.973,232.141 88.001,232.085 87.840 C 232.028 87.679,232.166 87.394,232.391 87.207 C 232.616 87.021,232.800 86.694,232.800 86.482 C 232.800 84.277,240.522 78.622,244.800 77.694 C 254.059 75.686,259.368 75.529,266.133 77.062 C 267.527 77.378,269.267 77.744,270.000 77.876 C 270.733 78.008,272.293 78.308,273.467 78.542 C 277.370 79.322,279.844 79.743,282.133 80.015 C 283.380 80.164,284.940 80.399,285.600 80.538 C 290.072 81.483,297.858 80.866,300.173 79.383 C 301.260 78.686,302.319 77.617,303.654 75.867 C 304.377 74.918,304.808 73.867,305.630 71.044 C 305.762 70.591,305.988 68.491,306.132 66.377 C 306.391 62.586,306.749 60.338,307.595 57.200 C 307.832 56.320,308.183 54.880,308.374 54.000 C 309.082 50.751,310.086 48.732,312.045 46.622 C 312.680 45.937,313.508 45.037,313.885 44.622 C 314.655 43.773,317.919 41.045,320.533 39.067 C 324.744 35.881,324.772 35.760,322.333 31.282 C 319.597 26.258,310.410 17.867,307.645 17.867 C 307.459 17.867,307.193 17.764,307.053 17.638 C 306.914 17.512,305.900 17.139,304.800 16.807 C 303.700 16.476,302.500 16.086,302.133 15.941 C 301.767 15.795,300.867 15.573,300.133 15.447 C 297.035 14.914,294.765 14.455,294.267 14.262 C 293.364 13.911,291.363 13.052,290.771 12.760 C 288.817 11.798,286.334 12.731,286.078 14.524 C 285.980 15.206,285.471 15.132,283.298 14.116 C 280.138 12.640,279.517 12.502,275.600 12.408 C 273.547 12.358,271.447 12.372,270.933 12.440 M280.556 13.488 C 281.644 13.877,283.236 14.542,284.094 14.965 C 286.099 15.952,286.255 15.936,286.622 14.710 C 287.291 12.477,288.699 12.278,292.267 13.911 C 293.455 14.454,295.349 15.025,296.933 15.316 C 308.734 17.486,316.662 22.481,321.578 30.844 C 324.099 35.135,324.109 35.878,321.665 37.608 C 320.611 38.353,317.809 40.591,317.333 41.067 C 317.260 41.140,316.454 41.835,315.542 42.611 C 310.767 46.674,308.841 49.596,307.858 54.267 C 307.611 55.440,307.251 56.940,307.057 57.600 C 306.373 59.934,305.849 63.107,305.604 66.400 C 304.629 79.512,298.862 82.587,281.067 79.484 C 276.369 78.664,273.966 78.208,268.933 77.180 C 260.769 75.513,258.794 75.316,254.274 75.720 C 248.462 76.240,241.692 77.766,240.512 78.823 C 240.281 79.030,240.008 79.200,239.906 79.200 C 238.731 79.200,232.267 85.350,232.267 86.468 C 232.267 86.692,232.104 86.939,231.906 87.015 C 231.680 87.101,231.476 87.830,231.359 88.965 C 231.257 89.962,231.055 90.920,230.911 91.094 C 230.556 91.522,230.572 100.012,230.928 100.368 C 231.078 100.518,231.200 101.203,231.200 101.891 C 231.200 102.580,231.371 104.026,231.580 105.105 C 231.790 106.184,232.031 108.229,232.118 109.649 C 232.204 111.069,232.573 113.406,232.937 114.843 C 234.836 122.327,232.816 130.026,227.175 136.805 C 222.950 141.882,216.458 144.359,207.333 144.377 C 193.623 144.403,189.146 137.133,192.515 120.314 C 193.197 116.910,193.204 115.794,192.557 113.150 C 191.315 108.069,189.699 105.560,186.745 104.129 C 185.895 103.717,184.960 103.257,184.667 103.106 C 184.373 102.955,183.593 102.743,182.933 102.635 C 182.273 102.527,181.193 102.320,180.533 102.175 C 176.513 101.288,176.166 101.265,173.845 101.728 C 165.971 103.301,160.787 109.235,158.929 118.800 C 158.418 121.432,158.225 122.102,156.852 126.000 C 155.045 131.130,155.102 131.013,153.364 133.200 C 152.461 134.337,149.619 136.354,148.314 136.784 C 146.624 137.342,145.007 136.683,139.248 133.086 C 138.761 132.782,138.206 132.533,138.014 132.533 C 137.822 132.533,137.540 132.382,137.387 132.198 C 136.605 131.255,126.708 131.711,123.375 132.842 C 120.245 133.904,115.986 137.496,114.303 140.493 C 111.948 144.686,110.246 147.030,110.024 146.387 C 109.897 146.019,109.630 142.838,109.595 141.267 C 109.578 140.526,107.467 140.063,107.467 140.800 C 107.467 140.947,107.164 141.067,106.793 141.067 C 105.423 141.067,105.368 138.911,106.670 136.267 C 108.764 132.017,109.381 130.976,110.377 130.013 C 111.680 128.752,111.688 128.687,110.667 127.733 C 109.482 126.627,109.638 126.181,112.025 123.845 C 113.213 122.684,115.103 120.792,116.225 119.643 C 117.348 118.493,119.167 116.801,120.267 115.883 C 121.367 114.965,123.767 112.720,125.600 110.893 C 127.433 109.066,129.425 107.158,130.025 106.652 C 130.626 106.147,132.555 104.458,134.311 102.899 C 136.068 101.340,139.537 98.525,142.020 96.644 C 144.502 94.762,147.193 92.709,148.000 92.082 C 150.227 90.349,150.601 90.082,153.333 88.269 C 154.727 87.345,156.227 86.340,156.667 86.036 C 159.857 83.830,162.572 82.132,162.920 82.125 C 163.275 82.118,163.271 82.081,162.893 81.860 C 162.580 81.677,161.866 81.810,160.421 82.320 C 158.571 82.972,158.351 82.998,157.968 82.616 C 157.210 81.857,157.944 81.227,161.319 79.740 C 163.087 78.961,164.533 78.248,164.533 78.155 C 164.533 77.953,165.777 77.302,167.656 76.521 C 168.966 75.976,169.069 75.863,169.456 74.529 C 170.038 72.529,174.745 67.776,183.067 60.789 C 184.533 59.558,185.864 58.426,186.024 58.275 C 186.414 57.907,191.217 53.706,193.122 52.068 C 194.516 50.869,200.220 46.716,204.326 43.909 C 206.394 42.496,211.388 39.691,214.624 38.125 C 215.261 37.817,216.521 37.120,217.424 36.576 C 220.709 34.598,227.243 31.637,231.348 30.267 C 233.614 29.511,236.755 28.322,237.403 27.976 C 237.662 27.838,238.442 27.532,239.137 27.297 C 239.831 27.061,240.691 26.758,241.046 26.623 L 241.692 26.378 240.727 25.722 C 240.196 25.362,239.596 25.067,239.394 25.067 C 238.686 25.067,237.788 23.817,237.971 23.086 C 238.226 22.069,239.404 21.600,241.701 21.600 C 247.091 21.600,252.143 20.223,255.508 17.835 C 255.897 17.559,256.400 17.333,256.625 17.333 C 256.851 17.333,257.102 17.225,257.185 17.092 C 257.898 15.938,264.737 13.816,270.133 13.074 C 271.233 12.922,272.493 12.749,272.933 12.688 C 274.962 12.408,278.608 12.790,280.556 13.488 M340.400 36.449 C 335.876 37.301,325.573 43.310,320.000 48.347 C 315.458 52.452,315.183 52.813,314.154 56.019 C 313.851 56.962,313.472 58.133,313.311 58.620 C 312.633 60.671,311.999 63.870,311.991 65.284 C 311.986 66.118,311.865 67.640,311.720 68.667 C 311.576 69.693,311.384 71.193,311.293 72.000 C 311.202 72.807,311.041 73.587,310.934 73.733 C 310.827 73.880,310.658 74.360,310.558 74.800 C 309.903 77.685,305.731 83.063,303.183 84.308 C 301.176 85.289,298.586 86.131,297.542 86.143 C 297.060 86.148,295.947 86.326,295.067 86.539 C 292.472 87.165,285.619 86.575,277.600 85.035 C 276.793 84.881,275.533 84.705,274.800 84.646 L 273.467 84.538 274.933 84.919 C 275.740 85.129,278.200 85.549,280.400 85.853 C 282.600 86.156,285.135 86.524,286.034 86.670 C 288.984 87.148,293.109 87.270,294.933 86.933 C 295.887 86.758,297.327 86.516,298.133 86.397 C 306.294 85.191,311.649 78.015,312.160 67.600 C 312.504 60.584,314.680 53.902,317.513 51.165 C 326.800 42.191,338.001 36.092,343.867 36.815 C 348.873 37.433,353.551 38.613,355.242 39.684 C 359.151 42.162,363.030 48.929,364.236 55.373 C 365.095 59.963,365.211 90.447,364.381 93.664 C 363.780 95.996,361.577 102.481,361.232 102.933 C 361.065 103.153,360.702 103.753,360.427 104.267 C 360.152 104.780,359.465 105.683,358.901 106.273 C 358.242 106.961,357.720 107.863,357.447 108.784 C 357.212 109.575,356.671 110.942,356.245 111.821 C 355.819 112.701,355.215 114.331,354.905 115.444 C 354.594 116.556,354.191 117.767,354.009 118.133 C 353.828 118.500,353.535 119.760,353.358 120.933 C 353.182 122.107,352.934 123.487,352.808 124.000 C 352.681 124.513,352.493 125.473,352.390 126.133 C 352.286 126.793,351.976 127.908,351.701 128.610 C 351.425 129.312,351.200 130.288,351.200 130.779 C 351.200 133.071,348.854 135.724,345.555 137.164 C 343.644 137.998,338.550 139.733,338.013 139.733 C 337.777 139.733,337.506 139.943,337.411 140.200 C 337.316 140.457,336.958 141.118,336.615 141.669 C 336.271 142.220,335.743 143.299,335.440 144.067 C 335.138 144.834,334.480 146.280,333.978 147.279 C 333.477 148.278,333.066 149.419,333.066 149.815 C 333.065 150.617,332.297 152.026,331.262 153.127 C 330.886 153.528,330.328 154.270,330.022 154.778 C 329.717 155.285,329.068 156.368,328.580 157.184 C 327.529 158.942,326.956 159.068,326.157 157.714 C 325.384 156.404,324.838 156.607,323.870 158.567 C 323.179 159.967,321.876 161.794,320.712 162.993 C 320.531 163.180,320.114 163.715,319.786 164.181 C 319.459 164.648,318.780 165.283,318.278 165.593 C 317.777 165.903,316.819 166.987,316.150 168.003 C 314.501 170.505,314.243 170.333,314.174 166.688 C 314.144 165.097,313.926 162.792,313.690 161.565 C 313.454 160.337,313.181 157.713,313.084 155.733 C 312.899 151.961,312.602 150.839,311.351 149.200 C 310.372 147.915,307.675 146.931,306.000 147.246 C 303.641 147.691,302.185 148.000,300.533 148.407 C 299.580 148.643,297.900 148.932,296.800 149.051 C 291.788 149.591,288.949 149.951,285.733 150.455 C 283.827 150.755,281.367 151.113,280.267 151.252 C 279.167 151.391,277.427 151.808,276.400 152.178 C 275.373 152.549,273.397 153.151,272.007 153.517 C 270.618 153.884,269.058 154.398,268.540 154.660 C 268.023 154.921,266.597 155.394,265.371 155.711 C 264.145 156.027,262.705 156.506,262.171 156.775 C 261.637 157.044,260.240 157.568,259.067 157.939 C 257.893 158.309,256.374 158.856,255.689 159.154 C 255.005 159.451,253.445 159.960,252.223 160.285 C 251.000 160.609,249.700 161.028,249.333 161.215 C 248.967 161.403,247.587 161.854,246.267 162.217 C 242.535 163.244,237.563 164.758,236.533 165.180 C 234.951 165.830,229.484 167.465,227.833 167.782 C 222.820 168.746,216.084 170.603,213.200 171.816 C 211.788 172.410,210.333 172.830,203.600 174.589 C 201.197 175.217,197.049 176.515,196.058 176.950 C 195.576 177.161,195.068 177.333,194.929 177.333 C 194.791 177.333,193.661 177.809,192.420 178.391 C 187.452 180.718,179.719 180.967,175.723 178.928 C 174.547 178.328,173.083 178.391,168.701 179.227 C 167.987 179.363,166.650 179.398,165.731 179.304 C 163.243 179.049,159.799 179.510,145.733 181.985 C 138.041 183.338,130.244 183.504,125.600 182.413 C 123.095 181.824,115.512 181.666,112.933 182.148 C 112.200 182.285,110.449 182.560,109.042 182.760 C 107.197 183.022,106.007 183.365,104.775 183.990 C 103.013 184.883,102.405 185.253,96.870 188.787 C 93.264 191.089,91.621 191.839,87.467 193.077 C 78.651 195.704,78.428 195.820,77.292 198.372 C 76.306 200.586,75.207 201.610,72.781 202.573 C 69.681 203.804,69.241 204.373,68.693 207.867 C 66.961 218.890,61.739 223.960,50.000 226.016 C 40.175 227.736,28.836 221.073,26.385 212.139 C 25.477 208.831,25.530 202.800,26.493 199.867 C 27.410 197.073,27.474 197.308,25.326 195.594 C 23.011 193.747,22.802 193.429,18.928 185.867 C 16.134 180.413,15.962 178.116,17.897 172.098 C 20.276 164.696,30.895 160.077,37.663 163.499 C 37.918 163.628,39.058 163.740,40.196 163.749 C 41.335 163.758,42.867 163.880,43.600 164.020 C 47.608 164.788,49.026 164.888,51.377 164.568 C 52.673 164.392,55.413 164.074,57.467 163.861 C 64.438 163.139,64.611 163.100,66.617 161.766 C 69.851 159.617,72.316 158.864,77.254 158.518 C 80.118 158.317,81.706 157.663,86.933 154.529 C 90.887 152.159,94.436 150.883,98.160 150.490 C 100.331 150.261,101.365 150.705,103.255 152.682 C 107.694 157.324,114.273 155.110,118.921 147.409 C 122.790 140.998,123.925 140.013,128.313 139.262 C 131.543 138.709,134.942 139.237,137.691 140.720 C 145.274 144.810,147.799 145.127,152.731 142.609 C 155.216 141.341,158.832 137.690,161.001 134.261 C 161.599 133.315,162.821 130.340,163.189 128.933 C 163.395 128.142,163.605 127.606,164.572 125.402 C 165.133 124.122,165.401 123.035,166.000 119.600 C 167.229 112.564,171.982 106.958,175.399 108.515 C 175.753 108.676,176.903 108.925,177.955 109.067 C 182.053 109.623,184.117 110.534,184.933 112.146 C 185.536 113.339,185.548 113.907,185.203 124.714 C 184.668 141.422,191.658 149.764,206.883 150.587 C 209.837 150.747,210.781 150.651,216.927 149.568 C 224.210 148.285,229.498 144.953,234.121 138.732 C 234.856 137.743,235.553 136.813,235.670 136.667 C 236.664 135.416,238.406 132.415,238.764 131.333 C 241.045 124.458,241.463 119.109,240.109 114.133 C 239.730 112.740,239.367 110.580,239.303 109.333 C 239.198 107.282,238.848 104.639,238.138 100.533 C 236.783 92.687,237.353 89.767,240.882 86.500 C 244.985 82.701,256.834 80.938,265.067 82.902 C 269.058 83.855,272.315 84.533,272.892 84.533 C 273.944 84.533,273.020 84.164,271.130 83.830 C 268.330 83.334,265.322 82.691,265.067 82.533 C 263.481 81.554,250.725 81.637,248.852 82.639 C 248.549 82.801,248.009 82.933,247.652 82.933 C 244.768 82.933,240.449 85.647,238.527 88.665 C 237.522 90.243,236.658 93.741,236.917 95.177 C 237.102 96.201,237.632 99.550,238.292 103.867 C 238.516 105.333,238.808 107.834,238.941 109.424 C 239.074 111.015,239.302 112.695,239.447 113.158 C 240.697 117.144,240.904 121.981,239.975 125.491 C 239.668 126.651,239.302 128.080,239.161 128.667 C 238.431 131.707,237.607 133.400,235.399 136.394 C 230.857 142.552,227.261 145.855,223.761 147.083 C 223.086 147.320,222.349 147.608,222.125 147.723 C 221.900 147.838,221.304 148.023,220.800 148.133 C 220.296 148.244,219.700 148.431,219.475 148.549 C 218.799 148.904,215.555 149.600,214.575 149.600 C 214.071 149.600,212.681 149.785,211.486 150.012 C 208.224 150.631,201.984 149.944,198.000 148.527 C 192.566 146.594,189.146 142.806,186.694 136.000 C 185.477 132.625,184.947 125.371,185.611 121.203 C 186.374 116.415,186.008 112.365,184.692 111.056 C 183.570 109.938,180.450 108.800,178.508 108.800 C 177.751 108.800,176.671 108.607,176.107 108.372 C 175.096 107.950,172.891 108.010,172.548 108.469 C 172.467 108.578,171.973 108.883,171.451 109.148 C 169.461 110.157,166.933 113.430,166.933 114.998 C 166.933 115.197,166.799 115.494,166.635 115.659 C 166.471 115.823,166.239 116.417,166.119 116.979 C 166.000 117.540,165.777 118.480,165.624 119.067 C 165.471 119.653,165.344 120.553,165.341 121.067 C 165.336 121.951,164.745 124.122,164.234 125.130 C 163.925 125.741,163.221 127.662,162.939 128.667 C 161.788 132.758,159.805 135.999,156.474 139.235 C 151.405 144.160,146.782 144.966,140.899 141.950 C 139.598 141.283,138.066 140.500,137.496 140.211 C 134.531 138.707,129.243 138.291,126.002 139.308 C 123.571 140.070,120.331 143.670,117.876 148.337 C 114.713 154.350,106.971 156.532,103.562 152.371 C 102.292 150.821,100.056 149.747,98.554 149.966 C 93.605 150.688,89.686 152.134,85.867 154.648 C 82.112 157.118,79.603 158.050,76.250 158.220 C 72.479 158.410,69.290 159.374,67.138 160.973 C 65.150 162.451,63.940 162.875,61.200 163.053 C 57.718 163.280,54.001 163.720,51.901 164.154 C 49.428 164.666,48.775 164.639,44.992 163.874 C 43.200 163.512,40.950 163.229,39.992 163.246 C 38.739 163.268,37.888 163.116,36.958 162.705 C 31.172 160.146,20.815 164.339,18.257 170.276 C 18.007 170.857,17.698 171.539,17.571 171.791 C 17.444 172.043,17.225 172.703,17.085 173.258 C 16.945 173.813,16.693 174.807,16.526 175.467 C 16.358 176.127,16.269 177.747,16.328 179.067 C 16.448 181.761,16.608 182.195,19.720 188.267 C 19.984 188.780,20.534 189.860,20.943 190.667 C 22.170 193.084,23.117 194.300,24.934 195.787 C 26.763 197.285,26.894 197.606,26.278 199.080 C 25.644 200.598,24.989 205.049,25.162 206.667 C 25.913 213.696,26.661 215.589,30.171 219.324 C 31.607 220.852,36.585 224.533,37.216 224.533 C 37.326 224.533,38.027 224.823,38.776 225.177 C 43.955 227.627,49.707 227.368,57.333 224.341 C 60.496 223.086,66.933 217.778,66.933 216.426 C 66.933 216.216,67.101 215.703,67.307 215.288 C 68.046 213.793,68.479 211.972,69.167 207.467 C 69.557 204.908,69.898 204.336,71.423 203.686 C 74.247 202.482,74.945 202.106,75.866 201.298 C 76.901 200.390,77.867 198.749,77.867 197.901 C 77.867 197.304,79.036 196.233,80.165 195.797 C 80.950 195.493,88.075 193.285,90.000 192.749 C 91.256 192.400,94.912 190.723,95.349 190.296 C 95.515 190.133,96.514 189.460,97.567 188.800 C 98.620 188.140,100.529 186.929,101.808 186.109 C 104.779 184.203,107.085 183.307,109.600 183.081 C 110.700 182.982,112.357 182.728,113.283 182.517 C 115.608 181.987,122.659 181.995,124.424 182.530 C 129.873 184.180,135.342 184.085,147.333 182.131 C 148.643 181.918,152.857 181.166,157.333 180.346 C 158.580 180.117,161.760 179.845,164.400 179.740 C 167.040 179.635,170.372 179.394,171.805 179.203 C 174.142 178.893,174.513 178.903,175.405 179.304 C 180.012 181.372,187.810 181.055,193.123 178.584 C 194.968 177.726,198.106 176.609,201.333 175.662 C 202.140 175.426,203.423 175.045,204.183 174.816 C 204.944 174.587,205.750 174.400,205.974 174.400 C 206.198 174.400,206.956 174.220,207.657 174.000 C 208.359 173.779,209.593 173.406,210.400 173.169 C 211.207 172.932,212.707 172.402,213.733 171.991 C 214.760 171.580,216.440 171.042,217.467 170.796 C 218.493 170.549,220.413 170.011,221.733 169.599 C 223.053 169.188,225.573 168.590,227.333 168.272 C 229.093 167.953,231.253 167.414,232.133 167.073 C 233.013 166.733,234.033 166.391,234.400 166.314 C 235.033 166.182,239.872 164.616,243.333 163.423 C 244.213 163.120,245.593 162.717,246.400 162.527 C 248.180 162.108,249.552 161.693,250.267 161.358 C 250.560 161.220,251.520 160.910,252.400 160.670 C 253.280 160.429,254.900 159.891,256.000 159.474 C 257.948 158.737,258.838 158.430,264.933 156.398 C 266.547 155.861,268.549 155.138,269.382 154.792 C 270.215 154.447,271.355 154.087,271.915 153.993 C 273.150 153.786,275.499 153.073,275.867 152.793 C 276.308 152.458,279.245 151.784,281.079 151.597 C 282.026 151.500,283.185 151.304,283.655 151.160 C 284.126 151.017,285.446 150.797,286.589 150.671 C 298.290 149.386,299.617 149.192,303.067 148.266 C 309.815 146.455,312.783 149.033,312.796 156.716 C 312.798 158.063,312.987 160.043,313.215 161.116 C 313.444 162.189,313.668 164.627,313.714 166.533 C 313.815 170.766,313.739 170.400,314.514 170.400 C 315.016 170.400,315.371 170.056,316.095 168.867 C 317.027 167.337,318.540 165.600,318.942 165.600 C 319.059 165.600,319.793 164.790,320.573 163.800 C 321.354 162.810,322.121 161.880,322.278 161.733 C 322.897 161.156,324.000 159.481,324.000 159.120 C 324.000 157.499,325.792 157.170,326.278 158.702 C 326.626 159.800,327.985 159.189,328.831 157.555 C 329.781 155.720,331.053 153.780,331.736 153.123 C 332.670 152.224,333.600 150.484,333.600 149.634 C 333.600 149.281,334.064 148.019,334.632 146.830 C 335.200 145.640,335.755 144.373,335.867 144.015 C 335.978 143.656,336.293 142.996,336.568 142.548 C 336.842 142.100,337.198 141.403,337.360 140.998 C 337.542 140.542,337.921 140.203,338.360 140.105 C 341.358 139.432,346.369 137.416,347.867 136.280 C 350.695 134.134,351.285 133.247,351.593 130.673 C 351.689 129.870,351.867 129.090,351.988 128.940 C 352.463 128.353,353.867 121.549,353.867 119.836 C 353.867 119.405,354.040 118.805,354.252 118.502 C 354.464 118.200,354.875 117.045,355.165 115.936 C 355.456 114.827,356.182 112.880,356.780 111.611 C 357.378 110.341,357.867 108.972,357.867 108.568 C 357.867 108.164,358.105 107.601,358.397 107.317 C 358.689 107.033,359.219 106.513,359.576 106.162 C 359.932 105.811,360.444 105.091,360.712 104.562 C 360.980 104.033,361.269 103.540,361.354 103.467 C 361.657 103.205,362.360 101.590,362.542 100.736 C 362.645 100.258,362.809 99.747,362.908 99.600 C 363.007 99.453,363.306 98.613,363.573 97.733 C 363.840 96.853,364.217 95.713,364.410 95.200 C 365.027 93.562,365.097 92.827,365.210 86.822 C 365.271 83.583,365.388 79.073,365.471 76.800 C 365.666 71.403,365.141 57.808,364.631 55.067 C 364.027 51.821,363.579 50.530,361.595 46.313 C 360.713 44.440,356.261 39.687,354.639 38.887 C 353.341 38.247,350.361 37.409,347.733 36.945 C 346.487 36.724,345.227 36.489,344.933 36.421 C 343.604 36.115,342.124 36.124,340.400 36.449 M338.533 98.300 C 335.658 98.866,334.848 99.104,333.419 99.799 C 331.223 100.866,330.990 101.419,331.565 104.198 C 332.521 108.820,333.442 110.131,336.071 110.616 C 338.791 111.117,342.636 110.020,342.663 108.736 C 342.665 108.628,342.005 108.100,341.197 107.563 C 337.992 105.435,337.122 101.926,339.210 99.548 C 339.962 98.691,339.957 98.016,339.200 98.168 C 339.127 98.183,338.827 98.242,338.533 98.300 M338.456 99.800 C 336.868 102.440,337.941 105.999,340.867 107.800 C 342.419 108.755,342.295 109.176,340.249 109.897 C 336.248 111.306,333.419 109.940,332.455 106.133 C 331.337 101.718,331.457 101.124,333.674 100.100 C 335.893 99.075,336.189 98.991,337.688 98.960 L 338.977 98.933 338.456 99.800 " stroke="none" fill="#9cafcc" fill-rule="evenodd"></path><path id="path4" d="M340.471 36.813 C 335.789 37.372,324.452 44.460,317.513 51.165 C 314.680 53.902,312.504 60.584,312.160 67.600 C 311.649 78.015,306.294 85.191,298.133 86.397 C 297.327 86.516,295.887 86.758,294.933 86.933 C 293.115 87.269,289.005 87.149,286.034 86.673 C 285.135 86.529,282.960 86.222,281.200 85.990 C 279.440 85.759,276.800 85.334,275.333 85.046 C 273.867 84.758,272.007 84.398,271.200 84.245 C 270.393 84.092,268.113 83.590,266.133 83.129 C 256.720 80.939,245.233 82.472,240.882 86.500 C 237.353 89.767,236.783 92.687,238.138 100.533 C 238.848 104.639,239.198 107.282,239.303 109.333 C 239.367 110.580,239.730 112.740,240.109 114.133 C 241.463 119.109,241.045 124.458,238.764 131.333 C 238.406 132.415,236.664 135.416,235.670 136.667 C 235.553 136.813,234.856 137.743,234.121 138.732 C 229.498 144.953,224.210 148.285,216.927 149.568 C 210.781 150.651,209.837 150.747,206.883 150.587 C 191.658 149.764,184.668 141.422,185.203 124.714 C 185.548 113.907,185.536 113.339,184.933 112.146 C 184.117 110.534,182.053 109.623,177.955 109.067 C 176.903 108.925,175.753 108.676,175.399 108.515 C 171.982 106.958,167.229 112.564,166.000 119.600 C 165.401 123.035,165.133 124.122,164.572 125.402 C 163.605 127.606,163.395 128.142,163.189 128.933 C 162.821 130.340,161.599 133.315,161.001 134.261 C 158.832 137.690,155.216 141.341,152.731 142.609 C 147.799 145.127,145.274 144.810,137.691 140.720 C 134.942 139.237,131.543 138.709,128.313 139.262 C 123.925 140.013,122.790 140.998,118.921 147.409 C 114.273 155.110,107.694 157.324,103.255 152.682 C 101.365 150.705,100.331 150.261,98.160 150.490 C 94.436 150.883,90.887 152.159,86.933 154.529 C 81.706 157.663,80.118 158.317,77.254 158.518 C 72.316 158.864,69.851 159.617,66.617 161.766 C 64.611 163.100,64.438 163.139,57.467 163.861 C 55.413 164.074,52.673 164.392,51.377 164.568 C 49.026 164.888,47.608 164.788,43.600 164.020 C 42.867 163.880,41.335 163.758,40.196 163.749 C 39.058 163.740,37.918 163.628,37.663 163.499 C 30.895 160.077,20.276 164.696,17.897 172.098 C 15.962 178.116,16.134 180.413,18.928 185.867 C 22.802 193.429,23.011 193.747,25.326 195.594 C 27.474 197.308,27.410 197.073,26.493 199.867 C 25.530 202.800,25.477 208.831,26.385 212.139 C 28.836 221.073,40.175 227.736,50.000 226.016 C 61.739 223.960,66.961 218.890,68.693 207.867 C 69.241 204.373,69.681 203.804,72.781 202.573 C 75.207 201.610,76.306 200.586,77.292 198.372 C 78.428 195.820,78.651 195.704,87.467 193.077 C 91.621 191.839,93.264 191.089,96.870 188.787 C 102.405 185.253,103.013 184.883,104.775 183.990 C 106.007 183.365,107.197 183.022,109.042 182.760 C 110.449 182.560,112.200 182.285,112.933 182.148 C 115.512 181.666,123.095 181.824,125.600 182.413 C 130.244 183.504,138.041 183.338,145.733 181.985 C 159.799 179.510,163.243 179.049,165.731 179.304 C 166.650 179.398,167.987 179.363,168.701 179.227 C 173.083 178.391,174.547 178.328,175.723 178.928 C 179.719 180.967,187.452 180.718,192.420 178.391 C 193.661 177.809,194.791 177.333,194.929 177.333 C 195.068 177.333,195.576 177.161,196.058 176.950 C 197.049 176.515,201.197 175.217,203.600 174.589 C 210.333 172.830,211.788 172.410,213.200 171.816 C 216.084 170.603,222.820 168.746,227.833 167.782 C 229.484 167.465,234.951 165.830,236.533 165.180 C 237.563 164.758,242.535 163.244,246.267 162.217 C 247.587 161.854,248.967 161.403,249.333 161.215 C 249.700 161.028,251.000 160.609,252.223 160.285 C 253.445 159.960,255.005 159.451,255.689 159.154 C 256.374 158.856,257.893 158.309,259.067 157.939 C 260.240 157.568,261.637 157.044,262.171 156.775 C 262.705 156.506,264.145 156.027,265.371 155.711 C 266.597 155.394,268.023 154.921,268.540 154.660 C 269.058 154.398,270.618 153.884,272.007 153.517 C 273.397 153.151,275.373 152.549,276.400 152.178 C 277.427 151.808,279.167 151.391,280.267 151.252 C 281.367 151.113,283.827 150.755,285.733 150.455 C 288.949 149.951,291.788 149.591,296.800 149.051 C 297.900 148.932,299.580 148.643,300.533 148.407 C 302.185 148.000,303.641 147.691,306.000 147.246 C 307.675 146.931,310.372 147.915,311.351 149.200 C 312.602 150.839,312.899 151.961,313.084 155.733 C 313.181 157.713,313.454 160.337,313.690 161.565 C 313.926 162.792,314.144 165.097,314.174 166.688 C 314.243 170.333,314.501 170.505,316.150 168.003 C 316.819 166.987,317.777 165.903,318.278 165.593 C 318.780 165.283,319.459 164.648,319.786 164.181 C 320.114 163.715,320.531 163.180,320.712 162.993 C 321.876 161.794,323.179 159.967,323.870 158.567 C 324.838 156.607,325.384 156.404,326.157 157.714 C 326.956 159.068,327.529 158.942,328.580 157.184 C 329.068 156.368,329.717 155.285,330.022 154.778 C 330.328 154.270,330.886 153.528,331.262 153.127 C 332.297 152.026,333.065 150.617,333.066 149.815 C 333.066 149.419,333.477 148.278,333.978 147.279 C 334.480 146.280,335.138 144.834,335.440 144.067 C 335.743 143.299,336.271 142.220,336.615 141.669 C 336.958 141.118,337.316 140.457,337.411 140.200 C 337.506 139.943,337.777 139.733,338.013 139.733 C 338.550 139.733,343.644 137.998,345.555 137.164 C 348.854 135.724,351.200 133.071,351.200 130.779 C 351.200 130.288,351.425 129.312,351.701 128.610 C 351.976 127.908,352.286 126.793,352.390 126.133 C 352.493 125.473,352.681 124.513,352.808 124.000 C 352.934 123.487,353.182 122.107,353.358 120.933 C 353.535 119.760,353.828 118.500,354.009 118.133 C 354.191 117.767,354.594 116.556,354.905 115.444 C 355.215 114.331,355.819 112.701,356.245 111.821 C 356.671 110.942,357.212 109.575,357.447 108.784 C 357.720 107.863,358.242 106.961,358.901 106.273 C 359.465 105.683,360.152 104.780,360.427 104.267 C 360.702 103.753,361.065 103.153,361.232 102.933 C 361.577 102.481,363.780 95.996,364.381 93.664 C 365.211 90.447,365.095 59.963,364.236 55.373 C 363.032 48.940,359.226 42.287,355.261 39.686 C 354.304 39.058,349.773 37.674,348.000 37.467 C 347.193 37.373,346.173 37.195,345.733 37.072 C 344.500 36.726,342.161 36.611,340.471 36.813 M345.733 37.459 C 346.320 37.670,347.271 37.849,347.848 37.855 C 348.424 37.861,349.264 37.983,349.714 38.126 C 355.471 39.946,354.851 39.618,357.231 42.106 C 359.916 44.911,361.600 47.378,361.600 48.507 C 361.600 48.668,361.690 48.801,361.800 48.802 C 361.988 48.804,362.349 49.874,363.327 53.327 C 364.195 56.391,364.400 60.860,364.400 76.667 C 364.399 92.132,364.314 93.800,363.441 95.467 C 363.326 95.687,362.973 96.767,362.657 97.867 C 362.340 98.967,361.990 99.987,361.878 100.133 C 361.767 100.280,361.603 100.780,361.515 101.245 C 361.299 102.390,359.896 104.675,358.513 106.133 C 357.783 106.904,357.265 107.763,357.064 108.533 C 356.747 109.754,356.578 110.181,355.369 112.831 C 354.993 113.654,354.557 114.914,354.400 115.631 C 354.243 116.347,353.897 117.413,353.631 118.000 C 353.366 118.587,353.004 120.123,352.829 121.414 C 352.653 122.705,352.395 124.063,352.255 124.432 C 352.115 124.800,352.000 125.391,352.000 125.745 C 352.000 126.099,351.713 127.261,351.363 128.328 C 351.013 129.394,350.668 130.834,350.596 131.527 C 350.372 133.714,348.028 135.805,344.267 137.173 C 343.167 137.572,341.484 138.192,340.527 138.550 C 339.570 138.907,338.534 139.200,338.226 139.200 C 337.918 139.200,337.546 139.350,337.400 139.533 C 336.912 140.144,333.867 146.381,333.867 146.768 C 333.867 146.865,333.567 147.419,333.200 148.000 C 332.787 148.654,332.533 149.447,332.533 150.084 C 332.533 150.923,332.330 151.328,331.424 152.289 C 330.814 152.937,330.064 153.895,329.758 154.419 C 327.357 158.520,327.444 158.407,326.910 158.121 C 326.629 157.971,326.400 157.627,326.400 157.357 C 326.400 155.537,324.518 156.181,323.540 158.335 C 322.989 159.548,321.148 162.124,320.253 162.933 C 320.171 163.007,319.767 163.517,319.354 164.068 C 318.940 164.618,318.286 165.219,317.901 165.404 C 317.515 165.588,316.762 166.393,316.226 167.194 C 314.819 169.295,314.667 169.226,314.666 166.489 C 314.666 165.193,314.480 163.233,314.252 162.133 C 314.025 161.033,313.749 158.390,313.639 156.260 C 313.240 148.499,310.563 145.913,304.253 147.192 C 302.721 147.502,300.807 147.877,300.000 148.025 C 299.193 148.173,298.419 148.408,298.280 148.547 C 298.141 148.686,297.121 148.804,296.013 148.809 C 294.906 148.814,293.040 148.992,291.867 149.204 C 290.693 149.416,288.945 149.592,287.982 149.595 C 287.018 149.598,285.638 149.770,284.915 149.978 C 284.192 150.186,282.940 150.433,282.133 150.528 C 279.291 150.863,277.445 151.263,275.333 152.001 C 274.160 152.411,272.420 152.946,271.467 153.191 C 270.513 153.436,269.133 153.926,268.400 154.281 C 267.667 154.635,266.458 155.040,265.714 155.180 C 264.970 155.320,264.010 155.579,263.581 155.755 C 263.151 155.931,262.440 156.224,262.000 156.407 C 261.560 156.589,260.720 156.887,260.133 157.069 C 259.547 157.251,258.107 157.753,256.933 158.185 C 254.215 159.185,253.052 159.575,251.067 160.153 C 250.187 160.409,249.227 160.762,248.933 160.936 C 248.640 161.110,247.920 161.339,247.333 161.445 C 246.747 161.551,244.827 162.103,243.067 162.672 C 241.307 163.241,239.087 163.944,238.133 164.234 C 237.180 164.525,236.040 164.886,235.600 165.038 C 234.589 165.386,230.188 166.758,228.303 167.312 C 227.516 167.544,226.427 167.733,225.884 167.733 C 225.340 167.733,224.364 167.900,223.714 168.103 C 223.065 168.306,221.753 168.678,220.800 168.928 C 219.847 169.178,218.858 169.492,218.604 169.625 C 218.349 169.758,217.959 169.867,217.738 169.867 C 217.239 169.867,214.325 170.865,213.371 171.362 C 212.984 171.565,212.464 171.731,212.216 171.732 C 211.968 171.733,211.697 171.843,211.614 171.977 C 211.532 172.111,210.959 172.306,210.342 172.410 C 209.725 172.514,209.036 172.700,208.810 172.822 C 208.419 173.035,207.349 173.298,204.400 173.906 C 203.667 174.057,202.947 174.276,202.800 174.393 C 202.653 174.511,202.024 174.690,201.401 174.793 C 200.779 174.896,200.202 175.089,200.119 175.223 C 200.036 175.357,199.701 175.467,199.375 175.467 C 198.813 175.467,196.385 176.216,194.933 176.837 C 193.588 177.413,192.632 177.836,191.129 178.520 C 187.585 180.132,179.551 180.217,176.143 178.677 L 174.287 177.838 172.294 178.282 C 171.028 178.563,168.688 178.760,165.884 178.820 C 163.454 178.873,160.987 179.037,160.400 179.185 C 159.813 179.333,158.733 179.457,158.000 179.462 C 157.267 179.466,156.247 179.586,155.733 179.728 C 155.220 179.870,154.020 180.105,153.067 180.250 C 152.113 180.395,150.313 180.699,149.067 180.924 C 141.521 182.288,140.260 182.430,134.533 182.571 C 129.117 182.703,128.493 182.670,126.400 182.137 C 123.172 181.314,117.378 181.127,113.467 181.718 C 106.263 182.806,106.194 182.823,103.932 183.999 C 102.723 184.628,101.673 185.223,101.600 185.322 C 101.527 185.421,100.387 186.146,99.067 186.934 C 97.747 187.722,96.104 188.750,95.416 189.219 C 93.405 190.588,91.319 191.467,86.933 192.792 C 78.839 195.238,77.887 195.672,77.303 197.175 C 76.548 199.118,76.359 199.463,75.584 200.309 C 74.782 201.185,74.392 201.417,71.467 202.761 C 68.894 203.943,68.760 204.178,68.172 208.533 C 68.004 209.780,67.792 210.920,67.702 211.067 C 67.611 211.213,67.454 211.813,67.354 212.400 C 66.576 216.934,62.504 221.256,56.667 223.740 C 56.184 223.946,55.038 224.306,51.467 225.374 C 49.570 225.942,43.185 225.857,41.255 225.238 C 36.580 223.740,33.688 221.737,28.864 216.653 C 25.977 213.612,25.223 203.885,27.442 198.298 C 27.876 197.205,27.602 196.640,26.164 195.660 C 23.761 194.022,22.392 192.019,19.101 185.319 C 16.561 180.150,16.559 174.373,19.094 170.356 C 19.446 169.799,19.733 169.283,19.733 169.208 C 19.733 168.830,22.331 166.210,23.157 165.756 C 23.401 165.622,23.660 165.442,23.733 165.356 C 24.216 164.791,27.651 163.376,29.084 163.153 C 33.602 162.448,35.223 162.561,37.376 163.733 C 37.619 163.866,39.119 164.042,40.709 164.125 C 42.299 164.208,43.900 164.393,44.267 164.537 C 46.142 165.272,50.848 165.270,54.667 164.533 C 55.473 164.377,57.573 164.146,59.333 164.019 C 63.835 163.695,65.275 163.297,67.200 161.846 C 68.104 161.165,68.827 160.804,71.067 159.916 C 71.653 159.684,73.923 159.307,76.111 159.081 C 80.551 158.620,81.286 158.355,86.133 155.467 C 91.083 152.517,94.270 151.318,98.464 150.826 C 100.211 150.621,100.947 150.975,102.823 152.928 C 105.783 156.006,110.168 156.259,114.207 153.584 C 115.568 152.683,117.867 150.225,117.867 149.671 C 117.867 149.485,117.965 149.333,118.084 149.333 C 118.204 149.333,118.582 148.823,118.924 148.200 C 121.294 143.884,123.887 140.863,125.785 140.206 C 129.725 138.841,135.163 139.497,138.978 141.797 C 144.987 145.419,148.460 145.479,154.478 142.068 C 156.787 140.758,161.975 134.186,162.570 131.816 C 162.668 131.423,162.910 130.794,163.106 130.418 C 163.303 130.041,163.464 129.470,163.465 129.149 C 163.466 128.828,163.577 128.496,163.713 128.413 C 163.848 128.329,164.037 127.907,164.132 127.475 C 164.227 127.042,164.606 126.062,164.976 125.297 C 165.625 123.950,165.828 123.128,166.406 119.485 C 167.202 114.470,169.256 111.039,172.375 109.515 C 174.141 108.653,174.313 108.625,175.733 108.987 C 176.393 109.155,177.833 109.440,178.933 109.620 C 184.936 110.602,185.267 111.278,184.870 121.733 C 184.531 130.683,184.723 132.966,186.125 136.667 C 186.464 137.560,188.351 141.458,188.514 141.601 C 188.598 141.674,188.928 142.223,189.247 142.820 C 190.776 145.678,194.351 148.305,198.267 149.448 C 199.147 149.705,200.467 150.099,201.200 150.322 C 202.923 150.848,209.903 151.089,212.400 150.708 C 217.046 150.000,218.156 149.770,220.533 149.016 C 227.082 146.941,230.279 144.641,234.320 139.101 C 235.082 138.055,236.173 136.600,236.744 135.867 C 237.824 134.480,239.467 131.319,239.467 130.626 C 239.467 130.407,239.634 129.697,239.839 129.048 C 241.120 124.983,241.119 124.989,241.022 119.668 C 240.963 116.440,240.814 114.335,240.621 114.000 C 240.180 113.237,239.773 110.912,239.594 108.133 C 239.424 105.487,238.859 101.609,238.254 98.933 C 237.712 96.535,237.745 92.478,238.318 90.942 C 239.072 88.923,240.888 86.400,241.587 86.400 C 241.741 86.400,241.867 86.297,241.867 86.170 C 241.867 85.807,244.905 84.284,246.178 84.009 C 248.855 83.430,250.046 83.153,250.800 82.933 C 252.196 82.526,258.675 82.342,260.933 82.645 C 264.970 83.187,266.516 83.476,266.777 83.737 C 266.922 83.882,267.329 84.000,267.682 84.000 C 268.035 84.000,269.121 84.175,270.095 84.389 C 274.467 85.350,278.307 86.032,281.333 86.386 C 282.580 86.532,284.257 86.777,285.060 86.930 C 289.558 87.789,298.043 87.377,300.933 86.161 C 303.602 85.038,304.495 84.500,305.827 83.216 C 307.559 81.545,309.333 79.389,309.333 78.955 C 309.333 78.796,309.432 78.667,309.553 78.667 C 309.833 78.667,310.933 76.478,310.933 75.920 C 310.933 75.688,311.046 75.428,311.185 75.343 C 311.323 75.257,311.518 74.620,311.619 73.927 C 311.719 73.234,311.927 72.427,312.080 72.133 C 312.232 71.840,312.447 69.980,312.556 68.000 C 312.800 63.574,313.219 61.393,314.682 56.933 L 315.820 53.467 318.276 51.067 C 320.857 48.544,323.060 46.608,323.560 46.424 C 323.723 46.364,324.018 46.153,324.215 45.956 C 324.412 45.759,325.134 45.216,325.820 44.750 C 326.506 44.284,327.127 43.827,327.200 43.735 C 327.662 43.157,334.812 39.370,338.933 37.520 C 340.160 36.969,344.272 36.932,345.733 37.459 M170.464 72.600 C 169.899 73.204,169.228 74.650,169.423 74.846 C 169.481 74.903,169.684 74.557,169.874 74.075 C 170.064 73.594,170.461 72.930,170.756 72.600 C 171.051 72.270,171.233 72.000,171.160 72.000 C 171.086 72.000,170.773 72.270,170.464 72.600 M335.600 98.500 C 331.069 99.980,330.441 100.780,331.092 104.234 C 332.141 109.794,334.827 112.020,339.275 111.017 C 343.519 110.059,344.075 108.917,341.194 107.075 C 338.323 105.238,337.632 101.947,339.649 99.715 C 341.382 97.796,339.492 97.229,335.600 98.500 M339.690 98.368 C 339.968 98.544,339.860 98.807,339.210 99.548 C 337.122 101.926,337.992 105.435,341.197 107.563 C 342.005 108.100,342.665 108.628,342.663 108.736 C 342.636 110.020,338.791 111.117,336.071 110.616 C 333.442 110.131,332.521 108.820,331.565 104.198 C 330.990 101.419,331.223 100.866,333.419 99.799 C 334.848 99.104,335.658 98.866,338.533 98.300 C 338.827 98.242,339.127 98.183,339.200 98.168 C 339.273 98.154,339.494 98.243,339.690 98.368 M146.733 136.984 C 146.990 137.051,147.410 137.051,147.667 136.984 C 147.923 136.917,147.713 136.862,147.200 136.862 C 146.687 136.862,146.477 136.917,146.733 136.984 " stroke="none" fill="#7194bc" fill-rule="evenodd"></path></g></svg>