<svg id="svg" version="1.1" xmlns="http://www.w3.org/2000/svg" xmlns:xlink="http://www.w3.org/1999/xlink" width="400" height="269.3577981651376" viewBox="0, 0, 400,269.3577981651376"><g id="svgg"><path id="path0" d="M197.508 9.082 C 197.916 9.144,198.582 9.144,198.990 9.082 C 199.397 9.020,199.064 8.970,198.249 8.970 C 197.434 8.970,197.101 9.020,197.508 9.082 M199.259 13.218 C 198.918 13.418,198.786 13.845,198.781 14.761 C 198.778 15.457,198.644 16.512,198.485 17.104 C 198.325 17.697,198.091 21.515,197.965 25.589 C 197.723 33.427,197.210 41.504,196.502 48.620 C 196.267 50.990,195.962 54.747,195.824 56.970 C 195.208 66.927,194.625 70.842,193.757 70.842 C 193.179 70.842,192.568 68.975,192.258 66.263 C 191.850 62.692,191.000 61.782,190.953 64.864 C 190.888 69.075,190.102 70.498,189.435 67.609 C 189.034 65.872,188.377 57.767,188.022 50.194 C 187.884 47.254,187.641 42.061,187.482 38.653 C 187.137 31.275,186.559 25.571,186.078 24.801 C 185.442 23.783,182.471 24.144,176.835 25.925 C 172.026 27.444,172.387 26.713,173.480 32.727 C 174.592 38.843,174.556 55.383,173.421 59.663 C 171.553 66.707,170.506 63.354,170.539 50.435 C 170.552 45.385,170.481 41.122,170.383 40.963 C 170.177 40.630,168.139 40.864,167.609 41.282 C 167.212 41.595,167.154 53.187,167.526 58.012 C 167.729 60.653,167.498 64.602,167.103 65.242 C 166.448 66.301,164.954 61.865,164.589 57.778 C 164.470 56.444,164.223 53.838,164.040 51.987 C 163.856 50.135,163.763 46.917,163.832 44.837 C 163.902 42.757,163.851 40.393,163.720 39.585 C 163.590 38.776,163.391 34.643,163.280 30.399 C 163.128 24.608,162.987 22.576,162.718 22.251 C 162.244 21.680,150.017 21.590,149.554 22.155 C 149.365 22.387,149.397 23.122,149.657 24.512 C 149.865 25.623,150.157 27.320,150.307 28.283 C 150.456 29.246,150.655 30.215,150.748 30.438 C 150.917 30.838,151.067 31.633,151.614 35.017 C 152.826 42.516,152.597 59.732,151.244 62.888 L 150.785 63.958 150.401 63.226 C 149.360 61.239,148.429 49.849,148.413 38.920 C 148.408 35.274,148.386 35.235,146.402 35.339 C 144.462 35.441,144.337 35.698,144.800 38.653 C 145.461 42.877,146.237 63.764,145.797 65.464 L 145.559 66.380 144.928 65.075 C 144.187 63.545,143.641 61.292,143.307 58.388 C 143.176 57.243,142.992 56.184,142.900 56.035 C 142.808 55.886,142.615 54.338,142.471 52.596 C 141.863 45.267,141.421 39.778,141.164 36.364 C 140.681 29.953,140.375 29.024,138.930 29.570 C 138.457 29.748,135.701 30.093,132.806 30.336 C 126.078 30.900,126.191 30.839,126.456 33.767 C 126.565 34.973,126.753 37.172,126.874 38.653 C 126.994 40.135,127.274 42.256,127.496 43.367 C 127.717 44.478,128.103 46.418,128.353 47.677 C 128.604 48.936,128.900 50.633,129.012 51.448 C 129.199 52.812,129.419 54.248,130.104 58.586 C 130.511 61.166,130.731 65.521,130.524 66.903 L 130.333 68.174 129.865 67.555 C 128.888 66.264,127.855 63.734,126.863 60.202 C 126.136 57.613,124.983 51.886,124.983 50.864 C 124.983 50.498,124.792 49.556,124.559 48.771 L 124.135 47.343 122.741 47.525 C 120.144 47.862,120.154 47.820,121.251 54.007 C 121.408 54.896,121.641 56.593,121.769 57.778 C 121.966 59.615,122.356 62.450,122.973 66.532 C 123.523 70.167,123.994 72.783,124.307 73.939 C 124.508 74.680,124.833 76.013,125.030 76.902 C 125.367 78.429,125.432 78.520,126.195 78.544 C 126.858 78.564,126.879 78.550,126.309 78.463 C 125.685 78.367,125.582 78.176,125.283 76.552 C 125.101 75.560,124.785 74.020,124.582 73.131 C 123.995 70.567,123.587 68.420,123.325 66.532 C 122.951 63.826,122.291 58.812,122.003 56.474 C 121.859 55.312,121.634 53.857,121.501 53.241 C 120.696 49.495,120.926 47.946,122.287 47.946 C 122.560 47.946,122.977 47.872,123.212 47.782 C 123.761 47.571,124.351 48.926,124.583 50.931 C 124.839 53.153,125.823 57.727,126.982 62.088 C 127.559 64.260,129.855 68.822,130.370 68.822 C 130.890 68.822,131.079 62.180,130.634 59.529 C 130.472 58.566,130.233 56.911,130.102 55.852 C 129.846 53.778,129.613 52.422,128.722 47.811 C 128.407 46.182,127.976 43.939,127.765 42.828 C 127.554 41.717,127.281 39.232,127.159 37.306 C 127.037 35.380,126.852 33.373,126.748 32.845 C 126.456 31.369,126.884 31.180,131.132 30.913 C 133.158 30.785,135.904 30.510,137.236 30.301 C 138.568 30.092,139.736 30.007,139.832 30.112 C 140.161 30.473,140.670 34.078,140.886 37.576 C 141.354 45.146,141.713 49.477,141.962 50.557 C 142.105 51.178,142.222 52.413,142.222 53.300 C 142.222 58.499,144.838 68.314,145.932 67.222 C 146.277 66.877,146.314 56.334,145.990 50.909 C 145.614 44.628,145.214 38.202,145.119 36.910 C 145.053 36.013,145.095 35.967,146.128 35.792 C 148.106 35.457,148.148 35.590,148.151 42.264 C 148.156 54.950,149.551 66.109,150.957 64.712 C 152.794 62.887,153.355 38.140,151.683 32.713 C 151.549 32.276,151.237 30.889,150.989 29.630 C 150.742 28.370,150.406 26.701,150.242 25.919 C 150.078 25.138,149.934 23.987,149.922 23.361 L 149.899 22.222 155.556 22.146 C 161.709 22.063,162.268 22.117,162.559 22.826 C 162.741 23.269,162.918 27.870,163.486 46.869 C 163.796 57.240,164.429 62.000,165.868 64.781 C 166.175 65.374,166.604 66.238,166.822 66.701 C 167.040 67.165,167.321 67.607,167.447 67.685 C 167.915 67.974,168.008 60.562,167.679 49.318 C 167.437 41.059,167.405 41.212,169.338 41.212 L 170.223 41.212 170.306 51.111 C 170.397 61.848,170.599 63.614,171.758 63.784 C 174.437 64.178,175.987 39.443,173.739 32.189 C 173.601 31.744,173.453 30.496,173.411 29.416 L 173.333 27.451 176.962 26.251 C 178.957 25.591,180.907 25.051,181.294 25.051 C 181.681 25.051,182.693 24.911,183.543 24.740 C 185.768 24.293,186.042 24.633,186.405 28.289 C 186.743 31.693,187.435 44.188,187.748 52.525 C 188.119 62.429,188.945 69.456,189.841 70.353 C 190.279 70.790,190.671 70.377,190.855 69.283 C 191.237 67.013,191.878 66.554,192.122 68.375 C 192.369 70.218,193.303 71.990,193.868 71.688 C 194.998 71.084,195.615 67.430,196.083 58.586 C 196.224 55.919,196.411 53.313,196.500 52.795 C 196.588 52.276,196.775 50.397,196.916 48.620 C 197.056 46.842,197.362 43.024,197.595 40.135 C 197.829 37.246,198.117 31.306,198.235 26.936 C 198.353 22.566,198.583 18.505,198.747 17.912 C 198.911 17.320,199.047 16.269,199.051 15.578 C 199.061 13.515,199.115 13.467,201.443 13.472 C 203.946 13.477,206.902 14.189,209.428 15.396 L 211.313 16.296 211.227 19.663 C 211.180 21.515,211.016 23.758,210.863 24.646 C 210.456 27.009,210.446 34.172,210.850 35.102 C 211.091 35.659,211.179 38.874,211.180 47.223 C 211.182 57.748,211.288 60.103,211.955 64.532 C 212.214 66.247,213.250 68.728,213.775 68.888 C 214.942 69.243,215.502 62.347,215.583 46.599 C 215.605 42.377,215.562 38.195,215.488 37.306 L 215.354 35.690 216.229 35.606 L 217.104 35.521 217.104 38.080 C 217.104 39.487,216.974 40.980,216.816 41.397 C 216.554 42.084,216.006 52.055,215.975 56.700 C 215.955 59.727,216.444 65.268,216.788 65.908 C 216.962 66.232,217.104 67.040,217.104 67.704 C 217.104 69.314,217.310 69.764,218.047 69.764 C 218.807 69.764,218.990 69.318,218.990 67.470 C 218.990 66.677,219.106 65.724,219.247 65.352 C 219.568 64.508,220.081 59.461,220.331 54.680 C 220.561 50.292,221.059 44.022,221.411 41.077 C 221.553 39.892,221.753 35.832,221.855 32.054 C 221.957 28.276,222.173 24.519,222.334 23.704 L 222.626 22.222 224.512 22.134 C 225.549 22.086,227.054 22.190,227.856 22.366 C 228.658 22.541,229.931 22.787,230.684 22.912 C 236.758 23.921,239.301 24.799,239.115 25.823 C 238.951 26.731,237.503 32.199,236.824 34.478 C 235.776 37.995,235.272 40.086,234.487 44.175 C 234.245 45.434,233.926 47.021,233.778 47.701 C 233.521 48.877,233.390 49.907,232.703 56.150 C 231.962 62.885,232.649 72.101,234.004 73.605 C 234.981 74.688,236.151 72.215,236.522 68.283 C 237.531 57.594,238.838 48.317,240.166 42.424 C 241.465 36.657,241.686 35.687,241.779 35.347 C 241.942 34.754,242.704 34.656,244.000 35.061 L 245.253 35.452 245.171 37.053 C 245.126 37.933,244.923 39.502,244.721 40.539 C 244.398 42.195,243.820 45.604,243.374 48.485 C 243.294 49.003,243.116 50.362,242.980 51.505 C 242.844 52.647,242.607 54.466,242.454 55.545 C 241.492 62.335,241.364 67.974,242.106 70.840 C 242.638 72.897,243.298 73.312,243.740 71.868 C 243.890 71.378,244.264 70.254,244.570 69.372 C 245.089 67.877,245.356 66.322,245.919 61.532 C 246.042 60.486,246.275 59.153,246.437 58.569 C 246.598 57.986,246.732 57.011,246.733 56.404 C 246.733 55.796,246.852 54.948,246.996 54.518 C 247.140 54.089,247.385 52.768,247.541 51.582 C 247.697 50.397,248.003 48.397,248.222 47.138 C 248.440 45.879,248.737 43.769,248.883 42.450 C 249.029 41.131,249.225 39.809,249.320 39.511 C 249.414 39.214,249.587 37.748,249.703 36.253 C 249.820 34.758,250.108 32.778,250.345 31.852 C 250.581 30.926,250.948 29.471,251.161 28.620 C 251.900 25.661,252.054 25.177,252.744 23.637 C 253.520 21.905,253.275 21.939,256.095 23.173 C 256.798 23.481,257.616 23.836,257.912 23.961 C 264.081 26.571,264.253 26.830,262.494 30.842 C 261.028 34.186,260.662 34.908,259.991 35.781 C 259.222 36.781,258.826 37.627,257.761 40.539 C 257.436 41.428,256.959 42.700,256.702 43.367 C 255.478 46.541,254.021 50.662,253.608 52.121 C 253.356 53.010,252.994 54.222,252.804 54.815 C 251.674 58.338,249.942 66.522,249.141 72.131 C 248.853 74.141,248.931 76.640,249.333 78.292 C 249.515 79.044,248.922 79.170,247.138 78.760 C 245.145 78.301,242.534 77.849,240.404 77.595 C 239.367 77.471,237.791 77.164,236.902 76.912 C 236.013 76.661,234.438 76.354,233.401 76.230 C 230.538 75.887,226.307 75.211,226.058 75.057 C 225.816 74.907,216.525 74.498,203.502 74.064 C 198.909 73.911,194.000 73.683,192.593 73.558 C 191.108 73.426,188.789 73.438,187.071 73.585 C 185.441 73.724,179.138 73.936,173.064 74.055 C 166.990 74.173,160.505 74.401,158.653 74.560 C 156.801 74.719,152.983 74.982,150.168 75.144 C 147.354 75.306,143.838 75.611,142.357 75.822 C 140.875 76.033,137.785 76.461,135.488 76.774 C 128.698 77.698,128.311 77.764,127.780 78.086 C 127.224 78.425,127.508 78.400,130.774 77.829 C 133.044 77.432,137.571 76.830,140.692 76.510 C 142.146 76.360,143.441 76.173,143.570 76.094 C 143.698 76.014,145.963 75.828,148.602 75.680 C 151.241 75.532,155.764 75.222,158.653 74.992 C 162.736 74.667,180.504 74.099,189.630 74.002 C 190.296 73.995,194.478 74.126,198.923 74.293 C 203.367 74.461,210.276 74.718,214.276 74.866 C 224.755 75.254,225.325 75.292,228.148 75.801 C 229.556 76.054,231.556 76.366,232.593 76.493 C 233.630 76.620,235.327 76.925,236.364 77.171 C 237.401 77.416,239.340 77.789,240.673 77.999 C 244.753 78.640,248.047 79.229,250.516 79.759 C 251.188 79.903,252.582 80.135,253.613 80.275 C 254.644 80.414,256.359 80.674,257.424 80.850 C 259.665 81.223,259.997 81.077,260.476 79.507 C 260.642 78.963,260.891 78.276,261.028 77.980 C 261.165 77.684,261.699 76.168,262.215 74.613 C 263.934 69.423,264.654 67.516,267.355 61.010 C 268.745 57.661,269.391 56.184,271.244 52.121 C 271.514 51.529,271.943 50.559,272.196 49.966 C 272.449 49.374,273.234 47.713,273.939 46.277 C 275.273 43.561,275.299 42.559,274.033 42.559 C 273.805 42.559,273.297 42.379,272.904 42.158 C 272.510 41.938,271.037 41.389,269.630 40.939 C 267.033 40.109,266.820 40.030,264.924 39.205 C 263.717 38.680,263.064 39.108,262.738 40.640 C 262.656 41.029,262.120 42.559,261.547 44.040 C 260.444 46.894,258.291 53.280,257.595 55.758 C 257.366 56.572,257.003 57.845,256.787 58.586 C 256.572 59.327,256.106 61.024,255.751 62.357 C 253.694 70.095,253.305 71.497,252.596 73.712 C 252.030 75.480,250.561 78.141,250.058 78.308 C 249.283 78.567,249.309 72.176,250.098 68.418 C 250.300 67.455,250.591 66.000,250.745 65.185 C 251.303 62.218,251.918 59.366,252.255 58.182 C 252.445 57.515,252.808 56.242,253.061 55.354 C 253.315 54.465,253.630 53.374,253.762 52.929 C 254.170 51.562,256.195 45.704,256.556 44.848 C 257.203 43.315,257.751 41.877,258.638 39.390 C 259.128 38.017,259.870 36.502,260.286 36.023 C 261.174 35.003,262.229 32.732,263.982 28.074 C 264.431 26.879,264.016 26.458,260.907 24.949 C 254.419 21.802,253.303 21.488,252.759 22.661 C 252.596 23.012,252.323 23.603,252.153 23.973 C 251.757 24.836,251.364 26.118,250.875 28.148 C 250.660 29.037,250.299 30.492,250.071 31.380 C 249.843 32.269,249.603 33.542,249.539 34.209 C 249.433 35.299,248.825 40.414,248.515 42.828 C 248.448 43.347,248.201 44.923,247.965 46.330 C 247.730 47.737,247.419 49.737,247.275 50.774 C 247.130 51.811,246.891 53.145,246.744 53.737 C 246.598 54.330,246.475 55.338,246.471 55.977 C 246.468 56.617,246.349 57.357,246.207 57.622 C 246.065 57.887,245.879 58.939,245.793 59.961 C 245.637 61.825,245.521 62.565,244.718 66.801 C 244.252 69.261,243.510 71.650,243.212 71.650 C 241.835 71.650,241.768 63.173,243.069 53.468 C 243.288 51.838,243.596 49.514,243.753 48.302 C 243.911 47.090,244.161 45.779,244.309 45.388 C 244.458 44.998,244.580 44.232,244.581 43.686 C 244.581 43.140,244.715 42.216,244.877 41.633 C 245.039 41.049,245.272 39.716,245.395 38.670 C 245.518 37.624,245.701 36.441,245.801 36.042 C 245.964 35.394,245.877 35.273,244.979 34.898 C 243.568 34.308,241.691 34.337,241.526 34.949 C 241.456 35.209,241.197 36.269,240.949 37.306 C 240.702 38.343,240.390 39.616,240.255 40.135 C 239.797 41.896,239.255 44.572,238.809 47.273 C 238.564 48.754,238.235 50.694,238.076 51.582 C 237.793 53.172,237.619 54.589,237.054 59.933 C 236.897 61.414,236.647 63.437,236.499 64.429 C 236.350 65.420,236.229 66.846,236.229 67.598 C 236.229 70.429,234.943 73.712,234.147 72.916 C 232.314 71.082,232.333 58.211,234.186 47.811 C 234.992 43.283,235.708 39.966,236.509 37.037 C 236.834 35.852,237.156 34.640,237.225 34.343 C 237.295 34.047,237.451 33.562,237.573 33.266 C 238.836 30.194,239.656 24.877,238.923 24.505 C 237.568 23.819,228.954 22.009,225.393 21.663 C 221.906 21.325,221.692 21.701,221.670 28.200 C 221.662 30.394,221.543 33.522,221.404 35.152 C 221.266 36.781,221.026 40.343,220.873 43.067 C 220.719 45.790,220.522 48.134,220.435 48.274 C 220.348 48.415,220.173 50.550,220.045 53.019 C 219.791 57.904,219.191 63.803,218.752 65.724 C 218.599 66.391,218.469 67.522,218.463 68.238 C 218.445 70.183,217.838 69.696,217.484 67.453 C 217.323 66.428,217.051 65.104,216.880 64.512 C 216.493 63.173,216.476 49.796,216.856 45.926 C 217.001 44.444,217.192 41.450,217.280 39.273 L 217.440 35.313 216.758 35.142 C 215.107 34.728,214.881 35.246,215.126 38.877 C 215.389 42.776,215.389 41.846,215.127 54.276 C 214.900 65.087,214.534 68.377,213.614 67.885 C 212.251 67.155,211.676 61.749,211.396 47.003 C 211.028 27.584,211.028 27.402,211.412 22.013 C 211.610 19.231,211.703 16.679,211.618 16.342 C 211.203 14.687,201.103 12.134,199.259 13.218 M222.970 16.898 C 223.604 16.955,224.573 16.954,225.125 16.896 C 225.677 16.838,225.158 16.792,223.973 16.793 C 222.788 16.794,222.337 16.841,222.970 16.898 M151.448 17.169 C 152.448 17.221,154.084 17.221,155.084 17.169 C 156.084 17.118,155.266 17.075,153.266 17.075 C 151.266 17.075,150.448 17.118,151.448 17.169 M218.803 17.932 L 218.047 18.625 218.923 18.016 C 219.404 17.681,219.798 17.369,219.798 17.323 C 219.798 17.110,219.500 17.293,218.803 17.932 M193.231 21.549 C 193.231 23.104,193.275 23.741,193.330 22.963 C 193.384 22.185,193.384 20.912,193.330 20.135 C 193.275 19.357,193.231 19.993,193.231 21.549 M215.841 20.337 C 215.843 21.226,215.893 21.557,215.953 21.073 C 216.013 20.588,216.012 19.861,215.950 19.456 C 215.889 19.052,215.840 19.448,215.841 20.337 M184.719 19.859 C 185.203 19.918,185.930 19.917,186.335 19.856 C 186.740 19.794,186.343 19.745,185.455 19.747 C 184.566 19.748,184.234 19.799,184.719 19.859 M244.660 22.896 C 244.660 23.710,244.710 24.044,244.772 23.636 C 244.834 23.229,244.834 22.562,244.772 22.155 C 244.710 21.747,244.660 22.081,244.660 22.896 M266.667 23.838 C 267.169 24.357,267.641 24.781,267.715 24.781 C 267.789 24.781,267.439 24.357,266.936 23.838 C 266.433 23.320,265.962 22.896,265.888 22.896 C 265.814 22.896,266.164 23.320,266.667 23.838 M215.579 27.205 C 215.579 28.316,215.626 28.771,215.684 28.215 C 215.743 27.660,215.743 26.751,215.684 26.195 C 215.626 25.640,215.579 26.094,215.579 27.205 M131.922 25.780 C 132.257 25.844,132.742 25.842,133.000 25.774 C 133.257 25.707,132.983 25.654,132.391 25.657 C 131.798 25.660,131.587 25.715,131.922 25.780 M193.761 28.283 C 193.761 29.394,193.808 29.848,193.866 29.293 C 193.924 28.737,193.924 27.828,193.866 27.273 C 193.808 26.717,193.761 27.172,193.761 28.283 M144.684 27.475 C 144.684 27.697,144.789 28.121,144.916 28.418 C 145.062 28.757,145.147 28.807,145.147 28.552 C 145.147 28.330,145.043 27.906,144.916 27.609 C 144.770 27.270,144.684 27.220,144.684 27.475 M191.583 29.226 C 191.586 29.818,191.641 30.029,191.706 29.694 C 191.770 29.359,191.768 28.874,191.700 28.616 C 191.633 28.359,191.580 28.633,191.583 29.226 M146.040 29.809 C 146.013 30.631,145.855 31.257,145.657 31.337 C 145.393 31.443,145.395 31.477,145.665 31.494 C 146.154 31.524,146.313 30.950,146.192 29.593 L 146.087 28.418 146.040 29.809 M145.248 30.168 C 145.248 30.687,145.303 30.899,145.371 30.640 C 145.439 30.380,145.439 29.956,145.371 29.697 C 145.303 29.438,145.248 29.650,145.248 30.168 M215.496 30.876 C 215.480 31.478,216.223 31.843,216.818 31.524 C 217.124 31.361,217.374 31.101,217.374 30.948 C 217.374 30.794,217.183 30.859,216.950 31.092 C 216.404 31.638,216.118 31.626,215.779 31.044 C 215.628 30.785,215.501 30.709,215.496 30.876 M191.621 34.478 C 191.621 36.478,191.663 37.296,191.715 36.296 C 191.767 35.296,191.767 33.660,191.715 32.660 C 191.663 31.660,191.621 32.478,191.621 34.478 M167.900 34.074 C 167.901 35.111,167.950 35.502,168.008 34.943 C 168.066 34.385,168.065 33.536,168.006 33.058 C 167.946 32.580,167.899 33.037,167.900 34.074 M193.212 35.825 C 193.212 36.640,193.263 36.973,193.324 36.566 C 193.386 36.158,193.386 35.492,193.324 35.084 C 193.263 34.677,193.212 35.010,193.212 35.825 M191.825 41.145 C 191.787 43.470,191.820 43.636,192.323 43.636 C 192.907 43.636,193.062 43.209,192.542 43.036 C 192.352 42.973,192.149 42.059,192.044 40.791 L 191.866 38.653 191.825 41.145 M277.576 40.135 C 278.154 40.727,278.688 41.212,278.763 41.212 C 278.837 41.212,278.424 40.727,277.845 40.135 C 277.266 39.542,276.732 39.057,276.658 39.057 C 276.584 39.057,276.997 39.542,277.576 40.135 M266.177 40.166 C 267.409 40.628,268.781 41.102,269.226 41.220 C 269.939 41.410,271.098 41.838,273.412 42.767 C 274.760 43.308,274.761 43.592,273.432 46.360 C 271.964 49.418,269.111 55.738,268.096 58.182 C 267.881 58.700,267.540 59.488,267.340 59.933 C 266.748 61.247,266.246 62.476,265.193 65.185 C 264.647 66.593,264.075 68.047,263.923 68.418 C 263.770 68.788,263.058 70.848,262.340 72.997 C 261.622 75.145,260.726 77.738,260.349 78.760 C 259.972 79.782,259.663 80.661,259.663 80.713 C 259.663 80.918,258.409 80.790,256.852 80.426 C 255.954 80.217,254.293 79.899,253.161 79.720 C 250.274 79.264,250.327 79.396,251.838 76.391 C 252.568 74.940,253.292 73.189,253.448 72.499 C 254.761 66.674,259.983 48.980,261.132 46.465 C 261.335 46.020,261.877 44.537,262.337 43.168 C 263.152 40.745,263.715 39.327,263.863 39.327 C 263.903 39.327,264.945 39.704,266.177 40.166 M192.935 41.481 C 192.935 42.148,192.988 42.421,193.052 42.088 C 193.116 41.754,193.116 41.209,193.052 40.875 C 192.988 40.542,192.935 40.815,192.935 41.481 M191.460 48.144 C 190.742 48.310,190.668 48.992,190.969 52.692 C 191.340 57.265,191.911 58.066,192.166 54.370 C 192.261 52.985,192.403 51.185,192.481 50.370 C 192.637 48.758,192.269 47.956,191.460 48.144 M192.036 50.707 L 192.018 52.929 191.636 51.717 C 191.015 49.747,191.121 48.780,191.987 48.506 C 192.024 48.494,192.046 49.485,192.036 50.707 M270.212 66.678 C 270.040 67.056,269.904 67.511,269.910 67.689 C 269.915 67.868,270.099 67.601,270.318 67.097 C 270.778 66.037,270.681 65.650,270.212 66.678 M269.459 68.581 C 269.358 68.861,268.926 69.985,268.499 71.078 C 268.072 72.171,267.775 73.117,267.839 73.181 C 267.903 73.245,268.392 72.178,268.925 70.811 C 269.459 69.443,269.838 68.267,269.769 68.198 C 269.699 68.128,269.560 68.301,269.459 68.581 M267.227 74.033 C 267.067 74.333,266.937 74.737,266.938 74.932 C 266.939 75.127,267.123 74.935,267.347 74.505 C 267.571 74.076,267.701 73.672,267.636 73.607 C 267.571 73.542,267.387 73.734,267.227 74.033 M265.842 77.365 C 265.645 77.851,265.144 78.808,264.728 79.491 C 263.954 80.764,263.768 81.727,264.239 82.018 C 264.388 82.110,264.439 82.010,264.355 81.789 C 264.271 81.573,264.711 80.348,265.331 79.067 C 265.950 77.786,266.400 76.680,266.329 76.610 C 266.258 76.539,266.039 76.879,265.842 77.365 M120.641 79.133 C 120.553 79.668,120.592 79.920,120.742 79.770 C 120.877 79.634,120.943 79.237,120.888 78.886 C 120.803 78.347,120.765 78.385,120.641 79.133 M167.273 84.590 C 164.976 84.692,161.401 84.907,159.327 85.069 C 157.253 85.231,153.374 85.497,150.707 85.660 C 144.671 86.029,137.403 86.679,135.623 87.009 C 134.882 87.146,133.306 87.460,132.121 87.706 C 130.868 87.967,128.351 88.187,126.103 88.232 C 123.979 88.275,122.172 88.378,122.088 88.462 C 121.848 88.702,121.411 94.411,121.415 97.239 C 121.447 116.958,122.106 132.485,122.970 133.884 C 123.119 134.124,123.571 137.993,124.039 143.030 C 124.776 150.967,124.956 152.514,125.776 157.980 C 126.959 165.861,126.915 165.629,128.902 174.680 C 130.297 181.038,130.577 182.123,131.853 186.128 C 132.348 187.684,133.061 190.120,133.437 191.543 C 133.814 192.966,134.297 194.663,134.512 195.314 C 135.137 197.203,137.220 204.924,138.684 210.774 C 140.083 216.362,140.448 217.570,142.107 222.088 C 142.651 223.569,143.156 225.055,143.230 225.390 C 144.022 228.995,163.164 231.786,174.411 229.936 C 175.744 229.717,178.471 229.223,180.471 228.840 C 182.471 228.456,184.835 228.012,185.724 227.854 C 189.702 227.144,196.956 225.435,198.114 224.935 C 198.411 224.807,199.320 224.433,200.135 224.105 C 211.342 219.586,223.899 207.905,229.666 196.633 C 231.196 193.643,230.129 184.292,227.408 176.835 C 225.470 171.524,219.320 160.485,214.579 153.805 C 206.546 142.488,191.387 126.654,176.700 114.239 C 173.928 111.896,173.892 111.708,176.162 111.453 C 194.573 109.378,213.958 112.896,226.263 120.543 C 226.781 120.865,228.348 121.774,229.744 122.563 C 231.141 123.352,233.507 124.795,235.003 125.770 C 236.498 126.745,237.962 127.689,238.255 127.869 C 238.548 128.049,240.571 129.299,242.751 130.647 C 253.814 137.488,262.187 139.597,270.168 137.551 C 275.804 136.107,275.926 135.858,273.405 130.918 C 270.977 126.158,270.170 112.129,271.686 101.010 C 271.939 99.158,272.155 97.002,272.167 96.219 L 272.189 94.796 268.751 93.338 C 263.455 91.092,261.803 90.580,254.815 89.018 C 250.757 88.110,247.665 87.563,244.848 87.254 C 234.217 86.086,233.982 86.063,225.724 85.382 C 216.311 84.606,178.488 84.093,167.273 84.590 M114.277 94.411 C 114.280 95.003,114.335 95.214,114.399 94.879 C 114.464 94.544,114.461 94.059,114.394 93.802 C 114.326 93.544,114.274 93.818,114.277 94.411 M278.053 107.205 C 278.053 107.872,278.106 108.145,278.170 107.811 C 278.234 107.478,278.234 106.933,278.170 106.599 C 278.106 106.266,278.053 106.539,278.053 107.205 M113.784 113.670 C 113.784 116.855,113.823 118.158,113.871 116.566 C 113.919 114.973,113.919 112.367,113.871 110.774 C 113.823 109.182,113.784 110.485,113.784 113.670 M277.778 111.380 C 277.781 111.973,277.837 112.184,277.901 111.849 C 277.965 111.514,277.963 111.029,277.896 110.771 C 277.828 110.514,277.775 110.788,277.778 111.380 M277.784 118.788 C 277.784 119.455,277.836 119.727,277.901 119.394 C 277.965 119.061,277.965 118.515,277.901 118.182 C 277.836 117.848,277.784 118.121,277.784 118.788 M278.042 123.636 C 278.042 124.155,278.098 124.367,278.165 124.108 C 278.233 123.848,278.233 123.424,278.165 123.165 C 278.098 122.906,278.042 123.118,278.042 123.636 M114.013 127.677 C 114.013 128.343,114.065 128.616,114.129 128.283 C 114.194 127.949,114.194 127.404,114.129 127.071 C 114.065 126.737,114.013 127.010,114.013 127.677 M114.301 132.660 C 114.302 133.845,114.349 134.296,114.406 133.663 C 114.463 133.029,114.462 132.060,114.405 131.508 C 114.347 130.956,114.300 131.475,114.301 132.660 M115.349 144.646 C 115.349 145.165,115.404 145.377,115.472 145.118 C 115.540 144.859,115.540 144.434,115.472 144.175 C 115.404 143.916,115.349 144.128,115.349 144.646 M261.010 144.213 C 261.010 144.271,261.426 144.367,261.934 144.426 C 262.442 144.485,262.799 144.438,262.726 144.321 C 262.596 144.110,261.010 144.010,261.010 144.213 M230.640 145.102 C 230.899 145.169,231.323 145.169,231.582 145.102 C 231.842 145.034,231.630 144.978,231.111 144.978 C 230.593 144.978,230.380 145.034,230.640 145.102 M277.076 146.375 C 276.833 146.747,276.633 147.180,276.633 147.336 C 276.633 147.845,274.929 151.206,273.844 152.836 C 272.627 154.665,272.309 155.076,270.870 156.683 L 269.822 157.855 270.010 159.803 C 270.113 160.874,270.292 162.943,270.407 164.400 C 270.645 167.433,270.721 167.532,272.816 167.538 C 275.245 167.545,282.739 168.579,286.465 169.421 C 289.238 170.048,291.361 170.578,291.852 170.766 C 292.148 170.879,293.300 171.243,294.411 171.574 C 298.184 172.697,305.430 175.841,306.530 176.832 C 308.655 178.745,308.804 177.368,306.894 173.475 C 302.370 164.259,291.907 153.183,282.963 148.144 C 278.411 145.578,277.732 145.374,277.076 146.375 M280.673 147.280 C 290.994 152.746,301.687 163.630,306.620 173.690 C 308.197 176.906,308.194 177.610,306.609 176.490 C 303.617 174.376,295.349 171.162,288.754 169.549 C 284.866 168.599,278.707 167.663,272.795 167.126 L 270.976 166.960 270.967 165.164 C 270.962 164.176,270.782 162.397,270.568 161.212 C 270.041 158.294,270.059 158.085,270.909 157.154 C 273.529 154.285,275.509 151.146,277.132 147.292 C 277.755 145.813,277.903 145.812,280.673 147.280 M115.887 148.956 C 115.887 149.475,115.943 149.687,116.011 149.428 C 116.078 149.168,116.078 148.744,116.011 148.485 C 115.943 148.226,115.887 148.438,115.887 148.956 M296.700 151.650 C 297.879 152.835,298.903 153.805,298.977 153.805 C 299.051 153.805,298.148 152.835,296.970 151.650 C 295.791 150.465,294.767 149.495,294.693 149.495 C 294.619 149.495,295.522 150.465,296.700 151.650 M255.202 150.909 L 254.411 151.785 255.286 150.993 C 255.768 150.558,256.162 150.164,256.162 150.118 C 256.162 149.910,255.939 150.093,255.202 150.909 M237.845 150.387 C 237.845 150.434,238.239 150.828,238.721 151.263 L 239.596 152.054 238.805 151.178 C 238.067 150.362,237.845 150.179,237.845 150.387 M253.333 152.616 L 252.525 153.311 253.401 152.731 C 253.882 152.413,254.276 152.100,254.276 152.036 C 254.276 151.834,254.162 151.904,253.333 152.616 M257.361 154.949 L 256.296 156.094 257.441 155.030 C 258.506 154.039,258.710 153.805,258.506 153.805 C 258.462 153.805,257.947 154.320,257.361 154.949 M246.122 154.538 C 246.600 154.597,247.449 154.598,248.007 154.540 C 248.566 154.482,248.175 154.433,247.138 154.432 C 246.101 154.431,245.644 154.478,246.122 154.538 M269.677 173.822 C 269.354 174.165,269.091 174.644,269.091 174.887 C 269.091 175.130,268.977 175.607,268.837 175.947 C 268.698 176.287,268.263 177.596,267.870 178.855 C 265.380 186.844,262.947 191.532,259.634 194.726 C 258.120 196.185,258.040 196.617,259.040 197.954 C 261.455 201.185,267.483 204.949,271.582 205.786 C 280.158 207.537,282.534 207.085,286.734 202.905 C 289.276 200.374,289.275 200.376,291.287 194.883 C 294.459 186.221,298.512 181.709,303.434 181.359 C 308.992 180.963,308.478 179.839,301.684 177.527 C 300.276 177.048,298.882 176.552,298.586 176.425 C 298.290 176.298,297.380 176.054,296.566 175.884 C 295.751 175.713,294.308 175.405,293.360 175.200 C 284.048 173.181,270.992 172.421,269.677 173.822 M282.155 173.860 C 284.377 174.075,286.801 174.371,287.542 174.518 C 288.283 174.665,289.737 174.920,290.774 175.084 C 295.752 175.871,302.541 177.914,306.195 179.724 C 307.335 180.288,306.605 180.729,304.512 180.739 C 302.316 180.749,298.733 182.202,297.142 183.727 C 295.423 185.375,291.933 191.781,290.552 195.825 C 289.259 199.611,288.833 200.307,286.274 202.826 C 283.199 205.852,282.347 206.202,278.114 206.180 C 271.218 206.146,264.617 203.459,260.433 198.985 C 258.254 196.655,258.255 196.674,260.263 194.677 C 263.664 191.292,265.890 186.768,268.842 177.239 C 269.324 175.684,269.954 174.199,270.242 173.939 C 270.922 173.328,276.284 173.293,282.155 173.860 M312.054 183.704 L 310.707 183.888 311.971 183.931 C 312.666 183.954,313.309 183.852,313.401 183.704 C 313.492 183.556,313.530 183.453,313.484 183.477 C 313.438 183.500,312.795 183.602,312.054 183.704 M302.661 185.264 C 302.589 185.381,302.945 185.428,303.453 185.369 C 303.961 185.309,304.377 185.214,304.377 185.156 C 304.377 184.953,302.791 185.053,302.661 185.264 M226.195 240.729 C 226.529 240.793,227.074 240.793,227.407 240.729 C 227.741 240.665,227.468 240.612,226.801 240.612 C 226.135 240.612,225.862 240.665,226.195 240.729 M222.559 240.994 C 222.818 241.062,223.242 241.062,223.502 240.994 C 223.761 240.926,223.549 240.871,223.030 240.871 C 222.512 240.871,222.300 240.926,222.559 240.994 M219.464 241.268 C 219.799 241.332,220.284 241.330,220.542 241.263 C 220.799 241.195,220.525 241.142,219.933 241.145 C 219.340 241.148,219.129 241.204,219.464 241.268 M173.943 241.537 C 174.278 241.602,174.762 241.599,175.020 241.532 C 175.278 241.464,175.003 241.412,174.411 241.415 C 173.818 241.418,173.607 241.473,173.943 241.537 M211.919 241.542 C 212.401 241.601,213.189 241.601,213.670 241.542 C 214.152 241.482,213.758 241.433,212.795 241.433 C 211.832 241.433,211.438 241.482,211.919 241.542 M206.936 241.809 C 207.343 241.871,208.010 241.871,208.418 241.809 C 208.825 241.747,208.492 241.697,207.677 241.697 C 206.862 241.697,206.529 241.747,206.936 241.809 M178.793 242.081 C 179.277 242.141,180.004 242.139,180.409 242.078 C 180.814 242.017,180.418 241.967,179.529 241.969 C 178.640 241.971,178.309 242.021,178.793 242.081 M196.570 242.081 C 197.055 242.141,197.782 242.139,198.187 242.078 C 198.591 242.017,198.195 241.967,197.306 241.969 C 196.418 241.971,196.086 242.021,196.570 242.081 " stroke="none" fill="#84051b" fill-rule="evenodd"></path><path id="path1" d="M195.229 9.509 C 193.862 10.596,193.310 17.188,193.702 27.744 C 193.788 30.043,193.311 39.584,192.965 42.492 C 192.860 43.371,192.715 43.636,192.337 43.636 C 191.840 43.636,191.205 33.349,191.580 31.385 C 192.201 28.137,190.592 22.263,188.679 20.795 C 187.051 19.545,180.542 19.676,177.374 21.023 C 177.077 21.149,175.623 21.631,174.141 22.093 C 170.896 23.107,169.443 23.679,168.843 24.181 C 168.243 24.682,167.820 23.930,167.790 22.307 C 167.698 17.373,166.434 16.852,155.190 17.106 C 144.543 17.347,143.851 17.746,144.919 23.030 C 145.099 23.919,145.340 25.192,145.455 25.859 C 145.570 26.525,145.799 27.494,145.964 28.012 C 146.349 29.224,146.349 31.161,145.963 31.399 C 145.559 31.649,145.197 31.019,145.177 30.034 C 145.086 25.436,142.522 23.775,137.475 25.046 C 136.308 25.340,134.020 25.649,132.391 25.732 C 121.227 26.304,120.489 27.307,122.401 39.292 C 122.908 42.473,122.687 42.828,120.205 42.828 C 116.105 42.828,114.122 47.111,115.776 52.391 C 116.031 53.203,116.783 57.232,117.008 58.990 C 117.074 59.508,117.317 60.963,117.548 62.222 C 118.047 64.950,118.714 68.789,119.045 70.842 C 119.176 71.657,119.486 73.111,119.733 74.074 C 121.287 80.137,121.375 79.593,118.611 80.942 C 116.054 82.189,116.361 81.938,116.088 83.009 C 115.963 83.502,115.624 84.815,115.335 85.926 C 113.847 91.655,113.499 122.935,114.761 137.643 C 114.894 139.199,115.189 142.047,115.416 143.973 C 115.643 145.899,115.946 148.566,116.088 149.899 C 116.230 151.232,116.537 153.535,116.768 155.017 C 117.000 156.498,117.359 158.983,117.565 160.539 C 117.772 162.094,118.142 164.458,118.387 165.791 C 118.633 167.125,118.936 168.822,119.062 169.562 C 119.188 170.303,119.485 171.697,119.722 172.660 C 119.959 173.623,120.396 175.623,120.693 177.104 C 121.479 181.017,122.000 183.439,122.287 184.512 C 122.535 185.437,123.704 189.519,124.176 191.111 C 124.308 191.556,124.777 193.313,125.218 195.017 C 125.658 196.721,126.220 198.781,126.465 199.596 C 126.971 201.276,127.192 202.170,127.759 204.848 C 127.979 205.886,128.415 207.582,128.728 208.620 C 129.041 209.657,129.487 211.172,129.721 211.987 C 130.391 214.329,132.421 220.523,133.340 223.030 C 133.801 224.290,134.357 225.805,134.575 226.397 C 134.793 226.990,135.212 228.226,135.505 229.144 C 136.243 231.448,139.347 233.652,144.108 235.255 C 144.774 235.479,145.987 235.922,146.801 236.238 C 147.616 236.555,148.646 236.913,149.091 237.035 C 149.535 237.156,150.505 237.457,151.246 237.704 C 151.987 237.951,152.956 238.252,153.401 238.374 C 153.845 238.496,154.936 238.796,155.825 239.042 C 159.729 240.121,165.735 240.966,172.121 241.335 C 174.418 241.468,177.751 241.720,179.529 241.895 C 187.674 242.699,224.527 241.322,233.939 239.862 C 235.421 239.632,237.360 239.340,238.249 239.213 C 240.835 238.843,246.015 237.860,248.350 237.296 C 248.869 237.171,250.444 236.871,251.852 236.630 C 255.564 235.994,258.584 235.416,259.663 235.134 C 260.182 234.998,261.212 234.773,261.953 234.633 C 266.119 233.848,270.304 231.892,274.058 228.977 C 276.655 226.959,277.107 225.201,276.241 220.471 C 274.862 212.939,274.834 213.006,279.731 212.266 C 287.667 211.068,293.150 206.045,295.330 197.980 C 295.868 195.988,296.472 194.057,296.804 193.266 C 296.928 192.970,297.295 191.941,297.618 190.979 C 298.676 187.835,300.446 185.589,301.866 185.589 C 302.161 185.589,302.492 185.498,302.601 185.387 C 302.858 185.127,307.596 184.319,311.874 183.806 C 313.646 183.593,313.758 183.340,313.029 181.183 C 312.715 180.252,312.454 179.136,312.449 178.702 C 312.445 178.268,312.263 177.677,312.045 177.390 C 311.828 177.102,311.650 176.585,311.650 176.241 C 311.650 175.897,311.535 175.405,311.394 175.148 C 311.253 174.891,310.707 173.493,310.180 172.043 C 309.112 169.103,307.791 166.325,306.710 164.744 C 306.316 164.167,305.993 163.585,305.993 163.450 C 305.993 163.051,303.019 158.653,302.749 158.653 C 302.613 158.653,302.425 158.348,302.332 157.976 C 302.238 157.603,301.842 157.047,301.451 156.741 C 301.060 156.434,300.607 155.936,300.444 155.634 C 300.034 154.875,293.566 148.418,293.214 148.416 C 293.057 148.415,292.518 147.931,292.016 147.339 C 291.514 146.747,290.957 146.263,290.778 146.263 C 290.600 146.263,290.240 146.026,289.978 145.737 C 289.560 145.275,286.652 143.374,285.224 142.630 C 284.943 142.483,284.714 142.271,284.714 142.158 C 284.714 142.045,284.551 141.953,284.352 141.953 C 282.519 141.953,279.464 134.545,278.799 128.485 C 278.676 127.374,278.419 125.798,278.226 124.983 C 277.982 123.952,277.871 121.088,277.861 115.556 C 277.842 105.850,278.136 103.536,280.384 95.694 C 281.079 93.268,281.085 92.379,280.413 91.062 C 279.912 90.080,277.315 87.542,276.811 87.542 C 276.682 87.542,276.074 87.209,275.460 86.801 C 274.455 86.134,272.542 85.154,270.303 84.159 C 269.498 83.801,266.451 82.725,264.916 82.256 C 263.799 81.915,263.754 81.089,264.762 79.451 C 265.217 78.712,265.589 78.051,265.589 77.983 C 265.589 77.868,266.496 75.786,267.351 73.939 C 267.556 73.495,268.096 72.162,268.551 70.976 C 269.005 69.791,269.480 68.579,269.606 68.283 C 269.731 67.987,270.047 67.199,270.307 66.532 C 270.567 65.865,271.066 64.680,271.417 63.898 C 271.767 63.117,272.054 62.412,272.054 62.332 C 272.054 62.253,272.357 61.525,272.727 60.715 C 273.098 59.906,273.401 59.192,273.401 59.129 C 273.401 59.017,274.294 57.030,275.853 53.676 C 276.282 52.753,276.633 51.884,276.633 51.745 C 276.633 51.605,276.804 51.148,277.012 50.729 C 278.650 47.434,279.615 43.366,279.070 42.050 C 278.701 41.161,276.008 38.520,275.467 38.517 C 275.293 38.516,274.788 38.322,274.343 38.086 C 273.899 37.850,272.384 37.296,270.976 36.855 C 265.565 35.160,265.726 35.390,267.342 31.650 C 267.659 30.916,267.977 29.730,268.410 27.666 C 268.954 25.074,265.534 22.154,258.990 19.621 C 257.777 19.152,256.825 18.753,255.219 18.041 C 252.604 16.883,251.736 17.101,250.124 19.321 C 248.803 21.143,246.736 26.619,246.733 28.307 C 246.732 29.009,245.811 30.707,245.431 30.707 C 243.492 30.707,243.262 30.015,244.035 26.518 C 244.577 24.064,244.730 21.631,244.373 21.145 C 243.884 20.479,240.837 19.394,239.458 19.394 C 239.174 19.394,238.422 19.230,237.787 19.029 C 237.152 18.829,235.481 18.459,234.074 18.207 C 232.667 17.956,230.788 17.605,229.899 17.427 C 229.010 17.250,226.456 17.104,224.223 17.104 C 217.918 17.104,217.710 17.385,217.455 26.203 C 217.320 30.854,217.266 31.284,216.785 31.542 C 215.517 32.220,215.431 31.690,215.639 24.516 C 215.942 14.071,215.680 12.810,213.026 11.930 C 212.528 11.765,211.030 11.247,209.697 10.780 C 206.216 9.559,196.266 8.685,195.229 9.509 M205.926 13.631 C 208.809 14.438,211.457 15.699,211.618 16.342 C 211.703 16.679,211.610 19.231,211.412 22.013 C 211.028 27.402,211.028 27.584,211.396 47.003 C 211.676 61.749,212.251 67.155,213.614 67.885 C 214.534 68.377,214.900 65.087,215.127 54.276 C 215.389 41.846,215.389 42.776,215.126 38.877 C 214.881 35.246,215.107 34.728,216.758 35.142 L 217.440 35.313 217.280 39.273 C 217.192 41.450,217.001 44.444,216.856 45.926 C 216.476 49.796,216.493 63.173,216.880 64.512 C 217.051 65.104,217.323 66.428,217.484 67.453 C 217.838 69.696,218.445 70.183,218.463 68.238 C 218.469 67.522,218.599 66.391,218.752 65.724 C 219.191 63.803,219.791 57.904,220.045 53.019 C 220.173 50.550,220.348 48.415,220.435 48.274 C 220.522 48.134,220.719 45.790,220.873 43.067 C 221.026 40.343,221.266 36.781,221.404 35.152 C 221.543 33.522,221.662 30.394,221.670 28.200 C 221.692 21.701,221.906 21.325,225.393 21.663 C 228.954 22.009,237.568 23.819,238.923 24.505 C 239.656 24.877,238.836 30.194,237.573 33.266 C 237.451 33.562,237.295 34.047,237.225 34.343 C 237.156 34.640,236.834 35.852,236.509 37.037 C 235.708 39.966,234.992 43.283,234.186 47.811 C 233.187 53.418,232.648 60.215,232.807 65.185 C 232.997 71.094,233.828 74.092,234.921 72.803 C 235.498 72.123,236.229 69.212,236.229 67.598 C 236.229 66.846,236.350 65.420,236.499 64.429 C 236.647 63.437,236.897 61.414,237.054 59.933 C 237.619 54.589,237.793 53.172,238.076 51.582 C 238.235 50.694,238.564 48.754,238.809 47.273 C 239.255 44.572,239.797 41.896,240.255 40.135 C 240.390 39.616,240.702 38.343,240.949 37.306 C 241.197 36.269,241.456 35.209,241.526 34.949 C 241.691 34.337,243.568 34.308,244.979 34.898 C 245.877 35.273,245.964 35.394,245.801 36.042 C 245.701 36.441,245.518 37.624,245.395 38.670 C 245.272 39.716,245.039 41.049,244.877 41.633 C 244.715 42.216,244.581 43.140,244.581 43.686 C 244.580 44.232,244.458 44.998,244.309 45.388 C 244.161 45.779,243.911 47.090,243.753 48.302 C 243.596 49.514,243.288 51.838,243.069 53.468 C 241.768 63.173,241.835 71.650,243.212 71.650 C 243.510 71.650,244.252 69.261,244.718 66.801 C 245.521 62.565,245.637 61.825,245.793 59.961 C 245.879 58.939,246.065 57.887,246.207 57.622 C 246.349 57.357,246.468 56.617,246.471 55.977 C 246.475 55.338,246.598 54.330,246.744 53.737 C 246.891 53.145,247.130 51.811,247.275 50.774 C 247.419 49.737,247.730 47.737,247.965 46.330 C 248.201 44.923,248.448 43.347,248.515 42.828 C 248.825 40.414,249.433 35.299,249.539 34.209 C 249.603 33.542,249.843 32.269,250.071 31.380 C 250.299 30.492,250.660 29.037,250.875 28.148 C 251.364 26.118,251.757 24.836,252.153 23.973 C 252.323 23.603,252.596 23.012,252.759 22.661 C 253.303 21.488,254.419 21.802,260.907 24.949 C 264.016 26.458,264.431 26.879,263.982 28.074 C 262.229 32.732,261.174 35.003,260.286 36.023 C 259.870 36.502,259.128 38.017,258.638 39.390 C 257.751 41.877,257.203 43.315,256.556 44.848 C 256.195 45.704,254.170 51.562,253.762 52.929 C 253.630 53.374,253.315 54.465,253.061 55.354 C 252.808 56.242,252.445 57.515,252.255 58.182 C 251.918 59.366,251.303 62.218,250.745 65.185 C 250.591 66.000,250.300 67.455,250.098 68.418 C 249.309 72.176,249.283 78.567,250.058 78.308 C 250.561 78.141,252.030 75.480,252.596 73.712 C 253.305 71.497,253.694 70.095,255.751 62.357 C 256.106 61.024,256.572 59.327,256.787 58.586 C 257.003 57.845,257.366 56.572,257.595 55.758 C 258.291 53.280,260.444 46.894,261.547 44.040 C 262.120 42.559,262.656 41.029,262.738 40.640 C 263.064 39.108,263.717 38.680,264.924 39.205 C 266.820 40.030,267.033 40.109,269.630 40.939 C 271.037 41.389,272.510 41.938,272.904 42.158 C 273.297 42.379,273.805 42.559,274.033 42.559 C 275.299 42.559,275.273 43.561,273.939 46.277 C 273.234 47.713,272.449 49.374,272.196 49.966 C 271.943 50.559,271.514 51.529,271.244 52.121 C 269.391 56.184,268.745 57.661,267.355 61.010 C 264.654 67.516,263.934 69.423,262.215 74.613 C 261.699 76.168,261.165 77.684,261.028 77.980 C 260.891 78.276,260.642 78.963,260.476 79.507 C 259.997 81.077,259.665 81.223,257.424 80.850 C 256.359 80.674,254.644 80.414,253.613 80.275 C 252.582 80.135,251.188 79.903,250.516 79.759 C 248.047 79.229,244.753 78.640,240.673 77.999 C 239.340 77.789,237.401 77.416,236.364 77.171 C 235.327 76.925,233.630 76.620,232.593 76.493 C 231.556 76.366,229.556 76.054,228.148 75.801 C 225.325 75.292,224.755 75.254,214.276 74.866 C 210.276 74.718,203.367 74.461,198.923 74.293 C 194.478 74.126,190.296 73.995,189.630 74.002 C 180.504 74.099,162.736 74.667,158.653 74.992 C 155.764 75.222,151.241 75.532,148.602 75.680 C 145.963 75.828,143.698 76.014,143.570 76.094 C 143.441 76.173,142.146 76.360,140.692 76.510 C 137.105 76.878,132.915 77.456,129.832 78.009 C 125.429 78.798,125.450 78.803,125.030 76.902 C 124.833 76.013,124.508 74.680,124.307 73.939 C 123.994 72.783,123.523 70.167,122.973 66.532 C 122.356 62.450,121.966 59.615,121.769 57.778 C 121.641 56.593,121.408 54.896,121.251 54.007 C 120.154 47.820,120.144 47.862,122.741 47.525 L 124.135 47.343 124.559 48.771 C 124.792 49.556,124.983 50.498,124.983 50.864 C 124.983 51.886,126.136 57.613,126.863 60.202 C 127.855 63.734,128.888 66.264,129.865 67.555 L 130.333 68.174 130.524 66.903 C 130.731 65.521,130.511 61.166,130.104 58.586 C 129.419 54.248,129.199 52.812,129.012 51.448 C 128.900 50.633,128.604 48.936,128.353 47.677 C 128.103 46.418,127.717 44.478,127.496 43.367 C 127.274 42.256,126.994 40.135,126.874 38.653 C 126.753 37.172,126.565 34.973,126.456 33.767 C 126.191 30.839,126.078 30.900,132.806 30.336 C 135.701 30.093,138.457 29.748,138.930 29.570 C 140.375 29.024,140.681 29.953,141.164 36.364 C 141.421 39.778,141.863 45.267,142.471 52.596 C 142.615 54.338,142.808 55.886,142.900 56.035 C 142.992 56.184,143.176 57.243,143.307 58.388 C 143.641 61.292,144.187 63.545,144.928 65.075 L 145.559 66.380 145.797 65.464 C 146.237 63.764,145.461 42.877,144.800 38.653 C 144.337 35.698,144.462 35.441,146.402 35.339 C 148.386 35.235,148.408 35.274,148.413 38.920 C 148.429 49.849,149.360 61.239,150.401 63.226 L 150.785 63.958 151.244 62.888 C 152.597 59.732,152.826 42.516,151.614 35.017 C 151.067 31.633,150.917 30.838,150.748 30.438 C 150.655 30.215,150.456 29.246,150.307 28.283 C 150.157 27.320,149.865 25.623,149.657 24.512 C 149.397 23.122,149.365 22.387,149.554 22.155 C 150.017 21.590,162.244 21.680,162.718 22.251 C 162.987 22.576,163.128 24.608,163.280 30.399 C 163.391 34.643,163.590 38.776,163.720 39.585 C 163.851 40.393,163.902 42.757,163.832 44.837 C 163.763 46.917,163.856 50.135,164.040 51.987 C 164.223 53.838,164.470 56.444,164.589 57.778 C 164.954 61.865,166.448 66.301,167.103 65.242 C 167.498 64.602,167.729 60.653,167.526 58.012 C 167.154 53.187,167.212 41.595,167.609 41.282 C 168.139 40.864,170.177 40.630,170.383 40.963 C 170.481 41.122,170.552 45.385,170.539 50.435 C 170.506 63.354,171.553 66.707,173.421 59.663 C 174.556 55.383,174.592 38.843,173.480 32.727 C 172.387 26.713,172.026 27.444,176.835 25.925 C 182.471 24.144,185.442 23.783,186.078 24.801 C 186.559 25.571,187.137 31.275,187.482 38.653 C 187.641 42.061,187.884 47.254,188.022 50.194 C 188.377 57.767,189.034 65.872,189.435 67.609 C 190.102 70.498,190.888 69.075,190.953 64.864 C 191.000 61.782,191.850 62.692,192.258 66.263 C 192.568 68.975,193.179 70.842,193.757 70.842 C 194.625 70.842,195.208 66.927,195.824 56.970 C 195.962 54.747,196.267 50.990,196.502 48.620 C 197.210 41.504,197.723 33.427,197.965 25.589 C 198.091 21.515,198.325 17.697,198.485 17.104 C 198.644 16.512,198.778 15.457,198.781 14.761 C 198.786 13.845,198.918 13.418,199.259 13.218 C 199.864 12.862,204.124 13.126,205.926 13.631 M169.052 33.152 C 169.447 35.799,169.443 35.955,168.979 36.295 C 168.058 36.969,167.737 36.033,167.913 33.183 C 168.162 29.167,168.458 29.159,169.052 33.152 M192.481 50.370 C 192.403 51.185,192.261 52.985,192.166 54.370 C 191.911 58.066,191.340 57.265,190.969 52.692 C 190.668 48.992,190.742 48.310,191.460 48.144 C 192.269 47.956,192.637 48.758,192.481 50.370 M214.007 84.719 C 216.970 84.796,222.242 85.095,225.724 85.382 C 233.982 86.063,234.217 86.086,244.848 87.254 C 247.665 87.563,250.757 88.110,254.815 89.018 C 261.803 90.580,263.455 91.092,268.751 93.338 L 272.189 94.796 272.167 96.219 C 272.155 97.002,271.939 99.158,271.686 101.010 C 270.170 112.129,270.977 126.158,273.405 130.918 C 275.497 135.018,275.460 136.048,273.195 136.716 C 262.683 139.816,255.150 138.315,242.751 130.647 C 240.571 129.299,238.548 128.049,238.255 127.869 C 237.962 127.689,236.498 126.745,235.003 125.770 C 233.507 124.795,231.141 123.352,229.744 122.563 C 228.348 121.774,226.781 120.865,226.263 120.543 C 213.958 112.896,194.573 109.378,176.162 111.453 C 173.892 111.708,173.928 111.896,176.700 114.239 C 183.885 120.312,191.590 127.600,199.022 135.354 C 211.238 148.096,218.132 157.717,225.173 171.846 C 229.540 180.609,231.718 192.623,229.666 196.633 C 223.899 207.905,211.342 219.586,200.135 224.105 C 199.320 224.433,198.411 224.807,198.114 224.935 C 196.956 225.435,189.702 227.144,185.724 227.854 C 184.835 228.012,182.471 228.456,180.471 228.840 C 178.471 229.223,175.744 229.717,174.411 229.936 C 163.164 231.786,144.022 228.995,143.230 225.390 C 143.156 225.055,142.651 223.569,142.107 222.088 C 140.448 217.570,140.083 216.362,138.684 210.774 C 137.220 204.924,135.137 197.203,134.512 195.314 C 134.297 194.663,133.814 192.966,133.437 191.543 C 133.061 190.120,132.348 187.684,131.853 186.128 C 130.577 182.123,130.297 181.038,128.902 174.680 C 126.915 165.629,126.959 165.861,125.776 157.980 C 124.956 152.514,124.776 150.967,124.039 143.030 C 123.571 137.993,123.119 134.124,122.970 133.884 C 122.106 132.485,121.447 116.958,121.415 97.239 C 121.411 94.411,121.848 88.702,122.088 88.462 C 122.172 88.378,123.979 88.275,126.103 88.232 C 128.351 88.187,130.868 87.967,132.121 87.706 C 133.306 87.460,134.882 87.146,135.623 87.009 C 137.403 86.679,144.671 86.029,150.707 85.660 C 153.374 85.497,157.253 85.231,159.327 85.069 C 161.401 84.907,164.976 84.692,167.273 84.590 C 171.733 84.392,205.039 84.484,214.007 84.719 M262.814 144.553 C 263.470 146.262,260.386 152.124,257.237 155.152 C 252.761 159.455,244.809 160.823,238.519 158.371 C 233.536 156.429,228.964 153.049,225.392 148.665 C 223.407 146.229,224.561 145.445,230.740 145.030 L 233.466 144.847 234.636 146.430 C 238.999 152.332,241.976 154.181,247.138 154.197 C 252.373 154.214,254.848 152.518,257.815 146.884 C 259.003 144.629,259.116 144.504,260.105 144.348 C 262.036 144.044,262.636 144.089,262.814 144.553 M280.528 146.799 C 283.261 148.284,284.078 148.777,285.926 150.055 C 294.737 156.149,302.823 165.181,306.894 173.475 C 308.804 177.368,308.655 178.745,306.530 176.832 C 305.430 175.841,298.184 172.697,294.411 171.574 C 293.300 171.243,292.148 170.879,291.852 170.766 C 291.361 170.578,289.238 170.048,286.465 169.421 C 282.739 168.579,275.245 167.545,272.816 167.538 C 270.721 167.532,270.645 167.433,270.407 164.400 C 270.292 162.943,270.113 160.874,270.010 159.803 L 269.822 157.855 270.870 156.683 C 272.309 155.076,272.627 154.665,273.844 152.836 C 274.929 151.206,276.633 147.845,276.633 147.336 C 276.633 145.678,278.095 145.477,280.528 146.799 M283.653 173.600 C 287.275 174.072,290.952 174.678,293.360 175.200 C 294.308 175.405,295.751 175.713,296.566 175.884 C 297.380 176.054,298.290 176.298,298.586 176.425 C 298.882 176.552,300.276 177.048,301.684 177.527 C 308.478 179.839,308.992 180.963,303.434 181.359 C 298.512 181.709,294.459 186.221,291.287 194.883 C 289.275 200.376,289.276 200.374,286.734 202.905 C 282.534 207.085,280.158 207.537,271.582 205.786 C 267.483 204.949,261.455 201.185,259.040 197.954 C 258.040 196.617,258.120 196.185,259.634 194.726 C 262.947 191.532,265.380 186.844,267.870 178.855 C 268.263 177.596,268.698 176.287,268.837 175.947 C 268.977 175.607,269.091 175.130,269.091 174.887 C 269.091 173.133,275.633 172.555,283.653 173.600 " stroke="none" fill="#0a0706" fill-rule="evenodd"></path><path id="path2" d="M0.000 134.680 L 0.000 269.360 200.000 269.360 L 400.000 269.360 400.000 134.680 L 400.000 0.000 200.000 0.000 L 0.000 0.000 0.000 134.680 M205.791 9.150 C 207.829 9.472,209.825 10.007,211.313 10.628 C 211.758 10.813,212.813 11.237,213.659 11.570 C 215.648 12.352,215.845 12.624,216.083 14.918 C 216.681 20.675,217.037 22.849,217.081 21.010 C 217.133 18.811,218.038 17.313,219.675 16.716 C 221.453 16.068,229.755 16.315,231.650 17.072 C 231.872 17.160,232.842 17.353,233.805 17.500 C 234.768 17.647,236.343 17.953,237.306 18.180 C 238.269 18.407,239.785 18.719,240.673 18.874 C 241.562 19.029,242.405 19.270,242.545 19.410 C 242.686 19.549,243.007 19.663,243.258 19.663 C 245.024 19.663,245.884 22.429,245.018 25.320 C 244.250 27.884,244.200 29.899,244.906 29.899 C 245.447 29.899,245.592 29.662,246.013 28.081 C 246.821 25.050,247.338 23.343,247.719 22.451 C 247.918 21.984,248.081 21.527,248.081 21.434 C 248.081 21.023,250.351 17.727,250.969 17.240 C 252.145 16.315,253.929 16.650,258.182 18.594 C 258.478 18.730,259.327 19.073,260.067 19.358 C 263.403 20.641,265.730 21.978,267.258 23.486 L 268.822 25.031 268.822 27.282 C 268.822 29.451,268.428 31.199,267.568 32.847 C 266.700 34.511,266.945 34.798,270.103 35.808 C 280.436 39.112,281.900 42.167,277.570 51.388 C 277.203 52.170,276.902 52.858,276.902 52.918 C 276.902 52.978,276.531 53.853,276.077 54.863 C 275.623 55.874,275.121 57.003,274.962 57.374 C 274.470 58.517,273.995 59.602,273.312 61.145 C 272.952 61.960,272.565 62.929,272.453 63.300 C 272.341 63.670,271.979 64.579,271.649 65.320 C 271.319 66.061,270.718 67.576,270.313 68.687 C 269.909 69.798,269.407 71.089,269.200 71.556 C 268.992 72.023,268.822 72.468,268.822 72.546 C 268.822 72.624,268.413 73.576,267.913 74.660 C 267.413 75.745,266.735 77.300,266.407 78.114 C 266.078 78.929,265.629 79.935,265.407 80.349 C 264.991 81.128,265.261 81.886,265.954 81.886 C 266.118 81.886,266.921 82.144,267.739 82.460 C 268.557 82.776,269.468 83.118,269.764 83.220 C 270.611 83.510,275.078 85.710,275.825 86.204 C 276.195 86.449,277.044 87.002,277.710 87.433 C 281.763 90.050,282.443 93.285,280.138 98.990 C 279.582 100.367,278.588 108.076,278.401 112.458 C 278.147 118.440,279.374 131.987,280.169 131.987 C 280.272 131.987,280.439 132.502,280.539 133.131 C 281.128 136.835,283.091 140.769,284.714 141.498 C 285.196 141.715,285.612 141.970,288.081 143.562 C 289.118 144.230,290.114 144.899,290.293 145.048 C 290.473 145.198,291.365 145.926,292.274 146.667 C 294.311 148.326,300.088 154.033,301.549 155.830 C 302.917 157.513,304.108 159.144,304.108 159.336 C 304.108 159.417,304.230 159.630,304.380 159.809 C 305.296 160.902,306.263 162.262,306.263 162.457 C 306.263 162.582,306.721 163.444,307.281 164.372 C 307.842 165.301,308.535 166.606,308.823 167.273 C 309.110 167.939,309.428 168.545,309.529 168.620 C 309.693 168.740,310.077 169.707,311.132 172.660 C 311.318 173.178,311.631 173.985,311.829 174.451 C 312.027 174.918,312.189 175.541,312.189 175.835 C 312.189 176.129,312.370 176.717,312.591 177.141 C 312.812 177.565,312.994 178.247,312.995 178.657 C 312.996 179.066,313.102 179.612,313.230 179.869 C 314.947 183.312,314.659 184.218,311.750 184.533 C 309.754 184.749,306.795 185.220,303.685 185.818 C 299.730 186.577,299.023 187.752,295.632 199.192 C 295.062 201.116,293.724 203.944,293.031 204.687 C 292.758 204.980,291.980 205.901,291.301 206.734 C 288.977 209.588,286.143 211.540,283.464 212.132 C 283.040 212.225,282.237 212.473,281.678 212.683 C 281.119 212.892,279.820 213.064,278.789 213.064 C 276.290 213.064,275.917 213.632,276.349 216.782 C 277.390 224.367,277.210 228.418,275.831 228.418 C 275.751 228.418,275.383 228.695,275.014 229.034 C 273.191 230.708,267.745 233.905,265.859 234.408 C 261.160 235.661,256.760 236.559,251.582 237.323 C 250.768 237.444,249.313 237.735,248.350 237.970 C 247.387 238.205,245.145 238.642,243.367 238.940 C 241.589 239.238,239.544 239.614,238.823 239.774 C 237.209 240.134,235.038 240.442,231.515 240.812 C 230.034 240.968,227.846 241.212,226.653 241.356 C 225.460 241.499,223.399 241.618,222.074 241.619 C 220.748 241.621,217.785 241.804,215.488 242.027 C 209.302 242.625,177.988 242.644,172.121 242.052 C 169.825 241.821,167.279 241.583,166.465 241.523 C 163.534 241.308,159.633 240.775,159.165 240.524 C 158.903 240.384,158.325 240.269,157.880 240.269 C 157.436 240.269,156.731 240.137,156.314 239.975 C 155.897 239.813,154.646 239.444,153.535 239.154 C 151.208 238.548,149.205 237.856,148.835 237.531 C 148.694 237.408,148.364 237.306,148.101 237.306 C 147.346 237.306,143.497 235.757,139.585 233.878 C 136.297 232.299,135.190 230.943,134.136 227.205 C 133.790 225.977,133.186 224.409,132.979 224.203 C 132.878 224.101,132.795 223.844,132.795 223.632 C 132.795 223.420,132.625 222.864,132.418 222.398 C 132.211 221.931,131.832 220.882,131.577 220.067 C 131.322 219.253,131.026 218.404,130.920 218.182 C 130.814 217.960,130.513 217.051,130.251 216.162 C 129.990 215.273,129.606 213.970,129.400 213.266 C 129.193 212.562,128.854 211.411,128.648 210.707 C 127.880 208.095,127.438 206.425,127.133 204.983 C 126.831 203.558,126.401 201.903,125.663 199.327 C 125.472 198.660,125.190 197.630,125.036 197.037 C 124.217 193.880,123.781 192.289,123.303 190.707 C 121.956 186.250,121.342 183.924,120.922 181.684 C 120.492 179.388,119.927 176.648,119.477 174.680 C 119.240 173.643,118.807 171.582,118.515 170.101 C 118.222 168.620,117.854 166.851,117.698 166.171 C 117.541 165.490,117.302 163.975,117.167 162.804 C 116.716 158.899,116.386 156.453,116.249 156.002 C 115.985 155.136,115.250 149.652,115.000 146.696 C 114.737 143.574,114.450 140.794,113.970 136.700 C 113.282 130.834,112.818 110.436,113.262 105.518 C 113.358 104.446,113.546 100.599,113.680 96.970 C 114.078 86.112,114.975 81.909,117.095 80.962 C 120.067 79.634,120.688 78.800,119.903 77.192 C 119.467 76.301,118.885 73.886,118.403 70.976 C 118.158 69.495,117.826 67.693,117.666 66.971 C 117.506 66.250,117.272 64.977,117.147 64.143 C 116.896 62.470,116.285 58.728,115.825 56.047 C 115.662 55.094,115.468 54.218,115.395 54.099 C 115.249 53.863,114.768 50.519,114.560 48.291 C 114.223 44.677,115.862 42.877,120.135 42.169 C 121.849 41.884,121.840 41.909,121.477 38.352 C 120.480 28.582,120.865 27.010,124.471 26.129 C 126.076 25.737,133.445 24.789,134.949 24.782 C 135.616 24.778,136.757 24.595,137.484 24.374 C 139.421 23.787,142.136 23.850,143.371 24.512 L 144.377 25.052 144.361 23.906 C 144.352 23.276,144.254 22.208,144.142 21.532 C 143.496 17.618,144.818 16.719,151.261 16.693 C 153.919 16.682,156.795 16.552,157.651 16.404 C 159.984 16.001,165.505 16.556,166.548 17.299 C 167.642 18.078,168.337 19.748,168.344 21.616 C 168.348 22.468,168.415 23.165,168.494 23.165 C 168.719 23.165,172.869 21.827,174.815 21.128 C 177.979 19.990,182.601 19.125,185.509 19.125 C 190.352 19.125,192.504 23.384,192.651 33.266 C 192.682 35.340,192.785 32.007,192.879 25.859 C 193.082 12.583,193.294 10.446,194.522 9.326 L 195.371 8.551 199.571 8.690 C 201.881 8.767,204.680 8.974,205.791 9.150 M216.075 27.865 C 216.049 29.488,216.121 30.700,216.236 30.559 C 216.351 30.418,216.373 29.091,216.284 27.609 L 216.123 24.916 216.075 27.865 M260.587 144.861 C 259.504 144.941,259.476 144.970,258.361 147.180 C 253.014 157.772,241.955 157.847,234.594 147.340 L 233.367 145.589 231.498 145.660 C 228.226 145.784,224.916 146.479,224.916 147.043 C 224.916 147.535,230.175 152.801,231.899 154.034 C 243.165 162.093,255.824 160.041,260.734 149.360 C 262.675 145.137,262.661 144.706,260.587 144.861 " stroke="none" fill="#fbfbfb" fill-rule="evenodd"></path><path id="path3" d="M199.221 13.894 C 199.131 14.128,199.054 14.886,199.051 15.578 C 199.047 16.269,198.911 17.320,198.747 17.912 C 198.583 18.505,198.353 22.566,198.235 26.936 C 198.117 31.306,197.829 37.246,197.595 40.135 C 197.362 43.024,197.056 46.842,196.916 48.620 C 196.775 50.397,196.588 52.276,196.500 52.795 C 196.411 53.313,196.224 55.919,196.083 58.586 C 195.615 67.430,194.998 71.084,193.868 71.688 C 193.303 71.990,192.369 70.218,192.122 68.375 C 191.878 66.554,191.237 67.013,190.855 69.283 C 190.671 70.377,190.279 70.790,189.841 70.353 C 188.945 69.456,188.119 62.429,187.748 52.525 C 187.435 44.188,186.743 31.693,186.405 28.289 C 186.042 24.633,185.768 24.293,183.543 24.740 C 182.693 24.911,181.681 25.051,181.294 25.051 C 180.907 25.051,178.957 25.591,176.962 26.251 L 173.333 27.451 173.411 29.416 C 173.453 30.496,173.601 31.744,173.739 32.189 C 175.987 39.443,174.437 64.178,171.758 63.784 C 170.599 63.614,170.397 61.848,170.306 51.111 L 170.223 41.212 169.338 41.212 C 167.405 41.212,167.437 41.059,167.679 49.318 C 168.002 60.364,167.915 67.974,167.467 67.698 C 167.261 67.571,166.679 66.517,165.782 64.646 C 164.407 61.782,163.789 56.991,163.486 46.869 C 162.918 27.870,162.741 23.269,162.559 22.826 C 162.268 22.117,161.709 22.063,155.556 22.146 L 149.899 22.222 149.922 23.361 C 149.934 23.987,150.078 25.138,150.242 25.919 C 150.406 26.701,150.742 28.370,150.989 29.630 C 151.237 30.889,151.549 32.276,151.683 32.713 C 153.355 38.140,152.794 62.887,150.957 64.712 C 149.551 66.109,148.156 54.950,148.151 42.264 C 148.148 35.590,148.106 35.457,146.128 35.792 C 145.095 35.967,145.053 36.013,145.119 36.910 C 145.214 38.202,145.614 44.628,145.990 50.909 C 146.314 56.334,146.277 66.877,145.932 67.222 C 144.838 68.314,142.222 58.499,142.222 53.300 C 142.222 52.413,142.105 51.178,141.962 50.557 C 141.713 49.477,141.354 45.146,140.886 37.576 C 140.670 34.078,140.161 30.473,139.832 30.112 C 139.736 30.007,138.568 30.092,137.236 30.301 C 135.904 30.510,133.158 30.785,131.132 30.913 C 126.884 31.180,126.456 31.369,126.748 32.845 C 126.852 33.373,127.037 35.380,127.159 37.306 C 127.281 39.232,127.554 41.717,127.765 42.828 C 127.976 43.939,128.407 46.182,128.722 47.811 C 129.613 52.422,129.846 53.778,130.102 55.852 C 130.233 56.911,130.472 58.566,130.634 59.529 C 131.079 62.180,130.890 68.822,130.370 68.822 C 129.855 68.822,127.559 64.260,126.982 62.088 C 125.823 57.727,124.839 53.153,124.583 50.931 C 124.351 48.926,123.761 47.571,123.212 47.782 C 122.977 47.872,122.560 47.946,122.287 47.946 C 120.926 47.946,120.696 49.495,121.501 53.241 C 121.634 53.857,121.859 55.312,122.003 56.474 C 122.301 58.893,122.957 63.882,123.348 66.706 C 123.495 67.765,123.728 69.159,123.867 69.804 C 124.006 70.449,124.324 71.946,124.574 73.131 C 125.362 76.861,125.595 77.621,125.997 77.775 C 126.527 77.978,130.827 77.465,142.357 75.822 C 143.838 75.611,147.354 75.306,150.168 75.144 C 152.983 74.982,156.801 74.719,158.653 74.560 C 160.505 74.401,166.990 74.173,173.064 74.055 C 179.138 73.936,185.441 73.724,187.071 73.585 C 188.789 73.438,191.108 73.426,192.593 73.558 C 194.000 73.683,198.909 73.911,203.502 74.064 C 216.525 74.498,225.816 74.907,226.058 75.057 C 226.318 75.218,230.669 75.906,233.464 76.229 C 234.536 76.353,235.809 76.579,236.292 76.732 C 236.776 76.885,239.475 77.394,242.289 77.864 C 245.104 78.333,247.649 78.802,247.946 78.906 C 248.862 79.226,249.492 78.948,249.333 78.292 C 248.931 76.640,248.853 74.141,249.141 72.131 C 249.942 66.522,251.674 58.338,252.804 54.815 C 252.994 54.222,253.356 53.010,253.608 52.121 C 254.021 50.662,255.478 46.541,256.702 43.367 C 256.959 42.700,257.436 41.428,257.761 40.539 C 258.826 37.627,259.222 36.781,259.991 35.781 C 260.662 34.908,261.028 34.186,262.494 30.842 C 264.253 26.830,264.081 26.571,257.912 23.961 C 257.616 23.836,256.798 23.481,256.095 23.173 C 253.275 21.939,253.520 21.905,252.744 23.637 C 252.049 25.189,251.892 25.684,251.147 28.687 C 250.927 29.576,250.559 31.030,250.331 31.919 C 250.102 32.808,249.820 34.758,249.703 36.253 C 249.587 37.748,249.414 39.214,249.320 39.511 C 249.225 39.809,249.029 41.131,248.883 42.450 C 248.737 43.769,248.440 45.879,248.222 47.138 C 248.003 48.397,247.697 50.397,247.541 51.582 C 247.385 52.768,247.140 54.089,246.996 54.518 C 246.852 54.948,246.733 55.796,246.733 56.404 C 246.732 57.011,246.598 57.986,246.437 58.569 C 246.275 59.153,246.042 60.486,245.919 61.532 C 245.356 66.322,245.089 67.877,244.570 69.372 C 244.264 70.254,243.890 71.378,243.740 71.868 C 243.298 73.312,242.638 72.897,242.106 70.840 C 241.364 67.974,241.492 62.335,242.454 55.545 C 242.607 54.466,242.844 52.647,242.980 51.505 C 243.116 50.362,243.294 49.003,243.374 48.485 C 243.820 45.604,244.398 42.195,244.721 40.539 C 244.923 39.502,245.126 37.933,245.171 37.053 L 245.253 35.452 244.000 35.061 C 242.704 34.656,241.942 34.754,241.779 35.347 C 241.686 35.687,241.465 36.657,240.166 42.424 C 239.553 45.145,239.171 47.284,238.386 52.391 C 237.861 55.810,237.033 62.870,236.522 68.283 C 236.151 72.215,234.981 74.688,234.004 73.605 C 232.649 72.101,231.962 62.885,232.703 56.150 C 233.390 49.907,233.521 48.877,233.778 47.701 C 233.926 47.021,234.245 45.434,234.487 44.175 C 235.272 40.086,235.776 37.995,236.824 34.478 C 237.503 32.199,238.951 26.731,239.115 25.823 C 239.301 24.799,236.758 23.921,230.684 22.912 C 229.931 22.787,228.658 22.541,227.856 22.366 C 227.054 22.190,225.549 22.086,224.512 22.134 L 222.626 22.222 222.334 23.704 C 222.173 24.519,221.957 28.276,221.855 32.054 C 221.753 35.832,221.553 39.892,221.411 41.077 C 221.059 44.022,220.561 50.292,220.331 54.680 C 220.081 59.461,219.568 64.508,219.247 65.352 C 219.106 65.724,218.990 66.677,218.990 67.470 C 218.990 69.318,218.807 69.764,218.047 69.764 C 217.310 69.764,217.104 69.314,217.104 67.704 C 217.104 67.040,216.962 66.232,216.788 65.908 C 216.444 65.268,215.955 59.727,215.975 56.700 C 216.006 52.055,216.554 42.084,216.816 41.397 C 216.974 40.980,217.104 39.487,217.104 38.080 L 217.104 35.521 216.229 35.606 L 215.354 35.690 215.488 37.306 C 215.562 38.195,215.605 42.377,215.583 46.599 C 215.502 62.347,214.942 69.243,213.775 68.888 C 213.250 68.728,212.214 66.247,211.955 64.532 C 211.288 60.103,211.182 57.748,211.180 47.223 C 211.179 38.874,211.091 35.659,210.850 35.102 C 210.446 34.172,210.456 27.009,210.863 24.646 C 211.016 23.758,211.180 21.515,211.227 19.663 L 211.313 16.296 209.428 15.396 C 205.827 13.675,199.653 12.767,199.221 13.894 M263.482 40.004 C 263.312 40.376,262.797 41.800,262.337 43.168 C 261.877 44.537,261.335 46.020,261.132 46.465 C 259.983 48.980,254.761 66.674,253.448 72.499 C 253.292 73.189,252.568 74.940,251.838 76.391 C 250.327 79.396,250.274 79.264,253.161 79.720 C 254.293 79.899,255.954 80.217,256.852 80.426 C 258.409 80.790,259.663 80.918,259.663 80.713 C 259.663 80.661,259.972 79.782,260.349 78.760 C 260.726 77.738,261.622 75.145,262.340 72.997 C 263.058 70.848,263.770 68.788,263.923 68.418 C 264.075 68.047,264.647 66.593,265.193 65.185 C 266.246 62.476,266.748 61.247,267.340 59.933 C 267.540 59.488,267.881 58.700,268.096 58.182 C 269.111 55.738,271.964 49.418,273.432 46.360 C 274.761 43.592,274.760 43.308,273.412 42.767 C 271.098 41.838,269.939 41.410,269.226 41.220 C 268.781 41.102,267.409 40.628,266.177 40.166 C 263.505 39.165,263.854 39.186,263.482 40.004 M191.582 48.663 C 191.138 48.843,191.162 50.212,191.636 51.717 L 192.018 52.929 192.036 50.707 C 192.046 49.485,192.024 48.494,191.987 48.506 C 191.949 48.518,191.768 48.589,191.582 48.663 M264.957 79.998 C 264.573 80.767,264.579 80.791,265.072 80.527 C 265.357 80.375,265.589 80.012,265.589 79.721 C 265.589 78.987,265.426 79.058,264.957 79.998 M277.132 147.292 C 275.509 151.146,273.529 154.285,270.909 157.154 C 270.059 158.085,270.041 158.294,270.568 161.212 C 270.782 162.397,270.962 164.176,270.967 165.164 L 270.976 166.960 272.795 167.126 C 278.707 167.663,284.866 168.599,288.754 169.549 C 295.349 171.162,303.617 174.376,306.609 176.490 C 308.194 177.610,308.197 176.906,306.620 173.690 C 301.687 163.630,290.994 152.746,280.673 147.280 C 277.903 145.812,277.755 145.813,277.132 147.292 M270.473 173.809 C 269.976 174.068,269.630 174.793,268.902 177.104 C 265.796 186.964,263.672 191.284,260.263 194.677 C 258.255 196.674,258.254 196.655,260.433 198.985 C 264.617 203.459,271.218 206.146,278.114 206.180 C 282.347 206.202,283.199 205.852,286.274 202.826 C 288.833 200.307,289.259 199.611,290.552 195.825 C 291.933 191.781,295.423 185.375,297.142 183.727 C 298.733 182.202,302.316 180.749,304.512 180.739 C 305.756 180.733,306.801 180.494,306.801 180.216 C 306.801 179.603,298.945 176.775,294.545 175.805 C 292.698 175.398,292.059 175.283,286.869 174.425 C 281.542 173.544,271.690 173.174,270.473 173.809 " stroke="none" fill="#f7bf04" fill-rule="evenodd"></path><path id="path4" d="M194.522 9.326 C 193.294 10.446,193.082 12.583,192.879 25.859 C 192.785 32.007,192.682 35.340,192.651 33.266 C 192.504 23.384,190.352 19.125,185.509 19.125 C 182.601 19.125,177.979 19.990,174.815 21.128 C 172.869 21.827,168.719 23.165,168.494 23.165 C 168.415 23.165,168.348 22.468,168.344 21.616 C 168.337 19.748,167.642 18.078,166.548 17.299 C 165.505 16.556,159.984 16.001,157.651 16.404 C 156.795 16.552,153.919 16.682,151.261 16.693 C 144.818 16.719,143.496 17.618,144.142 21.532 C 144.254 22.208,144.352 23.276,144.361 23.906 L 144.377 25.052 143.371 24.512 C 142.136 23.850,139.421 23.787,137.484 24.374 C 136.757 24.595,135.616 24.778,134.949 24.782 C 133.445 24.789,126.076 25.737,124.471 26.129 C 120.865 27.010,120.480 28.582,121.477 38.352 C 121.840 41.909,121.849 41.884,120.135 42.169 C 115.862 42.877,114.223 44.677,114.560 48.291 C 114.768 50.519,115.249 53.863,115.395 54.099 C 115.468 54.218,115.662 55.094,115.825 56.047 C 116.285 58.728,116.896 62.470,117.147 64.143 C 117.272 64.977,117.506 66.250,117.666 66.971 C 117.826 67.693,118.158 69.495,118.403 70.976 C 118.885 73.886,119.467 76.301,119.903 77.192 C 120.688 78.800,120.067 79.634,117.095 80.962 C 114.975 81.909,114.078 86.112,113.680 96.970 C 113.546 100.599,113.358 104.446,113.262 105.518 C 112.818 110.436,113.282 130.834,113.970 136.700 C 114.450 140.794,114.737 143.574,115.000 146.696 C 115.250 149.652,115.985 155.136,116.249 156.002 C 116.386 156.453,116.716 158.899,117.167 162.804 C 117.302 163.975,117.541 165.490,117.698 166.171 C 117.854 166.851,118.222 168.620,118.515 170.101 C 118.807 171.582,119.240 173.643,119.477 174.680 C 119.927 176.648,120.492 179.388,120.922 181.684 C 121.342 183.924,121.956 186.250,123.303 190.707 C 123.781 192.289,124.217 193.880,125.036 197.037 C 125.190 197.630,125.472 198.660,125.663 199.327 C 126.401 201.903,126.831 203.558,127.133 204.983 C 127.438 206.425,127.880 208.095,128.648 210.707 C 128.854 211.411,129.193 212.562,129.400 213.266 C 129.606 213.970,129.990 215.273,130.251 216.162 C 130.513 217.051,130.814 217.960,130.920 218.182 C 131.026 218.404,131.322 219.253,131.577 220.067 C 131.832 220.882,132.211 221.931,132.418 222.398 C 132.625 222.864,132.795 223.420,132.795 223.632 C 132.795 223.844,132.878 224.101,132.979 224.203 C 133.186 224.409,133.790 225.977,134.136 227.205 C 135.190 230.943,136.297 232.299,139.585 233.878 C 143.497 235.757,147.346 237.306,148.101 237.306 C 148.364 237.306,148.694 237.408,148.835 237.531 C 149.205 237.856,151.208 238.548,153.535 239.154 C 154.646 239.444,155.897 239.813,156.314 239.975 C 156.731 240.137,157.436 240.269,157.880 240.269 C 158.325 240.269,158.903 240.384,159.165 240.524 C 159.633 240.775,163.534 241.308,166.465 241.523 C 167.279 241.583,169.825 241.821,172.121 242.052 C 177.988 242.644,209.302 242.625,215.488 242.027 C 217.785 241.804,220.748 241.621,222.074 241.619 C 223.399 241.618,225.460 241.499,226.653 241.356 C 227.846 241.212,230.034 240.968,231.515 240.812 C 235.038 240.442,237.209 240.134,238.823 239.774 C 239.544 239.614,241.589 239.238,243.367 238.940 C 245.145 238.642,247.387 238.205,248.350 237.970 C 249.313 237.735,250.768 237.444,251.582 237.323 C 256.760 236.559,261.160 235.661,265.859 234.408 C 267.745 233.905,273.191 230.708,275.014 229.034 C 275.383 228.695,275.751 228.418,275.831 228.418 C 277.210 228.418,277.390 224.367,276.349 216.782 C 275.917 213.632,276.290 213.064,278.789 213.064 C 279.820 213.064,281.119 212.892,281.678 212.683 C 282.237 212.473,283.040 212.225,283.464 212.132 C 286.143 211.540,288.977 209.588,291.301 206.734 C 291.980 205.901,292.758 204.980,293.031 204.687 C 293.724 203.944,295.062 201.116,295.632 199.192 C 299.023 187.752,299.730 186.577,303.685 185.818 C 306.795 185.220,309.754 184.749,311.750 184.533 C 314.659 184.218,314.947 183.312,313.230 179.869 C 313.102 179.612,312.996 179.066,312.995 178.657 C 312.994 178.247,312.812 177.565,312.591 177.141 C 312.370 176.717,312.189 176.129,312.189 175.835 C 312.189 175.541,312.027 174.918,311.829 174.451 C 311.631 173.985,311.318 173.178,311.132 172.660 C 310.077 169.707,309.693 168.740,309.529 168.620 C 309.428 168.545,309.110 167.939,308.823 167.273 C 308.535 166.606,307.842 165.301,307.281 164.372 C 306.721 163.444,306.263 162.582,306.263 162.457 C 306.263 162.262,305.296 160.902,304.380 159.809 C 304.230 159.630,304.108 159.417,304.108 159.336 C 304.108 159.144,302.917 157.513,301.549 155.830 C 300.088 154.033,294.311 148.326,292.274 146.667 C 291.365 145.926,290.473 145.198,290.293 145.048 C 290.114 144.899,289.118 144.230,288.081 143.562 C 285.612 141.970,285.196 141.715,284.714 141.498 C 283.091 140.769,281.128 136.835,280.539 133.131 C 280.439 132.502,280.272 131.987,280.169 131.987 C 279.374 131.987,278.147 118.440,278.401 112.458 C 278.588 108.076,279.582 100.367,280.138 98.990 C 282.443 93.285,281.763 90.050,277.710 87.433 C 277.044 87.002,276.195 86.449,275.825 86.204 C 275.078 85.710,270.611 83.510,269.764 83.220 C 265.916 81.900,265.174 81.533,265.223 80.973 C 265.264 80.488,265.090 80.437,264.553 80.777 C 263.769 81.274,264.371 81.951,266.128 82.551 C 267.091 82.880,268.477 83.355,269.207 83.608 C 273.380 85.051,278.921 88.504,280.149 90.427 C 281.097 91.910,281.150 93.965,280.310 96.633 C 279.053 100.628,279.071 100.540,278.202 107.205 C 277.812 110.193,277.842 121.353,278.246 123.771 C 278.419 124.808,278.652 126.566,278.763 127.677 C 278.949 129.530,279.798 133.240,280.843 136.766 C 281.642 139.462,283.140 141.162,286.605 143.303 C 288.034 144.186,289.424 145.153,289.694 145.451 C 289.964 145.749,290.322 145.993,290.491 145.993 C 290.659 145.993,291.332 146.539,291.987 147.205 C 292.641 147.872,293.309 148.418,293.471 148.418 C 293.856 148.418,299.892 154.634,301.279 156.460 C 301.872 157.239,302.550 158.094,302.786 158.358 C 303.569 159.234,305.877 162.814,306.253 163.736 C 306.457 164.236,306.817 164.842,307.053 165.083 C 307.570 165.612,309.473 169.648,310.435 172.256 C 310.817 173.293,311.308 174.539,311.525 175.026 C 311.742 175.512,311.919 176.157,311.919 176.458 C 311.919 176.759,312.044 177.238,312.196 177.522 C 312.348 177.807,312.579 178.556,312.710 179.188 C 312.840 179.820,313.120 180.967,313.333 181.737 C 313.868 183.680,313.736 183.789,310.382 184.160 C 307.149 184.517,306.035 184.689,304.646 185.045 C 304.128 185.177,303.098 185.436,302.357 185.619 C 299.965 186.211,298.882 187.504,297.645 191.246 C 297.326 192.209,296.956 193.239,296.821 193.535 C 296.687 193.832,296.260 195.165,295.873 196.498 C 294.794 200.218,294.787 200.237,293.895 202.107 C 293.105 203.762,292.707 204.316,290.043 207.469 C 289.087 208.601,287.563 209.741,285.524 210.849 C 284.576 211.365,280.257 212.454,278.271 212.679 C 275.541 212.988,275.269 213.617,275.975 217.996 C 276.242 219.654,276.506 222.227,276.563 223.715 L 276.665 226.419 275.547 227.690 C 274.932 228.388,273.743 229.402,272.905 229.942 C 272.066 230.482,270.956 231.202,270.438 231.543 C 268.760 232.646,265.508 233.968,263.300 234.445 C 262.114 234.701,260.721 235.021,260.202 235.156 C 258.877 235.501,255.690 236.117,252.525 236.641 C 251.044 236.885,249.044 237.266,248.081 237.487 C 238.706 239.633,230.282 240.691,217.239 241.362 C 202.538 242.118,180.265 242.401,177.014 241.874 C 176.076 241.722,173.409 241.483,171.088 241.344 C 164.683 240.959,159.837 240.265,155.690 239.139 C 154.579 238.837,153.306 238.496,152.862 238.381 C 150.316 237.723,142.808 234.898,140.137 233.593 C 136.428 231.780,136.238 231.553,134.640 227.040 C 131.971 219.504,130.310 214.508,129.411 211.313 C 128.910 209.535,128.388 207.717,128.251 207.273 C 128.114 206.828,127.793 205.495,127.537 204.310 C 127.281 203.125,126.734 201.003,126.320 199.596 C 125.907 198.189,125.306 195.946,124.986 194.613 C 124.665 193.279,124.188 191.522,123.924 190.707 C 122.701 186.923,121.732 183.047,120.694 177.778 C 120.388 176.222,119.953 174.162,119.729 173.199 C 119.358 171.606,118.930 169.476,118.240 165.791 C 118.102 165.051,117.807 163.111,117.586 161.481 C 117.365 159.852,116.994 157.306,116.762 155.825 C 116.310 152.939,116.024 150.676,115.568 146.397 C 115.410 144.916,115.159 142.734,115.011 141.549 C 113.325 128.088,113.434 93.351,115.185 85.926 C 116.082 82.124,116.076 82.133,118.416 80.921 C 120.913 79.628,121.056 79.251,120.173 76.282 C 119.536 74.138,119.216 72.659,118.647 69.226 C 118.225 66.680,117.605 63.187,117.164 60.875 C 117.037 60.209,116.861 59.057,116.772 58.316 C 116.585 56.755,116.199 54.690,115.664 52.373 C 115.456 51.475,115.286 49.611,115.286 48.230 C 115.286 44.252,116.061 43.438,120.539 42.709 L 122.424 42.403 122.386 41.336 C 122.364 40.749,122.210 39.118,122.042 37.710 C 120.748 26.870,121.058 26.509,132.430 25.591 C 134.378 25.433,136.657 25.126,137.494 24.908 C 142.486 23.608,145.455 25.691,145.455 30.494 C 145.455 30.908,145.576 31.246,145.724 31.246 C 145.873 31.246,145.993 30.533,145.993 29.646 C 145.993 28.765,145.872 27.970,145.724 27.879 C 145.576 27.787,145.453 27.265,145.452 26.718 C 145.450 26.171,145.268 25.129,145.048 24.402 C 144.459 22.462,144.511 19.094,145.140 18.368 C 146.110 17.251,146.847 17.160,155.960 17.044 C 167.017 16.904,167.181 16.970,167.852 21.874 C 168.122 23.849,168.465 24.626,168.833 24.100 C 169.668 22.907,179.490 20.101,183.897 19.796 C 190.279 19.356,191.405 21.394,191.787 34.084 C 192.009 41.447,192.157 43.098,192.596 43.098 C 192.714 43.098,192.884 41.795,192.975 40.202 C 193.065 38.609,193.279 35.171,193.451 32.562 C 193.688 28.949,193.687 27.279,193.446 25.558 C 193.055 22.761,193.047 20.067,193.423 17.778 C 193.581 16.815,193.803 14.839,193.917 13.386 C 194.264 8.982,195.275 8.426,201.424 9.263 C 203.176 9.502,205.087 9.698,205.672 9.699 C 208.110 9.704,214.909 12.313,215.360 13.417 C 215.771 14.423,215.970 20.249,215.765 25.262 C 215.519 31.283,215.727 32.315,216.941 31.102 C 217.277 30.765,217.355 29.898,217.358 26.455 C 217.368 15.811,219.111 15.031,235.421 18.372 C 236.828 18.661,238.586 19.017,239.327 19.164 C 244.541 20.197,245.504 21.218,244.599 24.750 C 243.284 29.878,243.337 30.438,245.140 30.438 C 245.899 30.438,246.734 29.015,246.734 27.722 C 246.734 24.153,250.673 17.239,252.707 17.239 C 253.375 17.239,253.875 17.389,255.488 18.073 C 255.785 18.199,257.360 18.844,258.990 19.506 C 268.386 23.324,270.060 25.723,267.465 31.650 C 265.905 35.214,265.790 34.998,269.966 36.355 C 280.763 39.865,281.367 41.720,275.763 54.141 C 275.328 55.104,274.755 56.377,274.488 56.970 C 274.222 57.562,273.559 59.138,273.015 60.471 C 272.471 61.805,271.860 63.259,271.658 63.704 C 271.455 64.148,270.628 66.269,269.820 68.418 C 269.012 70.566,268.023 73.051,267.623 73.939 C 265.486 78.688,265.377 78.997,265.611 79.598 C 265.770 80.004,265.825 80.028,265.840 79.697 C 265.858 79.268,266.470 77.791,268.037 74.392 C 268.468 73.456,268.822 72.626,268.822 72.547 C 268.822 72.469,268.992 72.023,269.200 71.556 C 269.407 71.089,269.909 69.798,270.313 68.687 C 270.718 67.576,271.319 66.061,271.649 65.320 C 271.979 64.579,272.341 63.670,272.453 63.300 C 272.565 62.929,272.952 61.960,273.312 61.145 C 273.995 59.602,274.470 58.517,274.962 57.374 C 275.121 57.003,275.623 55.874,276.077 54.863 C 276.531 53.853,276.902 52.978,276.902 52.918 C 276.902 52.858,277.203 52.170,277.570 51.388 C 281.900 42.167,280.436 39.112,270.103 35.808 C 266.945 34.798,266.700 34.511,267.568 32.847 C 268.428 31.199,268.822 29.451,268.822 27.282 L 268.822 25.031 267.258 23.486 C 265.730 21.978,263.403 20.641,260.067 19.358 C 259.327 19.073,258.478 18.730,258.182 18.594 C 253.929 16.650,252.145 16.315,250.969 17.240 C 250.351 17.727,248.081 21.023,248.081 21.434 C 248.081 21.527,247.918 21.984,247.719 22.451 C 247.338 23.343,246.821 25.050,246.013 28.081 C 245.592 29.662,245.447 29.899,244.906 29.899 C 244.200 29.899,244.250 27.884,245.018 25.320 C 245.884 22.429,245.024 19.663,243.258 19.663 C 243.007 19.663,242.686 19.549,242.545 19.410 C 242.405 19.270,241.562 19.029,240.673 18.874 C 239.785 18.719,238.269 18.407,237.306 18.180 C 236.343 17.953,234.768 17.647,233.805 17.500 C 232.842 17.353,231.872 17.160,231.650 17.072 C 229.755 16.315,221.453 16.068,219.675 16.716 C 218.038 17.313,217.133 18.811,217.081 21.010 C 217.037 22.849,216.681 20.675,216.083 14.918 C 215.845 12.624,215.648 12.352,213.659 11.570 C 212.813 11.237,211.758 10.813,211.313 10.628 C 208.394 9.409,205.163 8.876,199.571 8.690 L 195.371 8.551 194.522 9.326 M216.236 30.559 C 216.121 30.700,216.049 29.488,216.075 27.865 L 216.123 24.916 216.284 27.609 C 216.373 29.091,216.351 30.418,216.236 30.559 M168.270 31.066 C 167.962 31.868,168.047 36.042,168.376 36.245 C 168.951 36.600,169.476 35.717,169.169 34.911 C 169.015 34.506,168.877 33.666,168.862 33.046 C 168.823 31.421,168.522 30.411,168.270 31.066 M125.522 78.045 C 125.522 78.435,127.070 78.504,127.644 78.140 C 127.895 77.981,127.611 77.873,126.769 77.806 C 125.894 77.736,125.522 77.808,125.522 78.045 M259.087 144.848 C 258.872 145.108,258.218 146.284,257.634 147.462 C 252.962 156.880,242.783 157.073,235.639 147.879 C 233.186 144.722,233.509 144.917,231.008 145.089 C 228.979 145.229,224.770 146.050,224.452 146.368 C 224.064 146.756,224.854 147.981,226.929 150.211 C 235.125 159.020,245.253 161.773,253.907 157.543 C 255.330 156.848,259.455 152.983,259.921 151.909 C 260.079 151.544,260.467 150.822,260.782 150.303 C 261.579 148.994,262.950 145.178,262.782 144.739 C 262.561 144.163,259.581 144.252,259.087 144.848 M262.048 145.944 C 261.593 147.711,260.424 150.249,259.295 151.919 C 254.053 159.676,243.966 161.155,234.198 155.599 C 231.715 154.186,224.916 147.919,224.916 147.043 C 224.916 146.479,228.226 145.784,231.498 145.660 L 233.367 145.589 234.594 147.340 C 241.955 157.847,253.014 157.772,258.361 147.180 C 259.476 144.970,259.504 144.941,260.587 144.861 C 262.244 144.737,262.340 144.809,262.048 145.944 " stroke="none" fill="#9b9a99" fill-rule="evenodd"></path></g></svg>