<svg id="svg" version="1.1" xmlns="http://www.w3.org/2000/svg" xmlns:xlink="http://www.w3.org/1999/xlink" width="400" height="316.015625" viewBox="0, 0, 400,316.015625"><g id="svgg"><path id="path0" d="M291.309 66.040 C 275.036 67.584,266.359 69.511,255.176 74.064 C 253.350 74.807,250.713 75.854,249.316 76.390 C 243.041 78.798,234.933 83.209,228.027 87.972 C 225.771 89.528,223.047 91.395,221.973 92.120 C 216.745 95.648,213.556 98.055,211.143 100.293 C 210.216 101.152,208.934 102.251,208.294 102.734 C 204.816 105.357,203.142 106.853,198.434 111.545 C 190.827 119.127,187.033 123.310,181.988 129.680 C 180.837 131.135,179.644 132.632,179.337 133.008 C 179.031 133.384,178.044 134.746,177.145 136.035 C 176.245 137.324,174.501 139.785,173.268 141.504 C 170.367 145.548,169.541 146.757,168.864 147.949 C 167.702 149.994,165.031 154.279,162.593 158.008 C 161.926 159.028,160.399 161.445,159.198 163.379 C 157.998 165.313,156.680 167.422,156.270 168.066 C 155.225 169.707,152.867 173.753,152.342 174.805 C 152.101 175.288,151.362 176.519,150.700 177.539 C 148.641 180.712,148.379 181.160,145.503 186.426 C 138.894 198.528,128.251 206.223,111.094 211.302 C 90.692 217.343,74.522 214.988,55.902 203.263 C 45.336 196.610,39.723 194.594,23.145 191.502 C 16.616 190.284,11.428 187.627,8.024 183.757 C 5.288 180.646,2.713 182.095,3.924 186.063 C 6.283 193.790,12.352 202.131,19.900 208.019 C 30.710 216.450,42.533 220.014,62.680 220.913 L 67.829 221.142 69.706 222.016 C 72.518 223.326,75.851 224.682,79.914 226.168 C 81.919 226.901,84.116 227.809,84.797 228.186 C 85.478 228.564,86.738 229.096,87.598 229.369 C 90.018 230.138,92.207 230.949,93.081 231.399 C 93.518 231.624,94.604 232.049,95.493 232.343 C 96.383 232.637,97.650 233.227,98.311 233.653 C 98.971 234.080,100.258 234.796,101.171 235.245 C 102.085 235.694,103.228 236.312,103.711 236.619 C 104.926 237.389,106.581 238.125,112.743 240.631 C 115.671 241.823,118.242 242.912,118.457 243.051 C 120.407 244.316,131.910 249.037,138.066 251.100 C 139.828 251.690,142.333 252.617,143.633 253.159 C 144.933 253.702,147.007 254.478,148.242 254.884 C 149.478 255.290,151.147 255.930,151.953 256.306 C 152.759 256.682,154.604 257.354,156.055 257.799 C 157.505 258.244,160.801 259.303,163.379 260.153 C 165.957 261.002,168.418 261.755,168.848 261.827 C 169.277 261.898,170.376 262.161,171.289 262.412 C 172.202 262.663,173.652 262.968,174.512 263.091 C 175.371 263.214,177.305 263.612,178.809 263.975 C 182.311 264.821,184.898 265.366,186.621 265.619 C 187.373 265.730,188.779 265.950,189.746 266.108 C 195.796 267.098,216.699 268.385,221.777 268.080 C 222.744 268.022,225.732 267.929,228.418 267.872 C 235.967 267.714,241.689 267.049,247.754 265.624 C 251.786 264.677,255.150 263.796,257.813 262.991 C 259.714 262.416,262.628 261.706,265.039 261.230 C 267.307 260.782,269.061 260.288,270.853 259.594 C 275.763 257.693,276.311 257.501,279.004 256.745 C 281.562 256.026,286.368 254.403,288.867 253.414 C 290.317 252.840,292.778 251.916,294.336 251.362 C 299.274 249.604,309.129 245.024,312.891 242.737 C 313.696 242.248,316.289 240.768,318.652 239.450 C 324.277 236.311,326.541 234.942,328.301 233.612 C 329.097 233.011,330.239 232.154,330.841 231.707 C 331.442 231.260,332.190 230.689,332.504 230.437 C 332.818 230.186,334.312 229.130,335.824 228.090 C 339.330 225.681,339.932 225.223,341.974 223.420 C 344.052 221.584,351.998 213.389,354.664 210.332 C 356.816 207.865,356.818 207.862,359.270 204.297 C 360.194 202.954,361.672 200.916,362.555 199.767 C 363.438 198.619,364.682 196.861,365.319 195.861 C 365.957 194.861,366.825 193.516,367.249 192.871 C 369.172 189.947,372.028 184.913,373.329 182.154 C 375.397 177.769,376.578 175.131,377.154 173.611 C 377.495 172.710,377.892 171.665,378.035 171.289 C 378.276 170.659,379.965 165.325,380.571 163.281 C 380.900 162.171,382.083 157.187,382.424 155.469 C 383.187 151.633,383.441 149.961,383.595 147.754 C 383.692 146.357,383.861 144.468,383.971 143.555 C 384.836 136.340,384.731 120.018,383.797 116.415 C 382.830 112.688,382.047 105.933,382.323 103.695 C 382.368 103.328,382.505 102.061,382.627 100.879 C 383.135 95.953,384.845 91.546,387.780 87.598 C 388.579 86.523,389.436 85.355,389.685 85.001 C 390.850 83.342,392.047 81.951,393.456 80.623 C 395.078 79.092,395.163 78.811,394.065 78.605 C 393.552 78.508,393.217 78.607,392.445 79.082 C 391.911 79.411,391.040 79.870,390.512 80.103 C 386.757 81.755,379.895 87.893,374.875 94.089 C 374.246 94.866,372.669 96.755,371.372 98.288 C 368.683 101.464,366.574 104.271,365.304 106.364 C 364.366 107.908,364.130 108.153,363.850 107.874 C 363.700 107.724,367.311 101.520,371.674 94.434 C 374.667 89.571,378.905 84.958,384.375 80.607 L 385.059 80.063 384.473 80.191 C 380.184 81.129,368.096 85.715,362.262 88.618 L 357.826 90.826 355.904 93.704 C 350.256 102.161,347.302 109.428,343.099 125.195 C 341.407 131.547,340.025 138.853,339.425 144.629 C 339.181 146.969,339.142 147.044,338.932 145.573 C 338.384 141.733,338.863 134.754,340.254 126.288 C 341.930 116.091,346.559 102.690,350.683 96.094 C 350.918 95.718,351.222 95.199,351.359 94.941 L 351.609 94.471 350.853 94.928 C 341.341 100.679,322.750 114.822,321.787 117.040 C 319.061 123.321,316.869 130.315,315.343 137.598 C 314.961 139.424,313.953 144.214,313.104 148.242 C 312.255 152.271,311.408 156.434,311.221 157.495 C 310.576 161.167,310.047 157.974,310.223 151.471 C 310.499 141.256,311.770 133.942,314.871 124.738 C 315.516 122.821,316.015 121.223,315.979 121.187 C 315.899 121.108,312.210 124.233,302.734 132.410 C 280.743 151.385,276.349 155.112,267.578 162.232 C 262.401 166.434,253.448 173.433,253.360 173.347 C 253.329 173.315,254.039 172.158,254.940 170.776 C 256.725 168.034,259.797 163.002,261.662 159.766 C 262.992 157.459,262.831 157.743,265.815 152.441 C 274.739 136.587,278.395 131.341,285.172 124.667 C 293.118 116.841,306.823 107.557,323.242 98.876 C 342.236 88.833,350.052 85.363,363.300 81.086 C 379.525 75.849,391.791 73.696,395.361 75.459 C 395.872 75.711,396.289 75.894,396.289 75.865 C 396.289 74.881,394.282 72.168,392.770 71.107 C 386.676 66.832,379.389 67.258,362.341 72.884 C 360.125 73.615,358.565 74.029,358.240 73.973 C 357.951 73.922,356.528 73.653,355.078 73.374 C 350.557 72.504,346.042 71.709,344.922 71.586 C 343.359 71.413,338.010 70.205,334.961 69.335 C 333.511 68.921,331.665 68.489,330.859 68.374 C 330.054 68.259,328.472 68.033,327.344 67.871 C 322.921 67.238,320.139 66.988,313.281 66.610 C 298.387 65.788,294.911 65.698,291.309 66.040 M298.178 89.469 C 299.186 89.957,300.586 91.483,300.586 92.094 C 300.586 92.430,299.938 93.015,297.803 94.606 C 296.272 95.747,294.730 96.914,294.377 97.199 L 293.734 97.719 292.912 97.148 C 288.457 94.053,293.240 87.079,298.178 89.469 M86.719 195.528 C 82.971 198.004,79.550 198.537,70.508 198.055 C 59.538 197.469,58.475 197.533,55.712 198.940 C 54.436 199.591,53.380 200.331,53.537 200.466 C 53.579 200.503,54.053 200.776,54.590 201.073 C 55.127 201.371,56.445 202.102,57.520 202.699 C 66.220 207.532,74.769 210.583,80.881 211.036 L 82.758 211.175 83.449 210.422 C 89.672 203.639,92.256 191.869,86.719 195.528 M192.769 198.769 C 192.431 200.466,191.891 203.086,191.569 204.590 C 191.248 206.094,190.882 208.247,190.756 209.374 L 190.527 211.424 189.746 211.794 C 183.464 214.766,169.683 219.817,160.840 222.388 C 135.847 229.656,109.984 230.723,90.527 225.289 C 87.149 224.346,86.914 224.224,88.672 224.331 C 97.438 224.862,102.834 224.940,107.910 224.606 C 131.600 223.050,151.064 217.425,175.488 205.075 C 180.960 202.308,189.781 197.511,192.285 195.941 C 193.516 195.169,193.502 195.092,192.769 198.769 " stroke="none" fill="#046b89" fill-rule="evenodd"></path><path id="path1" d="M259.698 20.069 C 253.550 36.637,245.701 50.855,241.468 53.095 C 237.928 54.967,233.339 48.381,230.844 37.848 L 230.395 35.950 229.745 38.493 C 226.384 51.639,219.239 55.500,212.299 47.921 C 207.584 42.773,202.471 33.711,199.502 25.240 L 198.868 23.430 198.747 25.924 C 197.848 44.538,194.953 55.673,191.016 55.660 C 187.675 55.650,184.462 53.747,179.337 48.744 C 176.474 45.949,176.197 45.790,177.021 47.413 C 179.849 52.987,180.112 61.501,177.532 63.971 C 174.919 66.472,162.899 60.394,146.484 48.271 C 143.143 45.803,139.804 43.139,138.525 41.921 C 137.398 40.846,137.449 40.977,139.355 44.037 C 140.269 45.503,141.016 46.736,141.016 46.778 C 141.016 46.820,141.339 47.406,141.734 48.080 C 149.139 60.714,154.583 75.014,154.026 80.362 C 153.430 86.079,145.418 88.283,134.876 85.631 L 134.303 85.487 135.072 86.315 C 137.548 88.984,139.601 92.719,139.783 94.884 C 140.102 98.690,136.694 99.796,126.709 99.126 C 122.565 98.848,121.845 98.769,116.699 98.029 C 111.404 97.267,98.392 94.851,97.103 94.390 C 96.404 94.140,97.084 94.529,99.805 95.935 C 117.312 104.983,131.463 116.385,131.012 121.080 C 130.646 124.892,126.567 126.129,115.820 125.686 L 112.598 125.553 115.918 127.216 C 123.846 131.186,126.938 134.866,125.203 138.266 C 123.486 141.632,111.010 146.289,92.188 150.589 C 91.167 150.822,89.849 151.127,89.258 151.267 C 88.667 151.406,87.795 151.584,87.321 151.662 C 86.093 151.863,86.485 152.002,90.596 152.818 C 111.188 156.909,120.838 160.616,122.282 164.990 C 123.428 168.465,119.542 174.642,112.599 180.380 C 111.955 180.912,111.326 181.443,111.202 181.559 C 111.077 181.675,110.038 182.466,108.894 183.317 L 106.812 184.863 107.849 184.913 C 115.652 185.289,122.824 186.367,124.439 187.408 C 127.387 189.308,126.655 195.506,122.767 201.563 C 121.571 203.426,121.615 203.332,122.011 203.188 C 123.150 202.773,127.836 200.123,131.802 197.651 C 133.265 196.739,137.500 193.744,137.500 193.621 C 137.500 193.574,137.380 193.298,137.234 193.008 C 133.004 184.614,129.848 165.818,130.458 152.648 C 133.591 85.043,201.269 40.656,264.344 64.839 L 267.317 65.979 271.810 64.844 C 274.280 64.219,276.786 63.648,277.379 63.574 C 278.885 63.385,278.895 63.374,278.674 62.012 C 278.181 58.965,279.995 51.221,282.513 45.614 C 282.660 45.287,283.194 44.053,283.699 42.871 C 284.205 41.689,284.872 40.217,285.183 39.600 C 285.494 38.982,285.716 38.477,285.677 38.477 C 285.639 38.477,284.610 39.641,283.391 41.064 C 274.384 51.584,267.732 56.190,263.733 54.674 C 260.535 53.462,259.513 45.410,260.463 28.906 C 260.798 23.093,261.030 16.992,260.915 16.993 C 260.874 16.993,260.326 18.377,259.698 20.069 " stroke="none" fill="#f48423" fill-rule="evenodd"></path><path id="path2" d="M0.000 158.008 L 0.000 316.016 200.000 316.016 L 400.000 316.016 400.000 158.008 L 400.000 0.000 200.000 0.000 L 0.000 0.000 0.000 158.008 M260.963 21.135 C 260.834 23.422,260.592 27.710,260.425 30.664 C 259.946 39.097,260.191 46.923,261.039 50.290 C 262.794 57.263,268.218 56.342,277.282 47.533 C 279.238 45.632,285.038 39.168,285.611 38.252 C 286.336 37.090,285.906 38.309,284.583 41.162 C 280.542 49.877,278.837 55.594,278.819 60.482 L 278.809 63.445 277.051 63.762 C 276.084 63.937,273.590 64.515,271.509 65.048 C 266.952 66.213,267.573 66.206,264.844 65.125 C 258.155 62.476,249.572 60.220,242.676 59.299 C 237.191 58.566,235.952 58.496,228.613 58.504 C 218.831 58.515,213.368 59.149,205.078 61.235 C 199.016 62.761,195.144 64.084,188.965 66.738 C 187.305 67.451,181.942 70.140,180.664 70.900 C 180.073 71.252,179.194 71.759,178.711 72.028 C 171.688 75.935,161.909 83.950,155.783 90.820 C 141.557 106.777,133.654 124.439,130.921 146.387 C 130.418 150.424,130.421 163.439,130.925 167.188 C 132.324 177.594,134.436 186.169,137.190 192.621 C 137.726 193.877,138.003 193.576,133.496 196.640 C 131.306 198.129,128.359 200.000,128.203 200.000 C 128.156 200.000,127.789 200.207,127.389 200.459 C 126.239 201.185,121.760 203.516,121.517 203.516 C 121.396 203.516,121.726 202.878,122.250 202.100 C 126.242 196.171,127.346 189.959,124.789 187.817 C 123.420 186.670,119.532 185.888,112.500 185.344 C 110.942 185.224,108.986 185.066,108.152 184.994 L 106.636 184.863 107.957 183.897 C 117.972 176.573,123.666 169.047,122.171 165.112 C 121.643 163.723,119.418 161.328,118.655 161.328 C 118.603 161.328,118.117 161.055,117.574 160.721 C 114.241 158.670,106.364 156.227,95.996 154.028 C 91.264 153.024,87.775 152.312,87.061 152.206 C 86.465 152.117,85.981 151.758,86.458 151.758 C 89.964 151.758,113.734 144.872,119.396 142.216 C 128.764 137.822,127.578 133.097,115.625 127.191 C 111.792 125.297,111.791 125.271,115.595 125.570 C 125.261 126.329,130.392 124.854,130.969 121.149 C 131.669 116.653,116.896 104.806,99.414 95.843 C 97.534 94.879,96.260 94.144,96.582 94.209 C 96.904 94.275,98.442 94.596,100.000 94.923 C 122.386 99.624,136.254 100.505,139.086 97.404 C 140.763 95.567,138.938 90.648,134.992 86.377 C 134.471 85.813,134.105 85.352,134.179 85.352 C 134.252 85.352,134.990 85.525,135.819 85.737 C 143.957 87.818,151.400 86.398,153.401 82.383 C 155.817 77.533,148.496 58.190,138.354 42.629 C 137.777 41.743,137.305 40.977,137.305 40.926 C 137.305 40.874,138.425 41.755,139.795 42.882 C 143.080 45.586,143.217 45.694,146.099 47.852 C 151.290 51.738,159.241 57.060,163.086 59.223 C 163.569 59.495,164.536 60.045,165.234 60.446 C 170.096 63.235,174.945 64.955,176.501 64.441 C 180.084 63.259,180.149 53.808,176.623 46.807 C 175.842 45.256,176.229 45.498,179.151 48.386 C 184.636 53.807,187.371 55.459,190.869 55.466 C 194.759 55.474,197.867 44.222,198.555 27.637 C 198.745 23.064,198.795 22.947,199.601 25.210 C 204.956 40.244,213.894 52.116,219.557 51.716 C 224.081 51.397,227.884 46.156,229.992 37.335 C 230.343 35.870,230.498 35.824,230.757 37.109 C 231.704 41.814,234.430 48.484,236.442 51.021 C 239.278 54.596,241.559 54.069,245.387 48.955 C 247.521 46.103,253.906 34.665,253.906 33.693 C 253.906 33.639,254.222 32.914,254.609 32.081 C 255.462 30.241,257.385 25.763,258.068 24.023 C 259.403 20.623,260.530 17.614,260.654 17.121 C 261.059 15.507,261.186 17.157,260.963 21.135 M304.102 60.254 C 304.102 60.415,303.959 60.547,303.785 60.547 C 303.525 60.547,303.512 60.494,303.711 60.254 C 303.845 60.093,303.987 59.961,304.028 59.961 C 304.068 59.961,304.102 60.093,304.102 60.254 M300.195 65.818 C 301.753 65.926,305.313 66.113,308.105 66.235 C 315.685 66.565,316.082 66.586,319.043 66.807 C 322.365 67.055,331.718 68.277,333.203 68.657 C 333.794 68.808,334.980 69.154,335.840 69.427 C 338.007 70.115,342.367 71.050,345.508 71.501 C 346.958 71.708,348.936 72.050,349.902 72.259 C 350.869 72.468,352.583 72.780,353.711 72.952 C 354.839 73.124,356.395 73.434,357.170 73.641 L 358.578 74.018 361.174 73.162 C 374.716 68.700,380.753 67.557,386.133 68.437 C 390.320 69.122,393.606 70.973,395.288 73.595 C 395.976 74.667,396.556 76.172,396.280 76.172 C 396.178 76.172,396.094 76.094,396.094 75.998 C 396.094 75.723,394.671 75.225,393.224 74.994 C 386.424 73.908,360.229 81.037,344.922 88.140 C 344.116 88.514,342.845 89.102,342.097 89.446 C 338.414 91.143,325.109 97.898,322.597 99.346 C 321.974 99.706,321.432 100.000,321.393 100.000 C 321.354 100.000,320.468 100.483,319.425 101.074 C 318.382 101.665,317.508 102.148,317.483 102.148 C 317.284 102.148,308.820 107.169,305.859 109.043 C 285.429 121.977,279.227 128.715,265.911 152.441 C 261.200 160.836,257.437 167.147,254.462 171.645 C 253.941 172.432,253.516 173.114,253.516 173.160 C 253.516 173.490,272.465 158.290,278.516 153.108 C 279.106 152.602,280.513 151.407,281.641 150.452 C 283.722 148.690,289.264 143.929,295.012 138.965 C 296.754 137.461,301.555 133.336,305.681 129.798 C 309.807 126.261,313.831 122.807,314.622 122.122 C 315.413 121.438,316.102 120.920,316.154 120.972 C 316.206 121.024,315.717 122.676,315.068 124.644 C 312.526 132.349,311.257 138.149,310.633 144.922 C 310.286 148.674,310.279 156.987,310.620 158.105 L 310.859 158.887 311.311 156.445 C 311.733 154.171,313.028 147.920,315.155 137.891 C 316.839 129.952,319.202 122.413,321.705 116.992 C 322.337 115.624,321.957 115.967,329.199 110.238 C 336.388 104.551,351.339 94.048,351.713 94.421 C 351.757 94.465,351.375 95.189,350.864 96.030 C 344.328 106.794,339.210 125.730,338.917 140.234 C 338.864 142.889,338.907 144.900,339.026 145.313 L 339.223 145.996 339.243 145.020 C 339.254 144.482,339.434 143.106,339.642 141.962 C 339.850 140.817,340.242 138.400,340.514 136.591 C 341.597 129.362,345.202 116.020,347.972 108.984 C 350.937 101.453,355.974 92.332,358.031 90.767 C 360.930 88.563,372.234 83.900,382.108 80.836 C 385.507 79.781,385.714 79.760,384.624 80.578 C 378.142 85.447,374.554 89.793,367.972 100.745 C 365.692 104.538,363.882 107.697,363.949 107.764 C 364.122 107.937,364.462 107.524,365.416 105.982 C 366.660 103.972,368.748 101.218,371.480 97.981 C 372.825 96.387,374.439 94.453,375.066 93.684 C 380.355 87.198,386.197 82.076,391.020 79.699 C 391.931 79.250,392.759 78.800,392.861 78.699 C 393.240 78.325,395.117 78.669,395.117 79.113 C 395.117 79.192,394.613 79.727,393.998 80.302 C 391.686 82.462,391.232 83.024,386.945 89.028 C 382.737 94.923,381.421 104.504,383.475 114.298 C 384.711 120.189,385.179 132.635,384.444 140.039 C 384.193 142.563,383.900 145.859,383.793 147.363 C 383.552 150.730,382.771 155.150,381.635 159.570 C 381.539 159.946,381.319 160.869,381.146 161.621 C 380.974 162.373,380.750 163.252,380.650 163.574 C 379.015 168.809,377.836 172.408,377.449 173.340 C 376.691 175.166,376.234 176.218,375.669 177.441 C 375.322 178.193,374.680 179.600,374.243 180.566 C 373.379 182.476,372.402 184.413,371.681 185.645 C 371.195 186.473,370.607 187.526,369.830 188.955 C 369.254 190.015,369.093 190.272,367.087 193.359 C 366.215 194.702,365.175 196.334,364.776 196.985 C 364.378 197.637,363.209 199.251,362.178 200.572 C 361.148 201.894,359.836 203.690,359.263 204.564 C 356.889 208.186,353.286 212.301,346.524 219.112 C 341.212 224.464,340.636 224.965,336.833 227.542 C 335.642 228.349,333.481 229.904,332.031 230.997 C 326.396 235.246,326.323 235.295,321.777 237.836 C 320.059 238.797,318.345 239.763,317.969 239.982 C 312.251 243.315,309.396 244.908,307.715 245.702 C 306.855 246.108,305.113 246.933,303.842 247.536 C 302.571 248.139,301.482 248.633,301.422 248.633 C 301.362 248.633,300.951 248.802,300.510 249.010 C 297.987 250.194,296.642 250.725,291.797 252.452 C 290.669 252.854,289.482 253.296,289.160 253.433 C 287.050 254.335,281.774 256.136,278.906 256.934 C 277.294 257.382,275.781 257.879,274.414 258.408 C 273.823 258.637,272.988 258.942,272.559 259.085 C 272.129 259.229,271.206 259.579,270.508 259.863 C 269.145 260.418,267.566 260.897,266.309 261.135 C 262.896 261.781,258.722 262.806,256.348 263.580 C 255.811 263.756,255.063 263.969,254.688 264.055 C 254.312 264.141,253.257 264.401,252.344 264.635 C 248.200 265.693,247.674 265.815,245.654 266.195 C 243.193 266.658,242.248 266.840,241.406 267.012 C 235.834 268.153,217.306 268.554,206.348 267.770 C 204.951 267.670,202.446 267.495,200.781 267.382 C 192.735 266.832,183.345 265.425,178.613 264.059 C 177.861 263.842,176.367 263.532,175.293 263.371 C 172.264 262.915,168.089 261.829,163.281 260.245 C 160.864 259.449,157.570 258.391,155.961 257.894 C 154.352 257.396,152.194 256.612,151.166 256.150 C 150.137 255.687,148.905 255.204,148.427 255.076 C 147.421 254.805,145.747 254.172,143.262 253.124 C 142.295 252.716,140.142 251.936,138.477 251.392 C 136.812 250.848,134.966 250.218,134.375 249.991 C 133.784 249.765,133.060 249.505,132.766 249.414 C 132.173 249.229,129.792 248.289,129.311 248.049 C 129.142 247.965,128.564 247.719,128.027 247.502 C 125.235 246.374,121.563 244.725,117.676 242.855 C 116.709 242.389,115.303 241.781,114.551 241.502 C 110.333 239.939,105.261 237.715,103.565 236.684 C 102.894 236.276,101.620 235.580,100.733 235.136 C 99.846 234.693,98.638 234.036,98.047 233.677 C 97.456 233.318,96.247 232.759,95.361 232.435 C 94.474 232.111,93.466 231.699,93.120 231.520 C 92.369 231.132,89.306 230.009,87.402 229.424 C 86.650 229.193,85.376 228.639,84.570 228.194 C 83.765 227.748,82.095 227.034,80.859 226.605 C 77.828 225.554,73.281 223.722,70.313 222.354 L 67.871 221.229 64.063 221.075 C 40.421 220.120,27.252 215.582,15.651 204.395 C 7.616 196.646,1.104 183.899,4.384 182.342 C 5.736 181.701,6.329 181.971,8.691 184.303 C 12.124 187.691,16.296 189.936,21.094 190.977 C 22.114 191.199,24.619 191.700,26.660 192.091 C 39.854 194.617,45.998 196.941,55.859 203.135 C 70.838 212.543,83.427 215.721,98.379 213.869 C 114.154 211.914,131.481 204.265,138.018 196.370 C 142.290 191.212,143.909 189.039,145.068 186.914 C 145.390 186.323,146.200 184.829,146.867 183.594 C 147.535 182.358,148.278 181.040,148.518 180.664 C 148.759 180.288,149.206 179.585,149.511 179.102 C 149.817 178.618,150.393 177.739,150.791 177.148 C 151.190 176.558,151.838 175.459,152.232 174.707 C 152.625 173.955,153.185 172.933,153.476 172.435 C 153.766 171.937,154.349 170.927,154.772 170.189 C 155.194 169.451,156.196 167.837,156.999 166.602 C 157.801 165.366,158.678 164.004,158.947 163.574 C 159.216 163.145,159.582 162.573,159.759 162.305 C 159.937 162.036,160.379 161.289,160.740 160.645 C 161.102 160.000,161.760 158.945,162.202 158.301 C 163.093 157.003,167.762 149.541,168.741 147.852 C 169.586 146.392,170.241 145.397,171.330 143.922 C 173.049 141.592,173.949 140.335,175.228 138.477 C 177.727 134.846,178.173 134.239,180.722 130.988 C 188.632 120.900,200.798 108.195,207.124 103.418 C 208.404 102.451,210.160 100.998,211.025 100.188 C 213.425 97.942,216.116 95.897,221.429 92.283 C 222.848 91.317,224.255 90.352,224.554 90.137 C 225.889 89.179,232.415 84.777,232.927 84.487 C 233.240 84.311,233.932 83.897,234.465 83.569 C 237.065 81.965,246.225 77.351,248.145 76.678 C 249.004 76.377,250.978 75.603,252.531 74.958 C 265.369 69.624,271.538 68.082,286.719 66.415 C 294.667 65.543,295.609 65.501,300.195 65.818 M294.476 89.516 C 291.058 90.701,290.099 94.700,292.716 96.857 C 293.661 97.636,293.614 97.646,295.215 96.364 C 295.967 95.762,297.439 94.646,298.486 93.884 C 300.671 92.295,300.751 92.093,299.686 90.849 C 298.287 89.215,296.595 88.782,294.476 89.516 M89.055 194.918 C 91.367 196.155,88.645 204.328,84.093 209.814 L 82.999 211.133 81.588 211.132 C 75.954 211.128,66.363 207.731,56.541 202.263 C 53.266 200.439,53.349 200.508,53.819 199.988 C 55.413 198.228,59.524 197.311,64.355 197.640 C 78.001 198.569,83.511 198.098,86.150 195.777 C 87.073 194.966,88.407 194.571,89.055 194.918 M190.060 197.312 C 172.236 207.617,154.831 215.282,139.834 219.430 C 135.219 220.707,128.064 222.277,124.219 222.857 C 112.700 224.593,103.234 225.251,95.831 224.830 C 86.886 224.320,87.093 224.289,91.504 225.482 C 111.667 230.935,138.534 229.326,164.844 221.091 C 173.777 218.294,190.430 211.880,190.430 211.235 C 190.430 210.417,190.952 206.902,191.326 205.204 C 191.589 204.007,191.932 202.294,192.087 201.398 C 192.243 200.503,192.558 198.850,192.788 197.725 C 193.019 196.601,193.175 195.657,193.137 195.627 C 193.098 195.598,191.713 196.356,190.060 197.312 " stroke="none" fill="#fbfbfb" fill-rule="evenodd"></path><path id="path3" d="M294.775 65.770 C 295.500 65.807,296.687 65.807,297.412 65.770 C 298.137 65.732,297.544 65.702,296.094 65.702 C 294.644 65.702,294.050 65.732,294.775 65.770 M291.653 65.960 C 291.950 66.005,292.389 66.004,292.630 65.958 C 292.870 65.911,292.627 65.875,292.090 65.876 C 291.553 65.878,291.356 65.916,291.653 65.960 M299.561 65.958 C 299.802 66.005,300.198 66.005,300.439 65.958 C 300.681 65.912,300.483 65.874,300.000 65.874 C 299.517 65.874,299.319 65.912,299.561 65.958 M289.602 66.154 C 289.845 66.200,290.196 66.199,290.383 66.150 C 290.570 66.101,290.371 66.063,289.941 66.065 C 289.512 66.067,289.359 66.107,289.602 66.154 M304.644 66.159 C 305.103 66.200,305.806 66.200,306.206 66.158 C 306.606 66.116,306.230 66.082,305.371 66.083 C 304.512 66.083,304.184 66.118,304.644 66.159 M287.744 66.346 C 287.932 66.395,288.240 66.395,288.428 66.346 C 288.616 66.296,288.462 66.256,288.086 66.256 C 287.710 66.256,287.556 66.296,287.744 66.346 M308.545 66.354 C 309.001 66.395,309.749 66.395,310.205 66.354 C 310.662 66.313,310.288 66.279,309.375 66.279 C 308.462 66.279,308.088 66.313,308.545 66.354 M286.182 66.541 C 286.370 66.590,286.677 66.590,286.865 66.541 C 287.053 66.492,286.899 66.452,286.523 66.452 C 286.147 66.452,285.994 66.492,286.182 66.541 M311.966 66.546 C 312.262 66.591,312.702 66.590,312.942 66.544 C 313.182 66.497,312.939 66.461,312.402 66.462 C 311.865 66.464,311.669 66.502,311.966 66.546 M284.424 66.736 C 284.612 66.785,284.919 66.785,285.107 66.736 C 285.295 66.687,285.142 66.647,284.766 66.647 C 284.390 66.647,284.236 66.687,284.424 66.736 M315.674 66.744 C 316.077 66.786,316.736 66.786,317.139 66.744 C 317.542 66.702,317.212 66.667,316.406 66.667 C 315.601 66.667,315.271 66.702,315.674 66.744 M282.766 66.935 C 283.009 66.982,283.360 66.980,283.547 66.931 C 283.734 66.882,283.535 66.844,283.105 66.846 C 282.676 66.848,282.523 66.888,282.766 66.935 M318.799 66.937 C 319.094 66.982,319.578 66.982,319.873 66.937 C 320.168 66.892,319.927 66.855,319.336 66.855 C 318.745 66.855,318.503 66.892,318.799 66.937 M281.008 67.130 C 281.251 67.177,281.603 67.175,281.789 67.126 C 281.976 67.077,281.777 67.039,281.348 67.041 C 280.918 67.044,280.765 67.084,281.008 67.130 M321.438 67.130 C 321.681 67.177,322.032 67.175,322.219 67.126 C 322.406 67.077,322.207 67.039,321.777 67.041 C 321.348 67.044,321.195 67.084,321.438 67.130 M278.174 67.517 C 278.362 67.567,278.669 67.567,278.857 67.517 C 279.045 67.468,278.892 67.428,278.516 67.428 C 278.140 67.428,277.986 67.468,278.174 67.517 M328.760 68.103 C 328.948 68.153,329.255 68.153,329.443 68.103 C 329.631 68.054,329.478 68.014,329.102 68.014 C 328.726 68.014,328.572 68.054,328.760 68.103 M384.033 68.299 C 384.221 68.348,384.529 68.348,384.717 68.299 C 384.905 68.250,384.751 68.209,384.375 68.209 C 383.999 68.209,383.845 68.250,384.033 68.299 M332.910 68.724 C 333.125 68.818,333.608 68.950,333.984 69.019 C 334.454 69.104,334.546 69.089,334.277 68.972 C 334.063 68.878,333.579 68.745,333.203 68.677 C 332.734 68.592,332.642 68.606,332.910 68.724 M269.531 69.043 C 269.048 69.183,268.784 69.305,268.945 69.313 C 269.106 69.321,269.678 69.206,270.215 69.057 C 270.752 68.907,271.016 68.786,270.801 68.787 C 270.586 68.788,270.015 68.903,269.531 69.043 M266.016 70.020 C 265.640 70.164,265.464 70.283,265.625 70.283 C 265.786 70.283,266.226 70.164,266.602 70.020 C 266.978 69.875,267.153 69.756,266.992 69.756 C 266.831 69.756,266.392 69.875,266.016 70.020 M263.513 70.837 C 262.728 71.108,262.120 71.364,262.162 71.407 C 262.245 71.489,265.037 70.574,265.201 70.411 C 265.381 70.231,264.956 70.338,263.513 70.837 M260.840 71.770 C 260.086 72.116,260.436 72.121,261.328 71.777 C 261.704 71.633,261.880 71.511,261.719 71.508 C 261.558 71.505,261.162 71.623,260.840 71.770 M345.071 71.623 C 345.314 71.669,345.665 71.667,345.852 71.619 C 346.039 71.570,345.840 71.531,345.410 71.534 C 344.980 71.536,344.828 71.576,345.071 71.623 M348.145 72.070 C 348.971 72.281,349.680 72.281,349.023 72.070 C 348.755 71.984,348.315 71.916,348.047 71.918 C 347.608 71.921,347.618 71.936,348.145 72.070 M259.082 72.356 C 258.328 72.702,258.679 72.707,259.570 72.363 C 259.946 72.218,260.122 72.097,259.961 72.094 C 259.800 72.091,259.404 72.209,259.082 72.356 M251.758 75.293 C 251.489 75.446,251.357 75.572,251.465 75.572 C 251.572 75.572,251.880 75.446,252.148 75.293 C 252.417 75.139,252.549 75.014,252.441 75.014 C 252.334 75.014,252.026 75.139,251.758 75.293 M247.186 77.049 C 246.014 77.524,244.960 78.009,244.842 78.127 C 244.725 78.245,245.068 78.145,245.605 77.905 C 246.143 77.665,247.329 77.181,248.242 76.829 C 249.155 76.477,249.771 76.189,249.609 76.187 C 249.448 76.186,248.358 76.574,247.186 77.049 M242.725 79.114 C 241.892 79.539,241.211 79.931,241.211 79.985 C 241.211 80.072,244.316 78.578,244.515 78.395 C 244.792 78.140,244.033 78.445,242.725 79.114 M393.848 80.265 L 392.676 81.539 393.667 80.662 C 394.591 79.844,395.226 79.111,395.082 79.028 C 395.048 79.008,394.492 79.565,393.848 80.265 M390.625 79.883 C 390.249 80.089,390.029 80.257,390.137 80.257 C 390.244 80.257,390.640 80.089,391.016 79.883 C 391.392 79.677,391.611 79.509,391.504 79.509 C 391.396 79.509,391.001 79.677,390.625 79.883 M240.127 80.446 C 240.025 80.541,238.975 81.124,237.793 81.742 C 234.895 83.257,233.615 83.987,233.484 84.199 C 233.424 84.297,233.885 84.081,234.509 83.720 C 235.134 83.359,236.611 82.555,237.793 81.934 C 240.093 80.724,240.831 80.273,240.512 80.273 C 240.402 80.273,240.229 80.351,240.127 80.446 M391.677 82.364 C 391.263 82.869,391.026 83.220,391.151 83.142 C 391.417 82.978,392.654 81.445,392.520 81.445 C 392.471 81.445,392.091 81.859,391.677 82.364 M390.587 83.740 C 390.243 84.141,389.985 84.570,390.088 84.570 C 390.128 84.570,390.356 84.307,390.594 83.984 C 391.065 83.348,391.060 83.189,390.587 83.740 M379.102 85.059 C 378.627 85.542,378.283 85.938,378.337 85.938 C 378.390 85.938,378.822 85.542,379.297 85.059 C 379.771 84.575,380.116 84.180,380.062 84.180 C 380.008 84.180,379.576 84.575,379.102 85.059 M229.353 86.853 C 227.335 88.217,225.288 89.616,224.805 89.962 C 224.321 90.309,222.783 91.368,221.387 92.316 C 216.170 95.856,213.427 97.940,211.025 100.188 C 210.160 100.998,208.404 102.451,207.124 103.418 C 199.448 109.215,183.956 125.962,176.818 136.180 C 175.646 137.858,174.545 139.425,171.823 143.291 C 171.418 143.866,171.129 144.336,171.180 144.336 C 171.231 144.336,172.316 142.864,173.592 141.064 C 179.369 132.915,179.068 133.322,182.121 129.492 C 187.098 123.245,190.978 118.976,198.434 111.545 C 203.142 106.853,204.816 105.357,208.294 102.734 C 208.934 102.251,210.216 101.152,211.143 100.293 C 213.556 98.055,216.738 95.653,221.973 92.119 C 223.047 91.394,225.873 89.465,228.254 87.832 C 230.634 86.199,232.744 84.759,232.941 84.631 C 233.139 84.503,233.238 84.393,233.161 84.386 C 233.085 84.380,231.371 85.490,229.353 86.853 M383.008 85.371 L 381.934 86.363 383.057 85.443 C 384.042 84.635,384.311 84.369,384.131 84.377 C 384.104 84.378,383.599 84.826,383.008 85.371 M389.611 85.107 C 389.267 85.508,389.009 85.938,389.112 85.938 C 389.152 85.938,389.379 85.674,389.618 85.352 C 390.088 84.715,390.084 84.556,389.611 85.107 M387.827 87.549 C 386.580 89.212,385.547 90.817,385.547 91.091 C 385.547 91.198,385.861 90.763,386.245 90.125 C 386.869 89.087,388.059 87.413,388.839 86.475 C 388.995 86.287,389.070 86.133,389.006 86.133 C 388.942 86.133,388.411 86.770,387.827 87.549 M377.042 87.354 L 376.270 88.184 377.100 87.412 C 377.556 86.987,377.930 86.613,377.930 86.581 C 377.930 86.434,377.760 86.582,377.042 87.354 M380.171 87.939 L 378.809 89.355 380.225 87.994 C 381.540 86.729,381.730 86.523,381.587 86.523 C 381.557 86.523,380.920 87.161,380.171 87.939 M377.930 90.332 C 377.455 90.815,377.111 91.211,377.165 91.211 C 377.218 91.211,377.651 90.815,378.125 90.332 C 378.599 89.849,378.944 89.453,378.890 89.453 C 378.836 89.453,378.404 89.849,377.930 90.332 M292.476 90.455 C 291.995 90.898,291.602 91.344,291.602 91.446 C 291.602 91.548,291.840 91.349,292.130 91.003 C 292.421 90.657,292.927 90.212,293.253 90.012 C 293.580 89.813,293.736 89.650,293.599 89.649 C 293.462 89.649,292.957 90.011,292.476 90.455 M299.590 90.701 C 300.785 92.127,300.735 92.245,298.136 94.138 C 296.896 95.041,295.776 95.909,295.646 96.065 C 295.516 96.222,296.575 95.490,297.998 94.440 C 301.004 92.221,301.047 92.126,299.688 90.693 L 298.789 89.746 299.590 90.701 M376.453 92.041 L 375.879 92.676 376.514 92.102 C 377.105 91.567,377.238 91.406,377.087 91.406 C 377.054 91.406,376.768 91.692,376.453 92.041 M291.256 92.969 C 291.256 93.345,291.296 93.499,291.346 93.311 C 291.395 93.123,291.395 92.815,291.346 92.627 C 291.296 92.439,291.256 92.593,291.256 92.969 M333.398 93.555 C 333.022 93.761,332.803 93.929,332.910 93.929 C 333.018 93.929,333.413 93.761,333.789 93.555 C 334.165 93.349,334.385 93.180,334.277 93.180 C 334.170 93.180,333.774 93.349,333.398 93.555 M351.563 94.543 C 351.563 94.657,351.493 94.707,351.409 94.655 C 351.325 94.603,351.256 94.735,351.256 94.949 C 351.256 95.314,351.271 95.317,351.507 94.995 C 351.763 94.644,351.835 94.336,351.660 94.336 C 351.606 94.336,351.563 94.429,351.563 94.543 M373.622 95.459 L 372.949 96.191 373.682 95.518 C 374.084 95.148,374.414 94.819,374.414 94.786 C 374.414 94.637,374.249 94.777,373.622 95.459 M383.520 96.004 C 383.453 96.178,383.406 96.468,383.415 96.647 C 383.424 96.826,383.509 96.713,383.604 96.397 C 383.788 95.780,383.723 95.475,383.520 96.004 M294.370 96.988 C 293.905 97.355,293.604 97.656,293.702 97.656 C 293.800 97.656,294.224 97.352,294.645 96.981 C 295.624 96.117,295.466 96.121,294.370 96.988 M382.858 99.023 C 382.858 99.399,382.898 99.553,382.947 99.365 C 382.996 99.177,382.996 98.870,382.947 98.682 C 382.898 98.494,382.858 98.647,382.858 99.023 M348.232 100.606 C 347.901 101.261,347.663 101.830,347.702 101.869 C 347.742 101.908,348.054 101.372,348.397 100.677 C 348.739 99.983,348.978 99.414,348.927 99.414 C 348.876 99.414,348.563 99.950,348.232 100.606 M346.907 103.426 C 346.579 104.145,346.642 104.298,346.996 103.645 C 347.161 103.340,347.260 103.054,347.215 103.009 C 347.170 102.965,347.032 103.152,346.907 103.426 M382.280 104.688 C 382.280 105.171,382.318 105.369,382.364 105.127 C 382.411 104.885,382.411 104.490,382.364 104.248 C 382.318 104.006,382.280 104.204,382.280 104.688 M382.488 107.617 C 382.488 108.423,382.522 108.752,382.564 108.350 C 382.606 107.947,382.606 107.288,382.564 106.885 C 382.522 106.482,382.488 106.812,382.488 107.617 M344.643 109.291 C 344.571 109.578,344.550 109.849,344.596 109.895 C 344.642 109.941,344.738 109.745,344.810 109.459 C 344.882 109.172,344.903 108.901,344.857 108.855 C 344.811 108.809,344.715 109.005,344.643 109.291 M383.217 113.883 C 383.224 114.143,383.310 114.531,383.408 114.746 C 383.531 115.018,383.548 114.900,383.466 114.355 C 383.327 113.449,383.197 113.201,383.217 113.883 M383.607 115.641 C 383.615 115.901,383.701 116.289,383.798 116.504 C 383.922 116.776,383.939 116.658,383.856 116.113 C 383.718 115.206,383.588 114.959,383.607 115.641 M384.034 117.871 C 384.036 118.301,384.076 118.454,384.123 118.211 C 384.169 117.968,384.167 117.616,384.119 117.429 C 384.070 117.243,384.031 117.441,384.034 117.871 M384.244 120.801 C 384.245 121.553,384.280 121.836,384.322 121.431 C 384.365 121.026,384.364 120.411,384.321 120.064 C 384.278 119.717,384.243 120.049,384.244 120.801 M287.489 122.412 L 286.816 123.145 287.549 122.471 C 288.231 121.845,288.371 121.680,288.222 121.680 C 288.189 121.680,287.860 122.009,287.489 122.412 M315.257 123.457 C 315.137 123.800,315.045 124.178,315.053 124.297 C 315.060 124.415,315.193 124.168,315.347 123.748 C 315.501 123.327,315.592 122.949,315.551 122.907 C 315.509 122.866,315.377 123.113,315.257 123.457 M384.434 124.609 C 384.434 125.200,384.470 125.442,384.515 125.146 C 384.560 124.851,384.560 124.368,384.515 124.072 C 384.470 123.777,384.434 124.019,384.434 124.609 M314.565 125.502 C 314.493 125.788,314.472 126.060,314.518 126.106 C 314.564 126.152,314.660 125.956,314.732 125.670 C 314.804 125.383,314.825 125.112,314.779 125.066 C 314.733 125.019,314.637 125.216,314.565 125.502 M384.653 129.980 C 384.653 132.236,384.682 133.132,384.716 131.972 C 384.751 130.811,384.751 128.965,384.716 127.870 C 384.681 126.775,384.653 127.725,384.653 129.980 M314.085 126.972 C 313.965 127.316,313.873 127.694,313.881 127.812 C 313.889 127.931,314.021 127.683,314.175 127.263 C 314.329 126.843,314.421 126.465,314.379 126.423 C 314.337 126.381,314.205 126.629,314.085 126.972 M281.921 127.979 L 281.348 128.613 281.982 128.040 C 282.574 127.505,282.707 127.344,282.556 127.344 C 282.522 127.344,282.237 127.629,281.921 127.979 M313.588 128.627 C 313.516 128.913,313.495 129.185,313.541 129.231 C 313.587 129.277,313.684 129.081,313.756 128.795 C 313.827 128.508,313.849 128.237,313.802 128.191 C 313.756 128.144,313.660 128.341,313.588 128.627 M339.108 134.570 C 339.108 134.946,339.148 135.100,339.197 134.912 C 339.246 134.724,339.246 134.417,339.197 134.229 C 339.148 134.041,339.108 134.194,339.108 134.570 M384.819 135.156 C 384.819 135.640,384.857 135.837,384.903 135.596 C 384.950 135.354,384.950 134.958,384.903 134.717 C 384.857 134.475,384.819 134.673,384.819 135.156 M338.913 136.328 C 338.913 136.704,338.953 136.858,339.002 136.670 C 339.051 136.482,339.051 136.174,339.002 135.986 C 338.953 135.798,338.913 135.952,338.913 136.328 M384.626 137.012 C 384.628 137.549,384.666 137.745,384.710 137.448 C 384.755 137.152,384.754 136.712,384.708 136.472 C 384.661 136.232,384.625 136.475,384.626 137.012 M338.751 140.723 C 338.751 142.441,338.781 143.118,338.817 142.227 C 338.854 141.336,338.853 139.929,338.817 139.102 C 338.780 138.275,338.751 139.004,338.751 140.723 M384.431 139.160 C 384.432 139.697,384.470 139.894,384.515 139.597 C 384.560 139.300,384.559 138.861,384.512 138.620 C 384.466 138.380,384.429 138.623,384.431 139.160 M384.225 141.406 C 384.225 141.782,384.265 141.936,384.314 141.748 C 384.363 141.560,384.363 141.252,384.314 141.064 C 384.265 140.876,384.225 141.030,384.225 141.406 M384.030 143.164 C 384.030 143.540,384.070 143.694,384.119 143.506 C 384.168 143.318,384.168 143.010,384.119 142.822 C 384.070 142.634,384.030 142.788,384.030 143.164 M310.592 144.141 C 310.592 144.517,310.632 144.670,310.682 144.482 C 310.731 144.294,310.731 143.987,310.682 143.799 C 310.632 143.611,310.592 143.765,310.592 144.141 M339.314 144.434 C 339.315 144.971,339.353 145.167,339.398 144.870 C 339.443 144.573,339.442 144.134,339.395 143.894 C 339.349 143.654,339.312 143.896,339.314 144.434 M170.593 144.935 C 170.223 145.345,169.957 145.762,168.776 147.795 C 167.760 149.543,163.103 156.989,162.205 158.301 C 161.254 159.690,160.295 161.328,160.433 161.328 C 160.486 161.328,160.773 160.911,161.069 160.400 C 161.365 159.890,162.103 158.726,162.708 157.813 C 163.698 156.320,164.403 155.224,165.724 153.125 C 166.693 151.585,168.344 148.864,168.864 147.949 C 169.169 147.412,169.792 146.423,170.248 145.752 C 171.115 144.476,171.207 144.257,170.593 144.935 M383.834 145.117 C 383.834 145.493,383.875 145.647,383.924 145.459 C 383.973 145.271,383.973 144.963,383.924 144.775 C 383.875 144.587,383.834 144.741,383.834 145.117 M310.397 146.484 C 310.397 146.860,310.437 147.014,310.486 146.826 C 310.535 146.638,310.535 146.331,310.486 146.143 C 310.437 145.955,310.397 146.108,310.397 146.484 M383.661 147.363 C 383.661 148.223,383.696 148.550,383.737 148.091 C 383.778 147.631,383.778 146.928,383.736 146.528 C 383.694 146.128,383.660 146.504,383.661 147.363 M383.448 149.902 C 383.450 150.332,383.490 150.485,383.537 150.242 C 383.583 149.999,383.582 149.647,383.533 149.461 C 383.484 149.274,383.446 149.473,383.448 149.902 M310.238 153.418 C 310.238 155.459,310.267 156.267,310.302 155.214 C 310.337 154.162,310.337 152.492,310.302 151.504 C 310.266 150.515,310.237 151.377,310.238 153.418 M383.116 151.671 C 383.043 152.063,383.022 152.423,383.069 152.470 C 383.117 152.518,383.216 152.237,383.290 151.845 C 383.363 151.453,383.385 151.093,383.337 151.045 C 383.289 150.997,383.190 151.279,383.116 151.671 M382.666 154.395 C 382.669 154.824,382.709 154.977,382.755 154.734 C 382.802 154.491,382.800 154.140,382.751 153.953 C 382.702 153.766,382.664 153.965,382.666 154.395 M381.948 157.533 C 381.876 157.820,381.855 158.092,381.901 158.138 C 381.947 158.184,382.043 157.987,382.115 157.701 C 382.187 157.415,382.208 157.143,382.162 157.097 C 382.116 157.051,382.019 157.247,381.948 157.533 M310.564 158.496 C 310.558 158.711,310.638 159.019,310.742 159.180 C 310.993 159.568,310.993 159.080,310.742 158.496 L 310.574 158.105 310.564 158.496 M381.663 158.822 C 381.651 159.001,381.590 159.309,381.528 159.506 C 381.422 159.845,381.427 159.845,381.639 159.515 C 381.762 159.324,381.823 159.016,381.774 158.832 C 381.695 158.529,381.684 158.528,381.663 158.822 M159.815 162.158 C 159.539 162.507,159.150 163.281,159.251 163.281 C 159.298 163.281,159.518 162.974,159.740 162.598 C 160.143 161.914,160.180 161.698,159.815 162.158 M158.839 163.721 C 158.563 164.070,158.174 164.844,158.275 164.844 C 158.321 164.844,158.541 164.536,158.763 164.160 C 159.166 163.477,159.204 163.260,158.839 163.721 M157.496 165.869 C 157.212 166.326,156.882 166.826,156.761 166.981 C 156.598 167.192,156.601 167.228,156.772 167.125 C 157.020 166.977,158.259 165.039,158.106 165.039 C 158.055 165.039,157.780 165.413,157.496 165.869 M156.016 168.115 C 155.752 168.518,155.206 169.440,154.803 170.164 C 154.400 170.888,153.989 171.531,153.890 171.592 C 153.792 171.653,153.711 171.803,153.711 171.926 C 153.711 172.294,154.011 171.882,155.026 170.117 C 155.551 169.204,156.140 168.215,156.333 167.920 C 156.527 167.625,156.643 167.383,156.591 167.383 C 156.540 167.383,156.281 167.712,156.016 168.115 M377.961 171.395 C 377.837 171.669,377.738 171.999,377.742 172.128 C 377.746 172.258,377.879 172.064,378.038 171.699 C 378.372 170.930,378.301 170.650,377.961 171.395 M152.923 173.350 C 152.687 173.732,152.528 174.077,152.569 174.118 C 152.610 174.159,152.842 173.847,153.085 173.424 C 153.636 172.467,153.506 172.407,152.923 173.350 M151.953 175.195 C 151.734 175.625,151.599 175.977,151.652 175.977 C 151.706 175.977,151.929 175.625,152.148 175.195 C 152.368 174.766,152.503 174.414,152.449 174.414 C 152.396 174.414,152.172 174.766,151.953 175.195 M375.925 176.560 C 375.756 176.991,375.659 177.344,375.709 177.344 C 375.841 177.344,376.405 175.950,376.311 175.856 C 376.268 175.812,376.094 176.130,375.925 176.560 M150.742 177.197 C 150.021 178.270,149.665 178.877,149.853 178.711 C 150.131 178.467,151.628 176.172,151.509 176.172 C 151.467 176.172,151.122 176.633,150.742 177.197 M374.937 178.622 C 374.479 179.585,374.543 179.748,375.023 178.839 C 375.241 178.426,375.384 178.054,375.342 178.011 C 375.300 177.969,375.118 178.244,374.937 178.622 M149.464 179.150 C 149.188 179.499,148.799 180.273,148.900 180.273 C 148.946 180.273,149.166 179.966,149.388 179.590 C 149.791 178.907,149.829 178.690,149.464 179.150 M374.060 180.576 C 373.472 181.787,373.537 181.956,374.144 180.791 C 374.415 180.271,374.603 179.811,374.562 179.770 C 374.521 179.729,374.295 180.092,374.060 180.576 M148.489 180.713 C 148.174 181.115,146.445 184.375,146.547 184.375 C 146.598 184.375,147.125 183.496,147.716 182.422 C 148.738 180.566,148.920 180.163,148.489 180.713 M373.231 182.372 C 372.790 183.253,372.796 183.339,373.252 182.658 C 373.488 182.304,373.641 181.974,373.591 181.925 C 373.542 181.875,373.380 182.076,373.231 182.372 M372.110 184.583 C 371.867 185.006,371.707 185.352,371.756 185.352 C 371.890 185.352,372.711 183.974,372.627 183.890 C 372.586 183.849,372.353 184.161,372.110 184.583 M145.501 186.045 C 145.266 186.427,145.116 186.782,145.168 186.835 C 145.221 186.888,145.449 186.576,145.676 186.141 C 146.184 185.166,146.080 185.109,145.501 186.045 M143.348 189.624 C 142.375 191.033,141.138 192.599,138.018 196.373 C 136.859 197.775,135.149 199.295,132.638 201.156 C 131.875 201.722,131.250 202.231,131.250 202.288 C 131.250 202.462,135.243 199.387,136.555 198.204 C 137.869 197.017,142.817 190.854,144.168 188.721 C 144.933 187.512,144.407 188.092,143.348 189.624 M369.344 189.511 C 368.615 190.676,367.956 191.872,368.143 191.692 C 368.427 191.420,369.749 189.215,369.674 189.140 C 369.641 189.107,369.493 189.274,369.344 189.511 M367.448 192.529 C 367.264 192.825,367.020 193.193,366.906 193.348 C 366.756 193.553,366.760 193.593,366.924 193.495 C 367.161 193.353,368.017 191.992,367.869 191.992 C 367.821 191.992,367.632 192.234,367.448 192.529 M193.075 196.200 C 193.001 196.698,192.979 197.146,193.028 197.195 C 193.077 197.244,193.178 196.876,193.253 196.378 C 193.328 195.880,193.349 195.432,193.300 195.383 C 193.251 195.334,193.150 195.702,193.075 196.200 M364.624 196.924 C 364.265 197.488,363.311 198.815,362.504 199.872 C 360.426 202.593,359.651 203.659,359.996 203.320 C 360.522 202.805,363.862 198.427,364.522 197.389 C 365.417 195.980,365.464 195.898,365.364 195.898 C 365.315 195.898,364.982 196.360,364.624 196.924 M89.707 197.070 C 89.707 197.661,89.744 197.903,89.788 197.607 C 89.833 197.312,89.833 196.829,89.788 196.533 C 89.744 196.238,89.707 196.479,89.707 197.070 M61.089 197.604 C 61.549 197.645,62.252 197.645,62.652 197.603 C 63.052 197.561,62.676 197.527,61.816 197.528 C 60.957 197.529,60.630 197.563,61.089 197.604 M192.687 198.155 C 192.613 198.547,192.592 198.907,192.640 198.955 C 192.687 199.003,192.787 198.721,192.860 198.329 C 192.934 197.937,192.955 197.577,192.907 197.530 C 192.859 197.482,192.760 197.763,192.687 198.155 M68.213 197.991 C 68.508 198.036,68.992 198.036,69.287 197.991 C 69.583 197.947,69.341 197.910,68.750 197.910 C 68.159 197.910,67.917 197.947,68.213 197.991 M72.998 198.188 C 73.347 198.231,73.918 198.231,74.268 198.188 C 74.617 198.145,74.331 198.109,73.633 198.109 C 72.935 198.109,72.649 198.145,72.998 198.188 M76.904 198.185 C 77.146 198.231,77.542 198.231,77.783 198.185 C 78.025 198.138,77.827 198.100,77.344 198.100 C 76.860 198.100,76.663 198.138,76.904 198.185 M13.281 202.051 C 13.646 202.427,13.988 202.734,14.041 202.734 C 14.095 202.734,13.841 202.427,13.477 202.051 C 13.112 201.675,12.770 201.367,12.716 201.367 C 12.663 201.367,12.917 201.675,13.281 202.051 M16.602 205.371 C 16.966 205.747,17.308 206.055,17.362 206.055 C 17.415 206.055,17.161 205.747,16.797 205.371 C 16.432 204.995,16.090 204.688,16.037 204.688 C 15.983 204.688,16.237 204.995,16.602 205.371 M358.026 206.104 C 357.367 207.121,356.725 207.962,355.554 209.348 L 354.457 210.645 355.564 209.473 C 356.173 208.828,356.881 207.979,357.137 207.585 C 357.392 207.191,357.693 206.812,357.806 206.742 C 358.023 206.608,358.662 205.469,358.520 205.469 C 358.475 205.469,358.252 205.754,358.026 206.104 M190.674 209.082 C 190.676 209.512,190.716 209.665,190.763 209.422 C 190.810 209.179,190.808 208.827,190.759 208.640 C 190.710 208.454,190.672 208.652,190.674 209.082 M190.456 210.781 C 190.442 211.071,190.276 211.398,190.088 211.508 C 189.900 211.617,189.845 211.710,189.966 211.713 C 190.336 211.723,190.660 211.180,190.569 210.704 C 190.491 210.298,190.480 210.305,190.456 210.781 M353.604 211.572 L 352.832 212.402 353.662 211.630 C 354.434 210.912,354.582 210.742,354.434 210.742 C 354.402 210.742,354.029 211.116,353.604 211.572 M79.932 211.072 C 80.120 211.121,80.427 211.121,80.615 211.072 C 80.803 211.023,80.649 210.983,80.273 210.983 C 79.897 210.983,79.744 211.023,79.932 211.072 M347.070 218.340 C 341.647 223.833,340.605 224.776,337.907 226.627 C 336.900 227.317,336.116 227.964,336.638 227.673 C 337.020 227.461,338.971 226.094,340.153 225.210 C 341.500 224.203,353.260 212.494,352.916 212.502 C 352.870 212.503,350.239 215.130,347.070 218.340 M89.101 214.403 C 90.036 214.439,91.618 214.439,92.617 214.403 C 93.616 214.368,92.852 214.339,90.918 214.339 C 88.984 214.338,88.167 214.367,89.101 214.403 M58.938 220.841 C 59.181 220.888,59.532 220.886,59.719 220.837 C 59.906 220.788,59.707 220.750,59.277 220.752 C 58.848 220.755,58.695 220.795,58.938 220.841 M63.041 221.040 C 63.392 221.083,63.919 221.083,64.212 221.038 C 64.506 220.993,64.219 220.958,63.574 220.959 C 62.930 220.960,62.690 220.997,63.041 221.040 M114.111 224.158 C 114.299 224.207,114.607 224.207,114.795 224.158 C 114.983 224.109,114.829 224.069,114.453 224.069 C 114.077 224.069,113.923 224.109,114.111 224.158 M90.580 224.556 C 90.931 224.599,91.458 224.598,91.752 224.554 C 92.045 224.509,91.758 224.473,91.113 224.475 C 90.469 224.476,90.229 224.512,90.580 224.556 M109.619 224.549 C 109.807 224.598,110.115 224.598,110.303 224.549 C 110.491 224.500,110.337 224.459,109.961 224.459 C 109.585 224.459,109.431 224.500,109.619 224.549 M94.482 224.747 C 94.724 224.794,95.120 224.794,95.361 224.747 C 95.603 224.701,95.405 224.663,94.922 224.663 C 94.438 224.663,94.241 224.701,94.482 224.747 M106.299 224.744 C 106.487 224.793,106.794 224.793,106.982 224.744 C 107.170 224.695,107.017 224.655,106.641 224.655 C 106.265 224.655,106.111 224.695,106.299 224.744 M98.691 224.950 C 99.528 224.987,100.846 224.987,101.620 224.950 C 102.394 224.913,101.709 224.883,100.098 224.883 C 98.486 224.883,97.853 224.913,98.691 224.950 M335.587 228.209 C 334.679 228.850,334.552 229.034,335.318 228.595 C 335.675 228.390,336.059 228.113,336.172 227.979 C 336.460 227.633,336.325 227.687,335.587 228.209 M107.180 228.263 C 107.423 228.310,107.775 228.308,107.961 228.259 C 108.148 228.210,107.949 228.172,107.520 228.174 C 107.090 228.176,106.937 228.216,107.180 228.263 M129.250 228.263 C 129.493 228.310,129.845 228.308,130.032 228.259 C 130.218 228.210,130.020 228.172,129.590 228.174 C 129.160 228.176,129.007 228.216,129.250 228.263 M112.842 228.653 C 113.083 228.700,113.479 228.700,113.721 228.653 C 113.962 228.607,113.765 228.569,113.281 228.569 C 112.798 228.569,112.600 228.607,112.842 228.653 M122.903 228.656 C 123.200 228.701,123.639 228.699,123.880 228.653 C 124.120 228.607,123.877 228.570,123.340 228.571 C 122.803 228.573,122.606 228.611,122.903 228.656 M333.461 229.696 C 332.904 230.117,332.390 230.558,332.318 230.674 C 332.246 230.791,332.723 230.478,333.379 229.980 C 334.034 229.481,334.570 229.036,334.570 228.990 C 334.570 228.859,334.534 228.883,333.461 229.696 M330.758 231.751 C 326.822 234.754,326.825 234.751,326.957 234.759 C 327.051 234.765,327.468 234.456,330.464 232.165 C 331.991 230.997,332.141 230.873,332.027 230.866 C 331.972 230.862,331.400 231.260,330.758 231.751 M95.313 232.389 C 95.474 232.488,95.825 232.629,96.094 232.701 C 96.433 232.791,96.493 232.776,96.289 232.650 C 96.128 232.551,95.776 232.410,95.508 232.339 C 95.168 232.248,95.109 232.263,95.313 232.389 M97.668 233.453 C 98.252 233.806,98.840 234.163,98.975 234.246 C 99.109 234.330,99.219 234.356,99.219 234.304 C 99.219 234.166,97.019 232.813,96.795 232.813 C 96.690 232.813,97.083 233.101,97.668 233.453 M324.670 236.001 C 323.327 236.823,323.081 237.117,324.316 236.423 C 325.178 235.940,326.026 235.325,325.774 235.367 C 325.724 235.375,325.228 235.660,324.670 236.001 M102.344 235.947 C 103.021 236.407,103.407 236.541,102.930 236.150 C 102.661 235.931,102.354 235.750,102.246 235.750 C 102.139 235.749,102.183 235.838,102.344 235.947 M106.836 238.379 C 107.319 238.638,107.847 238.853,108.008 238.856 C 108.169 238.860,107.831 238.645,107.256 238.377 C 105.932 237.761,105.683 237.762,106.836 238.379 M111.133 240.137 C 111.401 240.290,111.709 240.416,111.816 240.416 C 111.924 240.416,111.792 240.290,111.523 240.137 C 111.255 239.983,110.947 239.858,110.840 239.858 C 110.732 239.858,110.864 239.983,111.133 240.137 M316.602 240.568 C 312.411 243.015,311.133 243.789,311.133 243.876 C 311.133 243.932,311.418 243.805,311.768 243.595 C 312.737 243.012,315.610 241.335,316.650 240.744 C 317.161 240.455,317.578 240.178,317.578 240.128 C 317.578 239.999,317.565 240.005,316.602 240.568 M112.500 240.706 C 112.769 240.850,113.208 241.022,113.477 241.089 C 113.745 241.155,113.613 241.041,113.184 240.834 C 112.300 240.409,111.752 240.307,112.500 240.706 M117.399 242.651 C 117.600 242.831,118.750 243.359,118.750 243.272 C 118.750 243.159,117.667 242.578,117.458 242.578 C 117.381 242.578,117.354 242.611,117.399 242.651 M118.945 243.472 C 118.945 243.604,119.960 243.972,120.057 243.876 C 120.101 243.831,119.869 243.702,119.541 243.587 C 119.213 243.473,118.945 243.421,118.945 243.472 M308.946 244.881 C 308.012 245.380,307.278 245.820,307.316 245.858 C 307.377 245.918,310.706 244.222,310.921 244.021 C 311.213 243.749,310.406 244.100,308.946 244.881 M121.514 244.626 C 121.692 244.804,126.815 247.070,127.031 247.067 C 127.149 247.065,125.977 246.493,124.426 245.797 C 121.726 244.585,121.303 244.415,121.514 244.626 M301.855 248.264 C 301.211 248.580,300.903 248.780,301.172 248.710 C 301.735 248.563,303.515 247.671,303.223 247.682 C 303.115 247.686,302.500 247.948,301.855 248.264 M129.403 248.031 C 129.567 248.190,130.745 248.693,131.934 249.111 C 132.308 249.243,132.309 249.239,131.954 249.012 C 131.428 248.678,129.178 247.812,129.403 248.031 M299.707 249.219 C 299.277 249.418,298.995 249.587,299.079 249.595 C 299.310 249.617,300.586 249.059,300.586 248.936 C 300.586 248.803,300.646 248.784,299.707 249.219 M135.156 250.293 C 135.425 250.446,135.776 250.572,135.938 250.571 C 136.099 250.571,135.935 250.442,135.573 250.285 C 134.742 249.924,134.518 249.928,135.156 250.293 M295.898 250.791 C 295.415 250.989,295.151 251.153,295.313 251.156 C 295.474 251.159,295.957 250.995,296.387 250.792 C 297.384 250.320,297.051 250.319,295.898 250.791 M138.672 251.465 C 139.564 251.808,139.914 251.803,139.160 251.458 C 138.838 251.310,138.442 251.192,138.281 251.196 C 138.120 251.199,138.296 251.320,138.672 251.465 M294.043 251.472 C 293.721 251.619,293.589 251.741,293.750 251.742 C 293.911 251.743,294.263 251.618,294.531 251.465 C 295.149 251.112,294.819 251.117,294.043 251.472 M291.441 252.373 C 290.870 252.592,290.436 252.805,290.476 252.846 C 290.550 252.920,292.600 252.189,292.757 252.034 C 292.930 251.863,292.439 251.989,291.441 252.373 M144.141 253.516 C 144.517 253.721,144.956 253.892,145.117 253.894 C 145.278 253.896,145.027 253.724,144.559 253.511 C 143.482 253.023,143.244 253.025,144.141 253.516 M150.763 255.966 C 151.559 256.339,152.241 256.613,152.279 256.575 C 152.365 256.489,149.745 255.271,149.496 255.280 C 149.397 255.284,149.967 255.593,150.763 255.966 M280.078 256.445 C 279.676 256.574,279.659 256.605,279.980 256.618 C 280.195 256.627,280.503 256.549,280.664 256.445 C 281.006 256.224,280.769 256.224,280.078 256.445 M276.367 257.520 C 275.991 257.664,275.815 257.786,275.977 257.789 C 276.138 257.792,276.533 257.674,276.855 257.527 C 277.610 257.181,277.259 257.176,276.367 257.520 M274.707 258.113 C 274.385 258.260,274.253 258.382,274.414 258.383 C 274.575 258.384,274.927 258.259,275.195 258.105 C 275.813 257.752,275.483 257.757,274.707 258.113 M273.242 258.691 C 272.974 258.845,272.842 258.971,272.949 258.971 C 273.057 258.971,273.364 258.845,273.633 258.691 C 273.901 258.538,274.033 258.412,273.926 258.412 C 273.818 258.412,273.511 258.538,273.242 258.691 M158.789 258.789 C 159.457 259.003,159.970 259.003,159.473 258.789 C 159.258 258.697,158.906 258.624,158.691 258.627 C 158.377 258.632,158.397 258.663,158.789 258.789 M270.605 259.675 C 270.117 259.910,270.101 259.937,270.508 259.838 C 271.061 259.702,271.683 259.385,271.387 259.390 C 271.279 259.391,270.928 259.520,270.605 259.675 M268.750 260.352 C 268.348 260.480,268.331 260.511,268.652 260.524 C 268.867 260.533,269.175 260.456,269.336 260.352 C 269.678 260.130,269.441 260.130,268.750 260.352 M266.797 260.850 C 266.220 261.015,266.086 261.102,266.406 261.102 C 266.675 261.103,267.202 260.985,267.578 260.840 C 268.436 260.510,267.963 260.515,266.797 260.850 M264.551 261.328 C 264.019 261.463,264.010 261.478,264.453 261.487 C 264.722 261.492,265.117 261.420,265.332 261.328 C 265.814 261.121,265.364 261.121,264.551 261.328 M262.695 261.719 C 262.309 261.843,262.288 261.875,262.598 261.875 C 262.813 261.875,263.208 261.805,263.477 261.719 C 263.863 261.595,263.884 261.562,263.574 261.562 C 263.359 261.562,262.964 261.633,262.695 261.719 M169.531 262.109 C 170.199 262.323,170.713 262.323,170.215 262.109 C 170.000 262.017,169.648 261.944,169.434 261.947 C 169.120 261.952,169.139 261.984,169.531 262.109 M261.035 262.109 C 260.789 262.215,260.753 262.277,260.938 262.277 C 261.099 262.277,261.406 262.202,261.621 262.109 C 261.867 262.004,261.903 261.942,261.719 261.942 C 261.558 261.942,261.250 262.017,261.035 262.109 M170.996 262.500 C 171.211 262.592,171.519 262.668,171.680 262.668 C 171.864 262.668,171.828 262.606,171.582 262.500 C 171.367 262.408,171.060 262.332,170.898 262.332 C 170.714 262.332,170.750 262.394,170.996 262.500 M259.082 262.603 C 258.652 262.745,258.433 262.866,258.594 262.873 C 258.755 262.879,259.282 262.760,259.766 262.608 C 260.249 262.455,260.469 262.334,260.254 262.338 C 260.039 262.342,259.512 262.462,259.082 262.603 M175.635 263.416 C 175.823 263.465,176.130 263.465,176.318 263.416 C 176.506 263.367,176.353 263.327,175.977 263.327 C 175.601 263.327,175.447 263.367,175.635 263.416 M254.785 263.867 C 254.245 264.005,254.237 264.018,254.688 264.036 C 254.956 264.047,255.308 263.971,255.469 263.867 C 255.801 263.652,255.629 263.652,254.785 263.867 M179.297 264.258 C 179.965 264.472,180.478 264.472,179.980 264.258 C 179.766 264.165,179.414 264.093,179.199 264.096 C 178.885 264.100,178.904 264.132,179.297 264.258 M180.859 264.648 C 181.128 264.734,181.523 264.805,181.738 264.805 C 182.048 264.805,182.027 264.772,181.641 264.648 C 181.372 264.562,180.977 264.492,180.762 264.492 C 180.452 264.492,180.473 264.525,180.859 264.648 M250.977 264.844 C 250.584 264.969,250.565 265.001,250.879 265.006 C 251.094 265.009,251.445 264.936,251.660 264.844 C 252.158 264.630,251.644 264.630,250.977 264.844 M244.727 266.211 C 244.059 266.351,244.057 266.355,244.629 266.367 C 244.951 266.373,245.391 266.303,245.605 266.211 C 246.075 266.009,245.685 266.009,244.727 266.211 M191.553 266.544 C 191.794 266.591,192.190 266.591,192.432 266.544 C 192.673 266.498,192.476 266.459,191.992 266.459 C 191.509 266.459,191.311 266.498,191.553 266.544 M197.122 267.132 C 197.419 267.177,197.858 267.176,198.098 267.130 C 198.339 267.083,198.096 267.047,197.559 267.048 C 197.021 267.050,196.825 267.087,197.122 267.132 M240.088 267.127 C 240.276 267.176,240.583 267.176,240.771 267.127 C 240.959 267.078,240.806 267.038,240.430 267.038 C 240.054 267.038,239.900 267.078,240.088 267.127 M200.052 267.328 C 200.348 267.373,200.788 267.371,201.028 267.325 C 201.268 267.279,201.025 267.242,200.488 267.243 C 199.951 267.245,199.755 267.283,200.052 267.328 M238.721 267.322 C 238.909 267.371,239.216 267.371,239.404 267.322 C 239.592 267.273,239.438 267.233,239.063 267.233 C 238.687 267.233,238.533 267.273,238.721 267.322 M202.494 267.524 C 202.845 267.568,203.372 267.567,203.666 267.522 C 203.959 267.478,203.672 267.442,203.027 267.443 C 202.383 267.444,202.143 267.481,202.494 267.524 M236.672 267.521 C 236.915 267.568,237.267 267.566,237.453 267.517 C 237.640 267.468,237.441 267.430,237.012 267.432 C 236.582 267.434,236.429 267.474,236.672 267.521 M205.713 267.718 C 206.008 267.763,206.492 267.763,206.787 267.718 C 207.083 267.673,206.841 267.637,206.250 267.637 C 205.659 267.637,205.417 267.673,205.713 267.718 M234.521 267.716 C 234.763 267.763,235.159 267.763,235.400 267.716 C 235.642 267.669,235.444 267.631,234.961 267.631 C 234.478 267.631,234.280 267.669,234.521 267.716 M208.936 267.918 C 209.714 267.956,210.989 267.956,211.768 267.918 C 212.546 267.881,211.909 267.851,210.352 267.851 C 208.794 267.851,208.157 267.881,208.936 267.918 M230.908 267.916 C 231.311 267.958,231.970 267.958,232.373 267.916 C 232.776 267.874,232.446 267.839,231.641 267.839 C 230.835 267.839,230.505 267.874,230.908 267.916 M214.606 268.113 C 215.174 268.153,216.053 268.152,216.559 268.112 C 217.066 268.072,216.602 268.040,215.527 268.040 C 214.453 268.041,214.039 268.073,214.606 268.113 M223.193 268.114 C 224.187 268.150,225.813 268.150,226.807 268.114 C 227.800 268.079,226.987 268.050,225.000 268.050 C 223.013 268.050,222.200 268.079,223.193 268.114 M219.385 268.304 C 219.680 268.349,220.164 268.349,220.459 268.304 C 220.754 268.259,220.513 268.223,219.922 268.223 C 219.331 268.223,219.089 268.259,219.385 268.304 " stroke="none" fill="#98c3ce" fill-rule="evenodd"></path><path id="path4" d="M260.893 18.033 C 260.988 20.079,261.084 20.252,261.110 18.420 C 261.123 17.540,261.064 16.778,260.981 16.726 C 260.897 16.674,260.858 17.262,260.893 18.033 M198.686 25.000 C 198.686 25.483,198.724 25.681,198.771 25.439 C 198.817 25.198,198.817 24.802,198.771 24.561 C 198.724 24.319,198.686 24.517,198.686 25.000 M260.600 25.781 C 260.600 26.265,260.638 26.462,260.685 26.221 C 260.731 25.979,260.731 25.583,260.685 25.342 C 260.638 25.100,260.600 25.298,260.600 25.781 M198.496 29.102 C 198.496 29.692,198.533 29.934,198.577 29.639 C 198.622 29.343,198.622 28.860,198.577 28.564 C 198.533 28.269,198.496 28.511,198.496 29.102 M260.407 29.590 C 260.409 30.127,260.447 30.323,260.492 30.027 C 260.537 29.730,260.535 29.290,260.489 29.050 C 260.443 28.810,260.406 29.053,260.407 29.590 M260.202 33.398 C 260.202 33.774,260.242 33.928,260.291 33.740 C 260.340 33.552,260.340 33.245,260.291 33.057 C 260.242 32.869,260.202 33.022,260.202 33.398 M198.092 34.375 C 198.092 34.751,198.132 34.905,198.182 34.717 C 198.231 34.529,198.231 34.221,198.182 34.033 C 198.132 33.845,198.092 33.999,198.092 34.375 M284.602 40.731 C 284.275 41.449,284.337 41.602,284.691 40.950 C 284.856 40.645,284.955 40.359,284.910 40.314 C 284.866 40.269,284.727 40.457,284.602 40.731 M282.898 41.455 L 282.324 42.090 282.959 41.516 C 283.551 40.981,283.684 40.820,283.533 40.820 C 283.499 40.820,283.213 41.106,282.898 41.455 M281.545 42.967 C 281.237 43.288,281.023 43.582,281.069 43.620 C 281.115 43.658,281.403 43.395,281.709 43.036 C 282.400 42.225,282.297 42.182,281.545 42.967 M280.163 44.580 L 279.590 45.215 280.225 44.641 C 280.816 44.106,280.949 43.945,280.798 43.945 C 280.765 43.945,280.479 44.231,280.163 44.580 M226.855 45.898 C 226.689 46.221,226.596 46.484,226.650 46.484 C 226.704 46.484,226.884 46.221,227.051 45.898 C 227.217 45.576,227.310 45.313,227.256 45.313 C 227.202 45.313,227.022 45.576,226.855 45.898 M179.102 48.535 C 180.441 49.878,181.581 50.977,181.635 50.977 C 181.688 50.977,180.636 49.878,179.297 48.535 C 177.957 47.192,176.817 46.094,176.764 46.094 C 176.710 46.094,177.762 47.192,179.102 48.535 M212.687 48.291 C 213.497 49.153,213.672 49.308,213.672 49.162 C 213.672 49.130,213.254 48.713,212.744 48.234 L 211.816 47.363 212.687 48.291 M245.020 49.463 C 244.503 50.134,244.255 50.529,244.468 50.341 C 244.873 49.984,246.177 48.242,246.040 48.242 C 245.996 48.242,245.538 48.792,245.020 49.463 M224.626 49.098 L 224.155 49.707 224.713 49.176 C 225.021 48.884,225.233 48.610,225.185 48.567 C 225.137 48.524,224.885 48.763,224.626 49.098 M275.391 49.316 C 274.916 49.800,274.572 50.195,274.626 50.195 C 274.679 50.195,275.112 49.800,275.586 49.316 C 276.060 48.833,276.405 48.438,276.351 48.438 C 276.297 48.438,275.865 48.833,275.391 49.316 M149.023 50.079 C 149.023 50.133,149.419 50.449,149.902 50.781 C 150.386 51.114,150.781 51.342,150.781 51.288 C 150.781 51.235,150.386 50.919,149.902 50.586 C 149.419 50.253,149.023 50.025,149.023 50.079 M222.666 50.601 C 222.188 50.915,221.882 51.172,221.986 51.172 C 222.199 51.172,223.633 50.231,223.633 50.091 C 223.633 49.965,223.640 49.962,222.666 50.601 M243.349 51.514 L 242.676 52.246 243.408 51.573 C 243.811 51.203,244.141 50.873,244.141 50.841 C 244.141 50.691,243.975 50.832,243.349 51.514 M272.461 51.782 C 271.780 52.378,271.780 52.379,272.406 51.963 C 272.752 51.733,273.087 51.461,273.150 51.358 C 273.339 51.053,273.182 51.149,272.461 51.782 M144.043 52.539 C 144.210 52.861,144.390 53.125,144.444 53.125 C 144.497 53.125,144.405 52.861,144.238 52.539 C 144.072 52.217,143.891 51.953,143.838 51.953 C 143.784 51.953,143.876 52.217,144.043 52.539 M192.784 54.648 C 192.307 55.153,192.125 55.428,192.380 55.259 C 192.789 54.987,193.918 53.696,193.726 53.720 C 193.686 53.725,193.262 54.143,192.784 54.648 M190.481 55.609 C 190.778 55.654,191.218 55.653,191.458 55.606 C 191.698 55.560,191.455 55.523,190.918 55.525 C 190.381 55.526,190.184 55.564,190.481 55.609 M179.355 58.203 C 179.355 58.794,179.392 59.036,179.437 58.740 C 179.482 58.445,179.482 57.961,179.437 57.666 C 179.392 57.371,179.355 57.612,179.355 58.203 M227.189 58.348 C 227.909 58.385,229.140 58.385,229.923 58.348 C 230.707 58.311,230.117 58.280,228.613 58.280 C 227.109 58.280,226.468 58.310,227.189 58.348 M222.024 58.537 C 222.267 58.583,222.618 58.582,222.805 58.533 C 222.992 58.484,222.793 58.446,222.363 58.448 C 221.934 58.450,221.781 58.490,222.024 58.537 M234.912 58.536 C 235.154 58.583,235.549 58.583,235.791 58.536 C 236.033 58.490,235.835 58.452,235.352 58.452 C 234.868 58.452,234.670 58.490,234.912 58.536 M217.432 58.924 C 217.620 58.973,217.927 58.973,218.115 58.924 C 218.303 58.875,218.149 58.834,217.773 58.834 C 217.397 58.834,217.244 58.875,217.432 58.924 M239.407 58.927 C 239.650 58.974,240.001 58.972,240.188 58.923 C 240.375 58.874,240.176 58.836,239.746 58.838 C 239.316 58.840,239.164 58.880,239.407 58.927 M278.576 60.449 C 278.577 61.094,278.614 61.334,278.657 60.983 C 278.701 60.632,278.700 60.104,278.655 59.811 C 278.611 59.517,278.575 59.805,278.576 60.449 M303.711 60.254 C 303.512 60.494,303.525 60.547,303.785 60.547 C 303.959 60.547,304.102 60.415,304.102 60.254 C 304.102 60.093,304.068 59.961,304.028 59.961 C 303.987 59.961,303.845 60.093,303.711 60.254 M165.039 60.439 C 165.039 60.493,165.303 60.673,165.625 60.840 C 165.947 61.006,166.211 61.099,166.211 61.045 C 166.211 60.991,165.947 60.811,165.625 60.645 C 165.303 60.478,165.039 60.385,165.039 60.439 M177.389 63.873 C 177.039 64.192,176.824 64.453,176.914 64.453 C 177.003 64.453,177.328 64.189,177.637 63.867 C 178.355 63.118,178.216 63.121,177.389 63.873 M169.385 78.137 C 168.821 78.570,168.359 78.967,168.359 79.019 C 168.359 79.071,168.843 78.749,169.434 78.303 C 170.366 77.599,170.650 77.334,170.459 77.347 C 170.432 77.349,169.949 77.704,169.385 78.137 M153.970 79.395 C 153.971 80.146,154.007 80.430,154.049 80.025 C 154.091 79.620,154.090 79.004,154.047 78.658 C 154.004 78.311,153.969 78.643,153.970 79.395 M164.148 82.471 L 163.574 83.105 164.209 82.532 C 164.558 82.216,164.844 81.931,164.844 81.897 C 164.844 81.746,164.683 81.879,164.148 82.471 M162.588 83.838 L 161.816 84.668 162.646 83.896 C 163.418 83.178,163.566 83.008,163.419 83.008 C 163.387 83.008,163.013 83.381,162.588 83.838 M159.565 86.670 L 158.301 87.988 159.619 86.724 C 160.344 86.029,160.938 85.436,160.938 85.406 C 160.938 85.262,160.739 85.445,159.565 86.670 M155.849 90.576 L 155.176 91.309 155.908 90.636 C 156.590 90.009,156.730 89.844,156.581 89.844 C 156.549 89.844,156.219 90.173,155.849 90.576 M96.289 94.336 C 96.668 94.581,96.875 94.581,96.875 94.336 C 96.875 94.229,96.677 94.142,96.436 94.144 C 96.080 94.146,96.052 94.183,96.289 94.336 M123.779 98.966 C 124.021 99.013,124.417 99.013,124.658 98.966 C 124.900 98.919,124.702 98.881,124.219 98.881 C 123.735 98.881,123.538 98.919,123.779 98.966 M130.228 99.360 C 130.579 99.404,131.106 99.403,131.400 99.358 C 131.693 99.314,131.406 99.278,130.762 99.279 C 130.117 99.280,129.877 99.317,130.228 99.360 M145.973 103.369 C 145.301 104.510,145.257 104.607,145.599 104.199 C 145.996 103.727,146.338 103.125,146.210 103.125 C 146.159 103.125,146.052 103.235,145.973 103.369 M120.703 109.049 C 120.703 109.103,121.055 109.425,121.484 109.766 C 121.914 110.106,122.266 110.340,122.266 110.287 C 122.266 110.233,121.914 109.911,121.484 109.570 C 121.055 109.230,120.703 108.995,120.703 109.049 M142.090 109.961 C 141.923 110.283,141.831 110.547,141.884 110.547 C 141.938 110.547,142.119 110.283,142.285 109.961 C 142.452 109.639,142.544 109.375,142.491 109.375 C 142.437 109.375,142.256 109.639,142.090 109.961 M122.461 110.402 C 122.461 110.448,122.922 110.871,123.486 111.341 C 124.050 111.811,124.388 112.042,124.238 111.852 C 123.935 111.473,122.461 110.270,122.461 110.402 M124.805 112.366 C 124.805 112.399,125.090 112.685,125.439 113.001 L 126.074 113.574 125.501 112.939 C 124.966 112.348,124.805 112.215,124.805 112.366 M112.376 125.527 C 112.515 125.666,114.288 125.618,114.437 125.471 C 114.482 125.427,114.006 125.391,113.379 125.391 C 112.752 125.391,112.301 125.452,112.376 125.527 M124.332 139.215 L 123.957 139.746 124.479 139.273 C 125.027 138.775,125.094 138.668,124.854 138.678 C 124.773 138.681,124.538 138.923,124.332 139.215 M123.145 140.161 C 122.793 140.460,122.722 140.579,122.965 140.458 C 123.323 140.280,123.995 139.637,123.803 139.655 C 123.763 139.659,123.467 139.887,123.145 140.161 M130.525 150.684 C 130.526 151.221,130.564 151.417,130.609 151.120 C 130.654 150.823,130.653 150.384,130.606 150.144 C 130.560 149.904,130.523 150.146,130.525 150.684 M130.349 157.031 C 130.349 158.374,130.380 158.923,130.418 158.252 C 130.456 157.581,130.456 156.482,130.418 155.811 C 130.380 155.139,130.349 155.688,130.349 157.031 M117.188 160.426 C 117.188 160.573,118.601 161.347,118.696 161.252 C 118.746 161.201,118.428 160.976,117.988 160.752 C 117.548 160.527,117.188 160.381,117.188 160.426 M130.518 163.184 C 130.520 163.613,130.560 163.766,130.607 163.523 C 130.654 163.280,130.652 162.929,130.603 162.742 C 130.554 162.555,130.516 162.754,130.518 163.184 M117.776 175.244 C 117.089 176.023,116.772 176.440,117.072 176.172 C 117.648 175.656,119.231 173.828,119.101 173.828 C 119.059 173.828,118.463 174.465,117.776 175.244 M114.160 178.845 C 112.736 180.205,112.662 180.300,113.770 179.344 C 114.521 178.695,115.350 177.936,115.610 177.657 C 116.536 176.664,115.893 177.190,114.160 178.845 M108.936 185.099 C 109.177 185.145,109.573 185.145,109.814 185.099 C 110.056 185.052,109.858 185.014,109.375 185.014 C 108.892 185.014,108.694 185.052,108.936 185.099 M126.221 191.504 C 126.223 191.934,126.263 192.086,126.310 191.843 C 126.357 191.600,126.355 191.249,126.306 191.062 C 126.257 190.875,126.219 191.074,126.221 191.504 M135.645 195.037 L 135.059 195.540 135.693 195.120 C 136.042 194.889,136.328 194.662,136.328 194.616 C 136.328 194.469,136.245 194.520,135.645 195.037 M131.104 198.045 C 130.449 198.444,130.202 198.793,130.811 198.459 C 131.264 198.209,131.959 197.670,131.836 197.663 C 131.782 197.660,131.453 197.832,131.104 198.045 M123.535 200.000 C 123.369 200.322,123.276 200.586,123.330 200.586 C 123.384 200.586,123.564 200.322,123.730 200.000 C 123.897 199.678,123.990 199.414,123.936 199.414 C 123.882 199.414,123.702 199.678,123.535 200.000 M121.680 202.930 C 121.266 203.510,121.344 203.632,121.973 203.391 C 122.220 203.296,122.239 203.229,122.050 203.113 C 121.851 202.989,121.852 202.899,122.058 202.652 C 122.198 202.482,122.265 202.344,122.205 202.344 C 122.146 202.344,121.909 202.607,121.680 202.930 " stroke="none" fill="#f7c698" fill-rule="evenodd"></path></g></svg>