<svg id="svg" version="1.1" xmlns="http://www.w3.org/2000/svg" xmlns:xlink="http://www.w3.org/1999/xlink" width="400" height="308.99082568807336" viewBox="0, 0, 400,308.99082568807336"><g id="svgg"><path id="path0" d="M185.781 14.715 C 182.465 14.940,177.457 15.265,174.652 15.437 C 168.539 15.812,163.728 16.266,161.206 16.707 C 160.185 16.885,158.516 17.174,157.496 17.348 C 153.088 18.101,150.509 18.648,145.351 19.924 C 143.601 20.357,141.766 20.711,141.273 20.711 C 140.780 20.711,140.291 20.850,140.185 21.020 C 140.080 21.190,139.672 21.329,139.279 21.329 C 137.935 21.329,129.064 24.452,125.502 26.179 C 119.586 29.048,115.630 31.030,112.056 32.913 C 108.116 34.989,96.615 42.532,95.604 43.703 C 93.086 46.617,92.109 50.044,92.730 53.787 C 92.913 54.892,93.182 57.813,93.327 60.278 C 93.601 64.908,93.924 66.631,94.924 68.769 C 95.978 71.024,97.393 75.847,97.693 78.207 C 98.246 82.566,98.712 84.295,100.169 87.394 C 101.314 89.830,101.574 89.817,103.451 87.232 C 105.695 84.142,110.801 79.317,113.461 77.772 C 114.898 76.938,116.988 75.666,118.105 74.947 C 121.234 72.932,123.330 72.099,126.638 71.554 C 130.683 70.888,131.708 70.602,134.605 69.329 L 137.061 68.249 144.255 68.292 C 151.822 68.337,155.406 67.980,159.505 66.773 C 166.768 64.635,177.432 64.574,185.327 66.625 C 186.877 67.028,189.596 67.577,191.368 67.845 C 193.140 68.113,195.147 68.461,195.827 68.619 C 197.749 69.066,205.430 70.403,208.346 70.799 C 211.655 71.248,220.580 71.038,225.348 70.399 C 231.784 69.535,240.790 69.120,244.787 69.503 C 246.761 69.692,249.629 69.925,251.159 70.021 C 256.474 70.353,260.791 71.021,263.988 72.005 C 268.690 73.454,272.656 74.577,275.067 75.143 C 277.450 75.702,280.384 76.702,284.235 78.265 C 286.954 79.368,291.099 81.680,293.707 83.549 C 296.599 85.620,296.616 85.615,297.264 82.535 C 297.461 81.600,297.922 79.722,298.290 78.362 C 299.834 72.651,301.228 64.830,302.022 57.428 C 303.285 45.656,296.773 39.685,275.127 32.770 C 274.126 32.450,271.244 31.324,268.724 30.268 C 266.204 29.212,261.917 27.617,259.196 26.724 C 256.476 25.830,253.694 24.859,253.014 24.566 C 249.787 23.175,239.453 19.628,236.785 18.996 C 235.680 18.734,234.219 18.387,233.539 18.224 C 230.961 17.607,224.477 16.398,222.102 16.091 C 220.742 15.915,218.725 15.631,217.620 15.459 C 209.230 14.158,197.892 13.893,185.781 14.715 M153.478 85.926 C 150.749 86.528,150.518 86.604,148.068 87.708 C 144.397 89.362,143.642 89.821,141.207 91.878 C 139.819 93.050,138.317 94.270,137.868 94.590 C 135.184 96.501,131.804 103.481,131.501 107.741 C 131.393 109.264,131.042 111.516,130.721 112.745 C 129.465 117.567,130.061 124.976,132.342 132.921 C 132.513 133.516,132.765 134.526,132.901 135.165 C 134.772 143.950,146.599 152.756,159.351 154.860 C 160.201 155.000,161.453 155.208,162.133 155.323 C 170.228 156.685,170.181 156.686,180.835 154.880 C 183.664 154.400,192.523 149.641,195.138 147.196 C 197.646 144.850,200.556 138.926,201.204 134.846 C 201.824 130.944,202.162 129.058,202.490 127.666 C 203.495 123.395,203.597 118.400,202.752 114.780 C 200.988 107.223,199.008 101.782,196.992 98.956 C 193.614 94.219,187.011 88.935,182.226 87.139 C 177.496 85.363,159.471 84.603,153.478 85.926 M175.824 93.797 C 179.123 94.675,182.194 96.935,183.203 99.227 C 184.115 101.297,184.187 101.556,184.369 103.400 C 184.469 104.420,184.758 106.785,185.011 108.655 C 185.264 110.526,185.611 113.168,185.781 114.529 C 185.951 115.889,186.213 117.975,186.364 119.165 C 186.515 120.355,186.804 122.790,187.008 124.575 C 187.644 130.171,188.041 130.841,191.186 131.639 C 193.720 132.282,193.745 132.338,194.590 139.075 C 194.907 141.602,193.903 142.120,187.326 142.819 C 185.541 143.009,183.219 143.297,182.167 143.458 C 177.677 144.147,175.004 141.753,174.338 136.444 C 174.149 134.931,173.854 132.790,173.684 131.685 C 173.513 130.580,173.244 128.563,173.086 127.202 C 172.584 122.899,171.442 113.821,171.063 111.128 C 170.584 107.723,168.171 105.872,165.261 106.675 C 163.799 107.079,162.287 108.544,162.287 109.556 C 162.287 110.000,162.122 110.629,161.920 110.953 C 161.635 111.409,161.635 111.904,161.920 113.136 C 162.122 114.013,162.287 115.253,162.287 115.892 C 162.287 116.530,162.420 117.806,162.581 118.727 C 162.742 119.648,163.036 121.654,163.233 123.184 C 163.430 124.714,163.716 126.940,163.870 128.130 C 164.023 129.320,164.275 131.406,164.429 132.767 C 164.974 137.579,165.709 142.906,165.862 143.153 C 165.947 143.291,165.817 143.882,165.573 144.466 C 164.951 145.953,163.923 146.203,158.064 146.292 C 151.683 146.389,151.832 146.542,151.028 139.104 C 150.892 137.846,150.467 134.521,149.607 127.975 C 149.177 124.700,148.755 121.186,148.381 117.774 C 147.742 111.947,147.029 109.699,145.750 109.474 C 145.410 109.414,144.227 109.334,143.122 109.296 C 139.962 109.187,139.598 108.802,139.295 105.255 C 139.209 104.235,139.044 102.496,138.930 101.391 C 138.616 98.340,138.933 98.076,143.586 97.512 C 145.626 97.265,148.756 96.861,150.541 96.614 C 157.873 95.600,159.299 95.622,159.594 96.749 C 159.886 97.869,160.670 97.810,162.369 96.541 C 166.165 93.705,171.439 92.629,175.824 93.797 M266.770 95.402 C 264.788 95.639,261.686 96.554,260.278 97.317 C 255.681 99.811,254.683 100.397,252.938 101.627 C 247.359 105.562,244.429 112.765,244.000 123.603 C 243.524 135.619,248.682 143.740,259.278 147.660 C 267.279 150.620,267.509 150.523,269.670 143.277 C 270.787 139.532,271.799 136.996,273.061 134.776 C 274.825 131.673,277.280 126.791,277.280 126.386 C 277.280 126.185,278.516 123.714,280.027 120.893 C 281.539 118.073,283.144 114.652,283.595 113.292 C 284.046 111.932,285.174 109.273,286.102 107.384 C 288.248 103.015,288.245 102.922,285.861 100.654 C 282.212 97.182,273.024 94.654,266.770 95.402 M204.874 158.135 C 204.686 158.323,200.723 159.107,198.454 159.404 C 197.689 159.504,196.924 159.688,196.754 159.812 C 196.584 159.937,196.033 160.137,195.530 160.258 C 194.233 160.569,188.995 164.282,187.238 166.136 C 185.655 167.806,184.562 169.503,181.456 175.116 C 179.463 178.717,178.696 186.431,179.842 191.345 C 180.654 194.823,181.533 198.069,181.895 198.918 C 182.112 199.428,182.604 200.680,182.989 201.700 C 184.624 206.039,185.066 206.762,188.551 210.788 C 192.226 215.035,194.226 216.005,202.628 217.613 C 207.772 218.597,212.475 218.599,217.311 217.619 C 223.134 216.438,223.569 216.316,228.439 214.476 C 233.868 212.426,239.278 206.928,239.907 202.822 C 240.137 201.319,241.248 194.565,241.747 191.635 C 242.546 186.943,242.009 180.090,240.489 175.581 C 238.367 169.289,229.590 161.244,222.720 159.295 C 222.040 159.102,220.706 158.723,219.756 158.452 C 218.049 157.965,205.315 157.694,204.874 158.135 M206.181 161.229 C 213.948 162.175,213.514 160.629,210.947 178.207 C 210.011 184.613,210.020 186.261,210.996 187.165 C 213.037 189.057,215.156 187.140,215.567 183.030 C 215.676 181.942,215.893 180.898,216.049 180.710 C 216.206 180.522,216.409 179.186,216.502 177.742 C 216.875 171.912,217.175 169.407,217.543 169.041 C 217.781 168.803,217.929 167.795,217.929 166.410 C 217.929 163.621,218.191 163.420,221.583 163.613 C 224.199 163.762,228.314 164.338,228.768 164.618 C 229.157 164.859,229.139 169.310,228.748 169.552 C 228.578 169.657,228.439 170.980,228.439 172.491 C 228.439 174.500,228.324 175.306,228.013 175.487 C 227.564 175.748,226.789 180.332,225.647 189.490 C 225.488 190.765,225.225 192.504,225.062 193.354 C 224.899 194.204,224.758 195.602,224.748 196.461 C 224.738 197.319,224.601 198.154,224.444 198.315 C 224.288 198.477,224.091 199.583,224.007 200.773 C 223.621 206.258,222.945 208.678,221.587 209.443 C 216.957 212.050,216.187 212.161,209.821 211.135 C 207.735 210.799,204.776 210.366,203.246 210.172 C 190.974 208.619,190.474 208.504,189.714 207.040 C 189.252 206.149,189.789 201.778,190.444 201.097 C 190.599 200.936,190.726 200.501,190.726 200.131 C 190.726 199.071,191.457 198.683,193.113 198.865 C 193.926 198.954,195.969 199.171,197.655 199.348 C 199.341 199.524,200.864 199.813,201.040 199.989 C 201.216 200.165,202.367 200.309,203.598 200.309 C 204.830 200.309,205.923 200.448,206.028 200.618 C 206.136 200.793,207.663 200.927,209.552 200.927 L 212.886 200.927 213.584 199.570 C 214.682 197.435,214.201 196.616,212.210 197.229 C 211.155 197.554,206.107 196.412,203.858 195.341 C 199.931 193.469,198.646 190.760,199.392 185.927 C 199.549 184.912,199.831 182.759,200.018 181.144 C 200.205 179.529,200.481 177.929,200.631 177.589 C 200.781 177.249,200.971 176.066,201.053 174.961 C 201.135 173.856,201.292 172.388,201.401 171.698 C 201.603 170.418,200.663 169.171,198.595 167.979 C 198.043 167.661,198.034 167.494,198.418 164.781 C 199.037 160.405,199.119 160.367,206.181 161.229 M180.062 240.425 C 174.220 242.548,174.282 242.499,175.116 244.389 C 176.154 246.744,176.461 247.542,177.096 249.551 C 177.697 251.450,180.583 256.257,182.129 257.933 C 183.413 259.325,185.537 262.883,187.405 266.770 C 188.507 269.065,190.262 272.702,191.305 274.852 C 192.347 277.001,193.199 278.888,193.199 279.044 C 193.199 279.743,194.496 281.917,194.913 281.917 C 196.956 281.917,201.429 276.912,203.903 271.857 L 205.410 268.779 205.513 264.950 C 205.646 260.037,205.101 257.459,203.023 253.168 C 196.658 240.029,190.522 236.624,180.062 240.425 " stroke="none" fill="#ac0e3e" fill-rule="evenodd"></path><path id="path1" d="M165.533 71.250 C 164.343 71.461,161.700 72.057,159.660 72.574 C 154.309 73.931,151.085 74.254,143.968 74.147 C 137.907 74.057,137.669 74.076,136.330 74.781 C 134.379 75.807,128.655 77.264,126.473 77.289 C 121.508 77.348,104.888 91.331,105.010 95.347 C 105.037 96.229,105.454 97.115,108.309 102.351 C 108.921 103.473,109.918 105.838,110.524 107.606 C 111.130 109.373,111.817 111.306,112.051 111.901 C 112.285 112.496,112.994 114.374,113.627 116.074 C 114.260 117.774,114.879 119.304,115.003 119.474 C 115.451 120.089,120.135 129.407,120.830 131.066 C 121.610 132.928,125.400 139.763,126.744 141.731 C 128.346 144.077,134.096 155.130,135.991 159.505 C 136.396 160.440,137.452 162.736,138.339 164.606 C 139.225 166.476,140.191 168.563,140.486 169.243 C 140.780 169.923,141.142 170.757,141.289 171.097 C 141.436 171.437,141.987 173.004,142.513 174.578 C 143.040 176.152,144.435 179.352,145.614 181.688 C 146.793 184.024,147.758 186.088,147.758 186.274 C 147.760 187.112,150.424 191.931,152.893 195.558 C 155.250 199.021,156.646 201.602,158.476 205.873 C 158.731 206.468,159.956 208.972,161.198 211.437 C 162.440 213.903,164.104 217.494,164.895 219.419 C 165.687 221.344,166.664 223.639,167.067 224.520 C 167.469 225.400,168.142 227.033,168.562 228.148 C 168.982 229.263,169.670 230.932,170.093 231.857 C 171.542 235.032,172.116 236.323,172.610 237.517 C 172.982 238.415,173.240 238.670,173.647 238.543 C 174.763 238.196,180.395 236.165,180.989 235.896 C 185.800 233.721,194.952 235.527,198.943 239.440 C 200.122 240.596,202.782 243.995,202.782 244.345 C 202.782 244.437,203.247 245.173,203.815 245.981 C 213.306 259.481,211.239 276.253,199.058 284.576 C 197.486 285.650,196.944 286.189,197.087 286.537 C 197.195 286.801,197.486 287.969,197.733 289.133 C 198.493 292.706,199.373 293.950,200.487 293.025 C 201.450 292.227,203.086 289.682,203.710 288.013 C 204.328 286.361,205.408 284.767,208.362 281.144 C 209.055 280.294,209.787 279.388,209.989 279.131 C 210.930 277.931,212.148 275.854,213.721 272.764 C 214.664 270.912,215.783 268.771,216.207 268.006 C 216.631 267.241,217.693 265.085,218.566 263.215 C 219.440 261.345,220.624 258.825,221.197 257.615 C 221.771 256.405,222.600 254.388,223.041 253.133 C 224.111 250.082,225.759 246.623,226.979 244.866 C 227.526 244.077,228.138 243.124,228.337 242.748 C 228.536 242.372,228.907 241.676,229.162 241.202 C 229.416 240.728,230.349 238.462,231.234 236.167 C 232.119 233.872,233.089 231.437,233.390 230.757 C 233.690 230.077,234.036 229.243,234.157 228.903 C 234.278 228.563,235.043 226.406,235.855 224.111 C 238.341 217.091,238.652 216.323,239.539 215.017 C 240.427 213.709,243.148 208.383,243.893 206.491 C 244.128 205.896,244.781 204.400,245.344 203.167 C 245.907 201.934,246.368 200.796,246.368 200.640 C 246.368 200.483,246.838 199.336,247.413 198.091 C 249.351 193.895,249.523 193.360,249.600 191.265 C 249.652 189.850,249.840 188.995,250.184 188.616 C 250.462 188.308,251.048 186.605,251.485 184.832 C 252.468 180.847,253.063 178.879,253.770 177.280 C 254.070 176.600,254.568 175.209,254.875 174.189 C 255.182 173.168,255.530 172.195,255.648 172.025 C 255.766 171.855,256.239 170.713,256.701 169.488 C 257.503 167.359,258.336 165.660,262.246 158.184 C 264.431 154.005,264.435 153.863,262.365 153.336 C 260.852 152.951,259.315 152.384,258.041 151.740 C 257.746 151.590,257.329 151.468,257.114 151.467 C 255.572 151.462,248.791 147.078,246.516 144.617 C 243.591 141.451,240.930 136.067,240.201 131.839 C 239.996 130.649,239.700 129.172,239.543 128.558 C 239.173 127.107,239.178 123.376,239.553 121.193 C 239.715 120.248,240.004 118.362,240.194 117.002 C 241.045 110.917,243.838 104.410,247.141 100.819 C 249.657 98.084,258.464 93.017,262.597 91.927 C 270.065 89.958,283.013 92.536,287.769 96.939 C 288.767 97.863,289.676 98.472,289.874 98.349 C 290.770 97.795,293.283 91.638,292.959 90.793 C 292.445 89.455,284.948 84.863,281.065 83.508 C 280.088 83.167,278.733 82.650,278.053 82.359 C 276.726 81.791,275.473 81.428,273.261 80.971 C 272.496 80.813,270.549 80.274,268.934 79.773 C 260.392 77.122,258.125 76.627,251.932 76.061 C 249.807 75.867,246.732 75.555,245.099 75.368 C 241.032 74.902,230.622 75.390,223.957 76.358 C 217.212 77.338,207.546 76.948,200.773 75.423 C 200.093 75.270,197.450 74.783,194.900 74.341 C 187.514 73.060,185.381 72.646,183.594 72.150 C 179.076 70.895,170.065 70.446,165.533 71.250 M175.270 81.592 C 183.586 82.838,185.984 83.733,190.937 87.443 C 199.078 93.539,201.909 97.737,205.244 108.655 C 207.191 115.030,207.624 122.408,206.352 127.512 C 205.553 130.712,205.269 132.201,204.965 134.776 C 204.683 137.166,204.337 138.551,203.763 139.588 C 203.582 139.917,203.138 141.015,202.778 142.030 C 202.115 143.895,199.981 147.364,198.362 149.208 C 195.445 152.530,184.817 158.012,179.830 158.767 C 163.018 161.311,146.111 157.155,137.569 148.379 C 132.847 143.528,130.661 140.193,129.565 136.167 C 128.593 132.597,128.204 131.119,127.978 130.139 C 127.841 129.544,127.557 128.362,127.346 127.512 C 126.289 123.241,126.975 105.212,128.336 101.505 C 130.546 95.485,137.645 88.011,144.049 84.962 C 149.613 82.314,150.907 81.911,155.796 81.309 C 158.578 80.966,172.438 81.168,175.270 81.592 M169.619 95.546 C 166.796 95.959,163.595 97.640,161.342 99.893 C 159.275 101.960,158.269 101.854,158.269 99.570 C 158.269 97.828,157.707 97.535,155.144 97.941 C 151.877 98.458,148.296 98.936,145.440 99.236 C 140.289 99.776,140.606 99.464,141.129 103.480 C 141.638 107.381,141.633 107.373,143.332 107.182 C 145.036 106.990,147.125 107.440,147.777 108.140 C 149.241 109.712,149.542 111.023,150.695 120.866 C 151.228 125.411,152.455 135.101,153.181 140.495 C 153.806 145.134,153.479 144.991,161.597 144.170 C 164.081 143.919,163.973 144.790,162.731 135.055 C 162.137 130.396,161.384 124.428,161.056 121.793 C 160.729 119.158,160.302 115.889,160.107 114.529 C 159.172 108.014,161.790 104.171,166.898 104.561 C 171.167 104.886,172.475 106.776,173.391 113.938 C 173.736 116.643,174.383 121.638,174.829 125.039 C 175.274 128.439,175.831 132.819,176.066 134.772 C 176.922 141.885,177.429 142.146,187.790 140.785 C 192.912 140.112,192.981 140.095,192.756 139.509 C 192.651 139.236,192.480 138.001,192.376 136.765 C 192.135 133.916,192.220 134.023,189.483 133.136 C 186.079 132.033,186.016 131.882,184.709 121.484 C 184.441 119.359,184.025 116.090,183.784 114.219 C 183.543 112.349,183.114 109.011,182.830 106.801 C 181.654 97.630,177.801 94.348,169.619 95.546 M220.247 154.557 C 220.927 154.757,222.040 155.063,222.720 155.236 C 227.913 156.559,234.242 160.642,238.273 165.269 C 245.056 173.055,247.095 182.132,244.829 194.454 C 244.655 195.400,244.513 196.566,244.513 197.046 C 244.513 197.526,244.384 198.422,244.227 199.037 C 244.070 199.652,243.704 201.267,243.414 202.628 C 242.521 206.823,241.993 207.826,238.606 211.761 C 235.989 214.802,228.385 218.896,223.648 219.816 C 222.968 219.948,220.603 220.428,218.393 220.883 C 211.976 222.205,206.302 221.929,196.754 219.831 C 188.466 218.010,180.923 208.879,177.947 197.063 C 177.647 195.873,177.281 194.413,177.133 193.818 C 176.986 193.223,176.724 192.179,176.551 191.499 C 175.728 188.259,176.077 177.947,177.094 175.425 C 181.565 164.343,189.234 157.130,198.300 155.480 C 202.687 154.682,203.692 154.505,205.255 154.255 C 207.591 153.883,218.719 154.107,220.247 154.557 M201.048 163.142 C 200.155 163.732,200.223 166.289,201.140 166.633 C 203.911 167.673,204.131 170.757,202.162 180.989 C 200.811 188.008,201.180 191.042,203.559 192.491 C 206.300 194.161,207.220 194.545,209.413 194.934 C 211.764 195.352,211.941 195.342,213.493 194.698 C 215.846 193.723,216.095 194.022,215.997 197.697 C 215.854 203.026,213.478 204.271,206.028 202.919 C 203.837 202.521,199.012 201.820,195.548 201.396 C 194.885 201.315,194.092 201.169,193.787 201.072 C 192.870 200.781,192.073 201.916,191.698 204.044 C 191.279 206.422,191.221 206.360,194.281 206.802 C 195.641 206.999,198.076 207.363,199.691 207.612 C 201.306 207.861,203.687 208.182,204.981 208.326 C 206.275 208.469,207.650 208.687,208.037 208.810 C 210.210 209.499,215.724 209.813,217.422 209.344 C 220.516 208.489,221.125 206.918,222.542 196.136 C 222.743 194.606,223.043 192.658,223.208 191.808 C 223.543 190.088,223.991 186.888,224.421 183.153 C 224.578 181.793,224.929 179.359,225.201 177.743 C 225.474 176.128,225.826 173.694,225.984 172.334 C 226.142 170.974,226.411 169.458,226.582 168.965 C 227.374 166.683,227.114 166.379,224.040 166.000 C 222.804 165.848,221.490 165.632,221.121 165.521 C 220.510 165.337,220.432 165.456,220.262 166.817 C 220.160 167.641,219.940 169.011,219.775 169.861 C 219.609 170.711,219.256 173.006,218.990 174.961 C 217.260 187.698,217.387 187.162,215.627 189.104 C 214.072 190.819,210.635 190.463,208.909 188.408 C 207.724 186.997,207.728 185.777,208.951 177.434 C 209.113 176.329,209.407 174.104,209.604 172.488 C 209.802 170.873,210.079 169.274,210.220 168.934 C 210.362 168.594,210.520 167.342,210.571 166.151 L 210.665 163.988 209.274 163.789 C 203.026 162.898,201.588 162.785,201.048 163.142 " stroke="none" fill="#1e2f6e" fill-rule="evenodd"></path><path id="path2" d="M0.000 154.560 L 0.000 309.119 200.000 309.119 L 400.000 309.119 400.000 154.560 L 400.000 0.000 200.000 0.000 L 0.000 0.000 0.000 154.560 M210.355 13.888 C 212.226 14.056,214.104 14.259,214.529 14.339 C 214.954 14.418,216.971 14.712,219.011 14.991 C 223.048 15.544,224.102 15.721,229.212 16.696 C 236.569 18.100,243.454 20.066,248.686 22.256 C 250.188 22.884,257.849 25.631,259.815 26.246 C 261.005 26.618,262.535 27.141,263.215 27.408 C 263.895 27.676,264.730 28.002,265.070 28.133 C 265.410 28.263,267.427 29.071,269.552 29.928 C 271.677 30.784,274.876 31.990,276.662 32.607 C 278.447 33.224,280.185 33.845,280.526 33.986 C 280.866 34.127,282.465 34.758,284.080 35.387 C 290.958 38.066,292.734 38.928,295.827 41.086 C 301.804 45.258,304.029 52.633,302.189 62.177 C 301.948 63.428,301.589 65.564,301.392 66.924 C 300.963 69.877,300.608 71.656,299.790 74.961 C 296.682 87.509,297.065 86.866,294.053 84.589 C 290.818 82.144,285.813 79.384,282.844 78.408 C 282.079 78.156,280.827 77.683,280.062 77.356 C 279.297 77.029,277.697 76.522,276.507 76.230 C 273.662 75.532,272.977 75.343,269.861 74.403 C 258.981 71.118,255.303 70.542,241.577 69.976 C 237.962 69.827,227.647 70.596,221.329 71.485 C 216.013 72.233,207.621 71.616,198.918 69.836 C 198.068 69.662,196.607 69.395,195.672 69.243 C 194.737 69.090,192.790 68.754,191.345 68.496 C 189.900 68.238,188.161 67.941,187.481 67.837 C 186.801 67.733,185.966 67.537,185.626 67.401 C 179.915 65.123,164.878 65.102,159.660 67.364 C 156.536 68.719,146.095 69.617,141.921 68.890 C 139.958 68.548,136.456 68.905,135.549 69.539 C 135.379 69.658,134.474 70.081,133.539 70.478 C 131.818 71.210,131.496 71.287,126.664 72.126 C 123.585 72.661,121.447 73.558,118.032 75.749 C 116.719 76.591,115.569 77.280,115.476 77.280 C 113.842 77.280,107.131 83.455,103.275 88.506 C 101.546 90.771,101.228 90.695,99.660 87.635 C 98.261 84.907,97.602 82.558,97.057 78.362 C 96.858 76.832,96.579 75.301,96.438 74.961 C 96.296 74.621,95.950 73.578,95.668 72.643 C 95.386 71.708,94.822 70.213,94.414 69.322 C 93.381 67.063,93.117 65.704,92.744 60.742 C 92.565 58.362,92.260 55.276,92.067 53.885 C 91.367 48.849,93.418 43.915,97.218 41.491 C 97.558 41.275,98.740 40.489,99.845 39.745 C 103.949 36.983,108.410 34.166,110.510 33.011 C 114.841 30.630,128.185 24.159,130.294 23.418 C 134.116 22.075,137.359 21.083,139.104 20.724 C 140.039 20.532,141.291 20.250,141.886 20.098 C 143.137 19.777,149.185 18.336,151.005 17.924 C 151.685 17.771,153.423 17.425,154.869 17.155 C 156.314 16.886,158.167 16.533,158.988 16.370 C 159.809 16.207,160.885 16.074,161.379 16.074 C 161.874 16.074,162.872 15.931,163.597 15.755 C 165.256 15.354,180.614 14.260,189.799 13.888 C 193.624 13.733,197.102 13.550,197.527 13.480 C 198.676 13.290,206.466 13.538,210.355 13.888 M180.680 70.792 C 181.530 70.994,182.713 71.278,183.308 71.422 C 186.500 72.193,188.644 72.639,190.726 72.965 C 192.689 73.271,198.014 74.255,201.391 74.935 C 207.786 76.223,217.099 76.677,222.306 75.955 C 224.234 75.688,227.133 75.308,228.748 75.112 C 232.909 74.605,244.577 74.572,248.841 75.054 C 255.857 75.848,259.828 76.383,260.587 76.639 C 261.012 76.782,261.986 77.071,262.751 77.282 C 266.231 78.240,270.057 79.362,273.385 80.400 C 273.878 80.554,274.584 80.680,274.954 80.680 C 275.597 80.680,279.005 81.904,280.135 82.541 C 280.430 82.708,280.884 82.844,281.144 82.844 C 281.403 82.844,281.857 82.971,282.153 83.126 C 282.448 83.282,283.872 83.999,285.317 84.721 C 292.795 88.455,294.405 90.298,293.036 93.560 C 290.406 99.827,290.145 100.073,288.147 98.168 C 284.843 95.020,282.122 93.782,276.198 92.734 C 275.348 92.583,273.818 92.314,272.798 92.136 C 270.503 91.735,266.765 91.736,264.915 92.137 C 264.150 92.304,262.981 92.527,262.318 92.635 C 261.016 92.845,255.375 95.629,252.443 97.508 C 247.274 100.820,244.573 104.252,242.819 109.737 C 242.519 110.672,242.168 111.654,242.038 111.918 C 241.908 112.182,241.587 113.365,241.325 114.545 C 236.908 134.473,243.823 146.854,262.663 152.745 C 263.719 153.075,264.655 153.462,264.743 153.604 C 265.071 154.134,262.342 159.971,260.073 163.595 C 259.676 164.229,259.351 164.817,259.351 164.900 C 259.351 164.984,259.021 165.787,258.619 166.684 C 258.216 167.581,257.499 169.289,257.025 170.479 C 256.551 171.669,256.046 172.775,255.902 172.937 C 255.759 173.098,255.641 173.449,255.641 173.716 C 255.641 173.984,255.208 175.312,254.677 176.669 C 253.728 179.096,252.315 183.650,252.042 185.162 C 251.781 186.608,251.198 188.406,250.791 189.018 C 250.569 189.353,250.386 190.258,250.386 191.028 C 250.386 192.438,249.375 195.654,248.263 197.776 C 247.934 198.404,247.492 199.405,247.279 200.000 C 246.767 201.437,246.195 202.810,244.514 206.646 C 243.184 209.681,241.574 212.863,240.272 215.031 C 239.544 216.243,238.949 217.335,238.949 217.458 C 238.949 217.580,238.754 218.119,238.515 218.655 C 237.891 220.058,236.615 223.611,235.836 226.121 C 235.466 227.311,234.992 228.702,234.781 229.212 C 234.570 229.722,233.908 231.321,233.310 232.767 C 232.712 234.212,231.843 236.368,231.378 237.558 C 229.961 241.188,229.088 242.956,227.736 244.936 C 226.077 247.364,224.562 250.516,223.631 253.478 C 222.525 256.995,212.817 276.575,211.366 278.214 C 211.072 278.546,210.500 279.341,210.095 279.981 C 209.690 280.620,208.733 281.839,207.969 282.689 C 206.312 284.531,204.500 287.318,204.224 288.447 C 203.892 289.807,201.159 293.671,200.393 293.863 C 198.933 294.229,197.699 292.775,197.348 290.273 C 197.240 289.502,196.940 288.206,196.682 287.393 C 196.211 285.909,196.618 284.699,197.588 284.699 C 199.823 284.699,208.346 273.597,208.346 270.687 C 208.346 270.471,208.520 270.119,208.733 269.906 C 209.256 269.381,209.223 260.697,208.689 258.237 C 208.150 255.753,206.908 252.491,205.667 250.296 C 205.101 249.293,204.637 248.421,204.637 248.359 C 204.637 248.205,201.377 243.378,200.369 242.040 C 196.848 237.367,189.317 234.564,183.617 235.806 C 181.932 236.173,176.188 238.173,174.554 238.962 C 173.035 239.695,171.561 238.635,171.561 236.809 C 171.561 236.664,170.890 235.104,170.070 233.342 C 169.250 231.581,168.401 229.652,168.184 229.057 C 167.651 227.597,167.402 226.982,166.682 225.348 C 166.345 224.583,165.411 222.357,164.606 220.402 C 163.145 216.851,162.343 215.153,159.783 210.195 C 159.035 208.747,158.255 207.148,158.050 206.641 C 157.844 206.134,157.449 205.162,157.172 204.482 C 156.046 201.720,154.378 198.757,152.325 195.871 C 150.147 192.810,147.938 188.815,146.944 186.136 C 146.650 185.346,145.620 183.168,144.655 181.298 C 143.051 178.191,142.556 176.954,141.063 172.334 C 140.788 171.484,139.761 169.119,138.781 167.079 C 137.801 165.039,136.350 161.909,135.557 160.124 C 133.924 156.450,132.936 154.448,130.140 149.150 C 128.090 145.263,127.979 145.067,125.924 141.677 C 125.221 140.516,124.359 139.055,124.008 138.428 C 123.658 137.802,123.007 136.711,122.561 136.005 C 121.762 134.739,119.831 130.703,119.016 128.594 C 118.786 127.998,118.501 127.372,118.382 127.202 C 118.188 126.923,116.066 122.952,114.419 119.784 C 113.736 118.469,112.102 114.114,108.948 105.198 C 108.696 104.486,107.981 103.026,107.358 101.952 C 104.059 96.263,103.735 95.055,105.036 93.318 C 107.989 89.377,108.893 88.300,111.152 86.023 C 113.145 84.016,114.669 82.880,118.428 80.604 C 124.409 76.983,124.166 77.076,130.757 75.883 C 132.202 75.621,133.663 75.285,134.003 75.135 C 134.343 74.985,135.317 74.537,136.167 74.139 C 137.656 73.442,137.995 73.415,145.440 73.406 C 153.591 73.396,154.892 73.249,161.051 71.635 C 162.700 71.203,165.345 70.622,166.924 70.346 C 168.434 70.081,179.159 70.429,180.680 70.792 M154.714 82.069 C 151.428 82.590,150.031 82.975,147.828 83.965 C 146.930 84.369,146.112 84.699,146.009 84.699 C 145.696 84.699,141.515 86.882,141.084 87.271 C 140.862 87.472,139.750 88.400,138.612 89.335 C 135.670 91.753,133.152 94.283,132.613 95.363 C 132.358 95.873,131.714 96.917,131.181 97.682 C 129.944 99.457,128.594 102.142,128.594 102.827 C 128.594 103.118,128.462 103.784,128.302 104.306 C 127.919 105.555,127.229 117.164,127.327 120.711 C 127.433 124.514,128.199 129.177,129.383 133.230 C 129.656 134.165,129.989 135.453,130.123 136.093 C 130.371 137.277,132.148 141.130,132.746 141.781 C 132.927 141.979,133.702 142.932,134.467 143.899 C 138.874 149.473,145.366 154.177,150.850 155.773 C 151.615 155.995,152.658 156.317,153.168 156.487 C 154.323 156.873,155.424 157.108,161.051 158.166 C 169.943 159.838,179.880 159.056,185.781 156.219 C 187.396 155.443,189.482 154.443,190.417 153.996 C 192.457 153.023,196.750 150.023,197.860 148.795 C 199.659 146.804,202.473 142.175,202.473 141.206 C 202.473 140.964,202.739 140.214,203.065 139.541 C 203.876 137.862,204.637 134.803,204.637 133.222 C 204.637 131.923,204.710 131.559,205.759 127.666 C 206.433 125.166,206.532 116.397,205.915 113.756 C 205.057 110.078,203.298 104.181,202.760 103.173 C 202.602 102.877,202.473 102.382,202.473 102.071 C 202.473 100.720,197.900 94.223,195.270 91.838 C 186.226 83.637,181.493 82.033,165.533 81.763 C 159.508 81.661,156.800 81.738,154.714 82.069 M170.925 84.708 C 179.626 85.484,184.288 86.749,187.612 89.236 C 196.878 96.168,200.121 100.981,202.465 111.283 C 202.678 112.218,202.964 113.278,203.101 113.638 C 204.256 116.674,204.134 122.854,202.796 129.057 C 202.613 129.907,202.338 131.661,202.184 132.955 C 201.909 135.281,201.330 137.731,200.914 138.331 C 200.796 138.501,200.452 139.401,200.148 140.331 C 199.681 141.762,197.847 145.084,197.243 145.595 C 197.142 145.680,196.677 146.263,196.210 146.890 C 194.594 149.059,184.696 154.668,181.069 155.470 C 171.805 157.519,164.764 157.080,151.832 153.650 C 144.314 151.656,133.932 142.141,132.589 136.012 C 132.459 135.417,131.978 133.679,131.521 132.148 C 129.379 124.978,129.096 118.462,130.575 110.355 C 130.838 108.910,131.057 107.064,131.060 106.252 C 131.073 103.102,136.346 93.730,138.147 93.655 C 138.248 93.651,139.096 92.945,140.031 92.086 C 142.202 90.091,144.000 88.838,145.837 88.039 C 146.639 87.691,148.037 87.071,148.944 86.663 C 153.206 84.742,162.271 83.936,170.925 84.708 M167.697 94.493 C 165.572 95.156,163.692 96.012,163.133 96.571 C 162.876 96.828,161.955 97.458,161.087 97.969 L 159.510 98.899 159.309 97.642 L 159.107 96.384 156.756 96.570 C 152.549 96.902,147.311 97.528,142.125 98.318 C 139.179 98.767,139.143 98.865,139.876 104.477 C 140.471 109.037,140.151 108.567,142.727 108.671 C 145.896 108.799,146.584 109.039,147.404 110.301 C 148.125 111.412,148.274 112.197,148.993 118.702 C 149.153 120.147,149.362 121.648,149.458 122.038 C 149.554 122.428,149.783 124.097,149.967 125.747 C 150.151 127.398,150.418 129.791,150.561 131.066 C 150.704 132.342,151.028 134.915,151.281 136.785 C 151.534 138.655,151.861 141.188,152.008 142.413 C 152.452 146.124,154.183 146.579,163.215 145.361 L 164.915 145.131 165.012 142.813 C 165.065 141.538,164.971 140.008,164.804 139.413 C 164.637 138.818,164.275 136.453,163.999 134.158 C 163.722 131.862,163.365 129.011,163.205 127.821 C 163.044 126.631,162.847 125.031,162.766 124.266 C 162.685 123.501,162.407 121.345,162.148 119.474 C 161.409 114.127,161.220 110.742,161.632 110.246 C 161.828 110.009,161.900 109.584,161.791 109.301 C 161.568 108.720,163.845 106.337,164.623 106.337 C 164.873 106.337,165.343 106.172,165.666 105.970 C 167.117 105.064,170.898 107.570,171.393 109.766 C 171.523 110.345,171.746 111.862,171.886 113.138 C 172.027 114.413,172.364 117.056,172.634 119.011 C 173.106 122.430,173.479 125.364,174.029 129.985 C 174.362 132.777,175.206 138.414,175.443 139.424 C 175.938 141.535,178.823 143.327,181.216 143.011 C 181.941 142.915,183.759 142.698,185.255 142.528 C 186.751 142.359,188.759 142.075,189.717 141.898 C 190.675 141.721,191.885 141.576,192.406 141.575 C 193.458 141.572,194.551 140.178,194.127 139.380 C 194.001 139.143,193.804 137.836,193.689 136.476 C 193.396 133.017,193.038 132.303,191.597 132.303 C 190.968 132.303,190.368 132.164,190.263 131.994 C 190.158 131.824,189.812 131.685,189.494 131.685 C 188.451 131.685,187.122 129.665,186.886 127.723 C 186.672 125.953,186.511 124.712,185.615 117.929 C 185.345 115.889,184.991 113.037,184.828 111.592 C 184.044 104.648,183.367 100.412,182.978 100.015 C 182.819 99.854,182.689 99.534,182.689 99.305 C 182.689 98.693,180.253 96.349,178.825 95.588 C 175.706 93.925,171.000 93.462,167.697 94.493 M175.336 95.018 C 179.950 96.220,182.553 99.096,183.060 103.555 C 183.611 108.392,183.889 110.623,184.388 114.219 C 184.994 118.577,185.356 121.522,185.758 125.348 C 186.333 130.822,187.784 132.887,191.075 132.914 C 192.379 132.925,193.207 135.211,193.195 138.769 C 193.187 141.014,193.463 140.921,183.926 141.882 C 182.651 142.010,181.294 142.219,180.910 142.346 C 180.527 142.473,180.040 142.440,179.828 142.274 C 179.617 142.107,179.096 141.886,178.671 141.783 C 176.813 141.332,175.788 138.906,175.255 133.694 C 174.629 127.582,174.389 125.625,174.215 125.193 C 174.112 124.938,173.880 123.408,173.700 121.793 C 173.520 120.178,173.247 117.813,173.093 116.538 C 172.940 115.263,172.703 113.176,172.567 111.901 C 172.009 106.668,168.358 103.898,164.257 105.596 C 162.166 106.462,159.537 110.392,160.263 111.567 C 160.473 111.908,161.639 120.833,162.245 126.739 C 162.393 128.184,162.598 129.575,162.701 129.830 C 162.804 130.085,163.047 131.685,163.240 133.385 C 163.434 135.085,163.703 137.380,163.838 138.485 C 164.547 144.271,164.550 144.341,164.107 144.473 C 163.035 144.790,155.535 145.289,154.626 145.103 C 152.959 144.762,152.562 142.930,151.200 129.314 C 151.044 127.754,150.837 126.349,150.739 126.191 C 150.641 126.032,150.403 124.456,150.210 122.688 C 149.782 118.776,149.384 115.210,149.070 112.485 C 148.846 110.546,148.573 109.923,147.442 108.776 C 146.624 107.947,144.933 107.544,143.418 107.816 C 140.917 108.267,141.121 108.689,140.116 100.978 C 139.886 99.221,140.016 99.177,147.913 98.297 C 149.274 98.146,151.430 97.884,152.705 97.715 C 153.980 97.546,155.823 97.311,156.801 97.193 L 158.578 96.978 158.578 98.064 C 158.578 101.513,158.820 101.593,161.520 99.042 C 165.534 95.248,170.579 93.779,175.336 95.018 M272.470 94.920 C 281.181 96.451,283.291 97.292,286.603 100.554 C 288.967 102.882,288.983 103.003,287.368 106.228 C 285.683 109.593,285.288 110.507,284.245 113.447 C 283.793 114.722,283.027 116.530,282.542 117.465 C 280.990 120.464,277.677 127.126,276.471 129.675 C 275.828 131.036,274.876 132.844,274.356 133.694 C 272.726 136.358,270.973 140.511,270.181 143.586 C 268.864 148.694,267.595 150.375,265.257 150.109 C 262.743 149.823,257.067 147.641,253.727 145.676 C 243.780 139.825,240.397 125.602,245.541 111.270 C 248.045 104.296,249.657 102.521,257.496 98.107 C 263.102 94.951,267.418 94.032,272.470 94.920 M204.173 155.034 C 202.983 155.253,201.453 155.524,200.773 155.637 C 199.057 155.923,195.733 156.697,194.436 157.112 C 190.770 158.285,181.453 166.295,181.453 168.273 C 181.453 168.375,180.991 169.191,180.427 170.087 C 179.253 171.951,178.224 174.104,177.610 175.982 C 176.737 178.648,176.396 187.720,177.049 190.881 C 178.051 195.731,179.045 199.256,180.015 201.391 C 180.401 202.241,180.906 203.563,181.137 204.328 C 182.122 207.587,187.165 213.906,190.823 216.463 C 193.614 218.414,196.247 219.334,201.236 220.101 C 202.172 220.245,203.771 220.510,204.791 220.689 C 207.585 221.182,214.383 221.105,216.488 220.556 C 217.467 220.301,218.773 220.093,219.390 220.093 C 220.008 220.093,220.940 219.958,221.462 219.794 C 221.984 219.629,223.246 219.256,224.266 218.964 C 225.971 218.476,228.840 217.360,231.530 216.139 C 236.126 214.052,241.165 208.859,242.249 205.093 C 245.077 195.262,245.875 181.254,243.885 176.352 C 243.747 176.012,243.386 175.039,243.084 174.189 C 240.335 166.458,230.497 157.635,222.566 155.784 C 217.605 154.627,216.999 154.561,211.747 154.598 C 208.771 154.620,205.363 154.816,204.173 155.034 M220.093 157.946 C 225.236 159.061,231.266 162.484,235.034 166.428 C 238.611 170.172,240.252 172.994,242.006 178.419 C 243.109 181.828,242.549 193.417,240.949 200.309 C 240.653 201.584,240.342 203.114,240.258 203.709 C 239.936 206.001,236.010 210.943,233.076 212.749 C 231.100 213.965,227.980 215.456,227.410 215.456 C 227.194 215.456,226.885 215.573,226.723 215.716 C 226.268 216.120,222.368 217.248,219.629 217.769 C 218.269 218.027,216.473 218.396,215.638 218.589 C 213.732 219.028,207.296 219.001,204.637 218.543 C 196.088 217.068,194.738 216.631,191.140 214.177 C 190.432 213.695,189.181 212.499,188.358 211.521 C 187.535 210.542,186.663 209.532,186.420 209.276 C 185.596 208.409,183.598 205.133,183.409 204.341 C 183.307 203.909,183.123 203.416,183.001 203.246 C 182.879 203.076,182.632 202.519,182.452 202.009 C 182.273 201.499,181.789 200.173,181.378 199.063 C 180.966 197.952,180.390 195.935,180.097 194.581 C 179.804 193.226,179.428 191.676,179.261 191.136 C 178.775 189.567,178.586 184.271,178.932 181.917 C 179.573 177.559,179.929 176.590,182.681 171.716 C 183.353 170.526,184.175 169.065,184.509 168.470 C 185.854 166.068,192.289 160.806,195.209 159.721 C 196.513 159.236,199.737 158.521,203.091 157.972 C 204.196 157.791,205.726 157.511,206.491 157.349 C 208.759 156.871,216.750 157.222,220.093 157.946 M199.745 161.766 C 199.206 162.340,199.073 162.857,199.073 164.376 C 199.073 165.417,198.934 166.356,198.764 166.461 C 198.149 166.840,198.475 167.543,199.459 167.962 C 201.599 168.873,202.753 171.389,201.740 172.935 C 201.399 173.455,201.236 174.385,201.236 175.816 C 201.236 176.978,201.107 178.061,200.949 178.223 C 200.791 178.384,200.596 179.699,200.515 181.144 C 200.434 182.589,200.195 184.606,199.984 185.626 C 199.312 188.878,199.796 191.560,201.309 192.957 C 202.885 194.413,205.878 195.981,207.079 195.981 C 207.586 195.981,208.093 196.131,208.207 196.315 C 208.337 196.526,209.503 196.616,211.393 196.560 L 214.374 196.471 214.469 197.596 C 214.575 198.860,213.613 201.047,212.816 201.353 C 211.795 201.745,206.650 201.560,206.005 201.109 C 205.662 200.868,204.344 200.594,203.077 200.499 C 197.214 200.061,195.159 199.810,194.533 199.455 C 193.044 198.611,191.036 199.199,191.036 200.479 C 191.036 200.900,190.910 201.486,190.757 201.782 C 190.302 202.657,189.912 206.060,190.177 206.846 C 190.521 207.864,191.760 208.346,194.038 208.346 C 195.112 208.346,196.231 208.483,196.527 208.650 C 197.192 209.027,201.189 209.592,204.482 209.774 C 205.842 209.850,207.233 210.037,207.573 210.190 C 208.170 210.460,209.326 210.605,214.165 211.019 C 219.157 211.446,222.875 208.925,222.875 205.112 C 222.875 204.189,223.066 203.266,223.329 202.918 C 223.625 202.526,223.786 201.563,223.792 200.139 C 223.798 198.940,223.931 197.828,224.090 197.666 C 224.248 197.505,224.445 196.190,224.528 194.745 C 224.740 191.058,225.298 186.668,225.648 185.935 C 225.811 185.595,226.009 184.343,226.090 183.153 C 226.431 178.100,226.823 175.849,227.483 175.146 C 228.028 174.566,228.130 174.068,228.130 171.989 C 228.130 170.632,228.276 169.375,228.455 169.196 C 228.636 169.015,228.739 167.995,228.687 166.893 L 228.594 164.915 226.584 164.755 C 225.479 164.666,224.271 164.423,223.900 164.214 C 223.079 163.751,219.663 163.710,218.836 164.153 C 218.327 164.425,218.238 164.815,218.238 166.762 C 218.238 168.021,218.099 169.138,217.929 169.243 C 217.759 169.348,217.620 170.581,217.620 171.984 C 217.620 173.748,217.480 174.719,217.166 175.134 C 216.850 175.552,216.709 176.550,216.702 178.421 C 216.697 179.898,216.553 181.193,216.383 181.298 C 216.213 181.403,216.074 182.190,216.074 183.047 C 216.074 187.348,212.590 189.925,210.360 187.275 C 209.514 186.270,209.425 181.559,210.235 180.696 C 210.386 180.534,210.510 179.256,210.510 177.854 C 210.510 176.453,210.629 175.234,210.774 175.144 C 210.919 175.054,211.134 173.830,211.251 172.423 C 211.368 171.016,211.597 169.732,211.760 169.569 C 211.923 169.407,212.056 167.837,212.056 166.082 C 212.056 162.554,211.882 162.287,209.581 162.287 C 209.092 162.287,208.606 162.148,208.501 161.978 C 208.396 161.808,207.074 161.669,205.564 161.669 C 204.054 161.669,202.733 161.530,202.628 161.360 C 202.260 160.766,200.444 161.022,199.745 161.766 M208.655 162.829 C 211.610 163.184,212.026 164.038,211.135 167.924 C 210.969 168.649,210.612 170.912,210.340 172.952 C 210.069 174.992,209.649 177.844,209.406 179.289 C 208.261 186.120,208.440 187.497,210.656 188.866 C 213.701 190.748,216.505 188.572,217.021 183.926 C 217.143 182.821,217.480 180.456,217.769 178.671 C 218.057 176.886,218.409 174.451,218.550 173.261 C 219.676 163.785,219.123 164.342,226.121 165.630 C 227.609 165.904,227.690 167.225,226.588 173.261 C 226.433 174.111,226.087 176.406,225.819 178.362 C 225.178 183.039,224.408 188.413,222.718 200.000 C 221.986 205.023,221.915 205.376,221.393 206.646 C 219.985 210.066,216.864 210.907,209.810 209.766 C 208.240 209.513,206.399 209.248,205.719 209.178 C 203.265 208.927,191.263 207.096,190.998 206.932 C 190.397 206.561,190.847 203.633,191.862 201.314 C 192.379 200.130,192.557 200.112,197.063 200.777 C 198.764 201.028,201.267 201.390,202.628 201.580 C 203.988 201.771,205.328 202.046,205.606 202.192 C 206.497 202.659,212.748 202.642,213.488 202.171 C 215.196 201.083,216.288 194.745,214.767 194.745 C 214.466 194.745,214.219 194.884,214.219 195.054 C 214.219 195.224,213.969 195.363,213.663 195.363 C 213.357 195.363,212.950 195.520,212.759 195.711 C 212.188 196.282,207.583 195.480,205.357 194.421 C 201.711 192.687,199.828 189.665,200.594 186.779 C 200.762 186.145,201.049 184.304,201.231 182.689 C 201.569 179.695,202.249 175.549,202.790 173.179 C 203.473 170.189,202.673 167.999,200.690 167.430 C 199.564 167.107,199.353 165.834,200.026 163.413 L 200.357 162.219 203.502 162.403 C 205.231 162.505,207.550 162.696,208.655 162.829 M191.819 239.258 C 196.127 241.177,196.973 241.919,199.767 246.225 C 204.837 254.037,206.149 257.910,206.173 265.140 C 206.184 268.445,204.821 272.662,202.999 274.960 C 202.864 275.131,202.191 276.036,201.505 276.971 C 197.042 283.049,194.491 283.814,192.748 279.598 C 191.988 277.760,186.552 266.332,184.911 263.121 C 184.624 262.560,183.435 260.821,182.268 259.257 C 181.101 257.694,180.000 256.101,179.823 255.719 C 179.645 255.336,179.382 255.023,179.239 255.023 C 179.097 255.023,178.980 254.832,178.980 254.597 C 178.980 254.363,178.794 254.017,178.567 253.829 C 177.931 253.301,176.913 251.129,175.868 248.068 C 175.346 246.538,174.650 244.826,174.322 244.264 C 173.307 242.525,174.044 241.835,178.516 240.331 C 179.366 240.045,180.340 239.701,180.680 239.566 C 183.535 238.433,184.047 238.349,187.337 238.468 C 189.538 238.547,190.673 238.747,191.819 239.258 " stroke="none" fill="#fbfbfb" fill-rule="evenodd"></path><path id="path3" d="M167.388 70.534 C 164.710 70.761,163.671 70.963,160.124 71.944 C 155.377 73.257,153.978 73.403,145.750 73.447 L 137.713 73.490 135.858 74.425 C 134.191 75.266,132.626 75.669,127.048 76.695 C 124.550 77.154,123.912 77.445,119.224 80.271 C 116.875 81.686,114.847 82.844,114.715 82.844 C 114.524 82.844,109.632 87.675,108.344 89.136 C 107.150 90.491,104.173 94.787,104.173 95.155 C 104.173 95.760,106.162 99.865,107.405 101.826 C 107.954 102.692,108.762 104.374,109.200 105.564 C 110.089 107.974,112.208 113.863,113.192 116.657 C 113.837 118.488,114.184 119.194,117.083 124.575 C 117.953 126.190,119.168 128.694,119.784 130.139 C 121.062 133.142,123.838 138.219,126.544 142.504 C 128.351 145.364,134.239 156.715,135.684 160.124 C 136.081 161.059,137.135 163.354,138.027 165.224 C 140.641 170.704,141.032 171.660,142.182 175.368 C 142.541 176.527,143.734 179.254,144.833 181.428 C 145.932 183.602,146.832 185.477,146.832 185.595 C 146.832 186.715,152.026 195.876,153.491 197.342 C 154.145 197.995,156.329 202.196,157.623 205.289 C 158.291 206.885,159.866 210.209,161.124 212.674 C 162.382 215.139,164.155 218.964,165.063 221.175 C 165.971 223.385,166.952 225.750,167.243 226.430 C 167.534 227.110,168.197 228.716,168.716 229.998 C 169.235 231.281,170.099 233.298,170.636 234.481 C 171.174 235.663,171.878 237.222,172.201 237.944 C 172.832 239.353,173.265 239.512,174.595 238.824 C 175.977 238.109,181.772 236.142,183.926 235.657 C 187.061 234.950,190.976 235.643,195.509 237.709 C 199.967 239.739,206.992 250.530,208.694 257.960 C 209.218 260.246,209.277 269.110,208.775 270.197 C 208.586 270.607,208.036 271.847,207.553 272.952 C 205.710 277.165,201.723 282.163,198.529 284.263 C 196.347 285.699,196.286 285.787,196.656 286.981 C 196.820 287.511,197.166 288.916,197.423 290.103 C 198.104 293.241,198.895 294.266,200.293 293.823 C 201.311 293.500,204.328 288.996,204.328 287.799 C 204.328 287.319,205.955 284.950,207.733 282.844 C 211.330 278.581,214.935 272.379,219.413 262.751 C 219.927 261.646,220.965 259.420,221.720 257.805 C 222.475 256.190,223.340 254.104,223.643 253.168 C 224.456 250.651,226.038 247.372,227.612 244.938 C 229.120 242.607,230.088 240.628,231.370 237.249 C 231.822 236.059,232.376 234.668,232.602 234.158 C 233.964 231.083,234.936 228.587,235.671 226.275 C 236.842 222.592,238.968 216.995,239.546 216.073 C 239.813 215.647,240.202 215.021,240.411 214.682 C 240.620 214.343,241.482 212.674,242.326 210.974 C 243.752 208.100,244.200 207.127,245.601 203.864 C 245.893 203.184,246.324 202.189,246.559 201.653 C 246.794 201.118,246.986 200.593,246.986 200.488 C 246.986 200.382,247.527 199.136,248.188 197.718 C 249.716 194.441,250.489 191.787,250.283 190.521 C 250.178 189.874,250.275 189.401,250.561 189.164 C 250.982 188.815,251.441 187.490,251.947 185.162 C 252.411 183.032,253.525 179.394,254.598 176.507 C 256.488 171.423,259.425 164.328,259.973 163.524 C 260.886 162.184,263.181 157.871,264.132 155.706 C 264.929 153.891,264.717 153.571,262.129 152.684 C 257.290 151.025,256.667 150.782,254.607 149.754 C 243.027 143.976,238.231 132.813,240.670 117.311 C 241.726 110.597,244.167 104.981,247.802 100.899 C 248.401 100.227,252.724 97.063,253.045 97.063 C 253.145 97.063,253.597 96.806,254.048 96.491 C 254.811 95.959,259.344 93.616,260.742 93.031 C 263.830 91.740,269.749 91.488,274.961 92.427 C 282.229 93.736,285.129 94.946,288.066 97.893 C 288.813 98.642,289.648 99.214,289.921 99.163 C 290.436 99.066,293.007 94.215,293.031 93.295 C 293.039 93.007,293.184 92.686,293.354 92.581 C 293.831 92.286,293.719 90.584,293.188 90.053 C 291.070 87.934,282.401 82.844,280.912 82.844 C 280.678 82.844,279.939 82.582,279.270 82.261 C 278.025 81.665,276.429 81.168,272.334 80.102 C 271.059 79.770,268.068 78.927,265.688 78.230 C 263.308 77.533,260.873 76.831,260.278 76.671 C 258.832 76.282,254.977 75.760,251.005 75.414 C 249.219 75.259,246.271 74.998,244.453 74.834 C 239.759 74.411,227.493 75.078,222.294 76.039 C 217.535 76.918,206.111 76.171,198.609 74.488 C 197.318 74.199,193.236 73.464,189.799 72.903 C 188.694 72.722,186.399 72.253,184.699 71.860 C 178.505 70.428,173.324 70.031,167.388 70.534 M178.516 71.239 C 180.386 71.484,182.671 71.894,183.594 72.150 C 185.381 72.646,187.514 73.060,194.900 74.341 C 197.450 74.783,200.093 75.270,200.773 75.423 C 207.546 76.948,217.212 77.338,223.957 76.358 C 230.622 75.390,241.032 74.902,245.099 75.368 C 246.732 75.555,249.807 75.867,251.932 76.061 C 258.125 76.627,260.392 77.122,268.934 79.773 C 270.549 80.274,272.496 80.813,273.261 80.971 C 275.473 81.428,276.726 81.791,278.053 82.359 C 278.733 82.650,280.088 83.167,281.065 83.508 C 284.948 84.863,292.445 89.455,292.959 90.793 C 293.283 91.638,290.770 97.795,289.874 98.349 C 289.676 98.472,288.767 97.863,287.769 96.939 C 283.013 92.536,270.065 89.958,262.597 91.927 C 258.464 93.017,249.657 98.084,247.141 100.819 C 243.838 104.410,241.045 110.917,240.194 117.002 C 240.004 118.362,239.715 120.248,239.553 121.193 C 239.178 123.376,239.173 127.107,239.543 128.558 C 239.700 129.172,239.996 130.649,240.201 131.839 C 240.930 136.067,243.591 141.451,246.516 144.617 C 248.791 147.078,255.572 151.462,257.114 151.467 C 257.329 151.468,257.746 151.590,258.041 151.740 C 259.315 152.384,260.852 152.951,262.365 153.336 C 264.435 153.863,264.431 154.005,262.246 158.184 C 258.336 165.660,257.503 167.359,256.701 169.488 C 256.239 170.713,255.766 171.855,255.648 172.025 C 255.530 172.195,255.182 173.168,254.875 174.189 C 254.568 175.209,254.070 176.600,253.770 177.280 C 253.063 178.879,252.468 180.847,251.485 184.832 C 251.048 186.605,250.462 188.308,250.184 188.616 C 249.840 188.995,249.652 189.850,249.600 191.265 C 249.523 193.360,249.351 193.895,247.413 198.091 C 246.838 199.336,246.368 200.483,246.368 200.640 C 246.368 200.796,245.907 201.934,245.344 203.167 C 244.781 204.400,244.128 205.896,243.893 206.491 C 243.148 208.383,240.427 213.709,239.539 215.017 C 238.652 216.323,238.341 217.091,235.855 224.111 C 235.043 226.406,234.278 228.563,234.157 228.903 C 234.036 229.243,233.690 230.077,233.390 230.757 C 233.089 231.437,232.119 233.872,231.234 236.167 C 230.349 238.462,229.416 240.728,229.162 241.202 C 228.907 241.676,228.536 242.372,228.337 242.748 C 228.138 243.124,227.526 244.077,226.979 244.866 C 225.759 246.623,224.111 250.082,223.041 253.133 C 222.600 254.388,221.771 256.405,221.197 257.615 C 220.624 258.825,219.440 261.345,218.566 263.215 C 217.693 265.085,216.631 267.241,216.207 268.006 C 215.783 268.771,214.664 270.912,213.721 272.764 C 212.148 275.854,210.930 277.931,209.989 279.131 C 209.787 279.388,209.055 280.294,208.362 281.144 C 205.408 284.767,204.328 286.361,203.710 288.013 C 203.086 289.682,201.450 292.227,200.487 293.025 C 199.373 293.950,198.493 292.706,197.733 289.133 C 197.486 287.969,197.195 286.801,197.087 286.537 C 196.944 286.189,197.486 285.650,199.058 284.576 C 211.239 276.253,213.306 259.481,203.815 245.981 C 203.247 245.173,202.782 244.437,202.782 244.345 C 202.782 243.995,200.122 240.596,198.943 239.440 C 194.952 235.527,185.800 233.721,180.989 235.896 C 180.395 236.165,174.763 238.196,173.647 238.543 C 173.240 238.670,172.982 238.415,172.610 237.517 C 172.116 236.323,171.542 235.032,170.093 231.857 C 169.670 230.932,168.982 229.263,168.562 228.148 C 168.142 227.033,167.469 225.400,167.067 224.520 C 166.664 223.639,165.687 221.344,164.895 219.419 C 164.104 217.494,162.440 213.903,161.198 211.437 C 159.956 208.972,158.731 206.468,158.476 205.873 C 156.646 201.602,155.250 199.021,152.893 195.558 C 150.424 191.931,147.760 187.112,147.758 186.274 C 147.758 186.088,146.793 184.024,145.614 181.688 C 144.435 179.352,143.040 176.152,142.513 174.578 C 141.987 173.004,141.436 171.437,141.289 171.097 C 141.142 170.757,140.780 169.923,140.486 169.243 C 140.191 168.563,139.225 166.476,138.339 164.606 C 137.452 162.736,136.396 160.440,135.991 159.505 C 134.096 155.130,128.346 144.077,126.744 141.731 C 125.400 139.763,121.610 132.928,120.830 131.066 C 120.135 129.407,115.451 120.089,115.003 119.474 C 114.879 119.304,114.260 117.774,113.627 116.074 C 112.994 114.374,112.285 112.496,112.051 111.901 C 111.817 111.306,111.130 109.373,110.524 107.606 C 109.918 105.838,108.921 103.473,108.309 102.351 C 105.454 97.115,105.037 96.229,105.010 95.347 C 104.888 91.331,121.508 77.348,126.473 77.289 C 128.655 77.264,134.379 75.807,136.330 74.781 C 137.669 74.076,137.907 74.057,143.968 74.147 C 151.085 74.254,154.309 73.931,159.660 72.574 C 166.971 70.721,171.895 70.372,178.516 71.239 M155.796 81.309 C 150.907 81.911,149.613 82.314,144.049 84.962 C 137.645 88.011,130.546 95.485,128.336 101.505 C 126.975 105.212,126.289 123.241,127.346 127.512 C 127.557 128.362,127.841 129.544,127.978 130.139 C 128.204 131.119,128.593 132.597,129.565 136.167 C 130.661 140.193,132.847 143.528,137.569 148.379 C 146.111 157.155,163.018 161.311,179.830 158.767 C 182.684 158.335,183.687 157.945,190.417 154.648 C 196.674 151.584,200.925 147.244,202.778 142.030 C 203.138 141.015,203.582 139.917,203.763 139.588 C 204.337 138.551,204.683 137.166,204.965 134.776 C 205.269 132.201,205.553 130.712,206.352 127.512 C 207.624 122.408,207.191 115.030,205.244 108.655 C 201.909 97.737,199.078 93.539,190.937 87.443 C 185.984 83.733,183.586 82.838,175.270 81.592 C 172.438 81.168,158.578 80.966,155.796 81.309 M174.507 82.068 C 183.847 83.232,186.965 84.569,193.509 90.219 C 197.957 94.060,202.473 99.989,202.473 101.987 C 202.473 102.283,202.557 102.609,202.661 102.712 C 203.413 103.465,205.814 112.631,206.503 117.381 C 206.936 120.369,206.565 124.335,205.375 129.441 C 204.969 131.182,204.637 133.218,204.637 133.965 C 204.637 135.286,203.302 139.889,202.749 140.479 C 202.597 140.641,202.473 141.010,202.473 141.301 C 202.473 145.096,195.931 151.427,188.253 155.061 C 185.958 156.147,183.822 157.185,183.506 157.367 C 178.865 160.040,162.670 159.435,152.087 156.193 C 142.198 153.164,130.178 142.330,130.135 136.406 C 130.133 136.104,129.846 134.954,129.497 133.849 C 127.307 126.908,126.841 121.081,127.616 110.355 C 128.186 102.470,128.417 101.812,133.360 94.042 C 133.714 93.486,134.838 92.376,135.858 91.575 C 136.878 90.775,138.338 89.543,139.104 88.837 C 145.763 82.696,159.090 80.148,174.507 82.068 M170.325 94.925 C 166.486 95.413,164.091 96.668,160.848 99.893 C 159.177 101.554,158.578 101.378,158.578 99.227 C 158.578 97.231,158.426 97.175,154.291 97.676 C 152.483 97.894,150.100 98.178,148.995 98.306 C 139.609 99.394,139.785 99.331,140.341 101.393 C 140.537 102.121,140.791 103.845,140.905 105.223 L 141.113 107.728 143.740 107.728 C 148.287 107.728,148.664 108.274,149.608 116.229 C 149.759 117.504,150.104 120.216,150.374 122.257 C 150.925 126.424,151.394 130.178,151.766 133.385 C 152.596 140.556,153.097 143.664,153.530 144.325 L 154.013 145.065 158.668 144.848 C 164.071 144.597,164.613 144.420,164.299 143.016 C 164.179 142.479,163.960 140.997,163.812 139.722 C 163.664 138.447,163.327 135.804,163.063 133.849 C 162.597 130.392,162.343 128.326,161.676 122.567 C 161.498 121.037,161.283 119.563,161.196 119.291 C 161.110 119.019,160.902 117.558,160.734 116.044 C 160.567 114.531,160.345 112.770,160.243 112.132 C 159.447 107.194,165.447 103.221,169.616 105.924 C 171.858 107.378,172.410 108.890,173.096 115.456 C 173.329 117.687,173.740 120.876,174.672 127.666 C 174.847 128.941,175.123 131.167,175.285 132.612 C 176.371 142.292,177.148 142.838,187.635 141.301 C 188.910 141.115,190.622 140.882,191.440 140.784 C 193.298 140.561,193.385 140.337,192.911 136.986 C 192.448 133.712,192.322 133.457,191.003 133.126 C 187.180 132.166,185.812 130.355,185.788 126.221 C 185.784 125.512,185.650 124.260,185.491 123.439 C 185.057 121.202,183.693 110.511,183.032 104.173 C 182.472 98.803,177.399 94.119,172.695 94.630 C 172.496 94.651,171.430 94.784,170.325 94.925 M174.807 95.543 C 180.044 96.946,181.900 99.550,182.830 106.801 C 183.114 109.011,183.543 112.349,183.784 114.219 C 184.025 116.090,184.441 119.359,184.709 121.484 C 186.016 131.882,186.079 132.033,189.483 133.136 C 192.220 134.023,192.135 133.916,192.376 136.765 C 192.480 138.001,192.651 139.236,192.756 139.509 C 192.981 140.095,192.912 140.112,187.790 140.785 C 177.429 142.146,176.922 141.885,176.066 134.772 C 175.831 132.819,175.274 128.439,174.829 125.039 C 174.383 121.638,173.736 116.643,173.391 113.938 C 172.475 106.776,171.167 104.886,166.898 104.561 C 161.790 104.171,159.172 108.014,160.107 114.529 C 160.302 115.889,160.729 119.158,161.056 121.793 C 161.384 124.428,162.137 130.396,162.731 135.055 C 163.973 144.790,164.081 143.919,161.597 144.170 C 153.479 144.991,153.806 145.134,153.181 140.495 C 152.455 135.101,151.228 125.411,150.695 120.866 C 149.542 111.023,149.241 109.712,147.777 108.140 C 147.125 107.440,145.036 106.990,143.332 107.182 C 141.633 107.373,141.638 107.381,141.129 103.480 C 140.606 99.464,140.289 99.776,145.440 99.236 C 148.296 98.936,151.877 98.458,155.144 97.941 C 157.707 97.535,158.269 97.828,158.269 99.570 C 158.269 101.854,159.275 101.960,161.342 99.893 C 164.903 96.332,170.728 94.451,174.807 95.543 M246.082 136.631 C 246.094 136.886,246.368 137.512,246.690 138.022 C 247.013 138.532,247.506 139.356,247.786 139.854 C 248.246 140.672,250.284 142.813,250.603 142.813 C 250.674 142.813,250.180 142.152,249.506 141.345 C 248.831 140.537,247.780 139.042,247.170 138.022 C 246.559 137.002,246.070 136.376,246.082 136.631 M205.255 154.255 C 203.692 154.505,202.687 154.682,198.300 155.480 C 189.234 157.130,181.565 164.343,177.094 175.425 C 176.077 177.947,175.728 188.259,176.551 191.499 C 176.724 192.179,176.986 193.223,177.133 193.818 C 177.281 194.413,177.647 195.873,177.947 197.063 C 180.923 208.879,188.466 218.010,196.754 219.831 C 206.302 221.929,211.976 222.205,218.393 220.883 C 220.603 220.428,222.968 219.948,223.648 219.816 C 228.385 218.896,235.989 214.802,238.606 211.761 C 241.993 207.826,242.521 206.823,243.414 202.628 C 243.704 201.267,244.070 199.652,244.227 199.037 C 244.384 198.422,244.513 197.526,244.513 197.046 C 244.513 196.566,244.655 195.400,244.829 194.454 C 247.095 182.132,245.056 173.055,238.273 165.269 C 234.242 160.642,227.913 156.559,222.720 155.236 C 222.040 155.063,220.927 154.757,220.247 154.557 C 218.719 154.107,207.591 153.883,205.255 154.255 M219.722 155.065 C 220.861 155.322,222.280 155.639,222.875 155.771 C 227.633 156.822,239.876 165.666,239.876 168.052 C 239.876 168.165,240.193 168.687,240.580 169.213 C 244.255 174.212,246.083 183.000,244.990 190.417 C 244.703 192.372,244.340 194.876,244.185 195.981 C 244.029 197.087,243.765 198.617,243.598 199.382 C 243.430 200.147,243.097 201.747,242.857 202.937 C 241.713 208.623,236.631 214.321,230.603 216.676 C 230.008 216.908,228.791 217.422,227.898 217.818 C 225.833 218.735,222.039 219.779,219.552 220.116 C 218.490 220.260,217.029 220.546,216.306 220.751 C 214.386 221.296,206.610 221.191,203.246 220.575 C 195.772 219.206,194.620 218.875,192.117 217.379 C 191.097 216.769,190.193 216.188,190.108 216.088 C 190.023 215.988,189.579 215.667,189.121 215.376 C 186.844 213.928,182.109 207.438,180.948 204.173 C 178.250 196.587,178.401 197.059,177.453 193.277 C 176.396 189.060,176.308 185.576,177.087 178.671 C 178.148 169.254,187.816 158.439,197.063 156.325 C 206.184 154.240,214.108 153.800,219.722 155.065 M200.814 162.682 C 199.513 163.634,199.498 166.787,200.794 167.112 C 203.328 167.748,203.633 171.348,201.852 179.598 C 201.650 180.533,201.452 181.855,201.413 182.535 C 201.373 183.215,201.168 184.778,200.956 186.008 C 200.507 188.623,201.005 191.039,202.231 192.190 C 203.423 193.310,207.448 195.363,208.466 195.371 C 208.995 195.375,209.965 195.502,210.620 195.655 C 211.558 195.872,212.108 195.805,213.196 195.338 C 215.202 194.478,215.459 194.544,215.407 195.904 C 215.383 196.542,215.454 197.350,215.567 197.701 C 215.816 198.482,215.084 201.034,214.421 201.698 C 213.055 203.064,206.693 203.165,203.300 201.875 C 202.835 201.699,202.146 201.569,201.768 201.588 C 201.391 201.606,199.482 201.382,197.527 201.090 C 192.402 200.325,192.643 200.305,191.982 201.546 C 189.940 205.379,190.430 206.947,193.770 207.260 C 194.901 207.365,196.453 207.585,197.218 207.746 C 197.983 207.908,200.209 208.262,202.164 208.533 C 204.119 208.804,206.484 209.138,207.419 209.275 C 215.201 210.416,217.318 210.385,219.188 209.098 C 221.245 207.683,221.766 206.199,222.547 199.536 C 222.686 198.346,222.947 196.538,223.126 195.518 C 223.573 192.971,224.343 187.984,224.748 185.008 C 225.444 179.895,225.650 178.427,226.131 175.116 C 227.575 165.188,227.595 165.688,225.755 165.688 C 225.197 165.688,223.756 165.519,222.553 165.313 C 220.027 164.879,219.912 164.955,219.628 167.233 C 219.532 167.998,219.310 169.389,219.134 170.325 C 218.957 171.260,218.682 173.207,218.523 174.652 C 217.994 179.458,217.678 181.597,217.338 182.687 C 217.153 183.281,217.002 184.306,217.002 184.964 C 217.002 188.988,212.451 191.034,209.723 188.237 L 208.501 186.985 208.596 184.010 C 208.649 182.374,208.816 180.802,208.969 180.517 C 209.121 180.233,209.386 178.762,209.558 177.249 C 209.882 174.394,210.925 167.510,211.297 165.776 C 211.682 163.983,211.282 163.215,209.963 163.214 C 209.329 163.214,207.628 163.006,206.182 162.751 C 202.964 162.184,201.521 162.166,200.814 162.682 M205.255 163.251 C 206.700 163.438,208.509 163.680,209.274 163.789 L 210.665 163.988 210.571 166.151 C 210.520 167.342,210.362 168.594,210.220 168.934 C 210.079 169.274,209.802 170.873,209.604 172.488 C 209.407 174.104,209.113 176.329,208.951 177.434 C 207.728 185.777,207.724 186.997,208.909 188.408 C 210.635 190.463,214.072 190.819,215.627 189.104 C 217.387 187.162,217.260 187.698,218.990 174.961 C 219.256 173.006,219.609 170.711,219.775 169.861 C 219.940 169.011,220.160 167.641,220.262 166.817 C 220.432 165.456,220.510 165.337,221.121 165.521 C 221.490 165.632,222.804 165.848,224.040 166.000 C 227.114 166.379,227.374 166.683,226.582 168.965 C 226.411 169.458,226.142 170.974,225.984 172.334 C 225.826 173.694,225.474 176.128,225.201 177.743 C 224.929 179.359,224.578 181.793,224.421 183.153 C 223.991 186.888,223.543 190.088,223.208 191.808 C 223.043 192.658,222.743 194.606,222.542 196.136 C 221.125 206.918,220.516 208.489,217.422 209.344 C 215.724 209.813,210.210 209.499,208.037 208.810 C 207.650 208.687,206.275 208.469,204.981 208.326 C 203.687 208.182,201.306 207.861,199.691 207.612 C 198.076 207.363,195.641 206.999,194.281 206.802 C 191.221 206.360,191.279 206.422,191.698 204.044 C 192.073 201.916,192.870 200.781,193.787 201.072 C 194.092 201.169,194.885 201.315,195.548 201.396 C 199.012 201.820,203.837 202.521,206.028 202.919 C 213.478 204.271,215.854 203.026,215.997 197.697 C 216.095 194.022,215.846 193.723,213.493 194.698 C 211.941 195.342,211.764 195.352,209.413 194.934 C 207.220 194.545,206.300 194.161,203.559 192.491 C 201.180 191.042,200.811 188.008,202.162 180.989 C 204.131 170.757,203.911 167.673,201.140 166.633 C 200.307 166.320,200.280 166.247,200.488 164.838 C 200.801 162.711,200.881 162.684,205.255 163.251 " stroke="none" fill="#9ba1bc" fill-rule="evenodd"></path><path id="path4" d="M197.527 13.480 C 197.102 13.550,193.624 13.733,189.799 13.888 C 180.614 14.260,165.256 15.354,163.597 15.755 C 162.872 15.931,161.874 16.074,161.379 16.074 C 160.885 16.074,159.809 16.207,158.988 16.370 C 158.167 16.533,156.314 16.886,154.869 17.155 C 153.423 17.425,151.685 17.771,151.005 17.924 C 149.185 18.336,143.137 19.777,141.886 20.098 C 141.291 20.250,140.039 20.532,139.104 20.724 C 137.359 21.083,134.116 22.075,130.294 23.418 C 128.185 24.159,114.841 30.630,110.510 33.011 C 108.410 34.166,103.949 36.983,99.845 39.745 C 98.740 40.489,97.558 41.275,97.218 41.491 C 93.418 43.915,91.367 48.849,92.067 53.885 C 92.260 55.276,92.565 58.362,92.744 60.742 C 93.117 65.704,93.381 67.063,94.414 69.322 C 94.822 70.213,95.386 71.708,95.668 72.643 C 95.950 73.578,96.296 74.621,96.438 74.961 C 96.579 75.301,96.858 76.832,97.057 78.362 C 97.602 82.558,98.261 84.907,99.660 87.635 C 101.228 90.695,101.546 90.771,103.275 88.506 C 107.131 83.455,113.842 77.280,115.476 77.280 C 115.569 77.280,116.719 76.591,118.032 75.749 C 121.447 73.558,123.585 72.661,126.664 72.126 C 131.496 71.287,131.818 71.210,133.539 70.478 C 134.474 70.081,135.379 69.658,135.549 69.539 C 136.456 68.905,139.958 68.548,141.921 68.890 C 146.095 69.617,156.536 68.719,159.660 67.364 C 164.878 65.102,179.915 65.123,185.626 67.401 C 185.966 67.537,186.801 67.733,187.481 67.837 C 188.161 67.941,189.900 68.238,191.345 68.496 C 192.790 68.754,194.737 69.090,195.672 69.243 C 196.607 69.395,198.068 69.662,198.918 69.836 C 207.621 71.616,216.013 72.233,221.329 71.485 C 227.647 70.596,237.962 69.827,241.577 69.976 C 255.303 70.542,258.981 71.118,269.861 74.403 C 272.977 75.343,273.662 75.532,276.507 76.230 C 277.697 76.522,279.297 77.029,280.062 77.356 C 280.827 77.683,282.079 78.156,282.844 78.408 C 285.813 79.384,290.818 82.144,294.053 84.589 C 297.065 86.866,296.682 87.509,299.790 74.961 C 300.608 71.656,300.963 69.877,301.392 66.924 C 301.589 65.564,301.948 63.428,302.189 62.177 C 304.029 52.633,301.804 45.258,295.827 41.086 C 292.734 38.928,290.958 38.066,284.080 35.387 C 282.465 34.758,280.866 34.127,280.526 33.986 C 280.185 33.845,278.447 33.224,276.662 32.607 C 274.876 31.990,271.677 30.784,269.552 29.928 C 267.427 29.071,265.410 28.263,265.070 28.133 C 264.730 28.002,263.895 27.676,263.215 27.408 C 262.535 27.141,261.005 26.618,259.815 26.246 C 257.849 25.631,250.188 22.884,248.686 22.256 C 243.454 20.066,236.569 18.100,229.212 16.696 C 224.102 15.721,223.048 15.544,219.011 14.991 C 216.971 14.712,214.954 14.418,214.529 14.339 C 211.698 13.809,199.324 13.184,197.527 13.480 M211.327 14.684 C 213.683 14.939,216.515 15.288,217.620 15.459 C 218.725 15.631,220.742 15.915,222.102 16.091 C 224.477 16.398,230.961 17.607,233.539 18.224 C 234.219 18.387,235.680 18.734,236.785 18.996 C 239.453 19.628,249.787 23.175,253.014 24.566 C 253.694 24.859,256.476 25.830,259.196 26.724 C 261.917 27.617,266.204 29.212,268.724 30.268 C 271.244 31.324,274.126 32.450,275.127 32.770 C 296.773 39.685,303.285 45.656,302.022 57.428 C 301.228 64.830,299.834 72.651,298.290 78.362 C 297.922 79.722,297.461 81.600,297.264 82.535 C 296.616 85.615,296.599 85.620,293.707 83.549 C 291.099 81.680,286.954 79.368,284.235 78.265 C 280.384 76.702,277.450 75.702,275.067 75.143 C 272.656 74.577,268.690 73.454,263.988 72.005 C 260.791 71.021,256.474 70.353,251.159 70.021 C 249.629 69.925,246.761 69.692,244.787 69.503 C 240.790 69.120,231.784 69.535,225.348 70.399 C 220.580 71.038,211.655 71.248,208.346 70.799 C 205.430 70.403,197.749 69.066,195.827 68.619 C 195.147 68.461,193.140 68.113,191.368 67.845 C 189.596 67.577,186.877 67.028,185.327 66.625 C 177.432 64.574,166.768 64.635,159.505 66.773 C 155.406 67.980,151.822 68.337,144.255 68.292 L 137.061 68.249 134.605 69.329 C 131.708 70.602,130.683 70.888,126.638 71.554 C 123.330 72.099,121.234 72.932,118.105 74.947 C 116.988 75.666,114.898 76.938,113.461 77.772 C 110.801 79.317,105.695 84.142,103.451 87.232 C 101.574 89.817,101.314 89.830,100.169 87.394 C 98.712 84.295,98.246 82.566,97.693 78.207 C 97.393 75.847,95.978 71.024,94.924 68.769 C 93.924 66.631,93.601 64.908,93.327 60.278 C 93.182 57.813,92.913 54.892,92.730 53.787 C 92.109 50.044,93.086 46.617,95.604 43.703 C 96.615 42.532,108.116 34.989,112.056 32.913 C 115.630 31.030,119.586 29.048,125.502 26.179 C 129.064 24.452,137.935 21.329,139.279 21.329 C 139.672 21.329,140.080 21.190,140.185 21.020 C 140.291 20.850,140.780 20.711,141.273 20.711 C 141.766 20.711,143.601 20.357,145.351 19.924 C 150.509 18.648,153.088 18.101,157.496 17.348 C 158.516 17.174,160.185 16.885,161.206 16.707 C 163.728 16.266,168.539 15.812,174.652 15.437 C 177.457 15.265,182.465 14.940,185.781 14.715 C 194.376 14.132,206.099 14.117,211.327 14.684 M168.087 70.389 C 168.472 70.463,169.028 70.460,169.324 70.382 C 169.619 70.305,169.304 70.245,168.624 70.248 C 167.944 70.251,167.703 70.315,168.087 70.389 M171.178 70.389 C 171.563 70.463,172.119 70.460,172.415 70.382 C 172.710 70.305,172.396 70.245,171.716 70.248 C 171.036 70.251,170.794 70.315,171.178 70.389 M173.962 70.394 C 174.518 70.463,175.352 70.461,175.817 70.391 C 176.281 70.320,175.827 70.264,174.807 70.266 C 173.787 70.268,173.407 70.325,173.962 70.394 M141.345 73.474 C 141.642 73.552,142.129 73.552,142.427 73.474 C 142.724 73.397,142.481 73.333,141.886 73.333 C 141.291 73.333,141.047 73.397,141.345 73.474 M237.481 74.711 C 237.778 74.789,238.265 74.789,238.563 74.711 C 238.860 74.633,238.617 74.569,238.022 74.569 C 237.427 74.569,237.183 74.633,237.481 74.711 M157.032 84.754 C 153.364 85.262,150.611 85.911,148.944 86.663 C 148.037 87.071,146.639 87.691,145.837 88.039 C 144.000 88.838,142.202 90.091,140.031 92.086 C 139.096 92.945,138.248 93.651,138.147 93.655 C 136.346 93.730,131.073 103.102,131.060 106.252 C 131.057 107.064,130.838 108.910,130.575 110.355 C 129.096 118.462,129.379 124.978,131.521 132.148 C 131.978 133.679,132.459 135.417,132.589 136.012 C 133.932 142.141,144.314 151.656,151.832 153.650 C 164.764 157.080,171.805 157.519,181.069 155.470 C 184.696 154.668,194.594 149.059,196.210 146.890 C 196.677 146.263,197.142 145.680,197.243 145.595 C 197.847 145.084,199.681 141.762,200.148 140.331 C 200.452 139.401,200.796 138.501,200.914 138.331 C 201.330 137.731,201.909 135.281,202.184 132.955 C 202.338 131.661,202.613 129.907,202.796 129.057 C 204.134 122.854,204.256 116.674,203.101 113.638 C 202.964 113.278,202.678 112.218,202.465 111.283 C 200.364 102.052,197.114 96.677,190.487 91.475 C 186.906 88.664,186.981 88.714,184.583 87.465 C 180.204 85.183,164.848 83.672,157.032 84.754 M175.506 85.785 C 178.925 86.317,181.322 86.800,182.226 87.139 C 187.011 88.935,193.614 94.219,196.992 98.956 C 198.774 101.455,200.190 105.063,201.947 111.592 C 203.637 117.868,203.782 122.176,202.490 127.666 C 202.162 129.058,201.824 130.944,201.204 134.846 C 200.556 138.926,197.646 144.850,195.138 147.196 C 192.523 149.641,183.664 154.400,180.835 154.880 C 170.181 156.686,170.228 156.685,162.133 155.323 C 161.453 155.208,160.201 155.000,159.351 154.860 C 146.599 152.756,134.772 143.950,132.901 135.165 C 132.765 134.526,132.513 133.516,132.342 132.921 C 130.061 124.976,129.465 117.567,130.721 112.745 C 131.042 111.516,131.393 109.264,131.501 107.741 C 131.804 103.481,135.184 96.501,137.868 94.590 C 138.317 94.270,139.819 93.050,141.207 91.878 C 142.594 90.706,144.323 89.461,145.048 89.111 C 152.290 85.616,153.447 85.389,164.223 85.348 C 170.217 85.326,173.324 85.446,175.506 85.785 M109.563 87.558 L 108.655 88.563 109.660 87.655 C 110.596 86.808,110.807 86.553,110.568 86.553 C 110.515 86.553,110.063 87.005,109.563 87.558 M168.161 93.796 C 165.548 94.488,164.369 95.047,162.369 96.541 C 160.670 97.810,159.886 97.869,159.594 96.749 C 159.299 95.622,157.873 95.600,150.541 96.614 C 148.756 96.861,145.626 97.265,143.586 97.512 C 138.933 98.076,138.616 98.340,138.930 101.391 C 139.044 102.496,139.209 104.235,139.295 105.255 C 139.598 108.802,139.962 109.187,143.122 109.296 C 144.227 109.334,145.410 109.414,145.750 109.474 C 147.029 109.699,147.742 111.947,148.381 117.774 C 148.755 121.186,149.177 124.700,149.607 127.975 C 150.467 134.521,150.892 137.846,151.028 139.104 C 151.832 146.542,151.683 146.389,158.064 146.292 C 163.923 146.203,164.951 145.953,165.573 144.466 C 165.817 143.882,165.947 143.291,165.862 143.153 C 165.709 142.906,164.974 137.579,164.429 132.767 C 164.275 131.406,164.023 129.320,163.870 128.130 C 163.716 126.940,163.430 124.714,163.233 123.184 C 163.036 121.654,162.742 119.648,162.581 118.727 C 162.420 117.806,162.287 116.530,162.287 115.892 C 162.287 115.253,162.122 114.013,161.920 113.136 C 161.635 111.904,161.635 111.409,161.920 110.953 C 162.122 110.629,162.287 110.000,162.287 109.556 C 162.287 108.544,163.799 107.079,165.261 106.675 C 168.171 105.872,170.584 107.723,171.063 111.128 C 171.442 113.821,172.584 122.899,173.086 127.202 C 173.244 128.563,173.513 130.580,173.684 131.685 C 173.854 132.790,174.149 134.931,174.338 136.444 C 175.004 141.753,177.677 144.147,182.167 143.458 C 183.219 143.297,185.541 143.009,187.326 142.819 C 193.903 142.120,194.907 141.602,194.590 139.075 C 193.745 132.338,193.720 132.282,191.186 131.639 C 188.041 130.841,187.644 130.171,187.008 124.575 C 186.804 122.790,186.515 120.355,186.364 119.165 C 186.213 117.975,185.951 115.889,185.781 114.529 C 185.611 113.168,185.264 110.526,185.011 108.655 C 184.758 106.785,184.469 104.420,184.369 103.400 C 184.187 101.556,184.115 101.297,183.203 99.227 C 181.290 94.881,173.999 92.249,168.161 93.796 M176.110 94.451 C 179.030 95.395,182.689 98.095,182.689 99.305 C 182.689 99.534,182.819 99.854,182.978 100.015 C 183.367 100.412,184.044 104.648,184.828 111.592 C 184.991 113.037,185.345 115.889,185.615 117.929 C 186.511 124.712,186.672 125.953,186.886 127.723 C 187.122 129.665,188.451 131.685,189.494 131.685 C 189.812 131.685,190.158 131.824,190.263 131.994 C 190.368 132.164,190.968 132.303,191.597 132.303 C 193.038 132.303,193.396 133.017,193.689 136.476 C 193.804 137.836,194.001 139.143,194.127 139.380 C 194.551 140.178,193.458 141.572,192.406 141.575 C 191.885 141.576,190.675 141.721,189.717 141.898 C 188.759 142.075,186.751 142.359,185.255 142.528 C 183.759 142.698,181.941 142.915,181.216 143.011 C 178.823 143.327,175.938 141.535,175.443 139.424 C 175.206 138.414,174.362 132.777,174.029 129.985 C 173.479 125.364,173.106 122.430,172.634 119.011 C 172.364 117.056,172.027 114.413,171.886 113.138 C 171.746 111.862,171.523 110.345,171.393 109.766 C 170.898 107.570,167.117 105.064,165.666 105.970 C 165.343 106.172,164.873 106.337,164.623 106.337 C 163.845 106.337,161.568 108.720,161.791 109.301 C 161.900 109.584,161.828 110.009,161.632 110.246 C 161.220 110.742,161.409 114.127,162.148 119.474 C 162.407 121.345,162.685 123.501,162.766 124.266 C 162.847 125.031,163.044 126.631,163.205 127.821 C 163.365 129.011,163.722 131.862,163.999 134.158 C 164.275 136.453,164.637 138.818,164.804 139.413 C 164.971 140.008,165.065 141.538,165.012 142.813 L 164.915 145.131 163.215 145.361 C 154.183 146.579,152.452 146.124,152.008 142.413 C 151.861 141.188,151.534 138.655,151.281 136.785 C 151.028 134.915,150.704 132.342,150.561 131.066 C 150.418 129.791,150.151 127.398,149.967 125.747 C 149.783 124.097,149.554 122.428,149.458 122.038 C 149.362 121.648,149.153 120.147,148.993 118.702 C 147.928 109.069,147.808 108.877,142.727 108.671 C 140.151 108.567,140.471 109.037,139.876 104.477 C 139.143 98.865,139.179 98.767,142.125 98.318 C 147.311 97.528,152.549 96.902,156.756 96.570 L 159.107 96.384 159.309 97.642 L 159.510 98.899 161.087 97.969 C 161.955 97.458,162.876 96.828,163.133 96.571 C 165.229 94.475,172.508 93.286,176.110 94.451 M170.247 94.809 C 170.630 94.882,171.256 94.882,171.638 94.809 C 172.021 94.735,171.708 94.675,170.943 94.675 C 170.178 94.675,169.865 94.735,170.247 94.809 M265.379 94.938 C 261.758 95.770,257.404 97.830,252.859 100.863 C 247.461 104.465,244.483 111.022,243.278 121.960 C 242.605 128.060,244.429 135.948,247.312 139.413 C 247.987 140.224,247.762 139.722,246.689 138.022 C 246.367 137.512,246.094 136.740,246.081 136.306 C 246.069 135.872,245.937 135.386,245.788 135.224 C 245.638 135.063,245.305 134.235,245.045 133.385 C 241.663 122.288,245.494 106.877,252.938 101.627 C 254.683 100.397,255.681 99.811,260.278 97.317 C 266.980 93.682,280.369 95.428,285.861 100.654 C 288.245 102.922,288.248 103.015,286.102 107.384 C 285.174 109.273,284.046 111.932,283.595 113.292 C 283.144 114.652,281.539 118.073,280.027 120.893 C 278.516 123.714,277.280 126.185,277.280 126.386 C 277.280 126.791,274.825 131.673,273.061 134.776 C 271.799 136.996,270.787 139.532,269.670 143.277 C 268.319 147.806,267.242 149.615,265.900 149.606 C 263.141 149.588,255.220 146.232,252.121 143.768 C 251.460 143.243,250.810 142.813,250.677 142.813 C 250.543 142.813,250.006 142.385,249.483 141.862 C 248.960 141.339,248.532 141.049,248.532 141.219 C 248.532 143.338,260.185 149.532,265.257 150.109 C 267.595 150.375,268.864 148.694,270.181 143.586 C 270.973 140.511,272.726 136.358,274.356 133.694 C 274.876 132.844,275.828 131.036,276.471 129.675 C 277.677 127.126,280.990 120.464,282.542 117.465 C 283.027 116.530,283.793 114.722,284.245 113.447 C 285.288 110.507,285.683 109.593,287.368 106.228 C 288.983 103.003,288.967 102.882,286.603 100.554 C 283.291 97.292,281.181 96.451,272.470 94.920 C 270.261 94.531,267.114 94.540,265.379 94.938 M156.414 97.184 C 156.414 97.251,156.901 97.362,157.496 97.431 C 158.091 97.501,158.578 97.446,158.578 97.310 C 158.578 97.175,158.091 97.063,157.496 97.063 C 156.901 97.063,156.414 97.118,156.414 97.184 M145.286 98.609 C 144.674 98.805,144.642 98.856,145.131 98.856 C 145.471 98.856,146.097 98.745,146.522 98.609 C 147.134 98.413,147.167 98.361,146.677 98.361 C 146.337 98.361,145.711 98.473,145.286 98.609 M182.321 100.927 C 182.478 101.267,182.683 101.754,182.778 102.009 C 182.926 102.410,182.953 102.407,182.974 101.991 C 182.987 101.726,182.782 101.239,182.518 100.909 C 182.045 100.319,182.042 100.319,182.321 100.927 M140.093 101.236 C 140.093 101.577,140.204 102.202,140.340 102.628 C 140.536 103.239,140.588 103.272,140.588 102.782 C 140.588 102.442,140.476 101.816,140.340 101.391 C 140.144 100.779,140.093 100.747,140.093 101.236 M140.721 104.791 C 140.721 105.386,140.784 105.630,140.862 105.332 C 140.940 105.035,140.940 104.548,140.862 104.250 C 140.784 103.953,140.721 104.196,140.721 104.791 M183.051 105.564 C 183.046 105.904,183.161 106.461,183.308 106.801 C 183.646 107.588,183.646 106.776,183.308 105.719 C 183.109 105.097,183.058 105.067,183.051 105.564 M183.669 110.665 C 183.685 111.468,184.172 112.787,184.182 112.056 C 184.187 111.716,184.072 111.159,183.926 110.819 C 183.763 110.440,183.664 110.381,183.669 110.665 M160.176 112.056 C 160.171 112.396,160.287 112.952,160.433 113.292 C 160.771 114.080,160.771 113.267,160.433 112.210 C 160.234 111.589,160.183 111.559,160.176 112.056 M172.550 112.674 C 172.550 113.014,172.661 113.640,172.798 114.065 C 172.994 114.677,173.045 114.709,173.045 114.219 C 173.045 113.879,172.934 113.253,172.798 112.828 C 172.602 112.217,172.550 112.184,172.550 112.674 M184.307 114.992 C 184.307 115.587,184.370 115.831,184.448 115.533 C 184.526 115.236,184.526 114.749,184.448 114.451 C 184.370 114.154,184.307 114.397,184.307 114.992 M127.120 117.156 C 127.120 117.751,127.183 117.995,127.261 117.697 C 127.339 117.400,127.339 116.913,127.261 116.615 C 127.183 116.318,127.120 116.561,127.120 117.156 M173.150 118.083 C 173.150 118.338,173.270 118.825,173.416 119.165 C 173.583 119.555,173.681 119.612,173.681 119.320 C 173.681 119.065,173.562 118.578,173.416 118.238 C 173.248 117.848,173.150 117.791,173.150 118.083 M206.587 120.093 C 206.589 121.113,206.647 121.493,206.716 120.937 C 206.784 120.382,206.783 119.547,206.712 119.083 C 206.642 118.618,206.586 119.073,206.587 120.093 M127.141 120.556 C 127.141 121.491,127.198 121.874,127.269 121.406 C 127.340 120.939,127.340 120.174,127.269 119.706 C 127.198 119.239,127.141 119.621,127.141 120.556 M150.310 123.184 C 150.313 123.864,150.377 124.106,150.450 123.721 C 150.524 123.337,150.522 122.780,150.444 122.485 C 150.367 122.189,150.306 122.504,150.310 123.184 M185.215 122.411 C 185.231 123.214,185.717 124.534,185.728 123.802 C 185.733 123.462,185.618 122.906,185.471 122.566 C 185.309 122.187,185.209 122.127,185.215 122.411 M239.980 125.193 C 239.980 126.468,240.035 126.990,240.102 126.352 C 240.168 125.715,240.168 124.672,240.102 124.034 C 240.035 123.396,239.980 123.918,239.980 125.193 M161.722 123.957 C 161.738 124.760,162.224 126.079,162.235 125.348 C 162.240 125.008,162.124 124.451,161.978 124.111 C 161.816 123.733,161.716 123.673,161.722 123.957 M174.705 129.675 C 174.700 130.015,174.815 130.572,174.961 130.912 C 175.300 131.700,175.300 130.887,174.961 129.830 C 174.762 129.209,174.712 129.178,174.705 129.675 M151.212 130.757 C 151.227 131.561,151.714 132.880,151.725 132.148 C 151.730 131.808,151.614 131.252,151.468 130.912 C 151.306 130.533,151.206 130.473,151.212 130.757 M162.984 133.076 C 162.987 133.756,163.050 133.998,163.124 133.613 C 163.198 133.229,163.195 132.672,163.118 132.377 C 163.041 132.081,162.980 132.396,162.984 133.076 M175.332 134.930 C 175.332 135.270,175.443 135.896,175.580 136.321 C 175.776 136.933,175.827 136.966,175.827 136.476 C 175.827 136.136,175.716 135.510,175.580 135.085 C 175.384 134.473,175.332 134.441,175.332 134.930 M151.839 135.858 C 151.839 136.198,151.950 136.824,152.087 137.249 C 152.283 137.861,152.334 137.893,152.334 137.403 C 152.334 137.063,152.223 136.437,152.087 136.012 C 151.891 135.400,151.839 135.368,151.839 135.858 M163.276 135.858 C 163.276 136.198,163.388 136.824,163.524 137.249 C 163.720 137.861,163.771 137.893,163.771 137.403 C 163.771 137.063,163.660 136.437,163.524 136.012 C 163.328 135.400,163.276 135.368,163.276 135.858 M163.895 140.804 C 163.895 141.144,164.006 141.770,164.142 142.195 C 164.338 142.807,164.390 142.839,164.390 142.349 C 164.390 142.009,164.278 141.383,164.142 140.958 C 163.946 140.346,163.895 140.314,163.895 140.804 M188.794 141.176 C 189.177 141.250,189.803 141.250,190.185 141.176 C 190.568 141.103,190.255 141.042,189.490 141.042 C 188.725 141.042,188.412 141.103,188.794 141.176 M179.802 142.272 C 179.997 142.590,180.893 142.555,181.443 142.207 C 181.765 142.004,181.571 141.938,180.779 141.980 C 180.164 142.013,179.724 142.145,179.802 142.272 M155.568 145.199 C 156.038 145.270,156.734 145.268,157.114 145.194 C 157.494 145.121,157.110 145.063,156.260 145.065 C 155.410 145.068,155.099 145.128,155.568 145.199 M209.978 154.478 C 210.791 154.542,212.043 154.541,212.760 154.476 C 213.478 154.411,212.813 154.359,211.283 154.360 C 209.753 154.361,209.166 154.414,209.978 154.478 M206.491 157.349 C 205.726 157.511,204.196 157.791,203.091 157.972 C 199.737 158.521,196.513 159.236,195.209 159.721 C 192.289 160.806,185.854 166.068,184.509 168.470 C 184.175 169.065,183.353 170.526,182.681 171.716 C 179.929 176.590,179.573 177.559,178.932 181.917 C 178.586 184.271,178.775 189.567,179.261 191.136 C 179.428 191.676,179.804 193.226,180.097 194.581 C 180.390 195.935,180.966 197.952,181.378 199.063 C 181.789 200.173,182.273 201.499,182.452 202.009 C 182.632 202.519,182.879 203.076,183.001 203.246 C 183.123 203.416,183.307 203.909,183.409 204.341 C 183.598 205.133,185.596 208.409,186.420 209.276 C 186.663 209.532,187.535 210.542,188.358 211.521 C 189.181 212.499,190.432 213.695,191.140 214.177 C 194.738 216.631,196.088 217.068,204.637 218.543 C 207.296 219.001,213.732 219.028,215.638 218.589 C 216.473 218.396,218.269 218.027,219.629 217.769 C 222.368 217.248,226.268 216.120,226.723 215.716 C 226.885 215.573,227.194 215.456,227.410 215.456 C 227.980 215.456,231.100 213.965,233.076 212.749 C 236.010 210.943,239.936 206.001,240.258 203.709 C 240.342 203.114,240.653 201.584,240.949 200.309 C 242.077 195.450,242.743 188.508,242.544 183.674 C 242.374 179.540,242.287 179.099,240.865 175.116 C 238.159 167.537,228.852 159.845,220.093 157.946 C 216.750 157.222,208.759 156.871,206.491 157.349 M219.756 158.452 C 220.706 158.723,222.040 159.102,222.720 159.295 C 229.590 161.244,238.367 169.289,240.489 175.581 C 242.009 180.090,242.546 186.943,241.747 191.635 C 241.248 194.565,240.137 201.319,239.907 202.822 C 239.278 206.928,233.868 212.426,228.439 214.476 C 223.569 216.316,223.134 216.438,217.311 217.619 C 212.475 218.599,207.772 218.597,202.628 217.613 C 194.226 216.005,192.226 215.035,188.551 210.788 C 185.066 206.762,184.624 206.039,182.989 201.700 C 182.604 200.680,182.112 199.428,181.895 198.918 C 181.533 198.069,180.654 194.823,179.842 191.345 C 178.696 186.431,179.463 178.717,181.456 175.116 C 184.562 169.503,185.655 167.806,187.238 166.136 C 188.995 164.282,194.233 160.569,195.530 160.258 C 196.033 160.137,196.584 159.937,196.754 159.812 C 196.924 159.688,197.689 159.504,198.454 159.404 C 200.723 159.107,204.686 158.323,204.874 158.135 C 205.315 157.694,218.049 157.965,219.756 158.452 M199.334 161.356 C 198.445 162.335,197.863 167.557,198.595 167.979 C 200.663 169.171,201.603 170.418,201.401 171.698 C 201.292 172.388,201.135 173.856,201.053 174.961 C 200.971 176.066,200.781 177.249,200.631 177.589 C 200.481 177.929,200.205 179.529,200.018 181.144 C 199.831 182.759,199.549 184.912,199.392 185.927 C 198.646 190.760,199.931 193.469,203.858 195.341 C 206.107 196.412,211.155 197.554,212.210 197.229 C 214.201 196.616,214.682 197.435,213.584 199.570 L 212.886 200.927 209.552 200.927 C 207.663 200.927,206.136 200.793,206.028 200.618 C 205.923 200.448,204.830 200.309,203.598 200.309 C 202.367 200.309,201.216 200.165,201.040 199.989 C 200.864 199.813,199.341 199.524,197.655 199.348 C 195.969 199.171,193.926 198.954,193.113 198.865 C 191.457 198.683,190.726 199.071,190.726 200.131 C 190.726 200.501,190.599 200.936,190.444 201.097 C 189.789 201.778,189.252 206.149,189.714 207.040 C 190.474 208.504,190.974 208.619,203.246 210.172 C 204.776 210.366,207.735 210.799,209.821 211.135 C 216.187 212.161,216.957 212.050,221.587 209.443 C 222.945 208.678,223.621 206.258,224.007 200.773 C 224.091 199.583,224.288 198.477,224.444 198.315 C 224.601 198.154,224.738 197.319,224.748 196.461 C 224.758 195.602,224.899 194.204,225.062 193.354 C 225.225 192.504,225.488 190.765,225.647 189.490 C 226.789 180.332,227.564 175.748,228.013 175.487 C 228.324 175.306,228.439 174.500,228.439 172.491 C 228.439 170.980,228.578 169.657,228.748 169.552 C 229.139 169.310,229.157 164.859,228.768 164.618 C 228.314 164.338,224.199 163.762,221.583 163.613 C 218.191 163.420,217.929 163.621,217.929 166.410 C 217.929 167.795,217.781 168.803,217.543 169.041 C 217.175 169.407,216.875 171.912,216.502 177.742 C 216.409 179.186,216.206 180.522,216.049 180.710 C 215.893 180.898,215.676 181.942,215.567 183.030 C 215.156 187.140,213.037 189.057,210.996 187.165 C 210.020 186.261,210.011 184.613,210.947 178.207 C 213.514 160.629,213.948 162.175,206.181 161.229 C 201.159 160.616,199.987 160.638,199.334 161.356 M202.628 161.360 C 202.733 161.530,204.054 161.669,205.564 161.669 C 207.074 161.669,208.396 161.808,208.501 161.978 C 208.606 162.148,209.092 162.287,209.581 162.287 C 211.882 162.287,212.056 162.554,212.056 166.082 C 212.056 167.837,211.923 169.407,211.760 169.569 C 211.597 169.732,211.368 171.016,211.251 172.423 C 211.134 173.830,210.919 175.054,210.774 175.144 C 210.629 175.234,210.510 176.453,210.510 177.854 C 210.510 179.256,210.386 180.534,210.235 180.696 C 209.425 181.559,209.514 186.270,210.360 187.275 C 212.590 189.925,216.074 187.348,216.074 183.047 C 216.074 182.190,216.213 181.403,216.383 181.298 C 216.553 181.193,216.697 179.898,216.702 178.421 C 216.709 176.550,216.850 175.552,217.166 175.134 C 217.480 174.719,217.620 173.748,217.620 171.984 C 217.620 170.581,217.759 169.348,217.929 169.243 C 218.099 169.138,218.238 168.021,218.238 166.762 C 218.238 164.815,218.327 164.425,218.836 164.153 C 219.663 163.710,223.079 163.751,223.900 164.214 C 224.271 164.423,225.479 164.666,226.584 164.755 L 228.594 164.915 228.687 166.893 C 228.739 167.995,228.636 169.015,228.455 169.196 C 228.276 169.375,228.130 170.632,228.130 171.989 C 228.130 174.068,228.028 174.566,227.483 175.146 C 226.823 175.849,226.431 178.100,226.090 183.153 C 226.009 184.343,225.811 185.595,225.648 185.935 C 225.298 186.668,224.740 191.058,224.528 194.745 C 224.445 196.190,224.248 197.505,224.090 197.666 C 223.931 197.828,223.798 198.940,223.792 200.139 C 223.786 201.563,223.625 202.526,223.329 202.918 C 223.066 203.266,222.875 204.189,222.875 205.112 C 222.875 208.925,219.157 211.446,214.165 211.019 C 209.326 210.605,208.170 210.460,207.573 210.190 C 207.233 210.037,205.842 209.850,204.482 209.774 C 201.189 209.592,197.192 209.027,196.527 208.650 C 196.231 208.483,195.112 208.346,194.038 208.346 C 191.760 208.346,190.521 207.864,190.177 206.846 C 189.912 206.060,190.302 202.657,190.757 201.782 C 190.910 201.486,191.036 200.900,191.036 200.479 C 191.036 199.199,193.044 198.611,194.533 199.455 C 195.159 199.810,197.214 200.061,203.077 200.499 C 204.344 200.594,205.662 200.868,206.005 201.109 C 206.650 201.560,211.795 201.745,212.816 201.353 C 213.613 201.047,214.575 198.860,214.469 197.596 L 214.374 196.471 211.393 196.560 C 209.503 196.616,208.337 196.526,208.207 196.315 C 208.093 196.131,207.586 195.981,207.079 195.981 C 205.878 195.981,202.885 194.413,201.309 192.957 C 199.796 191.560,199.312 188.878,199.984 185.626 C 200.195 184.606,200.434 182.589,200.515 181.144 C 200.596 179.699,200.791 178.384,200.949 178.223 C 201.107 178.061,201.236 176.978,201.236 175.816 C 201.236 174.385,201.399 173.455,201.740 172.935 C 202.753 171.389,201.599 168.873,199.459 167.962 C 198.475 167.543,198.149 166.840,198.764 166.461 C 198.934 166.356,199.073 165.417,199.073 164.376 C 199.073 161.779,201.575 159.657,202.628 161.360 M200.180 162.795 C 199.910 163.500,200.062 163.518,200.696 162.854 C 201.107 162.423,201.134 162.287,200.806 162.287 C 200.569 162.287,200.288 162.516,200.180 162.795 M236.321 164.142 C 237.159 164.992,237.913 165.688,237.998 165.688 C 238.083 165.688,237.468 164.992,236.631 164.142 C 235.793 163.292,235.039 162.597,234.954 162.597 C 234.869 162.597,235.484 163.292,236.321 164.142 M208.578 163.124 C 208.961 163.198,209.587 163.198,209.969 163.124 C 210.352 163.050,210.039 162.990,209.274 162.990 C 208.509 162.990,208.196 163.050,208.578 163.124 M219.681 165.276 C 219.567 165.389,219.486 165.841,219.501 166.280 C 219.527 167.064,219.533 167.062,219.800 166.167 C 220.081 165.226,220.039 164.917,219.681 165.276 M223.029 165.379 C 223.539 165.508,224.304 165.617,224.730 165.620 L 225.502 165.626 224.730 165.379 C 224.304 165.243,223.539 165.134,223.029 165.137 L 222.102 165.143 223.029 165.379 M211.012 166.963 C 210.904 167.506,210.872 168.008,210.942 168.078 C 211.012 168.148,211.165 167.768,211.283 167.233 C 211.400 166.699,211.432 166.197,211.353 166.119 C 211.274 166.040,211.121 166.420,211.012 166.963 M199.691 166.703 C 199.691 166.945,200.140 167.273,200.690 167.430 C 201.279 167.599,201.977 168.144,202.390 168.757 C 202.776 169.330,203.091 169.649,203.091 169.467 C 203.091 168.953,201.540 167.233,201.077 167.233 C 200.849 167.233,200.444 167.015,200.177 166.748 C 199.777 166.348,199.691 166.340,199.691 166.703 M218.745 171.008 C 218.641 171.397,218.568 171.994,218.582 172.334 C 218.597 172.674,218.737 172.409,218.892 171.746 C 219.194 170.462,219.065 169.815,218.745 171.008 M226.430 172.488 C 226.312 173.023,226.286 173.530,226.371 173.615 C 226.456 173.700,226.621 173.332,226.739 172.798 C 226.856 172.263,226.883 171.756,226.798 171.671 C 226.713 171.586,226.547 171.954,226.430 172.488 M202.650 173.283 C 202.536 173.736,202.502 174.167,202.575 174.239 C 202.648 174.312,202.801 174.001,202.915 173.548 C 203.028 173.095,203.062 172.665,202.989 172.592 C 202.916 172.519,202.763 172.830,202.650 173.283 M209.671 176.352 C 209.673 177.202,209.733 177.514,209.805 177.044 C 209.876 176.574,209.874 175.878,209.800 175.498 C 209.727 175.118,209.669 175.502,209.671 176.352 M218.066 176.335 C 217.950 176.956,217.932 177.540,218.026 177.635 C 218.121 177.729,218.293 177.299,218.410 176.679 C 218.526 176.058,218.544 175.473,218.450 175.379 C 218.355 175.285,218.183 175.715,218.066 176.335 M202.040 177.156 C 201.927 177.865,201.895 178.505,201.968 178.578 C 202.042 178.652,202.200 178.137,202.318 177.434 C 202.437 176.731,202.469 176.091,202.390 176.012 C 202.311 175.933,202.153 176.448,202.040 177.156 M217.555 179.907 C 217.438 180.842,217.264 182.025,217.168 182.535 C 217.072 183.045,217.212 182.789,217.478 181.967 C 217.745 181.145,217.919 179.963,217.866 179.340 C 217.780 178.333,217.745 178.396,217.555 179.907 M208.848 180.692 C 208.742 180.968,208.673 181.774,208.694 182.483 C 208.731 183.718,208.743 183.701,208.979 182.072 C 209.232 180.320,209.185 179.815,208.848 180.692 M201.113 183.338 C 201.000 184.047,200.967 184.687,201.041 184.761 C 201.115 184.834,201.272 184.320,201.391 183.617 C 201.510 182.914,201.542 182.274,201.463 182.194 C 201.384 182.115,201.226 182.630,201.113 183.338 M245.233 186.244 C 245.234 187.434,245.290 187.883,245.357 187.242 C 245.424 186.601,245.423 185.627,245.354 185.078 C 245.286 184.529,245.231 185.054,245.233 186.244 M223.565 192.890 C 223.565 193.485,223.628 193.729,223.706 193.431 C 223.784 193.134,223.784 192.647,223.706 192.349 C 223.628 192.052,223.565 192.295,223.565 192.890 M203.666 193.490 C 204.068 193.840,204.543 194.127,204.723 194.127 C 205.103 194.127,205.085 194.111,203.864 193.397 L 202.937 192.854 203.666 193.490 M222.764 197.283 C 222.659 197.672,222.590 198.478,222.608 199.073 C 222.635 199.899,222.701 199.753,222.889 198.456 C 223.147 196.670,223.085 196.084,222.764 197.283 M194.281 200.621 C 194.874 200.873,197.458 201.046,197.192 200.816 C 197.121 200.755,196.298 200.627,195.363 200.532 C 194.305 200.424,193.897 200.458,194.281 200.621 M197.913 201.140 C 198.211 201.218,198.698 201.218,198.995 201.140 C 199.293 201.063,199.049 200.999,198.454 200.999 C 197.859 200.999,197.616 201.063,197.913 201.140 M222.119 202.336 C 222.003 202.956,221.969 203.525,222.045 203.601 C 222.121 203.676,222.278 203.231,222.394 202.610 C 222.510 201.990,222.544 201.421,222.468 201.345 C 222.393 201.269,222.236 201.715,222.119 202.336 M204.328 202.164 C 205.519 202.545,206.155 202.545,205.564 202.164 C 205.309 201.999,204.753 201.876,204.328 201.890 L 203.555 201.916 204.328 202.164 M209.662 202.810 C 210.641 202.953,211.711 202.970,212.040 202.848 C 212.379 202.723,211.608 202.611,210.260 202.589 L 207.883 202.551 209.662 202.810 M194.771 207.534 C 194.842 207.597,195.595 207.729,196.445 207.827 C 197.487 207.948,197.739 207.920,197.218 207.743 C 196.446 207.481,194.527 207.317,194.771 207.534 M204.019 208.964 C 204.444 209.101,205.070 209.212,205.410 209.212 C 205.899 209.212,205.867 209.160,205.255 208.964 C 204.830 208.828,204.204 208.717,203.864 208.717 C 203.374 208.717,203.407 208.768,204.019 208.964 M187.790 214.219 C 188.454 214.900,189.067 215.456,189.152 215.456 C 189.237 215.456,188.763 214.900,188.099 214.219 C 187.435 213.539,186.822 212.983,186.737 212.983 C 186.652 212.983,187.126 213.539,187.790 214.219 M210.278 221.242 C 210.746 221.312,211.511 221.312,211.978 221.242 C 212.446 221.171,212.063 221.113,211.128 221.113 C 210.193 221.113,209.811 221.171,210.278 221.242 M185.707 235.458 C 186.091 235.532,186.648 235.529,186.943 235.452 C 187.239 235.375,186.924 235.314,186.244 235.318 C 185.564 235.321,185.322 235.384,185.707 235.458 M183.771 238.518 C 183.103 238.687,181.671 239.173,180.680 239.566 C 180.340 239.701,179.366 240.045,178.516 240.331 C 174.044 241.835,173.307 242.525,174.322 244.264 C 174.650 244.826,175.346 246.538,175.868 248.068 C 176.913 251.129,177.931 253.301,178.567 253.829 C 178.794 254.017,178.980 254.363,178.980 254.597 C 178.980 254.832,179.097 255.023,179.239 255.023 C 179.382 255.023,179.645 255.336,179.823 255.719 C 180.000 256.101,181.101 257.694,182.268 259.257 C 183.435 260.821,184.624 262.560,184.911 263.121 C 186.552 266.332,191.988 277.760,192.748 279.598 C 194.491 283.814,197.042 283.049,201.505 276.971 C 202.191 276.036,202.864 275.131,202.999 274.960 C 204.821 272.662,206.184 268.445,206.173 265.140 C 206.149 257.910,204.837 254.037,199.767 246.225 C 196.973 241.919,196.127 241.177,191.819 239.258 C 190.300 238.581,185.327 238.124,183.771 238.518 M192.358 240.162 C 199.234 243.068,205.771 255.386,205.513 264.950 L 205.410 268.779 203.903 271.857 C 201.429 276.912,196.956 281.917,194.913 281.917 C 194.496 281.917,193.199 279.743,193.199 279.044 C 193.199 278.888,192.347 277.001,191.305 274.852 C 190.262 272.702,188.507 269.065,187.405 266.770 C 185.537 262.883,183.413 259.325,182.129 257.933 C 180.583 256.257,177.697 251.450,177.096 249.551 C 176.461 247.542,176.154 246.744,175.116 244.389 C 174.282 242.499,174.220 242.548,180.062 240.425 C 185.262 238.536,188.354 238.469,192.358 240.162 " stroke="none" fill="#dba0b2" fill-rule="evenodd"></path></g></svg>