<svg id="svg" version="1.1" xmlns="http://www.w3.org/2000/svg" xmlns:xlink="http://www.w3.org/1999/xlink" width="400" height="534.8946135831382" viewBox="0, 0, 400,534.8946135831382"><g id="svgg"><path id="path0" d="M197.874 3.917 C 173.655 42.122,126.316 69.791,80.008 72.811 C 55.279 74.423,27.645 67.397,6.844 54.208 C 4.581 52.774,2.654 51.600,2.561 51.600 C 2.468 51.600,2.442 130.485,2.504 226.900 L 2.617 402.200 3.491 405.878 C 11.304 438.739,44.357 461.876,94.200 469.371 C 146.342 477.212,176.041 492.404,197.285 522.100 C 198.820 524.245,200.130 526.000,200.196 526.000 C 200.262 526.000,201.544 524.268,203.045 522.152 C 223.147 493.792,252.786 477.940,299.800 470.404 C 357.999 461.074,389.094 440.221,397.093 405.158 C 397.727 402.380,398.468 51.600,397.840 51.600 C 397.747 51.600,395.819 52.774,393.556 54.208 C 372.718 67.421,345.092 74.428,320.200 72.816 C 274.950 69.885,227.778 42.678,203.660 5.600 C 202.014 3.070,200.546 0.857,200.397 0.683 C 200.248 0.508,199.113 1.964,197.874 3.917 M241.048 65.000 C 241.110 65.220,239.425 66.210,237.302 67.200 C 232.777 69.311,224.619 74.140,220.499 77.148 L 217.599 79.265 214.429 78.210 L 211.259 77.154 208.430 79.036 C 205.016 81.306,204.967 80.916,208.822 82.159 C 214.269 83.916,219.301 86.595,225.400 90.984 C 226.140 91.517,226.373 91.393,228.513 89.333 C 231.156 86.790,231.343 87.302,226.613 84.135 L 223.827 82.269 227.213 79.088 C 234.004 72.710,242.475 66.662,244.319 66.875 C 248.904 67.404,254.399 94.102,253.228 110.157 C 249.850 156.439,218.370 186.126,164.119 194.189 C 157.834 195.123,157.459 194.818,158.622 189.725 C 162.029 174.807,171.274 151.161,178.805 138.100 C 180.303 135.503,180.324 135.504,184.370 138.227 C 186.190 139.453,187.724 140.398,187.781 140.327 C 188.342 139.628,190.800 135.510,190.800 135.269 C 190.800 133.406,175.151 125.903,169.325 124.973 L 167.650 124.706 166.440 127.247 C 165.023 130.222,164.889 130.024,169.100 131.194 C 170.915 131.698,172.400 132.247,172.400 132.414 C 172.400 132.580,171.441 134.940,170.269 137.658 C 163.334 153.740,157.789 173.351,155.946 188.307 C 155.640 190.791,155.274 192.361,155.020 192.280 C 153.680 191.854,149.477 177.536,148.234 169.166 C 140.134 114.614,171.498 72.520,225.825 65.032 C 230.358 64.407,240.873 64.385,241.048 65.000 M48.002 95.509 L 51.052 104.200 60.557 104.307 C 65.785 104.366,70.003 104.565,69.931 104.750 C 69.859 104.934,66.740 107.384,63.000 110.195 C 59.260 113.005,55.875 115.611,55.477 115.986 C 54.782 116.642,54.863 117.020,57.535 125.634 C 59.065 130.565,60.180 134.652,60.013 134.715 C 59.845 134.779,56.374 132.484,52.297 129.615 C 48.221 126.747,44.753 124.400,44.591 124.400 C 44.428 124.400,41.066 126.660,37.120 129.423 C 29.619 134.674,28.509 135.340,28.877 134.369 C 28.996 134.056,30.221 130.110,31.600 125.600 C 32.979 121.090,34.187 117.190,34.284 116.932 C 34.381 116.675,30.892 113.795,26.530 110.532 L 18.600 104.600 28.340 104.400 L 38.080 104.200 41.039 95.800 C 42.667 91.180,44.093 87.149,44.209 86.843 C 44.568 85.891,44.865 86.570,48.002 95.509 M116.342 95.000 C 117.873 99.400,119.250 103.312,119.403 103.693 C 119.653 104.319,120.611 104.396,129.340 104.493 L 139.000 104.600 131.100 110.541 C 126.755 113.809,123.200 116.552,123.200 116.638 C 123.200 116.723,123.634 118.100,124.164 119.696 C 124.972 122.130,127.580 130.504,128.607 133.961 C 129.019 135.348,128.642 135.137,120.422 129.383 C 116.444 126.597,112.966 124.409,112.694 124.518 C 112.236 124.703,105.609 129.343,100.346 133.164 C 97.454 135.263,96.825 135.343,97.580 133.519 C 99.073 129.910,102.809 116.692,102.456 116.268 C 102.233 115.999,98.806 113.354,94.839 110.390 C 90.872 107.425,87.620 104.868,87.613 104.707 C 87.606 104.546,91.873 104.366,97.096 104.307 L 106.592 104.200 108.536 98.600 C 109.605 95.520,110.899 91.830,111.411 90.400 C 111.923 88.970,112.451 87.455,112.584 87.033 C 112.996 85.728,113.456 86.703,116.342 95.000 M290.732 95.464 L 293.803 104.200 303.301 104.307 C 308.526 104.366,312.791 104.546,312.781 104.707 C 312.770 104.868,309.395 107.523,305.281 110.606 C 298.608 115.606,297.808 116.329,297.874 117.295 C 297.935 118.190,299.779 124.308,302.607 133.000 C 303.305 135.145,302.833 135.182,300.100 133.198 C 295.019 129.510,287.566 124.400,287.268 124.400 C 287.094 124.400,283.644 126.740,279.600 129.600 C 272.759 134.438,271.600 135.160,271.600 134.577 C 271.600 134.454,272.521 131.439,273.647 127.877 C 276.133 120.010,277.193 116.622,277.197 116.532 C 277.199 116.495,273.645 113.795,269.300 110.532 L 261.400 104.600 271.148 104.400 L 280.896 104.200 283.798 95.743 C 286.738 87.174,287.129 86.195,287.471 86.538 C 287.576 86.643,289.044 90.660,290.732 95.464 M359.311 95.600 L 362.309 104.200 372.023 104.400 L 381.737 104.600 373.868 110.504 C 369.541 113.751,366.002 116.451,366.004 116.504 C 366.007 116.557,366.258 117.410,366.562 118.400 C 366.866 119.390,368.024 123.175,369.136 126.811 C 370.247 130.447,371.288 133.764,371.448 134.181 C 371.912 135.390,370.982 134.848,363.177 129.362 C 359.228 126.586,355.773 124.405,355.499 124.514 C 355.224 124.623,351.793 126.982,347.873 129.756 C 341.517 134.255,340.000 135.195,340.000 134.639 C 340.000 134.550,340.525 132.885,341.167 130.939 C 343.485 123.907,345.593 116.713,345.418 116.429 C 345.320 116.270,341.905 113.634,337.829 110.570 C 333.753 107.507,330.414 104.868,330.409 104.707 C 330.404 104.546,334.655 104.366,339.856 104.307 L 349.312 104.200 350.043 102.200 C 350.445 101.100,351.777 97.320,353.002 93.800 C 354.228 90.280,355.320 87.145,355.429 86.833 C 355.789 85.799,356.279 86.906,359.311 95.600 M195.400 88.847 C 194.080 89.975,192.947 91.036,192.882 91.204 C 192.817 91.372,194.617 92.092,196.882 92.804 C 201.950 94.397,207.089 96.934,211.711 100.125 L 215.223 102.550 217.411 100.389 C 218.615 99.200,219.597 98.041,219.593 97.814 C 219.573 96.519,209.865 90.833,204.000 88.680 C 197.996 86.476,198.177 86.473,195.400 88.847 M183.605 100.587 C 181.240 103.462,181.240 103.457,183.579 103.958 C 189.935 105.321,197.072 108.869,204.368 114.293 C 205.075 114.818,209.467 109.956,208.987 109.179 C 207.852 107.343,197.208 101.577,191.341 99.620 C 186.191 97.903,185.770 97.955,183.605 100.587 M174.160 113.618 C 173.139 115.169,172.370 116.477,172.452 116.527 C 172.533 116.576,174.169 117.009,176.088 117.488 C 181.783 118.909,189.089 122.456,194.062 126.214 L 195.924 127.620 197.762 124.991 C 200.041 121.731,200.082 122.057,197.114 119.958 C 191.717 116.142,186.191 113.398,180.604 111.757 C 176.158 110.452,176.267 110.421,174.160 113.618 M116.408 157.127 L 119.428 165.800 128.914 165.907 C 136.114 165.989,138.396 166.133,138.385 166.507 C 138.373 166.915,135.437 169.196,123.777 177.859 C 123.234 178.263,123.505 179.410,126.028 187.377 C 127.606 192.360,128.802 196.531,128.686 196.647 C 128.570 196.763,125.006 194.414,120.766 191.428 C 114.051 186.697,112.966 186.062,112.351 186.499 C 103.889 192.507,97.905 196.571,97.682 196.460 C 97.322 196.281,97.098 197.102,100.154 187.387 C 101.609 182.759,102.800 178.794,102.800 178.576 C 102.800 178.357,99.380 175.606,95.200 172.463 C 91.020 169.319,87.600 166.579,87.600 166.374 C 87.600 166.153,91.479 165.999,97.100 165.997 L 106.600 165.995 109.756 156.986 C 111.491 152.032,113.018 148.085,113.150 148.216 C 113.281 148.348,114.747 152.358,116.408 157.127 M291.042 158.219 L 293.707 166.000 303.253 166.000 C 308.504 166.000,312.800 166.159,312.800 166.353 C 312.800 166.547,309.380 169.282,305.200 172.431 C 301.020 175.580,297.600 178.365,297.600 178.620 C 297.600 178.874,298.855 183.014,300.388 187.820 C 301.922 192.625,303.100 196.633,303.008 196.726 C 302.865 196.868,296.008 192.212,289.156 187.322 L 287.312 186.005 279.610 191.424 C 275.374 194.404,271.812 196.745,271.693 196.626 C 271.574 196.507,272.774 192.337,274.360 187.360 C 275.946 182.383,277.189 178.267,277.122 178.215 C 277.055 178.162,273.615 175.586,269.477 172.490 C 265.339 169.394,261.919 166.712,261.877 166.531 C 261.835 166.349,266.118 166.110,271.396 166.000 L 280.992 165.800 283.597 158.200 C 285.030 154.020,286.438 149.970,286.725 149.200 L 287.248 147.800 287.813 149.119 C 288.123 149.845,289.577 153.940,291.042 158.219 M45.608 150.426 C 45.943 151.402,47.280 155.305,48.579 159.100 L 50.942 166.000 60.471 166.000 C 68.349 166.000,70.000 166.097,70.000 166.557 C 70.000 166.864,69.775 167.202,69.500 167.308 C 68.749 167.599,55.019 178.009,54.879 178.393 C 54.813 178.575,56.029 182.731,57.582 187.627 C 59.135 192.523,60.323 196.610,60.223 196.710 C 60.123 196.810,56.657 194.503,52.521 191.582 C 48.384 188.662,44.807 186.271,44.571 186.270 C 44.335 186.268,40.764 188.651,36.636 191.564 C 32.507 194.478,29.041 196.775,28.934 196.668 C 28.828 196.561,30.027 192.392,31.599 187.402 C 34.131 179.369,34.386 178.277,33.832 177.865 C 22.160 169.189,19.234 166.915,19.219 166.507 C 19.205 166.133,21.474 165.989,28.640 165.907 L 38.081 165.800 38.840 163.800 C 39.257 162.700,40.631 158.784,41.893 155.098 C 44.321 148.008,44.641 147.606,45.608 150.426 M358.750 155.904 C 360.152 160.027,361.538 163.985,361.829 164.700 L 362.359 166.000 371.780 166.000 C 379.061 166.000,381.195 166.114,381.177 166.500 C 381.165 166.775,377.746 169.520,373.581 172.600 C 369.416 175.680,366.007 178.291,366.004 178.402 C 366.002 178.514,367.269 182.630,368.820 187.549 C 370.371 192.469,371.557 196.577,371.455 196.678 C 371.354 196.779,367.893 194.478,363.764 191.564 C 359.636 188.651,356.065 186.269,355.829 186.272 C 355.593 186.274,352.012 188.661,347.870 191.575 C 343.729 194.490,340.256 196.789,340.152 196.685 C 340.048 196.581,341.231 192.494,342.781 187.603 C 344.332 182.712,345.600 178.595,345.599 178.455 C 345.599 178.315,342.192 175.680,338.030 172.600 C 333.867 169.520,330.448 166.778,330.431 166.507 C 330.407 166.133,332.679 165.989,339.900 165.907 L 349.400 165.800 352.203 157.800 C 355.545 148.265,355.492 148.399,355.887 148.404 C 356.059 148.406,357.347 151.781,358.750 155.904 M374.704 308.300 L 374.600 401.800 373.558 404.600 C 365.224 426.986,340.947 440.336,294.600 448.018 C 277.340 450.879,257.741 456.351,245.600 461.698 C 227.067 469.861,212.819 478.873,203.179 488.532 L 200.158 491.559 197.179 488.537 C 177.656 468.733,143.162 453.914,101.000 447.214 C 63.677 441.284,37.265 427.308,28.688 408.949 C 25.283 401.661,25.600 412.080,25.600 307.501 L 25.600 214.800 200.204 214.800 L 374.808 214.800 374.704 308.300 " stroke="none" fill="#053574" fill-rule="evenodd"></path><path id="path1" d="M42.000 244.204 L 42.000 255.215 47.979 258.107 C 52.156 260.128,54.024 261.241,54.175 261.800 C 54.559 263.212,54.407 383.640,54.020 384.362 C 53.817 384.741,51.161 386.010,48.035 387.222 L 42.415 389.400 42.407 399.085 L 42.400 408.769 43.900 409.172 C 44.725 409.394,51.070 411.008,58.000 412.759 C 85.645 419.744,93.030 421.621,93.700 421.833 C 94.355 422.040,94.400 421.330,94.400 410.685 L 94.400 399.316 88.784 395.002 C 85.695 392.629,82.993 390.361,82.780 389.962 C 82.104 388.699,82.289 317.312,82.967 318.023 C 83.415 318.493,89.419 335.722,95.225 353.200 C 95.846 355.070,99.078 364.610,102.407 374.400 C 105.736 384.190,110.277 397.600,112.499 404.200 C 114.721 410.800,117.466 418.890,118.600 422.177 L 120.661 428.154 122.831 428.846 C 125.681 429.756,141.738 434.590,146.100 435.851 C 146.765 436.044,146.800 431.695,146.807 348.527 L 146.814 261.000 151.807 258.091 L 156.800 255.182 156.800 244.191 L 156.800 233.200 132.400 233.200 L 108.000 233.200 108.000 244.125 L 108.000 255.050 113.300 258.033 L 118.600 261.016 118.702 303.390 C 118.758 326.700,118.651 345.592,118.463 345.382 C 117.998 344.860,116.409 340.187,111.193 324.000 C 108.746 316.410,106.316 308.940,105.791 307.400 C 105.266 305.860,102.835 298.390,100.387 290.800 C 97.940 283.210,95.419 275.470,94.784 273.600 C 93.801 270.703,89.442 257.308,83.263 238.200 L 81.711 233.400 61.856 233.296 L 42.000 233.193 42.000 244.204 M167.694 244.300 L 167.800 255.400 173.500 258.311 L 179.200 261.222 179.200 339.170 L 179.200 417.119 174.900 418.917 C 172.535 419.907,169.925 420.996,169.100 421.338 L 167.600 421.959 167.600 431.337 C 167.600 439.898,167.661 440.738,168.300 440.986 C 168.685 441.136,172.870 442.694,177.600 444.448 C 182.330 446.202,187.550 448.163,189.200 448.804 C 190.850 449.445,197.600 451.961,204.200 454.394 C 210.800 456.826,216.797 459.086,217.527 459.415 C 219.588 460.343,219.600 460.283,219.600 449.150 C 219.600 437.121,220.044 438.630,214.613 432.200 C 212.383 429.560,210.162 426.860,209.678 426.199 L 208.796 424.999 208.898 382.199 L 209.000 339.400 217.831 339.293 L 226.663 339.185 229.431 343.073 C 230.954 345.211,232.363 347.285,232.561 347.680 C 232.888 348.332,233.581 348.400,239.861 348.400 L 246.800 348.400 246.800 325.200 L 246.800 302.000 240.030 302.000 L 233.259 302.000 229.892 306.900 L 226.525 311.800 217.762 311.800 L 209.000 311.800 209.000 285.800 L 209.000 259.800 220.600 259.702 L 232.200 259.605 235.187 268.809 L 238.174 278.014 247.987 277.907 L 257.800 277.800 257.903 255.500 L 258.007 233.200 212.797 233.200 L 167.587 233.200 167.694 244.300 M268.494 244.264 L 268.600 255.327 274.000 258.186 L 279.400 261.044 279.501 330.580 C 279.579 384.050,279.492 400.248,279.124 400.691 C 278.861 401.008,275.981 403.443,272.723 406.102 L 266.800 410.937 266.800 422.112 C 266.800 432.024,266.870 433.259,267.418 433.048 C 268.023 432.816,277.253 430.325,295.200 425.548 C 306.932 422.426,325.279 417.514,331.600 415.803 C 336.114 414.581,350.262 410.827,356.100 409.302 L 358.400 408.702 358.400 380.151 L 358.400 351.600 347.818 351.600 L 337.236 351.600 337.025 352.900 C 336.909 353.615,336.000 360.950,335.004 369.200 C 334.009 377.450,333.110 384.574,333.007 385.031 C 332.847 385.738,331.762 386.145,325.710 387.768 C 321.799 388.816,317.078 390.107,315.217 390.637 C 313.357 391.167,311.512 391.600,311.117 391.600 C 310.430 391.600,310.400 388.825,310.403 326.300 L 310.405 261.000 313.303 259.442 C 314.896 258.585,317.235 257.254,318.500 256.485 L 320.800 255.086 320.800 244.143 L 320.800 233.200 294.594 233.200 L 268.387 233.200 268.494 244.264 " stroke="none" fill="#da1d25" fill-rule="evenodd"></path><path id="path2" d="M0.000 267.400 L 0.000 534.800 200.000 534.800 L 400.000 534.800 400.000 267.400 L 400.000 0.000 300.400 0.000 C 245.620 0.000,200.800 0.088,200.800 0.195 C 200.800 0.738,204.557 6.544,207.353 10.320 C 216.158 22.212,226.053 32.061,239.400 42.214 C 247.519 48.390,264.197 57.745,273.000 61.060 C 274.540 61.640,275.980 62.239,276.200 62.390 C 276.851 62.838,285.822 65.845,291.000 67.351 C 325.784 77.468,363.797 72.512,393.107 54.040 C 395.585 52.478,397.792 51.200,398.010 51.200 C 398.271 51.200,398.371 110.875,398.303 226.500 L 398.200 401.800 397.055 406.584 C 388.844 440.886,354.757 463.146,298.400 471.011 C 255.510 476.997,222.315 495.051,203.000 522.899 C 200.058 527.139,200.315 527.139,197.400 522.905 C 178.362 495.255,143.992 476.591,101.770 470.975 C 45.869 463.539,10.071 439.709,2.931 405.179 C 2.109 401.202,1.577 51.200,2.393 51.200 C 2.613 51.200,4.460 52.285,6.497 53.611 C 63.022 90.410,145.967 71.507,192.323 11.260 C 194.859 7.964,199.600 0.761,199.600 0.204 C 199.600 0.092,154.690 0.000,99.800 0.000 L 0.000 0.000 0.000 267.400 M226.200 65.272 C 188.203 69.122,156.557 96.655,149.423 132.073 C 145.613 150.989,147.595 175.440,154.113 189.931 L 154.954 191.800 155.280 190.000 C 155.459 189.010,155.962 185.892,156.398 183.072 C 158.576 168.983,163.818 151.472,170.363 136.425 C 172.322 131.921,172.667 132.412,166.400 130.785 C 164.445 130.277,164.439 130.123,166.244 126.894 L 167.688 124.312 169.233 124.559 C 175.459 125.555,190.136 132.603,191.074 135.049 C 191.348 135.762,188.028 140.897,187.440 140.669 C 187.198 140.575,185.663 139.576,184.029 138.449 C 182.395 137.322,180.865 136.401,180.629 136.403 C 179.909 136.409,172.964 149.873,170.005 157.000 C 169.092 159.200,167.923 161.990,167.407 163.200 C 164.672 169.617,158.400 190.385,158.400 193.022 C 158.400 197.001,188.455 189.614,205.043 181.557 C 241.891 163.661,259.929 125.069,250.775 83.714 C 247.957 70.983,245.554 66.311,242.559 67.739 C 237.941 69.941,223.805 81.881,224.986 82.583 C 227.093 83.834,231.200 86.870,231.200 87.177 C 231.200 87.372,230.025 88.564,228.589 89.825 L 225.977 92.118 225.089 91.316 C 221.530 88.106,210.862 82.619,206.500 81.757 C 204.769 81.415,204.855 81.081,207.079 79.519 C 211.128 76.676,211.700 76.604,216.180 78.375 C 217.295 78.815,217.584 78.687,221.380 76.071 C 227.409 71.917,234.913 67.637,239.300 65.851 C 240.125 65.516,240.800 65.142,240.800 65.020 C 240.800 64.681,230.242 64.863,226.200 65.272 M202.610 87.776 C 209.360 90.035,220.000 96.135,220.000 97.747 C 220.000 98.721,215.226 103.015,214.611 102.594 C 214.294 102.377,212.707 101.273,211.084 100.139 C 206.502 96.940,199.056 93.469,194.499 92.409 C 191.591 91.732,191.608 91.569,194.867 88.826 C 198.264 85.966,197.508 86.068,202.610 87.776 M285.394 92.236 C 284.326 95.296,282.894 99.330,282.212 101.200 L 280.971 104.600 271.786 104.800 L 262.600 105.000 269.887 110.517 C 278.334 116.912,277.735 116.263,277.011 118.245 C 276.698 119.100,275.522 122.860,274.398 126.600 C 273.274 130.340,272.275 133.639,272.178 133.930 C 272.022 134.399,276.678 131.353,281.492 127.836 C 287.829 123.207,287.000 123.388,290.420 125.879 C 296.623 130.395,302.400 134.359,302.400 134.100 C 302.400 133.710,298.931 122.302,297.978 119.559 C 297.550 118.326,297.200 117.061,297.200 116.746 C 297.200 116.432,300.541 113.661,304.624 110.587 L 312.049 105.000 302.885 104.893 L 293.721 104.786 292.640 102.030 C 292.045 100.514,290.608 96.439,289.447 92.973 L 287.335 86.672 285.394 92.236 M44.211 87.883 C 44.052 88.277,42.773 91.891,41.368 95.914 C 39.963 99.936,38.626 103.578,38.397 104.006 C 38.005 104.738,37.429 104.792,28.890 104.893 L 19.800 105.000 27.000 110.366 C 30.960 113.317,34.363 115.874,34.562 116.048 C 34.772 116.231,34.296 118.348,33.430 121.082 C 32.179 125.034,29.991 131.957,29.373 133.921 C 29.164 134.585,28.870 134.774,37.200 128.901 C 41.050 126.187,44.470 124.036,44.800 124.122 C 45.130 124.208,48.460 126.427,52.200 129.055 C 55.940 131.682,59.214 133.963,59.475 134.124 C 59.756 134.297,59.565 133.225,59.008 131.508 C 56.667 124.285,54.877 118.502,54.642 117.400 C 54.393 116.231,54.581 116.055,61.871 110.600 L 69.355 105.000 60.320 104.893 C 50.153 104.772,50.839 104.998,49.636 101.373 C 48.070 96.656,44.826 87.492,44.664 87.331 C 44.573 87.240,44.369 87.488,44.211 87.883 M110.623 93.825 C 109.337 97.551,107.939 101.542,107.517 102.693 L 106.748 104.785 97.524 104.893 L 88.299 105.000 95.749 110.600 C 103.945 116.760,103.638 116.302,102.246 120.276 C 100.769 124.493,98.000 133.465,98.000 134.031 C 98.000 134.358,98.322 134.256,98.900 133.747 C 99.395 133.311,101.240 131.982,103.000 130.792 C 104.760 129.603,107.627 127.588,109.371 126.315 C 113.315 123.435,112.630 123.345,118.474 127.521 C 127.593 134.039,128.524 134.617,128.175 133.542 C 123.854 120.228,122.839 116.635,123.256 116.132 C 123.505 115.832,126.880 113.205,130.755 110.293 L 137.800 105.000 128.743 104.893 C 118.690 104.773,119.252 104.940,118.279 101.800 C 117.503 99.298,114.298 90.267,113.533 88.425 L 112.962 87.050 110.623 93.825 M355.098 88.878 C 352.045 97.757,349.820 103.885,349.500 104.293 C 349.220 104.651,346.647 104.814,340.064 104.893 L 331.013 105.000 338.407 110.525 C 342.473 113.564,345.850 116.189,345.911 116.359 C 345.973 116.529,345.291 118.993,344.397 121.834 C 341.611 130.686,340.749 133.682,340.934 133.868 C 341.095 134.028,344.472 131.740,352.701 125.900 C 356.100 123.487,355.144 123.213,363.229 128.917 C 367.063 131.621,370.418 133.967,370.684 134.130 C 371.222 134.460,371.314 134.825,369.074 127.800 C 366.007 118.180,365.501 116.340,365.845 116.043 C 366.040 115.874,369.437 113.320,373.393 110.368 L 380.586 105.000 371.536 104.893 C 361.010 104.768,362.207 105.382,360.040 99.000 C 358.073 93.210,356.009 87.475,355.824 87.291 C 355.750 87.217,355.424 87.931,355.098 88.878 M189.907 98.829 C 196.181 100.509,206.787 106.093,209.177 108.972 C 209.763 109.678,205.476 115.418,204.714 114.947 C 204.473 114.798,202.909 113.694,201.238 112.494 C 196.231 108.897,188.920 105.627,181.700 103.755 C 180.857 103.536,181.121 102.964,183.235 100.435 C 185.535 97.682,185.584 97.670,189.907 98.829 M182.665 111.992 C 186.974 113.475,192.376 116.228,196.352 118.967 C 200.352 121.723,200.418 121.866,198.760 124.177 C 198.012 125.219,197.130 126.506,196.800 127.036 C 196.100 128.159,195.508 128.253,194.765 127.358 C 192.381 124.485,181.051 118.884,174.999 117.587 C 171.472 116.832,171.486 117.203,174.781 111.855 C 175.929 109.991,176.901 110.008,182.665 111.992 M44.432 148.811 C 44.390 149.087,38.967 164.790,38.601 165.693 C 38.347 166.318,37.400 166.396,28.909 166.493 L 19.498 166.600 27.149 172.331 C 31.357 175.483,34.800 178.155,34.800 178.269 C 34.800 178.502,32.097 187.194,30.406 192.400 C 29.798 194.270,29.358 195.864,29.427 195.943 C 29.496 196.022,32.489 194.036,36.077 191.530 C 45.499 184.949,44.284 185.485,46.460 186.953 C 48.352 188.229,51.640 190.509,56.596 193.983 C 58.133 195.060,59.447 195.887,59.514 195.819 C 59.631 195.702,58.949 193.369,55.822 183.200 C 55.045 180.670,54.406 178.470,54.404 178.310 C 54.402 178.151,57.685 175.566,61.700 172.565 C 65.715 169.564,69.059 166.953,69.131 166.762 C 69.203 166.571,65.084 166.367,59.978 166.307 L 50.693 166.200 47.752 157.800 C 44.630 148.884,44.481 148.481,44.432 148.811 M285.802 153.049 C 284.965 155.442,283.695 159.020,282.980 161.000 C 282.265 162.980,281.561 165.002,281.415 165.493 C 281.152 166.380,281.089 166.386,271.713 166.493 L 262.274 166.600 269.421 172.000 C 273.352 174.970,276.822 177.593,277.132 177.829 C 277.610 178.194,277.571 178.614,276.869 180.629 C 275.345 185.004,272.337 195.213,272.469 195.561 C 272.541 195.750,275.903 193.586,279.941 190.751 L 287.282 185.597 291.141 188.283 C 293.263 189.761,296.606 192.100,298.570 193.482 C 300.533 194.863,302.204 195.929,302.284 195.849 C 302.363 195.770,301.244 191.872,299.796 187.188 C 298.348 182.504,297.244 178.461,297.343 178.205 C 297.441 177.949,300.769 175.323,304.739 172.370 C 308.708 169.416,311.966 166.868,311.978 166.707 C 311.990 166.546,307.828 166.366,302.728 166.307 L 293.456 166.200 290.390 157.449 L 287.324 148.698 285.802 153.049 M355.106 150.707 C 354.753 151.748,353.398 155.660,352.096 159.400 L 349.727 166.200 340.433 166.307 C 335.321 166.367,331.197 166.566,331.269 166.750 C 331.341 166.934,334.685 169.547,338.700 172.556 C 342.715 175.565,345.996 178.155,345.991 178.313 C 345.985 178.471,345.249 180.940,344.355 183.800 C 341.908 191.622,340.800 195.324,340.800 195.674 C 340.800 196.094,342.022 195.305,348.406 190.763 C 351.373 188.652,354.269 186.623,354.843 186.254 L 355.887 185.582 363.243 190.781 C 371.408 196.550,371.362 196.546,369.653 191.370 C 368.221 187.035,365.600 178.568,365.600 178.278 C 365.600 178.163,369.041 175.488,373.247 172.334 L 380.894 166.600 371.483 166.493 L 362.073 166.386 361.606 165.093 C 361.350 164.382,359.979 160.481,358.560 156.424 C 357.141 152.367,355.928 148.995,355.864 148.931 C 355.800 148.867,355.459 149.666,355.106 150.707 M112.247 150.866 C 111.892 151.820,110.566 155.660,109.300 159.400 L 106.998 166.200 97.699 166.307 C 92.585 166.366,88.407 166.546,88.416 166.707 C 88.424 166.868,91.683 169.419,95.657 172.376 C 99.632 175.332,102.964 177.963,103.064 178.222 C 103.163 178.481,102.224 181.912,100.977 185.847 C 97.371 197.219,97.449 196.601,99.836 194.874 C 101.844 193.422,104.448 191.595,109.249 188.273 L 113.099 185.608 120.530 190.804 C 124.617 193.662,128.035 196.000,128.126 196.000 C 128.216 196.000,127.573 193.705,126.697 190.900 C 123.163 179.581,122.872 178.451,123.347 177.866 C 123.596 177.559,126.860 175.016,130.600 172.214 C 134.340 169.413,137.459 166.962,137.531 166.768 C 137.603 166.572,133.513 166.367,128.364 166.307 L 119.066 166.200 118.701 165.000 C 117.709 161.734,113.466 149.758,113.198 149.466 C 113.030 149.282,112.602 149.912,112.247 150.866 M26.000 307.174 C 26.000 409.562,25.793 402.017,28.781 408.282 C 38.128 427.879,64.482 441.470,104.600 447.381 C 128.964 450.971,157.112 460.587,175.200 471.500 C 184.597 477.169,196.281 486.108,198.867 489.605 C 199.962 491.086,200.208 491.089,201.427 489.641 C 216.530 471.692,256.878 453.630,295.800 447.394 C 336.691 440.842,361.136 428.538,370.997 409.546 C 374.711 402.392,374.394 411.929,374.397 307.300 L 374.400 215.200 200.200 215.200 L 26.000 215.200 26.000 307.174 M157.506 244.087 L 157.613 255.173 156.706 255.730 C 156.208 256.036,153.865 257.424,151.500 258.813 L 147.200 261.339 147.200 348.646 C 147.200 396.665,147.059 436.040,146.886 436.147 C 146.537 436.363,144.585 435.838,134.400 432.788 C 130.550 431.635,125.871 430.251,124.003 429.712 C 120.033 428.567,120.367 428.947,118.625 423.600 C 117.872 421.290,114.627 411.660,111.414 402.200 C 108.201 392.740,104.594 382.120,103.400 378.600 C 102.206 375.080,99.059 365.810,96.407 358.000 C 93.755 350.190,89.857 338.670,87.744 332.400 C 85.631 326.130,83.749 320.730,83.563 320.400 C 83.376 320.069,83.219 335.563,83.212 355.000 L 83.200 390.200 84.500 391.222 C 85.215 391.784,87.780 393.749,90.200 395.588 C 92.620 397.428,94.665 398.983,94.745 399.044 C 94.976 399.223,94.933 422.000,94.701 422.233 C 94.509 422.425,82.206 419.454,75.400 417.573 C 73.860 417.147,70.800 416.368,68.600 415.843 C 56.940 413.056,42.179 409.092,41.915 408.676 C 41.481 407.994,41.528 390.483,41.965 389.666 C 42.167 389.287,44.835 388.009,47.963 386.792 L 53.596 384.600 53.598 322.986 L 53.600 261.372 47.600 258.387 L 41.600 255.401 41.600 244.101 L 41.600 232.800 61.756 232.800 L 81.912 232.800 85.588 244.100 C 87.610 250.315,89.955 257.470,90.799 260.000 C 91.642 262.530,94.250 270.540,96.593 277.800 C 98.937 285.060,101.460 292.800,102.201 295.000 C 103.600 299.156,105.662 305.500,113.188 328.800 C 115.639 336.390,117.803 342.960,117.995 343.400 C 118.199 343.865,118.357 326.834,118.373 302.706 L 118.400 261.212 116.100 259.999 C 114.835 259.331,112.450 258.018,110.800 257.080 L 107.800 255.374 107.694 244.215 C 107.632 237.729,107.741 232.960,107.955 232.828 C 108.157 232.702,119.365 232.690,132.861 232.800 L 157.400 233.000 157.506 244.087 M258.080 233.120 C 258.260 233.300,258.360 243.516,258.303 255.823 L 258.200 278.200 248.005 278.200 L 237.810 278.200 237.120 276.200 C 236.741 275.100,235.421 271.005,234.186 267.100 L 231.943 260.000 220.771 260.000 L 209.600 260.000 209.600 285.800 L 209.600 311.600 217.764 311.600 L 225.929 311.600 226.864 310.446 C 227.379 309.812,228.970 307.560,230.400 305.441 L 233.000 301.591 240.000 301.695 L 247.000 301.800 247.103 325.300 L 247.206 348.800 240.067 348.800 L 232.927 348.800 230.327 345.100 C 228.897 343.065,227.512 340.995,227.249 340.500 C 226.777 339.609,226.682 339.600,218.186 339.600 L 209.600 339.600 209.600 382.615 L 209.600 425.631 214.800 431.815 L 220.000 437.999 220.000 449.012 C 220.000 461.493,220.170 460.938,216.763 459.569 C 214.117 458.507,207.319 455.954,203.000 454.399 C 201.240 453.766,198.090 452.597,196.000 451.801 C 193.910 451.005,191.030 449.933,189.600 449.418 C 188.170 448.904,183.850 447.289,180.000 445.831 C 176.150 444.372,171.692 442.691,170.093 442.094 L 167.186 441.010 167.293 431.277 L 167.400 421.545 173.000 419.256 L 178.600 416.967 178.600 339.184 L 178.600 261.400 172.900 258.489 L 167.200 255.578 167.200 244.213 L 167.200 232.848 168.700 232.724 C 172.125 232.441,257.780 232.820,258.080 233.120 M320.706 244.284 L 320.600 255.768 315.700 258.536 L 310.800 261.304 310.800 326.252 C 310.800 368.795,310.936 391.200,311.196 391.200 C 311.704 391.200,322.718 388.247,330.109 386.130 C 332.601 385.415,332.543 385.502,332.989 381.800 C 333.122 380.700,333.484 377.820,333.794 375.400 C 334.104 372.980,334.740 367.850,335.209 364.000 C 335.677 360.150,336.272 355.740,336.530 354.200 L 337.000 351.400 347.900 351.294 L 358.800 351.187 358.800 379.970 C 358.800 398.063,358.656 408.842,358.413 408.992 C 358.201 409.123,355.726 409.838,352.913 410.580 C 343.532 413.056,326.655 417.549,322.000 418.810 C 319.470 419.496,315.150 420.657,312.400 421.391 C 309.650 422.125,304.250 423.566,300.400 424.595 C 296.550 425.623,292.140 426.791,290.600 427.189 C 287.451 428.004,270.092 432.614,268.122 433.158 C 266.321 433.656,266.400 434.169,266.400 421.942 L 266.400 410.818 270.100 407.758 C 272.135 406.075,275.015 403.695,276.500 402.469 L 279.200 400.239 279.200 330.804 L 279.200 261.369 273.900 258.618 C 270.985 257.106,268.468 255.673,268.306 255.434 C 267.939 254.892,267.901 233.432,268.267 233.067 C 268.413 232.920,280.296 232.800,294.673 232.800 L 320.812 232.800 320.706 244.284 " stroke="none" fill="#fbfbfb" fill-rule="evenodd"></path><path id="path3" d="M197.815 3.300 C 184.035 26.303,154.097 50.737,126.674 61.361 C 124.515 62.198,122.832 62.965,122.934 63.067 C 123.250 63.383,131.720 59.757,137.908 56.658 C 162.060 44.560,182.973 26.424,196.708 5.666 C 198.409 3.095,199.927 0.904,200.081 0.796 C 200.236 0.688,201.776 2.760,203.504 5.400 C 211.886 18.204,228.444 35.335,239.600 42.744 L 241.000 43.673 239.957 42.737 C 239.383 42.222,237.406 40.630,235.563 39.200 C 222.723 29.239,209.039 14.307,202.349 2.958 C 200.187 -0.710,200.218 -0.712,197.815 3.300 M241.200 43.797 C 241.200 44.027,248.556 48.947,251.800 50.886 C 257.684 54.404,270.443 60.826,271.471 60.788 C 271.652 60.781,268.920 59.375,265.400 57.663 C 258.358 54.238,251.124 50.185,246.439 47.041 C 242.275 44.246,241.200 43.581,241.200 43.797 M2.035 224.900 C 2.054 320.435,2.189 399.500,2.335 400.600 C 2.481 401.700,2.553 323.625,2.496 227.100 C 2.439 130.575,2.496 51.600,2.624 51.600 C 2.751 51.600,3.608 52.109,4.528 52.732 C 6.740 54.230,7.200 54.488,7.200 54.236 C 7.200 53.937,2.866 51.200,2.392 51.200 C 2.136 51.200,2.012 111.636,2.035 224.900 M393.400 53.840 C 391.200 55.266,386.520 57.860,383.000 59.605 C 379.480 61.351,376.794 62.783,377.032 62.789 C 377.907 62.811,389.526 56.787,393.535 54.234 C 395.810 52.785,397.747 51.600,397.840 51.600 C 398.131 51.600,397.774 402.135,397.481 403.400 L 397.203 404.600 397.698 403.400 C 398.432 401.618,398.637 51.189,397.904 51.224 C 397.627 51.237,395.600 52.414,393.400 53.840 M8.400 55.177 C 9.596 56.149,22.666 62.807,23.334 62.784 C 23.590 62.775,21.280 61.531,18.200 60.018 C 15.120 58.506,11.430 56.615,10.000 55.816 C 8.570 55.018,7.850 54.730,8.400 55.177 M273.952 61.819 C 275.135 62.375,276.190 62.744,276.295 62.638 C 276.504 62.429,274.304 61.440,272.765 61.052 C 272.234 60.918,272.768 61.263,273.952 61.819 M24.855 63.389 C 25.205 63.738,30.500 65.633,30.666 65.468 C 30.756 65.377,29.553 64.830,27.992 64.252 C 25.191 63.214,24.486 63.020,24.855 63.389 M118.875 64.273 C 117.266 64.829,116.030 65.363,116.128 65.461 C 116.310 65.643,121.969 63.765,122.332 63.402 C 122.700 63.033,121.830 63.253,118.875 64.273 M278.000 63.316 C 278.308 63.649,283.636 65.604,284.148 65.572 C 284.396 65.557,283.520 65.130,282.200 64.623 C 279.322 63.518,277.727 63.022,278.000 63.316 M372.284 64.273 C 370.791 64.839,369.643 65.376,369.734 65.467 C 369.899 65.633,375.194 63.739,375.545 63.389 C 375.934 63.000,374.918 63.275,372.284 64.273 M228.000 64.771 C 227.010 64.914,229.512 64.953,233.560 64.857 C 239.034 64.727,240.848 64.799,240.637 65.141 C 240.480 65.393,240.558 65.600,240.810 65.600 C 241.061 65.600,241.192 65.375,241.101 65.100 C 240.915 64.543,231.248 64.300,228.000 64.771 M32.400 66.138 C 32.400 66.398,39.224 68.509,39.423 68.310 C 39.510 68.223,38.371 67.773,36.891 67.310 C 32.863 66.050,32.400 65.929,32.400 66.138 M109.293 67.301 C 107.034 67.971,105.261 68.594,105.353 68.687 C 105.528 68.862,114.047 66.486,114.357 66.176 C 114.735 65.798,113.234 66.131,109.293 67.301 M216.200 66.628 C 213.143 67.325,211.228 67.927,212.000 67.947 C 212.330 67.956,214.310 67.539,216.400 67.020 C 220.429 66.020,220.266 65.700,216.200 66.628 M235.800 67.446 C 231.084 69.854,226.812 72.401,221.998 75.677 L 217.396 78.808 215.054 77.985 C 213.767 77.533,212.538 77.221,212.324 77.292 C 212.110 77.363,213.214 77.833,214.776 78.337 L 217.617 79.252 220.337 77.273 C 224.394 74.322,229.228 71.362,234.600 68.538 C 237.240 67.150,239.220 66.015,239.000 66.015 C 238.780 66.016,237.340 66.660,235.800 67.446 M289.200 67.211 C 291.070 67.831,292.960 68.341,293.400 68.344 C 293.840 68.347,292.490 67.823,290.400 67.180 C 285.575 65.695,284.696 65.718,289.200 67.211 M364.600 66.980 C 363.060 67.497,362.006 67.938,362.258 67.960 C 362.859 68.012,368.000 66.422,368.000 66.184 C 368.000 65.885,367.546 65.991,364.600 66.980 M240.198 68.699 C 235.944 71.585,230.976 75.562,227.213 79.091 L 223.827 82.269 226.613 84.135 C 231.357 87.310,231.166 86.810,228.566 89.259 C 225.975 91.698,226.213 91.680,223.469 89.644 C 219.438 86.652,209.185 81.482,208.548 82.119 C 208.454 82.213,209.867 82.881,211.689 83.605 C 216.378 85.467,222.531 89.008,225.089 91.316 L 225.977 92.118 228.589 89.825 C 230.025 88.564,231.200 87.372,231.200 87.177 C 231.200 86.870,227.093 83.834,224.986 82.583 C 224.126 82.072,229.456 77.122,236.638 71.760 C 243.732 66.463,244.487 66.282,246.293 69.438 C 246.785 70.297,247.187 70.820,247.187 70.600 C 247.187 66.984,244.003 66.117,240.198 68.699 M207.062 69.047 C 205.336 69.603,204.002 70.135,204.097 70.231 C 204.192 70.326,205.875 69.879,207.835 69.237 C 209.796 68.596,211.130 68.064,210.800 68.054 C 210.470 68.045,208.788 68.492,207.062 69.047 M359.800 68.400 C 359.296 68.617,359.222 68.744,359.600 68.744 C 359.930 68.744,360.560 68.589,361.000 68.400 C 361.504 68.183,361.578 68.056,361.200 68.056 C 360.870 68.056,360.240 68.211,359.800 68.400 M99.200 69.831 C 93.937 70.996,93.280 71.206,95.800 70.916 C 98.066 70.655,105.429 68.883,104.200 68.894 C 103.760 68.898,101.510 69.320,99.200 69.831 M297.400 69.398 C 299.966 70.158,306.019 71.315,306.245 71.089 C 306.340 70.994,304.389 70.504,301.909 70.000 C 296.103 68.822,294.917 68.663,297.400 69.398 M43.261 69.394 C 43.526 69.659,51.126 71.209,51.944 71.165 C 52.305 71.145,50.710 70.707,48.400 70.191 C 44.121 69.235,42.915 69.048,43.261 69.394 M352.095 70.114 C 350.057 70.559,348.468 71.001,348.562 71.096 C 348.761 71.294,356.840 69.694,357.136 69.397 C 357.477 69.057,355.928 69.277,352.095 70.114 M196.616 73.207 C 194.205 74.307,192.046 75.394,191.817 75.623 C 191.589 75.851,193.202 75.214,195.401 74.207 C 201.548 71.391,201.828 71.253,201.400 71.229 C 201.180 71.216,199.027 72.107,196.616 73.207 M247.299 71.700 C 247.400 71.975,247.798 73.157,248.182 74.326 C 248.567 75.495,248.952 76.381,249.038 76.295 C 249.241 76.093,247.592 71.200,247.320 71.200 C 247.207 71.200,247.197 71.425,247.299 71.700 M57.200 71.979 C 63.874 73.260,81.764 73.271,88.600 72.000 L 90.600 71.628 88.343 71.812 C 76.190 72.806,69.504 72.811,57.800 71.834 C 55.618 71.652,55.564 71.665,57.200 71.979 M311.600 71.984 C 318.119 73.253,336.717 73.254,343.200 71.986 C 344.957 71.642,344.946 71.638,342.743 71.815 C 330.406 72.807,323.909 72.811,312.200 71.834 C 309.999 71.651,309.949 71.663,311.600 71.984 M187.375 78.059 C 176.756 84.410,163.677 97.352,159.239 105.900 C 158.272 107.763,159.229 106.695,161.032 103.900 C 167.108 94.480,176.455 85.378,186.576 79.026 C 188.543 77.791,190.238 76.695,190.343 76.591 C 190.858 76.076,189.896 76.552,187.375 78.059 M207.968 78.930 C 205.318 80.748,204.643 81.604,205.867 81.594 C 206.410 81.589,206.464 81.502,206.077 81.256 C 205.707 81.021,206.321 80.424,208.177 79.215 C 210.534 77.679,211.121 77.200,210.645 77.200 C 210.559 77.200,209.355 77.978,207.968 78.930 M250.019 80.033 C 250.055 81.085,251.933 88.608,251.958 87.800 C 251.987 86.858,250.500 79.967,250.204 79.670 C 250.092 79.558,250.009 79.722,250.019 80.033 M44.015 87.361 C 43.445 88.859,43.518 89.198,44.161 88.039 C 44.676 87.109,44.724 87.167,45.588 89.764 C 46.080 91.242,46.552 92.381,46.638 92.295 C 46.844 92.090,45.192 87.106,44.762 86.635 C 44.573 86.427,44.251 86.739,44.015 87.361 M112.673 86.660 C 112.523 86.810,112.403 87.218,112.406 87.567 C 112.411 88.061,112.486 88.084,112.747 87.672 C 112.976 87.311,113.370 87.915,113.994 89.585 C 115.153 92.682,115.472 92.514,114.392 89.377 C 113.531 86.875,113.115 86.218,112.673 86.660 M194.841 88.847 C 193.242 90.193,192.084 91.436,192.267 91.610 C 192.684 92.006,195.698 92.836,195.918 92.615 C 196.007 92.526,195.331 92.251,194.415 92.004 C 192.388 91.458,192.404 91.408,195.400 88.847 C 197.466 87.081,197.967 86.829,199.000 87.040 C 201.284 87.507,207.812 90.082,210.745 91.673 C 212.365 92.552,213.567 93.070,213.415 92.825 C 212.722 91.704,200.099 86.400,198.124 86.400 C 197.917 86.400,196.440 87.501,194.841 88.847 M287.046 86.726 C 286.555 87.521,285.140 91.673,285.304 91.837 C 285.404 91.938,285.937 90.755,286.488 89.210 C 287.403 86.642,287.578 85.866,287.046 86.726 M355.417 86.833 C 354.435 89.501,353.626 92.160,353.758 92.291 C 353.846 92.379,354.311 91.270,354.791 89.826 C 355.865 86.600,355.723 86.569,356.973 90.300 C 357.921 93.128,358.779 95.021,358.794 94.321 C 358.829 92.712,355.759 85.905,355.417 86.833 M288.000 88.496 C 288.000 88.716,291.415 98.805,292.409 101.520 C 292.675 102.247,292.962 102.771,293.048 102.685 C 293.134 102.600,292.113 99.401,290.780 95.577 C 288.596 89.310,288.000 87.791,288.000 88.496 M252.093 90.000 C 252.093 90.770,252.175 91.085,252.276 90.700 C 252.376 90.315,252.376 89.685,252.276 89.300 C 252.175 88.915,252.093 89.230,252.093 90.000 M111.597 89.633 C 111.596 89.725,111.142 91.132,110.590 92.759 C 110.038 94.387,109.659 95.793,109.749 95.882 C 109.839 95.972,110.380 94.654,110.952 92.952 C 111.524 91.251,111.904 89.771,111.796 89.663 C 111.688 89.555,111.599 89.542,111.597 89.633 M42.047 92.847 C 41.584 94.218,41.274 95.408,41.358 95.492 C 41.443 95.576,41.890 94.523,42.353 93.153 C 42.816 91.782,43.126 90.592,43.042 90.508 C 42.957 90.424,42.510 91.477,42.047 92.847 M252.596 102.530 C 252.598 108.508,252.480 114.840,252.333 116.600 C 252.161 118.662,252.186 119.231,252.402 118.200 C 253.489 113.011,253.698 92.765,252.675 91.742 C 252.630 91.696,252.594 96.551,252.596 102.530 M115.226 92.679 C 115.190 93.343,117.652 100.081,117.857 99.876 C 117.948 99.785,117.400 98.021,116.638 95.955 C 115.876 93.890,115.241 92.416,115.226 92.679 M198.800 93.673 C 199.350 93.935,201.510 94.932,203.600 95.889 C 206.793 97.350,208.893 98.628,214.618 102.594 C 215.221 103.011,220.000 98.719,220.000 97.761 C 220.000 97.296,216.600 94.557,214.900 93.651 C 213.311 92.805,213.930 93.381,216.795 95.415 C 220.157 97.802,220.143 97.691,217.411 100.389 L 215.223 102.550 211.647 100.076 C 208.205 97.695,200.872 93.898,198.800 93.424 L 197.800 93.196 198.800 93.673 M283.448 96.648 C 282.876 98.349,282.476 99.809,282.560 99.893 C 282.644 99.977,283.180 98.654,283.752 96.952 C 284.324 95.251,284.724 93.791,284.640 93.707 C 284.556 93.623,284.020 94.946,283.448 96.648 M47.200 94.385 C 47.200 95.004,48.863 99.271,49.036 99.097 C 49.123 99.010,48.819 97.828,48.361 96.469 C 47.581 94.161,47.200 93.477,47.200 94.385 M351.829 97.029 C 351.233 98.706,350.828 100.161,350.929 100.262 C 351.030 100.363,351.580 99.054,352.152 97.352 C 352.724 95.651,353.129 94.196,353.052 94.119 C 352.975 94.041,352.424 95.351,351.829 97.029 M359.225 96.279 C 359.191 96.920,361.613 103.668,362.101 104.293 C 362.381 104.651,364.952 104.814,371.536 104.893 L 380.586 105.000 373.393 110.368 C 369.437 113.320,366.047 115.867,365.860 116.028 C 365.673 116.189,365.819 117.347,366.184 118.603 C 366.549 119.859,366.927 120.806,367.024 120.709 C 367.122 120.612,366.933 119.647,366.605 118.566 C 366.277 117.485,366.007 116.557,366.004 116.504 C 366.002 116.451,369.541 113.751,373.868 110.504 L 381.737 104.600 372.004 104.400 L 362.272 104.200 361.179 101.000 C 359.816 97.012,359.258 95.662,359.225 96.279 M107.950 100.283 L 106.600 104.200 97.100 104.307 C 91.875 104.366,87.606 104.546,87.613 104.707 C 87.620 104.868,90.872 107.425,94.839 110.390 C 103.709 117.018,103.029 116.162,102.019 119.432 C 101.562 120.911,101.261 122.194,101.350 122.283 C 101.558 122.491,103.200 117.644,103.200 116.822 C 103.200 116.480,99.847 113.680,95.749 110.600 L 88.299 105.000 97.510 104.893 C 105.809 104.796,106.748 104.717,107.003 104.093 C 107.812 102.109,109.576 96.643,109.448 96.514 C 109.366 96.433,108.692 98.129,107.950 100.283 M39.448 100.248 C 38.876 101.949,38.476 103.409,38.560 103.493 C 38.644 103.577,39.180 102.254,39.752 100.552 C 40.324 98.851,40.724 97.391,40.640 97.307 C 40.556 97.223,40.020 98.546,39.448 100.248 M183.219 100.454 C 181.115 102.972,180.893 103.742,182.233 103.877 C 182.871 103.941,182.882 103.919,182.300 103.748 C 180.860 103.323,184.449 98.769,186.551 98.353 L 187.800 98.105 186.535 98.053 C 185.448 98.007,184.980 98.346,183.219 100.454 M193.000 100.205 C 194.980 100.963,196.690 101.580,196.800 101.576 C 197.289 101.557,194.500 100.254,192.489 99.562 C 188.808 98.295,189.155 98.733,193.000 100.205 M49.858 101.800 C 50.462 104.858,50.176 104.773,60.282 104.893 L 69.355 105.000 61.878 110.600 C 57.766 113.680,54.401 116.435,54.401 116.722 C 54.400 117.016,54.794 116.815,55.300 116.263 C 55.795 115.724,59.260 112.988,63.000 110.183 C 66.740 107.379,69.860 104.931,69.933 104.742 C 70.007 104.554,65.817 104.400,60.623 104.400 L 51.180 104.400 50.784 103.300 C 50.009 101.150,49.599 100.485,49.858 101.800 M118.618 102.598 C 119.069 104.790,119.011 104.777,128.743 104.893 L 137.800 105.000 130.755 110.293 C 122.562 116.448,122.644 116.368,123.203 117.648 C 123.613 118.587,123.615 118.585,123.411 117.539 C 123.220 116.558,123.793 116.036,131.102 110.539 L 139.000 104.600 129.340 104.493 L 119.680 104.386 119.026 102.893 C 118.448 101.576,118.400 101.541,118.618 102.598 M200.495 103.562 C 205.380 106.302,209.277 109.146,208.942 109.726 C 207.522 112.188,204.962 114.735,204.359 114.287 C 197.566 109.229,186.773 103.833,183.849 104.030 C 183.602 104.047,185.110 104.651,187.200 105.372 C 192.139 107.076,197.440 109.766,201.238 112.494 C 202.909 113.694,204.473 114.798,204.714 114.947 C 205.476 115.418,209.763 109.678,209.177 108.972 C 207.987 107.538,198.469 101.598,197.366 101.601 C 197.165 101.601,198.573 102.484,200.495 103.562 M349.667 103.180 L 349.242 104.400 339.821 104.400 C 330.327 104.400,329.827 104.461,331.100 105.462 C 333.126 107.055,334.059 107.541,332.600 106.244 L 331.000 104.822 340.195 104.711 L 349.390 104.600 349.931 103.470 C 350.229 102.848,350.387 102.254,350.283 102.149 C 350.178 102.045,349.901 102.508,349.667 103.180 M293.218 103.400 C 293.199 104.679,293.889 104.785,302.943 104.892 L 312.049 105.000 304.624 110.587 C 297.110 116.242,296.576 116.837,297.609 118.400 C 297.903 118.846,297.979 118.641,297.902 117.606 C 297.802 116.233,297.913 116.127,305.281 110.606 C 309.395 107.523,312.770 104.865,312.781 104.700 C 312.791 104.535,308.579 104.400,303.420 104.400 C 294.908 104.400,294.002 104.335,293.632 103.700 C 293.408 103.315,293.222 103.180,293.218 103.400 M28.400 104.389 L 18.600 104.600 26.500 110.510 C 30.845 113.760,34.398 116.460,34.395 116.510 C 34.392 116.559,34.029 117.752,33.587 119.159 C 33.146 120.567,32.868 121.801,32.968 121.902 C 33.069 122.002,33.544 120.791,34.024 119.211 C 34.507 117.620,34.742 116.202,34.549 116.034 C 34.357 115.868,30.960 113.317,27.000 110.366 L 19.800 105.000 28.788 104.892 C 33.971 104.830,37.942 104.618,38.168 104.392 C 38.384 104.176,38.479 104.040,38.380 104.089 C 38.281 104.138,33.790 104.273,28.400 104.389 M271.200 104.389 L 261.400 104.600 268.000 109.560 C 271.630 112.288,274.825 114.695,275.100 114.909 C 275.375 115.123,275.600 115.190,275.600 115.058 C 275.600 114.927,272.675 112.610,269.100 109.909 L 262.600 105.000 271.588 104.892 C 276.771 104.830,280.742 104.618,280.968 104.392 C 281.184 104.176,281.279 104.040,281.180 104.089 C 281.081 104.138,276.590 104.273,271.200 104.389 M157.513 108.900 C 156.385 111.022,155.973 112.000,156.207 112.000 C 156.307 112.000,156.934 110.920,157.600 109.600 C 158.972 106.882,158.899 106.293,157.513 108.900 M334.400 107.755 C 334.400 107.878,336.920 109.878,340.000 112.200 C 343.080 114.522,345.600 116.489,345.600 116.571 C 345.600 116.654,344.882 119.021,344.005 121.832 C 343.128 124.644,342.486 127.020,342.579 127.112 C 342.732 127.266,345.230 119.573,345.797 117.200 C 346.012 116.302,345.599 115.875,341.736 113.000 C 339.371 111.240,336.753 109.289,335.918 108.665 C 335.083 108.041,334.400 107.632,334.400 107.755 M174.555 112.259 C 172.894 114.874,172.718 115.200,172.964 115.200 C 173.080 115.200,173.809 114.210,174.583 113.000 C 176.173 110.514,176.271 110.490,180.095 111.628 C 183.350 112.598,184.192 112.443,181.104 111.443 C 176.600 109.984,175.949 110.065,174.555 112.259 M186.763 113.996 C 188.613 114.882,190.192 115.541,190.271 115.462 C 190.467 115.266,185.650 112.947,184.400 112.636 C 183.850 112.498,184.914 113.111,186.763 113.996 M154.222 115.622 C 153.620 116.964,153.204 118.138,153.298 118.231 C 153.392 118.325,153.948 117.291,154.533 115.933 C 155.119 114.576,155.535 113.402,155.458 113.324 C 155.380 113.247,154.824 114.281,154.222 115.622 M276.524 115.842 C 276.928 116.332,277.119 117.002,276.979 117.442 C 276.747 118.176,276.755 118.176,277.214 117.456 C 277.611 116.835,277.535 116.570,276.759 115.856 C 275.847 115.016,275.842 115.016,276.524 115.842 M172.178 116.035 C 171.771 116.694,172.371 117.024,175.000 117.586 C 176.320 117.869,178.738 118.614,180.373 119.243 C 182.009 119.872,183.409 120.324,183.486 120.248 C 183.792 119.941,179.190 118.241,175.901 117.446 C 173.516 116.869,172.462 116.441,172.589 116.100 C 172.818 115.485,172.545 115.442,172.178 116.035 M191.000 115.892 C 191.781 116.634,194.537 118.145,194.244 117.671 C 194.080 117.406,193.193 116.811,192.273 116.350 C 191.353 115.889,190.780 115.683,191.000 115.892 M54.841 117.816 C 54.779 118.442,57.227 126.106,57.425 125.908 C 57.519 125.814,56.986 123.861,56.239 121.568 C 55.492 119.276,54.863 117.587,54.841 117.816 M194.800 118.152 C 194.800 118.260,195.880 119.106,197.200 120.032 C 200.028 122.016,199.988 121.831,198.163 124.499 C 196.935 126.294,196.897 126.409,197.901 125.289 C 200.306 122.606,200.390 122.078,198.637 120.607 C 196.993 119.226,194.800 117.823,194.800 118.152 M123.600 119.118 C 123.600 119.630,125.937 126.238,125.970 125.821 C 126.014 125.260,124.006 118.800,123.787 118.800 C 123.684 118.800,123.600 118.943,123.600 119.118 M151.841 121.876 C 151.269 123.596,150.814 125.182,150.830 125.401 C 150.847 125.621,151.385 124.283,152.026 122.429 C 152.668 120.576,153.123 118.989,153.037 118.904 C 152.952 118.819,152.414 120.156,151.841 121.876 M251.034 123.650 C 249.883 129.342,249.912 129.149,250.377 128.096 C 250.911 126.889,252.108 120.925,251.926 120.379 C 251.847 120.141,251.445 121.613,251.034 123.650 M184.033 120.549 C 184.125 120.631,185.460 121.381,187.000 122.215 C 190.332 124.019,194.023 126.464,194.765 127.358 C 195.451 128.184,196.246 128.178,196.566 127.343 C 196.760 126.839,196.698 126.787,196.298 127.118 C 195.908 127.443,195.280 127.169,193.771 126.019 C 191.611 124.372,184.881 120.400,184.250 120.400 C 184.039 120.400,183.942 120.467,184.033 120.549 M274.626 124.626 C 274.033 126.527,273.620 128.153,273.707 128.241 C 273.795 128.328,274.349 126.842,274.939 124.939 C 275.529 123.036,275.943 121.409,275.858 121.324 C 275.773 121.240,275.219 122.725,274.626 124.626 M367.241 121.479 C 367.184 122.143,369.220 128.514,369.423 128.310 C 369.513 128.220,369.069 126.538,368.434 124.573 C 367.800 122.608,367.263 121.216,367.241 121.479 M31.257 126.657 C 30.544 128.987,30.030 130.964,30.116 131.049 C 30.202 131.135,30.856 129.300,31.571 126.971 C 32.286 124.643,32.800 122.667,32.713 122.579 C 32.625 122.492,31.970 124.327,31.257 126.657 M99.438 127.638 C 98.615 130.298,98.015 132.548,98.105 132.638 C 98.195 132.728,98.946 130.630,99.775 127.975 C 100.604 125.320,101.203 123.070,101.108 122.974 C 101.012 122.879,100.260 124.977,99.438 127.638 M299.212 123.260 C 299.205 123.404,299.920 125.829,300.800 128.649 C 301.680 131.470,302.400 133.918,302.400 134.088 C 302.400 134.259,301.500 133.752,300.400 132.962 C 299.300 132.172,298.400 131.617,298.400 131.728 C 298.400 132.055,302.266 134.800,302.726 134.800 C 302.998 134.800,303.025 134.415,302.805 133.700 C 302.618 133.095,301.892 130.710,301.191 128.400 C 300.043 124.621,299.245 122.549,299.212 123.260 M37.089 128.983 C 29.310 134.471,29.612 134.298,29.572 133.300 C 29.548 132.701,29.494 132.716,29.200 133.400 C 28.265 135.575,28.501 135.457,37.120 129.423 C 41.066 126.660,44.428 124.400,44.591 124.400 C 44.753 124.400,48.221 126.747,52.297 129.615 C 56.374 132.484,59.909 134.748,60.154 134.647 C 60.433 134.532,60.403 134.451,60.076 134.432 C 59.788 134.414,59.664 134.220,59.800 134.001 C 60.056 133.586,58.375 127.891,58.083 128.184 C 57.992 128.275,58.315 129.542,58.800 131.000 C 60.001 134.608,60.169 134.656,52.347 129.159 C 48.526 126.474,45.130 124.208,44.800 124.122 C 44.470 124.036,41.000 126.223,37.089 128.983 M109.487 126.226 C 107.789 127.451,106.400 128.543,106.400 128.654 C 106.400 128.765,107.822 127.853,109.561 126.628 C 113.452 123.885,112.061 123.529,120.480 129.423 C 128.112 134.766,128.800 135.176,128.800 134.376 C 128.800 134.096,128.688 133.979,128.551 134.115 C 128.279 134.388,125.944 132.861,118.474 127.521 C 112.642 123.353,113.333 123.453,109.487 126.226 M286.116 124.444 C 285.648 124.912,282.876 126.893,276.115 131.589 L 272.030 134.427 272.619 132.513 C 273.652 129.160,273.644 128.503,272.604 131.378 C 270.976 135.883,270.573 135.985,279.600 129.600 C 283.644 126.740,287.095 124.400,287.270 124.400 C 287.445 124.400,289.733 125.908,292.354 127.752 C 297.456 131.340,298.456 131.990,297.800 131.292 C 296.794 130.221,287.735 124.000,287.181 124.000 C 286.840 124.000,286.360 124.200,286.116 124.444 M352.701 125.900 C 340.231 134.751,340.386 134.666,341.200 132.200 C 341.464 131.401,341.584 130.650,341.466 130.533 C 341.349 130.415,341.051 131.069,340.804 131.985 C 340.557 132.901,340.256 133.909,340.135 134.225 C 339.688 135.391,340.901 134.690,347.873 129.756 C 351.793 126.982,355.224 124.623,355.499 124.514 C 355.773 124.405,359.228 126.586,363.177 129.362 C 372.161 135.677,372.131 135.664,370.973 132.800 L 370.407 131.400 370.635 132.700 C 370.941 134.441,371.347 134.647,363.345 129.000 C 355.130 123.203,356.102 123.486,352.701 125.900 M167.492 124.657 C 167.377 124.846,168.029 125.026,168.941 125.058 C 170.573 125.115,174.469 126.259,178.800 127.951 C 180.052 128.440,180.691 128.568,180.282 128.248 C 178.538 126.882,167.947 123.908,167.492 124.657 M165.608 127.984 C 165.164 128.855,164.800 129.748,164.800 129.969 C 164.800 130.402,167.951 131.382,168.281 131.052 C 168.392 130.942,167.831 130.730,167.036 130.580 C 165.408 130.275,164.937 129.799,165.542 129.069 C 166.035 128.475,166.856 126.400,166.598 126.400 C 166.498 126.400,166.053 127.113,165.608 127.984 M126.430 127.822 C 126.413 128.054,126.837 129.494,127.370 131.022 C 127.904 132.550,128.354 133.610,128.370 133.378 C 128.387 133.146,127.963 131.706,127.430 130.178 C 126.896 128.650,126.446 127.590,126.430 127.822 M102.600 131.053 C 100.840 132.269,99.085 133.547,98.700 133.894 C 98.058 134.472,97.999 134.461,97.994 133.762 C 97.989 133.124,97.925 133.097,97.600 133.600 C 96.497 135.307,97.624 135.172,100.164 133.294 C 101.284 132.466,102.973 131.266,103.918 130.627 C 105.372 129.644,106.372 128.744,105.924 128.821 C 105.856 128.833,104.360 129.837,102.600 131.053 M149.043 131.651 C 148.684 133.240,148.302 135.544,148.194 136.770 C 148.087 137.997,148.439 136.757,148.978 134.012 C 150.046 128.571,150.089 127.019,149.043 131.651 M182.200 129.600 C 182.336 129.820,182.641 130.000,182.878 130.000 C 183.467 130.000,190.800 134.877,190.800 135.269 C 190.800 135.510,188.342 139.628,187.781 140.327 C 187.724 140.398,186.181 139.447,184.351 138.215 C 182.522 136.983,180.765 136.026,180.448 136.088 C 179.879 136.199,174.986 144.720,175.308 145.041 C 175.399 145.132,176.536 143.226,177.834 140.804 C 180.579 135.683,180.217 135.820,184.029 138.449 C 185.663 139.576,187.198 140.575,187.440 140.669 C 187.881 140.840,191.200 136.118,191.200 135.320 C 191.200 134.783,189.422 133.428,185.610 131.058 C 182.656 129.222,181.719 128.821,182.200 129.600 M171.117 132.066 C 171.621 132.325,171.951 132.731,171.851 132.968 C 171.751 133.206,170.648 135.800,169.400 138.732 C 168.152 141.665,167.200 144.133,167.283 144.216 C 167.366 144.299,168.576 141.670,169.972 138.372 C 171.368 135.075,172.440 132.314,172.355 132.238 C 172.270 132.162,171.750 131.986,171.200 131.848 C 170.203 131.596,170.203 131.597,171.117 132.066 M247.723 135.455 C 247.037 137.405,245.833 140.395,245.048 142.100 C 244.263 143.805,243.717 145.200,243.836 145.200 C 244.444 145.200,249.372 133.115,249.098 132.294 C 249.027 132.082,248.409 133.505,247.723 135.455 M147.471 141.690 C 146.926 147.353,146.799 154.056,147.160 158.200 L 147.543 162.600 147.352 156.800 C 147.246 153.610,147.359 148.414,147.601 145.254 C 148.037 139.571,147.938 136.842,147.471 141.690 M166.090 146.872 C 165.074 149.615,164.645 151.052,164.916 150.800 C 165.279 150.464,167.222 145.088,167.044 144.911 C 166.953 144.820,166.524 145.702,166.090 146.872 M174.255 146.700 C 173.388 148.386,172.420 150.800,172.612 150.800 C 172.813 150.800,174.262 148.016,174.805 146.586 C 175.309 145.260,174.958 145.333,174.255 146.700 M242.628 146.912 C 233.016 163.874,217.133 177.221,197.086 185.185 C 195.813 185.691,194.845 186.179,194.936 186.269 C 195.193 186.527,204.230 182.560,208.000 180.534 C 222.285 172.859,233.974 162.026,241.610 149.384 C 242.750 147.495,243.610 145.877,243.521 145.787 C 243.431 145.698,243.030 146.204,242.628 146.912 M112.450 149.229 C 111.860 150.920,111.901 151.230,112.557 150.046 C 113.142 148.991,113.271 149.107,113.987 151.327 C 114.258 152.167,114.551 152.782,114.639 152.695 C 114.835 152.498,113.605 148.724,113.197 148.270 C 113.033 148.088,112.697 148.520,112.450 149.229 M286.769 149.045 C 285.553 152.144,282.400 161.733,282.548 161.882 C 282.641 161.974,283.302 160.284,284.016 158.125 C 284.730 155.966,285.826 152.862,286.451 151.227 C 287.075 149.591,287.505 148.171,287.404 148.071 C 287.304 147.971,287.018 148.409,286.769 149.045 M44.000 148.767 C 44.000 148.969,43.898 149.464,43.772 149.867 C 43.630 150.324,43.754 150.251,44.101 149.673 C 44.650 148.758,44.664 148.769,45.185 150.473 C 45.475 151.423,45.787 151.992,45.877 151.737 C 46.107 151.091,44.932 148.400,44.420 148.400 C 44.189 148.400,44.000 148.565,44.000 148.767 M355.400 148.801 C 354.956 149.518,353.197 154.931,353.356 155.089 C 353.441 155.174,354.045 153.762,354.699 151.952 L 355.888 148.661 357.185 152.556 C 357.899 154.698,358.550 156.384,358.631 156.302 C 358.869 156.064,356.255 148.400,355.936 148.400 C 355.777 148.400,355.536 148.580,355.400 148.801 M287.675 149.600 C 290.044 156.625,292.551 163.583,292.669 163.464 C 292.862 163.271,288.123 149.579,287.748 149.245 C 287.597 149.110,287.564 149.270,287.675 149.600 M42.031 154.631 C 41.296 156.720,40.780 158.513,40.882 158.616 C 40.985 158.718,41.661 157.084,42.385 154.985 C 43.108 152.885,43.625 151.092,43.533 151.000 C 43.441 150.908,42.765 152.542,42.031 154.631 M170.838 154.038 C 170.136 155.609,169.632 156.965,169.719 157.052 C 169.806 157.139,170.446 155.920,171.143 154.343 C 171.839 152.766,172.343 151.410,172.262 151.329 C 172.181 151.248,171.541 152.467,170.838 154.038 M46.078 152.800 C 46.190 153.130,46.868 155.166,47.583 157.325 C 48.298 159.484,48.953 161.181,49.038 161.095 C 49.233 160.901,46.511 152.767,46.142 152.439 C 45.994 152.308,45.965 152.470,46.078 152.800 M108.753 159.787 L 106.600 166.000 97.100 166.000 C 91.577 166.000,87.600 166.154,87.600 166.368 C 87.600 166.571,90.885 169.204,94.900 172.219 C 98.915 175.234,102.369 177.856,102.575 178.045 C 102.805 178.257,102.678 179.252,102.243 180.630 C 101.855 181.862,101.612 182.946,101.704 183.038 C 102.134 183.468,103.301 178.404,102.885 177.913 C 102.647 177.631,99.297 175.060,95.441 172.200 C 91.585 169.340,88.423 166.868,88.415 166.707 C 88.407 166.546,92.583 166.366,97.696 166.307 L 106.992 166.200 109.102 160.039 C 110.262 156.651,111.143 153.810,111.059 153.726 C 110.976 153.642,109.938 156.370,108.753 159.787 M162.800 156.400 C 161.686 160.140,161.976 160.429,163.158 156.758 C 163.658 155.205,163.975 153.842,163.862 153.729 C 163.749 153.616,163.271 154.818,162.800 156.400 M115.278 154.800 C 115.391 155.130,115.888 156.626,116.383 158.126 C 116.877 159.625,117.353 160.780,117.440 160.693 C 117.634 160.499,115.707 154.762,115.338 154.435 C 115.192 154.306,115.165 154.470,115.278 154.800 M350.986 161.258 L 349.400 165.800 339.900 165.907 C 332.679 165.989,330.407 166.133,330.431 166.507 C 330.448 166.778,333.873 169.520,338.043 172.600 C 344.304 177.225,345.588 178.339,345.415 179.000 C 344.848 181.170,344.829 181.703,345.364 180.400 C 345.680 179.630,345.953 178.781,345.970 178.513 C 345.986 178.245,342.715 175.565,338.700 172.556 C 334.685 169.547,331.341 166.934,331.269 166.750 C 331.197 166.566,335.312 166.367,340.412 166.307 L 349.686 166.200 351.249 161.816 C 352.108 159.405,352.757 157.271,352.691 157.074 C 352.626 156.877,351.858 158.759,350.986 161.258 M168.232 160.232 C 167.645 161.698,167.241 162.975,167.336 163.069 C 167.430 163.163,167.975 162.028,168.547 160.547 C 169.120 159.066,169.523 157.790,169.443 157.710 C 169.364 157.631,168.819 158.765,168.232 160.232 M359.278 158.400 C 359.391 158.730,359.888 160.226,360.383 161.726 C 360.877 163.225,361.353 164.380,361.440 164.293 C 361.634 164.099,359.707 158.362,359.338 158.035 C 359.192 157.906,359.165 158.070,359.278 158.400 M39.310 162.489 L 38.108 165.800 28.654 165.907 C 21.477 165.989,19.205 166.133,19.219 166.507 C 19.234 166.915,22.279 169.281,33.848 177.877 C 34.432 178.311,34.414 178.577,33.645 180.854 C 33.180 182.230,32.813 183.545,32.830 183.778 C 32.860 184.213,34.800 178.873,34.800 178.353 C 34.800 178.193,31.357 175.483,27.149 172.331 L 19.498 166.600 28.909 166.493 C 37.399 166.396,38.347 166.318,38.602 165.693 C 39.395 163.746,40.780 159.447,40.655 159.322 C 40.576 159.243,39.971 160.668,39.310 162.489 M49.857 163.600 C 50.618 166.650,49.711 166.400,60.033 166.400 C 67.949 166.400,69.253 166.484,69.063 166.980 C 68.915 167.367,69.033 167.485,69.420 167.337 C 69.739 167.214,70.000 166.864,70.000 166.557 C 70.000 166.096,68.339 166.000,60.400 166.000 C 52.996 166.000,50.796 165.886,50.782 165.500 C 50.772 165.225,50.504 164.460,50.186 163.800 C 49.708 162.807,49.651 162.772,49.857 163.600 M147.709 164.400 C 147.709 165.390,147.787 165.795,147.882 165.300 C 147.978 164.805,147.978 163.995,147.882 163.500 C 147.787 163.005,147.709 163.410,147.709 164.400 M160.448 164.260 C 159.411 168.201,159.113 169.646,159.296 169.829 C 159.405 169.939,159.886 168.469,160.364 166.564 C 160.842 164.658,161.147 163.014,161.043 162.909 C 160.938 162.805,160.670 163.412,160.448 164.260 M118.433 163.874 C 118.415 164.135,118.576 164.810,118.790 165.374 L 119.180 166.400 128.390 166.400 C 133.456 166.400,137.599 166.535,137.598 166.700 C 137.596 166.865,134.364 169.422,130.414 172.383 C 126.465 175.344,123.300 177.833,123.381 177.914 C 123.658 178.191,138.365 167.001,138.383 166.500 C 138.396 166.114,136.263 166.000,129.001 166.000 L 119.602 166.000 119.034 164.700 C 118.721 163.985,118.451 163.613,118.433 163.874 M281.088 165.184 C 280.881 165.976,280.600 166.000,271.461 166.000 C 266.283 166.000,261.957 166.146,261.846 166.325 C 261.736 166.504,265.144 169.249,269.420 172.425 C 276.477 177.667,277.175 178.292,276.985 179.200 C 276.825 179.966,276.871 180.060,277.182 179.600 C 277.936 178.485,277.612 178.161,269.940 172.376 L 262.280 166.600 271.715 166.493 C 280.840 166.389,281.159 166.359,281.412 165.563 C 281.556 165.110,281.589 164.656,281.487 164.554 C 281.385 164.452,281.206 164.735,281.088 165.184 M361.618 165.000 C 361.599 166.283,362.284 166.385,371.566 166.492 L 380.894 166.600 373.247 172.334 C 369.041 175.488,365.614 178.278,365.631 178.534 C 365.679 179.258,367.134 183.057,367.169 182.550 C 367.186 182.303,366.930 181.335,366.600 180.400 C 366.270 179.465,366.002 178.587,366.004 178.450 C 366.007 178.312,369.416 175.680,373.581 172.600 C 377.746 169.520,381.165 166.775,381.177 166.500 C 381.195 166.114,379.070 166.000,371.820 166.000 C 363.308 166.000,362.402 165.935,362.032 165.300 C 361.808 164.915,361.622 164.780,361.618 165.000 M293.363 165.690 C 293.442 166.082,295.612 166.225,302.733 166.307 C 307.830 166.366,311.990 166.546,311.978 166.707 C 311.966 166.868,308.708 169.416,304.739 172.370 C 296.675 178.369,296.882 178.128,297.767 180.487 C 298.120 181.429,298.313 181.750,298.195 181.200 C 298.077 180.650,297.882 179.750,297.761 179.200 C 297.561 178.291,298.236 177.676,305.170 172.453 C 309.367 169.292,312.800 166.547,312.800 166.353 C 312.800 166.159,308.495 166.000,303.233 166.000 C 297.099 166.000,293.594 165.853,293.463 165.590 C 293.351 165.365,293.306 165.410,293.363 165.690 M164.892 168.879 C 163.215 173.523,161.549 178.883,161.727 179.061 C 161.809 179.143,162.880 176.194,164.107 172.507 C 166.450 165.461,166.936 163.216,164.892 168.879 M148.051 167.200 C 147.980 168.413,149.622 177.311,149.870 177.063 C 149.967 176.966,149.686 174.932,149.246 172.543 C 148.805 170.154,148.369 167.750,148.277 167.200 L 148.109 166.200 148.051 167.200 M61.300 172.830 C 56.929 176.126,54.410 178.284,54.428 178.717 C 54.454 179.353,54.475 179.353,54.728 178.726 C 54.878 178.355,58.015 175.787,61.700 173.020 C 67.416 168.727,68.870 167.537,68.300 167.613 C 68.245 167.621,65.095 169.968,61.300 172.830 M157.621 176.188 C 157.133 178.504,156.806 180.617,156.894 180.882 C 156.983 181.148,157.460 179.330,157.956 176.844 C 158.451 174.358,158.778 172.245,158.683 172.150 C 158.587 172.054,158.110 173.871,157.621 176.188 M123.630 180.557 C 123.573 181.240,125.314 186.597,125.460 186.189 C 125.541 185.963,125.169 184.523,124.633 182.989 C 124.098 181.455,123.646 180.361,123.630 180.557 M55.239 180.942 C 55.173 181.524,57.257 188.076,57.448 187.886 C 57.546 187.787,57.098 186.107,56.452 184.153 C 55.806 182.199,55.260 180.754,55.239 180.942 M150.800 181.379 C 150.800 181.478,151.272 183.052,151.848 184.877 C 153.837 191.173,155.593 194.175,155.604 191.300 C 155.607 190.695,155.689 189.480,155.787 188.600 C 155.885 187.720,155.737 188.080,155.459 189.400 L 154.953 191.800 154.068 189.830 C 153.581 188.746,152.726 186.361,152.167 184.530 C 151.315 181.735,150.800 180.549,150.800 181.379 M343.461 185.461 C 342.871 187.364,342.465 188.999,342.560 189.093 C 342.654 189.188,343.209 187.702,343.791 185.791 C 344.374 183.881,344.780 182.246,344.692 182.159 C 344.605 182.072,344.051 183.558,343.461 185.461 M159.600 185.800 C 159.095 187.679,158.764 189.297,158.864 189.397 C 158.963 189.497,159.450 188.034,159.945 186.145 C 160.441 184.257,160.772 182.639,160.682 182.549 C 160.592 182.458,160.105 183.921,159.600 185.800 M273.627 189.627 C 272.458 193.371,271.593 196.526,271.705 196.638 C 271.817 196.750,275.374 194.404,279.610 191.424 L 287.312 186.005 289.156 187.322 C 295.924 192.152,302.865 196.869,303.002 196.731 C 303.092 196.641,302.332 193.922,301.313 190.687 C 300.294 187.453,299.393 184.874,299.310 184.957 C 299.227 185.039,299.893 187.494,300.789 190.411 C 301.684 193.329,302.355 195.779,302.278 195.855 C 302.202 195.931,300.533 194.863,298.570 193.482 C 296.606 192.100,293.263 189.761,291.141 188.283 L 287.282 185.597 279.941 190.751 C 275.903 193.586,272.541 195.750,272.469 195.561 C 272.398 195.371,273.179 192.499,274.207 189.179 C 275.234 185.858,276.002 183.069,275.913 182.980 C 275.825 182.891,274.796 185.882,273.627 189.627 M367.239 183.342 C 367.173 183.924,369.257 190.476,369.448 190.286 C 369.546 190.187,369.098 188.507,368.452 186.553 C 367.806 184.599,367.260 183.154,367.239 183.342 M31.242 188.442 C 30.742 189.995,30.425 191.358,30.538 191.471 C 30.651 191.584,31.129 190.382,31.600 188.800 C 32.714 185.060,32.424 184.771,31.242 188.442 M112.655 185.912 C 112.534 186.107,112.665 186.267,112.946 186.267 C 113.227 186.267,116.836 188.651,120.964 191.564 C 125.093 194.478,128.564 196.770,128.677 196.657 C 128.789 196.544,128.196 194.256,127.359 191.572 C 126.521 188.889,125.784 186.852,125.720 187.047 C 125.657 187.241,126.213 189.335,126.957 191.700 C 127.701 194.065,128.226 196.000,128.125 196.000 C 128.024 196.000,125.029 193.959,121.470 191.465 C 113.176 185.652,112.916 185.488,112.655 185.912 M349.952 189.633 C 346.789 191.852,343.930 193.950,343.600 194.296 C 342.851 195.081,344.003 194.319,350.395 189.799 C 353.142 187.856,355.585 186.267,355.824 186.267 C 356.062 186.267,359.636 188.651,363.764 191.564 C 372.069 197.424,372.033 197.412,370.837 194.125 C 370.372 192.846,370.087 192.250,370.205 192.800 C 370.323 193.350,370.533 194.323,370.672 194.962 C 370.848 195.771,370.788 196.040,370.475 195.847 C 370.228 195.694,366.851 193.326,362.970 190.584 C 359.089 187.843,355.867 185.600,355.809 185.600 C 355.752 185.600,353.116 187.415,349.952 189.633 M99.461 189.461 C 98.871 191.364,98.457 192.991,98.542 193.076 C 98.627 193.160,99.181 191.675,99.774 189.774 C 100.367 187.873,100.780 186.247,100.693 186.159 C 100.605 186.072,100.051 187.558,99.461 189.461 M36.515 191.200 C 28.621 196.734,29.067 196.534,29.869 194.178 C 30.211 193.176,30.412 192.279,30.317 192.183 C 30.221 192.088,29.827 193.013,29.440 194.240 C 29.053 195.467,28.825 196.559,28.933 196.667 C 29.099 196.832,42.243 187.813,43.380 186.754 C 44.534 185.679,42.650 186.900,36.515 191.200 M45.600 186.558 C 45.600 186.670,46.455 187.342,47.500 188.050 C 48.546 188.760,49.097 188.993,48.727 188.570 C 48.023 187.764,45.600 186.206,45.600 186.558 M107.600 189.377 C 105.290 191.003,102.410 193.039,101.200 193.903 C 97.822 196.313,97.880 196.297,98.154 194.750 L 98.393 193.400 97.849 194.800 C 96.793 197.518,96.670 197.581,108.100 189.516 C 111.413 187.178,112.422 186.354,111.900 186.411 C 111.845 186.417,109.910 187.752,107.600 189.377 M189.466 187.874 C 188.403 188.200,187.626 188.559,187.740 188.674 C 187.960 188.893,192.000 187.655,192.000 187.368 C 192.000 187.134,191.675 187.199,189.466 187.874 M57.641 188.600 C 57.618 188.820,58.047 190.440,58.594 192.200 C 59.141 193.960,59.591 195.539,59.594 195.709 C 59.601 196.085,58.288 195.269,54.600 192.606 C 51.240 190.180,49.600 189.117,49.600 189.365 C 49.600 189.678,60.038 196.896,60.223 196.711 C 60.318 196.615,59.786 194.661,59.039 192.368 C 58.292 190.076,57.663 188.380,57.641 188.600 M180.284 190.489 C 177.690 191.155,175.648 191.782,175.747 191.880 C 175.941 192.074,185.621 189.713,185.940 189.394 C 186.309 189.024,184.976 189.282,180.284 190.489 M158.183 191.772 C 157.905 193.627,158.124 194.404,158.924 194.394 C 159.236 194.390,159.210 194.268,158.848 194.038 C 158.438 193.778,158.367 193.214,158.572 191.844 C 158.725 190.830,158.759 190.000,158.649 190.000 C 158.539 190.000,158.329 190.797,158.183 191.772 M340.842 193.642 C 339.794 196.896,339.893 197.215,341.577 196.016 C 343.041 194.974,343.227 194.428,341.800 195.363 C 340.625 196.133,340.603 196.009,341.427 193.233 C 342.369 190.061,341.887 190.398,340.842 193.642 M166.200 193.391 C 164.660 193.669,162.529 194.023,161.463 194.178 C 160.398 194.333,159.609 194.543,159.711 194.644 C 159.927 194.860,170.443 193.290,170.735 192.998 C 171.047 192.686,169.247 192.842,166.200 193.391 M25.631 307.700 C 25.657 386.248,25.748 400.847,26.222 402.200 C 26.538 403.104,26.664 403.278,26.511 402.600 C 26.362 401.940,26.185 359.505,26.116 308.300 L 25.992 215.200 200.196 215.200 L 374.400 215.200 374.394 307.300 C 374.388 386.333,374.305 399.741,373.808 401.800 C 373.058 404.907,373.094 405.387,373.928 403.400 C 374.550 401.920,374.608 394.809,374.704 308.300 L 374.808 214.800 200.204 214.800 L 25.600 214.800 25.631 307.700 M2.857 403.600 C 2.793 404.836,4.257 411.046,4.823 411.943 C 5.178 412.505,5.208 412.484,5.027 411.800 C 4.469 409.683,3.237 404.489,3.083 403.600 L 2.909 402.600 2.857 403.600 M27.612 406.510 C 27.581 407.323,30.722 412.916,32.681 415.538 C 35.865 419.800,39.282 423.108,44.500 426.981 C 47.366 429.109,45.980 427.651,42.700 425.088 C 36.685 420.387,32.567 415.562,29.313 409.400 C 28.384 407.640,27.618 406.339,27.612 406.510 M370.896 409.726 C 366.741 417.785,359.959 424.402,349.500 430.597 C 345.313 433.077,344.422 433.813,347.500 432.247 C 355.428 428.216,364.301 420.630,368.737 414.090 C 370.360 411.697,372.950 406.816,372.718 406.585 C 372.645 406.511,371.825 407.925,370.896 409.726 M395.440 411.040 C 395.053 412.267,394.830 413.364,394.945 413.478 C 395.059 413.592,395.450 412.663,395.813 411.413 C 396.674 408.454,396.355 408.136,395.440 411.040 M5.839 414.800 C 8.573 426.030,25.551 444.672,39.500 451.760 C 41.788 452.922,40.894 452.147,37.900 450.372 C 24.905 442.667,13.637 430.918,8.257 419.460 C 7.311 417.447,6.326 415.350,6.067 414.800 L 5.596 413.800 5.839 414.800 M394.086 415.080 C 393.862 415.696,393.208 417.248,392.632 418.528 C 392.056 419.809,391.752 420.753,391.956 420.627 C 392.424 420.338,394.919 414.385,394.674 414.141 C 394.574 414.041,394.309 414.463,394.086 415.080 M390.152 423.300 C 389.209 425.136,386.554 429.045,384.652 431.400 C 383.602 432.700,383.419 433.057,384.130 432.420 C 385.865 430.863,391.726 422.000,391.021 422.000 C 390.911 422.000,390.520 422.585,390.152 423.300 M46.400 428.156 C 46.400 428.285,47.075 428.812,47.900 429.328 C 50.473 430.937,54.800 433.279,54.800 433.062 C 54.800 432.949,53.495 432.126,51.900 431.234 C 50.305 430.342,48.415 429.232,47.700 428.767 C 46.985 428.302,46.400 428.027,46.400 428.156 M58.000 434.800 C 59.210 435.439,60.380 435.962,60.600 435.962 C 60.820 435.962,60.010 435.439,58.800 434.800 C 57.590 434.161,56.420 433.638,56.200 433.638 C 55.980 433.638,56.790 434.161,58.000 434.800 M341.600 434.800 C 340.390 435.439,339.580 435.962,339.800 435.962 C 340.020 435.962,341.190 435.439,342.400 434.800 C 343.610 434.161,344.420 433.638,344.200 433.638 C 343.980 433.638,342.810 434.161,341.600 434.800 M379.591 437.028 C 375.351 441.316,370.636 445.107,365.140 448.652 C 359.444 452.326,359.174 452.518,360.800 451.748 C 366.248 449.168,376.338 441.273,381.537 435.522 C 384.212 432.563,383.342 433.236,379.591 437.028 M61.200 436.115 C 61.200 436.408,66.466 438.468,66.676 438.257 C 66.775 438.159,65.898 437.716,64.728 437.274 C 63.557 436.831,62.285 436.344,61.900 436.192 C 61.515 436.039,61.200 436.005,61.200 436.115 M336.077 437.081 C 334.689 437.635,333.633 438.166,333.728 438.262 C 333.916 438.450,339.200 436.418,339.200 436.157 C 339.200 435.889,338.684 436.041,336.077 437.081 M67.239 438.556 C 67.549 438.887,75.625 441.610,76.179 441.570 C 76.410 441.553,74.809 440.924,72.620 440.171 C 67.513 438.416,66.949 438.247,67.239 438.556 M327.600 440.200 C 325.510 440.935,323.991 441.551,324.225 441.569 C 324.721 441.605,331.627 439.306,331.929 439.004 C 332.323 438.610,331.368 438.874,327.600 440.200 M76.833 441.756 C 77.196 442.095,84.897 444.034,85.321 443.893 C 85.570 443.810,83.850 443.260,81.499 442.671 C 77.231 441.602,76.519 441.462,76.833 441.756 M318.683 442.688 C 316.529 443.245,314.853 443.786,314.958 443.891 C 315.155 444.088,323.225 442.108,323.551 441.782 C 323.897 441.436,322.587 441.680,318.683 442.688 M91.600 445.439 C 92.810 445.742,98.030 446.704,103.200 447.577 C 115.890 449.719,115.745 449.699,113.415 449.019 C 112.324 448.700,108.364 447.966,104.615 447.387 C 100.867 446.807,96.115 445.988,94.056 445.567 C 89.790 444.693,88.312 444.616,91.600 445.439 M306.800 445.437 C 305.370 445.735,300.342 446.617,295.626 447.397 C 288.175 448.630,285.481 449.200,287.112 449.200 C 288.010 449.200,306.669 445.958,308.800 445.432 C 311.645 444.729,310.180 444.733,306.800 445.437 M126.800 452.418 C 136.279 454.928,136.345 454.943,135.600 454.468 C 134.914 454.031,120.780 450.385,119.948 450.430 C 119.646 450.446,122.730 451.341,126.800 452.418 M272.081 452.381 C 268.056 453.439,264.636 454.441,264.481 454.609 C 264.326 454.776,264.650 454.792,265.200 454.645 C 265.750 454.498,269.530 453.496,273.600 452.418 C 277.670 451.341,280.640 450.459,280.200 450.458 C 279.760 450.458,276.106 451.323,272.081 452.381 M41.200 452.658 C 41.200 453.250,57.845 460.688,58.255 460.278 C 58.338 460.196,57.099 459.624,55.502 459.008 C 53.906 458.392,50.035 456.666,46.900 455.173 C 43.765 453.680,41.200 452.548,41.200 452.658 M354.200 454.831 C 351.560 456.133,347.735 457.859,345.701 458.666 C 343.666 459.474,342.074 460.207,342.162 460.295 C 342.563 460.696,359.200 453.208,359.200 452.626 C 359.200 452.338,359.725 452.106,354.200 454.831 M139.200 455.881 C 139.530 456.000,142.410 457.047,145.600 458.208 C 153.131 460.946,153.205 460.970,152.000 460.269 C 150.737 459.535,139.757 455.589,139.094 455.632 C 138.806 455.650,138.850 455.754,139.200 455.881 M254.789 457.747 C 251.593 458.909,248.623 460.085,248.189 460.360 C 247.200 460.987,247.413 460.921,252.600 458.999 C 254.580 458.265,257.460 457.210,259.000 456.654 C 260.540 456.098,261.530 455.641,261.200 455.638 C 260.870 455.635,257.985 456.584,254.789 457.747 M59.265 460.781 C 60.093 461.303,67.104 463.611,67.736 463.570 C 68.156 463.542,61.397 461.114,59.420 460.582 C 58.719 460.394,58.696 460.423,59.265 460.781 M336.600 462.000 C 334.180 462.845,332.387 463.551,332.616 463.569 C 333.159 463.610,340.326 461.286,341.159 460.799 C 342.343 460.107,341.027 460.453,336.600 462.000 M155.559 462.008 C 156.966 462.672,158.196 463.137,158.292 463.041 C 158.491 462.842,155.347 461.397,153.936 461.039 C 153.421 460.908,154.151 461.344,155.559 462.008 M244.200 461.824 C 243.540 462.139,241.406 463.128,239.457 464.022 C 237.509 464.916,235.995 465.728,236.093 465.826 C 236.191 465.925,238.182 465.104,240.517 464.002 C 242.852 462.901,244.940 462.000,245.157 462.000 C 245.375 462.000,245.664 461.820,245.800 461.600 C 246.131 461.065,245.648 461.133,244.200 461.824 M160.940 464.446 C 162.227 465.110,163.374 465.559,163.490 465.444 C 163.689 465.245,159.379 463.179,158.850 463.219 C 158.713 463.230,159.653 463.782,160.940 464.446 M68.800 463.917 C 69.576 464.399,76.022 466.111,76.240 465.893 C 76.384 465.749,71.293 464.221,69.000 463.720 C 68.373 463.583,68.330 463.625,68.800 463.917 M328.000 464.612 C 326.350 465.123,325.271 465.554,325.601 465.570 C 326.298 465.605,331.604 464.129,331.920 463.813 C 332.319 463.414,331.005 463.682,328.000 464.612 M77.888 466.408 C 79.060 466.880,88.218 468.808,89.106 468.771 C 89.488 468.754,87.010 468.126,83.600 467.375 C 77.067 465.935,76.457 465.832,77.888 466.408 M317.400 467.208 C 314.760 467.821,312.960 468.338,313.400 468.357 C 314.319 468.398,322.813 466.521,323.126 466.208 C 323.473 465.860,322.404 466.047,317.400 467.208 M230.200 468.634 C 228.000 469.850,226.020 471.039,225.800 471.276 C 225.421 471.684,231.227 468.672,233.800 467.124 C 236.523 465.487,233.909 466.583,230.200 468.634 M167.011 467.331 C 168.480 468.321,175.003 471.710,174.600 471.275 C 174.157 470.795,166.916 466.800,166.490 466.800 C 166.343 466.800,166.577 467.039,167.011 467.331 M302.200 470.006 C 298.680 470.614,296.129 471.132,296.531 471.156 C 297.398 471.208,307.192 469.715,309.200 469.224 C 312.114 468.512,308.535 468.912,302.200 470.006 M93.400 469.655 C 95.379 470.118,103.110 471.216,103.970 471.156 C 104.893 471.092,93.980 469.242,92.800 469.263 C 92.124 469.275,92.318 469.402,93.400 469.655 M175.400 471.889 C 175.620 472.101,178.140 473.810,181.000 475.687 C 187.333 479.841,193.201 484.502,197.179 488.537 L 200.158 491.559 203.179 488.532 C 207.307 484.396,212.886 479.968,219.257 475.771 C 224.696 472.188,226.193 471.095,224.400 472.015 C 218.950 474.814,204.711 485.738,201.427 489.641 C 200.208 491.089,199.962 491.086,198.867 489.605 C 197.898 488.294,190.957 482.227,187.551 479.713 C 182.980 476.339,174.067 470.600,175.400 471.889 M287.000 472.613 C 284.580 473.137,282.345 473.573,282.033 473.583 C 281.722 473.592,281.571 473.704,281.698 473.831 C 281.920 474.053,292.424 472.087,292.767 471.759 C 293.123 471.418,291.219 471.700,287.000 472.613 M114.400 473.194 C 117.370 473.850,119.975 474.332,120.188 474.264 C 120.633 474.123,113.005 472.474,110.600 472.190 C 109.720 472.087,111.430 472.538,114.400 473.194 M120.833 474.566 C 121.112 474.844,127.681 476.452,127.849 476.284 C 127.936 476.198,126.588 475.739,124.855 475.264 C 121.857 474.442,120.467 474.201,120.833 474.566 M274.491 475.490 C 272.452 476.054,270.855 476.588,270.944 476.677 C 271.116 476.849,279.282 474.851,279.565 474.568 C 279.966 474.168,277.935 474.537,274.491 475.490 M135.476 478.793 C 137.937 479.636,141.150 480.805,142.614 481.391 C 144.079 481.977,145.357 482.376,145.455 482.278 C 145.787 481.946,132.460 477.154,131.417 477.231 C 131.187 477.247,133.014 477.951,135.476 478.793 M264.675 478.473 C 262.736 479.139,261.219 479.753,261.304 479.837 C 261.388 479.922,263.245 479.377,265.429 478.626 C 267.613 477.875,269.130 477.261,268.800 477.262 C 268.470 477.263,266.614 477.808,264.675 478.473 M257.283 481.069 C 255.898 481.635,254.840 482.173,254.932 482.265 C 255.023 482.357,256.426 481.894,258.049 481.236 C 259.672 480.579,260.730 480.041,260.400 480.040 C 260.070 480.040,258.667 480.502,257.283 481.069 M148.754 483.806 C 150.379 484.586,151.779 485.155,151.864 485.069 C 151.950 484.983,150.891 484.419,149.510 483.815 C 145.794 482.189,145.377 482.184,148.754 483.806 M251.000 483.781 C 249.460 484.524,248.380 485.134,248.600 485.138 C 249.137 485.148,254.710 482.472,254.200 482.449 C 253.980 482.439,252.540 483.039,251.000 483.781 M245.300 486.383 C 243.925 487.034,242.800 487.674,242.800 487.807 C 242.800 487.939,242.935 487.973,243.100 487.882 C 243.265 487.791,244.435 487.235,245.700 486.647 C 246.965 486.058,248.000 485.492,248.000 485.388 C 248.000 485.107,247.992 485.110,245.300 486.383 M153.871 486.195 C 154.829 486.866,156.800 487.676,156.800 487.398 C 156.800 487.177,153.755 485.600,153.327 485.600 C 153.159 485.600,153.404 485.868,153.871 486.195 M158.065 488.180 C 158.210 488.336,159.650 489.227,161.265 490.160 C 162.879 491.094,164.875 492.268,165.700 492.769 C 166.525 493.269,167.200 493.583,167.200 493.466 C 167.200 493.349,165.715 492.363,163.900 491.275 C 160.433 489.196,157.617 487.703,158.065 488.180 M238.600 490.019 C 236.620 491.126,234.550 492.404,234.000 492.858 C 233.115 493.590,233.183 493.580,234.600 492.772 C 241.283 488.957,242.851 487.994,242.367 488.003 C 242.275 488.005,240.580 488.912,238.600 490.019 M167.600 493.720 C 167.600 493.823,169.175 495.043,171.100 496.431 C 181.144 503.677,190.972 513.570,197.400 522.905 C 200.315 527.139,200.058 527.139,203.000 522.899 C 208.883 514.416,218.154 504.744,226.040 498.861 C 228.591 496.958,231.201 494.981,231.840 494.469 L 233.000 493.538 231.800 494.233 C 223.482 499.047,210.466 511.683,203.058 522.132 C 201.550 524.260,200.262 526.000,200.196 526.000 C 200.130 526.000,198.820 524.245,197.285 522.100 C 190.141 512.114,180.466 502.480,170.900 495.828 C 169.085 494.566,167.600 493.617,167.600 493.720 " stroke="none" fill="#9bb7d1" fill-rule="evenodd"></path><path id="path4" d="M107.955 232.828 C 107.741 232.960,107.632 237.734,107.694 244.228 L 107.800 255.400 109.900 256.525 C 111.055 257.144,112.000 257.561,112.000 257.450 C 112.000 257.340,111.100 256.760,110.000 256.161 L 108.000 255.073 108.000 244.136 L 108.000 233.200 132.400 233.200 L 156.800 233.200 156.800 244.191 L 156.800 255.182 151.807 258.091 L 146.814 261.000 146.807 348.508 L 146.800 436.015 145.700 435.798 C 144.655 435.592,144.647 435.602,145.537 435.992 C 146.052 436.217,146.637 436.301,146.837 436.177 C 147.053 436.044,147.200 400.497,147.200 348.646 L 147.200 261.339 151.500 258.813 C 153.865 257.424,156.208 256.036,156.706 255.730 L 157.613 255.173 157.506 244.087 L 157.400 233.000 132.861 232.800 C 119.365 232.690,108.157 232.702,107.955 232.828 M168.700 232.724 L 167.200 232.848 167.200 244.213 L 167.200 255.578 172.900 258.489 L 178.600 261.400 178.600 339.184 L 178.600 416.967 173.000 419.256 L 167.400 421.545 167.293 431.291 L 167.186 441.037 171.242 442.537 C 173.472 443.362,175.369 443.964,175.457 443.876 C 175.612 443.722,174.961 443.454,169.900 441.590 L 167.600 440.743 167.600 431.351 L 167.600 421.959 169.100 421.338 C 169.925 420.996,172.535 419.907,174.900 418.917 L 179.200 417.119 179.200 339.170 L 179.200 261.222 173.500 258.311 L 167.800 255.400 167.694 244.300 L 167.587 233.200 212.797 233.200 L 258.007 233.200 257.903 255.500 L 257.800 277.800 247.978 277.907 L 238.156 278.014 235.821 270.797 C 234.537 266.828,233.417 263.650,233.332 263.734 C 233.120 263.947,237.507 277.667,237.920 278.080 C 238.104 278.264,242.742 278.366,248.227 278.307 L 258.200 278.200 258.303 255.823 C 258.360 243.516,258.260 233.300,258.080 233.120 C 257.780 232.820,172.125 232.441,168.700 232.724 M41.600 244.117 L 41.600 255.433 43.809 256.517 C 46.789 257.978,47.185 257.864,44.300 256.374 L 42.000 255.187 42.000 244.190 L 42.000 233.193 61.874 233.296 L 81.748 233.400 83.099 237.741 C 83.843 240.129,84.524 242.009,84.613 241.920 C 84.702 241.831,84.144 239.743,83.372 237.279 L 81.969 232.800 61.785 232.800 L 41.600 232.800 41.600 244.117 M268.267 233.067 C 267.901 233.432,267.939 254.892,268.306 255.434 C 268.468 255.673,270.985 257.106,273.900 258.618 L 279.200 261.369 279.200 330.804 L 279.200 400.239 276.500 402.469 C 275.015 403.695,272.135 406.075,270.100 407.758 L 266.400 410.818 266.400 421.985 C 266.400 428.127,266.535 433.236,266.700 433.339 C 266.865 433.441,266.950 428.447,266.888 422.240 L 266.777 410.957 272.711 406.112 C 275.975 403.448,278.861 401.008,279.124 400.691 C 279.492 400.248,279.579 384.050,279.501 330.580 L 279.400 261.044 274.000 258.186 L 268.600 255.327 268.494 244.266 L 268.387 233.206 294.694 233.100 L 321.000 232.994 294.767 232.897 C 280.338 232.844,268.413 232.920,268.267 233.067 M84.825 242.538 C 84.782 243.117,90.063 259.270,90.239 259.095 C 90.330 259.003,89.340 255.615,88.040 251.564 C 85.637 244.081,84.871 241.931,84.825 242.538 M318.900 256.226 C 317.965 256.787,317.200 257.329,317.200 257.431 C 317.200 257.729,320.321 256.052,320.596 255.606 C 320.952 255.031,320.807 255.084,318.900 256.226 M46.927 257.881 C 47.036 258.059,48.583 258.914,50.363 259.782 L 53.600 261.360 53.598 322.980 L 53.596 384.600 47.963 386.792 C 44.835 388.009,42.167 389.287,41.965 389.666 C 41.529 390.481,41.481 407.994,41.913 408.673 C 42.229 409.170,48.729 411.004,49.047 410.686 C 49.148 410.585,48.369 410.290,47.315 410.030 C 46.262 409.770,44.725 409.380,43.900 409.163 L 42.400 408.769 42.407 399.085 L 42.415 389.400 48.035 387.222 C 51.161 386.010,53.817 384.741,54.020 384.362 C 54.418 383.618,54.553 263.145,54.158 261.800 C 54.026 261.352,52.928 260.491,51.661 259.842 C 48.652 258.301,46.682 257.485,46.927 257.881 M113.000 258.199 C 113.440 258.565,114.835 259.393,116.100 260.038 L 118.400 261.212 118.394 302.706 C 118.390 331.807,118.262 344.021,117.968 343.600 C 117.646 343.141,117.611 343.235,117.819 344.000 C 117.968 344.550,118.250 345.171,118.445 345.380 C 118.652 345.601,118.800 328.137,118.800 303.529 C 118.800 270.220,118.694 261.215,118.300 260.906 C 117.355 260.166,112.200 257.533,113.000 258.199 M313.501 259.310 L 310.402 261.000 310.401 326.300 C 310.400 386.388,310.452 391.600,311.052 391.600 C 311.984 391.600,318.040 389.907,317.836 389.703 C 317.743 389.610,316.300 389.908,314.629 390.367 C 312.958 390.825,311.413 391.200,311.196 391.200 C 310.936 391.200,310.800 368.790,310.800 326.236 L 310.800 261.272 313.800 259.626 C 315.450 258.720,316.800 257.894,316.800 257.790 C 316.800 257.507,316.837 257.490,313.501 259.310 M90.425 259.736 C 90.381 260.322,95.274 275.260,95.451 275.082 C 95.545 274.989,94.646 271.872,93.454 268.156 C 91.261 261.320,90.471 259.125,90.425 259.736 M208.984 260.100 C 208.879 260.375,208.839 272.120,208.896 286.200 L 209.000 311.800 217.762 311.800 L 226.525 311.800 229.892 306.900 L 233.259 302.000 240.030 302.000 L 246.800 302.000 246.800 325.200 L 246.800 348.400 239.843 348.400 C 234.646 348.400,232.837 348.273,232.693 347.900 C 232.433 347.225,227.553 340.400,227.330 340.400 C 227.078 340.400,227.425 340.943,230.336 345.100 L 232.927 348.800 240.067 348.800 L 247.206 348.800 247.103 325.300 L 247.000 301.800 240.000 301.695 L 233.000 301.591 230.400 305.441 C 228.970 307.560,227.379 309.812,226.864 310.446 L 225.929 311.600 217.764 311.600 L 209.600 311.600 209.600 285.800 L 209.600 260.000 220.767 260.000 C 229.326 260.000,231.980 260.117,232.135 260.500 C 232.256 260.799,232.350 260.718,232.368 260.300 C 232.409 259.394,209.329 259.197,208.984 260.100 M96.000 276.969 C 96.000 277.617,100.891 292.442,101.052 292.281 C 101.146 292.188,100.149 288.737,98.836 284.614 C 96.701 277.906,96.000 276.017,96.000 276.969 M101.600 294.237 C 101.600 294.860,106.116 308.417,106.272 308.262 C 106.474 308.060,102.037 294.000,101.771 294.000 C 101.677 294.000,101.600 294.107,101.600 294.237 M106.800 310.278 C 106.800 310.550,114.808 335.345,116.494 340.295 C 116.962 341.667,117.418 342.716,117.508 342.626 C 117.598 342.536,115.663 336.283,113.209 328.731 C 110.755 321.179,108.384 313.875,107.941 312.500 C 107.224 310.278,106.800 309.452,106.800 310.278 M82.404 353.377 C 82.397 375.792,82.537 389.510,82.780 389.962 C 82.993 390.361,85.695 392.629,88.784 395.002 L 94.400 399.316 94.400 410.685 C 94.400 421.327,94.355 422.040,93.700 421.841 C 91.843 421.274,74.058 416.803,73.751 416.825 C 72.900 416.887,75.743 417.699,84.802 419.984 C 90.137 421.330,94.595 422.339,94.707 422.226 C 94.935 421.998,94.972 399.220,94.745 399.044 C 94.665 398.983,92.620 397.428,90.200 395.588 C 87.780 393.749,85.215 391.784,84.500 391.222 L 83.200 390.200 83.230 355.000 C 83.259 319.817,83.260 319.801,84.039 321.400 C 84.468 322.280,84.737 322.704,84.638 322.342 C 82.404 314.203,82.418 314.017,82.404 353.377 M84.826 323.399 C 84.778 324.132,87.331 331.407,87.480 330.960 C 87.560 330.718,87.002 328.828,86.240 326.760 C 85.477 324.692,84.841 323.180,84.826 323.399 M87.600 331.776 C 87.600 332.230,92.542 346.673,92.878 347.200 C 93.387 347.998,93.430 348.142,90.426 339.100 C 88.296 332.690,87.600 330.887,87.600 331.776 M209.067 339.467 C 208.920 339.613,208.800 358.939,208.800 382.413 L 208.800 425.092 209.694 426.246 C 210.185 426.881,212.525 429.708,214.893 432.528 C 217.261 435.349,219.295 438.049,219.412 438.528 C 219.959 440.768,219.410 459.801,218.800 459.726 C 218.470 459.685,216.961 459.184,215.446 458.613 C 213.932 458.042,212.624 457.643,212.539 457.727 C 212.236 458.031,219.144 460.482,219.567 460.221 C 219.861 460.039,220.000 456.427,220.000 448.976 L 220.000 437.999 214.800 431.815 L 209.600 425.631 209.600 382.601 L 209.600 339.570 218.362 339.685 C 223.182 339.748,227.041 339.665,226.939 339.500 C 226.709 339.129,209.436 339.097,209.067 339.467 M93.211 348.200 C 93.178 348.845,95.714 356.019,95.907 355.827 C 96.003 355.730,95.675 354.425,95.177 352.926 C 94.124 349.753,93.240 347.628,93.211 348.200 M336.938 351.817 C 336.808 352.157,336.813 352.547,336.951 352.684 C 337.088 352.821,337.200 352.633,337.200 352.267 C 337.200 351.661,338.173 351.600,347.800 351.600 L 358.400 351.600 358.400 380.139 L 358.400 408.677 354.188 409.794 C 351.872 410.408,350.051 410.984,350.142 411.075 C 350.321 411.255,356.142 409.830,357.789 409.204 L 358.800 408.820 358.800 380.010 L 358.800 351.200 347.987 351.200 C 338.611 351.200,337.143 351.282,336.938 351.817 M336.298 355.400 C 336.152 356.500,335.844 358.840,335.611 360.600 C 335.379 362.360,334.920 366.140,334.592 369.000 C 333.895 375.065,332.819 383.429,332.579 384.646 C 332.458 385.256,331.904 385.635,330.594 386.002 C 328.231 386.663,328.540 386.978,330.956 386.369 C 332.310 386.028,332.861 385.673,333.001 385.051 C 333.413 383.228,336.820 354.601,336.694 354.018 C 336.621 353.678,336.443 354.300,336.298 355.400 M96.187 357.200 C 96.956 359.893,101.333 372.400,101.461 372.273 C 101.643 372.090,96.514 356.774,96.159 356.442 C 96.017 356.309,96.029 356.650,96.187 357.200 M101.625 372.951 C 101.611 373.144,103.413 378.634,105.628 385.151 C 107.843 391.668,110.107 398.412,110.657 400.137 C 111.208 401.863,111.752 403.182,111.865 403.068 C 111.979 402.954,109.912 396.502,107.272 388.731 C 102.354 374.254,101.669 372.341,101.625 372.951 M323.485 387.896 C 321.552 388.450,320.052 388.985,320.151 389.084 C 320.331 389.264,328.051 387.270,328.367 386.962 C 328.765 386.575,326.744 386.961,323.485 387.896 M112.189 404.400 C 113.465 408.817,117.600 420.361,117.600 419.506 C 117.600 419.032,112.391 403.859,112.152 403.635 C 112.014 403.506,112.031 403.850,112.189 404.400 M52.843 411.776 C 52.939 411.873,55.174 412.491,57.809 413.150 C 60.444 413.809,64.396 414.810,66.591 415.374 C 70.553 416.393,71.501 416.568,71.151 416.217 C 70.918 415.985,53.845 411.600,53.171 411.600 C 52.894 411.600,52.746 411.679,52.843 411.776 M343.600 412.588 C 341.730 413.100,337.990 414.101,335.288 414.814 C 332.586 415.526,330.453 416.186,330.546 416.280 C 330.733 416.466,347.622 412.111,347.938 411.795 C 348.313 411.421,346.975 411.665,343.600 412.588 M318.496 419.289 C 313.598 420.628,309.669 421.802,309.763 421.896 C 309.940 422.073,324.142 418.373,327.000 417.405 C 330.696 416.154,326.805 417.015,318.496 419.289 M118.025 421.399 C 117.994 421.893,119.902 427.626,120.313 428.273 C 120.478 428.533,121.870 429.099,123.407 429.532 C 124.943 429.965,128.689 431.073,131.731 431.995 C 134.772 432.918,137.332 433.601,137.419 433.514 C 137.506 433.427,134.748 432.498,131.289 431.450 C 119.521 427.885,120.789 428.531,119.771 425.576 C 118.638 422.285,118.057 420.895,118.025 421.399 M305.200 422.860 C 304.430 423.073,300.691 424.073,296.892 425.082 C 293.092 426.091,290.065 426.998,290.165 427.098 C 290.352 427.285,303.366 423.963,306.200 423.004 C 308.032 422.385,307.299 422.279,305.200 422.860 M277.883 430.122 C 272.868 431.479,268.938 432.646,269.150 432.717 C 269.548 432.849,287.632 428.102,287.953 427.780 C 288.378 427.355,286.489 427.795,277.883 430.122 M139.838 434.357 C 140.959 434.771,142.489 435.219,143.238 435.352 C 144.240 435.531,144.061 435.397,142.562 434.843 C 141.441 434.429,139.911 433.981,139.162 433.848 C 138.160 433.669,138.339 433.803,139.838 434.357 M176.059 444.192 C 176.415 444.549,191.279 450.055,191.442 449.891 C 191.614 449.719,189.329 448.805,181.272 445.824 C 176.481 444.050,175.660 443.793,176.059 444.192 M192.071 450.174 C 192.529 450.683,205.230 455.304,205.481 455.052 C 205.561 454.972,202.786 453.863,199.313 452.588 C 191.620 449.763,191.737 449.802,192.071 450.174 M206.508 455.636 C 207.499 456.213,211.700 457.634,211.880 457.453 C 212.034 457.299,206.573 455.190,206.077 455.212 C 205.925 455.219,206.118 455.410,206.508 455.636 " stroke="none" fill="#f5a1a4" fill-rule="evenodd"></path></g></svg>