<svg id="svg" version="1.1" xmlns="http://www.w3.org/2000/svg" xmlns:xlink="http://www.w3.org/1999/xlink" width="400" height="300" viewBox="0, 0, 400,300"><g id="svgg"><path id="path0" d="M259.415 62.287 C 258.590 62.347,255.686 62.543,252.963 62.722 C 237.259 63.757,219.335 66.170,203.809 69.341 C 197.211 70.689,185.443 73.422,185.202 73.662 C 185.117 73.748,186.391 78.511,188.033 84.246 L 191.020 94.674 192.359 94.656 C 193.096 94.647,196.332 94.394,199.550 94.094 C 210.403 93.084,220.556 93.845,230.158 96.389 C 233.489 97.272,233.337 97.366,227.686 97.924 C 217.587 98.921,196.801 103.237,194.121 104.893 C 193.994 104.971,194.140 105.810,194.445 106.756 C 194.750 107.703,195.967 111.718,197.150 115.679 C 198.333 119.640,199.347 122.927,199.402 122.983 C 199.458 123.039,201.168 122.737,203.203 122.313 C 223.903 117.995,239.356 118.947,254.989 125.503 C 257.856 126.705,257.737 126.931,254.239 126.936 C 248.381 126.944,237.249 128.116,230.158 129.472 C 220.850 131.251,212.675 133.602,200.150 138.099 C 190.959 141.399,181.691 144.472,178.158 145.391 C 174.422 146.363,174.416 146.522,178.095 147.012 C 196.460 149.459,219.977 155.718,237.359 162.786 C 245.886 166.253,245.337 165.869,245.793 168.687 C 247.444 178.888,246.984 189.335,244.270 203.301 C 243.950 204.951,243.127 209.340,242.443 213.053 C 241.759 216.767,240.596 222.168,239.859 225.056 C 237.409 234.659,237.933 235.133,249.512 233.773 C 258.818 232.680,265.856 233.714,275.239 237.553 C 278.230 238.777,284.874 240.612,290.173 241.678 C 294.113 242.471,297.513 242.582,300.675 242.021 C 302.243 241.743,304.865 241.323,306.501 241.088 C 312.648 240.206,319.887 237.866,323.756 235.511 C 329.479 232.028,330.689 230.861,336.228 223.471 C 341.352 216.636,342.473 208.813,338.985 204.240 L 338.228 203.248 339.677 198.734 C 341.124 194.229,341.126 194.215,340.847 191.723 C 340.488 188.515,340.077 189.037,345.650 185.628 C 348.311 184.000,350.488 182.528,350.488 182.356 C 350.488 182.184,349.070 176.457,347.337 169.629 C 345.604 162.801,344.189 157.051,344.192 156.852 C 344.195 156.652,346.727 155.080,349.818 153.358 C 360.281 147.529,362.850 146.031,362.943 145.708 C 362.994 145.531,363.854 141.875,364.854 137.584 C 367.273 127.207,369.273 118.659,373.449 100.844 C 381.157 67.959,380.545 70.999,379.370 71.447 C 372.513 74.057,362.594 75.474,352.888 75.232 C 343.538 74.998,339.157 74.250,321.080 69.799 C 296.280 63.692,275.276 61.134,259.415 62.287 M339.972 90.248 C 342.141 99.384,342.580 101.120,342.773 101.312 C 342.883 101.423,346.866 102.472,351.623 103.645 C 356.381 104.817,360.300 105.911,360.333 106.077 C 360.367 106.242,357.118 107.615,353.115 109.128 C 349.112 110.641,345.660 111.991,345.445 112.129 C 345.135 112.327,345.491 114.472,347.174 122.552 C 348.340 128.148,349.221 132.800,349.131 132.890 C 349.041 132.980,347.453 131.571,345.601 129.759 C 343.750 127.947,340.173 124.443,337.652 121.972 C 335.131 119.501,332.892 117.440,332.677 117.392 C 332.294 117.307,328.905 118.491,317.842 122.578 C 314.822 123.693,312.272 124.525,312.175 124.428 C 312.077 124.330,314.446 120.526,317.439 115.975 C 320.432 111.423,322.881 107.623,322.881 107.530 C 322.881 107.436,320.160 104.537,316.835 101.086 C 313.509 97.636,310.881 94.721,310.994 94.608 C 311.106 94.495,315.259 95.312,320.222 96.424 C 326.598 97.852,329.356 98.354,329.619 98.136 C 329.824 97.966,331.926 95.193,334.291 91.974 C 336.655 88.755,338.680 86.122,338.791 86.122 C 338.902 86.122,339.433 87.978,339.972 90.248 M308.981 145.258 C 314.287 145.984,320.278 149.137,316.354 149.138 C 309.147 149.139,303.589 152.736,300.986 159.082 C 300.466 160.350,299.936 161.040,298.873 161.834 C 297.595 162.787,295.274 165.295,295.274 165.722 C 295.274 165.815,296.523 165.387,298.050 164.772 C 302.232 163.086,305.834 162.089,309.827 161.511 L 313.428 160.990 313.508 160.090 C 313.774 157.065,314.442 156.039,316.145 156.039 C 317.609 156.039,319.287 157.603,319.547 159.208 L 319.738 160.390 321.836 160.477 C 324.413 160.583,324.882 160.282,325.258 158.279 C 326.325 152.590,329.736 148.905,334.452 148.347 L 335.966 148.167 336.446 149.928 C 337.461 153.652,343.660 178.117,343.697 178.545 C 343.729 178.921,342.677 179.060,337.284 179.392 C 329.258 179.886,329.786 179.764,328.607 181.405 C 327.413 183.068,327.100 182.760,331.601 184.354 L 335.334 185.675 335.587 187.523 C 335.959 190.242,336.114 190.138,331.384 190.330 C 328.572 190.444,326.431 190.707,324.751 191.146 L 322.269 191.793 320.764 190.440 C 318.568 188.465,316.331 187.893,315.568 189.111 C 315.297 189.543,315.697 190.048,318.088 192.294 C 319.651 193.762,321.779 196.044,322.816 197.365 C 323.854 198.686,325.238 200.197,325.892 200.723 L 327.082 201.679 327.079 200.389 C 327.076 198.997,326.025 196.438,324.796 194.826 C 323.894 193.644,324.093 193.620,326.369 194.634 C 328.130 195.419,328.136 195.420,332.483 195.119 C 334.876 194.954,336.925 194.871,337.035 194.936 C 337.299 195.092,334.889 201.050,334.562 201.050 C 333.844 201.050,333.958 203.114,334.761 204.648 C 338.676 212.136,333.005 224.005,323.181 228.889 L 320.930 230.008 317.029 229.973 C 313.485 229.942,306.484 228.866,303.518 227.896 C 303.138 227.772,303.302 228.033,303.976 228.626 C 305.149 229.658,309.732 232.000,311.721 232.584 C 317.069 234.154,300.705 234.472,290.736 232.992 C 275.279 230.696,260.942 220.004,259.071 209.375 C 256.633 195.531,269.542 176.793,282.585 175.243 C 285.818 174.859,296.911 175.506,298.538 176.174 C 299.573 176.598,299.715 176.237,298.688 175.793 C 298.213 175.587,297.337 174.991,296.741 174.469 C 293.842 171.930,285.078 170.884,278.989 172.350 C 276.837 172.869,276.865 172.910,276.719 169.046 C 276.402 160.679,280.830 152.543,287.772 148.739 C 293.320 145.699,301.909 144.289,308.981 145.258 " stroke="none" fill="#05244c" fill-rule="evenodd"></path><path id="path1" d="M0.000 150.038 L 0.000 300.075 200.000 300.075 L 400.000 300.075 400.000 150.038 L 400.000 0.000 200.000 0.000 L 0.000 0.000 0.000 150.038 M284.359 62.552 C 296.106 63.733,303.141 65.048,321.438 69.482 C 350.449 76.513,359.535 76.820,378.172 71.401 C 379.453 71.028,380.577 70.799,380.669 70.892 C 380.806 71.028,378.697 80.335,376.437 89.572 C 376.195 90.563,375.313 94.411,374.477 98.125 C 372.968 104.834,371.969 109.086,370.285 115.979 C 369.801 117.959,368.929 121.673,368.348 124.231 C 367.766 126.789,366.957 130.300,366.548 132.033 C 366.140 133.766,365.331 137.209,364.750 139.685 C 363.041 146.968,363.551 146.091,359.864 148.091 C 358.090 149.054,356.302 150.068,355.889 150.345 C 355.476 150.622,352.776 152.164,349.887 153.771 C 346.999 155.378,344.606 156.723,344.569 156.758 C 344.498 156.827,347.052 167.036,349.570 176.744 C 350.994 182.237,351.055 182.620,350.562 182.992 C 350.274 183.210,348.147 184.539,345.836 185.946 C 340.393 189.260,340.828 188.712,341.231 191.754 L 341.568 194.299 340.177 198.337 C 338.563 203.018,338.541 203.225,339.525 204.514 C 342.649 208.611,341.707 216.754,337.461 222.356 C 336.773 223.263,335.718 224.749,335.117 225.656 C 332.541 229.546,329.757 232.156,324.782 235.344 C 321.607 237.379,320.666 237.798,316.879 238.861 C 314.981 239.394,312.641 240.090,311.678 240.407 C 310.715 240.724,308.554 241.184,306.877 241.429 C 305.199 241.674,302.746 242.091,301.425 242.356 C 296.389 243.367,292.901 242.906,279.370 239.442 C 278.792 239.295,277.239 238.748,275.919 238.228 C 264.638 233.784,258.378 232.976,246.640 234.449 C 237.383 235.611,236.813 234.519,240.254 222.206 C 240.943 219.737,244.775 198.587,245.799 191.598 C 246.644 185.828,246.113 169.672,244.981 166.722 C 244.586 165.691,228.611 159.556,217.854 156.304 C 204.896 152.387,191.885 149.460,179.295 147.632 C 172.284 146.613,172.230 146.518,177.834 145.070 C 181.893 144.022,187.910 142.031,200.312 137.634 C 221.503 130.121,238.283 126.632,253.217 126.632 C 256.791 126.632,256.631 126.413,251.759 124.644 C 237.002 119.284,223.235 118.642,204.689 122.446 C 202.317 122.933,200.068 123.331,199.692 123.331 C 198.940 123.331,199.211 124.059,196.399 114.479 C 195.623 111.838,194.651 108.618,194.237 107.323 C 193.326 104.473,192.993 104.790,198.650 103.124 C 207.423 100.541,215.800 98.895,225.620 97.825 C 228.653 97.495,231.219 97.212,231.322 97.197 C 231.695 97.144,228.436 96.297,225.656 95.726 C 216.895 93.925,203.337 93.671,193.323 95.119 C 192.209 95.280,191.207 95.415,191.097 95.418 C 190.843 95.425,190.364 93.922,188.466 87.172 C 187.631 84.201,186.414 79.948,185.761 77.720 C 184.383 73.020,184.238 73.356,188.048 72.428 C 205.086 68.280,223.800 65.060,240.960 63.325 C 246.027 62.813,248.996 62.574,257.464 61.995 C 261.312 61.732,280.066 62.120,284.359 62.552 M182.609 79.370 C 186.455 91.147,187.807 95.583,187.610 95.772 C 187.493 95.884,185.304 96.398,182.746 96.914 C 180.188 97.430,177.419 98.051,176.594 98.295 C 175.769 98.538,173.406 99.194,171.343 99.753 C 165.810 101.252,156.256 104.173,150.788 106.038 C 138.414 110.259,133.289 112.024,128.432 113.740 C 91.241 126.875,66.426 132.965,38.110 135.907 C 24.594 137.312,1.847 137.459,6.227 136.113 C 6.515 136.024,8.507 135.479,10.653 134.901 C 21.485 131.983,37.044 127.033,49.812 122.442 C 52.206 121.582,54.906 120.627,55.814 120.320 C 56.722 120.014,58.882 119.207,60.615 118.528 C 62.348 117.849,66.737 116.163,70.368 114.782 C 73.998 113.400,80.008 111.035,83.721 109.526 C 87.434 108.016,91.148 106.535,91.973 106.235 C 92.798 105.935,94.824 105.128,96.474 104.442 C 99.123 103.342,112.027 98.179,119.580 95.198 C 138.189 87.854,160.700 80.014,172.393 76.805 C 174.869 76.125,177.637 75.320,178.545 75.014 C 180.993 74.191,180.878 74.068,182.609 79.370 M337.879 87.647 C 333.878 93.367,329.640 98.725,329.116 98.725 C 328.788 98.725,327.757 98.529,326.825 98.290 C 325.893 98.051,322.228 97.236,318.680 96.477 C 315.131 95.719,312.026 95.029,311.778 94.944 C 311.286 94.775,312.183 95.762,317.669 101.421 C 321.937 105.823,323.181 107.236,323.181 107.681 C 323.181 107.859,320.828 111.553,317.951 115.890 C 315.075 120.227,312.759 123.812,312.804 123.857 C 312.897 123.949,322.366 120.575,328.566 118.241 L 332.600 116.722 333.814 117.851 C 334.482 118.472,336.920 120.809,339.232 123.046 C 341.544 125.282,344.629 128.252,346.087 129.647 L 348.739 132.183 348.526 130.983 C 348.409 130.323,347.714 126.947,346.981 123.481 C 344.827 113.290,344.644 112.249,344.952 111.954 C 345.237 111.681,354.459 108.121,359.308 106.413 C 360.197 106.099,360.096 106.068,351.227 103.952 C 341.444 101.619,342.376 102.211,341.342 97.674 C 338.551 85.431,338.841 86.272,337.879 87.647 M193.903 114.629 C 195.352 119.332,196.541 123.408,196.544 123.686 C 196.550 124.295,197.111 124.114,188.311 126.347 C 184.358 127.351,181.040 128.224,180.938 128.287 C 178.699 129.670,146.637 136.528,136.084 137.881 C 121.433 139.758,90.576 140.382,92.191 138.767 C 92.283 138.675,93.487 138.417,94.866 138.194 C 100.987 137.203,110.936 135.011,115.529 133.641 C 120.154 132.262,132.138 128.377,134.584 127.465 C 140.134 125.394,147.269 122.612,152.888 120.330 C 177.799 110.209,189.180 105.879,190.533 106.007 C 191.225 106.072,191.425 106.586,193.903 114.629 " stroke="none" fill="#fbfbfb" fill-rule="evenodd"></path><path id="path2" d="M174.494 76.524 C 158.125 81.262,145.001 85.744,126.182 93.023 C 123.541 94.045,120.030 95.390,118.380 96.014 C 116.729 96.637,105.791 100.998,94.074 105.706 C 82.356 110.413,71.283 114.830,69.467 115.521 C 46.155 124.396,26.573 130.972,11.703 134.921 C 9.475 135.513,7.449 136.124,7.202 136.279 C 6.918 136.457,11.299 136.513,19.055 136.429 C 40.822 136.195,58.489 133.738,83.271 127.501 C 96.531 124.163,109.283 120.083,140.885 109.068 C 146.977 106.944,156.457 103.808,161.140 102.367 C 171.424 99.202,175.690 98.082,184.844 96.145 C 186.080 95.884,187.181 95.615,187.290 95.547 C 187.399 95.480,186.698 93.028,185.732 90.098 C 184.767 87.168,183.299 82.622,182.471 79.995 C 181.643 77.368,180.859 75.121,180.730 75.003 C 180.601 74.884,177.794 75.569,174.494 76.524 M183.796 108.460 C 177.461 110.773,169.669 113.835,157.539 118.780 C 146.024 123.474,142.989 124.677,138.485 126.331 C 136.174 127.180,133.608 128.127,132.783 128.436 C 126.480 130.796,114.732 134.299,107.277 136.042 C 103.364 136.956,101.407 137.360,95.274 138.517 L 94.074 138.744 95.574 138.966 C 97.912 139.312,115.422 139.299,120.930 138.947 C 139.366 137.768,155.362 134.826,181.469 127.811 C 185.382 126.759,194.245 124.463,195.197 124.254 C 196.495 123.969,196.496 123.973,193.612 114.779 C 191.377 107.655,190.887 106.368,190.387 106.323 C 190.063 106.294,187.097 107.256,183.796 108.460 " stroke="none" fill="#da2425" fill-rule="evenodd"></path><path id="path3" d="M259.783 62.032 C 260.316 62.098,261.261 62.099,261.884 62.034 C 262.506 61.969,262.071 61.915,260.915 61.914 C 259.760 61.913,259.251 61.966,259.783 62.032 M272.543 62.030 C 272.997 62.099,273.740 62.099,274.194 62.030 C 274.647 61.962,274.276 61.905,273.368 61.905 C 272.461 61.905,272.089 61.962,272.543 62.030 M253.638 62.322 C 253.927 62.398,254.400 62.398,254.689 62.322 C 254.977 62.247,254.741 62.185,254.164 62.185 C 253.586 62.185,253.350 62.247,253.638 62.322 M279.298 62.328 C 279.672 62.400,280.212 62.397,280.499 62.322 C 280.786 62.247,280.480 62.188,279.820 62.191 C 279.160 62.195,278.925 62.256,279.298 62.328 M249.591 62.628 C 249.964 62.700,250.504 62.697,250.791 62.622 C 251.078 62.547,250.773 62.488,250.113 62.491 C 249.452 62.495,249.218 62.556,249.591 62.628 M283.046 62.622 C 283.335 62.698,283.807 62.698,284.096 62.622 C 284.385 62.547,284.149 62.485,283.571 62.485 C 282.993 62.485,282.757 62.547,283.046 62.622 M245.990 62.928 C 246.363 63.000,246.903 62.997,247.190 62.922 C 247.477 62.847,247.172 62.788,246.512 62.791 C 245.851 62.795,245.617 62.856,245.990 62.928 M348.316 74.931 C 348.689 75.003,349.229 75.000,349.516 74.925 C 349.803 74.850,349.497 74.791,348.837 74.794 C 348.177 74.798,347.942 74.859,348.316 74.931 M360.919 74.931 C 361.292 75.003,361.832 75.000,362.119 74.925 C 362.406 74.850,362.101 74.791,361.440 74.794 C 360.780 74.798,360.545 74.859,360.919 74.931 M352.963 75.241 C 354.077 75.299,355.900 75.299,357.014 75.241 C 358.128 75.184,357.217 75.136,354.989 75.136 C 352.761 75.136,351.849 75.184,352.963 75.241 M169.092 77.719 C 168.714 77.882,168.659 77.977,168.942 77.977 C 169.190 77.977,169.662 77.861,169.992 77.719 C 170.371 77.557,170.426 77.462,170.143 77.462 C 169.895 77.462,169.422 77.578,169.092 77.719 M181.888 77.719 C 181.888 77.967,182.004 78.440,182.146 78.770 C 182.308 79.148,182.403 79.203,182.403 78.920 C 182.403 78.672,182.287 78.200,182.146 77.869 C 181.983 77.491,181.888 77.436,181.888 77.719 M165.641 78.770 C 164.569 79.157,163.833 79.484,164.008 79.496 C 164.182 79.509,165.262 79.192,166.408 78.792 C 167.554 78.392,168.290 78.065,168.042 78.065 C 167.794 78.066,166.714 78.383,165.641 78.770 M182.793 80.570 C 182.792 80.735,182.973 81.343,183.196 81.920 C 183.418 82.498,183.604 82.768,183.610 82.521 C 183.615 82.273,183.433 81.665,183.207 81.170 C 182.980 80.675,182.794 80.405,182.793 80.570 M147.993 84.526 C 146.786 84.943,145.852 85.337,145.917 85.402 C 146.044 85.529,150.335 84.123,150.586 83.872 C 150.863 83.596,150.210 83.761,147.993 84.526 M142.386 86.582 C 141.635 86.944,141.610 86.985,142.236 86.832 C 143.086 86.625,144.042 86.137,143.586 86.144 C 143.421 86.147,142.881 86.344,142.386 86.582 M139.985 87.482 C 139.235 87.844,139.210 87.886,139.835 87.733 C 140.685 87.525,141.641 87.038,141.185 87.044 C 141.020 87.047,140.480 87.244,139.985 87.482 M135.484 89.106 C 134.824 89.418,134.419 89.675,134.584 89.676 C 134.993 89.679,137.361 88.570,136.984 88.552 C 136.819 88.544,136.144 88.793,135.484 89.106 M126.088 92.628 C 125.376 92.880,124.847 93.139,124.912 93.204 C 125.049 93.341,127.832 92.427,127.832 92.245 C 127.832 92.057,127.491 92.132,126.088 92.628 M203.076 94.143 C 203.777 94.206,204.925 94.206,205.626 94.143 C 206.328 94.080,205.754 94.028,204.351 94.028 C 202.948 94.028,202.374 94.080,203.076 94.143 M209.677 94.145 C 210.544 94.205,211.962 94.205,212.828 94.145 C 213.695 94.084,212.986 94.034,211.253 94.034 C 209.520 94.034,208.811 94.084,209.677 94.145 M198.875 94.435 C 199.246 94.507,199.854 94.507,200.225 94.435 C 200.596 94.364,200.293 94.305,199.550 94.305 C 198.807 94.305,198.503 94.364,198.875 94.435 M216.279 94.435 C 216.650 94.507,217.258 94.507,217.629 94.435 C 218.001 94.364,217.697 94.305,216.954 94.305 C 216.212 94.305,215.908 94.364,216.279 94.435 M120.180 94.984 C 119.430 95.346,119.405 95.387,120.030 95.235 C 120.880 95.027,121.836 94.540,121.380 94.546 C 121.215 94.549,120.675 94.746,120.180 94.984 M219.130 94.730 C 219.419 94.806,219.891 94.806,220.180 94.730 C 220.469 94.655,220.233 94.593,219.655 94.593 C 219.077 94.593,218.841 94.655,219.130 94.730 M311.201 94.686 C 311.188 94.858,311.819 95.601,312.603 96.337 L 314.028 97.674 312.870 96.427 C 312.067 95.564,311.837 95.139,312.120 95.045 C 312.344 94.971,312.298 94.944,312.017 94.985 C 311.736 95.026,311.443 94.906,311.366 94.717 C 311.284 94.516,311.215 94.503,311.201 94.686 M115.529 96.774 C 114.549 97.334,114.892 97.341,116.170 96.786 C 116.725 96.545,116.977 96.347,116.729 96.346 C 116.482 96.346,115.941 96.538,115.529 96.774 M183.046 96.624 C 182.452 96.814,182.421 96.864,182.896 96.864 C 183.226 96.864,183.833 96.756,184.246 96.624 C 184.840 96.434,184.871 96.384,184.396 96.384 C 184.066 96.384,183.458 96.492,183.046 96.624 M230.608 97.224 C 229.712 97.452,229.713 97.454,230.833 97.489 C 231.452 97.508,231.958 97.389,231.958 97.224 C 231.958 96.894,231.907 96.894,230.608 97.224 M175.244 98.425 C 174.641 98.618,174.611 98.667,175.094 98.674 C 175.424 98.679,175.964 98.566,176.294 98.425 C 177.059 98.096,176.270 98.096,175.244 98.425 M109.527 99.175 C 109.115 99.411,108.912 99.604,109.077 99.604 C 109.242 99.604,109.715 99.411,110.128 99.175 C 110.540 98.939,110.743 98.746,110.578 98.746 C 110.413 98.746,109.940 98.939,109.527 99.175 M172.393 99.186 C 171.210 99.595,171.208 99.599,172.243 99.424 C 173.467 99.218,174.719 98.761,174.044 98.767 C 173.796 98.769,173.053 98.958,172.393 99.186 M104.788 101.026 C 102.924 101.781,101.448 102.448,101.508 102.509 C 101.614 102.615,108.347 99.992,108.602 99.746 C 108.942 99.417,107.878 99.774,104.788 101.026 M169.092 100.086 C 167.909 100.496,167.907 100.499,168.942 100.324 C 170.166 100.118,171.418 99.661,170.743 99.667 C 170.495 99.669,169.752 99.858,169.092 100.086 M318.830 102.926 C 320.308 104.411,321.585 105.626,321.668 105.626 C 321.750 105.626,320.608 104.411,319.130 102.926 C 317.651 101.440,316.374 100.225,316.292 100.225 C 316.209 100.225,317.351 101.440,318.830 102.926 M164.591 101.425 C 164.213 101.588,164.157 101.683,164.441 101.683 C 164.689 101.683,165.161 101.567,165.491 101.425 C 165.870 101.263,165.925 101.167,165.641 101.167 C 165.394 101.167,164.921 101.284,164.591 101.425 M161.590 102.326 C 161.212 102.488,161.157 102.583,161.440 102.583 C 161.688 102.583,162.161 102.467,162.491 102.326 C 162.869 102.163,162.924 102.068,162.641 102.068 C 162.393 102.068,161.920 102.184,161.590 102.326 M99.475 103.209 C 98.815 103.522,98.410 103.778,98.575 103.779 C 98.984 103.782,101.352 102.674,100.975 102.656 C 100.810 102.648,100.135 102.897,99.475 103.209 M191.366 107.374 C 191.637 108.222,191.915 108.860,191.983 108.792 C 192.145 108.630,191.451 106.458,191.124 106.104 C 190.986 105.954,191.094 106.525,191.366 107.374 M90.473 106.810 C 89.812 107.123,89.407 107.379,89.572 107.380 C 89.982 107.383,92.350 106.275,91.973 106.257 C 91.808 106.249,91.133 106.498,90.473 106.810 M186.197 107.287 C 185.446 107.649,185.421 107.690,186.047 107.538 C 186.897 107.330,187.853 106.843,187.397 106.849 C 187.232 106.852,186.692 107.049,186.197 107.287 M371.964 107.898 C 371.854 108.338,371.822 108.756,371.892 108.827 C 371.963 108.897,372.111 108.595,372.222 108.156 C 372.332 107.716,372.364 107.298,372.294 107.227 C 372.223 107.157,372.075 107.459,371.964 107.898 M144.786 107.888 C 144.036 108.249,144.011 108.291,144.636 108.138 C 145.486 107.930,146.442 107.443,145.986 107.450 C 145.821 107.452,145.281 107.649,144.786 107.888 M192.394 110.428 C 192.394 110.675,192.576 111.350,192.798 111.928 C 193.021 112.506,193.203 112.776,193.203 112.528 C 193.203 112.281,193.021 111.605,192.798 111.028 C 192.576 110.450,192.394 110.180,192.394 110.428 M170.293 113.289 C 169.542 113.650,169.517 113.692,170.143 113.539 C 170.993 113.331,171.949 112.844,171.493 112.851 C 171.328 112.853,170.788 113.050,170.293 113.289 M193.594 114.329 C 193.594 114.576,193.776 115.251,193.998 115.829 C 194.221 116.407,194.403 116.677,194.403 116.429 C 194.403 116.182,194.221 115.506,193.998 114.929 C 193.776 114.351,193.594 114.081,193.594 114.329 M65.777 116.484 C 64.078 117.154,62.738 117.752,62.799 117.813 C 62.911 117.925,69.038 115.609,69.286 115.360 C 69.599 115.047,68.672 115.344,65.777 116.484 M121.437 115.884 C 120.477 116.218,119.745 116.544,119.809 116.608 C 119.946 116.745,123.631 115.533,123.631 115.351 C 123.631 115.156,123.289 115.239,121.437 115.884 M162.791 116.273 C 161.965 116.661,161.425 116.982,161.590 116.986 C 161.755 116.989,162.566 116.674,163.391 116.286 C 164.216 115.897,164.756 115.576,164.591 115.572 C 164.426 115.569,163.616 115.884,162.791 116.273 M158.440 118.080 C 158.027 118.315,157.824 118.508,157.989 118.508 C 158.155 118.508,158.627 118.315,159.040 118.080 C 159.452 117.844,159.655 117.651,159.490 117.651 C 159.325 117.651,158.852 117.844,158.440 118.080 M112.228 118.980 C 111.650 119.202,111.380 119.384,111.628 119.384 C 111.875 119.384,112.551 119.202,113.128 118.980 C 113.706 118.757,113.976 118.575,113.728 118.575 C 113.481 118.575,112.806 118.757,112.228 118.980 M195.091 119.130 C 195.091 119.377,195.207 119.850,195.349 120.180 C 195.511 120.558,195.607 120.614,195.607 120.330 C 195.607 120.083,195.491 119.610,195.349 119.280 C 195.186 118.902,195.091 118.846,195.091 119.130 M224.681 119.952 C 225.713 120.011,227.401 120.011,228.432 119.952 C 229.464 119.894,228.620 119.846,226.557 119.846 C 224.494 119.846,223.650 119.894,224.681 119.952 M338.485 122.581 C 340.046 124.149,341.391 125.431,341.474 125.431 C 341.556 125.431,340.346 124.149,338.785 122.581 C 337.223 121.013,335.878 119.730,335.796 119.730 C 335.713 119.730,336.923 121.013,338.485 122.581 M107.277 120.656 C 106.452 120.974,106.167 121.159,106.644 121.066 C 107.587 120.883,109.565 120.080,109.077 120.078 C 108.912 120.077,108.102 120.337,107.277 120.656 M218.830 120.237 C 219.119 120.312,219.591 120.312,219.880 120.237 C 220.169 120.161,219.932 120.100,219.355 120.100 C 218.777 120.100,218.541 120.161,218.830 120.237 M215.679 120.542 C 216.050 120.613,216.658 120.613,217.029 120.542 C 217.401 120.470,217.097 120.412,216.354 120.412 C 215.611 120.412,215.308 120.470,215.679 120.542 M102.525 122.036 C 101.727 122.280,101.132 122.537,101.202 122.608 C 101.273 122.678,102.128 122.478,103.103 122.163 C 104.078 121.848,104.674 121.591,104.426 121.592 C 104.179 121.592,103.323 121.792,102.525 122.036 M147.337 122.581 C 146.924 122.817,146.722 123.009,146.887 123.009 C 147.052 123.009,147.524 122.817,147.937 122.581 C 148.350 122.345,148.552 122.152,148.387 122.152 C 148.222 122.152,147.749 122.345,147.337 122.581 M99.025 123.181 C 98.447 123.403,98.177 123.585,98.425 123.585 C 98.672 123.585,99.347 123.403,99.925 123.181 C 100.503 122.958,100.773 122.776,100.525 122.776 C 100.278 122.776,99.602 122.958,99.025 123.181 M46.062 123.792 C 45.311 124.153,45.286 124.195,45.911 124.042 C 46.762 123.834,47.717 123.347,47.262 123.353 C 47.097 123.356,46.557 123.553,46.062 123.792 M143.886 123.953 C 143.226 124.270,143.023 124.446,143.436 124.343 C 144.286 124.131,145.845 123.349,145.386 123.365 C 145.221 123.371,144.546 123.635,143.886 123.953 M95.874 124.085 C 95.214 124.309,93.998 124.698,93.173 124.950 C 92.173 125.255,92.023 125.350,92.723 125.234 C 94.033 125.018,98.138 123.692,97.524 123.684 C 97.277 123.681,96.534 123.861,95.874 124.085 M194.449 124.531 C 193.846 124.724,193.816 124.773,194.299 124.780 C 194.629 124.785,195.169 124.673,195.499 124.531 C 196.264 124.203,195.475 124.203,194.449 124.531 M141.185 124.992 C 140.435 125.353,140.410 125.395,141.035 125.242 C 141.886 125.034,142.841 124.547,142.386 124.554 C 142.221 124.556,141.680 124.753,141.185 124.992 M41.467 125.336 C 40.755 125.588,40.226 125.847,40.290 125.912 C 40.427 126.049,43.211 125.135,43.211 124.953 C 43.211 124.765,42.869 124.840,41.467 125.336 M192.198 125.131 C 191.820 125.294,191.764 125.389,192.048 125.389 C 192.296 125.389,192.768 125.273,193.098 125.131 C 193.477 124.969,193.532 124.873,193.248 124.873 C 193.001 124.873,192.528 124.989,192.198 125.131 M189.797 125.731 C 189.419 125.894,189.364 125.989,189.647 125.989 C 189.895 125.989,190.368 125.873,190.698 125.731 C 191.076 125.569,191.131 125.474,190.848 125.474 C 190.600 125.474,190.128 125.590,189.797 125.731 M88.072 126.332 C 87.694 126.494,87.638 126.589,87.922 126.589 C 88.170 126.589,88.642 126.473,88.972 126.332 C 89.351 126.169,89.406 126.074,89.122 126.074 C 88.875 126.074,88.402 126.190,88.072 126.332 M249.587 126.849 C 250.124 126.915,251.002 126.915,251.538 126.849 C 252.074 126.782,251.635 126.728,250.563 126.728 C 249.490 126.728,249.051 126.782,249.587 126.849 M245.240 127.147 C 245.697 127.216,246.372 127.214,246.741 127.143 C 247.110 127.072,246.737 127.015,245.911 127.018 C 245.086 127.020,244.784 127.078,245.240 127.147 M83.571 127.532 C 83.193 127.694,83.137 127.790,83.421 127.790 C 83.668 127.790,84.141 127.674,84.471 127.532 C 84.849 127.369,84.905 127.274,84.621 127.274 C 84.374 127.274,83.901 127.390,83.571 127.532 M346.280 130.008 C 349.098 132.916,348.987 132.829,348.987 132.133 C 348.987 131.858,348.893 131.727,348.778 131.842 C 348.663 131.957,347.481 131.001,346.152 129.717 L 343.736 127.382 346.280 130.008 M80.420 128.282 C 79.677 128.497,79.340 128.676,79.670 128.680 C 80.000 128.683,80.810 128.508,81.470 128.290 C 83.024 127.778,82.182 127.772,80.420 128.282 M179.445 128.452 C 178.380 128.814,178.163 128.950,178.834 128.835 C 180.052 128.626,182.203 127.870,181.545 127.883 C 181.298 127.887,180.353 128.143,179.445 128.452 M27.007 130.083 C 26.429 130.305,26.159 130.487,26.407 130.487 C 26.654 130.487,27.329 130.305,27.907 130.083 C 28.485 129.860,28.755 129.678,28.507 129.678 C 28.260 129.678,27.584 129.860,27.007 130.083 M73.668 129.932 C 72.904 130.261,73.693 130.261,74.719 129.932 C 75.322 129.739,75.351 129.691,74.869 129.683 C 74.539 129.679,73.998 129.791,73.668 129.932 M173.893 129.932 C 173.515 130.095,173.460 130.190,173.743 130.190 C 173.991 130.190,174.464 130.074,174.794 129.932 C 175.172 129.770,175.227 129.675,174.944 129.675 C 174.696 129.675,174.224 129.791,173.893 129.932 M71.118 130.533 C 70.524 130.723,70.493 130.773,70.968 130.773 C 71.298 130.773,71.905 130.665,72.318 130.533 C 72.912 130.342,72.943 130.292,72.468 130.292 C 72.138 130.292,71.530 130.400,71.118 130.533 M171.493 130.533 C 170.728 130.861,171.517 130.861,172.543 130.533 C 173.146 130.339,173.176 130.291,172.693 130.284 C 172.363 130.279,171.823 130.391,171.493 130.533 M122.787 131.338 C 122.075 131.589,121.546 131.848,121.611 131.913 C 121.676 131.978,122.460 131.771,123.355 131.454 C 124.249 131.136,124.779 130.877,124.531 130.878 C 124.284 130.879,123.499 131.086,122.787 131.338 M166.692 131.733 C 165.927 132.062,166.716 132.062,167.742 131.733 C 168.345 131.540,168.374 131.491,167.892 131.484 C 167.562 131.479,167.022 131.591,166.692 131.733 M164.291 132.333 C 163.526 132.662,164.315 132.662,165.341 132.333 C 165.944 132.140,165.974 132.091,165.491 132.084 C 165.161 132.079,164.621 132.191,164.291 132.333 M15.604 133.521 C 14.696 133.824,14.068 134.086,14.207 134.103 C 14.573 134.147,17.704 133.215,17.704 133.062 C 17.704 132.859,17.366 132.932,15.604 133.521 M115.829 133.521 C 114.921 133.824,114.314 134.084,114.479 134.099 C 114.644 134.113,115.589 133.869,116.579 133.557 C 117.569 133.244,118.177 132.984,117.929 132.979 C 117.682 132.974,116.737 133.218,115.829 133.521 M56.189 133.440 C 56.478 133.516,56.950 133.516,57.239 133.440 C 57.528 133.365,57.292 133.303,56.714 133.303 C 56.137 133.303,55.900 133.365,56.189 133.440 M43.439 135.246 C 43.813 135.318,44.353 135.315,44.640 135.240 C 44.927 135.165,44.621 135.106,43.961 135.109 C 43.301 135.113,43.066 135.174,43.439 135.246 M37.134 135.846 C 37.506 135.917,38.113 135.917,38.485 135.846 C 38.856 135.774,38.552 135.716,37.809 135.716 C 37.067 135.716,36.763 135.774,37.134 135.846 M6.077 136.133 C 5.458 136.382,5.653 136.835,6.377 136.830 C 6.872 136.826,6.943 136.756,6.643 136.566 C 6.297 136.347,6.297 136.281,6.643 136.144 C 6.868 136.055,6.917 135.981,6.752 135.981 C 6.587 135.981,6.283 136.049,6.077 136.133 M34.737 136.146 C 35.110 136.218,35.651 136.215,35.937 136.140 C 36.224 136.065,35.919 136.006,35.259 136.010 C 34.599 136.013,34.364 136.074,34.737 136.146 M29.932 136.454 C 30.634 136.517,31.782 136.517,32.483 136.454 C 33.185 136.391,32.611 136.339,31.208 136.339 C 29.805 136.339,29.231 136.391,29.932 136.454 M24.539 136.754 C 25.245 136.818,26.325 136.817,26.940 136.752 C 27.554 136.688,26.977 136.636,25.656 136.637 C 24.336 136.638,23.833 136.691,24.539 136.754 M12.828 137.058 C 14.355 137.112,16.853 137.112,18.380 137.058 C 19.906 137.003,18.657 136.959,15.604 136.959 C 12.551 136.959,11.302 137.003,12.828 137.058 M140.810 137.041 C 141.099 137.117,141.572 137.117,141.860 137.041 C 142.149 136.966,141.913 136.904,141.335 136.904 C 140.758 136.904,140.521 136.966,140.810 137.041 M136.759 137.646 C 137.131 137.718,137.738 137.718,138.110 137.646 C 138.481 137.575,138.177 137.516,137.434 137.516 C 136.692 137.516,136.388 137.575,136.759 137.646 M131.958 138.246 C 132.329 138.318,132.937 138.318,133.308 138.246 C 133.680 138.175,133.376 138.116,132.633 138.116 C 131.890 138.116,131.587 138.175,131.958 138.246 M92.648 138.541 C 91.913 138.734,91.994 139.191,92.798 139.391 C 93.170 139.483,95.229 139.515,97.374 139.462 L 101.275 139.365 97.299 139.300 C 93.751 139.242,92.348 138.934,93.848 138.541 C 94.278 138.429,94.264 138.404,93.773 138.404 C 93.443 138.404,92.937 138.466,92.648 138.541 M129.261 138.547 C 129.634 138.619,130.174 138.616,130.461 138.541 C 130.748 138.466,130.443 138.407,129.782 138.410 C 129.122 138.414,128.888 138.475,129.261 138.547 M125.506 138.850 C 125.960 138.918,126.703 138.918,127.157 138.850 C 127.611 138.781,127.239 138.725,126.332 138.725 C 125.424 138.725,125.053 138.781,125.506 138.850 M121.755 139.152 C 122.292 139.218,123.170 139.218,123.706 139.152 C 124.242 139.085,123.803 139.031,122.731 139.031 C 121.658 139.031,121.219 139.085,121.755 139.152 M114.716 139.458 C 115.837 139.516,117.592 139.515,118.617 139.457 C 119.642 139.398,118.725 139.351,116.579 139.351 C 114.434 139.352,113.595 139.400,114.716 139.458 M107.955 139.747 C 108.329 139.819,108.869 139.816,109.156 139.741 C 109.443 139.666,109.137 139.607,108.477 139.611 C 107.817 139.614,107.582 139.675,107.955 139.747 M297.524 145.799 C 288.695 147.438,284.800 149.862,280.448 156.425 C 277.807 160.407,277.160 162.658,277.138 167.942 C 277.116 172.901,276.996 172.646,279.084 172.067 C 284.781 170.488,293.539 171.613,297.127 174.384 C 297.734 174.853,298.578 175.395,299.003 175.588 C 299.991 176.039,300.075 176.911,299.100 176.596 C 297.074 175.940,285.728 175.227,282.827 175.574 C 276.541 176.324,271.504 179.646,266.268 186.497 C 260.654 193.841,257.916 204.012,259.684 210.953 C 261.763 219.117,274.099 228.862,286.079 231.804 C 293.344 233.589,306.259 234.318,311.169 233.220 L 312.211 232.987 309.911 232.148 C 308.646 231.687,306.895 230.878,306.019 230.350 C 304.269 229.296,300.857 226.658,301.575 226.915 C 309.109 229.605,319.450 230.471,322.881 228.699 C 332.937 223.504,338.125 212.780,334.458 204.770 C 333.630 202.961,333.623 201.698,334.437 200.750 C 334.891 200.221,336.829 195.391,336.654 195.224 C 336.588 195.161,334.665 195.248,332.381 195.418 C 328.348 195.717,328.185 195.706,326.755 195.036 C 324.913 194.173,324.800 194.290,325.897 195.922 C 327.162 197.806,328.008 201.950,327.127 201.950 C 326.609 201.950,323.961 199.323,321.976 196.838 C 320.093 194.482,318.520 192.884,316.032 190.800 C 314.954 189.897,314.798 188.918,315.659 188.458 C 316.962 187.760,319.060 188.481,321.296 190.395 L 322.516 191.440 324.874 190.830 C 326.374 190.442,328.739 190.154,331.377 190.037 L 335.522 189.854 335.316 187.875 C 335.203 186.787,335.093 185.881,335.072 185.862 C 335.051 185.844,333.312 185.259,331.208 184.562 C 326.950 183.153,326.928 183.127,328.452 181.170 C 329.700 179.568,329.395 179.636,337.734 179.118 C 340.705 178.933,343.203 178.718,343.285 178.640 C 343.366 178.561,342.705 175.638,341.815 172.144 C 340.334 166.331,336.753 152.361,336.053 149.662 C 335.705 148.322,335.256 148.251,332.519 149.103 C 328.909 150.227,326.108 153.975,325.412 158.613 C 325.138 160.438,324.486 160.840,321.796 160.840 C 319.491 160.840,319.280 160.697,319.280 159.135 C 319.280 157.969,317.488 156.339,316.206 156.339 C 314.706 156.339,314.061 157.198,313.878 159.440 L 313.728 161.278 309.977 161.805 C 304.733 162.542,298.677 164.419,295.486 166.296 C 293.637 167.383,293.122 167.375,294.242 166.277 C 294.727 165.801,295.654 164.752,296.303 163.945 C 296.951 163.139,298.100 161.991,298.855 161.395 C 299.697 160.731,300.387 159.874,300.637 159.181 C 302.790 153.229,307.972 149.568,315.145 148.931 C 317.418 148.729,317.450 148.537,315.384 147.490 C 311.286 145.413,303.550 144.681,297.524 145.799 M173.873 146.170 C 173.599 146.613,174.311 147.037,175.244 146.987 C 175.960 146.949,175.957 146.941,175.169 146.822 C 174.305 146.691,174.078 146.294,174.719 146.035 C 174.950 145.942,174.899 145.875,174.586 145.860 C 174.307 145.847,173.986 145.987,173.873 146.170 M347.829 170.743 C 347.829 170.990,347.945 171.463,348.087 171.793 C 348.250 172.171,348.345 172.227,348.345 171.943 C 348.345 171.695,348.229 171.223,348.087 170.893 C 347.924 170.514,347.829 170.459,347.829 170.743 M246.131 175.544 C 246.131 176.122,246.193 176.358,246.268 176.069 C 246.344 175.780,246.344 175.308,246.268 175.019 C 246.193 174.730,246.131 174.966,246.131 175.544 M246.473 180.645 C 246.473 182.378,246.522 183.087,246.583 182.221 C 246.643 181.354,246.643 179.936,246.583 179.070 C 246.522 178.203,246.473 178.912,246.473 180.645 M350.188 182.995 C 349.508 183.657,349.499 183.694,350.096 183.384 C 350.458 183.196,350.843 182.899,350.951 182.724 C 351.320 182.127,350.939 182.262,350.188 182.995 M246.151 187.847 C 246.151 188.755,246.208 189.126,246.276 188.672 C 246.345 188.218,246.345 187.476,246.276 187.022 C 246.208 186.568,246.151 186.939,246.151 187.847 M341.271 193.698 C 341.273 194.524,341.332 194.826,341.401 194.369 C 341.470 193.913,341.468 193.238,341.397 192.869 C 341.325 192.500,341.269 192.873,341.271 193.698 M341.281 211.253 C 341.281 212.326,341.336 212.764,341.402 212.228 C 341.469 211.692,341.469 210.814,341.402 210.278 C 341.336 209.741,341.281 210.180,341.281 211.253 M332.314 229.032 L 331.433 230.008 332.408 229.126 C 333.317 228.305,333.521 228.057,333.289 228.057 C 333.238 228.057,332.799 228.496,332.314 229.032 M238.269 232.466 C 238.264 232.663,238.563 233.143,238.935 233.531 C 239.306 233.920,239.460 234.029,239.277 233.773 C 239.094 233.517,238.794 233.038,238.611 232.708 C 238.428 232.378,238.274 232.269,238.269 232.466 M254.539 233.679 C 255.323 233.741,256.605 233.741,257.389 233.679 C 258.173 233.617,257.532 233.567,255.964 233.567 C 254.396 233.567,253.755 233.617,254.539 233.679 M250.791 233.971 C 251.164 234.042,251.705 234.040,251.991 233.965 C 252.278 233.890,251.973 233.831,251.313 233.834 C 250.653 233.837,250.418 233.899,250.791 233.971 M260.694 233.971 C 261.067 234.042,261.607 234.040,261.894 233.965 C 262.181 233.890,261.875 233.831,261.215 233.834 C 260.555 233.837,260.320 233.899,260.694 233.971 M247.637 234.265 C 247.926 234.341,248.398 234.341,248.687 234.265 C 248.976 234.190,248.740 234.128,248.162 234.128 C 247.584 234.128,247.348 234.190,247.637 234.265 M245.236 234.565 C 245.525 234.641,245.998 234.641,246.287 234.565 C 246.575 234.490,246.339 234.428,245.761 234.428 C 245.184 234.428,244.947 234.490,245.236 234.565 M242.236 234.866 C 242.524 234.941,242.997 234.941,243.286 234.866 C 243.575 234.790,243.338 234.728,242.761 234.728 C 242.183 234.728,241.947 234.790,242.236 234.866 M305.851 241.467 C 306.140 241.543,306.613 241.543,306.902 241.467 C 307.191 241.392,306.954 241.330,306.377 241.330 C 305.799 241.330,305.563 241.392,305.851 241.467 " stroke="none" fill="#d3d3d4" fill-rule="evenodd"></path><path id="path4" d="M264.741 62.038 C 265.855 62.096,267.678 62.096,268.792 62.038 C 269.906 61.980,268.995 61.933,266.767 61.933 C 264.539 61.933,263.627 61.980,264.741 62.038 M256.499 62.337 C 257.371 62.398,258.722 62.397,259.500 62.336 C 260.278 62.274,259.565 62.224,257.914 62.225 C 256.264 62.226,255.627 62.276,256.499 62.337 M274.194 62.337 C 275.060 62.397,276.478 62.397,277.344 62.337 C 278.211 62.276,277.502 62.227,275.769 62.227 C 274.036 62.227,273.327 62.276,274.194 62.337 M251.988 62.633 C 252.524 62.699,253.402 62.699,253.938 62.633 C 254.475 62.566,254.036 62.512,252.963 62.512 C 251.890 62.512,251.452 62.566,251.988 62.633 M279.895 62.633 C 280.431 62.699,281.309 62.699,281.845 62.633 C 282.382 62.566,281.943 62.512,280.870 62.512 C 279.797 62.512,279.359 62.566,279.895 62.633 M248.392 62.933 C 248.932 63.000,249.742 62.999,250.193 62.930 C 250.644 62.862,250.203 62.807,249.212 62.809 C 248.222 62.810,247.853 62.866,248.392 62.933 M283.950 62.931 C 284.406 63.000,285.081 62.998,285.450 62.927 C 285.820 62.856,285.446 62.799,284.621 62.802 C 283.796 62.804,283.494 62.862,283.950 62.931 M242.311 63.316 C 240.891 63.511,240.875 63.522,242.011 63.536 C 242.671 63.544,244.021 63.450,245.011 63.327 L 246.812 63.104 245.311 63.107 C 244.486 63.109,243.136 63.203,242.311 63.316 M287.100 63.228 C 287.474 63.300,288.014 63.297,288.301 63.222 C 288.587 63.147,288.282 63.088,287.622 63.091 C 286.962 63.095,286.727 63.156,287.100 63.228 M289.501 63.528 C 289.874 63.600,290.414 63.597,290.701 63.522 C 290.988 63.447,290.683 63.388,290.023 63.392 C 289.362 63.395,289.128 63.456,289.501 63.528 M238.639 63.831 C 239.095 63.900,239.770 63.898,240.139 63.827 C 240.508 63.756,240.135 63.699,239.310 63.702 C 238.485 63.704,238.183 63.762,238.639 63.831 M291.748 63.823 C 292.037 63.898,292.509 63.898,292.798 63.823 C 293.087 63.747,292.851 63.686,292.273 63.686 C 291.695 63.686,291.459 63.747,291.748 63.823 M236.088 64.128 C 236.461 64.200,237.001 64.197,237.288 64.122 C 237.575 64.047,237.269 63.988,236.609 63.992 C 235.949 63.995,235.714 64.056,236.088 64.128 M293.848 64.123 C 294.137 64.198,294.610 64.198,294.899 64.123 C 295.188 64.047,294.951 63.986,294.374 63.986 C 293.796 63.986,293.560 64.047,293.848 64.123 M233.533 64.423 C 233.822 64.498,234.295 64.498,234.584 64.423 C 234.872 64.347,234.636 64.286,234.059 64.286 C 233.481 64.286,233.245 64.347,233.533 64.423 M230.986 64.728 C 231.360 64.800,231.900 64.797,232.187 64.722 C 232.473 64.647,232.168 64.588,231.508 64.592 C 230.848 64.595,230.613 64.657,230.986 64.728 M298.270 64.804 C 299.801 65.192,302.257 65.469,301.217 65.136 C 300.773 64.994,299.692 64.801,298.817 64.708 C 297.529 64.572,297.424 64.590,298.270 64.804 M228.586 65.028 C 228.959 65.100,229.499 65.097,229.786 65.022 C 230.073 64.947,229.767 64.889,229.107 64.892 C 228.447 64.895,228.212 64.957,228.586 65.028 M222.431 65.923 C 222.719 65.999,223.192 65.999,223.481 65.923 C 223.770 65.848,223.533 65.786,222.956 65.786 C 222.378 65.786,222.142 65.848,222.431 65.923 M306.827 66.473 C 307.652 66.686,308.597 66.856,308.927 66.852 C 309.257 66.849,308.852 66.672,308.027 66.460 C 307.202 66.248,306.257 66.077,305.926 66.081 C 305.596 66.085,306.002 66.261,306.827 66.473 M217.104 66.617 C 215.856 66.934,217.085 66.948,218.605 66.634 C 219.614 66.425,219.662 66.386,218.905 66.387 C 218.410 66.387,217.599 66.491,217.104 66.617 M315.379 68.417 C 316.405 68.746,317.194 68.746,316.429 68.417 C 316.099 68.275,315.559 68.163,315.229 68.168 C 314.746 68.175,314.776 68.224,315.379 68.417 M322.731 70.218 C 323.061 70.359,323.601 70.471,323.931 70.467 C 324.413 70.460,324.384 70.411,323.781 70.218 C 322.755 69.889,321.966 69.889,322.731 70.218 M195.649 70.818 C 195.055 71.008,195.024 71.058,195.499 71.058 C 195.829 71.058,196.437 70.950,196.849 70.818 C 197.443 70.627,197.474 70.577,196.999 70.577 C 196.669 70.577,196.062 70.686,195.649 70.818 M378.095 71.582 C 377.022 71.961,376.292 72.282,376.472 72.295 C 376.653 72.308,377.564 72.055,378.498 71.734 L 380.195 71.150 380.230 71.809 C 380.259 72.363,380.287 72.380,380.408 71.911 C 380.656 70.949,380.106 70.870,378.095 71.582 M192.498 71.559 C 190.887 72.091,191.521 72.111,193.398 71.589 C 194.224 71.359,194.629 71.170,194.299 71.168 C 193.968 71.166,193.158 71.342,192.498 71.559 M372.093 73.218 C 371.490 73.411,371.461 73.460,371.943 73.467 C 372.273 73.472,372.813 73.360,373.143 73.218 C 373.908 72.890,373.119 72.890,372.093 73.218 M184.950 73.681 C 184.852 73.936,184.856 74.229,184.959 74.332 C 185.062 74.434,185.146 74.303,185.146 74.041 C 185.146 73.778,185.383 73.501,185.671 73.425 C 186.164 73.297,186.163 73.286,185.662 73.253 C 185.368 73.234,185.047 73.427,184.950 73.681 M185.188 75.019 C 185.188 75.266,185.305 75.739,185.446 76.069 C 185.609 76.447,185.704 76.503,185.704 76.219 C 185.704 75.971,185.588 75.499,185.446 75.169 C 185.284 74.791,185.188 74.735,185.188 75.019 M345.911 74.930 C 346.283 75.002,346.890 75.002,347.262 74.930 C 347.633 74.859,347.329 74.800,346.587 74.800 C 345.844 74.800,345.540 74.859,345.911 74.930 M362.866 74.926 C 363.155 75.001,363.627 75.001,363.916 74.926 C 364.205 74.850,363.968 74.788,363.391 74.788 C 362.813 74.788,362.577 74.850,362.866 74.926 M349.516 75.231 C 349.889 75.303,350.429 75.300,350.716 75.225 C 351.003 75.150,350.698 75.091,350.038 75.094 C 349.377 75.098,349.143 75.159,349.516 75.231 M359.569 75.234 C 360.025 75.303,360.700 75.301,361.069 75.230 C 361.438 75.159,361.065 75.102,360.240 75.105 C 359.415 75.107,359.113 75.165,359.569 75.234 M378.561 78.786 C 378.448 79.389,378.416 79.941,378.489 80.015 C 378.563 80.088,378.715 79.655,378.828 79.053 C 378.941 78.451,378.973 77.898,378.900 77.825 C 378.827 77.751,378.674 78.184,378.561 78.786 M186.092 78.320 C 186.092 78.567,186.274 79.242,186.497 79.820 C 186.719 80.398,186.901 80.668,186.901 80.420 C 186.901 80.173,186.719 79.497,186.497 78.920 C 186.274 78.342,186.092 78.072,186.092 78.320 M187.589 83.421 C 187.589 83.668,187.705 84.141,187.847 84.471 C 188.010 84.849,188.105 84.905,188.105 84.621 C 188.105 84.374,187.989 83.901,187.847 83.571 C 187.684 83.193,187.589 83.137,187.589 83.421 M337.220 87.997 C 334.883 91.094,333.079 93.623,333.207 93.623 C 333.288 93.623,334.324 92.307,335.510 90.698 C 336.696 89.089,337.799 87.603,337.962 87.397 C 338.125 87.191,338.190 87.022,338.107 87.022 C 338.024 87.022,337.625 87.461,337.220 87.997 M189.390 89.722 C 189.390 89.970,189.506 90.443,189.647 90.773 C 189.810 91.151,189.905 91.206,189.905 90.923 C 189.905 90.675,189.789 90.203,189.647 89.872 C 189.485 89.494,189.390 89.439,189.390 89.722 M375.260 92.890 C 375.148 93.492,375.115 94.045,375.188 94.118 C 375.262 94.192,375.414 93.759,375.527 93.157 C 375.640 92.554,375.673 92.002,375.599 91.928 C 375.526 91.855,375.373 92.288,375.260 92.890 M340.345 92.573 C 340.345 92.903,340.453 93.511,340.585 93.923 C 340.775 94.518,340.825 94.549,340.825 94.074 C 340.825 93.743,340.717 93.136,340.585 92.723 C 340.395 92.129,340.345 92.098,340.345 92.573 M190.569 93.824 C 190.511 94.787,190.935 95.123,192.155 95.081 L 193.398 95.039 192.227 94.856 C 191.440 94.734,190.979 94.476,190.822 94.074 C 190.694 93.743,190.580 93.631,190.569 93.824 M205.611 93.847 C 207.047 93.901,209.478 93.902,211.013 93.847 C 212.548 93.793,211.373 93.748,208.402 93.747 C 205.431 93.747,204.175 93.792,205.611 93.847 M199.929 94.139 C 200.385 94.208,201.060 94.206,201.429 94.135 C 201.799 94.063,201.425 94.007,200.600 94.009 C 199.775 94.012,199.473 94.070,199.929 94.139 M215.084 94.141 C 215.623 94.208,216.434 94.206,216.885 94.138 C 217.336 94.069,216.894 94.015,215.904 94.016 C 214.914 94.018,214.545 94.074,215.084 94.141 M332.570 94.299 C 331.268 95.999,330.582 97.014,330.839 96.859 C 331.194 96.644,333.186 93.923,332.989 93.923 C 332.916 93.923,332.728 94.092,332.570 94.299 M196.474 94.435 C 196.845 94.507,197.453 94.507,197.824 94.435 C 198.196 94.364,197.892 94.305,197.149 94.305 C 196.407 94.305,196.103 94.364,196.474 94.435 M218.530 94.430 C 218.818 94.506,219.291 94.506,219.580 94.430 C 219.869 94.355,219.632 94.293,219.055 94.293 C 218.477 94.293,218.241 94.355,218.530 94.430 M193.923 94.730 C 194.212 94.806,194.685 94.806,194.974 94.730 C 195.263 94.655,195.026 94.593,194.449 94.593 C 193.871 94.593,193.635 94.655,193.923 94.730 M220.930 94.730 C 221.219 94.806,221.692 94.806,221.980 94.730 C 222.269 94.655,222.033 94.593,221.455 94.593 C 220.878 94.593,220.641 94.655,220.930 94.730 M310.878 94.705 C 310.878 94.860,312.127 96.199,313.653 97.681 L 316.429 100.375 313.728 97.534 C 312.243 95.971,310.994 94.632,310.953 94.558 C 310.911 94.484,310.878 94.550,310.878 94.705 M223.406 95.124 C 224.675 95.447,225.765 95.447,224.756 95.124 C 224.344 94.992,223.668 94.886,223.256 94.889 C 222.582 94.894,222.597 94.918,223.406 95.124 M313.278 95.124 C 313.691 95.256,314.299 95.364,314.629 95.364 C 315.104 95.364,315.073 95.314,314.479 95.124 C 314.066 94.992,313.458 94.884,313.128 94.884 C 312.653 94.884,312.684 94.934,313.278 95.124 M374.060 97.991 C 373.947 98.593,373.915 99.146,373.988 99.219 C 374.061 99.293,374.214 98.860,374.327 98.258 C 374.440 97.656,374.472 97.103,374.399 97.030 C 374.326 96.956,374.173 97.389,374.060 97.991 M329.691 97.984 C 329.228 98.391,328.968 98.725,329.113 98.725 C 329.259 98.725,329.695 98.387,330.083 97.974 C 330.979 97.020,330.781 97.025,329.691 97.984 M341.518 97.524 C 341.506 97.772,341.685 98.650,341.914 99.475 C 342.144 100.300,342.341 100.773,342.353 100.525 C 342.365 100.278,342.186 99.400,341.957 98.575 C 341.727 97.749,341.530 97.277,341.518 97.524 M228.732 97.731 C 229.021 97.807,229.494 97.807,229.782 97.731 C 230.071 97.656,229.835 97.594,229.257 97.594 C 228.680 97.594,228.443 97.656,228.732 97.731 M222.731 98.331 C 223.020 98.407,223.492 98.407,223.781 98.331 C 224.070 98.256,223.833 98.194,223.256 98.194 C 222.678 98.194,222.442 98.256,222.731 98.331 M210.953 100.225 C 210.359 100.415,210.327 100.465,210.803 100.465 C 211.133 100.465,211.740 100.357,212.153 100.225 C 212.747 100.035,212.778 99.985,212.303 99.985 C 211.973 99.985,211.365 100.093,210.953 100.225 M319.655 103.981 C 323.492 107.913,323.381 106.995,320.535 111.262 C 317.996 115.067,317.507 115.860,317.997 115.379 C 318.487 114.897,323.181 107.768,323.181 107.506 C 323.181 107.374,321.662 105.784,319.805 103.971 L 316.429 100.675 319.655 103.981 M204.951 101.575 C 204.209 101.791,203.803 101.977,204.051 101.990 C 204.299 102.003,205.176 101.826,206.002 101.596 C 206.827 101.367,207.232 101.180,206.902 101.182 C 206.572 101.183,205.694 101.360,204.951 101.575 M342.554 101.454 C 342.769 101.802,345.047 102.395,345.484 102.217 C 345.678 102.138,345.566 102.056,345.236 102.036 C 344.906 102.016,344.132 101.819,343.516 101.599 C 342.900 101.380,342.467 101.314,342.554 101.454 M202.101 102.326 C 201.722 102.488,201.667 102.583,201.950 102.583 C 202.198 102.583,202.671 102.467,203.001 102.326 C 203.379 102.163,203.435 102.068,203.151 102.068 C 202.903 102.068,202.431 102.184,202.101 102.326 M372.860 103.092 C 372.747 103.695,372.714 104.247,372.788 104.321 C 372.861 104.394,373.014 103.961,373.127 103.359 C 373.240 102.757,373.272 102.204,373.199 102.131 C 373.125 102.058,372.973 102.490,372.860 103.092 M346.437 102.626 C 346.767 102.767,347.307 102.880,347.637 102.875 C 348.119 102.868,348.090 102.819,347.487 102.626 C 346.461 102.297,345.672 102.297,346.437 102.626 M198.800 103.226 C 198.421 103.388,198.366 103.484,198.650 103.484 C 198.897 103.484,199.370 103.368,199.700 103.226 C 200.078 103.063,200.134 102.968,199.850 102.968 C 199.602 102.968,199.130 103.084,198.800 103.226 M356.189 105.026 C 357.215 105.355,358.004 105.355,357.239 105.026 C 356.909 104.884,356.369 104.772,356.039 104.777 C 355.557 104.784,355.586 104.833,356.189 105.026 M359.336 105.739 C 360.112 105.992,360.376 106.190,360.087 106.304 C 359.841 106.400,359.801 106.490,359.997 106.503 C 361.314 106.590,360.630 105.761,359.190 105.523 C 358.168 105.355,358.172 105.360,359.336 105.739 M371.980 106.864 C 371.730 108.115,371.973 108.357,372.243 107.127 C 372.357 106.608,372.388 106.121,372.311 106.045 C 372.235 105.968,372.086 106.337,371.980 106.864 M194.491 107.427 C 194.491 107.674,194.607 108.147,194.749 108.477 C 194.911 108.855,195.007 108.911,195.007 108.627 C 195.007 108.380,194.891 107.907,194.749 107.577 C 194.586 107.199,194.491 107.143,194.491 107.427 M351.903 109.282 C 350.123 109.956,348.717 110.558,348.779 110.620 C 348.891 110.731,355.322 108.391,355.564 108.151 C 355.871 107.847,354.916 108.142,351.903 109.282 M370.759 112.095 C 370.646 112.697,370.614 113.250,370.687 113.323 C 370.761 113.396,370.913 112.964,371.026 112.361 C 371.139 111.759,371.171 111.206,371.098 111.133 C 371.025 111.060,370.872 111.492,370.759 112.095 M345.138 111.890 C 344.812 112.097,344.805 112.480,345.104 113.995 C 345.304 115.014,345.530 115.785,345.607 115.709 C 345.683 115.633,345.591 114.854,345.404 113.979 C 345.102 112.573,345.123 112.343,345.582 112.008 C 346.155 111.589,345.773 111.487,345.138 111.890 M331.133 117.490 C 330.415 117.835,330.385 117.882,330.983 117.719 C 332.701 117.252,332.875 117.382,340.856 125.131 C 349.147 133.182,349.290 133.306,349.283 132.433 C 349.280 132.084,349.198 132.009,349.058 132.229 C 348.918 132.449,345.936 129.744,340.885 124.816 C 332.668 116.798,332.630 116.769,331.133 117.490 M197.792 118.530 C 197.792 118.777,197.908 119.250,198.050 119.580 C 198.212 119.958,198.307 120.014,198.307 119.730 C 198.307 119.482,198.191 119.010,198.050 118.680 C 197.887 118.301,197.792 118.246,197.792 118.530 M220.485 119.947 C 221.025 120.014,221.835 120.013,222.286 119.944 C 222.737 119.876,222.296 119.821,221.305 119.823 C 220.315 119.825,219.946 119.881,220.485 119.947 M230.683 119.942 C 231.054 120.013,231.662 120.013,232.033 119.942 C 232.404 119.870,232.101 119.812,231.358 119.812 C 230.615 119.812,230.311 119.870,230.683 119.942 M217.029 120.237 C 217.318 120.312,217.791 120.312,218.080 120.237 C 218.368 120.161,218.132 120.100,217.554 120.100 C 216.977 120.100,216.740 120.161,217.029 120.237 M234.134 120.237 C 234.422 120.312,234.895 120.312,235.184 120.237 C 235.473 120.161,235.236 120.100,234.659 120.100 C 234.081 120.100,233.845 120.161,234.134 120.237 M368.659 121.097 C 368.546 121.699,368.513 122.252,368.587 122.325 C 368.660 122.399,368.813 121.966,368.926 121.364 C 369.039 120.761,369.071 120.209,368.998 120.135 C 368.924 120.062,368.772 120.495,368.659 121.097 M198.506 120.992 C 198.788 122.530,199.227 123.331,199.768 123.296 C 200.202 123.268,200.213 123.238,199.824 123.133 C 199.562 123.063,199.124 122.370,198.852 121.593 C 198.580 120.816,198.424 120.545,198.506 120.992 M213.728 120.537 C 214.017 120.612,214.490 120.612,214.779 120.537 C 215.068 120.461,214.831 120.400,214.254 120.400 C 213.676 120.400,213.440 120.461,213.728 120.537 M313.272 122.290 C 311.842 124.486,311.863 124.748,313.428 124.231 C 314.028 124.033,314.461 123.813,314.390 123.743 C 314.320 123.672,313.887 123.757,313.428 123.931 C 312.316 124.354,312.270 124.231,313.088 123.014 C 314.464 120.965,314.845 120.330,314.698 120.330 C 314.616 120.330,313.975 121.212,313.272 122.290 M322.131 120.791 C 321.380 121.152,321.355 121.194,321.980 121.041 C 322.831 120.833,323.786 120.346,323.331 120.353 C 323.166 120.355,322.626 120.552,322.131 120.791 M202.551 122.431 C 201.957 122.621,201.925 122.671,202.401 122.671 C 202.731 122.671,203.338 122.563,203.751 122.431 C 204.345 122.240,204.376 122.190,203.901 122.190 C 203.571 122.190,202.963 122.298,202.551 122.431 M246.062 122.596 C 246.804 122.830,247.547 123.013,247.712 123.003 C 248.237 122.971,245.937 122.176,245.311 122.173 C 244.981 122.172,245.319 122.362,246.062 122.596 M250.263 123.880 C 250.510 124.033,251.050 124.249,251.463 124.359 C 251.984 124.499,252.076 124.475,251.763 124.282 C 251.515 124.129,250.975 123.913,250.563 123.803 C 250.041 123.663,249.950 123.687,250.263 123.880 M367.459 126.198 C 367.346 126.800,367.313 127.353,367.386 127.427 C 367.460 127.500,367.612 127.067,367.725 126.465 C 367.838 125.863,367.871 125.310,367.797 125.237 C 367.724 125.163,367.572 125.596,367.459 126.198 M255.964 126.173 C 256.668 126.568,256.576 126.601,254.464 126.703 L 252.213 126.812 254.689 126.872 C 257.228 126.933,257.746 126.693,256.400 126.080 C 255.344 125.599,255.051 125.661,255.964 126.173 M247.941 127.147 C 248.397 127.216,249.072 127.214,249.441 127.143 C 249.811 127.072,249.437 127.015,248.612 127.018 C 247.787 127.020,247.485 127.078,247.941 127.147 M243.740 127.447 C 244.196 127.516,244.871 127.514,245.240 127.443 C 245.610 127.372,245.236 127.315,244.411 127.318 C 243.586 127.320,243.284 127.378,243.740 127.447 M224.006 130.523 C 222.851 130.820,222.108 131.074,222.356 131.086 C 222.603 131.098,223.818 130.858,225.056 130.552 C 226.294 130.245,227.037 129.992,226.707 129.988 C 226.377 129.984,225.161 130.225,224.006 130.523 M218.005 132.033 C 217.626 132.196,217.571 132.291,217.854 132.291 C 218.102 132.291,218.575 132.175,218.905 132.033 C 219.283 131.870,219.338 131.775,219.055 131.775 C 218.807 131.775,218.335 131.891,218.005 132.033 M215.904 132.633 C 215.526 132.796,215.470 132.891,215.754 132.891 C 216.002 132.891,216.474 132.775,216.804 132.633 C 217.182 132.471,217.238 132.375,216.954 132.375 C 216.707 132.375,216.234 132.491,215.904 132.633 M213.353 133.383 C 212.776 133.606,212.506 133.788,212.753 133.788 C 213.001 133.788,213.676 133.606,214.254 133.383 C 214.831 133.161,215.101 132.979,214.854 132.979 C 214.606 132.979,213.931 133.161,213.353 133.383 M365.358 135.200 C 365.245 135.803,365.213 136.355,365.286 136.429 C 365.359 136.502,365.512 136.069,365.625 135.467 C 365.738 134.865,365.770 134.312,365.697 134.239 C 365.623 134.166,365.471 134.598,365.358 135.200 M208.102 135.059 C 207.277 135.378,206.992 135.563,207.469 135.470 C 208.412 135.286,210.390 134.483,209.902 134.481 C 209.737 134.481,208.927 134.741,208.102 135.059 M204.707 136.139 C 203.996 136.391,203.466 136.650,203.531 136.715 C 203.668 136.851,206.452 135.938,206.452 135.756 C 206.452 135.568,206.110 135.643,204.707 136.139 M6.617 136.218 C 5.782 136.746,7.557 136.854,15.604 136.763 L 23.556 136.674 15.154 136.599 C 9.594 136.550,6.904 136.427,7.202 136.234 C 7.449 136.074,7.517 135.943,7.352 135.943 C 7.187 135.943,6.856 136.067,6.617 136.218 M27.382 136.441 C 27.671 136.516,28.143 136.516,28.432 136.441 C 28.721 136.365,28.485 136.304,27.907 136.304 C 27.329 136.304,27.093 136.365,27.382 136.441 M200.506 137.639 C 199.795 137.891,199.265 138.150,199.330 138.215 C 199.467 138.352,202.251 137.438,202.251 137.256 C 202.251 137.068,201.909 137.143,200.506 137.639 M364.165 140.309 C 363.871 141.555,363.687 142.632,363.757 142.702 C 363.826 142.771,364.124 141.808,364.417 140.561 C 364.711 139.315,364.895 138.238,364.825 138.169 C 364.756 138.099,364.459 139.062,364.165 140.309 M93.848 138.541 C 92.695 138.843,93.423 139.232,95.049 139.182 C 96.697 139.132,96.713 139.124,95.424 139.000 C 94.364 138.898,94.202 138.817,94.674 138.624 C 95.314 138.360,94.754 138.305,93.848 138.541 M196.305 139.140 C 195.594 139.391,195.064 139.650,195.129 139.715 C 195.266 139.852,198.050 138.938,198.050 138.756 C 198.050 138.569,197.708 138.644,196.305 139.140 M118.909 139.150 C 119.365 139.219,120.040 139.217,120.409 139.146 C 120.778 139.075,120.405 139.018,119.580 139.021 C 118.755 139.023,118.453 139.081,118.909 139.150 M102.701 139.457 C 103.650 139.516,105.203 139.516,106.152 139.457 C 107.101 139.397,106.324 139.348,104.426 139.348 C 102.528 139.348,101.752 139.397,102.701 139.457 M110.053 139.452 C 110.589 139.518,111.467 139.518,112.003 139.452 C 112.539 139.385,112.101 139.331,111.028 139.331 C 109.955 139.331,109.516 139.385,110.053 139.452 M193.005 140.340 C 192.293 140.592,191.763 140.851,191.828 140.916 C 191.965 141.053,194.749 140.139,194.749 139.957 C 194.749 139.769,194.407 139.844,193.005 140.340 M181.095 144.336 C 180.717 144.499,180.662 144.594,180.945 144.594 C 181.193 144.594,181.665 144.478,181.995 144.336 C 182.374 144.174,182.429 144.078,182.146 144.078 C 181.898 144.078,181.425 144.194,181.095 144.336 M178.995 144.936 C 178.616 145.099,178.561 145.194,178.845 145.194 C 179.092 145.194,179.565 145.078,179.895 144.936 C 180.273 144.774,180.329 144.678,180.045 144.678 C 179.797 144.678,179.325 144.794,178.995 144.936 M304.919 145.255 C 309.636 145.499,312.779 146.170,315.375 147.485 C 317.358 148.490,317.496 148.834,315.922 148.850 C 315.211 148.858,313.818 149.056,312.828 149.292 C 311.838 149.528,311.500 149.659,312.078 149.582 C 312.656 149.506,314.175 149.356,315.454 149.248 C 318.121 149.023,318.207 148.915,316.610 147.809 C 313.952 145.966,309.039 144.900,303.579 144.982 C 300.608 145.026,300.645 145.033,304.919 145.255 M295.874 145.824 C 292.544 146.536,286.872 148.726,286.872 149.298 C 286.872 149.380,287.539 149.109,288.355 148.696 C 290.656 147.530,294.233 146.408,297.524 145.821 C 299.175 145.526,300.053 145.284,299.475 145.282 C 298.897 145.280,297.277 145.524,295.874 145.824 M174.719 146.035 C 174.188 146.249,174.252 146.737,174.811 146.737 C 175.069 146.737,175.202 146.612,175.108 146.459 C 175.014 146.307,175.174 146.120,175.465 146.044 C 175.816 145.953,175.842 145.902,175.544 145.895 C 175.296 145.889,174.925 145.952,174.719 146.035 M361.215 146.908 C 360.093 147.517,360.162 147.770,361.290 147.187 C 361.785 146.931,362.191 146.657,362.191 146.579 C 362.191 146.386,362.158 146.397,361.215 146.908 M180.120 147.544 C 180.409 147.619,180.881 147.619,181.170 147.544 C 181.459 147.468,181.223 147.406,180.645 147.406 C 180.068 147.406,179.831 147.468,180.120 147.544 M332.676 148.726 C 331.875 148.973,331.274 149.228,331.340 149.295 C 331.407 149.361,332.117 149.218,332.920 148.976 C 335.275 148.267,335.715 148.364,336.056 149.662 C 336.218 150.281,337.190 154.063,338.217 158.065 C 339.244 162.068,340.138 165.289,340.204 165.223 C 340.270 165.157,339.370 161.358,338.204 156.781 C 337.038 152.204,336.084 148.409,336.084 148.348 C 336.084 148.085,334.016 148.315,332.676 148.726 M284.668 150.789 C 281.477 153.388,277.934 159.339,277.104 163.494 C 276.541 166.308,276.588 171.982,277.178 172.572 C 277.437 172.830,277.446 172.590,277.217 171.604 C 275.664 164.926,279.604 154.993,285.677 150.277 C 286.252 149.831,286.633 149.459,286.524 149.451 C 286.415 149.444,285.580 150.045,284.668 150.789 M309.077 150.297 C 306.235 151.416,303.134 154.095,302.053 156.367 C 301.786 156.929,301.738 157.135,301.946 156.824 C 304.145 153.549,306.354 151.640,309.152 150.599 C 310.101 150.246,310.878 149.908,310.878 149.847 C 310.878 149.650,310.449 149.757,309.077 150.297 M328.700 151.104 C 327.425 152.380,326.178 154.599,325.759 156.339 L 325.578 157.089 325.921 156.339 C 326.109 155.926,326.589 154.887,326.987 154.029 C 327.385 153.171,328.334 151.854,329.096 151.103 C 329.858 150.352,330.388 149.737,330.274 149.737 C 330.160 149.737,329.452 150.352,328.700 151.104 M354.014 150.958 C 353.395 151.285,352.888 151.619,352.888 151.701 C 352.888 151.783,353.428 151.575,354.089 151.238 C 354.749 150.901,355.289 150.561,355.289 150.482 C 355.289 150.285,355.287 150.286,354.014 150.958 M202.101 151.838 C 202.431 151.980,202.971 152.092,203.301 152.087 C 203.783 152.080,203.754 152.031,203.151 151.838 C 202.125 151.509,201.336 151.509,202.101 151.838 M351.613 152.310 C 350.491 152.918,350.559 153.172,351.688 152.588 C 352.183 152.332,352.588 152.059,352.588 151.980 C 352.588 151.787,352.556 151.798,351.613 152.310 M204.076 152.263 C 204.293 152.479,209.216 153.675,209.348 153.543 C 209.417 153.474,208.326 153.129,206.923 152.778 C 204.327 152.127,203.854 152.041,204.076 152.263 M348.326 154.181 C 347.220 154.802,346.207 155.430,346.076 155.576 C 345.797 155.884,349.899 153.685,350.323 153.298 C 350.841 152.825,350.360 153.038,348.326 154.181 M210.203 153.898 C 210.533 154.043,211.275 154.246,211.853 154.351 C 212.574 154.482,212.715 154.459,212.303 154.279 C 211.973 154.135,211.230 153.931,210.653 153.826 C 209.932 153.695,209.791 153.718,210.203 153.898 M213.953 154.989 C 214.531 155.211,215.206 155.393,215.454 155.393 C 215.701 155.393,215.431 155.211,214.854 154.989 C 214.276 154.766,213.601 154.584,213.353 154.584 C 213.106 154.584,213.376 154.766,213.953 154.989 M216.504 155.739 C 216.834 155.881,217.307 155.997,217.554 155.997 C 217.838 155.997,217.783 155.901,217.404 155.739 C 217.074 155.597,216.602 155.481,216.354 155.481 C 216.070 155.481,216.126 155.576,216.504 155.739 M344.861 156.105 C 344.400 156.328,344.197 156.677,344.221 157.210 C 344.248 157.828,344.285 157.865,344.398 157.389 C 344.476 157.059,344.832 156.556,345.188 156.271 C 345.925 155.681,345.835 155.636,344.861 156.105 M314.490 156.696 C 314.154 157.057,313.878 157.480,313.878 157.636 C 313.878 157.793,314.158 157.565,314.500 157.130 C 315.792 155.487,319.280 156.951,319.280 159.135 C 319.280 160.697,319.491 160.840,321.796 160.840 C 324.090 160.840,325.297 160.338,325.262 159.398 C 325.248 159.024,325.172 159.066,324.975 159.556 C 324.644 160.379,323.820 160.600,321.522 160.482 L 319.738 160.390 319.547 159.208 C 319.138 156.680,315.971 155.106,314.490 156.696 M220.989 157.112 C 222.135 157.512,223.215 157.829,223.389 157.817 C 223.563 157.805,222.768 157.467,221.622 157.067 C 220.476 156.667,219.396 156.349,219.221 156.361 C 219.047 156.374,219.843 156.711,220.989 157.112 M300.843 158.594 C 300.586 159.209,300.375 159.822,300.375 159.955 C 300.375 160.088,299.724 160.710,298.929 161.337 C 298.133 161.965,296.951 163.139,296.303 163.945 C 295.654 164.752,294.727 165.801,294.242 166.277 C 293.145 167.352,293.569 167.381,295.402 166.357 C 296.741 165.609,297.204 164.929,295.900 165.628 C 294.401 166.429,296.476 163.725,298.702 161.974 C 300.084 160.887,301.875 158.039,301.446 157.611 C 301.372 157.536,301.100 157.978,300.843 158.594 M313.567 159.490 L 313.428 160.990 311.628 161.236 C 307.002 161.866,299.766 163.632,300.167 164.033 C 300.230 164.096,301.585 163.746,303.179 163.255 C 304.773 162.765,307.731 162.136,309.752 161.858 C 314.066 161.265,313.944 161.337,313.810 159.457 L 313.706 157.989 313.567 159.490 M226.407 158.856 C 226.902 159.081,227.644 159.348,228.057 159.450 C 228.660 159.597,228.630 159.553,227.907 159.224 C 227.412 158.998,226.669 158.731,226.257 158.630 C 225.654 158.482,225.684 158.526,226.407 158.856 M230.158 160.189 C 230.405 160.342,230.945 160.558,231.358 160.668 C 231.879 160.808,231.971 160.784,231.658 160.591 C 231.410 160.438,230.870 160.222,230.458 160.112 C 229.936 159.973,229.845 159.996,230.158 160.189 M239.760 163.991 C 240.173 164.227,240.645 164.420,240.810 164.420 C 240.975 164.420,240.773 164.227,240.360 163.991 C 239.947 163.755,239.475 163.562,239.310 163.562 C 239.145 163.562,239.347 163.755,239.760 163.991 M298.125 164.725 C 297.464 165.037,297.059 165.294,297.224 165.295 C 297.634 165.298,300.002 164.189,299.625 164.171 C 299.460 164.163,298.785 164.412,298.125 164.725 M241.860 164.891 C 242.273 165.127,242.746 165.320,242.911 165.320 C 243.076 165.320,242.873 165.127,242.461 164.891 C 242.048 164.655,241.575 164.462,241.410 164.462 C 241.245 164.462,241.448 164.655,241.860 164.891 M244.170 165.928 C 244.840 166.337,245.179 166.811,245.295 167.503 C 245.802 170.525,245.998 171.430,246.026 170.893 C 246.166 168.249,244.878 165.338,243.569 165.342 C 243.372 165.343,243.642 165.607,244.170 165.928 M340.309 165.893 C 340.296 166.114,340.960 168.891,341.785 172.064 C 343.668 179.302,343.684 178.790,341.560 178.923 L 339.835 179.031 341.693 179.088 C 344.102 179.162,344.067 179.635,342.198 172.393 C 340.464 165.677,340.346 165.268,340.309 165.893 M280.890 171.665 C 278.653 172.061,278.545 172.316,280.736 172.028 C 282.967 171.734,288.629 171.723,290.623 172.007 C 291.869 172.185,291.971 172.168,291.223 171.907 C 289.990 171.476,282.892 171.310,280.890 171.665 M246.151 173.143 C 246.151 174.051,246.208 174.422,246.276 173.968 C 246.345 173.515,246.345 172.772,246.276 172.318 C 246.208 171.864,246.151 172.236,246.151 173.143 M293.173 172.693 C 294.543 173.221,295.082 173.213,293.923 172.682 C 293.428 172.456,292.821 172.274,292.573 172.279 C 292.326 172.285,292.596 172.471,293.173 172.693 M296.698 174.431 C 297.318 174.974,298.213 175.587,298.688 175.793 C 299.715 176.237,299.573 176.598,298.538 176.174 C 296.911 175.506,285.818 174.859,282.585 175.243 C 267.376 177.050,254.072 200.468,260.462 214.184 C 262.826 219.258,272.929 227.356,280.803 230.489 C 284.291 231.877,284.032 231.488,280.420 229.915 C 269.511 225.161,261.418 217.760,259.684 210.953 C 257.916 204.012,260.654 193.841,266.268 186.497 C 271.504 179.646,276.541 176.324,282.827 175.574 C 285.728 175.227,297.074 175.940,299.100 176.596 C 299.603 176.759,299.775 176.696,299.775 176.349 C 299.775 176.094,299.517 175.803,299.203 175.703 C 298.888 175.603,298.044 175.055,297.327 174.485 C 295.668 173.166,295.211 173.127,296.698 174.431 M246.447 176.294 C 246.450 177.119,246.508 177.421,246.577 176.965 C 246.646 176.509,246.644 175.834,246.573 175.465 C 246.502 175.096,246.445 175.469,246.447 176.294 M349.587 178.426 C 349.587 178.526,349.798 179.421,350.055 180.414 C 350.313 181.407,350.440 182.439,350.338 182.708 C 350.195 183.083,350.234 183.114,350.508 182.843 C 350.782 182.571,350.744 182.003,350.343 180.367 C 349.898 178.551,349.587 177.754,349.587 178.426 M246.731 179.445 C 246.731 180.023,246.793 180.259,246.869 179.970 C 246.944 179.681,246.944 179.209,246.869 178.920 C 246.793 178.631,246.731 178.867,246.731 179.445 M333.083 179.445 L 330.833 179.637 332.633 179.661 C 333.623 179.674,335.581 179.585,336.984 179.462 L 339.535 179.238 337.434 179.245 C 336.279 179.249,334.321 179.339,333.083 179.445 M328.472 181.145 C 326.926 183.130,326.942 183.151,331.208 184.562 C 333.312 185.259,335.051 185.844,335.072 185.862 C 335.093 185.881,335.204 186.803,335.320 187.911 L 335.529 189.926 332.431 190.023 L 329.332 190.121 332.418 190.184 C 336.000 190.258,335.965 190.287,335.587 187.523 L 335.334 185.675 331.601 184.354 C 329.548 183.627,327.807 182.971,327.733 182.897 C 327.573 182.737,329.072 180.657,329.735 180.120 C 329.989 179.914,330.054 179.745,329.880 179.745 C 329.705 179.745,329.072 180.375,328.472 181.145 M348.762 183.680 C 347.739 184.335,347.408 184.775,348.312 184.279 C 349.001 183.900,350.079 183.066,349.887 183.060 C 349.805 183.058,349.299 183.337,348.762 183.680 M246.470 186.347 C 246.470 187.914,246.520 188.556,246.582 187.772 C 246.644 186.988,246.644 185.705,246.582 184.921 C 246.520 184.137,246.470 184.779,246.470 186.347 M345.836 185.486 C 345.011 185.997,344.201 186.554,344.036 186.724 C 343.704 187.065,345.772 185.889,346.912 185.087 C 348.110 184.245,347.441 184.493,345.836 185.486 M341.252 188.314 C 340.777 188.647,340.598 189.056,340.630 189.739 L 340.675 190.698 340.800 189.797 C 340.869 189.302,341.221 188.664,341.581 188.379 C 342.398 187.732,342.153 187.683,341.252 188.314 M315.604 188.471 C 314.798 188.940,314.977 189.917,316.032 190.800 C 318.520 192.884,320.093 194.482,321.976 196.838 C 323.961 199.323,326.609 201.950,327.127 201.950 C 328.008 201.950,327.162 197.806,325.897 195.922 C 325.364 195.128,325.138 194.537,325.324 194.422 C 325.505 194.311,325.425 194.153,325.132 194.040 C 324.148 193.663,324.062 193.863,324.796 194.826 C 326.025 196.438,327.076 198.997,327.079 200.389 L 327.082 201.679 325.892 200.723 C 325.238 200.197,323.854 198.686,322.816 197.365 C 321.779 196.044,319.651 193.762,318.088 192.294 C 315.697 190.048,315.297 189.543,315.568 189.111 C 316.331 187.894,318.567 188.465,320.763 190.439 L 322.266 191.790 324.749 191.183 C 326.114 190.848,327.637 190.521,328.132 190.456 L 329.032 190.337 328.105 190.293 C 327.595 190.268,326.129 190.516,324.847 190.844 L 322.516 191.440 321.296 190.395 C 319.059 188.480,316.863 187.738,315.604 188.471 M246.143 190.548 C 246.143 191.290,246.202 191.594,246.273 191.223 C 246.345 190.851,246.345 190.244,246.273 189.872 C 246.202 189.501,246.143 189.805,246.143 190.548 M340.967 192.348 C 340.967 193.091,341.025 193.395,341.097 193.023 C 341.169 192.652,341.169 192.044,341.097 191.673 C 341.025 191.302,340.967 191.605,340.967 192.348 M245.831 192.948 C 245.831 193.526,245.893 193.762,245.968 193.473 C 246.044 193.185,246.044 192.712,245.968 192.423 C 245.893 192.134,245.831 192.371,245.831 192.948 M340.612 195.676 C 340.410 196.353,340.299 196.963,340.366 197.030 C 340.434 197.098,340.655 196.599,340.858 195.922 C 341.061 195.244,341.172 194.635,341.104 194.568 C 341.037 194.500,340.815 194.999,340.612 195.676 M327.082 195.167 C 327.561 195.461,328.483 195.614,329.632 195.591 L 331.433 195.554 329.482 195.355 C 328.410 195.246,327.262 195.055,326.932 194.932 C 326.561 194.793,326.619 194.884,327.082 195.167 M336.159 194.956 C 336.448 195.031,336.684 195.208,336.684 195.348 C 336.684 195.875,334.800 200.321,334.370 200.808 C 334.124 201.087,333.993 201.492,334.079 201.708 C 334.181 201.963,334.244 201.917,334.260 201.575 C 334.273 201.287,334.403 201.050,334.548 201.050 C 334.877 201.050,337.287 195.152,337.054 194.918 C 336.960 194.825,336.603 194.764,336.259 194.783 C 335.752 194.812,335.733 194.844,336.159 194.956 M332.401 195.265 C 332.934 195.332,333.879 195.333,334.502 195.268 C 335.125 195.203,334.689 195.149,333.533 195.147 C 332.378 195.146,331.869 195.199,332.401 195.265 M333.709 202.589 C 333.695 202.858,334.037 203.850,334.468 204.793 C 338.124 212.779,332.922 223.511,322.881 228.699 C 319.445 230.474,309.307 229.626,301.575 226.918 C 301.328 226.831,302.003 227.461,303.076 228.318 C 304.814 229.706,309.423 232.269,310.149 232.251 C 310.302 232.248,309.212 231.638,307.727 230.897 C 305.216 229.644,302.126 227.441,303.518 227.896 C 306.484 228.866,313.485 229.942,317.029 229.973 L 320.930 230.008 323.181 228.889 C 332.822 224.097,338.679 212.112,334.896 204.919 C 334.514 204.194,334.097 203.263,333.969 202.851 C 333.839 202.436,333.723 202.319,333.709 202.589 M338.195 203.017 C 338.207 203.319,339.681 205.218,339.683 204.935 C 339.684 204.843,339.347 204.310,338.935 203.751 C 338.522 203.192,338.189 202.862,338.195 203.017 M340.014 205.851 C 340.003 205.934,340.186 206.609,340.420 207.352 C 340.654 208.095,340.848 208.432,340.852 208.102 C 340.857 207.579,340.066 205.454,340.014 205.851 M340.990 211.253 C 340.990 212.656,341.042 213.230,341.105 212.528 C 341.168 211.827,341.168 210.679,341.105 209.977 C 341.042 209.276,340.990 209.850,340.990 211.253 M340.473 215.191 C 340.222 216.442,340.465 216.685,340.735 215.454 C 340.849 214.935,340.880 214.448,340.803 214.372 C 340.727 214.295,340.578 214.664,340.473 215.191 M338.635 219.955 C 338.379 220.450,338.237 220.855,338.319 220.855 C 338.402 220.855,338.679 220.450,338.935 219.955 C 339.191 219.460,339.333 219.055,339.250 219.055 C 339.168 219.055,338.891 219.460,338.635 219.955 M336.206 223.481 C 335.247 224.760,333.916 226.543,333.248 227.442 C 332.580 228.342,331.290 229.826,330.383 230.740 C 329.452 231.676,329.134 232.116,329.653 231.748 C 330.700 231.005,333.326 227.928,335.419 224.992 C 336.197 223.900,337.147 222.590,337.530 222.081 C 337.912 221.572,338.163 221.155,338.087 221.155 C 338.010 221.155,337.164 222.202,336.206 223.481 M239.631 224.928 C 239.521 225.367,239.489 225.785,239.559 225.856 C 239.630 225.927,239.778 225.625,239.889 225.185 C 239.999 224.745,240.031 224.327,239.961 224.257 C 239.890 224.186,239.742 224.488,239.631 224.928 M238.883 227.780 C 238.698 228.641,238.604 229.402,238.674 229.472 C 238.744 229.542,238.952 228.895,239.137 228.034 C 239.321 227.173,239.415 226.412,239.345 226.342 C 239.276 226.272,239.067 226.919,238.883 227.780 M238.264 230.933 C 238.267 231.579,238.387 232.295,238.532 232.524 C 238.693 232.778,238.734 232.369,238.637 231.473 C 238.441 229.645,238.258 229.381,238.264 230.933 M285.636 231.942 C 286.689 232.267,288.174 232.605,288.937 232.692 C 289.866 232.799,289.532 232.657,287.922 232.261 C 284.431 231.402,283.438 231.264,285.636 231.942 M311.751 232.802 C 312.063 233.024,311.748 233.149,310.551 233.280 C 307.438 233.618,307.144 233.718,309.614 233.597 C 311.601 233.500,314.185 232.904,312.778 232.867 C 312.585 232.862,312.180 232.778,311.878 232.680 C 311.449 232.541,311.421 232.568,311.751 232.802 M292.123 233.176 C 293.643 233.490,294.871 233.476,293.623 233.158 C 293.128 233.032,292.318 232.929,291.823 232.928 C 291.066 232.927,291.114 232.967,292.123 233.176 M251.691 233.671 C 252.065 233.742,252.605 233.740,252.892 233.665 C 253.179 233.589,252.873 233.531,252.213 233.534 C 251.553 233.537,251.318 233.599,251.691 233.671 M259.344 233.674 C 259.800 233.743,260.475 233.741,260.844 233.670 C 261.213 233.598,260.840 233.542,260.015 233.544 C 259.190 233.546,258.888 233.605,259.344 233.674 M296.253 233.674 C 296.709 233.743,297.384 233.741,297.754 233.670 C 298.123 233.598,297.749 233.542,296.924 233.544 C 296.099 233.546,295.797 233.605,296.253 233.674 M248.387 233.970 C 248.758 234.042,249.366 234.042,249.737 233.970 C 250.109 233.899,249.805 233.840,249.062 233.840 C 248.320 233.840,248.016 233.899,248.387 233.970 M262.641 233.965 C 262.929 234.041,263.402 234.041,263.691 233.965 C 263.980 233.890,263.743 233.828,263.166 233.828 C 262.588 233.828,262.352 233.890,262.641 233.965 M300.450 233.981 C 301.564 234.039,303.387 234.039,304.501 233.981 C 305.615 233.923,304.704 233.876,302.476 233.876 C 300.248 233.876,299.336 233.923,300.450 233.981 M245.836 234.265 C 246.125 234.341,246.598 234.341,246.887 234.265 C 247.176 234.190,246.939 234.128,246.362 234.128 C 245.784 234.128,245.548 234.190,245.836 234.265 M324.531 235.022 C 323.706 235.546,322.356 236.351,321.530 236.811 C 320.705 237.272,320.177 237.651,320.356 237.654 C 320.684 237.659,325.488 234.841,326.017 234.333 C 326.536 233.833,326.049 234.059,324.531 235.022 M241.635 234.577 C 242.254 234.642,243.267 234.642,243.886 234.577 C 244.505 234.512,243.998 234.459,242.761 234.459 C 241.523 234.459,241.017 234.512,241.635 234.577 M267.817 235.120 C 268.312 235.346,268.920 235.528,269.167 235.523 C 269.415 235.517,269.145 235.331,268.567 235.109 C 267.197 234.581,266.658 234.589,267.817 235.120 M269.772 235.651 C 270.003 235.900,274.080 237.348,274.203 237.225 C 274.262 237.166,273.592 236.852,272.714 236.527 C 270.642 235.759,269.579 235.443,269.772 235.651 M306.752 241.167 C 307.041 241.243,307.513 241.243,307.802 241.167 C 308.091 241.092,307.854 241.030,307.277 241.030 C 306.699 241.030,306.463 241.092,306.752 241.167 M288.522 241.560 C 288.852 241.702,289.392 241.814,289.722 241.809 C 290.205 241.802,290.175 241.754,289.572 241.560 C 288.546 241.232,287.757 241.232,288.522 241.560 M292.798 242.372 C 293.170 242.444,293.777 242.444,294.149 242.372 C 294.520 242.301,294.216 242.242,293.473 242.242 C 292.731 242.242,292.427 242.301,292.798 242.372 M299.250 242.367 C 299.539 242.443,300.011 242.443,300.300 242.367 C 300.589 242.292,300.353 242.230,299.775 242.230 C 299.197 242.230,298.961 242.292,299.250 242.367 M295.799 242.678 C 296.335 242.744,297.213 242.744,297.749 242.678 C 298.286 242.611,297.847 242.557,296.774 242.557 C 295.701 242.557,295.263 242.611,295.799 242.678 " stroke="none" fill="#99a5b4" fill-rule="evenodd"></path></g></svg>