<svg id="svg" version="1.1" xmlns="http://www.w3.org/2000/svg" xmlns:xlink="http://www.w3.org/1999/xlink" width="400" height="284.0366972477064" viewBox="0, 0, 400,284.0366972477064"><g id="svgg"><path id="path0" d="M227.853 13.646 C 219.330 14.821,209.256 17.577,202.983 20.448 C 202.670 20.592,201.584 21.087,200.568 21.550 C 195.694 23.771,193.917 24.702,188.636 27.801 C 186.300 29.172,182.822 31.569,182.386 32.110 C 182.308 32.207,182.002 32.375,181.706 32.485 C 181.411 32.594,181.240 32.755,181.327 32.842 C 181.464 32.979,183.704 31.870,184.517 31.262 C 185.621 30.437,195.481 25.492,197.187 24.908 C 197.875 24.672,199.312 24.085,200.382 23.603 C 201.451 23.122,202.471 22.727,202.648 22.727 C 202.826 22.727,203.805 22.425,204.824 22.056 C 207.072 21.241,211.734 19.938,213.571 19.611 C 221.420 18.213,221.969 18.161,228.972 18.139 C 247.189 18.082,263.196 23.326,275.994 33.544 C 281.440 37.891,289.872 47.412,291.576 51.136 C 291.683 51.371,292.144 52.138,292.600 52.841 C 296.102 58.242,299.522 65.846,301.287 72.159 C 304.848 84.893,302.660 99.152,296.554 103.006 C 294.809 104.108,293.060 103.961,289.631 102.423 C 286.810 101.159,281.777 99.368,278.835 98.582 C 276.960 98.080,274.979 97.518,274.432 97.332 L 273.438 96.993 273.529 93.596 C 273.913 79.276,260.844 64.360,242.898 58.637 C 231.185 54.902,212.328 56.723,202.841 62.506 C 202.607 62.648,201.712 63.178,200.852 63.682 C 192.886 68.356,186.565 75.124,182.303 83.542 C 175.187 97.596,174.804 113.014,181.243 126.136 C 191.563 147.165,218.160 154.464,230.171 139.564 C 235.230 133.288,236.141 124.691,232.469 117.873 C 232.033 117.064,231.466 116.002,231.210 115.515 C 228.277 109.942,219.428 105.857,211.292 106.321 C 207.613 106.531,207.574 105.833,211.163 104.042 C 215.625 101.815,218.007 101.278,223.438 101.278 C 240.090 101.278,252.535 112.611,255.573 130.540 C 256.781 137.664,256.900 142.294,255.974 146.023 C 251.812 162.773,239.629 174.697,220.881 180.367 C 201.143 186.337,176.824 178.217,159.517 159.878 C 154.238 154.284,147.964 144.838,146.730 140.625 C 146.615 140.234,146.405 139.768,146.262 139.589 C 145.969 139.222,144.919 136.214,143.896 132.813 C 142.702 128.843,141.785 123.589,141.622 119.782 C 141.382 114.220,140.830 112.999,139.300 114.646 C 135.619 118.608,131.263 123.652,129.133 126.420 C 128.231 127.592,127.121 128.999,126.667 129.545 C 124.681 131.938,118.921 139.633,116.780 142.756 C 113.617 147.367,109.896 153.007,109.063 154.451 C 108.688 155.102,107.798 156.572,107.086 157.718 C 105.985 159.489,102.819 164.814,101.118 167.756 C 100.226 169.299,98.278 173.062,95.068 179.445 C 91.954 185.636,91.249 187.099,89.477 191.051 C 88.986 192.145,88.292 193.679,87.934 194.460 C 87.342 195.756,85.638 200.037,84.882 202.131 C 84.712 202.599,84.416 203.366,84.224 203.835 C 84.031 204.304,83.711 205.135,83.513 205.682 C 83.138 206.720,82.713 207.792,82.108 209.233 C 81.566 210.525,80.441 213.573,79.802 215.483 C 79.488 216.420,79.110 217.409,78.962 217.681 C 78.814 217.952,78.693 218.300,78.693 218.454 C 78.693 218.608,78.390 219.409,78.020 220.234 C 77.650 221.058,77.120 222.500,76.844 223.438 C 76.567 224.375,76.231 225.398,76.096 225.710 C 75.961 226.023,75.600 227.237,75.295 228.409 C 74.989 229.581,74.533 231.243,74.282 232.102 C 74.030 232.962,73.715 234.048,73.581 234.517 C 72.528 238.217,71.973 239.910,71.570 240.665 C 71.083 241.574,71.523 241.730,73.082 241.199 C 74.822 240.607,77.820 239.735,81.392 238.780 C 84.466 237.959,85.353 237.719,86.648 237.355 C 90.238 236.347,95.110 235.589,100.426 235.211 C 107.267 234.724,118.488 235.136,127.841 236.217 C 129.950 236.461,132.827 236.788,134.233 236.943 C 135.639 237.098,136.982 237.284,137.216 237.356 C 138.000 237.598,141.589 238.075,144.602 238.338 C 147.328 238.576,150.055 239.124,153.835 240.192 C 154.616 240.413,155.575 240.670,155.966 240.764 C 158.342 241.334,172.116 244.868,172.585 245.028 C 172.898 245.135,173.409 245.322,173.722 245.444 C 174.034 245.565,175.185 245.955,176.278 246.309 C 178.171 246.922,181.692 248.308,184.301 249.465 C 184.963 249.759,185.583 250.000,185.678 250.000 C 185.774 250.000,186.254 250.175,186.747 250.388 C 187.239 250.601,188.601 251.123,189.773 251.546 C 191.897 252.314,193.081 252.756,195.099 253.537 C 195.685 253.764,197.699 254.542,199.574 255.267 C 201.449 255.991,204.773 257.453,206.960 258.515 C 217.240 263.506,226.336 263.780,230.351 259.218 C 231.510 257.902,234.630 251.785,235.199 249.716 C 235.392 249.013,235.661 248.054,235.798 247.585 C 235.934 247.116,236.129 246.222,236.231 245.597 C 236.334 244.972,236.531 244.077,236.669 243.608 C 236.807 243.139,237.259 241.349,237.673 239.631 C 239.311 232.831,241.799 231.120,244.180 235.157 C 244.480 235.665,244.985 236.161,245.303 236.260 C 245.621 236.358,246.784 236.854,247.887 237.362 C 250.574 238.597,254.129 239.773,255.176 239.773 C 255.643 239.773,256.811 239.991,257.771 240.257 C 261.182 241.203,269.234 240.764,274.574 239.341 C 278.147 238.389,283.945 236.223,287.926 234.352 C 290.528 233.129,290.463 233.227,289.645 231.795 C 286.771 226.767,291.157 223.661,295.096 227.935 C 297.793 230.861,299.983 231.818,303.978 231.818 C 309.573 231.818,313.332 229.117,321.733 219.060 C 322.358 218.312,324.212 216.175,325.852 214.312 C 327.493 212.449,329.474 210.176,330.256 209.261 C 331.037 208.346,331.888 207.352,332.147 207.052 C 335.259 203.451,337.489 200.210,337.489 199.290 C 337.490 196.279,335.562 184.734,333.764 176.989 C 333.600 176.286,333.367 175.263,333.245 174.716 C 333.123 174.169,332.619 172.251,332.123 170.455 C 331.628 168.658,331.035 166.484,330.804 165.625 C 330.115 163.057,325.164 149.041,324.733 148.438 C 324.621 148.281,324.302 147.514,324.024 146.733 C 323.746 145.952,323.276 144.793,322.981 144.157 C 322.195 142.470,322.185 142.556,324.179 134.198 C 324.833 131.453,324.763 131.178,322.658 128.293 C 321.850 127.185,320.672 125.510,320.041 124.572 C 317.384 120.624,315.237 118.140,309.730 112.641 C 306.785 109.701,306.806 109.749,307.884 108.461 C 308.750 107.424,308.899 107.193,310.389 104.547 C 311.459 102.649,312.964 98.916,313.369 97.159 C 313.494 96.612,313.857 95.044,314.174 93.674 C 316.246 84.718,314.538 70.653,310.203 60.978 C 308.309 56.752,308.157 56.437,307.519 55.398 C 307.183 54.851,306.485 53.636,305.968 52.699 C 301.301 44.233,291.741 34.443,281.485 27.629 C 274.257 22.827,267.424 19.377,261.106 17.341 C 255.947 15.678,253.724 15.058,251.965 14.794 C 250.962 14.643,249.055 14.305,247.727 14.044 C 244.936 13.494,230.982 13.214,227.853 13.646 M269.841 106.111 C 271.145 106.342,274.021 106.977,276.233 107.524 C 279.849 108.417,281.834 109.051,287.333 111.069 C 296.839 114.557,307.709 122.769,314.047 131.250 C 315.767 133.551,315.760 133.510,314.975 136.364 C 314.739 137.223,314.396 138.663,314.212 139.563 L 313.879 141.199 315.296 144.250 C 316.498 146.840,317.691 149.545,319.084 152.841 C 319.249 153.232,319.493 153.766,319.626 154.029 C 319.759 154.292,320.132 155.315,320.455 156.302 C 320.778 157.289,321.155 158.352,321.292 158.665 C 321.570 159.295,323.404 165.010,324.530 168.750 C 325.337 171.433,327.281 179.035,327.836 181.676 C 328.032 182.614,328.359 184.084,328.562 184.943 C 328.765 185.803,329.068 187.209,329.235 188.068 C 331.034 197.322,331.059 196.886,328.504 200.771 C 326.396 203.976,323.309 207.304,316.920 213.258 C 315.231 214.832,314.885 215.464,314.384 217.888 C 313.976 219.860,312.998 220.591,311.723 219.878 C 310.341 219.105,310.250 218.191,311.239 215.057 C 311.333 214.760,310.877 214.400,309.735 213.871 C 307.206 212.698,306.799 212.714,306.028 214.021 C 304.824 216.062,302.976 217.614,301.751 217.614 C 300.964 217.614,301.185 217.048,302.697 215.188 C 305.458 211.793,306.895 207.191,306.276 203.727 C 305.840 201.291,306.104 200.494,307.018 201.485 C 307.922 202.466,308.522 204.620,308.526 206.899 L 308.530 208.949 310.444 209.699 C 311.497 210.112,313.043 210.686,313.880 210.974 L 315.401 211.498 316.010 210.757 C 316.345 210.350,317.431 209.009,318.422 207.778 C 320.525 205.168,320.991 204.639,321.989 203.734 C 323.459 202.402,322.143 197.955,319.498 195.310 C 318.236 194.048,319.226 192.898,321.572 192.898 L 323.011 192.898 322.994 191.122 C 322.969 188.620,322.596 185.786,321.903 182.827 C 321.575 181.429,321.307 179.800,321.307 179.209 C 321.307 176.866,317.473 163.950,316.484 162.962 C 316.324 162.802,316.193 162.484,316.193 162.257 C 316.193 161.756,313.601 156.418,312.329 154.301 L 311.415 152.778 310.770 153.520 C 309.980 154.428,309.453 154.449,308.207 153.622 C 301.616 149.247,293.882 147.084,284.517 146.998 C 277.221 146.931,277.652 146.965,277.454 146.449 C 276.854 144.886,282.213 142.614,286.498 142.614 C 288.501 142.614,288.885 142.374,290.140 140.341 C 293.887 134.271,302.323 136.626,303.040 143.944 C 303.236 145.949,303.330 146.076,305.512 147.297 C 306.465 147.830,307.744 148.779,308.356 149.405 C 310.125 151.219,310.053 150.490,308.173 147.551 L 306.434 144.833 306.902 142.800 C 307.927 138.356,307.914 138.597,307.195 137.216 C 306.334 135.564,305.841 134.788,304.972 133.723 C 304.815 133.532,303.868 132.354,302.866 131.105 C 300.392 128.022,298.348 125.922,295.313 123.344 C 293.906 122.149,292.436 120.875,292.045 120.513 C 291.655 120.151,290.984 119.642,290.554 119.383 C 290.124 119.124,289.773 118.811,289.773 118.689 C 289.773 118.566,289.631 118.466,289.458 118.466 C 289.286 118.466,288.678 118.100,288.109 117.653 C 287.540 117.205,286.690 116.625,286.222 116.364 C 285.753 116.102,284.794 115.518,284.091 115.064 C 282.549 114.070,282.146 113.841,278.693 112.002 C 276.382 110.771,273.087 109.322,268.324 107.444 C 264.927 106.104,265.744 105.387,269.841 106.111 M295.618 141.908 C 294.638 142.817,294.751 143.580,295.883 143.693 C 296.351 143.739,297.547 144.042,298.542 144.366 C 300.649 145.052,301.075 144.804,300.362 143.310 C 299.459 141.417,296.949 140.675,295.618 141.908 " stroke="none" fill="#0d244c" fill-rule="evenodd"></path><path id="path1" d="M224.454 6.415 C 221.784 6.761,217.409 7.589,214.773 8.247 C 214.226 8.383,213.192 8.621,212.474 8.776 C 211.757 8.930,210.734 9.249,210.202 9.484 C 209.669 9.718,208.466 10.158,207.528 10.462 C 206.591 10.765,205.121 11.293,204.261 11.636 C 203.402 11.978,202.347 12.368,201.918 12.501 C 201.236 12.713,199.896 13.325,195.739 15.323 C 194.088 16.116,189.660 18.525,189.205 18.878 C 188.970 19.060,188.459 19.358,188.068 19.540 C 186.445 20.299,180.030 24.672,177.131 26.996 C 176.349 27.623,175.199 28.522,174.574 28.994 C 172.373 30.658,165.438 37.397,162.458 40.767 C 146.336 58.999,139.099 78.344,139.202 102.939 C 139.204 103.242,136.587 106.113,132.987 109.757 C 129.568 113.219,125.587 117.393,124.141 119.034 C 122.695 120.675,121.239 122.283,120.906 122.608 C 120.572 122.933,119.215 124.524,117.891 126.143 C 116.567 127.762,115.027 129.605,114.469 130.239 C 113.912 130.873,112.833 132.223,112.072 133.239 C 111.312 134.254,110.097 135.788,109.373 136.648 C 106.762 139.746,100.531 148.538,95.036 156.874 C 91.187 162.714,90.248 164.225,85.122 172.830 C 84.830 173.320,84.011 174.808,83.301 176.136 C 82.591 177.464,81.711 179.028,81.346 179.611 C 80.981 180.194,80.682 180.725,80.682 180.791 C 80.682 180.857,80.215 181.723,79.644 182.714 C 77.475 186.483,69.710 202.132,67.402 207.386 C 67.025 208.246,66.600 209.205,66.458 209.517 C 64.487 213.850,61.745 220.496,58.723 228.267 C 56.170 234.834,53.693 241.607,53.693 242.023 C 53.693 242.181,53.515 242.730,53.297 243.243 C 52.482 245.160,51.069 249.871,49.011 257.528 C 48.509 259.396,47.784 261.956,47.442 263.068 C 47.321 263.459,47.004 264.609,46.736 265.625 C 46.469 266.641,46.135 267.765,45.994 268.124 C 45.207 270.135,45.604 270.222,48.298 268.627 C 49.468 267.934,51.257 266.907,52.273 266.344 C 53.288 265.782,54.594 265.038,55.173 264.692 C 55.753 264.346,57.223 263.501,58.440 262.814 C 59.658 262.127,61.188 261.200,61.841 260.754 C 62.494 260.308,63.082 259.943,63.148 259.943 C 63.214 259.943,65.492 258.713,68.210 257.210 C 70.929 255.707,74.688 253.715,76.563 252.783 C 78.438 251.850,80.419 250.853,80.966 250.566 C 89.162 246.269,107.632 245.646,126.278 249.038 C 138.678 251.294,143.798 252.396,148.580 253.838 C 164.263 258.566,172.437 261.214,178.826 263.636 C 182.321 264.960,183.606 265.394,188.494 266.899 C 193.735 268.514,194.140 268.627,199.148 269.875 C 201.726 270.518,204.155 271.156,204.545 271.293 C 204.936 271.430,206.982 271.996,209.091 272.551 C 219.905 275.393,224.400 275.592,228.747 273.418 C 235.929 269.826,240.685 264.975,243.489 258.381 C 244.270 256.544,245.170 251.131,245.170 248.275 C 245.170 246.321,245.118 246.341,247.796 247.307 C 262.003 252.431,282.748 249.494,296.888 240.355 C 297.867 239.722,298.744 239.206,298.837 239.208 C 298.930 239.210,299.709 239.400,300.568 239.631 C 306.732 241.285,314.163 239.232,317.461 234.963 C 318.134 234.093,319.023 233.017,319.437 232.574 C 319.852 232.130,320.386 231.470,320.624 231.107 C 320.861 230.744,321.502 230.235,322.046 229.977 C 322.598 229.715,323.942 228.429,325.083 227.069 C 327.648 224.015,330.900 220.261,331.824 219.286 C 332.212 218.878,332.995 217.983,333.566 217.298 C 334.137 216.612,336.201 214.162,338.153 211.853 C 345.143 203.587,345.878 202.055,345.181 197.214 C 345.030 196.168,344.767 194.290,344.597 193.040 C 343.863 187.654,342.465 179.742,341.762 176.989 C 341.622 176.442,341.287 175.036,341.018 173.864 C 340.470 171.478,336.348 157.304,335.689 155.540 C 335.455 154.915,334.923 153.445,334.505 152.273 C 333.455 149.328,332.594 147.127,331.394 144.322 C 330.421 142.050,330.385 141.856,330.690 140.495 C 332.016 134.563,332.449 132.675,332.700 131.729 C 333.342 129.314,326.049 118.342,318.799 110.815 C 315.925 107.831,316.008 108.155,317.403 105.380 C 322.191 95.855,323.981 85.326,322.578 74.939 C 320.828 61.976,315.545 49.250,308.262 40.449 C 307.858 39.962,307.145 39.074,306.676 38.476 C 294.319 22.711,272.159 10.190,251.136 7.095 C 243.270 5.937,230.623 5.615,224.454 6.415 M244.744 13.052 C 246.307 13.201,247.841 13.389,248.153 13.470 C 248.466 13.551,250.182 13.890,251.966 14.223 C 253.751 14.557,255.477 14.930,255.802 15.053 C 256.126 15.176,257.543 15.625,258.949 16.051 C 264.353 17.689,269.595 19.949,275.852 23.339 C 279.116 25.107,283.414 28.071,289.063 32.447 C 292.209 34.884,300.314 43.127,301.252 44.842 C 301.393 45.101,301.907 45.760,302.394 46.307 C 305.017 49.255,310.736 59.762,312.366 64.631 C 313.572 68.230,314.816 73.611,315.354 77.557 C 316.083 82.900,315.118 95.643,313.882 97.003 C 313.747 97.151,313.636 97.563,313.636 97.919 C 313.636 98.504,312.267 102.366,311.690 103.409 C 310.238 106.035,309.771 106.791,308.757 108.164 L 307.581 109.756 310.254 112.374 C 313.786 115.835,315.572 117.736,316.909 119.460 C 317.515 120.241,318.150 121.009,318.321 121.165 C 318.589 121.410,321.056 124.814,322.542 126.989 C 325.802 131.758,325.650 130.701,324.048 137.484 C 322.840 142.596,322.841 142.586,323.569 144.013 C 323.875 144.613,324.403 145.919,324.742 146.913 C 325.081 147.908,325.523 149.041,325.725 149.432 C 326.598 151.128,330.859 163.152,331.261 165.057 C 331.376 165.604,331.795 167.138,332.190 168.466 C 332.586 169.794,333.179 172.031,333.509 173.438 C 333.838 174.844,334.286 176.697,334.505 177.557 C 334.724 178.416,335.055 179.886,335.241 180.824 C 335.426 181.761,335.751 183.295,335.963 184.233 C 336.174 185.170,336.669 188.175,337.062 190.909 C 337.455 193.643,337.898 196.695,338.045 197.690 C 338.296 199.389,338.107 200.712,337.553 201.131 C 337.445 201.212,336.784 202.045,336.085 202.983 C 334.545 205.047,332.902 207.058,330.258 210.112 C 329.163 211.377,327.692 213.095,326.989 213.930 C 324.176 217.268,321.941 219.785,320.452 221.288 C 319.592 222.158,318.145 223.788,317.238 224.912 C 310.283 233.524,301.305 235.160,295.237 228.922 C 291.143 224.712,287.490 226.513,290.217 231.398 C 291.466 233.636,291.279 233.787,283.381 236.922 C 283.068 237.046,282.237 237.370,281.534 237.642 C 280.831 237.914,280.000 238.235,279.688 238.356 C 279.375 238.477,278.544 238.762,277.841 238.989 C 277.138 239.216,276.108 239.548,275.553 239.727 C 271.147 241.149,262.699 241.749,258.239 240.957 C 257.067 240.749,255.533 240.482,254.830 240.364 C 253.281 240.105,251.343 239.561,250.000 239.008 C 245.513 237.159,244.403 236.520,243.405 235.208 C 241.123 232.211,239.382 234.030,238.086 240.767 C 237.831 242.091,236.841 246.098,236.014 249.148 C 235.420 251.340,233.628 255.466,233.197 255.634 C 233.064 255.687,232.955 255.906,232.955 256.123 C 232.955 256.835,231.791 258.766,230.658 259.933 C 226.123 264.607,215.305 264.036,205.682 258.616 C 205.135 258.308,203.665 257.643,202.415 257.138 C 201.165 256.633,199.886 256.114,199.574 255.985 C 199.047 255.767,197.214 255.052,195.881 254.545 C 195.568 254.427,194.801 254.132,194.176 253.890 C 191.715 252.940,189.039 251.989,188.826 251.989 C 188.702 251.989,187.938 251.687,187.127 251.319 C 186.317 250.950,185.014 250.421,184.233 250.144 C 183.452 249.866,182.173 249.352,181.392 249.000 C 177.882 247.422,172.293 245.601,166.903 244.278 C 166.278 244.125,165.128 243.820,164.347 243.601 C 163.565 243.382,162.031 243.004,160.938 242.761 C 159.844 242.518,158.501 242.194,157.955 242.040 C 150.619 239.979,147.395 239.306,141.619 238.632 C 140.057 238.450,138.011 238.193,137.074 238.061 C 130.963 237.204,128.182 236.869,125.426 236.656 C 123.707 236.524,121.406 236.261,120.313 236.073 C 117.564 235.599,99.381 235.593,96.882 236.065 C 95.869 236.256,94.208 236.517,93.188 236.645 C 92.169 236.774,90.440 237.094,89.347 237.357 C 88.253 237.620,86.911 237.942,86.364 238.071 C 85.817 238.201,84.666 238.519,83.807 238.778 C 82.947 239.038,81.797 239.352,81.250 239.476 C 79.477 239.881,77.428 240.412,76.847 240.619 C 76.534 240.730,75.575 241.041,74.716 241.311 C 73.857 241.580,72.729 241.994,72.210 242.230 C 70.879 242.836,69.738 242.005,70.649 241.093 C 71.051 240.691,72.235 237.143,73.412 232.813 C 74.102 230.270,74.711 228.213,75.428 225.994 C 75.781 224.901,76.152 223.651,76.253 223.217 C 76.429 222.455,77.576 219.693,78.136 218.683 C 78.286 218.412,78.409 218.031,78.409 217.837 C 78.409 217.313,79.745 213.707,82.333 207.244 C 82.959 205.682,83.817 203.445,84.240 202.273 C 86.167 196.929,90.444 187.077,92.811 182.528 C 93.055 182.060,94.562 179.119,96.159 175.994 C 97.757 172.869,99.318 169.865,99.628 169.318 C 99.938 168.771,100.585 167.621,101.067 166.761 C 103.084 163.160,110.736 150.561,111.074 150.284 C 111.169 150.206,111.801 149.256,112.479 148.173 C 113.156 147.090,113.830 146.067,113.976 145.900 C 114.122 145.733,114.776 144.760,115.430 143.737 C 116.084 142.714,116.907 141.572,117.259 141.198 C 117.610 140.824,117.898 140.424,117.898 140.310 C 117.898 140.151,122.297 134.180,123.622 132.541 C 123.754 132.378,124.914 130.902,126.200 129.261 C 127.485 127.621,128.700 126.109,128.899 125.903 C 129.098 125.697,129.261 125.441,129.262 125.335 C 129.262 125.229,129.722 124.631,130.284 124.006 C 130.847 123.381,132.276 121.719,133.461 120.313 C 134.645 118.906,136.349 116.989,137.247 116.051 C 138.145 115.114,139.154 113.995,139.489 113.565 C 140.373 112.432,141.114 112.541,141.423 113.849 C 141.562 114.435,141.822 115.524,142.002 116.268 C 142.182 117.013,142.330 118.071,142.330 118.619 C 142.330 119.168,142.596 120.348,142.922 121.243 C 143.248 122.137,143.680 123.445,143.882 124.148 C 145.352 129.270,152.737 143.389,154.952 145.313 C 155.132 145.469,155.651 146.108,156.106 146.733 C 165.749 159.971,182.478 170.590,199.582 174.328 C 202.466 174.958,212.990 175.059,216.051 174.486 C 220.226 173.704,224.710 172.561,225.772 172.007 C 226.207 171.780,226.724 171.594,226.921 171.593 C 227.119 171.592,227.502 171.472,227.774 171.328 C 228.045 171.183,229.482 170.510,230.966 169.832 C 242.577 164.530,252.148 154.007,254.372 144.098 C 255.724 138.072,255.765 137.784,255.581 135.606 C 255.136 130.342,253.669 124.256,251.941 120.509 C 251.342 119.210,250.852 118.093,250.852 118.025 C 250.852 117.517,247.082 112.579,245.272 110.717 C 236.556 101.749,221.681 99.076,211.285 104.610 C 209.540 105.539,209.783 105.682,213.111 105.682 C 215.906 105.682,217.010 105.860,220.455 106.867 C 222.148 107.362,223.033 107.752,225.849 109.243 C 226.394 109.532,227.867 110.826,229.122 112.118 C 238.709 121.989,236.691 138.152,225.042 144.797 C 224.316 145.212,223.530 145.711,223.295 145.906 C 222.453 146.609,217.200 147.947,214.480 148.151 C 206.102 148.779,194.041 143.483,187.632 136.364 C 184.697 133.103,183.440 131.492,182.680 130.020 C 182.209 129.109,181.589 128.022,181.300 127.605 C 174.527 117.809,174.627 95.176,181.494 83.701 C 181.787 83.213,182.507 81.918,183.095 80.824 C 184.681 77.874,188.402 72.921,190.282 71.257 C 190.755 70.838,191.249 70.315,191.381 70.093 C 191.823 69.346,197.691 64.819,199.778 63.615 C 200.916 62.958,202.172 62.199,202.569 61.928 C 204.525 60.590,211.420 58.148,215.909 57.202 C 222.275 55.860,233.172 55.660,237.926 56.797 C 238.551 56.946,240.021 57.289,241.193 57.557 C 249.518 59.467,260.378 66.138,265.341 72.390 C 265.888 73.079,266.818 74.216,267.408 74.916 C 267.998 75.615,268.720 76.656,269.012 77.228 C 269.304 77.799,270.004 78.951,270.567 79.787 C 271.130 80.623,271.591 81.435,271.591 81.591 C 271.591 81.747,271.768 82.277,271.985 82.770 C 273.722 86.720,274.558 91.142,274.133 94.139 C 273.841 96.195,274.043 96.875,274.944 96.875 C 275.187 96.875,275.778 96.991,276.258 97.133 C 276.738 97.275,277.898 97.609,278.835 97.876 C 279.773 98.143,280.795 98.466,281.108 98.595 C 281.420 98.723,281.996 98.910,282.386 99.011 C 283.523 99.303,287.048 100.649,287.344 100.904 C 287.492 101.032,287.776 101.136,287.975 101.136 C 288.174 101.136,289.011 101.444,289.836 101.819 C 294.826 104.091,297.125 103.255,299.778 98.204 C 301.981 94.011,303.251 81.291,301.855 77.415 C 301.630 76.790,301.440 75.895,301.434 75.426 C 301.424 74.662,300.314 70.628,299.714 69.176 C 299.585 68.864,299.415 68.352,299.337 68.040 C 299.070 66.970,298.040 64.433,297.599 63.760 C 297.357 63.391,297.159 62.946,297.159 62.772 C 297.159 62.307,295.187 58.286,294.385 57.116 C 294.004 56.562,293.574 55.852,293.428 55.540 C 293.282 55.227,292.789 54.332,292.333 53.551 C 291.877 52.770,291.192 51.555,290.811 50.852 C 290.153 49.638,288.920 48.242,288.920 48.711 C 288.920 48.831,287.983 48.017,286.837 46.902 C 285.690 45.786,284.316 44.555,283.783 44.164 C 283.249 43.774,282.685 43.297,282.528 43.105 C 281.589 41.950,274.344 36.973,270.455 34.811 C 264.496 31.499,261.104 30.083,253.125 27.576 C 241.995 24.079,224.165 23.970,211.932 27.324 C 205.083 29.201,200.734 30.868,194.300 34.080 C 181.963 40.240,168.257 51.474,160.687 61.633 C 159.924 62.657,158.923 63.942,158.463 64.489 C 155.900 67.533,150.195 77.681,148.311 82.546 C 147.830 83.786,147.320 85.009,147.176 85.263 C 147.032 85.518,146.825 86.201,146.716 86.783 C 146.589 87.460,146.437 87.711,146.295 87.481 C 146.058 87.098,146.178 85.712,146.587 84.091 C 146.726 83.544,147.048 82.266,147.304 81.250 C 147.560 80.234,147.887 79.020,148.031 78.551 C 148.175 78.082,148.536 76.868,148.833 75.852 C 149.797 72.563,152.428 66.260,154.497 62.287 C 154.680 61.935,154.980 61.360,155.163 61.009 C 158.834 53.975,168.811 41.786,172.174 40.226 C 172.478 40.085,172.727 39.809,172.727 39.612 C 172.727 39.115,176.594 35.271,178.137 34.234 C 178.834 33.765,179.467 33.306,179.545 33.213 C 179.624 33.120,181.669 31.729,184.091 30.121 C 186.513 28.513,189.006 26.854,189.631 26.433 C 190.256 26.013,191.214 25.498,191.761 25.288 C 192.308 25.078,192.947 24.745,193.182 24.548 C 193.730 24.088,202.974 19.602,203.374 19.602 C 203.541 19.602,204.352 19.300,205.177 18.930 C 207.409 17.928,210.394 16.856,212.709 16.224 C 213.840 15.916,214.868 15.599,214.995 15.521 C 215.711 15.079,226.655 13.099,228.693 13.043 C 229.553 13.020,230.639 12.895,231.108 12.766 C 232.121 12.488,240.721 12.668,244.744 13.052 " stroke="none" fill="#cbb274" fill-rule="evenodd"></path><path id="path2" d="M0.000 142.045 L 0.000 284.091 200.000 284.091 L 400.000 284.091 400.000 142.045 L 400.000 0.000 200.000 0.000 L 0.000 0.000 0.000 142.045 M245.597 6.397 C 256.769 7.658,264.048 9.594,274.543 14.098 C 286.201 19.101,299.249 29.000,306.676 38.476 C 307.145 39.074,307.858 39.962,308.262 40.449 C 314.611 48.122,319.348 58.562,321.874 70.455 C 324.390 82.300,322.813 94.617,317.403 105.380 C 316.008 108.155,315.925 107.831,318.799 110.815 C 326.049 118.342,333.342 129.314,332.700 131.729 C 332.449 132.675,332.016 134.563,330.690 140.495 C 330.385 141.856,330.421 142.050,331.394 144.322 C 332.594 147.127,333.455 149.328,334.505 152.273 C 334.923 153.445,335.455 154.915,335.689 155.540 C 336.348 157.304,340.470 171.478,341.018 173.864 C 341.287 175.036,341.622 176.442,341.762 176.989 C 342.465 179.742,343.863 187.654,344.597 193.040 C 344.767 194.290,345.030 196.168,345.181 197.214 C 345.878 202.055,345.143 203.587,338.153 211.853 C 336.201 214.162,334.137 216.612,333.566 217.298 C 332.995 217.983,332.212 218.878,331.824 219.286 C 330.900 220.261,327.648 224.015,325.083 227.069 C 323.942 228.429,322.598 229.715,322.046 229.977 C 321.502 230.235,320.861 230.744,320.624 231.107 C 320.386 231.470,319.852 232.130,319.437 232.574 C 319.023 233.017,318.134 234.093,317.461 234.963 C 314.163 239.232,306.732 241.285,300.568 239.631 C 299.709 239.400,298.930 239.210,298.837 239.208 C 298.744 239.206,297.867 239.722,296.888 240.355 C 282.748 249.494,262.003 252.431,247.796 247.307 C 245.118 246.341,245.170 246.321,245.170 248.275 C 245.170 251.131,244.270 256.544,243.489 258.381 C 241.769 262.425,238.411 266.981,235.612 269.067 C 227.545 275.081,224.405 275.831,215.057 273.981 C 212.897 273.553,205.848 271.751,204.545 271.293 C 204.155 271.156,201.726 270.518,199.148 269.875 C 194.140 268.627,193.735 268.514,188.494 266.899 C 183.606 265.394,182.321 264.960,178.826 263.636 C 172.930 261.401,171.503 260.928,157.386 256.534 C 153.898 255.448,152.428 254.998,148.580 253.838 C 143.798 252.396,138.678 251.294,126.278 249.038 C 107.632 245.646,89.162 246.269,80.966 250.566 C 80.419 250.853,78.438 251.850,76.563 252.783 C 74.688 253.715,70.929 255.707,68.210 257.210 C 65.492 258.713,63.214 259.943,63.148 259.943 C 63.082 259.943,62.494 260.308,61.841 260.754 C 61.188 261.200,59.658 262.127,58.440 262.814 C 57.223 263.501,55.753 264.346,55.173 264.692 C 54.594 265.038,53.288 265.782,52.273 266.344 C 51.257 266.907,49.468 267.934,48.298 268.627 C 45.604 270.222,45.207 270.135,45.994 268.124 C 46.135 267.765,46.469 266.641,46.736 265.625 C 47.004 264.609,47.321 263.459,47.442 263.068 C 47.784 261.956,48.509 259.396,49.011 257.528 C 51.069 249.871,52.482 245.160,53.297 243.243 C 53.515 242.730,53.693 242.181,53.693 242.023 C 53.693 241.607,56.170 234.834,58.723 228.267 C 61.745 220.496,64.487 213.850,66.458 209.517 C 66.600 209.205,67.025 208.246,67.402 207.386 C 69.710 202.132,77.475 186.483,79.644 182.714 C 80.215 181.723,80.682 180.857,80.682 180.791 C 80.682 180.725,80.981 180.194,81.346 179.611 C 81.711 179.028,82.591 177.464,83.301 176.136 C 84.011 174.808,84.830 173.320,85.122 172.830 C 90.248 164.225,91.187 162.714,95.036 156.874 C 100.531 148.538,106.762 139.746,109.373 136.648 C 110.097 135.788,111.312 134.254,112.072 133.239 C 112.833 132.223,113.912 130.873,114.469 130.239 C 115.027 129.605,116.567 127.762,117.891 126.143 C 119.215 124.524,120.572 122.933,120.906 122.608 C 121.239 122.283,122.695 120.675,124.141 119.034 C 125.587 117.393,129.568 113.219,132.987 109.757 C 136.587 106.113,139.204 103.242,139.202 102.939 C 139.099 78.344,146.336 58.999,162.458 40.767 C 165.438 37.397,172.373 30.658,174.574 28.994 C 175.199 28.522,176.349 27.623,177.131 26.996 C 180.030 24.672,186.445 20.299,188.068 19.540 C 188.459 19.358,188.970 19.060,189.205 18.878 C 189.660 18.525,194.088 16.116,195.739 15.323 C 199.896 13.325,201.236 12.713,201.918 12.501 C 202.347 12.368,203.402 11.978,204.261 11.636 C 205.121 11.293,206.591 10.765,207.528 10.462 C 208.466 10.158,209.669 9.718,210.202 9.484 C 210.734 9.249,211.757 8.930,212.474 8.776 C 213.192 8.621,214.226 8.383,214.773 8.247 C 223.432 6.086,236.098 5.326,245.597 6.397 M221.307 19.185 C 215.438 19.840,210.463 20.949,205.256 22.763 C 204.318 23.089,203.120 23.461,202.593 23.588 C 202.066 23.715,201.497 23.957,201.329 24.126 C 201.161 24.294,200.803 24.432,200.534 24.432 C 200.266 24.432,199.684 24.614,199.242 24.838 C 198.799 25.061,197.607 25.580,196.591 25.990 C 195.575 26.401,194.361 26.944,193.892 27.197 C 192.796 27.789,192.457 27.956,190.909 28.663 C 190.206 28.985,188.953 29.635,188.125 30.107 C 187.297 30.579,186.511 30.966,186.380 30.966 C 186.248 30.966,185.101 31.669,183.832 32.528 C 182.563 33.388,181.465 34.091,181.393 34.091 C 181.232 34.091,178.781 35.701,176.847 37.077 C 176.065 37.633,175.011 38.268,174.503 38.489 C 173.995 38.711,173.580 39.023,173.580 39.184 C 173.580 39.345,173.100 39.727,172.514 40.032 C 168.563 42.088,158.797 53.885,155.207 60.938 C 155.048 61.250,154.749 61.825,154.541 62.216 C 152.563 65.940,149.809 72.520,148.833 75.852 C 148.536 76.868,148.175 78.082,148.031 78.551 C 147.887 79.020,147.560 80.234,147.304 81.250 C 147.048 82.266,146.726 83.544,146.587 84.091 C 146.178 85.712,146.058 87.098,146.295 87.481 C 146.437 87.711,146.589 87.460,146.716 86.783 C 146.825 86.201,147.032 85.518,147.176 85.263 C 147.320 85.009,147.830 83.786,148.311 82.546 C 150.195 77.681,155.900 67.533,158.463 64.489 C 158.923 63.942,159.924 62.657,160.687 61.633 C 168.257 51.474,181.963 40.240,194.300 34.080 C 200.734 30.868,205.083 29.201,211.932 27.324 C 224.165 23.970,241.995 24.079,253.125 27.576 C 261.104 30.083,264.496 31.499,270.455 34.811 C 274.344 36.973,281.589 41.950,282.528 43.105 C 282.685 43.297,283.249 43.774,283.783 44.164 C 284.316 44.555,285.690 45.786,286.837 46.902 C 288.109 48.140,288.920 48.751,288.920 48.471 C 288.920 48.218,288.793 48.011,288.636 48.011 C 288.480 48.011,288.352 47.820,288.352 47.585 C 288.352 47.351,288.244 47.159,288.112 47.159 C 287.979 47.159,287.756 46.916,287.614 46.619 C 287.345 46.053,285.121 43.462,282.244 40.362 C 275.230 32.806,267.374 27.678,256.108 23.302 C 255.518 23.072,251.477 21.867,249.006 21.184 C 241.342 19.063,229.840 18.234,221.307 19.185 M270.052 107.196 C 270.377 107.438,270.985 107.722,271.404 107.827 C 271.822 107.932,272.235 108.131,272.321 108.270 C 272.406 108.409,272.662 108.523,272.888 108.523 C 273.370 108.523,279.047 111.249,281.108 112.470 C 281.889 112.933,283.040 113.590,283.665 113.930 C 290.104 117.430,298.477 124.544,303.705 130.956 C 304.402 131.810,305.195 132.761,305.469 133.069 C 305.742 133.378,305.966 133.724,305.966 133.840 C 305.966 133.956,306.128 134.219,306.327 134.426 C 308.525 136.711,308.747 137.897,307.800 142.306 L 307.286 144.697 307.945 145.857 C 308.308 146.495,309.656 148.615,310.941 150.568 C 312.226 152.521,313.375 154.439,313.494 154.830 C 313.613 155.220,313.931 155.859,314.201 156.250 C 315.805 158.575,319.243 167.125,320.656 172.301 C 321.720 176.204,321.877 176.949,322.147 179.403 C 322.285 180.653,322.592 182.411,322.831 183.310 C 323.515 185.886,323.907 189.161,323.811 191.477 L 323.722 193.608 321.913 193.656 C 319.379 193.722,319.362 193.840,321.435 196.985 C 324.045 200.944,324.178 203.172,321.906 204.852 C 321.425 205.207,320.714 205.978,320.326 206.565 C 319.693 207.522,318.647 208.786,316.194 211.557 C 315.438 212.412,314.205 212.624,314.205 211.899 C 314.205 211.761,314.025 211.648,313.806 211.648 C 313.152 211.648,308.510 209.775,307.927 209.275 C 307.490 208.901,307.378 208.388,307.342 206.608 L 307.298 204.403 307.093 206.676 C 306.980 207.926,306.606 209.652,306.261 210.511 C 305.916 211.371,305.566 212.298,305.483 212.571 C 305.400 212.844,305.232 213.068,305.111 213.068 C 304.990 213.068,304.811 213.388,304.713 213.778 C 304.615 214.169,304.409 214.489,304.256 214.489 C 304.103 214.489,303.977 214.680,303.977 214.915 C 303.977 215.149,303.849 215.341,303.693 215.341 C 303.537 215.341,303.410 215.501,303.410 215.696 C 303.411 215.891,303.795 215.643,304.263 215.143 C 304.731 214.644,305.114 214.107,305.114 213.950 C 305.114 213.793,305.283 213.562,305.490 213.437 C 305.697 213.312,305.950 212.984,306.052 212.707 C 306.375 211.827,307.078 211.837,309.056 212.748 C 310.116 213.237,311.090 213.636,311.222 213.636 C 312.158 213.636,312.478 214.555,311.920 215.647 C 311.021 217.410,311.324 219.318,312.503 219.318 C 313.147 219.318,313.920 217.994,313.920 216.890 C 313.920 215.565,314.805 214.478,320.487 208.818 C 330.116 199.225,330.495 198.336,328.718 189.489 C 328.577 188.786,328.311 187.379,328.128 186.364 C 327.945 185.348,327.619 183.912,327.404 183.173 C 327.189 182.433,326.864 181.027,326.682 180.048 C 326.500 179.068,326.249 178.011,326.126 177.699 C 326.002 177.386,325.682 176.172,325.413 175.000 C 325.144 173.828,324.639 171.911,324.292 170.739 C 323.944 169.567,323.434 167.841,323.157 166.903 C 321.654 161.804,318.381 152.649,317.881 152.145 C 317.734 151.996,317.614 151.630,317.614 151.331 C 317.614 151.032,317.315 150.195,316.950 149.470 C 316.585 148.746,315.927 147.386,315.489 146.449 C 315.050 145.511,314.329 144.015,313.886 143.123 C 313.151 141.644,313.107 141.382,313.374 140.140 C 313.535 139.391,313.777 138.203,313.911 137.500 C 314.046 136.797,314.295 135.862,314.464 135.422 C 314.994 134.049,314.827 133.590,312.820 130.892 C 307.234 123.384,296.361 115.255,287.642 112.069 C 286.861 111.783,286.094 111.463,285.938 111.356 C 284.789 110.572,274.444 107.613,270.455 106.927 C 269.505 106.764,269.487 106.776,270.052 107.196 M142.619 122.443 C 142.563 129.473,147.643 142.784,153.722 151.540 C 155.764 154.480,156.049 154.870,156.676 155.573 C 156.989 155.924,157.882 156.955,158.661 157.864 C 162.472 162.308,169.237 168.052,174.674 171.458 C 174.932 171.619,175.845 172.207,176.705 172.765 C 180.343 175.128,186.860 177.968,191.903 179.388 C 192.841 179.652,193.902 179.987,194.261 180.133 C 194.619 180.279,195.323 180.399,195.823 180.401 C 196.323 180.403,197.396 180.581,198.207 180.797 C 202.056 181.822,211.470 181.611,217.472 180.366 C 220.510 179.736,229.007 176.959,229.545 176.420 C 229.624 176.342,230.199 176.026,230.824 175.718 C 236.180 173.075,243.765 167.089,246.708 163.182 C 247.191 162.542,248.113 161.327,248.758 160.483 C 250.759 157.863,252.909 153.718,254.048 150.284 C 255.389 146.239,255.717 144.415,255.834 140.341 C 255.933 136.865,255.891 136.934,254.872 141.903 C 252.446 153.738,243.612 164.058,230.966 169.832 C 229.482 170.510,228.045 171.183,227.774 171.328 C 227.502 171.472,227.119 171.592,226.921 171.593 C 226.724 171.594,226.207 171.780,225.772 172.007 C 224.710 172.561,220.226 173.704,216.051 174.486 C 212.990 175.059,202.466 174.958,199.582 174.328 C 182.478 170.590,165.749 159.971,156.106 146.733 C 155.651 146.108,155.132 145.469,154.952 145.313 C 153.966 144.457,150.029 137.848,147.590 132.955 C 145.613 128.988,144.640 126.627,143.610 123.295 C 142.859 120.868,142.633 120.673,142.619 122.443 M293.341 138.144 C 292.725 138.493,291.678 139.482,291.015 140.341 C 288.571 143.507,288.633 143.466,286.331 143.466 C 284.212 143.466,283.613 143.600,280.313 144.808 C 277.394 145.877,277.923 146.183,282.483 146.062 C 287.621 145.925,293.324 146.600,297.159 147.798 C 300.594 148.872,306.264 151.436,308.626 152.984 C 309.343 153.454,310.227 153.297,310.227 152.699 C 310.227 151.961,307.572 149.412,305.450 148.111 C 302.282 146.170,302.273 146.160,302.273 144.452 C 302.273 139.560,297.184 135.966,293.341 138.144 M299.128 141.041 C 302.196 142.627,302.282 146.325,299.229 145.362 C 298.481 145.127,297.166 144.778,296.307 144.589 C 293.709 144.015,293.365 143.226,295.000 141.591 C 296.095 140.496,297.669 140.286,299.128 141.041 " stroke="none" fill="#fbfbfb" fill-rule="evenodd"></path><path id="path3" d="M231.108 12.766 C 230.639 12.895,229.553 13.020,228.693 13.043 C 226.655 13.099,215.711 15.079,214.995 15.521 C 214.868 15.599,213.840 15.916,212.709 16.224 C 210.394 16.856,207.409 17.928,205.177 18.930 C 204.352 19.300,203.541 19.602,203.374 19.602 C 202.974 19.602,193.730 24.088,193.182 24.548 C 192.947 24.745,192.308 25.078,191.761 25.288 C 191.214 25.498,190.256 26.013,189.631 26.433 C 189.006 26.854,186.518 28.513,184.102 30.120 C 181.687 31.728,179.577 33.149,179.415 33.278 C 179.252 33.407,178.129 34.283,176.918 35.225 C 173.338 38.011,174.042 38.181,178.184 35.531 C 179.544 34.661,181.864 33.214,183.339 32.315 C 186.503 30.388,196.361 25.410,197.585 25.121 C 198.054 25.010,198.889 24.693,199.442 24.417 C 202.502 22.886,210.814 20.428,216.051 19.506 C 222.125 18.436,232.792 18.046,237.358 18.726 C 240.217 19.153,241.448 19.034,238.920 18.576 C 237.501 18.319,234.323 18.185,229.403 18.174 C 221.864 18.156,221.611 18.179,213.571 19.611 C 211.734 19.938,207.072 21.241,204.824 22.056 C 203.805 22.425,202.826 22.727,202.648 22.727 C 202.471 22.727,201.451 23.122,200.382 23.603 C 199.312 24.085,197.875 24.672,197.187 24.908 C 195.481 25.492,185.621 30.437,184.517 31.262 C 183.704 31.870,181.464 32.979,181.327 32.842 C 181.240 32.755,181.411 32.594,181.706 32.485 C 182.002 32.375,182.308 32.207,182.386 32.110 C 182.822 31.569,186.300 29.172,188.636 27.801 C 193.917 24.702,195.694 23.771,200.568 21.550 C 201.584 21.087,202.670 20.592,202.983 20.448 C 209.603 17.418,220.137 14.600,228.555 13.607 C 232.431 13.150,244.562 13.428,247.727 14.047 C 249.055 14.307,250.962 14.643,251.965 14.794 C 253.724 15.058,255.947 15.678,261.106 17.341 C 278.480 22.941,298.079 38.389,305.968 52.699 C 306.485 53.636,307.183 54.851,307.519 55.398 C 308.157 56.437,308.309 56.752,310.203 60.978 C 314.538 70.653,316.246 84.718,314.174 93.674 C 313.857 95.044,313.494 96.612,313.369 97.159 C 312.964 98.916,311.459 102.649,310.389 104.547 C 308.899 107.193,308.750 107.424,307.884 108.461 C 306.806 109.749,306.785 109.701,309.730 112.641 C 315.237 118.140,317.384 120.624,320.041 124.572 C 320.672 125.510,321.850 127.185,322.658 128.293 C 324.763 131.178,324.833 131.453,324.179 134.198 C 322.185 142.556,322.195 142.470,322.981 144.157 C 323.276 144.793,323.746 145.952,324.024 146.733 C 324.302 147.514,324.621 148.281,324.733 148.438 C 325.164 149.041,330.115 163.057,330.804 165.625 C 331.035 166.484,331.628 168.658,332.123 170.455 C 332.618 172.251,333.148 174.297,333.300 175.000 C 333.453 175.703,333.687 176.726,333.819 177.273 C 335.416 183.881,337.490 196.325,337.489 199.290 C 337.489 200.210,335.259 203.451,332.147 207.052 C 331.888 207.352,331.037 208.346,330.256 209.261 C 329.474 210.176,327.493 212.449,325.852 214.312 C 324.212 216.175,322.358 218.312,321.733 219.060 C 313.332 229.117,309.573 231.818,303.978 231.818 C 299.983 231.818,297.793 230.861,295.096 227.935 C 291.157 223.662,286.771 226.768,289.645 231.795 C 290.463 233.227,290.528 233.129,287.926 234.352 C 283.945 236.223,278.147 238.389,274.574 239.341 C 269.234 240.764,261.182 241.203,257.771 240.257 C 256.811 239.991,255.643 239.773,255.176 239.773 C 254.129 239.773,250.574 238.597,247.887 237.362 C 246.784 236.854,245.621 236.358,245.303 236.260 C 244.985 236.161,244.480 235.665,244.180 235.157 C 241.799 231.120,239.311 232.831,237.673 239.631 C 237.259 241.349,236.807 243.139,236.669 243.608 C 236.531 244.077,236.334 244.972,236.231 245.597 C 236.129 246.222,235.934 247.116,235.798 247.585 C 235.661 248.054,235.392 249.013,235.199 249.716 C 234.630 251.785,231.510 257.902,230.351 259.218 C 226.336 263.780,217.240 263.506,206.960 258.515 C 204.773 257.453,201.449 255.991,199.574 255.267 C 197.699 254.542,195.685 253.764,195.099 253.537 C 193.081 252.756,191.897 252.314,189.773 251.546 C 188.601 251.123,187.239 250.601,186.747 250.388 C 186.254 250.175,185.774 250.000,185.678 250.000 C 185.583 250.000,184.963 249.759,184.301 249.465 C 181.692 248.308,178.171 246.922,176.278 246.309 C 175.185 245.955,174.034 245.565,173.722 245.444 C 173.409 245.322,172.898 245.135,172.585 245.028 C 172.116 244.868,158.342 241.334,155.966 240.764 C 155.575 240.670,154.616 240.413,153.835 240.192 C 150.055 239.124,147.328 238.576,144.602 238.338 C 141.589 238.075,138.000 237.598,137.216 237.356 C 136.982 237.284,135.639 237.098,134.233 236.943 C 132.827 236.788,129.950 236.461,127.841 236.217 C 111.121 234.284,96.110 234.699,86.648 237.355 C 85.368 237.715,84.459 237.961,81.534 238.743 C 79.859 239.190,77.099 239.957,75.710 240.362 C 75.241 240.498,74.123 240.857,73.224 241.158 C 71.531 241.727,71.074 241.591,71.570 240.665 C 71.973 239.910,72.528 238.217,73.581 234.517 C 73.715 234.048,74.030 232.962,74.282 232.102 C 74.533 231.243,74.989 229.581,75.295 228.409 C 75.600 227.237,75.961 226.023,76.096 225.710 C 76.231 225.398,76.567 224.375,76.844 223.438 C 77.120 222.500,77.650 221.058,78.020 220.234 C 78.390 219.409,78.693 218.608,78.693 218.454 C 78.693 218.300,78.814 217.952,78.962 217.681 C 79.110 217.409,79.488 216.420,79.802 215.483 C 80.441 213.573,81.566 210.525,82.108 209.233 C 82.713 207.792,83.138 206.720,83.513 205.682 C 83.711 205.135,84.031 204.304,84.224 203.835 C 84.416 203.366,84.712 202.599,84.882 202.131 C 85.705 199.850,87.375 195.687,88.129 194.034 C 88.593 193.018,89.287 191.484,89.672 190.625 C 91.243 187.117,92.044 185.459,95.068 179.445 C 98.278 173.062,100.226 169.299,101.118 167.756 C 102.819 164.814,105.985 159.489,107.086 157.718 C 107.798 156.572,108.688 155.102,109.063 154.451 C 109.896 153.007,113.617 147.367,116.780 142.756 C 118.921 139.633,124.681 131.938,126.667 129.545 C 127.121 128.999,128.231 127.592,129.133 126.420 C 131.263 123.652,135.619 118.608,139.300 114.646 C 140.830 112.999,141.382 114.220,141.622 119.782 C 141.785 123.589,142.702 128.843,143.896 132.813 C 144.919 136.214,145.969 139.222,146.262 139.589 C 146.405 139.768,146.615 140.234,146.730 140.625 C 147.964 144.838,154.238 154.284,159.517 159.878 C 171.620 172.703,190.517 182.319,203.125 182.069 C 204.280 182.046,203.835 181.943,201.420 181.675 C 187.073 180.080,174.547 173.738,161.322 161.375 C 158.850 159.065,155.910 155.384,151.576 149.177 C 150.264 147.298,147.662 142.288,146.696 139.780 C 146.303 138.760,145.874 137.670,145.742 137.358 C 145.201 136.080,144.045 132.411,143.638 130.682 C 142.499 125.849,142.240 124.060,142.180 120.597 C 142.123 117.359,141.838 114.956,141.311 113.281 C 141.078 112.540,140.179 112.680,139.489 113.565 C 139.154 113.995,138.145 115.114,137.247 116.051 C 136.349 116.989,134.645 118.906,133.461 120.313 C 132.276 121.719,130.847 123.381,130.284 124.006 C 129.722 124.631,129.262 125.229,129.262 125.335 C 129.261 125.441,129.098 125.697,128.899 125.903 C 128.700 126.109,127.485 127.621,126.200 129.261 C 124.914 130.902,123.754 132.378,123.622 132.541 C 122.297 134.180,117.898 140.151,117.898 140.310 C 117.898 140.424,117.610 140.824,117.259 141.198 C 116.907 141.572,116.084 142.714,115.430 143.737 C 114.776 144.760,114.122 145.733,113.976 145.900 C 113.830 146.067,113.156 147.090,112.479 148.173 C 111.801 149.256,111.169 150.206,111.074 150.284 C 110.736 150.561,103.084 163.160,101.067 166.761 C 100.585 167.621,99.938 168.771,99.628 169.318 C 99.318 169.865,97.757 172.869,96.159 175.994 C 94.562 179.119,93.055 182.060,92.811 182.528 C 90.444 187.077,86.167 196.929,84.240 202.273 C 83.817 203.445,82.959 205.682,82.333 207.244 C 79.745 213.707,78.409 217.313,78.409 217.837 C 78.409 218.031,78.286 218.412,78.136 218.683 C 77.576 219.693,76.429 222.455,76.253 223.217 C 76.152 223.651,75.781 224.901,75.428 225.994 C 74.711 228.213,74.102 230.270,73.412 232.813 C 72.235 237.143,71.051 240.691,70.649 241.093 C 69.738 242.005,70.879 242.836,72.210 242.230 C 72.729 241.994,73.857 241.580,74.716 241.311 C 75.575 241.041,76.534 240.730,76.847 240.619 C 77.428 240.412,79.477 239.881,81.250 239.476 C 81.797 239.352,82.947 239.038,83.807 238.778 C 84.666 238.519,85.817 238.201,86.364 238.071 C 86.911 237.942,88.253 237.620,89.347 237.357 C 90.440 237.094,92.169 236.774,93.188 236.645 C 94.208 236.517,95.869 236.256,96.882 236.065 C 99.381 235.593,117.564 235.599,120.313 236.073 C 121.406 236.261,123.707 236.524,125.426 236.656 C 128.182 236.869,130.963 237.204,137.074 238.061 C 138.011 238.193,140.057 238.450,141.619 238.632 C 147.395 239.306,150.619 239.979,157.955 242.040 C 158.501 242.194,159.844 242.518,160.938 242.761 C 162.031 243.004,163.565 243.382,164.347 243.601 C 165.128 243.820,166.278 244.125,166.903 244.278 C 172.293 245.601,177.882 247.422,181.392 249.000 C 182.173 249.352,183.452 249.866,184.233 250.144 C 185.014 250.421,186.317 250.950,187.127 251.319 C 187.938 251.687,188.702 251.989,188.826 251.989 C 189.039 251.989,191.715 252.940,194.176 253.890 C 194.801 254.132,195.568 254.427,195.881 254.545 C 197.214 255.052,199.047 255.767,199.574 255.985 C 199.886 256.114,201.165 256.633,202.415 257.138 C 203.665 257.643,205.135 258.308,205.682 258.616 C 215.305 264.036,226.123 264.607,230.658 259.933 C 231.791 258.766,232.955 256.835,232.955 256.123 C 232.955 255.906,233.064 255.687,233.197 255.634 C 233.628 255.466,235.420 251.340,236.014 249.148 C 236.841 246.098,237.831 242.091,238.086 240.767 C 239.382 234.030,241.123 232.211,243.405 235.208 C 244.403 236.520,245.513 237.159,250.000 239.008 C 251.343 239.561,253.281 240.105,254.830 240.364 C 255.533 240.482,257.067 240.749,258.239 240.957 C 262.699 241.749,271.147 241.149,275.553 239.727 C 276.108 239.548,277.138 239.216,277.841 238.989 C 278.544 238.762,279.375 238.477,279.688 238.356 C 280.000 238.235,280.831 237.914,281.534 237.642 C 282.237 237.370,283.068 237.046,283.381 236.922 C 291.279 233.787,291.466 233.636,290.217 231.398 C 287.490 226.513,291.143 224.712,295.237 228.922 C 301.305 235.160,310.283 233.524,317.238 224.912 C 318.145 223.788,319.592 222.158,320.452 221.288 C 321.846 219.880,323.415 218.110,326.982 213.920 C 327.581 213.217,329.011 211.555,330.160 210.227 C 332.908 207.050,334.534 205.062,336.085 202.983 C 336.784 202.045,337.445 201.212,337.553 201.131 C 338.107 200.712,338.296 199.389,338.045 197.690 C 337.898 196.695,337.455 193.643,337.062 190.909 C 336.669 188.175,336.174 185.170,335.963 184.233 C 335.751 183.295,335.426 181.761,335.241 180.824 C 335.055 179.886,334.724 178.416,334.505 177.557 C 334.286 176.697,333.838 174.844,333.509 173.438 C 333.179 172.031,332.586 169.794,332.190 168.466 C 331.795 167.138,331.376 165.604,331.261 165.057 C 330.859 163.152,326.598 151.128,325.725 149.432 C 325.523 149.041,325.081 147.908,324.742 146.913 C 324.403 145.919,323.875 144.613,323.569 144.013 C 322.841 142.586,322.840 142.596,324.048 137.484 C 325.650 130.701,325.802 131.758,322.542 126.989 C 321.169 124.979,318.615 121.431,318.452 121.307 C 318.350 121.229,317.651 120.398,316.901 119.460 C 315.233 117.378,313.734 115.780,310.254 112.373 L 307.581 109.756 308.757 108.164 C 309.771 106.791,310.238 106.035,311.690 103.409 C 312.267 102.366,313.636 98.504,313.636 97.919 C 313.636 97.563,313.747 97.151,313.882 97.003 C 315.118 95.643,316.083 82.900,315.354 77.557 C 314.816 73.611,313.572 68.230,312.366 64.631 C 310.736 59.762,305.017 49.255,302.394 46.307 C 301.907 45.760,301.393 45.101,301.252 44.842 C 300.575 43.604,295.900 38.641,291.754 34.760 C 288.310 31.535,280.107 25.644,275.852 23.339 C 269.595 19.949,264.353 17.689,258.949 16.051 C 257.543 15.625,256.126 15.176,255.802 15.053 C 255.477 14.930,253.751 14.557,251.966 14.223 C 250.182 13.890,248.466 13.551,248.153 13.470 C 245.937 12.896,232.635 12.346,231.108 12.766 M242.472 19.337 C 257.727 21.869,271.702 28.904,281.430 38.950 C 286.097 43.769,288.992 47.361,290.464 50.157 C 291.035 51.242,291.876 52.770,292.333 53.551 C 292.789 54.332,293.282 55.227,293.428 55.540 C 293.574 55.852,294.004 56.562,294.385 57.116 C 295.187 58.286,297.159 62.307,297.159 62.772 C 297.159 62.946,297.357 63.391,297.599 63.760 C 298.040 64.433,299.070 66.970,299.337 68.040 C 299.415 68.352,299.585 68.864,299.714 69.176 C 300.314 70.628,301.424 74.662,301.434 75.426 C 301.440 75.895,301.630 76.790,301.855 77.415 C 303.251 81.291,301.981 94.011,299.778 98.204 C 297.125 103.255,294.826 104.091,289.836 101.819 C 289.011 101.444,288.174 101.136,287.975 101.136 C 287.776 101.136,287.492 101.032,287.344 100.904 C 287.048 100.649,283.523 99.303,282.386 99.011 C 281.996 98.910,281.420 98.723,281.108 98.595 C 280.795 98.466,279.773 98.143,278.835 97.876 C 277.898 97.609,276.738 97.275,276.258 97.133 C 275.778 96.991,275.187 96.875,274.944 96.875 C 274.043 96.875,273.841 96.195,274.133 94.139 C 274.558 91.142,273.722 86.720,271.985 82.770 C 271.768 82.277,271.591 81.747,271.591 81.591 C 271.591 81.435,271.130 80.623,270.567 79.787 C 270.004 78.951,269.304 77.799,269.012 77.228 C 268.720 76.656,267.998 75.615,267.408 74.916 C 266.818 74.216,265.888 73.079,265.341 72.390 C 260.378 66.138,249.518 59.467,241.193 57.557 C 240.021 57.289,238.551 56.946,237.926 56.797 C 233.172 55.660,222.275 55.860,215.909 57.202 C 211.420 58.148,204.525 60.590,202.569 61.928 C 202.172 62.199,200.916 62.958,199.778 63.615 C 197.691 64.819,191.823 69.346,191.381 70.093 C 191.249 70.315,190.755 70.838,190.282 71.257 C 188.402 72.921,184.681 77.874,183.095 80.824 C 182.507 81.918,181.787 83.213,181.494 83.701 C 174.627 95.176,174.527 117.809,181.300 127.605 C 181.589 128.022,182.209 129.109,182.680 130.020 C 183.440 131.492,184.697 133.103,187.632 136.364 C 194.041 143.483,206.102 148.779,214.480 148.151 C 217.200 147.947,222.453 146.609,223.295 145.906 C 223.530 145.711,224.316 145.212,225.042 144.797 C 236.691 138.152,238.709 121.989,229.122 112.118 C 227.867 110.826,226.394 109.532,225.849 109.243 C 223.033 107.752,222.148 107.362,220.455 106.867 C 217.010 105.860,215.906 105.682,213.111 105.682 C 209.783 105.682,209.540 105.539,211.285 104.610 C 221.684 99.074,236.644 101.767,245.307 110.735 C 247.087 112.579,250.852 117.528,250.852 118.025 C 250.852 118.093,251.342 119.210,251.941 120.509 C 253.110 123.044,254.119 126.484,255.091 131.250 C 256.103 136.208,256.207 136.967,256.258 139.773 C 256.297 141.881,256.359 142.254,256.543 141.477 C 256.797 140.398,256.382 134.195,255.962 132.813 C 255.820 132.344,255.620 131.257,255.518 130.398 C 252.932 108.545,229.745 94.767,211.163 104.042 C 207.574 105.833,207.613 106.531,211.292 106.321 C 219.428 105.857,228.277 109.942,231.210 115.515 C 231.466 116.002,232.033 117.064,232.469 117.873 C 241.008 133.727,224.926 151.617,206.534 146.724 C 180.337 139.754,168.918 109.979,182.303 83.542 C 186.565 75.124,192.886 68.356,200.852 63.682 C 201.712 63.178,202.607 62.648,202.841 62.506 C 212.328 56.723,231.185 54.902,242.898 58.637 C 260.844 64.360,273.913 79.276,273.529 93.596 L 273.438 96.993 274.432 97.332 C 274.979 97.518,276.960 98.080,278.835 98.582 C 281.777 99.368,286.810 101.159,289.631 102.423 C 293.060 103.961,294.809 104.108,296.554 103.006 C 302.660 99.152,304.848 84.893,301.287 72.159 C 299.522 65.846,296.102 58.242,292.600 52.841 C 292.144 52.138,291.683 51.371,291.576 51.136 C 288.112 43.563,275.262 31.717,264.631 26.296 C 257.362 22.589,245.811 18.916,241.903 19.068 C 241.312 19.091,241.485 19.173,242.472 19.337 M266.536 105.874 C 265.969 106.101,266.624 106.731,268.113 107.390 C 269.817 108.143,270.315 108.088,268.892 107.303 L 267.756 106.676 269.744 106.570 L 271.733 106.465 269.744 106.096 C 267.551 105.689,267.079 105.656,266.536 105.874 M272.159 106.774 C 272.393 106.897,273.608 107.228,274.858 107.511 C 276.108 107.794,278.199 108.337,279.504 108.718 C 280.809 109.099,281.940 109.348,282.017 109.271 C 282.192 109.096,279.197 108.210,275.217 107.261 C 272.009 106.496,271.461 106.409,272.159 106.774 M270.194 108.065 C 270.259 108.126,271.591 108.713,273.153 109.370 C 276.558 110.802,281.353 113.298,284.091 115.064 C 284.794 115.518,285.753 116.102,286.222 116.364 C 286.690 116.625,287.540 117.205,288.109 117.653 C 288.678 118.100,289.286 118.466,289.458 118.466 C 289.631 118.466,289.773 118.566,289.773 118.689 C 289.773 118.811,290.124 119.124,290.554 119.383 C 290.984 119.642,291.655 120.151,292.045 120.513 C 292.436 120.875,293.906 122.149,295.313 123.344 C 298.348 125.922,300.392 128.022,302.866 131.105 C 303.868 132.354,304.815 133.532,304.972 133.723 C 306.731 135.879,307.918 138.306,307.653 139.205 C 307.537 139.595,307.439 140.298,307.435 140.767 C 307.430 141.359,307.557 141.127,307.850 140.008 C 308.360 138.066,308.160 137.564,305.378 133.790 C 299.301 125.547,290.898 118.345,280.966 112.868 C 275.994 110.126,269.115 107.058,270.194 108.065 M282.410 109.492 C 282.475 109.556,283.935 110.142,285.653 110.793 C 296.701 114.979,306.870 122.311,313.100 130.580 C 315.346 133.562,315.341 133.535,314.347 137.555 C 313.498 140.984,313.480 141.464,314.156 142.676 C 314.944 144.087,317.289 149.269,318.371 151.989 C 318.900 153.317,319.454 154.659,319.603 154.972 C 321.020 157.946,325.232 172.005,327.156 180.182 C 327.588 182.016,328.003 183.455,328.079 183.379 C 328.303 183.156,325.964 173.517,324.530 168.750 C 323.404 165.010,321.570 159.295,321.292 158.665 C 321.155 158.352,320.778 157.289,320.455 156.302 C 320.132 155.315,319.759 154.292,319.626 154.029 C 319.493 153.766,319.249 153.232,319.084 152.841 C 317.691 149.545,316.498 146.840,315.296 144.250 L 313.879 141.199 314.212 139.563 C 314.396 138.663,314.739 137.223,314.975 136.364 C 315.760 133.510,315.767 133.551,314.047 131.250 C 307.750 122.824,296.815 114.541,287.475 111.122 C 286.629 110.813,285.236 110.293,284.379 109.967 C 282.917 109.412,282.139 109.224,282.410 109.492 M293.040 137.468 C 291.870 138.008,291.148 138.716,290.253 140.199 L 289.739 141.051 290.340 140.341 C 292.588 137.683,293.422 137.216,295.924 137.216 C 299.658 137.216,302.292 139.914,302.770 144.229 L 302.983 146.150 304.830 147.214 C 307.581 148.800,310.865 151.879,310.635 152.657 C 310.277 153.864,309.671 154.038,308.401 153.299 C 300.107 148.476,294.079 146.793,284.801 146.709 C 277.139 146.639,277.784 146.710,277.892 145.952 C 278.058 144.782,283.331 142.898,286.439 142.898 C 288.311 142.898,289.044 142.608,289.512 141.684 C 289.782 141.149,289.716 141.172,289.080 141.832 C 288.413 142.526,288.124 142.614,286.497 142.614 C 282.213 142.614,276.854 144.886,277.454 146.449 C 277.652 146.965,277.221 146.931,284.517 146.998 C 293.882 147.084,301.616 149.247,308.207 153.622 C 309.456 154.451,309.980 154.428,310.777 153.511 L 311.429 152.761 312.281 154.237 C 312.749 155.048,313.196 155.649,313.273 155.572 C 313.418 155.426,312.396 153.610,310.572 150.774 C 306.643 144.664,306.757 144.907,307.120 143.393 C 307.302 142.635,307.383 141.948,307.302 141.866 C 307.220 141.784,306.995 142.424,306.801 143.288 L 306.450 144.858 308.181 147.564 C 310.054 150.491,310.123 151.217,308.356 149.405 C 307.744 148.779,306.465 147.830,305.512 147.297 C 303.330 146.076,303.236 145.949,303.040 143.944 C 302.529 138.735,297.440 135.439,293.040 137.468 M295.666 141.472 C 293.609 143.093,293.880 143.513,297.586 144.453 C 300.972 145.312,300.772 145.303,300.990 144.616 C 301.672 142.467,297.517 140.013,295.666 141.472 M298.858 141.792 C 301.471 143.261,301.228 145.240,298.542 144.366 C 297.547 144.042,296.351 143.739,295.883 143.693 C 294.751 143.580,294.638 142.817,295.618 141.908 C 296.559 141.036,297.455 141.004,298.858 141.792 M256.014 143.608 C 255.360 155.279,243.772 170.044,230.256 176.430 C 228.849 177.094,227.469 177.753,227.187 177.893 C 224.333 179.315,215.818 181.374,211.080 181.788 C 208.399 182.023,208.394 182.024,210.337 182.063 C 212.747 182.111,217.804 181.298,220.881 180.367 C 238.285 175.103,251.360 163.110,255.226 148.864 C 255.501 147.848,255.854 146.570,256.010 146.023 C 256.166 145.476,256.241 144.517,256.177 143.892 C 256.087 143.006,256.051 142.944,256.014 143.608 M313.391 156.108 C 313.451 156.264,314.106 157.627,314.847 159.137 C 315.587 160.646,316.193 162.059,316.193 162.276 C 316.193 162.493,316.324 162.802,316.484 162.962 C 317.473 163.950,321.307 176.866,321.307 179.209 C 321.307 179.800,321.575 181.429,321.903 182.827 C 322.596 185.786,322.969 188.620,322.994 191.122 L 323.011 192.898 321.572 192.898 C 320.064 192.898,319.034 193.266,319.034 193.804 C 319.034 193.979,319.286 193.894,319.594 193.615 C 320.029 193.222,320.475 193.139,321.583 193.245 C 322.444 193.328,323.114 193.258,323.270 193.069 C 323.693 192.556,323.102 186.500,322.297 183.102 C 321.891 181.386,321.626 179.726,321.708 179.412 C 321.790 179.099,321.739 178.393,321.594 177.844 C 321.450 177.296,321.051 175.696,320.709 174.290 C 319.958 171.205,317.804 164.730,317.071 163.352 C 316.780 162.805,316.447 162.038,316.330 161.648 C 316.033 160.654,313.949 156.452,313.583 156.108 C 313.382 155.919,313.318 155.919,313.391 156.108 M205.469 182.298 C 205.742 182.370,206.190 182.370,206.463 182.298 C 206.737 182.227,206.513 182.168,205.966 182.168 C 205.419 182.168,205.195 182.227,205.469 182.298 M328.148 184.063 C 328.106 184.792,329.374 190.429,329.497 190.060 C 329.621 189.688,329.225 187.606,328.551 185.085 C 328.342 184.304,328.161 183.844,328.148 184.063 M329.571 191.010 C 329.532 191.820,330.502 196.791,330.605 196.307 C 330.655 196.072,330.448 194.666,330.146 193.182 C 329.844 191.697,329.585 190.720,329.571 191.010 M319.034 194.544 C 319.034 194.710,319.243 195.055,319.498 195.310 C 322.143 197.955,323.459 202.402,321.989 203.734 C 320.991 204.639,320.525 205.168,318.422 207.778 C 317.431 209.009,316.345 210.350,316.010 210.757 L 315.401 211.498 313.880 210.974 C 313.043 210.686,311.497 210.112,310.444 209.699 L 308.530 208.949 308.526 206.899 C 308.522 204.620,307.922 202.466,307.018 201.485 C 306.104 200.494,305.840 201.291,306.276 203.727 C 306.895 207.191,305.458 211.793,302.697 215.188 C 301.185 217.048,300.964 217.614,301.751 217.614 C 302.976 217.614,304.824 216.062,306.028 214.021 C 306.593 213.063,306.766 212.969,307.813 213.043 C 308.339 213.081,308.344 213.061,307.878 212.775 C 307.095 212.293,306.471 212.684,305.455 214.292 C 304.471 215.849,303.028 217.045,302.135 217.045 C 301.636 217.045,301.639 217.009,302.193 216.406 C 304.898 213.462,306.576 209.337,306.756 205.185 C 306.826 203.583,306.982 202.273,307.103 202.273 C 307.546 202.273,308.321 205.927,308.147 207.196 C 307.909 208.935,308.186 209.184,311.932 210.601 C 315.914 212.107,315.267 212.425,319.602 206.830 C 320.305 205.922,321.360 204.734,321.946 204.190 C 323.666 202.592,323.397 200.454,321.044 197.017 C 319.586 194.888,319.034 194.208,319.034 194.544 M329.756 198.096 C 328.777 200.471,324.896 205.152,319.936 209.943 C 314.964 214.745,313.982 216.089,314.287 217.677 C 314.400 218.266,314.415 218.257,314.450 217.577 C 314.522 216.186,315.378 214.694,316.940 213.240 C 320.338 210.074,324.937 205.465,326.043 204.118 C 328.268 201.405,330.548 197.748,330.360 197.192 C 330.302 197.023,330.031 197.430,329.756 198.096 M308.635 213.304 C 308.715 213.434,309.369 213.783,310.088 214.079 C 311.011 214.460,311.353 214.746,311.250 215.051 C 310.243 218.036,310.348 219.109,311.723 219.878 C 312.657 220.400,313.997 219.849,314.142 218.882 C 314.218 218.372,314.199 218.366,313.919 218.818 C 313.364 219.710,312.537 219.976,311.806 219.497 C 310.670 218.753,310.660 217.615,311.766 215.026 C 311.916 214.675,311.594 214.395,310.376 213.819 C 308.678 213.015,308.406 212.934,308.635 213.304 " stroke="none" fill="#7e7869" fill-rule="evenodd"></path><path id="path4" d="M227.131 18.389 C 222.068 18.534,215.442 19.431,211.080 20.561 C 206.655 21.707,201.334 23.470,199.442 24.417 C 198.889 24.693,198.054 25.010,197.585 25.120 C 196.357 25.409,186.110 30.603,183.097 32.463 C 181.690 33.332,179.465 34.724,178.150 35.558 C 176.836 36.392,175.478 37.202,175.132 37.358 C 174.267 37.748,172.727 39.101,172.727 39.470 C 172.727 39.967,173.254 39.813,173.569 39.224 C 173.731 38.922,174.148 38.584,174.496 38.474 C 174.844 38.363,175.835 37.775,176.698 37.166 C 178.811 35.676,181.231 34.091,181.393 34.091 C 181.465 34.091,182.563 33.388,183.832 32.528 C 185.101 31.669,186.248 30.966,186.380 30.966 C 186.511 30.966,187.297 30.579,188.125 30.107 C 188.953 29.635,190.206 28.985,190.909 28.663 C 192.457 27.956,192.796 27.789,193.892 27.197 C 194.361 26.944,195.575 26.401,196.591 25.990 C 197.607 25.580,198.799 25.061,199.242 24.838 C 199.684 24.614,200.266 24.432,200.534 24.432 C 200.803 24.432,201.161 24.294,201.329 24.126 C 201.497 23.957,202.066 23.715,202.593 23.588 C 203.120 23.461,204.318 23.089,205.256 22.763 C 212.493 20.241,221.064 18.753,228.387 18.748 C 235.544 18.743,243.639 19.699,249.006 21.184 C 251.477 21.867,255.518 23.072,256.108 23.302 C 267.374 27.678,275.230 32.806,282.244 40.362 C 284.644 42.948,287.313 46.013,287.607 46.521 C 287.883 46.999,288.448 47.713,289.435 48.831 L 290.091 49.574 289.744 48.864 C 289.043 47.432,285.166 42.808,281.430 38.950 C 268.287 25.378,248.231 17.784,227.131 18.389 M267.995 106.745 C 268.157 107.007,268.740 107.269,272.301 108.680 C 281.747 112.420,292.705 119.712,299.167 126.557 C 306.580 134.410,308.507 137.425,307.855 140.151 C 306.594 145.426,306.355 144.264,309.797 149.574 C 311.997 152.967,312.745 154.188,313.276 155.256 C 313.586 155.881,314.353 157.415,314.979 158.665 C 315.605 159.915,316.213 161.257,316.330 161.648 C 316.447 162.038,316.780 162.805,317.071 163.352 C 317.804 164.730,319.958 171.205,320.709 174.290 C 321.051 175.696,321.450 177.296,321.594 177.844 C 321.739 178.393,321.790 179.099,321.708 179.412 C 321.626 179.726,321.891 181.386,322.297 183.102 C 323.096 186.476,323.692 192.557,323.274 193.064 C 323.125 193.245,322.405 193.320,321.524 193.247 C 318.908 193.030,318.694 193.694,320.534 196.320 C 323.433 200.458,323.794 202.472,321.946 204.190 C 321.360 204.734,320.305 205.922,319.602 206.830 C 315.267 212.425,315.914 212.107,311.932 210.601 C 308.186 209.184,307.909 208.935,308.147 207.196 C 308.321 205.927,307.546 202.273,307.103 202.273 C 306.982 202.273,306.826 203.583,306.756 205.185 C 306.576 209.337,304.898 213.462,302.193 216.406 C 301.639 217.009,301.636 217.045,302.135 217.045 C 303.028 217.045,304.471 215.849,305.455 214.292 C 306.651 212.399,306.923 212.323,309.120 213.277 C 312.140 214.588,312.075 214.524,311.497 215.641 C 310.526 217.519,311.110 219.886,312.544 219.886 C 313.140 219.886,314.205 218.459,314.205 217.661 C 314.205 215.827,315.048 214.694,319.949 209.943 C 324.957 205.090,328.515 200.784,329.759 198.074 L 330.447 196.574 329.868 193.244 C 328.757 186.857,325.750 173.801,324.423 169.602 C 324.250 169.055,323.809 167.585,323.442 166.335 C 322.676 163.722,320.005 155.816,319.603 154.972 C 319.454 154.659,318.900 153.317,318.371 151.989 C 317.289 149.269,314.944 144.087,314.156 142.676 C 313.480 141.464,313.498 140.984,314.347 137.555 C 315.341 133.535,315.346 133.562,313.100 130.580 C 305.761 120.838,293.417 112.762,279.830 108.812 C 273.352 106.929,267.474 105.903,267.995 106.745 M272.585 107.363 C 277.970 108.617,285.009 110.722,285.938 111.356 C 286.094 111.463,286.861 111.783,287.642 112.069 C 296.361 115.255,307.234 123.384,312.820 130.892 C 314.827 133.590,314.994 134.049,314.464 135.422 C 314.295 135.862,314.046 136.797,313.911 137.500 C 313.777 138.203,313.535 139.391,313.374 140.140 C 313.107 141.382,313.151 141.644,313.886 143.123 C 314.329 144.015,315.050 145.511,315.489 146.449 C 315.927 147.386,316.585 148.746,316.950 149.470 C 317.315 150.195,317.614 151.032,317.614 151.331 C 317.614 151.630,317.734 151.996,317.881 152.145 C 318.381 152.649,321.654 161.804,323.157 166.903 C 323.434 167.841,323.944 169.567,324.292 170.739 C 324.639 171.911,325.144 173.828,325.413 175.000 C 325.682 176.172,326.002 177.386,326.126 177.699 C 326.249 178.011,326.500 179.068,326.682 180.048 C 326.864 181.027,327.189 182.433,327.404 183.173 C 327.619 183.912,327.945 185.348,328.128 186.364 C 328.311 187.379,328.577 188.786,328.718 189.489 C 330.495 198.336,330.116 199.225,320.487 208.818 C 314.805 214.478,313.920 215.565,313.920 216.890 C 313.920 217.994,313.147 219.318,312.503 219.318 C 311.324 219.318,311.021 217.410,311.920 215.647 C 312.478 214.555,312.158 213.636,311.222 213.636 C 311.090 213.636,310.116 213.237,309.056 212.748 C 307.078 211.837,306.375 211.827,306.052 212.707 C 305.950 212.984,305.697 213.312,305.490 213.437 C 305.283 213.562,305.114 213.793,305.114 213.950 C 305.114 214.107,304.731 214.644,304.263 215.143 C 303.795 215.643,303.411 215.891,303.410 215.696 C 303.410 215.501,303.537 215.341,303.693 215.341 C 303.849 215.341,303.977 215.149,303.977 214.915 C 303.977 214.680,304.103 214.489,304.256 214.489 C 304.409 214.489,304.615 214.169,304.713 213.778 C 304.811 213.388,304.990 213.068,305.111 213.068 C 305.232 213.068,305.400 212.844,305.483 212.571 C 305.566 212.298,305.916 211.371,306.261 210.511 C 306.606 209.652,306.980 207.926,307.093 206.676 L 307.298 204.403 307.342 206.608 C 307.378 208.388,307.490 208.901,307.927 209.275 C 308.510 209.775,313.152 211.648,313.806 211.648 C 314.025 211.648,314.205 211.761,314.205 211.899 C 314.205 212.624,315.438 212.412,316.194 211.557 C 318.647 208.786,319.693 207.522,320.326 206.565 C 320.714 205.978,321.425 205.207,321.906 204.852 C 324.178 203.172,324.045 200.944,321.435 196.985 C 319.362 193.840,319.379 193.722,321.913 193.656 L 323.722 193.608 323.811 191.477 C 323.907 189.161,323.515 185.886,322.831 183.310 C 322.592 182.411,322.285 180.653,322.147 179.403 C 321.481 173.353,317.007 160.317,314.201 156.250 C 313.931 155.859,313.613 155.220,313.494 154.830 C 313.375 154.439,312.226 152.521,310.941 150.568 C 309.656 148.615,308.308 146.495,307.945 145.857 L 307.286 144.697 307.800 142.306 C 308.747 137.897,308.525 136.711,306.327 134.426 C 306.128 134.219,305.966 133.956,305.966 133.840 C 305.966 133.724,305.742 133.378,305.469 133.069 C 305.195 132.761,304.402 131.810,303.705 130.956 C 298.477 124.544,290.104 117.430,283.665 113.930 C 283.040 113.590,281.889 112.933,281.108 112.470 C 279.047 111.249,273.370 108.523,272.888 108.523 C 272.662 108.523,272.406 108.409,272.321 108.270 C 272.235 108.131,271.822 107.932,271.404 107.827 C 270.985 107.722,270.377 107.438,270.052 107.196 C 269.398 106.710,269.937 106.746,272.585 107.363 M142.172 121.625 C 142.396 126.078,144.044 133.341,145.742 137.358 C 145.874 137.670,146.303 138.760,146.696 139.780 C 147.662 142.288,150.264 147.298,151.576 149.177 C 155.910 155.384,158.850 159.065,161.322 161.375 C 177.154 176.176,193.897 183.174,210.251 181.826 C 215.825 181.367,224.035 179.459,227.192 177.890 C 227.471 177.751,228.849 177.094,230.256 176.430 C 243.620 170.116,255.966 154.435,255.966 143.774 C 255.966 142.603,255.676 143.305,255.375 145.204 C 255.100 146.945,254.970 147.440,254.041 150.284 C 252.939 153.661,250.768 157.852,248.758 160.483 C 248.113 161.327,247.191 162.542,246.708 163.182 C 243.765 167.089,236.180 173.075,230.824 175.718 C 230.199 176.026,229.624 176.342,229.545 176.420 C 229.007 176.959,220.510 179.736,217.472 180.366 C 211.470 181.611,202.056 181.822,198.207 180.797 C 197.396 180.581,196.323 180.403,195.823 180.401 C 195.323 180.399,194.619 180.279,194.261 180.133 C 193.902 179.987,192.841 179.652,191.903 179.388 C 186.860 177.968,180.343 175.128,176.705 172.765 C 175.845 172.207,174.932 171.619,174.674 171.458 C 169.237 168.052,162.472 162.308,158.661 157.864 C 157.882 156.955,156.989 155.924,156.676 155.573 C 156.049 154.870,155.764 154.480,153.722 151.540 C 147.498 142.576,142.653 129.727,142.590 122.017 C 142.581 120.923,142.453 119.773,142.305 119.460 C 142.124 119.078,142.080 119.789,142.172 121.625 M255.572 134.943 C 255.682 135.646,255.869 137.756,255.988 139.631 L 256.204 143.040 256.116 138.879 C 256.063 136.394,255.896 134.506,255.701 134.192 C 255.439 133.770,255.413 133.919,255.572 134.943 M293.324 137.614 C 292.238 138.092,291.182 139.161,289.927 141.051 C 288.773 142.790,288.566 142.898,286.397 142.898 C 283.326 142.898,278.057 144.790,277.892 145.952 C 277.784 146.710,277.139 146.639,284.801 146.709 C 294.079 146.793,300.107 148.476,308.401 153.299 C 309.671 154.038,310.277 153.864,310.635 152.657 C 310.865 151.879,307.581 148.800,304.830 147.214 L 302.983 146.150 302.770 144.229 C 302.188 138.978,297.568 135.743,293.324 137.614 M298.299 138.070 C 300.753 139.322,302.273 141.763,302.273 144.452 C 302.273 146.160,302.282 146.170,305.450 148.111 C 307.572 149.412,310.227 151.961,310.227 152.699 C 310.227 153.297,309.343 153.454,308.626 152.984 C 306.264 151.436,300.594 148.872,297.159 147.798 C 293.324 146.600,287.621 145.925,282.483 146.062 C 277.923 146.183,277.394 145.877,280.313 144.808 C 283.613 143.600,284.212 143.466,286.331 143.466 C 288.633 143.466,288.571 143.507,291.015 140.341 C 293.132 137.598,295.765 136.777,298.299 138.070 M295.000 141.591 C 293.365 143.226,293.709 144.015,296.307 144.589 C 297.166 144.778,298.481 145.127,299.229 145.362 C 300.871 145.880,301.420 145.580,301.420 144.163 C 301.420 141.246,297.083 139.508,295.000 141.591 M299.423 141.755 C 300.484 142.511,301.227 143.868,300.990 144.616 C 300.772 145.303,300.972 145.312,297.586 144.453 C 294.409 143.647,294.136 143.485,294.574 142.666 C 295.543 140.857,297.614 140.467,299.423 141.755 " stroke="none" fill="#9ba2b0" fill-rule="evenodd"></path></g></svg>