<svg id="svg" version="1.1" xmlns="http://www.w3.org/2000/svg" xmlns:xlink="http://www.w3.org/1999/xlink" width="400" height="254.72" viewBox="0, 0, 400,254.72"><g id="svgg"><path id="path0" d="M169.809 34.168 C 161.736 34.548,156.901 34.957,149.172 35.915 C 146.260 36.275,141.110 37.111,137.452 37.817 C 136.331 38.033,133.809 38.498,131.847 38.850 C 127.708 39.592,126.772 39.791,124.777 40.352 C 123.971 40.579,122.710 40.928,121.975 41.128 C 121.239 41.329,118.688 42.130,116.306 42.908 C 113.924 43.687,111.401 44.508,110.701 44.732 C 110.000 44.956,109.197 45.236,108.917 45.355 C 107.518 45.948,99.853 48.913,98.847 49.250 C 97.671 49.644,93.501 51.337,92.764 51.720 C 92.540 51.837,91.898 52.126,91.338 52.365 C 90.777 52.603,89.672 53.120,88.882 53.514 C 88.092 53.908,85.832 54.924,83.859 55.771 C 79.887 57.477,76.918 58.998,72.008 61.839 C 68.582 63.822,67.510 64.492,61.889 68.162 C 60.009 69.389,57.669 70.910,56.688 71.542 C 51.124 75.123,49.534 76.287,46.879 78.723 C 45.268 80.202,42.917 82.264,41.656 83.305 C 39.013 85.487,37.109 87.396,34.551 90.429 C 33.554 91.610,32.350 92.986,31.874 93.486 C 26.288 99.358,21.491 108.695,18.251 120.000 C 15.168 130.755,15.771 143.170,19.827 152.484 C 20.469 153.960,20.960 154.940,24.226 161.274 C 25.465 163.676,28.005 167.510,29.631 169.433 C 29.812 169.646,30.330 170.359,30.784 171.018 C 33.198 174.527,40.415 181.931,44.459 185.046 C 46.280 186.450,48.803 188.420,50.064 189.425 C 52.482 191.352,54.860 192.988,58.686 195.354 C 59.961 196.143,61.983 197.527,63.178 198.429 C 66.464 200.909,72.499 204.841,73.020 204.841 C 73.081 204.841,73.559 205.108,74.081 205.434 C 78.920 208.453,89.081 213.345,93.483 214.773 C 96.782 215.843,104.623 218.325,106.497 218.892 C 107.408 219.167,109.758 219.906,111.720 220.533 C 114.995 221.581,117.357 222.212,126.369 224.447 C 128.121 224.881,131.618 225.797,134.140 226.482 C 136.662 227.167,139.586 227.920,140.637 228.155 C 143.294 228.749,144.157 228.957,145.478 229.317 C 146.108 229.489,147.025 229.715,147.516 229.819 C 148.006 229.923,149.268 230.200,150.318 230.435 C 151.369 230.670,152.803 230.962,153.503 231.085 C 154.204 231.207,156.210 231.609,157.962 231.978 C 160.919 232.601,164.523 233.217,169.172 233.894 C 170.223 234.047,171.771 234.276,172.611 234.404 C 173.452 234.532,175.115 234.749,176.306 234.887 C 177.497 235.025,179.790 235.322,181.401 235.547 C 184.894 236.033,188.084 236.363,192.229 236.665 C 193.911 236.788,196.204 237.022,197.325 237.187 C 198.446 237.351,200.452 237.645,201.783 237.841 C 206.498 238.533,219.951 239.365,226.369 239.359 C 231.936 239.355,241.438 238.573,249.427 237.462 C 256.191 236.522,257.257 236.343,259.873 235.713 C 260.503 235.561,261.764 235.261,262.675 235.046 C 266.976 234.032,273.487 232.073,275.695 231.130 C 277.040 230.555,278.813 229.833,279.635 229.526 C 282.480 228.462,285.828 226.441,288.068 224.436 C 289.595 223.069,298.112 215.003,299.486 213.622 C 301.964 211.130,305.952 205.965,309.314 200.892 C 310.985 198.369,312.442 196.191,312.551 196.051 C 312.660 195.911,313.367 194.822,314.122 193.631 C 314.876 192.439,316.204 190.548,317.072 189.427 C 317.940 188.306,319.602 185.955,320.764 184.204 C 327.436 174.148,332.063 169.992,342.038 165.096 C 349.045 161.657,354.302 160.287,359.236 160.613 C 360.583 160.702,362.560 160.650,363.694 160.495 C 364.815 160.342,366.478 160.117,367.389 159.995 C 371.215 159.482,378.253 158.185,380.986 157.488 C 381.529 157.350,382.159 157.308,382.388 157.395 C 382.956 157.611,386.604 160.077,386.709 160.317 C 386.756 160.423,387.014 160.510,387.282 160.510 C 388.724 160.510,387.331 148.244,385.184 142.038 C 384.109 138.932,382.073 134.748,380.701 132.826 C 380.385 132.384,380.127 131.898,380.127 131.744 C 380.127 131.591,380.030 131.465,379.912 131.465 C 379.793 131.465,379.592 131.249,379.466 130.985 C 378.596 129.169,373.279 123.460,369.936 120.753 C 369.166 120.129,368.478 119.549,368.408 119.466 C 367.152 117.965,357.224 112.176,352.354 110.106 C 351.585 109.779,350.726 109.410,350.446 109.286 C 345.965 107.300,338.138 104.965,332.038 103.795 C 329.523 103.312,333.241 101.360,337.360 101.001 C 339.793 100.788,340.024 100.372,337.995 99.858 C 333.460 98.708,331.010 98.187,327.898 97.712 C 326.427 97.487,324.670 97.193,323.993 97.059 C 323.317 96.925,322.368 96.815,321.883 96.815 C 320.885 96.815,320.507 96.268,320.979 95.508 C 321.141 95.246,321.413 94.808,321.583 94.534 C 321.973 93.905,321.809 93.749,320.456 93.460 C 311.411 91.533,304.253 91.307,297.962 92.749 C 295.620 93.286,295.264 93.150,295.765 91.907 C 296.247 90.711,296.428 86.413,296.075 84.526 C 295.451 81.185,295.555 81.438,295.008 81.933 C 294.741 82.174,294.520 82.498,294.518 82.651 C 294.516 82.804,294.201 83.288,293.818 83.725 C 293.434 84.162,292.662 85.099,292.102 85.807 C 290.585 87.722,289.938 87.783,289.933 86.008 C 289.922 81.940,285.563 72.314,282.051 68.599 C 281.333 67.839,281.266 67.873,281.546 68.852 C 281.837 69.866,281.855 75.672,281.568 76.123 C 281.358 76.454,280.510 76.294,280.510 75.923 C 280.510 75.812,279.872 74.897,279.093 73.888 C 273.689 66.893,265.463 59.663,256.430 53.966 C 251.718 50.994,240.347 45.096,239.330 45.096 C 239.251 45.096,238.824 44.939,238.382 44.748 C 237.941 44.557,237.064 44.197,236.433 43.949 C 235.803 43.701,234.943 43.355,234.522 43.180 C 234.102 43.006,233.299 42.727,232.739 42.560 C 232.178 42.394,231.490 42.156,231.210 42.032 C 229.329 41.202,219.111 38.447,214.395 37.499 C 209.548 36.525,207.832 36.216,205.478 35.895 C 192.964 34.184,181.376 33.624,169.809 34.168 M158.344 56.041 C 162.725 56.291,163.494 56.386,168.535 57.301 C 172.719 58.061,173.429 58.233,176.458 59.215 C 177.986 59.710,180.554 60.529,182.166 61.033 C 188.494 63.016,190.433 64.012,195.292 67.774 C 201.691 72.730,203.281 74.851,206.364 82.548 C 206.673 83.318,207.072 84.236,207.251 84.586 C 208.016 86.079,209.723 91.691,209.956 93.476 C 210.450 97.260,209.391 111.992,208.524 113.394 C 208.472 113.478,208.248 114.454,208.026 115.563 C 206.513 123.126,202.486 131.022,196.658 137.848 L 195.450 139.264 197.087 141.107 C 199.561 143.895,203.057 149.812,203.057 151.213 C 203.057 151.405,203.158 151.624,203.280 151.700 C 203.482 151.825,204.773 155.743,205.344 157.962 C 205.470 158.452,205.723 159.427,205.907 160.127 C 206.371 161.894,206.367 173.185,205.901 175.796 C 205.166 179.919,201.626 188.590,199.659 191.083 C 199.493 191.293,199.141 191.866,198.876 192.357 C 198.239 193.539,196.342 196.422,195.755 197.102 C 195.497 197.400,194.835 198.186,194.283 198.848 C 193.357 199.959,190.766 202.221,187.092 205.124 C 184.525 207.154,182.360 208.517,180.382 209.349 C 177.370 210.618,175.103 211.465,174.721 211.465 C 174.528 211.465,174.261 211.559,174.127 211.675 C 173.994 211.790,173.197 212.101,172.357 212.365 C 171.516 212.629,170.713 212.922,170.573 213.016 C 170.116 213.322,166.553 213.987,163.949 214.253 C 162.548 214.396,160.110 214.646,158.533 214.807 C 156.378 215.027,154.570 215.028,151.271 214.811 C 148.856 214.652,145.962 214.468,144.841 214.402 C 142.169 214.244,139.265 213.890,136.433 213.378 C 135.172 213.150,133.452 212.865,132.611 212.746 C 131.771 212.627,130.338 212.338,129.427 212.104 C 128.516 211.871,127.484 211.620,127.134 211.548 C 126.280 211.371,120.317 209.535,118.089 208.763 C 111.534 206.491,106.131 201.710,102.316 194.807 C 101.937 194.122,101.262 192.976,100.814 192.259 C 99.937 190.854,98.728 188.485,97.745 186.242 C 97.407 185.471,96.932 184.393,96.688 183.846 C 96.103 182.535,93.825 175.585,93.387 173.779 C 93.198 172.997,92.695 171.382,92.271 170.191 C 91.578 168.247,90.083 162.538,89.423 159.313 C 89.285 158.640,88.994 157.344,88.776 156.433 C 87.977 153.094,87.890 152.699,87.493 150.573 C 86.803 146.881,86.687 146.199,86.250 143.312 C 86.016 141.771,85.728 139.420,85.608 138.089 C 85.489 136.758,85.245 134.178,85.066 132.357 C 84.649 128.120,84.671 108.333,85.096 105.223 C 85.258 104.032,85.491 102.255,85.614 101.274 C 85.736 100.293,86.013 98.287,86.229 96.815 C 86.445 95.344,86.734 93.338,86.871 92.357 C 87.263 89.546,87.978 86.299,88.806 83.567 C 89.040 82.796,89.328 81.363,89.447 80.382 C 89.727 78.069,90.080 76.553,90.972 73.838 C 92.490 69.219,98.797 64.641,106.879 62.293 C 108.957 61.689,112.117 60.663,112.739 60.391 C 114.122 59.784,119.298 58.262,121.274 57.881 C 122.045 57.732,123.592 57.434,124.713 57.218 C 127.021 56.773,127.674 56.685,131.585 56.299 C 139.172 55.548,148.190 55.461,158.344 56.041 M257.189 87.501 C 259.030 88.401,261.283 90.488,261.055 91.081 C 260.911 91.457,260.813 91.443,260.117 90.948 C 257.633 89.180,254.175 90.497,253.115 93.615 L 252.636 95.024 250.203 94.870 C 247.469 94.696,245.842 94.585,245.506 94.547 C 245.381 94.534,245.343 93.906,245.420 93.154 C 245.954 87.982,252.119 85.020,257.189 87.501 M147.239 97.413 C 145.246 98.610,144.623 99.803,144.757 102.169 C 145.067 107.653,152.367 108.458,153.764 103.162 C 154.814 99.180,150.551 95.423,147.239 97.413 M304.968 103.955 C 308.432 104.390,312.720 105.000,313.885 105.223 C 314.516 105.344,316.121 105.630,317.452 105.858 C 318.783 106.085,320.331 106.373,320.892 106.498 C 321.452 106.622,322.771 106.907,323.822 107.132 C 326.194 107.639,327.132 107.869,328.940 108.384 C 329.723 108.607,330.555 108.790,330.790 108.790 C 331.025 108.790,331.416 108.894,331.660 109.021 C 331.903 109.148,332.847 109.453,333.758 109.699 C 336.529 110.447,342.210 112.359,344.841 113.428 C 355.685 117.837,363.175 122.401,370.261 128.917 C 371.840 130.370,375.796 134.885,375.796 135.235 C 375.796 135.380,375.899 135.537,376.024 135.584 C 376.697 135.834,380.321 142.222,381.276 144.841 C 381.531 145.541,381.836 146.224,381.953 146.357 C 382.070 146.490,382.166 146.812,382.166 147.073 C 382.166 147.334,382.327 148.085,382.523 148.742 C 383.630 152.436,383.624 154.150,382.510 152.897 C 380.002 150.077,377.317 148.195,372.769 146.072 C 368.618 144.134,368.246 143.986,362.293 141.900 C 361.657 141.677,355.317 139.827,353.631 139.373 C 353.140 139.241,352.051 138.947,351.210 138.721 C 349.384 138.228,348.477 138.004,346.115 137.461 C 345.134 137.235,343.987 136.948,343.567 136.822 C 343.146 136.696,342.115 136.459,341.274 136.295 C 339.200 135.891,338.047 135.650,335.796 135.149 C 334.745 134.915,333.369 134.633,332.739 134.522 C 332.108 134.412,330.618 134.126,329.427 133.887 C 328.236 133.648,326.688 133.356,325.987 133.238 C 325.287 133.120,323.739 132.838,322.548 132.610 C 321.357 132.383,319.694 132.096,318.854 131.972 C 318.013 131.848,317.096 131.688,316.815 131.617 C 316.535 131.547,315.045 131.309,313.503 131.089 C 311.962 130.869,310.185 130.585,309.554 130.456 C 308.924 130.328,307.873 130.153,307.219 130.067 C 306.061 129.916,306.017 129.877,305.566 128.622 C 304.492 125.636,301.245 125.202,301.331 128.056 C 301.388 129.960,301.874 135.420,302.047 136.106 C 302.396 137.490,304.120 137.069,305.445 135.276 C 305.967 134.570,306.141 134.492,306.842 134.646 C 307.283 134.744,308.331 134.917,309.172 135.031 C 311.678 135.371,316.827 136.275,320.127 136.954 C 321.248 137.184,322.624 137.466,323.185 137.579 C 323.745 137.692,325.064 137.975,326.115 138.208 C 327.166 138.441,328.484 138.732,329.045 138.854 C 329.605 138.976,330.809 139.255,331.720 139.475 C 332.631 139.694,333.834 139.978,334.395 140.105 C 335.350 140.322,338.716 141.201,341.911 142.068 C 342.682 142.277,343.713 142.548,344.204 142.669 C 344.694 142.790,345.726 143.080,346.497 143.312 C 347.268 143.545,348.299 143.828,348.790 143.942 C 349.280 144.056,350.369 144.375,351.210 144.651 C 352.051 144.927,353.427 145.353,354.268 145.596 C 356.305 146.188,361.001 147.690,363.057 148.410 C 363.968 148.728,366.146 149.475,367.898 150.070 C 369.650 150.665,371.197 151.236,371.338 151.339 C 371.478 151.442,372.021 151.603,372.545 151.697 C 374.456 152.042,374.261 153.121,372.287 153.121 C 371.782 153.121,370.731 153.232,369.952 153.367 C 368.225 153.666,364.699 154.113,361.783 154.401 C 360.592 154.519,358.013 154.808,356.051 155.044 C 350.263 155.739,349.069 155.869,345.987 156.146 C 339.874 156.696,332.301 160.310,326.811 165.300 C 323.723 168.106,319.431 172.521,318.147 174.211 C 317.085 175.609,315.677 176.811,315.098 176.814 C 314.994 176.815,314.650 176.415,314.334 175.927 C 313.634 174.846,312.870 174.769,311.801 175.669 C 311.384 176.019,310.909 176.310,310.745 176.315 C 309.678 176.347,304.985 177.253,302.930 177.824 C 301.463 178.231,296.831 179.307,294.650 179.747 C 293.529 179.973,292.055 180.279,291.375 180.428 C 290.286 180.665,290.058 180.637,289.464 180.194 C 288.252 179.289,288.553 178.846,291.338 177.438 C 297.894 174.123,298.974 173.157,297.894 171.572 C 297.183 170.529,293.198 169.795,289.388 170.005 C 285.879 170.198,285.136 169.905,286.396 168.826 C 287.347 168.012,291.531 164.954,293.758 163.445 C 297.746 160.744,297.959 159.540,294.731 157.962 C 294.075 157.642,292.951 156.898,292.234 156.310 C 291.148 155.419,288.117 153.741,285.987 152.852 C 285.707 152.735,284.949 152.408,284.304 152.126 C 283.658 151.844,282.340 151.363,281.374 151.059 C 280.408 150.754,279.127 150.348,278.526 150.157 C 277.926 149.965,277.312 149.809,277.163 149.809 C 276.611 149.809,275.169 148.980,275.314 148.746 C 275.921 147.763,281.848 147.202,289.309 147.420 C 295.691 147.607,296.306 147.514,296.306 146.361 C 296.306 145.685,294.341 143.501,292.741 142.397 C 291.740 141.707,287.388 139.108,287.232 139.108 C 287.117 139.108,280.352 135.903,279.685 135.533 C 279.442 135.397,279.130 135.287,278.991 135.287 C 278.853 135.287,278.135 135.015,277.395 134.684 C 276.656 134.352,275.535 133.880,274.904 133.634 C 274.274 133.388,273.529 133.098,273.248 132.989 C 272.968 132.880,272.338 132.647,271.847 132.472 C 271.357 132.296,270.611 132.013,270.191 131.843 C 269.771 131.673,268.567 131.220,267.516 130.837 C 262.581 129.039,262.116 128.712,263.223 127.816 C 263.953 127.225,266.816 127.504,270.701 128.545 C 271.541 128.770,272.688 129.058,273.248 129.184 C 273.809 129.310,274.898 129.593,275.669 129.814 C 278.004 130.482,281.286 131.387,283.439 131.958 C 284.561 132.255,285.707 132.601,285.987 132.727 C 286.268 132.852,286.783 133.009,287.134 133.074 C 287.908 133.218,291.119 134.366,292.572 135.017 C 296.783 136.905,299.470 136.615,297.627 134.470 C 297.230 134.009,296.414 132.885,295.813 131.975 C 293.912 129.093,290.963 126.774,283.567 122.347 C 277.604 118.777,277.370 118.655,271.210 115.899 C 270.650 115.648,269.561 115.254,268.790 115.024 C 268.019 114.793,267.159 114.516,266.879 114.407 C 266.599 114.299,265.911 114.067,265.350 113.891 C 264.790 113.716,263.987 113.424,263.567 113.243 C 263.146 113.062,262.229 112.719,261.529 112.481 C 260.828 112.243,260.025 111.958,259.745 111.847 C 259.465 111.737,258.662 111.447,257.962 111.204 C 257.261 110.960,256.579 110.661,256.446 110.540 C 256.313 110.418,256.047 110.318,255.855 110.318 C 255.663 110.318,254.338 109.763,252.912 109.085 C 250.024 107.712,248.455 107.312,244.713 106.996 C 243.312 106.877,242.108 106.772,242.038 106.762 C 241.968 106.752,242.083 106.633,242.293 106.497 C 243.436 105.758,258.532 106.713,262.705 107.788 C 263.211 107.919,264.071 108.027,264.616 108.029 C 265.160 108.032,266.293 108.200,267.134 108.403 C 267.975 108.606,268.998 108.776,269.409 108.781 C 269.819 108.786,270.507 108.895,270.937 109.024 C 271.368 109.152,272.637 109.451,273.758 109.688 C 276.731 110.316,280.955 111.311,282.420 111.729 C 283.121 111.929,284.325 112.262,285.096 112.469 C 290.350 113.882,293.195 114.714,296.688 115.858 C 301.456 117.421,302.093 117.485,300.609 116.253 C 299.862 115.633,298.094 114.086,294.797 111.168 C 293.348 109.886,293.690 109.854,301.401 110.547 C 303.293 110.717,305.456 110.963,306.207 111.094 C 308.709 111.530,308.713 111.538,304.204 107.776 C 298.409 102.942,298.372 103.126,304.968 103.955 M148.790 165.269 C 145.562 165.901,146.429 174.013,149.724 174.013 C 154.305 174.013,155.214 165.586,150.671 165.239 C 149.987 165.187,149.140 165.201,148.790 165.269 " stroke="none" fill="#211b46" fill-rule="evenodd"></path><path id="path1" d="M164.713 27.295 C 157.281 27.864,152.077 28.325,150.573 28.549 C 149.662 28.685,147.312 29.022,145.350 29.298 C 139.936 30.059,131.196 31.655,128.662 32.344 C 128.172 32.478,126.911 32.776,125.860 33.007 C 124.809 33.238,123.605 33.526,123.185 33.648 C 122.764 33.769,121.732 34.053,120.892 34.279 C 117.895 35.084,116.552 35.458,115.924 35.661 C 115.573 35.775,114.312 36.168,113.121 36.534 C 107.460 38.278,99.534 40.991,97.452 41.897 C 97.032 42.081,95.885 42.542,94.904 42.923 C 93.924 43.305,92.892 43.716,92.611 43.839 C 92.331 43.961,91.127 44.396,89.936 44.806 C 86.529 45.978,78.492 49.704,74.650 51.893 C 74.159 52.172,73.127 52.752,72.357 53.182 C 69.590 54.723,61.801 59.399,59.513 60.892 C 59.190 61.102,57.812 61.945,56.449 62.766 C 54.163 64.143,52.321 65.476,45.523 70.676 C 43.343 72.344,40.417 74.852,38.211 76.943 C 37.842 77.293,35.466 79.507,32.931 81.863 C 27.653 86.769,26.077 88.585,19.632 97.197 C 14.010 104.710,10.530 111.964,9.305 118.726 C 9.064 120.057,8.713 121.949,8.524 122.930 C 7.705 127.197,7.546 129.514,7.536 137.325 C 7.528 143.981,7.597 145.611,7.943 146.879 C 8.172 147.720,8.433 148.944,8.524 149.600 C 8.614 150.256,8.917 151.082,9.196 151.437 C 9.475 151.792,10.033 153.032,10.436 154.194 C 10.839 155.355,11.592 157.338,12.111 158.599 C 12.629 159.860,13.371 161.694,13.759 162.675 C 15.871 168.017,18.545 172.852,22.706 178.854 C 24.958 182.101,28.731 186.017,32.484 189.003 C 34.166 190.341,36.573 192.256,37.834 193.258 C 40.831 195.638,43.318 197.460,46.755 199.790 C 48.294 200.834,50.299 202.209,51.210 202.845 C 54.061 204.835,58.861 207.699,63.312 210.068 C 64.573 210.739,66.121 211.573,66.752 211.922 C 71.227 214.398,80.988 219.108,81.645 219.108 C 81.724 219.108,82.275 219.327,82.869 219.594 C 83.463 219.860,84.522 220.272,85.223 220.508 C 85.924 220.744,86.675 221.028,86.893 221.140 C 87.111 221.252,88.602 221.709,90.205 222.155 C 91.809 222.601,95.699 223.827,98.850 224.878 C 102.001 225.929,105.154 226.948,105.856 227.143 C 106.559 227.337,108.108 227.791,109.299 228.151 C 110.490 228.511,112.153 228.963,112.994 229.156 C 113.834 229.349,115.726 229.806,117.197 230.172 C 119.601 230.769,122.114 231.359,127.134 232.502 C 128.850 232.893,143.299 235.853,145.096 236.181 C 145.656 236.283,147.318 236.606,148.790 236.897 C 151.883 237.510,155.136 238.053,158.217 238.470 C 161.694 238.941,168.539 240.087,171.210 240.645 C 177.843 242.030,182.362 242.568,192.611 243.192 C 202.219 243.776,206.005 244.036,208.917 244.312 C 217.080 245.084,220.138 245.175,232.420 245.014 C 248.008 244.808,249.159 244.709,256.688 242.924 C 258.650 242.459,261.745 241.774,263.567 241.402 C 266.452 240.812,272.687 238.972,275.796 237.793 C 279.570 236.362,286.424 232.472,290.986 229.172 C 292.536 228.051,294.907 226.356,296.255 225.406 C 297.603 224.456,299.055 223.364,299.481 222.979 C 299.906 222.594,300.771 221.911,301.401 221.461 C 303.260 220.134,306.763 216.348,308.408 213.888 C 309.248 212.632,310.871 210.277,312.014 208.656 C 313.157 207.035,314.519 204.934,315.040 203.986 C 317.311 199.854,325.848 187.742,330.510 182.038 C 331.913 180.322,338.479 174.051,340.532 172.467 C 345.454 168.670,356.758 165.938,368.318 165.752 C 371.520 165.700,374.599 165.535,375.159 165.383 C 375.720 165.232,377.233 165.032,378.521 164.938 L 380.864 164.768 382.666 166.014 C 383.657 166.700,384.749 167.433,385.093 167.643 C 385.437 167.854,386.324 168.437,387.063 168.940 C 392.043 172.329,393.916 173.514,394.105 173.397 C 394.313 173.269,394.460 170.531,394.808 160.255 C 394.963 155.678,394.599 150.638,393.879 147.389 C 393.278 144.673,392.806 142.721,392.555 141.911 C 391.929 139.891,391.496 138.712,391.295 138.484 C 391.179 138.351,391.083 138.087,391.083 137.897 C 391.083 136.993,386.334 128.189,384.958 126.542 C 384.820 126.377,384.355 125.783,383.925 125.223 C 381.980 122.688,381.343 121.976,378.346 118.977 C 374.429 115.058,367.529 109.806,363.620 107.769 C 363.051 107.472,362.412 106.965,362.200 106.641 C 361.891 106.170,358.919 104.136,356.219 102.548 C 355.981 102.408,355.444 102.064,355.025 101.783 C 354.607 101.503,354.068 101.159,353.826 101.019 C 353.006 100.544,349.430 98.284,348.736 97.803 C 348.357 97.540,347.927 97.325,347.781 97.325 C 347.635 97.325,347.516 97.224,347.516 97.100 C 347.516 96.976,347.315 96.807,347.070 96.725 C 346.606 96.569,346.132 96.287,344.841 95.399 C 342.735 93.951,339.058 92.640,334.522 91.720 C 331.462 91.100,331.257 90.978,331.685 90.038 C 331.855 89.665,331.940 89.307,331.875 89.242 C 331.683 89.051,326.182 87.562,321.783 86.511 C 317.052 85.381,309.144 84.551,305.330 84.783 L 303.526 84.893 303.523 80.600 C 303.519 74.051,302.276 70.195,298.452 64.881 C 296.921 62.752,296.565 62.709,296.545 64.650 C 296.517 67.425,294.978 73.286,294.034 74.217 C 293.681 74.564,292.994 73.849,292.994 73.135 C 292.994 71.818,289.077 65.097,285.562 60.382 C 280.746 53.922,272.337 45.293,274.139 48.661 C 275.082 50.423,275.660 57.746,274.839 57.535 C 274.662 57.489,272.137 55.847,269.226 53.885 C 258.986 46.984,255.369 44.774,250.097 42.195 C 247.042 40.700,243.338 38.981,243.174 38.981 C 243.118 38.981,242.467 38.712,241.727 38.384 C 240.987 38.055,239.981 37.641,239.490 37.462 C 239.000 37.284,238.255 36.989,237.834 36.807 C 236.266 36.127,226.953 33.143,224.841 32.643 C 224.280 32.511,222.847 32.158,221.656 31.860 C 220.465 31.562,219.032 31.209,218.471 31.076 C 216.542 30.617,211.078 29.588,208.408 29.181 C 206.936 28.957,205.045 28.666,204.204 28.534 C 202.825 28.319,201.024 28.145,191.068 27.266 C 187.624 26.962,168.794 26.983,164.713 27.295 M187.643 33.889 C 195.269 34.211,197.990 34.473,206.242 35.681 C 214.501 36.889,222.975 38.909,230.955 41.570 C 232.217 41.991,233.478 42.429,233.758 42.543 C 234.038 42.657,234.669 42.895,235.159 43.070 C 235.650 43.245,236.395 43.531,236.815 43.706 C 237.236 43.881,238.497 44.392,239.618 44.843 C 242.643 46.058,252.434 50.906,252.994 51.465 C 253.064 51.535,253.522 51.812,254.013 52.080 C 256.718 53.560,265.580 59.749,267.158 61.261 C 267.312 61.408,268.229 62.207,269.197 63.035 C 271.983 65.423,276.165 69.772,278.437 72.645 C 279.586 74.098,280.665 75.455,280.835 75.661 C 281.525 76.498,281.790 70.816,281.158 68.732 C 279.762 64.133,285.629 72.137,288.482 78.726 C 289.096 80.144,289.889 83.025,290.219 85.040 C 290.386 86.061,290.604 86.863,290.704 86.824 C 291.075 86.675,293.761 83.332,294.449 82.162 C 295.346 80.634,295.522 80.620,295.997 82.038 C 296.504 83.552,296.598 91.528,296.115 92.012 C 295.590 92.538,295.752 92.806,296.497 92.647 C 303.291 91.194,313.413 91.121,317.554 92.494 C 317.960 92.629,318.516 92.739,318.789 92.739 C 321.089 92.739,322.777 94.101,321.644 95.042 C 320.936 95.629,321.289 96.424,322.293 96.504 C 324.695 96.694,333.738 98.288,335.669 98.862 C 336.089 98.986,337.155 99.288,338.037 99.532 C 340.789 100.294,340.817 100.986,338.106 101.238 C 334.975 101.528,332.018 102.393,331.794 103.082 C 331.739 103.251,332.636 103.541,334.068 103.816 C 336.240 104.233,341.883 105.776,344.331 106.623 C 348.474 108.055,349.287 108.369,352.229 109.675 C 368.149 116.741,378.966 126.619,384.324 138.981 C 384.567 139.541,384.865 140.229,384.987 140.510 C 386.736 144.536,387.959 150.992,388.112 157.011 C 388.233 161.736,388.295 161.688,384.968 159.443 L 382.293 157.637 380.255 158.073 C 378.392 158.471,376.267 158.881,372.866 159.497 C 372.166 159.624,369.987 159.959,368.025 160.241 C 366.064 160.523,363.686 160.872,362.741 161.016 C 361.797 161.160,360.212 161.202,359.220 161.110 C 356.780 160.883,353.063 161.404,349.775 162.433 C 349.125 162.636,348.412 162.803,348.190 162.803 C 347.337 162.803,337.719 167.717,334.571 169.762 C 332.697 170.979,327.357 176.089,325.468 178.471 C 324.913 179.172,324.391 179.803,324.309 179.873 C 324.226 179.943,322.947 181.834,321.465 184.076 C 319.983 186.318,318.557 188.382,318.296 188.662 C 317.582 189.427,315.253 192.764,313.274 195.854 C 309.598 201.595,305.840 207.015,304.217 208.917 C 303.559 209.688,302.856 210.562,302.655 210.861 C 301.846 212.057,298.174 215.688,289.427 223.939 C 286.762 226.452,283.863 228.270,279.815 229.966 C 278.335 230.586,276.769 231.247,276.333 231.434 C 273.252 232.762,272.781 232.907,264.624 235.052 C 259.502 236.399,252.856 237.705,251.112 237.706 C 250.708 237.707,249.963 237.815,249.456 237.946 C 248.950 238.078,246.643 238.369,244.331 238.592 C 242.019 238.816,239.096 239.105,237.834 239.235 C 229.684 240.075,219.692 240.072,212.200 239.228 C 210.993 239.092,209.216 238.979,208.251 238.976 C 206.612 238.971,205.739 238.873,201.146 238.179 C 198.579 237.790,196.311 237.554,191.975 237.222 C 189.873 237.062,187.603 236.818,186.930 236.682 C 186.258 236.545,185.196 236.433,184.571 236.433 C 183.946 236.433,182.375 236.273,181.080 236.078 C 179.785 235.883,177.752 235.598,176.561 235.444 C 175.369 235.291,172.732 234.920,170.701 234.620 C 168.669 234.319,166.261 233.979,165.350 233.863 C 164.439 233.747,162.720 233.465,161.529 233.236 C 160.338 233.006,158.835 232.724,158.189 232.609 C 157.543 232.493,156.569 232.283,156.023 232.141 C 155.478 231.999,154.344 231.755,153.503 231.598 C 152.662 231.442,151.229 231.153,150.318 230.957 C 149.408 230.762,148.376 230.550,148.025 230.487 C 147.675 230.424,146.070 230.030,144.459 229.611 C 142.847 229.192,141.013 228.766,140.382 228.664 C 139.752 228.563,137.516 227.991,135.414 227.393 C 133.312 226.795,130.847 226.125,129.936 225.904 C 126.745 225.131,123.929 224.408,121.656 223.780 C 120.395 223.431,118.841 223.050,118.203 222.933 C 116.419 222.608,114.976 222.203,112.611 221.364 C 111.420 220.942,109.623 220.377,108.618 220.109 C 107.613 219.840,105.607 219.236,104.160 218.765 C 102.713 218.294,100.497 217.593,99.236 217.206 C 92.932 215.274,88.439 213.603,85.478 212.090 C 82.595 210.617,77.027 207.686,75.669 206.927 C 75.038 206.574,73.892 205.946,73.121 205.531 C 72.350 205.115,71.415 204.561,71.043 204.299 C 70.672 204.036,70.270 203.822,70.150 203.822 C 69.934 203.822,66.621 201.559,61.571 197.962 C 60.096 196.911,57.368 195.076,55.509 193.885 C 53.650 192.694,51.664 191.337,51.096 190.870 C 50.528 190.403,49.832 189.830,49.548 189.596 C 49.265 189.363,48.348 188.656,47.510 188.025 C 46.673 187.395,45.849 186.764,45.680 186.624 C 45.511 186.484,44.594 185.799,43.642 185.103 C 41.366 183.438,34.029 176.039,31.542 172.902 C 31.305 172.602,30.235 171.153,29.166 169.682 C 28.097 168.210,27.018 166.777,26.769 166.497 C 26.520 166.217,26.098 165.588,25.833 165.100 C 25.567 164.612,25.207 164.060,25.032 163.872 C 24.857 163.684,24.713 163.376,24.713 163.188 C 24.713 162.999,24.627 162.807,24.522 162.760 C 24.417 162.713,23.786 161.586,23.120 160.255 C 22.454 158.924,21.588 157.261,21.197 156.561 C 20.250 154.864,18.344 150.465,18.344 149.974 C 18.344 149.760,18.243 149.522,18.119 149.445 C 17.995 149.368,17.830 148.989,17.754 148.602 C 17.677 148.215,17.421 147.268,17.186 146.497 C 16.334 143.709,15.821 139.319,15.807 134.696 C 15.793 129.880,16.378 125.342,17.637 120.510 C 17.911 119.459,18.224 118.255,18.332 117.834 C 20.648 108.863,26.340 98.571,32.620 92.001 C 32.834 91.776,33.460 91.019,34.010 90.318 C 35.655 88.224,39.337 84.444,40.946 83.196 C 42.329 82.124,45.281 79.562,47.006 77.938 C 49.035 76.027,54.332 72.102,54.882 72.102 C 55.005 72.102,62.619 67.179,63.057 66.817 C 64.222 65.854,75.024 59.379,77.261 58.304 C 77.739 58.074,78.057 57.911,80.238 56.779 C 81.010 56.379,81.736 56.051,81.850 56.051 C 82.078 56.051,85.028 54.763,88.408 53.188 C 89.599 52.633,90.803 52.090,91.083 51.982 C 91.363 51.874,92.225 51.484,92.997 51.116 C 93.770 50.747,94.545 50.446,94.720 50.446 C 94.896 50.446,95.238 50.339,95.481 50.207 C 96.578 49.617,97.692 49.172,98.077 49.172 C 98.308 49.172,98.606 49.071,98.739 48.949 C 98.872 48.826,99.726 48.472,100.637 48.163 C 102.368 47.576,103.746 47.038,106.752 45.774 C 108.104 45.206,110.947 44.226,113.503 43.447 C 114.764 43.062,116.025 42.658,116.306 42.547 C 117.049 42.255,118.888 41.660,120.637 41.147 C 121.478 40.900,122.429 40.599,122.751 40.477 C 123.073 40.355,123.611 40.255,123.946 40.255 C 124.281 40.255,124.625 40.143,124.709 40.007 C 124.793 39.871,125.433 39.684,126.131 39.592 C 126.829 39.499,127.461 39.324,127.537 39.202 C 127.612 39.080,127.975 38.981,128.344 38.981 C 129.045 38.981,129.340 38.931,135.924 37.708 C 143.511 36.298,146.102 35.905,154.522 34.887 C 163.148 33.844,176.816 33.433,187.643 33.889 M136.051 56.453 C 132.710 56.633,125.690 57.524,123.185 58.087 C 122.624 58.213,121.306 58.503,120.255 58.732 C 119.204 58.960,118.115 59.241,117.834 59.355 C 117.554 59.469,116.522 59.799,115.541 60.089 C 114.561 60.379,112.268 61.120,110.446 61.737 C 108.624 62.353,106.287 63.116,105.253 63.432 C 99.850 65.081,92.342 70.412,91.850 72.948 C 91.763 73.394,91.539 74.159,91.351 74.650 C 90.807 76.072,90.509 77.390,90.066 80.341 C 89.837 81.860,89.554 83.350,89.437 83.653 C 89.202 84.259,88.580 86.620,88.184 88.408 C 88.045 89.038,87.746 90.815,87.520 92.357 C 87.295 93.898,87.000 95.904,86.866 96.815 C 86.495 99.330,85.924 103.541,85.589 106.242 C 85.225 109.175,85.408 131.440,85.824 134.777 C 85.972 135.968,86.220 138.146,86.374 139.618 C 86.528 141.089,86.758 142.866,86.885 143.567 C 87.012 144.268,87.302 145.930,87.530 147.261 C 87.999 150.000,88.442 152.207,89.026 154.713 C 89.832 158.171,90.213 159.889,90.341 160.637 C 90.688 162.653,92.653 169.865,93.258 171.338 C 93.373 171.618,93.634 172.420,93.838 173.121 C 95.335 178.262,96.503 181.821,97.183 183.312 C 97.374 183.732,97.839 184.822,98.216 185.732 C 103.000 197.308,109.993 205.298,117.707 208.003 C 118.758 208.371,119.847 208.773,120.127 208.895 C 120.805 209.190,126.128 210.740,128.153 211.232 C 129.009 211.440,133.264 212.273,135.924 212.754 C 143.526 214.129,154.692 214.716,160.764 214.061 C 165.032 213.600,169.261 212.974,169.554 212.759 C 169.694 212.657,170.325 212.428,170.955 212.250 C 172.021 211.949,172.493 211.768,174.722 210.807 C 175.182 210.608,175.728 210.446,175.936 210.446 C 176.143 210.446,176.512 210.343,176.755 210.217 C 176.998 210.091,177.713 209.796,178.344 209.561 C 180.830 208.635,185.121 206.196,186.399 204.983 C 186.556 204.835,187.745 203.854,189.043 202.803 C 194.725 198.199,197.007 195.175,201.659 186.083 C 206.044 177.515,207.217 166.664,204.701 157.962 C 204.478 157.191,204.190 156.137,204.061 155.620 C 203.690 154.135,202.829 151.896,201.755 149.623 C 201.210 148.470,200.764 147.465,200.764 147.391 C 200.764 146.954,197.732 142.670,196.438 141.279 C 194.668 139.377,194.673 139.395,195.626 138.289 C 202.428 130.398,206.407 121.985,208.251 111.592 C 209.117 106.715,209.217 105.465,209.257 98.927 L 209.299 92.102 208.336 89.349 C 205.188 80.357,202.522 75.076,199.757 72.357 C 194.875 67.556,189.070 63.824,184.076 62.278 C 182.815 61.887,180.121 61.024,178.089 60.359 C 172.402 58.499,169.360 57.843,161.656 56.814 C 159.703 56.553,139.485 56.268,136.051 56.453 M155.796 65.722 C 158.617 66.227,162.082 66.748,165.223 67.141 C 170.363 67.784,184.073 72.791,187.699 75.349 C 190.215 77.124,195.156 83.294,195.159 84.666 C 195.159 84.780,195.446 85.500,195.796 86.266 C 196.146 87.032,196.433 87.755,196.433 87.874 C 196.433 87.992,196.705 88.706,197.037 89.459 C 199.126 94.194,200.401 105.658,199.467 111.308 C 198.260 118.607,195.881 124.809,193.122 127.849 C 192.907 128.086,192.275 128.911,191.718 129.682 C 190.808 130.940,189.894 132.029,186.600 135.783 C 184.537 138.135,183.426 139.108,181.961 139.847 C 177.945 141.875,178.260 145.223,182.468 145.223 C 183.151 145.223,184.090 145.381,184.554 145.575 C 185.018 145.769,186.224 146.067,187.235 146.238 C 189.811 146.672,190.771 148.059,192.862 154.367 C 196.345 164.872,196.448 169.257,193.472 180.127 C 191.872 185.971,187.488 192.973,183.185 196.558 C 177.083 201.641,170.047 204.562,162.930 204.968 C 161.529 205.047,159.597 205.234,158.637 205.382 C 156.461 205.719,141.194 205.533,138.854 205.142 C 137.943 204.989,136.166 204.731,134.904 204.567 C 125.047 203.287,116.941 198.537,113.516 192.034 C 113.056 191.161,112.168 189.586,111.541 188.535 C 109.530 185.160,108.522 182.590,106.642 176.051 C 106.461 175.420,106.115 174.217,105.872 173.376 C 105.630 172.535,104.916 170.201,104.285 168.189 C 102.461 162.369,101.142 156.702,100.511 151.975 C 100.141 149.202,100.019 148.410,99.234 143.694 C 99.013 142.363,98.722 140.013,98.589 138.471 C 98.455 136.930,98.213 134.752,98.051 133.631 C 97.579 130.377,97.674 108.113,98.175 104.574 C 98.392 103.039,98.697 100.580,98.853 99.108 C 99.172 96.101,99.534 93.424,99.851 91.720 C 99.969 91.089,100.201 89.713,100.366 88.662 C 101.288 82.814,102.245 79.116,103.299 77.333 C 105.563 73.505,114.397 68.714,122.548 66.895 C 123.599 66.660,124.917 66.362,125.478 66.232 C 126.659 65.957,131.768 65.264,133.631 65.125 C 138.046 64.796,152.847 65.195,155.796 65.722 M254.335 87.571 C 254.722 87.630,255.295 87.628,255.609 87.568 C 255.922 87.507,255.605 87.459,254.904 87.461 C 254.204 87.463,253.947 87.513,254.335 87.571 M144.947 88.488 C 143.978 89.732,142.631 93.522,142.168 96.306 C 142.063 96.936,141.833 98.312,141.658 99.363 C 140.868 104.092,142.410 109.173,145.475 111.942 C 148.266 114.463,150.167 113.822,148.401 110.955 C 147.566 109.600,147.537 109.643,149.417 109.492 C 155.261 109.023,159.127 100.491,155.352 96.395 C 153.513 94.400,152.235 93.912,148.691 93.853 C 145.141 93.793,145.194 93.836,145.632 91.388 C 146.247 87.956,146.041 87.083,144.947 88.488 M151.586 97.016 C 155.758 99.633,155.370 105.479,150.931 106.875 C 146.624 108.230,143.356 104.883,144.413 100.198 C 145.107 97.123,149.002 95.395,151.586 97.016 M147.367 158.290 C 144.425 161.303,142.675 165.134,142.675 168.560 C 142.675 175.175,148.739 183.478,150.050 178.658 C 150.288 177.785,150.448 177.655,152.004 177.071 C 156.559 175.362,158.523 170.222,156.650 164.914 C 155.281 161.036,151.814 159.222,148.755 160.782 C 147.394 161.476,147.382 161.434,148.237 159.017 C 149.099 156.581,149.064 156.552,147.367 158.290 M152.383 165.163 C 155.899 167.505,154.366 173.739,150.119 174.369 C 146.236 174.945,144.440 166.868,148.043 165.032 C 149.311 164.386,151.307 164.446,152.383 165.163 " stroke="none" fill="#d2b335" fill-rule="evenodd"></path><path id="path2" d="M0.000 127.389 L 0.000 254.777 200.000 254.777 L 400.000 254.777 400.000 127.389 L 400.000 0.000 200.000 0.000 L 0.000 0.000 0.000 127.389 M191.847 27.269 C 197.327 27.731,202.868 28.283,204.459 28.527 C 205.299 28.656,206.904 28.891,208.025 29.050 C 210.005 29.330,216.667 30.593,218.726 31.078 C 221.230 31.668,224.007 32.376,226.242 32.994 C 227.573 33.361,229.006 33.757,229.427 33.873 C 230.364 34.131,235.281 35.837,238.217 36.923 C 245.214 39.510,254.215 43.963,260.178 47.787 C 262.714 49.413,270.712 54.791,272.931 56.361 C 273.877 57.031,274.766 57.580,274.905 57.580 C 275.588 57.580,274.925 49.788,274.157 48.792 C 273.829 48.367,273.661 47.389,273.916 47.389 C 274.302 47.389,279.988 53.485,283.546 57.714 C 286.169 60.831,290.467 67.318,291.813 70.191 C 292.207 71.032,292.619 71.895,292.729 72.110 C 292.839 72.325,293.010 72.870,293.109 73.320 C 293.324 74.301,294.144 74.458,294.394 73.567 C 294.482 73.252,294.647 72.764,294.761 72.484 C 295.397 70.921,295.537 70.495,295.907 69.012 C 296.129 68.119,296.399 66.357,296.506 65.096 L 296.701 62.803 297.499 63.632 C 301.499 67.792,303.857 74.801,303.649 81.911 L 303.567 84.713 305.860 84.634 C 311.247 84.448,319.424 85.662,327.006 87.772 C 327.847 88.006,329.280 88.396,330.191 88.639 C 331.880 89.089,331.947 89.171,331.588 90.347 C 331.387 91.007,331.487 91.050,334.858 91.734 C 338.163 92.404,341.614 93.552,343.567 94.631 C 347.168 96.621,361.921 106.040,362.173 106.510 C 362.325 106.794,363.359 107.575,364.473 108.246 C 382.693 119.236,392.508 133.599,394.666 152.433 C 395.177 156.892,394.561 173.395,393.885 173.350 C 393.675 173.336,390.652 171.412,387.166 169.075 L 380.829 164.825 378.886 164.983 C 377.817 165.069,375.911 165.312,374.650 165.523 C 373.143 165.774,370.740 165.898,367.643 165.885 C 360.002 165.851,349.134 167.957,344.061 170.454 C 339.685 172.608,331.666 180.050,328.147 185.223 C 327.813 185.713,327.469 186.172,327.383 186.242 C 326.304 187.113,316.768 200.879,315.518 203.371 C 315.148 204.109,314.434 205.287,313.931 205.987 C 313.429 206.688,312.431 208.121,311.714 209.172 C 306.631 216.623,304.406 219.262,301.019 221.861 C 300.178 222.506,299.433 223.109,299.363 223.202 C 299.293 223.295,298.032 224.207,296.561 225.230 C 295.089 226.252,293.369 227.506,292.739 228.017 C 289.293 230.811,280.848 235.814,276.836 237.440 C 271.778 239.490,260.119 242.558,251.592 244.083 C 243.721 245.491,221.114 245.614,208.025 244.319 C 205.084 244.028,200.783 243.735,191.465 243.189 C 183.571 242.726,179.416 242.263,174.199 241.266 C 169.781 240.421,160.927 238.917,157.707 238.465 C 154.697 238.042,150.239 237.292,147.310 236.715 C 145.952 236.447,144.554 236.172,144.204 236.104 C 142.799 235.829,128.179 232.788,126.752 232.474 C 125.911 232.288,124.152 231.901,122.843 231.613 C 121.533 231.325,120.043 230.976,119.531 230.838 C 118.558 230.576,115.344 229.770,113.376 229.295 C 110.921 228.702,110.117 228.485,108.025 227.855 C 103.394 226.459,100.940 225.678,98.981 224.975 C 97.004 224.266,93.469 223.164,89.809 222.118 C 88.828 221.837,87.624 221.456,87.134 221.271 C 86.643 221.086,85.096 220.507,83.694 219.984 C 73.504 216.186,57.636 207.523,46.314 199.577 C 45.652 199.113,44.342 198.207,43.403 197.564 C 42.463 196.920,41.169 195.978,40.529 195.470 C 38.155 193.587,36.736 192.466,35.895 191.809 C 29.887 187.109,28.382 185.723,24.577 181.390 C 19.957 176.127,14.406 165.579,10.639 154.904 C 10.070 153.293,9.398 151.774,9.145 151.530 C 8.893 151.285,8.618 150.654,8.536 150.128 C 8.453 149.602,8.203 148.369,7.981 147.389 C 7.085 143.444,7.269 129.134,8.282 123.949 C 8.502 122.828,8.785 121.280,8.912 120.510 C 10.650 109.983,14.395 103.118,26.480 88.308 C 28.510 85.820,28.618 85.710,32.623 82.038 C 34.075 80.707,36.243 78.694,37.441 77.565 C 41.676 73.573,43.470 72.102,51.842 65.763 C 54.681 63.614,63.798 58.029,74.013 52.182 C 76.821 50.574,86.141 46.119,88.535 45.239 C 91.414 44.182,94.906 42.868,95.669 42.555 C 98.381 41.441,99.449 41.035,102.548 39.939 C 104.510 39.246,106.459 38.584,106.879 38.470 C 107.299 38.356,109.076 37.786,110.828 37.203 C 114.019 36.141,114.978 35.855,119.299 34.679 C 124.038 33.389,125.447 33.020,126.815 32.714 C 127.691 32.517,129.182 32.182,130.127 31.969 C 132.461 31.443,134.963 30.944,137.707 30.457 C 138.968 30.233,140.573 29.943,141.274 29.812 C 141.975 29.682,143.866 29.398,145.478 29.182 C 147.089 28.967,149.210 28.680,150.191 28.545 C 151.882 28.314,157.961 27.754,163.822 27.290 C 167.801 26.975,188.179 26.960,191.847 27.269 M134.650 65.142 C 132.578 65.274,126.834 65.977,125.732 66.232 C 125.172 66.362,123.854 66.658,122.803 66.890 C 114.798 68.655,105.453 73.647,103.370 77.269 C 102.404 78.949,101.612 81.732,100.924 85.860 C 100.773 86.771,100.364 89.121,100.015 91.083 C 99.667 93.045,99.256 95.854,99.102 97.325 C 98.948 98.796,98.719 100.975,98.594 102.166 C 98.469 103.357,98.247 105.019,98.100 105.860 C 97.743 107.904,97.736 130.147,98.091 132.994 C 98.240 134.185,98.468 136.486,98.598 138.106 C 98.728 139.727,98.893 141.218,98.964 141.419 C 99.036 141.619,99.213 142.643,99.357 143.694 C 99.501 144.745,99.735 146.293,99.877 147.134 C 100.019 147.975,100.298 149.866,100.499 151.338 C 101.269 156.992,102.342 161.634,104.535 168.790 C 105.437 171.732,106.377 174.885,106.624 175.796 C 108.060 181.079,109.753 185.364,111.782 188.851 C 112.619 190.289,113.596 191.981,113.952 192.611 C 114.309 193.242,115.105 194.274,115.721 194.904 C 116.337 195.535,117.172 196.491,117.576 197.029 C 119.241 199.243,127.633 203.567,130.264 203.567 C 130.523 203.567,130.931 203.672,131.171 203.801 C 131.673 204.069,134.440 204.519,137.580 204.841 C 138.771 204.963,140.605 205.182,141.656 205.326 C 144.525 205.721,155.509 205.655,159.108 205.220 C 160.790 205.017,162.854 204.849,163.694 204.846 C 169.909 204.824,179.809 200.167,185.006 194.821 C 188.422 191.306,192.089 184.827,193.467 179.873 C 196.377 169.412,196.246 164.689,192.758 154.268 C 190.661 148.003,189.761 146.766,186.936 146.267 C 185.846 146.074,184.894 145.818,184.819 145.697 C 184.744 145.577,184.131 145.478,183.456 145.478 C 178.474 145.478,177.385 142.341,181.570 140.047 C 183.356 139.068,184.230 138.359,185.588 136.788 C 185.999 136.313,187.157 135.006,188.161 133.885 C 196.517 124.558,199.731 116.744,199.742 105.726 C 199.748 100.088,197.945 90.199,196.656 88.803 C 196.534 88.669,196.433 88.353,196.433 88.098 C 196.433 87.636,196.357 87.444,195.578 85.948 C 195.348 85.506,195.159 85.029,195.159 84.888 C 195.159 84.271,192.905 80.716,191.298 78.799 C 188.004 74.869,183.980 72.813,171.975 68.925 C 167.879 67.599,167.132 67.433,162.166 66.750 C 160.064 66.460,157.312 66.054,156.051 65.847 C 151.470 65.096,140.837 64.745,134.650 65.142 M145.987 88.819 C 145.987 89.310,145.855 90.509,145.694 91.484 C 145.329 93.698,145.236 93.627,148.493 93.649 C 155.405 93.697,158.742 98.415,155.997 104.261 C 154.442 107.571,151.975 109.538,149.363 109.549 C 147.854 109.555,147.674 109.867,148.502 111.043 C 150.153 113.389,148.827 114.432,146.330 112.750 C 141.030 109.182,140.031 100.492,143.758 90.372 C 144.577 88.145,145.987 87.164,145.987 88.819 M253.734 87.875 C 251.097 88.406,249.000 90.309,248.162 92.931 C 247.749 94.224,247.750 94.226,249.147 94.321 C 250.030 94.380,250.303 94.294,250.530 93.885 C 251.977 91.277,252.964 90.462,255.312 89.937 C 256.718 89.622,258.532 89.672,259.490 90.051 C 260.324 90.381,258.595 88.855,257.575 88.360 C 256.476 87.827,254.939 87.633,253.734 87.875 M300.655 104.243 C 300.855 104.436,301.535 104.991,302.166 105.477 C 302.796 105.963,303.612 106.649,303.978 107.002 C 304.344 107.355,305.087 107.987,305.629 108.408 C 309.668 111.544,309.296 112.143,303.822 111.311 C 302.841 111.162,300.720 110.940,299.108 110.817 C 297.497 110.694,295.777 110.515,295.287 110.420 L 294.395 110.246 295.159 110.909 C 295.580 111.273,296.210 111.815,296.561 112.112 C 296.911 112.408,298.099 113.467,299.200 114.464 C 300.302 115.461,301.477 116.493,301.812 116.756 C 302.645 117.411,302.597 117.962,301.707 117.962 C 301.315 117.962,300.885 117.862,300.752 117.740 C 300.618 117.618,299.822 117.315,298.981 117.068 C 298.140 116.820,296.650 116.363,295.669 116.051 C 294.688 115.739,293.197 115.282,292.357 115.035 C 291.516 114.788,290.629 114.486,290.386 114.363 C 290.142 114.241,289.718 114.140,289.442 114.140 C 289.167 114.140,288.678 114.033,288.356 113.903 C 288.034 113.772,287.083 113.477,286.242 113.248 C 285.401 113.018,284.140 112.674,283.439 112.482 C 282.739 112.290,281.707 112.022,281.146 111.886 C 280.586 111.751,279.487 111.457,278.704 111.234 C 277.921 111.011,276.982 110.828,276.617 110.828 C 276.252 110.828,275.883 110.713,275.796 110.573 C 275.710 110.433,275.354 110.318,275.005 110.318 C 274.657 110.318,273.661 110.156,272.791 109.957 C 270.479 109.428,268.751 109.116,265.605 108.659 C 264.064 108.436,262.229 108.152,261.529 108.029 C 257.329 107.291,248.659 106.642,250.191 107.181 C 250.401 107.255,251.261 107.631,252.102 108.017 C 256.042 109.827,256.596 110.064,256.899 110.064 C 257.077 110.064,257.332 110.164,257.465 110.287 C 257.598 110.409,259.140 111.001,260.892 111.601 C 262.643 112.201,264.191 112.774,264.331 112.874 C 264.471 112.974,265.561 113.356,266.752 113.724 C 270.173 114.779,270.630 114.936,271.847 115.474 C 273.968 116.411,276.810 117.738,277.526 118.126 C 277.916 118.338,278.490 118.649,278.800 118.816 C 279.916 119.419,287.029 123.651,288.025 124.305 C 291.867 126.829,295.808 130.327,296.422 131.758 C 296.623 132.227,297.253 133.127,297.820 133.758 C 300.529 136.765,297.787 137.892,292.866 135.793 C 292.306 135.554,291.506 135.219,291.090 135.048 C 290.032 134.613,287.042 133.628,285.223 133.114 C 282.175 132.254,281.381 132.032,280.255 131.720 C 279.624 131.545,278.592 131.259,277.962 131.083 C 269.225 128.647,267.052 128.153,265.075 128.153 C 262.211 128.153,263.234 128.688,272.484 132.030 C 272.904 132.181,273.592 132.447,274.013 132.620 C 274.433 132.793,275.178 133.080,275.669 133.259 C 279.839 134.778,291.004 140.260,292.937 141.738 C 296.135 144.182,297.524 146.362,296.547 147.403 L 295.962 148.025 288.427 148.026 C 282.871 148.026,280.323 148.126,278.726 148.408 C 277.535 148.617,276.503 148.795,276.433 148.802 C 276.283 148.816,278.026 149.386,280.000 149.966 C 281.970 150.546,282.737 150.822,284.275 151.505 C 285.015 151.833,285.680 152.102,285.754 152.102 C 286.329 152.102,291.482 154.888,292.320 155.651 C 292.901 156.181,294.200 157.049,295.208 157.581 C 298.603 159.373,298.405 161.053,294.490 163.684 C 293.457 164.378,291.305 165.925,289.708 167.123 L 286.805 169.299 291.110 169.460 C 296.361 169.656,298.053 170.192,298.595 171.835 C 299.241 173.793,298.743 174.301,293.575 176.958 C 287.671 179.994,288.610 180.714,296.051 178.858 C 296.541 178.735,297.745 178.449,298.726 178.221 C 299.707 177.994,300.911 177.702,301.401 177.572 C 304.475 176.761,307.580 176.100,309.299 175.891 C 310.209 175.781,310.953 175.511,311.421 175.122 C 312.495 174.228,313.926 174.296,314.695 175.278 C 315.491 176.295,316.096 175.982,317.888 173.631 C 319.897 170.995,326.028 164.963,328.701 162.991 C 332.146 160.451,336.411 157.962,337.319 157.962 C 337.546 157.962,337.841 157.860,337.975 157.735 C 338.839 156.926,343.180 155.881,347.104 155.539 C 349.362 155.341,352.586 154.995,354.268 154.769 C 355.949 154.544,358.357 154.261,359.618 154.141 C 364.225 153.701,367.034 153.369,368.229 153.120 C 368.902 152.981,370.249 152.866,371.223 152.866 C 373.409 152.866,373.469 152.289,371.338 151.764 C 371.057 151.695,369.510 151.162,367.898 150.579 C 366.287 149.995,364.739 149.459,364.459 149.388 C 364.178 149.316,363.720 149.161,363.439 149.045 C 363.159 148.928,362.299 148.638,361.529 148.399 C 360.758 148.160,359.928 147.863,359.685 147.740 C 359.442 147.617,359.040 147.515,358.793 147.514 C 358.546 147.513,358.016 147.342,357.614 147.132 C 357.213 146.923,356.618 146.752,356.292 146.752 C 355.966 146.752,355.634 146.647,355.555 146.519 C 355.476 146.391,354.954 146.209,354.395 146.115 C 353.836 146.020,353.314 145.838,353.235 145.710 C 353.156 145.582,352.855 145.478,352.567 145.478 C 352.029 145.478,349.775 144.814,348.984 144.423 C 348.741 144.302,348.316 144.204,348.041 144.204 C 347.765 144.204,347.277 144.097,346.955 143.966 C 346.633 143.836,345.739 143.556,344.968 143.346 C 342.515 142.675,339.520 141.873,338.599 141.642 C 336.019 140.993,334.290 140.575,333.376 140.379 C 330.508 139.765,329.772 139.577,329.367 139.353 C 329.123 139.218,328.593 139.108,328.188 139.108 C 327.784 139.108,326.965 138.936,326.369 138.726 C 325.774 138.516,324.906 138.344,324.442 138.344 C 323.977 138.344,323.526 138.229,323.439 138.089 C 323.353 137.949,322.838 137.834,322.295 137.834 C 321.751 137.834,320.995 137.716,320.613 137.571 C 319.937 137.313,318.481 137.041,315.213 136.559 C 314.331 136.429,313.499 136.255,313.364 136.171 C 313.124 136.023,311.034 135.707,307.811 135.332 L 306.196 135.144 305.437 136.102 C 303.121 139.026,301.467 137.873,301.122 133.094 C 300.991 131.287,300.817 129.198,300.735 128.452 C 300.503 126.349,302.241 124.849,303.910 125.712 C 304.783 126.164,305.987 127.613,305.987 128.212 C 305.987 129.167,306.835 129.646,309.045 129.940 C 312.383 130.386,314.068 130.643,316.561 131.090 C 317.822 131.316,319.484 131.596,320.255 131.712 C 321.025 131.829,322.631 132.115,323.822 132.348 C 325.013 132.581,326.561 132.868,327.261 132.986 C 327.962 133.104,329.452 133.392,330.573 133.625 C 331.694 133.859,333.242 134.144,334.013 134.259 C 334.783 134.374,335.737 134.595,336.131 134.750 C 336.526 134.905,337.236 135.032,337.709 135.032 C 338.182 135.032,338.640 135.146,338.726 135.287 C 338.813 135.427,339.264 135.541,339.728 135.541 C 340.193 135.541,341.060 135.713,341.656 135.924 C 342.252 136.134,343.062 136.306,343.456 136.306 C 343.851 136.306,344.245 136.420,344.331 136.561 C 344.418 136.701,344.813 136.815,345.209 136.815 C 345.605 136.815,346.544 136.996,347.296 137.217 C 348.047 137.438,349.064 137.714,349.554 137.831 C 350.045 137.947,351.134 138.228,351.975 138.455 C 352.815 138.681,353.962 138.988,354.522 139.136 C 356.300 139.606,358.326 140.192,358.854 140.390 C 359.134 140.495,360.108 140.785,361.019 141.034 C 361.930 141.283,362.784 141.583,362.917 141.699 C 363.050 141.816,363.401 141.911,363.697 141.911 C 363.992 141.911,364.456 142.079,364.728 142.285 C 365.000 142.491,365.474 142.663,365.781 142.667 C 366.088 142.672,366.410 142.790,366.497 142.930 C 366.583 143.070,366.868 143.185,367.128 143.185 C 367.389 143.185,367.927 143.346,368.323 143.543 C 368.720 143.741,369.331 144.018,369.682 144.160 C 374.570 146.143,379.013 148.753,381.238 150.949 L 382.732 152.423 382.618 151.307 C 382.490 150.045,381.963 147.865,381.626 147.201 C 381.502 146.958,381.401 146.550,381.401 146.294 C 381.401 146.039,381.233 145.607,381.027 145.335 C 380.821 145.063,380.650 144.583,380.645 144.268 C 380.641 143.952,380.551 143.694,380.446 143.693 C 380.341 143.693,380.034 143.148,379.765 142.483 C 378.522 139.416,374.453 133.749,371.019 130.302 C 368.286 127.558,361.048 121.783,360.342 121.783 C 360.250 121.783,359.800 121.497,359.340 121.146 C 358.881 120.796,358.457 120.510,358.398 120.510 C 358.338 120.510,357.327 119.961,356.151 119.291 C 353.958 118.041,351.863 116.991,349.172 115.794 C 348.331 115.420,347.177 114.895,346.607 114.627 C 346.038 114.359,345.453 114.140,345.309 114.140 C 345.058 114.140,343.803 113.608,342.870 113.105 C 342.626 112.974,342.258 112.866,342.050 112.866 C 341.843 112.866,341.240 112.678,340.709 112.449 C 339.351 111.861,338.928 111.711,337.197 111.204 C 336.357 110.958,335.439 110.672,335.159 110.569 C 334.633 110.376,332.364 109.738,330.573 109.280 C 330.013 109.137,329.023 108.853,328.373 108.650 C 327.724 108.447,326.987 108.280,326.735 108.280 C 326.484 108.280,325.926 108.173,325.496 108.042 C 325.065 107.911,323.796 107.615,322.675 107.384 C 321.554 107.153,320.285 106.859,319.855 106.731 C 319.424 106.602,318.736 106.497,318.324 106.497 C 317.913 106.497,317.176 106.378,316.686 106.233 C 315.717 105.945,313.668 105.618,310.360 105.224 C 309.192 105.085,308.119 104.899,307.976 104.810 C 307.834 104.722,306.611 104.542,305.260 104.410 C 303.908 104.279,302.237 104.108,301.546 104.032 C 300.477 103.914,300.344 103.946,300.655 104.243 M148.575 158.251 C 147.984 159.630,147.637 161.114,147.936 160.986 C 152.543 159.012,155.458 160.634,157.112 166.091 C 158.452 170.515,155.698 176.345,151.847 177.238 C 150.757 177.490,150.064 178.064,150.064 178.714 C 150.064 181.731,146.345 179.635,144.375 175.508 C 141.341 169.152,142.344 163.410,147.403 158.180 C 149.035 156.493,149.321 156.510,148.575 158.251 " stroke="none" fill="#fbfbfb" fill-rule="evenodd"></path><path id="path3" d="M168.153 33.898 C 163.299 34.077,158.096 34.455,154.522 34.887 C 146.102 35.905,143.511 36.298,135.924 37.708 C 129.340 38.931,129.045 38.981,128.344 38.981 C 127.975 38.981,127.612 39.080,127.537 39.202 C 127.461 39.324,126.829 39.499,126.131 39.592 C 125.433 39.684,124.793 39.871,124.709 40.007 C 124.625 40.143,124.281 40.255,123.946 40.255 C 123.611 40.255,123.073 40.355,122.751 40.477 C 122.429 40.599,121.478 40.900,120.637 41.147 C 118.888 41.660,117.049 42.255,116.306 42.547 C 116.025 42.658,114.764 43.062,113.503 43.447 C 110.947 44.226,108.104 45.206,106.752 45.774 C 103.746 47.038,102.368 47.576,100.637 48.163 C 99.726 48.472,98.872 48.826,98.739 48.949 C 98.606 49.071,98.308 49.172,98.077 49.172 C 97.692 49.172,96.578 49.617,95.481 50.207 C 95.238 50.339,94.896 50.446,94.720 50.446 C 94.545 50.446,93.770 50.747,92.997 51.116 C 92.225 51.484,91.363 51.874,91.083 51.982 C 90.803 52.090,89.599 52.633,88.408 53.188 C 85.028 54.763,82.078 56.051,81.850 56.051 C 81.736 56.051,81.010 56.379,80.238 56.779 C 78.057 57.911,77.739 58.074,77.261 58.304 C 75.024 59.379,64.222 65.854,63.057 66.817 C 62.619 67.179,55.005 72.102,54.882 72.102 C 54.332 72.102,49.035 76.027,47.006 77.938 C 45.281 79.562,42.329 82.124,40.946 83.196 C 39.337 84.444,35.655 88.224,34.010 90.318 C 33.460 91.019,32.834 91.776,32.620 92.001 C 26.340 98.571,20.648 108.863,18.332 117.834 C 18.224 118.255,17.911 119.459,17.637 120.510 C 15.365 129.234,15.179 139.930,17.186 146.497 C 17.421 147.268,17.677 148.215,17.754 148.602 C 17.830 148.989,17.995 149.368,18.119 149.445 C 18.243 149.522,18.344 149.760,18.344 149.974 C 18.344 150.465,20.250 154.864,21.197 156.561 C 21.588 157.261,22.454 158.924,23.120 160.255 C 23.786 161.586,24.417 162.713,24.522 162.760 C 24.627 162.807,24.713 162.999,24.713 163.188 C 24.713 163.376,24.857 163.684,25.032 163.872 C 25.207 164.060,25.567 164.612,25.833 165.100 C 26.098 165.588,26.520 166.217,26.769 166.497 C 27.018 166.777,28.097 168.210,29.166 169.682 C 30.235 171.153,31.305 172.602,31.542 172.902 C 34.029 176.039,41.366 183.438,43.642 185.103 C 44.594 185.799,45.511 186.484,45.680 186.624 C 45.849 186.764,46.673 187.395,47.510 188.025 C 48.348 188.656,49.265 189.363,49.548 189.596 C 49.832 189.830,50.528 190.403,51.096 190.870 C 51.664 191.337,53.650 192.694,55.509 193.885 C 57.368 195.076,60.096 196.911,61.571 197.962 C 66.621 201.559,69.934 203.822,70.150 203.822 C 70.270 203.822,70.672 204.036,71.043 204.299 C 71.415 204.561,72.350 205.115,73.121 205.531 C 73.892 205.946,75.038 206.574,75.669 206.927 C 77.027 207.686,82.595 210.617,85.478 212.090 C 88.439 213.603,92.932 215.274,99.236 217.206 C 100.497 217.593,102.713 218.294,104.160 218.765 C 105.607 219.236,107.613 219.840,108.618 220.109 C 109.623 220.377,111.420 220.942,112.611 221.364 C 114.976 222.203,116.419 222.608,118.203 222.933 C 118.841 223.050,120.395 223.431,121.656 223.780 C 123.929 224.408,126.745 225.131,129.936 225.904 C 130.847 226.125,133.312 226.795,135.414 227.393 C 137.516 227.991,139.752 228.563,140.382 228.664 C 141.013 228.766,142.847 229.192,144.459 229.611 C 146.070 230.030,147.675 230.424,148.025 230.487 C 148.376 230.550,149.408 230.762,150.318 230.957 C 151.229 231.153,152.662 231.442,153.503 231.598 C 154.344 231.755,155.478 231.999,156.023 232.141 C 156.569 232.283,157.543 232.493,158.189 232.609 C 158.835 232.724,160.338 233.006,161.529 233.236 C 162.720 233.465,164.439 233.747,165.350 233.863 C 166.261 233.979,168.669 234.319,170.701 234.620 C 172.732 234.920,175.369 235.291,176.561 235.444 C 177.752 235.598,179.785 235.883,181.080 236.078 C 182.375 236.273,183.946 236.433,184.571 236.433 C 185.196 236.433,186.258 236.545,186.930 236.682 C 187.603 236.818,189.873 237.062,191.975 237.222 C 196.311 237.554,198.579 237.790,201.146 238.179 C 205.739 238.873,206.612 238.971,208.251 238.976 C 209.216 238.979,210.993 239.092,212.200 239.228 C 219.692 240.072,229.684 240.075,237.834 239.235 C 239.096 239.105,242.019 238.816,244.331 238.592 C 246.643 238.369,248.950 238.078,249.456 237.946 C 249.963 237.815,250.708 237.707,251.112 237.706 C 252.856 237.705,259.502 236.399,264.624 235.052 C 272.781 232.907,273.252 232.762,276.333 231.434 C 276.769 231.247,278.335 230.586,279.815 229.966 C 283.863 228.270,286.762 226.452,289.427 223.939 C 298.174 215.688,301.846 212.057,302.655 210.861 C 302.856 210.562,303.559 209.688,304.217 208.917 C 305.840 207.015,309.598 201.595,313.274 195.854 C 315.253 192.764,317.582 189.427,318.296 188.662 C 318.557 188.382,319.983 186.318,321.465 184.076 C 322.947 181.834,324.226 179.943,324.309 179.873 C 324.391 179.803,324.913 179.172,325.468 178.471 C 327.357 176.089,332.697 170.979,334.571 169.762 C 337.719 167.717,347.337 162.803,348.190 162.803 C 348.412 162.803,349.125 162.636,349.775 162.433 C 353.063 161.404,356.780 160.883,359.220 161.110 C 360.212 161.202,361.797 161.160,362.741 161.016 C 363.686 160.872,366.064 160.523,368.025 160.241 C 369.987 159.959,372.166 159.624,372.866 159.497 C 376.267 158.881,378.392 158.471,380.255 158.073 L 382.293 157.637 384.968 159.443 C 388.295 161.688,388.233 161.736,388.112 157.011 C 387.959 150.992,386.736 144.536,384.987 140.510 C 384.865 140.229,384.567 139.541,384.324 138.981 C 378.966 126.619,368.149 116.741,352.229 109.675 C 349.287 108.369,348.474 108.055,344.331 106.623 C 341.883 105.776,336.240 104.233,334.068 103.816 C 332.636 103.541,331.739 103.251,331.794 103.082 C 332.018 102.393,334.975 101.528,338.106 101.238 C 340.817 100.986,340.789 100.294,338.037 99.532 C 337.155 99.288,336.089 98.986,335.669 98.862 C 333.738 98.288,324.695 96.694,322.293 96.504 C 321.289 96.424,320.936 95.629,321.644 95.042 C 322.777 94.101,321.089 92.739,318.789 92.739 C 318.516 92.739,317.960 92.629,317.554 92.494 C 313.413 91.121,303.291 91.194,296.497 92.647 C 295.752 92.806,295.590 92.538,296.115 92.012 C 296.598 91.528,296.504 83.552,295.997 82.038 C 295.522 80.620,295.346 80.634,294.449 82.162 C 293.761 83.332,291.075 86.675,290.704 86.824 C 290.604 86.863,290.386 86.061,290.219 85.040 C 289.889 83.025,289.096 80.144,288.482 78.726 C 285.629 72.137,279.762 64.133,281.158 68.732 C 281.790 70.816,281.525 76.498,280.835 75.661 C 280.665 75.455,279.586 74.098,278.437 72.645 C 276.165 69.772,271.983 65.423,269.197 63.035 C 268.229 62.207,267.312 61.408,267.158 61.261 C 265.580 59.749,256.718 53.560,254.013 52.080 C 253.522 51.812,253.064 51.535,252.994 51.465 C 252.434 50.906,242.643 46.058,239.618 44.843 C 238.497 44.392,237.236 43.881,236.815 43.706 C 236.395 43.531,235.650 43.245,235.159 43.070 C 234.669 42.895,234.038 42.657,233.758 42.543 C 226.562 39.604,213.887 36.669,200.764 34.901 C 192.814 33.830,180.334 33.446,168.153 33.898 M186.115 34.145 C 192.970 34.525,197.234 34.857,200.637 35.275 C 207.061 36.065,208.065 36.227,214.395 37.499 C 219.111 38.447,229.329 41.202,231.210 42.032 C 231.490 42.156,232.178 42.394,232.739 42.560 C 233.299 42.727,234.102 43.006,234.522 43.180 C 234.943 43.355,235.803 43.701,236.433 43.949 C 237.064 44.197,237.941 44.557,238.382 44.748 C 238.824 44.939,239.251 45.096,239.330 45.096 C 239.762 45.096,247.772 48.980,251.207 50.855 C 261.947 56.718,272.668 65.573,279.093 73.888 C 279.872 74.897,280.510 75.812,280.510 75.923 C 280.510 76.294,281.358 76.454,281.568 76.123 C 281.855 75.672,281.837 69.866,281.546 68.852 C 281.266 67.873,281.333 67.839,282.051 68.599 C 285.563 72.314,289.922 81.940,289.933 86.008 C 289.938 87.783,290.585 87.722,292.102 85.807 C 292.662 85.099,293.434 84.162,293.818 83.725 C 294.201 83.288,294.516 82.804,294.518 82.651 C 294.520 82.498,294.741 82.174,295.008 81.933 C 295.555 81.438,295.451 81.185,296.075 84.526 C 296.428 86.413,296.247 90.711,295.765 91.907 C 295.264 93.150,295.620 93.286,297.962 92.749 C 304.253 91.307,311.411 91.533,320.456 93.460 C 321.809 93.749,321.973 93.905,321.583 94.534 C 321.413 94.808,321.141 95.246,320.979 95.508 C 320.507 96.268,320.885 96.815,321.883 96.815 C 322.368 96.815,323.317 96.925,323.993 97.059 C 324.670 97.193,326.427 97.487,327.898 97.712 C 331.010 98.187,333.460 98.708,337.995 99.858 C 340.024 100.372,339.793 100.788,337.360 101.001 C 333.241 101.360,329.523 103.312,332.038 103.795 C 338.138 104.965,345.965 107.300,350.446 109.286 C 350.726 109.410,351.585 109.779,352.354 110.106 C 357.224 112.176,367.152 117.965,368.408 119.466 C 368.478 119.549,369.166 120.129,369.936 120.753 C 373.279 123.460,378.596 129.169,379.466 130.985 C 379.592 131.249,379.793 131.465,379.912 131.465 C 380.030 131.465,380.127 131.591,380.127 131.744 C 380.127 131.898,380.385 132.384,380.701 132.826 C 382.073 134.748,384.109 138.932,385.184 142.038 C 387.331 148.244,388.724 160.510,387.282 160.510 C 387.014 160.510,386.756 160.423,386.709 160.317 C 386.604 160.077,382.956 157.611,382.388 157.395 C 382.159 157.308,381.529 157.350,380.986 157.488 C 378.253 158.185,371.215 159.482,367.389 159.995 C 366.478 160.117,364.815 160.342,363.694 160.495 C 362.560 160.650,360.583 160.702,359.236 160.613 C 354.302 160.287,349.045 161.657,342.038 165.096 C 332.063 169.992,327.436 174.148,320.764 184.204 C 319.602 185.955,317.940 188.306,317.072 189.427 C 316.204 190.548,314.876 192.439,314.122 193.631 C 313.367 194.822,312.660 195.911,312.551 196.051 C 312.442 196.191,310.985 198.369,309.314 200.892 C 305.952 205.965,301.964 211.130,299.486 213.622 C 298.112 215.003,289.595 223.069,288.068 224.436 C 285.828 226.441,282.480 228.462,279.635 229.526 C 278.813 229.833,277.040 230.555,275.695 231.130 C 273.487 232.073,266.976 234.032,262.675 235.046 C 261.764 235.261,260.503 235.561,259.873 235.713 C 257.257 236.343,256.191 236.522,249.427 237.462 C 241.438 238.573,231.936 239.355,226.369 239.359 C 219.951 239.365,206.498 238.533,201.783 237.841 C 200.452 237.645,198.446 237.351,197.325 237.187 C 196.204 237.022,193.911 236.788,192.229 236.665 C 188.084 236.363,184.894 236.033,181.401 235.547 C 179.790 235.322,177.497 235.025,176.306 234.887 C 175.115 234.749,173.452 234.532,172.611 234.404 C 171.771 234.276,170.223 234.047,169.172 233.894 C 164.523 233.217,160.919 232.601,157.962 231.978 C 156.210 231.609,154.204 231.207,153.503 231.085 C 152.803 230.962,151.369 230.670,150.318 230.435 C 149.268 230.200,148.006 229.923,147.516 229.819 C 147.025 229.715,146.108 229.489,145.478 229.317 C 144.157 228.957,143.294 228.749,140.637 228.155 C 139.586 227.920,136.662 227.167,134.140 226.482 C 131.618 225.797,128.121 224.881,126.369 224.447 C 117.357 222.212,114.995 221.581,111.720 220.533 C 109.758 219.906,107.408 219.167,106.497 218.892 C 104.623 218.325,96.782 215.843,93.483 214.773 C 89.081 213.345,78.920 208.453,74.081 205.434 C 73.559 205.108,73.081 204.841,73.020 204.841 C 72.499 204.841,66.464 200.909,63.178 198.429 C 61.983 197.527,59.961 196.143,58.686 195.354 C 54.860 192.988,52.482 191.352,50.064 189.425 C 48.803 188.420,46.280 186.450,44.459 185.046 C 40.415 181.931,33.198 174.527,30.784 171.018 C 30.330 170.359,29.812 169.646,29.631 169.433 C 28.005 167.510,25.465 163.676,24.226 161.274 C 20.960 154.940,20.469 153.960,19.827 152.484 C 15.771 143.170,15.168 130.755,18.251 120.000 C 21.491 108.695,26.288 99.358,31.874 93.486 C 32.350 92.986,33.554 91.610,34.551 90.429 C 37.109 87.396,39.013 85.487,41.656 83.305 C 42.917 82.264,45.268 80.202,46.879 78.723 C 49.534 76.287,51.124 75.123,56.688 71.542 C 57.669 70.910,60.009 69.389,61.889 68.162 C 67.510 64.492,68.582 63.822,72.008 61.839 C 76.918 58.998,79.887 57.477,83.859 55.771 C 85.832 54.924,88.092 53.908,88.882 53.514 C 89.672 53.120,90.777 52.603,91.338 52.365 C 91.898 52.126,92.540 51.837,92.764 51.720 C 93.501 51.337,97.671 49.644,98.847 49.250 C 99.853 48.913,107.518 45.948,108.917 45.355 C 109.197 45.236,110.000 44.956,110.701 44.732 C 111.401 44.508,113.924 43.687,116.306 42.908 C 118.688 42.130,121.239 41.329,121.975 41.128 C 122.710 40.928,123.971 40.579,124.777 40.352 C 126.772 39.791,127.708 39.592,131.847 38.850 C 133.809 38.498,136.331 38.033,137.452 37.817 C 152.792 34.857,172.342 33.382,186.115 34.145 M138.082 55.801 C 134.710 56.002,130.386 56.379,127.771 56.700 C 127.210 56.768,125.834 57.001,124.713 57.218 C 123.592 57.434,122.045 57.732,121.274 57.881 C 119.298 58.262,114.122 59.784,112.739 60.391 C 112.117 60.663,108.957 61.689,106.879 62.293 C 98.797 64.641,92.490 69.219,90.972 73.838 C 90.080 76.553,89.727 78.069,89.447 80.382 C 89.328 81.363,89.040 82.796,88.806 83.567 C 87.978 86.299,87.263 89.546,86.871 92.357 C 86.734 93.338,86.445 95.344,86.229 96.815 C 86.013 98.287,85.736 100.293,85.614 101.274 C 85.491 102.255,85.258 104.032,85.096 105.223 C 84.671 108.333,84.649 128.120,85.066 132.357 C 85.245 134.178,85.489 136.758,85.608 138.089 C 85.728 139.420,86.016 141.771,86.250 143.312 C 86.687 146.199,86.803 146.881,87.493 150.573 C 87.890 152.699,87.977 153.094,88.776 156.433 C 88.994 157.344,89.285 158.640,89.423 159.313 C 90.083 162.538,91.578 168.247,92.271 170.191 C 92.695 171.382,93.198 172.997,93.387 173.779 C 93.825 175.585,96.103 182.535,96.688 183.846 C 96.932 184.393,97.407 185.471,97.745 186.242 C 98.728 188.485,99.937 190.854,100.814 192.259 C 101.262 192.976,101.937 194.122,102.316 194.807 C 106.131 201.710,111.534 206.491,118.089 208.763 C 120.317 209.535,126.280 211.371,127.134 211.548 C 127.484 211.620,128.516 211.871,129.427 212.104 C 130.338 212.338,131.771 212.627,132.611 212.746 C 133.452 212.865,135.172 213.150,136.433 213.378 C 139.265 213.890,142.169 214.244,144.841 214.402 C 145.962 214.468,148.856 214.652,151.271 214.811 C 154.570 215.028,156.378 215.027,158.533 214.807 C 160.110 214.646,162.548 214.396,163.949 214.253 C 166.553 213.987,170.116 213.322,170.573 213.016 C 170.713 212.922,171.516 212.629,172.357 212.365 C 173.197 212.101,173.994 211.790,174.127 211.675 C 174.261 211.559,174.528 211.465,174.721 211.465 C 175.103 211.465,177.370 210.618,180.382 209.349 C 182.360 208.517,184.525 207.154,187.092 205.124 C 190.766 202.221,193.357 199.959,194.283 198.848 C 194.835 198.186,195.497 197.400,195.755 197.102 C 196.342 196.422,198.239 193.539,198.876 192.357 C 199.141 191.866,199.493 191.293,199.659 191.083 C 201.626 188.590,205.166 179.919,205.901 175.796 C 206.367 173.185,206.371 161.894,205.907 160.127 C 205.723 159.427,205.470 158.452,205.344 157.962 C 204.773 155.743,203.482 151.825,203.280 151.700 C 203.158 151.624,203.057 151.405,203.057 151.213 C 203.057 149.812,199.561 143.895,197.087 141.107 L 195.450 139.264 196.658 137.848 C 202.486 131.022,206.513 123.126,208.026 115.563 C 208.248 114.454,208.472 113.478,208.524 113.394 C 209.391 111.992,210.450 97.260,209.956 93.476 C 209.723 91.691,208.016 86.079,207.251 84.586 C 207.072 84.236,206.673 83.318,206.364 82.548 C 203.281 74.851,201.691 72.730,195.292 67.774 C 190.433 64.012,188.494 63.016,182.166 61.033 C 180.554 60.529,177.986 59.710,176.458 59.215 C 173.126 58.134,170.834 57.634,164.204 56.540 C 160.228 55.884,144.249 55.432,138.082 55.801 M161.656 56.814 C 169.360 57.843,172.402 58.499,178.089 60.359 C 180.121 61.024,182.815 61.887,184.076 62.278 C 188.384 63.612,192.557 66.084,197.196 70.050 C 201.474 73.709,202.258 74.824,205.325 81.611 C 206.178 83.499,207.275 86.319,208.336 89.349 L 209.299 92.102 209.257 98.927 C 209.217 105.465,209.117 106.715,208.251 111.592 C 206.407 121.985,202.428 130.398,195.626 138.289 C 194.673 139.395,194.668 139.377,196.438 141.279 C 197.732 142.670,200.764 146.954,200.764 147.391 C 200.764 147.465,201.210 148.470,201.755 149.623 C 202.829 151.896,203.690 154.135,204.061 155.620 C 204.190 156.137,204.478 157.191,204.701 157.962 C 207.217 166.664,206.044 177.515,201.659 186.083 C 197.007 195.175,194.725 198.199,189.043 202.803 C 187.745 203.854,186.556 204.835,186.399 204.983 C 185.121 206.196,180.830 208.635,178.344 209.561 C 177.713 209.796,176.998 210.091,176.755 210.217 C 176.512 210.343,176.143 210.446,175.936 210.446 C 175.728 210.446,175.182 210.608,174.722 210.807 C 172.493 211.768,172.021 211.949,170.955 212.250 C 170.325 212.428,169.694 212.657,169.554 212.759 C 169.261 212.974,165.032 213.600,160.764 214.061 C 154.692 214.716,143.526 214.129,135.924 212.754 C 133.264 212.273,129.009 211.440,128.153 211.232 C 126.128 210.740,120.805 209.190,120.127 208.895 C 119.847 208.773,118.758 208.371,117.707 208.003 C 109.993 205.298,103.000 197.308,98.216 185.732 C 97.839 184.822,97.374 183.732,97.183 183.312 C 96.503 181.821,95.335 178.262,93.838 173.121 C 93.634 172.420,93.373 171.618,93.258 171.338 C 92.963 170.619,91.836 166.810,91.336 164.841 C 90.602 161.952,90.476 161.419,90.341 160.637 C 90.213 159.889,89.832 158.171,89.026 154.713 C 88.442 152.207,87.999 150.000,87.530 147.261 C 87.302 145.930,87.012 144.268,86.885 143.567 C 86.758 142.866,86.528 141.089,86.374 139.618 C 86.220 138.146,85.972 135.968,85.824 134.777 C 85.408 131.440,85.225 109.175,85.589 106.242 C 85.924 103.541,86.495 99.330,86.866 96.815 C 87.000 95.904,87.295 93.898,87.520 92.357 C 87.746 90.815,88.045 89.038,88.184 88.408 C 88.580 86.620,89.202 84.259,89.437 83.653 C 89.554 83.350,89.837 81.860,90.066 80.341 C 90.509 77.390,90.807 76.072,91.351 74.650 C 91.539 74.159,91.763 73.394,91.850 72.948 C 92.342 70.412,99.850 65.081,105.253 63.432 C 106.287 63.116,108.624 62.353,110.446 61.737 C 112.268 61.120,114.561 60.379,115.541 60.089 C 116.522 59.799,117.554 59.469,117.834 59.355 C 118.115 59.241,119.204 58.960,120.255 58.732 C 121.306 58.503,122.624 58.213,123.185 58.087 C 125.690 57.524,132.710 56.633,136.051 56.453 C 139.485 56.268,159.703 56.553,161.656 56.814 M250.731 86.903 C 248.982 87.436,246.914 89.164,246.071 90.797 C 245.528 91.850,245.127 94.505,245.506 94.547 C 247.468 94.765,247.796 94.683,247.695 93.996 C 247.552 93.022,248.755 90.651,249.933 89.588 C 252.777 87.018,255.778 86.753,258.899 88.796 C 260.197 89.646,260.217 89.650,259.363 88.908 C 257.186 87.013,253.317 86.115,250.731 86.903 M254.097 90.651 C 252.694 91.221,251.761 92.112,251.157 93.455 C 250.886 94.058,250.422 94.642,250.128 94.751 C 249.767 94.884,250.091 94.954,251.122 94.963 L 252.652 94.978 253.114 93.618 C 253.594 92.206,254.699 90.911,255.796 90.476 L 256.433 90.223 255.796 90.221 C 255.446 90.220,254.681 90.414,254.097 90.651 M260.703 90.840 C 260.502 91.058,260.480 91.241,260.641 91.340 C 260.781 91.427,260.966 91.313,261.052 91.088 C 261.263 90.539,261.092 90.418,260.703 90.840 M148.191 96.495 C 146.549 96.731,144.811 98.435,144.413 100.198 C 143.356 104.883,146.624 108.230,150.931 106.875 C 157.098 104.936,154.625 95.568,148.191 96.495 M151.083 97.351 C 154.920 99.650,154.944 104.617,151.125 106.273 C 145.524 108.703,141.962 100.583,147.239 97.413 C 148.434 96.694,149.946 96.670,151.083 97.351 M307.070 104.379 C 307.315 104.444,307.717 104.444,307.962 104.379 C 308.207 104.315,308.006 104.263,307.516 104.263 C 307.025 104.263,306.825 104.315,307.070 104.379 M243.506 106.932 C 243.823 106.993,244.282 106.990,244.525 106.927 C 244.769 106.863,244.510 106.813,243.949 106.816 C 243.389 106.819,243.189 106.871,243.506 106.932 M264.777 108.201 C 265.022 108.265,265.424 108.265,265.669 108.201 C 265.914 108.137,265.713 108.085,265.223 108.085 C 264.732 108.085,264.532 108.137,264.777 108.201 M269.575 108.881 C 269.634 108.932,270.025 109.050,270.446 109.144 C 271.004 109.269,271.107 109.245,270.828 109.056 C 270.484 108.823,269.320 108.661,269.575 108.881 M294.163 110.281 C 294.089 110.401,294.340 110.774,294.721 111.109 L 295.414 111.720 294.838 111.064 C 294.522 110.703,294.340 110.331,294.435 110.236 C 294.530 110.141,294.538 110.064,294.452 110.064 C 294.367 110.064,294.237 110.162,294.163 110.281 M296.624 110.239 C 296.869 110.303,297.271 110.303,297.516 110.239 C 297.761 110.175,297.561 110.123,297.070 110.123 C 296.580 110.123,296.379 110.175,296.624 110.239 M300.955 110.749 C 301.201 110.813,301.602 110.813,301.847 110.749 C 302.092 110.685,301.892 110.632,301.401 110.632 C 300.911 110.632,300.710 110.685,300.955 110.749 M304.522 111.004 C 304.768 111.068,305.169 111.068,305.414 111.004 C 305.659 110.940,305.459 110.887,304.968 110.887 C 304.478 110.887,304.277 110.940,304.522 111.004 M296.815 112.994 C 297.291 113.484,297.737 113.885,297.807 113.885 C 297.877 113.885,297.545 113.484,297.070 112.994 C 296.595 112.503,296.148 112.102,296.078 112.102 C 296.008 112.102,296.340 112.503,296.815 112.994 M301.187 117.173 C 300.921 117.337,300.943 117.417,301.289 117.550 C 301.814 117.752,302.102 117.541,301.764 117.204 C 301.632 117.072,301.372 117.058,301.187 117.173 M303.715 126.178 C 303.774 126.213,304.166 126.529,304.586 126.879 L 305.350 127.516 304.733 126.815 C 304.393 126.430,304.001 126.115,303.862 126.115 C 303.723 126.115,303.657 126.143,303.715 126.178 M301.051 127.526 C 300.963 127.753,300.902 128.131,300.914 128.365 C 300.926 128.599,301.037 128.452,301.160 128.038 C 301.400 127.234,301.315 126.836,301.051 127.526 M371.454 130.255 C 372.510 131.380,372.739 131.582,372.739 131.391 C 372.739 131.350,372.194 130.805,371.529 130.180 L 370.318 129.045 371.454 130.255 M301.692 135.287 C 301.692 135.497,301.790 135.898,301.911 136.178 C 302.049 136.500,302.130 136.547,302.130 136.306 C 302.130 136.096,302.031 135.694,301.911 135.414 C 301.773 135.093,301.692 135.046,301.692 135.287 M314.522 136.051 C 314.803 136.171,315.261 136.267,315.541 136.262 C 315.951 136.256,315.926 136.215,315.414 136.051 C 314.543 135.772,313.873 135.772,314.522 136.051 M340.000 136.051 C 340.280 136.171,340.682 136.270,340.892 136.270 C 341.133 136.270,341.086 136.189,340.764 136.051 C 340.484 135.931,340.083 135.832,339.873 135.832 C 339.632 135.832,339.679 135.913,340.000 136.051 M316.964 136.397 C 317.022 136.448,317.414 136.566,317.834 136.660 C 318.393 136.785,318.496 136.761,318.217 136.572 C 317.873 136.339,316.708 136.177,316.964 136.397 M373.376 152.357 C 373.629 152.637,373.881 152.866,373.934 152.866 C 373.987 152.866,373.908 152.637,373.758 152.357 C 373.608 152.076,373.357 151.847,373.200 151.847 C 373.043 151.847,373.122 152.076,373.376 152.357 M369.045 153.376 C 368.358 153.550,368.345 153.571,368.917 153.575 C 369.268 153.578,369.841 153.488,370.191 153.376 C 371.047 153.102,370.122 153.102,369.045 153.376 M362.357 154.316 C 362.602 154.380,363.003 154.380,363.248 154.316 C 363.494 154.252,363.293 154.199,362.803 154.199 C 362.312 154.199,362.111 154.252,362.357 154.316 M354.968 155.080 C 355.213 155.144,355.615 155.144,355.860 155.080 C 356.105 155.016,355.904 154.964,355.414 154.964 C 354.924 154.964,354.723 155.016,354.968 155.080 M336.561 158.599 C 336.210 158.799,336.038 158.963,336.178 158.963 C 336.318 158.963,336.720 158.799,337.070 158.599 C 337.420 158.398,337.592 158.235,337.452 158.235 C 337.312 158.235,336.911 158.398,336.561 158.599 M333.426 160.249 C 332.768 160.666,332.229 161.063,332.229 161.130 C 332.229 161.198,332.803 160.896,333.503 160.461 C 334.627 159.762,334.962 159.490,334.700 159.490 C 334.657 159.490,334.084 159.832,333.426 160.249 M148.043 165.032 C 145.350 166.405,145.619 172.923,148.408 173.850 C 148.861 174.001,148.854 173.970,148.343 173.568 C 147.163 172.641,146.303 168.631,146.961 167.117 C 148.268 164.103,152.928 164.614,153.533 167.837 C 154.122 170.980,152.674 173.479,149.936 174.043 C 149.231 174.188,149.251 174.203,150.198 174.234 C 154.181 174.364,155.842 167.467,152.383 165.163 C 151.307 164.446,149.311 164.386,148.043 165.032 M325.978 165.924 L 324.713 167.261 326.051 165.997 C 326.787 165.301,327.389 164.700,327.389 164.659 C 327.389 164.469,327.153 164.681,325.978 165.924 M321.911 169.682 C 320.515 171.083,319.485 172.214,319.623 172.195 C 319.875 172.160,324.786 167.134,324.567 167.134 C 324.502 167.134,323.307 168.280,321.911 169.682 M286.943 170.112 C 287.188 170.176,287.589 170.176,287.834 170.112 C 288.080 170.048,287.879 169.995,287.389 169.995 C 286.898 169.995,286.697 170.048,286.943 170.112 M316.688 175.588 C 316.057 176.163,315.771 176.512,316.051 176.364 C 316.530 176.111,318.186 174.510,317.946 174.533 C 317.885 174.538,317.318 175.014,316.688 175.588 M289.682 180.371 C 289.892 180.513,290.283 180.631,290.552 180.633 C 291.204 180.638,291.000 180.492,290.064 180.283 C 289.505 180.158,289.402 180.182,289.682 180.371 " stroke="none" fill="#8d5f35" fill-rule="evenodd"></path><path id="path4" d="M305.162 84.766 C 305.479 84.827,305.938 84.825,306.181 84.761 C 306.425 84.697,306.166 84.647,305.605 84.650 C 305.045 84.653,304.845 84.705,305.162 84.766 M308.220 84.766 C 308.536 84.827,308.995 84.825,309.239 84.761 C 309.482 84.697,309.223 84.647,308.662 84.650 C 308.102 84.653,307.903 84.705,308.220 84.766 M252.067 88.133 C 249.790 89.167,247.491 92.232,247.692 93.966 C 247.835 95.210,250.955 95.026,250.955 93.773 C 250.955 93.144,252.639 91.276,253.720 90.705 C 254.231 90.435,254.504 90.209,254.326 90.202 C 253.309 90.167,251.758 91.672,250.530 93.885 C 250.303 94.294,250.030 94.380,249.147 94.321 C 247.750 94.226,247.749 94.224,248.162 92.931 C 249.001 90.307,251.112 88.393,253.734 87.881 C 254.608 87.710,254.615 87.701,253.885 87.678 C 253.465 87.665,252.647 87.870,252.067 88.133 M256.051 87.817 C 256.401 87.875,257.087 88.117,257.575 88.356 C 258.593 88.854,260.324 90.383,259.490 90.048 C 258.649 89.709,256.467 89.623,255.529 89.892 C 254.796 90.103,255.011 90.138,256.826 90.104 C 258.519 90.073,259.153 90.163,259.683 90.510 C 260.998 91.370,261.313 90.938,260.191 89.813 C 259.136 88.756,257.044 87.644,256.178 87.680 C 255.500 87.709,255.486 87.725,256.051 87.817 M149.239 93.683 C 149.556 93.744,150.014 93.742,150.258 93.678 C 150.501 93.614,150.242 93.565,149.682 93.567 C 149.121 93.570,148.922 93.622,149.239 93.683 M300.107 103.846 C 299.920 104.072,299.960 104.228,300.248 104.389 C 300.992 104.805,308.244 110.952,308.262 111.182 C 308.272 111.308,307.576 111.334,306.688 111.240 C 305.812 111.148,304.178 111.023,303.057 110.963 L 301.019 110.854 303.185 111.204 C 309.263 112.186,309.761 111.617,305.629 108.408 C 305.087 107.987,304.344 107.355,303.978 107.002 C 303.612 106.649,302.796 105.963,302.166 105.477 C 300.126 103.905,300.115 103.874,301.674 104.049 C 302.435 104.134,303.917 104.254,304.968 104.316 L 306.879 104.428 305.350 104.187 C 301.671 103.609,300.374 103.524,300.107 103.846 M307.643 104.738 C 308.064 104.868,309.325 105.087,310.446 105.225 C 313.806 105.641,315.746 105.954,316.686 106.233 C 317.176 106.378,317.913 106.497,318.324 106.497 C 318.736 106.497,319.424 106.602,319.855 106.731 C 320.285 106.859,321.554 107.153,322.675 107.384 C 323.796 107.615,325.065 107.911,325.496 108.042 C 325.926 108.173,326.484 108.280,326.735 108.280 C 326.987 108.280,327.724 108.447,328.373 108.650 C 329.023 108.853,330.013 109.137,330.573 109.280 C 332.364 109.738,334.633 110.376,335.159 110.569 C 335.439 110.672,336.357 110.958,337.197 111.204 C 338.928 111.711,339.351 111.861,340.709 112.449 C 341.240 112.678,341.824 112.866,342.008 112.866 C 342.320 112.866,343.501 113.353,344.519 113.902 C 344.762 114.033,345.099 114.140,345.266 114.140 C 345.434 114.140,346.038 114.359,346.607 114.627 C 347.177 114.895,348.331 115.420,349.172 115.794 C 351.863 116.991,353.958 118.041,356.151 119.291 C 357.327 119.961,358.338 120.510,358.398 120.510 C 358.457 120.510,358.881 120.796,359.340 121.146 C 359.800 121.497,360.250 121.783,360.342 121.783 C 361.048 121.783,368.286 127.558,371.019 130.302 C 374.453 133.749,378.522 139.416,379.765 142.483 C 380.034 143.148,380.341 143.693,380.446 143.693 C 380.551 143.694,380.641 143.952,380.645 144.268 C 380.650 144.583,380.821 145.063,381.027 145.335 C 381.430 145.868,381.537 145.498,381.189 144.774 C 378.557 139.301,377.976 138.290,375.632 135.107 C 373.907 132.764,369.904 128.596,367.555 126.697 C 366.553 125.887,365.675 125.164,365.605 125.090 C 363.170 122.520,352.503 116.637,344.841 113.639 C 339.731 111.639,339.477 111.547,336.688 110.702 C 335.427 110.320,334.108 109.909,333.758 109.789 C 332.510 109.361,328.612 108.363,324.968 107.539 C 322.498 106.980,316.078 105.741,313.631 105.351 C 312.159 105.117,310.405 104.820,309.733 104.692 C 309.060 104.564,308.143 104.468,307.694 104.480 L 306.879 104.502 307.643 104.738 M242.594 106.443 C 242.374 106.596,242.985 106.733,244.378 106.843 C 247.237 107.070,250.050 107.682,251.592 108.413 C 252.680 108.928,253.966 109.501,256.433 110.568 C 256.713 110.689,257.516 110.988,258.217 111.233 C 258.917 111.477,259.599 111.772,259.732 111.889 C 259.866 112.006,260.177 112.102,260.424 112.102 C 260.672 112.102,261.251 112.263,261.711 112.459 C 263.340 113.154,265.896 114.080,268.786 115.020 C 272.171 116.123,277.437 118.584,280.451 120.473 C 281.601 121.194,282.590 121.783,282.649 121.783 C 282.938 121.783,288.039 124.961,289.994 126.359 C 292.658 128.264,295.366 130.887,296.046 132.221 C 296.318 132.753,296.870 133.519,297.273 133.922 C 298.163 134.812,298.347 135.274,298.046 135.860 C 297.643 136.644,296.101 136.466,293.121 135.293 C 292.841 135.183,292.096 134.892,291.465 134.646 C 290.834 134.400,289.964 134.045,289.531 133.858 C 289.098 133.671,288.124 133.348,287.366 133.141 C 286.607 132.933,285.357 132.580,284.586 132.357 C 283.275 131.977,280.453 131.190,277.197 130.295 C 267.242 127.559,264.237 127.038,263.191 127.868 C 262.557 128.372,262.944 129.427,263.762 129.427 C 263.960 129.427,267.611 130.786,269.936 131.726 C 270.217 131.839,272.051 132.532,274.013 133.266 C 275.975 133.999,278.382 134.969,279.363 135.420 C 280.344 135.871,281.720 136.496,282.420 136.808 C 292.203 141.169,297.927 145.598,295.926 147.259 C 295.526 147.591,288.689 147.659,286.325 147.354 C 284.777 147.155,278.477 147.699,276.734 148.183 C 274.658 148.760,275.055 149.138,278.854 150.203 C 283.340 151.460,289.960 154.406,291.863 155.992 C 293.053 156.984,294.928 158.217,295.247 158.217 C 295.956 158.217,296.815 159.318,296.815 160.226 C 296.815 161.372,296.351 161.847,293.248 163.880 C 290.246 165.846,285.987 169.149,285.987 169.510 C 285.987 169.721,287.290 169.855,290.446 169.965 C 296.570 170.180,298.076 170.705,298.085 172.627 C 298.091 173.773,297.217 174.449,292.803 176.715 C 288.952 178.692,288.608 178.991,289.167 179.873 C 289.498 180.393,292.051 180.344,294.528 179.768 C 295.576 179.524,297.178 179.160,298.089 178.957 C 299.000 178.755,300.146 178.481,300.637 178.349 C 303.282 177.637,306.877 176.836,308.768 176.538 C 310.140 176.322,311.222 175.990,311.773 175.616 C 312.982 174.796,313.807 174.853,314.343 175.795 C 315.111 177.145,316.264 176.482,318.689 173.297 C 321.177 170.029,327.176 164.487,331.217 161.724 C 335.780 158.603,341.523 156.310,345.350 156.081 C 346.471 156.014,347.847 155.898,348.408 155.823 C 348.968 155.748,350.975 155.506,352.866 155.286 C 354.758 155.066,357.223 154.779,358.344 154.648 C 359.465 154.517,361.987 154.228,363.949 154.006 C 365.911 153.783,368.137 153.493,368.896 153.361 C 369.655 153.229,370.859 153.113,371.571 153.103 C 374.041 153.069,374.251 152.305,371.975 151.635 C 371.484 151.491,369.650 150.864,367.898 150.242 C 363.846 148.803,359.139 147.235,356.688 146.507 C 355.637 146.196,354.514 145.836,354.192 145.709 C 353.443 145.413,353.051 145.414,353.235 145.710 C 353.314 145.838,353.836 146.020,354.395 146.115 C 354.954 146.209,355.476 146.391,355.555 146.519 C 355.634 146.647,355.966 146.752,356.292 146.752 C 356.618 146.752,357.213 146.923,357.614 147.132 C 358.016 147.342,358.546 147.513,358.793 147.514 C 359.040 147.515,359.442 147.617,359.685 147.740 C 359.928 147.863,360.758 148.160,361.529 148.399 C 362.299 148.638,363.159 148.928,363.439 149.045 C 363.720 149.161,364.178 149.316,364.459 149.388 C 364.739 149.459,366.287 149.995,367.898 150.579 C 369.510 151.162,371.057 151.695,371.338 151.764 C 373.469 152.289,373.409 152.866,371.223 152.866 C 370.249 152.866,368.902 152.981,368.229 153.120 C 367.034 153.369,364.225 153.701,359.618 154.141 C 358.357 154.261,355.949 154.544,354.268 154.769 C 352.586 154.995,349.362 155.341,347.104 155.539 C 343.180 155.881,338.839 156.926,337.975 157.735 C 337.841 157.860,337.546 157.962,337.319 157.962 C 336.411 157.962,332.146 160.451,328.701 162.991 C 326.028 164.963,319.897 170.995,317.888 173.631 C 316.096 175.982,315.491 176.295,314.695 175.278 C 313.926 174.296,312.495 174.228,311.421 175.122 C 310.953 175.511,310.209 175.781,309.299 175.891 C 307.580 176.100,304.475 176.761,301.401 177.572 C 300.911 177.702,299.707 177.994,298.726 178.221 C 297.745 178.449,296.541 178.735,296.051 178.858 C 288.610 180.714,287.671 179.994,293.575 176.958 C 298.743 174.301,299.241 173.793,298.595 171.835 C 298.053 170.192,296.361 169.656,291.110 169.460 L 286.805 169.299 289.708 167.123 C 291.305 165.925,293.457 164.378,294.490 163.684 C 298.405 161.053,298.603 159.373,295.208 157.581 C 294.200 157.049,292.901 156.181,292.320 155.651 C 291.482 154.888,286.329 152.102,285.754 152.102 C 285.680 152.102,285.015 151.833,284.275 151.505 C 282.737 150.822,281.970 150.546,280.000 149.966 C 278.026 149.386,276.283 148.816,276.433 148.802 C 276.503 148.795,277.535 148.617,278.726 148.408 C 280.323 148.126,282.871 148.026,288.427 148.026 L 295.962 148.025 296.547 147.403 C 297.524 146.362,296.135 144.182,292.937 141.738 C 291.004 140.260,279.839 134.778,275.669 133.259 C 275.178 133.080,274.433 132.793,274.013 132.620 C 273.592 132.447,272.904 132.181,272.484 132.030 C 263.234 128.688,262.211 128.153,265.075 128.153 C 267.052 128.153,269.225 128.647,277.962 131.083 C 278.592 131.259,279.624 131.545,280.255 131.720 C 281.381 132.032,282.175 132.254,285.223 133.114 C 287.042 133.628,290.032 134.613,291.090 135.048 C 291.506 135.219,292.306 135.554,292.866 135.793 C 297.787 137.892,300.529 136.765,297.820 133.758 C 297.253 133.127,296.623 132.227,296.422 131.758 C 295.808 130.327,291.867 126.829,288.025 124.305 C 287.029 123.651,279.916 119.419,278.800 118.816 C 278.490 118.649,277.916 118.338,277.526 118.126 C 276.810 117.738,273.968 116.411,271.847 115.474 C 270.630 114.936,270.173 114.779,266.752 113.724 C 265.561 113.356,264.471 112.974,264.331 112.874 C 264.191 112.774,262.643 112.201,260.892 111.601 C 259.140 111.001,257.598 110.409,257.465 110.287 C 257.332 110.164,257.077 110.064,256.899 110.064 C 256.596 110.064,256.042 109.827,252.102 108.017 C 251.261 107.631,250.401 107.255,250.191 107.181 C 248.659 106.642,257.329 107.291,261.529 108.029 C 262.229 108.152,264.064 108.436,265.605 108.659 C 268.751 109.116,270.479 109.428,272.791 109.957 C 273.661 110.156,274.657 110.318,275.005 110.318 C 275.354 110.318,275.710 110.433,275.796 110.573 C 275.883 110.713,276.319 110.821,276.767 110.812 C 277.821 110.791,276.968 110.397,275.159 110.070 C 274.529 109.956,272.752 109.617,271.210 109.318 C 265.381 108.187,261.084 107.498,255.924 106.867 C 252.029 106.390,243.081 106.106,242.594 106.443 M294.417 110.284 C 294.342 110.404,294.652 110.834,295.106 111.239 C 302.343 117.693,302.038 117.411,301.902 117.540 C 301.837 117.601,300.460 117.213,298.844 116.677 C 292.311 114.512,278.700 110.742,277.962 110.893 C 277.613 110.965,278.160 111.134,281.146 111.879 C 281.707 112.018,282.739 112.290,283.439 112.482 C 284.140 112.674,285.401 113.018,286.242 113.248 C 287.083 113.477,288.034 113.772,288.356 113.903 C 288.678 114.033,289.167 114.140,289.442 114.140 C 289.718 114.140,290.142 114.241,290.386 114.363 C 290.629 114.486,291.516 114.788,292.357 115.035 C 293.197 115.282,294.688 115.739,295.669 116.051 C 296.650 116.363,298.140 116.820,298.981 117.068 C 299.822 117.315,300.618 117.618,300.752 117.740 C 300.885 117.862,301.315 117.962,301.707 117.962 C 302.597 117.962,302.645 117.411,301.812 116.756 C 301.477 116.493,300.302 115.461,299.200 114.464 C 298.099 113.467,296.911 112.408,296.561 112.112 C 296.210 111.815,295.580 111.273,295.159 110.909 L 294.395 110.246 295.287 110.427 C 295.777 110.527,297.210 110.651,298.471 110.703 L 300.764 110.797 298.217 110.444 C 295.151 110.020,294.594 109.997,294.417 110.284 M97.667 118.854 C 97.668 119.975,97.713 120.401,97.766 119.802 C 97.820 119.203,97.820 118.286,97.765 117.764 C 97.710 117.242,97.666 117.732,97.667 118.854 M97.656 123.822 C 97.656 124.592,97.704 124.908,97.762 124.522 C 97.820 124.137,97.820 123.506,97.762 123.121 C 97.704 122.736,97.656 123.051,97.656 123.822 M302.038 125.820 C 300.758 126.603,300.571 126.980,300.736 128.464 C 300.817 129.204,300.991 131.287,301.122 133.094 C 301.467 137.873,303.121 139.026,305.437 136.102 L 306.196 135.144 307.939 135.352 C 308.897 135.466,310.255 135.608,310.955 135.667 L 312.229 135.774 310.701 135.434 C 307.848 134.798,306.068 134.705,305.689 135.174 C 302.956 138.548,301.808 137.834,301.572 132.611 C 301.502 131.070,301.308 129.433,301.141 128.973 C 299.851 125.432,304.302 125.003,305.684 128.535 C 306.154 129.739,306.243 129.818,307.295 129.975 C 307.907 130.066,309.611 130.329,311.083 130.560 C 321.123 132.135,328.293 133.438,336.688 135.214 C 339.660 135.843,340.465 136.000,341.529 136.159 L 342.548 136.312 341.656 135.946 C 341.166 135.745,340.341 135.571,339.824 135.561 C 339.307 135.550,338.813 135.427,338.726 135.287 C 338.640 135.146,338.182 135.032,337.709 135.032 C 337.236 135.032,336.526 134.905,336.131 134.750 C 335.737 134.595,334.783 134.374,334.013 134.259 C 333.242 134.144,331.694 133.859,330.573 133.625 C 329.452 133.392,327.962 133.104,327.261 132.986 C 326.561 132.868,325.013 132.581,323.822 132.348 C 322.631 132.115,321.025 131.829,320.255 131.712 C 319.484 131.596,317.822 131.316,316.561 131.090 C 314.068 130.643,312.383 130.386,309.045 129.940 C 306.835 129.646,305.987 129.167,305.987 128.212 C 305.987 126.571,303.387 124.995,302.038 125.820 M312.994 136.079 C 313.414 136.211,314.446 136.426,315.287 136.557 C 318.897 137.120,319.959 137.322,320.613 137.571 C 320.995 137.716,321.751 137.834,322.295 137.834 C 322.838 137.834,323.353 137.949,323.439 138.089 C 323.526 138.229,324.011 138.344,324.516 138.344 C 326.051 138.344,325.416 138.165,320.507 137.213 C 317.916 136.711,315.307 136.187,314.710 136.048 C 314.112 135.910,313.310 135.806,312.926 135.818 L 312.229 135.840 312.994 136.079 M342.723 136.439 C 342.796 136.512,343.589 136.732,344.485 136.928 C 346.388 137.345,349.849 138.200,351.847 138.748 C 352.618 138.960,353.650 139.240,354.140 139.371 C 356.455 139.990,359.858 141.013,362.236 141.804 C 363.676 142.283,364.938 142.672,365.039 142.667 C 365.485 142.647,364.178 141.911,363.697 141.911 C 363.401 141.911,363.050 141.816,362.917 141.699 C 362.784 141.583,361.930 141.283,361.019 141.034 C 360.108 140.785,359.134 140.495,358.854 140.390 C 358.326 140.192,356.300 139.606,354.522 139.136 C 353.962 138.988,352.815 138.681,351.975 138.455 C 351.134 138.228,350.045 137.947,349.554 137.831 C 349.064 137.714,348.047 137.438,347.296 137.217 C 346.544 136.996,345.605 136.815,345.209 136.815 C 344.813 136.815,344.418 136.701,344.331 136.561 C 344.245 136.420,343.817 136.306,343.382 136.306 C 342.947 136.306,342.650 136.366,342.723 136.439 M326.369 138.726 C 326.860 138.915,327.635 139.078,328.093 139.089 C 328.550 139.100,329.123 139.218,329.367 139.353 C 329.772 139.577,330.508 139.765,333.376 140.379 C 334.290 140.575,336.019 140.993,338.599 141.642 C 339.520 141.873,342.515 142.675,344.968 143.346 C 345.739 143.556,346.633 143.836,346.955 143.966 C 347.277 144.097,347.765 144.204,348.041 144.204 C 348.316 144.204,348.741 144.302,348.984 144.423 C 349.772 144.813,352.030 145.478,352.518 145.465 C 353.268 145.444,351.556 144.857,347.389 143.707 C 345.287 143.127,343.051 142.500,342.420 142.313 C 341.502 142.041,333.942 140.169,327.449 138.605 C 325.937 138.242,325.297 138.313,326.369 138.726 M365.350 142.768 C 365.350 142.820,366.067 143.120,366.943 143.435 C 367.818 143.750,369.140 144.281,369.880 144.616 C 370.620 144.950,371.291 145.223,371.370 145.223 C 372.590 145.223,379.847 149.824,381.602 151.710 C 383.147 153.370,383.484 153.359,383.087 151.662 L 382.803 150.446 382.724 151.392 L 382.645 152.338 381.195 150.907 C 379.013 148.753,374.534 146.128,369.682 144.160 C 369.331 144.018,368.720 143.741,368.323 143.543 C 367.927 143.346,367.389 143.185,367.128 143.185 C 366.868 143.185,366.583 143.070,366.497 142.930 C 366.352 142.696,365.350 142.555,365.350 142.768 M182.233 145.406 C 182.620 145.464,183.193 145.463,183.507 145.402 C 183.820 145.342,183.503 145.294,182.803 145.296 C 182.102 145.298,181.846 145.347,182.233 145.406 M381.418 146.418 C 381.409 146.725,381.516 147.047,381.656 147.134 C 381.796 147.220,381.920 147.600,381.930 147.977 C 381.958 148.966,382.629 150.677,382.656 149.827 C 382.676 149.169,382.320 147.881,381.769 146.624 C 381.481 145.968,381.432 145.939,381.418 146.418 M150.382 160.176 C 150.627 160.240,151.029 160.240,151.274 160.176 C 151.519 160.112,151.318 160.059,150.828 160.059 C 150.338 160.059,150.137 160.112,150.382 160.176 M378.153 165.016 C 378.398 165.080,378.799 165.080,379.045 165.016 C 379.290 164.952,379.089 164.900,378.599 164.900 C 378.108 164.900,377.908 164.952,378.153 165.016 M148.280 174.140 C 148.631 174.340,149.146 174.499,149.427 174.493 C 149.821 174.484,149.764 174.402,149.172 174.131 C 148.156 173.666,147.463 173.673,148.280 174.140 M237.643 245.025 C 238.099 245.082,238.844 245.082,239.299 245.025 C 239.755 244.969,239.382 244.922,238.471 244.922 C 237.561 244.922,237.188 244.969,237.643 245.025 M241.851 245.024 C 242.238 245.082,242.811 245.081,243.125 245.020 C 243.438 244.960,243.121 244.912,242.420 244.914 C 241.720 244.916,241.463 244.965,241.851 245.024 M227.568 245.284 C 228.508 245.333,230.113 245.333,231.135 245.285 C 232.157 245.236,231.389 245.196,229.427 245.196 C 227.465 245.196,226.629 245.235,227.568 245.284 " stroke="none" fill="#9b98a0" fill-rule="evenodd"></path></g></svg>